<?xml version="1.0" encoding="utf-8"?>
<!-- Generator: Adobe Illustrator 24.3.0, SVG Export Plug-In . SVG Version: 6.00 Build 0)  -->
<svg version="1.1" xmlns="http://www.w3.org/2000/svg" xmlns:xlink="http://www.w3.org/1999/xlink" x="0px" y="0px"
	 viewBox="0 0 500 500" style="enable-background:new 0 0 500 500;" xml:space="preserve">
<g id="Layer_1">
	<g>
		<path d="M44.87,437.74h4.99l9.95,25.86h-5.12l-2.02-5.33H42.12l-2.1,5.33H34.9L44.87,437.74z M47.39,444.6l-3.47,8.88h6.92
			L47.39,444.6z"/>
		<path d="M63.63,437.74h5.83c3.76,0,6.55,0.47,8.38,1.4c1.83,0.93,3.33,2.45,4.51,4.54s1.77,4.55,1.77,7.35
			c0,1.99-0.33,3.82-0.99,5.49c-0.66,1.67-1.58,3.06-2.74,4.16s-2.43,1.86-3.78,2.29c-1.36,0.42-3.71,0.63-7.06,0.63h-5.92V437.74z
			 M68.51,442.49v16.31h2.29c2.25,0,3.88-0.26,4.9-0.77c1.01-0.52,1.84-1.38,2.49-2.6c0.64-1.22,0.97-2.72,0.97-4.5
			c0-2.75-0.77-4.87-2.3-6.39c-1.38-1.36-3.6-2.04-6.66-2.04H68.51z"/>
		<path d="M96.71,437.74h4.99l9.95,25.86h-5.12l-2.02-5.33H93.95l-2.1,5.33h-5.12L96.71,437.74z M99.23,444.6l-3.47,8.88h6.92
			L99.23,444.6z"/>
		<path d="M115.43,437.74h5.22c2.82,0,4.86,0.26,6.11,0.78s2.23,1.37,2.95,2.53s1.08,2.56,1.08,4.19c0,1.8-0.47,3.3-1.42,4.5
			s-2.22,2.03-3.84,2.5c-0.95,0.27-2.68,0.4-5.19,0.4v10.95h-4.92V437.74z M120.35,447.85h1.56c1.23,0,2.09-0.09,2.57-0.26
			c0.48-0.18,0.86-0.47,1.13-0.87c0.28-0.41,0.41-0.9,0.41-1.47c0-1-0.39-1.73-1.16-2.19c-0.56-0.34-1.61-0.51-3.13-0.51h-1.39
			V447.85z"/>
		<path d="M133.06,437.74h14.29v4.85h-4.71v21.01h-4.99V442.6h-4.59V437.74z"/>
		<path d="M158.62,437.74h4.99l9.95,25.86h-5.12l-2.02-5.33h-10.55l-2.1,5.33h-5.12L158.62,437.74z M161.14,444.6l-3.47,8.88h6.92
			L161.14,444.6z"/>
		<path d="M177.36,463.6v-25.86h4.07c2.36,0,4.08,0.15,5.17,0.46c1.55,0.41,2.78,1.17,3.7,2.29c0.92,1.11,1.37,2.43,1.37,3.94
			c0,0.98-0.21,1.88-0.62,2.68s-1.09,1.56-2.03,2.26c1.57,0.74,2.72,1.66,3.45,2.77s1.09,2.42,1.09,3.93c0,1.45-0.38,2.78-1.13,3.97
			s-1.72,2.09-2.9,2.68s-2.82,0.89-4.91,0.89H177.36z M182.28,442.44v5.45h1.08c1.2,0,2.09-0.25,2.67-0.76
			c0.58-0.5,0.87-1.19,0.87-2.06c0-0.81-0.28-1.45-0.83-1.92c-0.55-0.47-1.39-0.71-2.52-0.71H182.28z M182.28,452.28v6.63h1.23
			c2.04,0,3.42-0.26,4.13-0.77s1.07-1.27,1.07-2.25c0-1.11-0.42-1.99-1.25-2.64s-2.22-0.97-4.16-0.97H182.28z"/>
		<path d="M197.89,437.74h4.89v25.86h-4.89V437.74z"/>
		<path d="M208.31,437.74h4.92v21.16h7.17v4.69h-12.09V437.74z"/>
		<path d="M223.8,437.74h4.89v25.86h-4.89V437.74z"/>
		<path d="M231.67,437.74h14.29v4.85h-4.71v21.01h-4.99V442.6h-4.59V437.74z"/>
		<path d="M247.5,437.74h5.28l4.82,9.3l4.8-9.3h5.22l-7.57,14.66v11.2h-4.96v-11.2L247.5,437.74z"/>
		<path d="M269.47,468.21l11.61-31.2h3.43l-11.62,31.2H269.47z"/>
		<path d="M288.29,437.74h12.83v4.8h-7.95v4.69h7.95v4.73h-7.95v11.64h-4.89V437.74z"/>
		<path d="M305.5,437.74h4.92v21.16h7.17v4.69H305.5V437.74z"/>
		<path d="M321.36,437.74h14.12v4.82h-9.23v4.68h9.23v4.73h-9.23v6.8h9.23v4.83h-14.12V437.74z"/>
		<path d="M338.38,437.74h5.54l5.43,8.3l5.45-8.3h5.53l-8.2,12.54l8.72,13.32h-5.54l-5.95-9.09l-5.95,9.09h-5.57l8.75-13.33
			L338.38,437.74z"/>
		<path d="M364.2,437.74h4.89v25.86h-4.89V437.74z"/>
		<path d="M374.62,463.6v-25.86h4.07c2.36,0,4.08,0.15,5.17,0.46c1.55,0.41,2.78,1.17,3.7,2.29s1.37,2.43,1.37,3.94
			c0,0.98-0.21,1.88-0.62,2.68s-1.09,1.56-2.03,2.26c1.57,0.74,2.72,1.66,3.45,2.77s1.09,2.42,1.09,3.93c0,1.45-0.38,2.78-1.13,3.97
			s-1.72,2.09-2.9,2.68c-1.19,0.59-2.82,0.89-4.91,0.89H374.62z M379.54,442.44v5.45h1.08c1.2,0,2.09-0.25,2.67-0.76
			c0.58-0.5,0.87-1.19,0.87-2.06c0-0.81-0.28-1.45-0.83-1.92c-0.55-0.47-1.39-0.71-2.52-0.71H379.54z M379.54,452.28v6.63h1.23
			c2.04,0,3.42-0.26,4.13-0.77s1.07-1.27,1.07-2.25c0-1.11-0.42-1.99-1.25-2.64c-0.83-0.64-2.22-0.97-4.16-0.97H379.54z"/>
		<path d="M395.15,437.74h4.89v25.86h-4.89V437.74z"/>
		<path d="M405.58,437.74h4.92v21.16h7.17v4.69h-12.09V437.74z"/>
		<path d="M421.06,437.74h4.89v25.86h-4.89V437.74z"/>
		<path d="M428.94,437.74h14.29v4.85h-4.71v21.01h-4.99V442.6h-4.59V437.74z"/>
		<path d="M444.77,437.74h5.28l4.82,9.3l4.8-9.3h5.22l-7.57,14.66v11.2h-4.96v-11.2L444.77,437.74z"/>
	</g>
</g>
<g id="Layer_2">
	<path d="M100.28,168c-2.71,0-5.45-0.61-8.04-1.9c-8.89-4.45-12.5-15.26-8.05-24.15c0.54-1.08,13.45-26.75,32.95-52.75
		C145.61,51.24,173.59,32,200.3,32c36.12,0,52.74,33.24,66.1,59.95c12.1,24.19,20.99,40.05,33.9,40.05
		c14.14,0,33.95-15.6,54.35-42.8c17.57-23.43,29.43-47.01,29.55-47.25c4.45-8.89,15.26-12.49,24.15-8.05
		c8.89,4.45,12.5,15.26,8.05,24.15c-0.54,1.08-13.45,26.75-32.95,52.75c-28.47,37.96-56.44,57.2-83.15,57.2
		c-36.12,0-52.75-33.24-66.1-59.95C222.1,83.86,213.21,68,200.3,68c-14.14,0-33.95,15.6-54.35,42.8
		c-17.57,23.43-29.43,47.01-29.55,47.25C113.24,164.36,106.89,168,100.28,168z"/>
	<path d="M99.99,267.66c-2.71,0-5.45-0.61-8.04-1.9c-8.89-4.45-12.5-15.26-8.05-24.15c0.54-1.08,13.45-26.75,32.95-52.75
		c28.47-37.96,56.44-57.2,83.15-57.2c36.12,0,52.75,33.24,66.1,59.95c12.1,24.19,20.99,40.05,33.9,40.05
		c14.14,0,33.95-15.6,54.35-42.8c17.57-23.43,29.43-47.01,29.55-47.25c4.45-8.89,15.26-12.5,24.15-8.05
		c8.89,4.45,12.5,15.26,8.05,24.15c-0.54,1.08-13.45,26.75-32.95,52.75c-28.47,37.96-56.44,57.2-83.15,57.2
		c-36.12,0-52.75-33.24-66.1-59.95c-12.1-24.19-20.99-40.05-33.9-40.05c-14.14,0-33.95,15.6-54.35,42.8
		c-17.57,23.43-29.43,47.01-29.55,47.25C112.95,264.02,106.59,267.66,99.99,267.66z"/>
	<path d="M99.99,267.66c-2.71,0-5.45-0.61-8.04-1.9c-8.89-4.45-12.5-15.26-8.05-24.15c0.54-1.08,13.45-26.75,32.95-52.75
		c28.47-37.96,56.44-57.2,83.15-57.2c36.12,0,52.75,33.24,66.1,59.95c12.1,24.19,20.99,40.05,33.9,40.05
		c14.14,0,33.95-15.6,54.35-42.8c17.57-23.43,29.43-47.01,29.55-47.25c4.45-8.89,15.26-12.5,24.15-8.05
		c8.89,4.45,12.5,15.26,8.05,24.15c-0.54,1.08-13.45,26.75-32.95,52.75c-28.47,37.96-56.44,57.2-83.15,57.2
		c-36.12,0-52.75-33.24-66.1-59.95c-12.1-24.19-20.99-40.05-33.9-40.05c-14.14,0-33.95,15.6-54.35,42.8
		c-17.57,23.43-29.43,47.01-29.55,47.25C112.95,264.02,106.59,267.66,99.99,267.66z"/>
	<path d="M100.28,368c-2.71,0-5.45-0.61-8.04-1.9c-8.89-4.45-12.5-15.26-8.05-24.15c0.54-1.08,13.45-26.75,32.95-52.75
		c28.47-37.96,56.44-57.2,83.15-57.2c36.12,0,52.74,33.24,66.1,59.95c12.1,24.19,20.99,40.05,33.9,40.05
		c14.14,0,33.95-15.6,54.35-42.8c17.57-23.43,29.43-47.01,29.55-47.25c4.45-8.89,15.26-12.49,24.15-8.05
		c8.89,4.45,12.5,15.26,8.05,24.15c-0.54,1.08-13.45,26.75-32.95,52.75c-28.47,37.96-56.44,57.2-83.15,57.2
		c-36.12,0-52.75-33.24-66.1-59.95C222.1,283.86,213.21,268,200.3,268c-14.14,0-33.95,15.6-54.35,42.8
		c-17.57,23.43-29.43,47.01-29.55,47.25C113.24,364.36,106.89,368,100.28,368z"/>
</g>
</svg>
