<?xml version="1.0" encoding="utf-8"?>
<!-- Generator: Adobe Illustrator 24.3.0, SVG Export Plug-In . SVG Version: 6.00 Build 0)  -->
<svg version="1.1" id="Layer_1" xmlns="http://www.w3.org/2000/svg" xmlns:xlink="http://www.w3.org/1999/xlink" x="0px" y="0px"
	 viewBox="0 0 500 500" style="enable-background:new 0 0 500 500;" xml:space="preserve">
<g>
	<path d="M116.82,443.1l-3.44,3.28c-2.34-2.48-4.98-3.71-7.9-3.71c-2.47,0-4.55,0.84-6.24,2.53c-1.69,1.69-2.54,3.77-2.54,6.25
		c0,1.72,0.37,3.25,1.12,4.59c0.75,1.34,1.81,2.39,3.18,3.15s2.89,1.14,4.57,1.14c1.43,0,2.73-0.27,3.92-0.8
		c1.18-0.53,2.48-1.5,3.9-2.91l3.34,3.48c-1.91,1.86-3.71,3.16-5.41,3.88c-1.7,0.72-3.64,1.08-5.82,1.08
		c-4.02,0-7.31-1.27-9.87-3.82s-3.84-5.82-3.84-9.8c0-2.58,0.58-4.87,1.75-6.87s2.84-3.62,5.01-4.83s4.51-1.83,7.02-1.83
		c2.13,0,4.19,0.45,6.16,1.35C113.69,440.16,115.39,441.44,116.82,443.1z"/>
	<path d="M133.33,437.9c3.66,0,6.8,1.32,9.44,3.97c2.63,2.65,3.95,5.88,3.95,9.69c0,3.77-1.3,6.97-3.9,9.58
		c-2.6,2.61-5.75,3.92-9.45,3.92c-3.88,0-7.11-1.34-9.67-4.03s-3.85-5.87-3.85-9.56c0-2.47,0.6-4.75,1.79-6.82
		c1.2-2.07,2.84-3.72,4.93-4.93C128.66,438.51,130.92,437.9,133.33,437.9z M133.28,442.72c-2.39,0-4.41,0.83-6.04,2.5
		s-2.45,3.78-2.45,6.35c0,2.86,1.03,5.12,3.08,6.79c1.6,1.3,3.43,1.95,5.49,1.95c2.33,0,4.32-0.84,5.96-2.53
		c1.64-1.69,2.46-3.77,2.46-6.24c0-2.46-0.83-4.54-2.48-6.25C137.66,443.57,135.65,442.72,133.28,442.72z"/>
	<path d="M153.87,438.55h4.8l5.99,18.04l6.05-18.04h4.79l4.34,25.86h-4.76l-2.77-16.33l-5.49,16.33h-4.34l-5.44-16.33l-2.84,16.33
		h-4.8L153.87,438.55z"/>
	<path d="M186.26,438.55h4.8l5.99,18.04l6.05-18.04h4.79l4.34,25.86h-4.76l-2.77-16.33l-5.49,16.33h-4.34l-5.44-16.33l-2.84,16.33
		h-4.8L186.26,438.55z"/>
	<path d="M215.98,438.55h4.94v16.72c0,1.44,0.13,2.46,0.38,3.06c0.25,0.6,0.67,1.07,1.25,1.43c0.58,0.36,1.28,0.54,2.1,0.54
		c0.87,0,1.61-0.2,2.24-0.6c0.63-0.4,1.06-0.91,1.3-1.52s0.36-1.79,0.36-3.52v-16.11h4.94v15.42c0,2.6-0.15,4.41-0.44,5.41
		s-0.85,1.98-1.68,2.92s-1.78,1.63-2.86,2.08s-2.33,0.68-3.76,0.68c-1.88,0-3.51-0.43-4.9-1.29s-2.38-1.94-2.98-3.23
		s-0.9-3.48-0.9-6.57V438.55z"/>
	<path d="M239.21,438.55h4.72L255,455.57v-17.02h4.92v25.86h-4.73l-11.05-16.96v16.96h-4.92V438.55z"/>
	<path d="M265.48,438.55h4.89v25.86h-4.89V438.55z"/>
	<path d="M299.67,443.1l-3.44,3.28c-2.34-2.48-4.98-3.71-7.9-3.71c-2.47,0-4.55,0.84-6.24,2.53c-1.69,1.69-2.54,3.77-2.54,6.25
		c0,1.72,0.38,3.25,1.12,4.59c0.75,1.34,1.81,2.39,3.18,3.15s2.89,1.14,4.57,1.14c1.43,0,2.73-0.27,3.92-0.8
		c1.18-0.53,2.48-1.5,3.9-2.91l3.34,3.48c-1.91,1.86-3.71,3.16-5.41,3.88c-1.7,0.72-3.64,1.08-5.82,1.08
		c-4.02,0-7.31-1.27-9.87-3.82s-3.84-5.82-3.84-9.8c0-2.58,0.58-4.87,1.75-6.87s2.84-3.62,5.01-4.83s4.51-1.83,7.02-1.83
		c2.13,0,4.19,0.45,6.16,1.35C296.53,440.16,298.24,441.44,299.67,443.1z"/>
	<path d="M311.86,438.55h4.99l9.95,25.86h-5.12l-2.02-5.33h-10.55l-2.1,5.33h-5.12L311.86,438.55z M314.39,445.41l-3.47,8.88h6.92
		L314.39,445.41z"/>
	<path d="M328.05,438.55h14.29v4.85h-4.71v21.01h-4.99v-21.01h-4.59V438.55z"/>
	<path d="M345.37,438.55h4.89v25.86h-4.89V438.55z"/>
	<path d="M368,437.9c3.66,0,6.8,1.32,9.44,3.97s3.95,5.88,3.95,9.69c0,3.77-1.3,6.97-3.9,9.58s-5.75,3.92-9.45,3.92
		c-3.88,0-7.11-1.34-9.67-4.03c-2.57-2.68-3.85-5.87-3.85-9.56c0-2.47,0.6-4.75,1.79-6.82s2.84-3.72,4.93-4.93
		C363.33,438.51,365.58,437.9,368,437.9z M367.95,442.72c-2.39,0-4.41,0.83-6.04,2.5c-1.63,1.66-2.45,3.78-2.45,6.35
		c0,2.86,1.03,5.12,3.08,6.79c1.6,1.3,3.43,1.95,5.49,1.95c2.33,0,4.32-0.84,5.96-2.53s2.46-3.77,2.46-6.24
		c0-2.46-0.83-4.54-2.48-6.25C372.33,443.57,370.32,442.72,367.95,442.72z"/>
	<path d="M386.04,438.55h4.72l11.06,17.02v-17.02h4.92v25.86h-4.73l-11.05-16.96v16.96h-4.92V438.55z"/>
</g>
<path d="M200,20c-55.23,0-100,35.82-100,80c0,26.97,16.68,50.82,42.25,65.32C129.45,183.51,100,200,100,200
	c21.06,0,52.11-19.85,62.79-25.73c11.5,3.69,24.06,5.73,37.21,5.73c55.23,0,100-35.82,100-80C300,55.82,255.23,20,200,20z"/>
<path d="M300,200c55.23,0,100,35.82,100,80c0,26.97-16.68,50.82-42.25,65.32C370.55,363.51,400,380,400,380
	c-21.06,0-52.11-19.85-62.79-25.73c-11.5,3.69-24.06,5.73-37.21,5.73c-55.23,0-100-35.82-100-80C200,235.82,244.77,200,300,200z"/>
</svg>
