<?xml version="1.0" encoding="utf-8"?>
<!-- Generator: Adobe Illustrator 24.3.0, SVG Export Plug-In . SVG Version: 6.00 Build 0)  -->
<svg version="1.1" id="Layer_1" xmlns="http://www.w3.org/2000/svg" xmlns:xlink="http://www.w3.org/1999/xlink" x="0px" y="0px"
	 viewBox="0 0 500 500" style="enable-background:new 0 0 500 500;" xml:space="preserve">
<path d="M382,0H118c-9.9,0-18,8.1-18,18v264c0,9.9,8.1,18,18,18h264c9.9,0,18-8.1,18-18V18C400,8.1,391.9,0,382,0z M360,247
	c0,7.15-5.85,13-13,13H153c-7.15,0-13-5.85-13-13V53c0-7.15,5.85-13,13-13h194c7.15,0,13,5.85,13,13V247z"/>
<path d="M330,350H170c-5.5,0-10-4.5-10-10v-20c0-5.5,4.5-10,10-10h160c5.5,0,10,4.5,10,10v20C340,345.5,335.5,350,330,350z"/>
<path d="M370,400H130c-5.5,0-10-4.5-10-10v-20c0-5.5,4.5-10,10-10h240c5.5,0,10,4.5,10,10v20C380,395.5,375.5,400,370,400z"/>
<g>
	<path d="M138.13,420.5l-3.44,3.28c-2.34-2.48-4.98-3.71-7.9-3.71c-2.47,0-4.55,0.84-6.24,2.53c-1.69,1.69-2.54,3.77-2.54,6.25
		c0,1.72,0.37,3.25,1.12,4.59c0.75,1.34,1.81,2.39,3.18,3.15s2.89,1.14,4.57,1.14c1.43,0,2.73-0.27,3.92-0.8
		c1.18-0.53,2.48-1.5,3.9-2.91l3.34,3.48c-1.91,1.86-3.71,3.16-5.41,3.88c-1.7,0.72-3.64,1.08-5.82,1.08
		c-4.02,0-7.31-1.27-9.87-3.82s-3.84-5.82-3.84-9.8c0-2.58,0.58-4.87,1.75-6.87s2.84-3.62,5.01-4.83s4.51-1.83,7.02-1.83
		c2.13,0,4.19,0.45,6.16,1.35C135,417.55,136.7,418.83,138.13,420.5z"/>
	<path d="M154.65,415.3c3.66,0,6.8,1.32,9.44,3.97c2.63,2.65,3.95,5.88,3.95,9.69c0,3.77-1.3,6.97-3.9,9.58
		c-2.6,2.61-5.75,3.92-9.45,3.92c-3.88,0-7.11-1.34-9.67-4.03s-3.85-5.87-3.85-9.56c0-2.47,0.6-4.75,1.79-6.82
		c1.2-2.07,2.84-3.72,4.93-4.93C149.98,415.91,152.23,415.3,154.65,415.3z M154.59,420.12c-2.39,0-4.41,0.83-6.04,2.5
		s-2.45,3.78-2.45,6.35c0,2.86,1.03,5.12,3.08,6.79c1.6,1.3,3.43,1.95,5.49,1.95c2.33,0,4.32-0.84,5.96-2.53
		c1.64-1.69,2.46-3.77,2.46-6.24c0-2.46-0.83-4.54-2.48-6.25C158.98,420.97,156.96,420.12,154.59,420.12z"/>
	<path d="M175.18,415.95h4.8l5.99,18.04l6.05-18.04h4.79l4.34,25.86h-4.76l-2.77-16.33l-5.49,16.33h-4.34l-5.44-16.33l-2.84,16.33
		h-4.8L175.18,415.95z"/>
	<path d="M205.05,415.95h5.22c2.82,0,4.86,0.26,6.11,0.78s2.23,1.37,2.95,2.53s1.08,2.56,1.08,4.19c0,1.8-0.47,3.3-1.42,4.5
		s-2.22,2.03-3.84,2.5c-0.95,0.27-2.68,0.4-5.19,0.4v10.95h-4.92V415.95z M209.97,426.06h1.56c1.23,0,2.09-0.09,2.57-0.26
		c0.48-0.18,0.86-0.47,1.13-0.87c0.28-0.41,0.41-0.9,0.41-1.47c0-1-0.39-1.73-1.16-2.19c-0.56-0.34-1.61-0.51-3.13-0.51h-1.39
		V426.06z"/>
	<path d="M225.06,415.95H230v16.72c0,1.44,0.13,2.46,0.38,3.06c0.25,0.6,0.67,1.07,1.25,1.43c0.58,0.36,1.28,0.54,2.1,0.54
		c0.87,0,1.61-0.2,2.24-0.6c0.63-0.4,1.06-0.91,1.3-1.52s0.36-1.79,0.36-3.52v-16.11h4.94v15.42c0,2.6-0.15,4.41-0.44,5.41
		s-0.85,1.98-1.68,2.92s-1.78,1.63-2.86,2.08s-2.33,0.68-3.76,0.68c-1.88,0-3.51-0.43-4.9-1.29s-2.38-1.94-2.98-3.23
		s-0.9-3.48-0.9-6.57V415.95z"/>
	<path d="M245.73,415.95h14.29v4.85h-4.71v21.01h-4.99V420.8h-4.59V415.95z"/>
	<path d="M263.41,415.95h14.12v4.82h-9.23v4.68h9.23v4.73h-9.23v6.8h9.23v4.83h-14.12V415.95z"/>
	<path d="M282.45,415.95h5.21c2.86,0,4.89,0.25,6.1,0.76c1.21,0.51,2.19,1.36,2.92,2.54s1.11,2.58,1.11,4.2
		c0,1.7-0.41,3.12-1.22,4.26s-2.04,2.01-3.68,2.59l6.12,11.5h-5.38l-5.81-10.95h-0.45v10.95h-4.92V415.95z M287.37,426.06h1.54
		c1.57,0,2.64-0.21,3.23-0.62s0.88-1.09,0.88-2.05c0-0.56-0.15-1.05-0.44-1.47c-0.29-0.42-0.68-0.72-1.17-0.9s-1.39-0.27-2.7-0.27
		h-1.35V426.06z"/>
	<path d="M320.96,415.95h4.99l9.95,25.86h-5.12l-2.02-5.33h-10.55l-2.1,5.33h-5.12L320.96,415.95z M323.49,422.81l-3.47,8.88h6.92
		L323.49,422.81z"/>
	<path d="M339.72,415.95h4.72l11.06,17.02v-17.02h4.92v25.86h-4.73l-11.05-16.96v16.96h-4.92V415.95z"/>
	<path d="M366.35,415.95h5.83c3.76,0,6.55,0.47,8.38,1.4c1.83,0.93,3.33,2.45,4.51,4.54s1.77,4.55,1.77,7.35
		c0,1.99-0.33,3.82-0.99,5.49c-0.66,1.67-1.58,3.06-2.74,4.16s-2.43,1.86-3.79,2.29c-1.36,0.42-3.71,0.63-7.06,0.63h-5.92V415.95z
		 M371.24,420.7v16.31h2.29c2.25,0,3.88-0.26,4.9-0.77c1.01-0.52,1.84-1.38,2.49-2.6c0.64-1.22,0.97-2.72,0.97-4.5
		c0-2.75-0.77-4.87-2.3-6.39c-1.38-1.36-3.6-2.04-6.66-2.04H371.24z"/>
	<path d="M45.59,459.15h14.29V464h-4.71v21.01h-4.99V464h-4.59V459.15z"/>
	<path d="M63.28,459.15h14.12v4.82h-9.23v4.68h9.23v4.73h-9.23v6.8h9.23v4.83H63.28V459.15z"/>
	<path d="M105.75,463.7l-3.44,3.28c-2.34-2.48-4.98-3.71-7.9-3.71c-2.47,0-4.55,0.84-6.24,2.53c-1.69,1.69-2.54,3.77-2.54,6.25
		c0,1.72,0.37,3.25,1.12,4.59c0.75,1.34,1.81,2.39,3.18,3.15s2.89,1.14,4.57,1.14c1.43,0,2.73-0.27,3.92-0.8
		c1.18-0.53,2.48-1.5,3.9-2.91l3.34,3.48c-1.91,1.86-3.71,3.16-5.41,3.88c-1.7,0.72-3.64,1.08-5.82,1.08
		c-4.02,0-7.31-1.27-9.87-3.82s-3.84-5.82-3.84-9.8c0-2.58,0.58-4.87,1.75-6.87s2.84-3.62,5.01-4.83s4.51-1.83,7.02-1.83
		c2.13,0,4.19,0.45,6.16,1.35C102.61,460.75,104.32,462.04,105.75,463.7z"/>
	<path d="M110.03,459.15h4.99v9.76h8.63v-9.76h4.97v25.86h-4.97v-11.34h-8.63v11.34h-4.99V459.15z"/>
	<path d="M134.56,459.15h4.72l11.06,17.02v-17.02h4.92v25.86h-4.73l-11.05-16.96v16.96h-4.92V459.15z"/>
	<path d="M173.38,458.5c3.66,0,6.8,1.32,9.44,3.97c2.63,2.65,3.95,5.88,3.95,9.69c0,3.77-1.3,6.97-3.9,9.58
		c-2.6,2.61-5.75,3.92-9.45,3.92c-3.88,0-7.11-1.34-9.67-4.03s-3.85-5.87-3.85-9.56c0-2.47,0.6-4.75,1.79-6.82
		c1.2-2.07,2.84-3.72,4.93-4.93C168.71,459.11,170.96,458.5,173.38,458.5z M173.32,463.32c-2.39,0-4.41,0.83-6.04,2.5
		s-2.45,3.78-2.45,6.35c0,2.86,1.03,5.12,3.08,6.79c1.6,1.3,3.43,1.95,5.49,1.95c2.33,0,4.32-0.84,5.96-2.53
		c1.64-1.69,2.46-3.77,2.46-6.24c0-2.46-0.83-4.54-2.48-6.25C177.71,464.17,175.69,463.32,173.32,463.32z"/>
	<path d="M191.4,459.15h4.92v21.16h7.17v4.69H191.4V459.15z"/>
	<path d="M219.45,458.5c3.66,0,6.8,1.32,9.44,3.97c2.63,2.65,3.95,5.88,3.95,9.69c0,3.77-1.3,6.97-3.9,9.58
		c-2.6,2.61-5.75,3.92-9.45,3.92c-3.88,0-7.11-1.34-9.67-4.03s-3.85-5.87-3.85-9.56c0-2.47,0.6-4.75,1.79-6.82
		c1.2-2.07,2.84-3.72,4.93-4.93C214.78,459.11,217.03,458.5,219.45,458.5z M219.4,463.32c-2.39,0-4.41,0.83-6.04,2.5
		s-2.45,3.78-2.45,6.35c0,2.86,1.03,5.12,3.08,6.79c1.6,1.3,3.43,1.95,5.49,1.95c2.33,0,4.32-0.84,5.96-2.53
		c1.64-1.69,2.46-3.77,2.46-6.24c0-2.46-0.83-4.54-2.48-6.25C223.78,464.17,221.77,463.32,219.4,463.32z"/>
	<path d="M261.35,463.37l-3.47,3.43c-2.19-2.32-4.75-3.48-7.67-3.48c-2.55,0-4.68,0.84-6.4,2.53c-1.72,1.69-2.58,3.74-2.58,6.15
		c0,2.5,0.89,4.61,2.67,6.35c1.78,1.73,3.98,2.6,6.6,2.6c1.7,0,3.14-0.36,4.3-1.07s2.11-1.83,2.82-3.36h-7.49v-4.62h13.01l0.04,1.09
		c0,2.26-0.59,4.41-1.76,6.43s-2.69,3.57-4.55,4.64s-4.05,1.6-6.56,1.6c-2.68,0-5.08-0.58-7.18-1.75s-3.77-2.83-4.99-4.98
		s-1.84-4.48-1.84-6.98c0-3.42,1.13-6.4,3.39-8.93c2.68-3.01,6.18-4.52,10.48-4.52c2.25,0,4.35,0.42,6.31,1.25
		C258.15,460.45,259.76,461.66,261.35,463.37z"/>
	<path d="M265.87,459.15h5.28l4.82,9.3l4.8-9.3H286l-7.57,14.66v11.2h-4.96v-11.2L265.87,459.15z"/>
	<path d="M300.11,459.15h4.92v21.16h7.17v4.69h-12.09V459.15z"/>
	<path d="M315.59,459.15h4.89v25.86h-4.89V459.15z"/>
	<path d="M323.47,459.15h14.29V464h-4.71v21.01h-4.99V464h-4.59V459.15z"/>
	<path d="M341.15,459.15h14.12v4.82h-9.23v4.68h9.23v4.73h-9.23v6.8h9.23v4.83h-14.12V459.15z"/>
	<path d="M360.19,459.15h5.21c2.86,0,4.89,0.25,6.1,0.76c1.21,0.51,2.19,1.36,2.92,2.54s1.11,2.58,1.11,4.2
		c0,1.7-0.41,3.12-1.22,4.26s-2.04,2.01-3.68,2.59l6.12,11.5h-5.38l-5.81-10.95h-0.45v10.95h-4.92V459.15z M365.11,469.26h1.54
		c1.57,0,2.64-0.21,3.23-0.62s0.88-1.09,0.88-2.05c0-0.56-0.15-1.05-0.44-1.47c-0.29-0.42-0.68-0.72-1.17-0.9s-1.39-0.27-2.7-0.27
		h-1.35V469.26z"/>
	<path d="M388.63,459.15h4.99l9.95,25.86h-5.12l-2.02-5.33h-10.55l-2.1,5.33h-5.12L388.63,459.15z M391.15,466.01l-3.47,8.88h6.92
		L391.15,466.01z"/>
	<path d="M431.13,463.7l-3.44,3.28c-2.34-2.48-4.98-3.71-7.9-3.71c-2.47,0-4.55,0.84-6.24,2.53c-1.69,1.69-2.54,3.77-2.54,6.25
		c0,1.72,0.38,3.25,1.12,4.59c0.75,1.34,1.81,2.39,3.18,3.15s2.89,1.14,4.57,1.14c1.43,0,2.73-0.27,3.92-0.8
		c1.18-0.53,2.48-1.5,3.9-2.91l3.34,3.48c-1.91,1.86-3.71,3.16-5.41,3.88c-1.7,0.72-3.64,1.08-5.82,1.08
		c-4.02,0-7.31-1.27-9.87-3.82s-3.84-5.82-3.84-9.8c0-2.58,0.58-4.87,1.75-6.87s2.84-3.62,5.01-4.83s4.51-1.83,7.02-1.83
		c2.13,0,4.19,0.45,6.16,1.35C428,460.75,429.7,462.04,431.13,463.7z"/>
	<path d="M433.6,459.15h5.28l4.82,9.3l4.8-9.3h5.22l-7.57,14.66v11.2h-4.96v-11.2L433.6,459.15z"/>
</g>
</svg>
