<?xml version="1.0" encoding="utf-8"?>
<!-- Generator: Adobe Illustrator 24.3.0, SVG Export Plug-In . SVG Version: 6.00 Build 0)  -->
<svg version="1.1" id="Layer_1" xmlns="http://www.w3.org/2000/svg" xmlns:xlink="http://www.w3.org/1999/xlink" x="0px" y="0px"
	 viewBox="0 0 500 500" style="enable-background:new 0 0 500 500;" xml:space="preserve">
<g>
	<path d="M89.92,437.63h5.83c3.76,0,6.55,0.47,8.38,1.4c1.83,0.93,3.33,2.45,4.51,4.54s1.77,4.55,1.77,7.35
		c0,1.99-0.33,3.82-0.99,5.49c-0.66,1.67-1.58,3.06-2.74,4.16s-2.43,1.86-3.78,2.29c-1.36,0.42-3.71,0.63-7.06,0.63h-5.92V437.63z
		 M94.81,442.38v16.31h2.29c2.25,0,3.88-0.26,4.9-0.77c1.01-0.52,1.84-1.38,2.49-2.6c0.64-1.22,0.97-2.72,0.97-4.5
		c0-2.75-0.77-4.87-2.3-6.39c-1.38-1.36-3.6-2.04-6.66-2.04H94.81z"/>
	<path d="M115.13,437.63h14.12v4.82h-9.23v4.68h9.23v4.73h-9.23v6.8h9.23v4.83h-14.12V437.63z"/>
	<path d="M157.6,442.17l-3.44,3.28c-2.34-2.48-4.98-3.71-7.9-3.71c-2.47,0-4.55,0.84-6.24,2.53c-1.69,1.69-2.54,3.77-2.54,6.25
		c0,1.72,0.37,3.25,1.12,4.59c0.75,1.34,1.81,2.39,3.18,3.15s2.89,1.14,4.57,1.14c1.43,0,2.73-0.27,3.92-0.8
		c1.18-0.53,2.48-1.5,3.9-2.91l3.34,3.48c-1.91,1.86-3.71,3.16-5.41,3.88c-1.7,0.72-3.64,1.08-5.82,1.08
		c-4.02,0-7.31-1.27-9.87-3.82s-3.84-5.82-3.84-9.8c0-2.58,0.58-4.87,1.75-6.87s2.84-3.62,5.01-4.83s4.51-1.83,7.02-1.83
		c2.13,0,4.19,0.45,6.16,1.35C154.47,439.23,156.17,440.51,157.6,442.17z"/>
	<path d="M161.56,437.63h4.89v25.86h-4.89V437.63z"/>
	<path d="M185.55,441.15l-3.65,3.22c-1.28-1.78-2.58-2.67-3.91-2.67c-0.65,0-1.17,0.17-1.58,0.52c-0.41,0.35-0.62,0.74-0.62,1.17
		s0.15,0.84,0.44,1.23c0.4,0.52,1.6,1.62,3.61,3.32c1.88,1.57,3.02,2.56,3.42,2.97c1,1.01,1.71,1.97,2.12,2.89
		c0.42,0.92,0.62,1.92,0.62,3.01c0,2.12-0.73,3.87-2.2,5.26s-3.38,2.07-5.74,2.07c-1.84,0-3.45-0.45-4.81-1.35s-2.54-2.32-3.51-4.25
		l4.14-2.5c1.24,2.29,2.68,3.43,4.3,3.43c0.85,0,1.56-0.25,2.13-0.74s0.86-1.06,0.86-1.71c0-0.59-0.22-1.17-0.65-1.76
		c-0.43-0.59-1.39-1.48-2.87-2.69c-2.82-2.3-4.64-4.07-5.46-5.32s-1.23-2.49-1.23-3.74c0-1.79,0.68-3.33,2.05-4.61
		s3.05-1.92,5.06-1.92c1.29,0,2.52,0.3,3.69,0.9C182.92,438.47,184.19,439.56,185.55,441.15z"/>
	<path d="M190.35,437.63h4.89v25.86h-4.89V437.63z"/>
	<path d="M212.98,436.98c3.66,0,6.8,1.32,9.44,3.97c2.63,2.65,3.95,5.88,3.95,9.69c0,3.77-1.3,6.97-3.9,9.58
		c-2.6,2.61-5.75,3.92-9.45,3.92c-3.88,0-7.11-1.34-9.67-4.03s-3.85-5.87-3.85-9.56c0-2.47,0.6-4.75,1.79-6.82
		c1.2-2.07,2.84-3.72,4.93-4.93C208.31,437.59,210.56,436.98,212.98,436.98z M212.93,441.8c-2.39,0-4.41,0.83-6.04,2.5
		s-2.45,3.78-2.45,6.35c0,2.86,1.03,5.12,3.08,6.79c1.6,1.3,3.43,1.95,5.49,1.95c2.33,0,4.32-0.84,5.96-2.53
		c1.64-1.69,2.46-3.77,2.46-6.24c0-2.46-0.83-4.54-2.48-6.25C217.31,442.65,215.3,441.8,212.93,441.8z"/>
	<path d="M231.02,437.63h4.72l11.06,17.02v-17.02h4.92v25.86H247l-11.05-16.96v16.96h-4.92V437.63z"/>
	<path d="M270.22,437.63h4.8l5.99,18.04l6.05-18.04h4.79l4.34,25.86h-4.76l-2.77-16.33l-5.49,16.33h-4.34l-5.44-16.33l-2.84,16.33
		h-4.8L270.22,437.63z"/>
	<path d="M308,437.63h4.99l9.95,25.86h-5.12l-2.02-5.33h-10.55l-2.1,5.33h-5.12L308,437.63z M310.52,444.49l-3.47,8.88h6.92
		L310.52,444.49z"/>
	<path d="M326.77,437.63h4.97v8.91l7.02-8.91h5.91l-9.03,11.54l9.91,14.32h-5.84L331.75,452v11.49h-4.97V437.63z"/>
	<path d="M348.71,437.63h4.89v25.86h-4.89V437.63z"/>
	<path d="M359.15,437.63h4.72l11.06,17.02v-17.02h4.92v25.86h-4.73l-11.05-16.96v16.96h-4.92V437.63z"/>
	<path d="M409.64,441.85l-3.47,3.43c-2.19-2.32-4.75-3.48-7.67-3.48c-2.54,0-4.68,0.84-6.4,2.53c-1.72,1.69-2.58,3.74-2.58,6.15
		c0,2.5,0.89,4.61,2.67,6.35s3.98,2.6,6.6,2.6c1.7,0,3.14-0.36,4.3-1.07s2.11-1.83,2.82-3.36h-7.49v-4.62h13.01l0.04,1.09
		c0,2.26-0.59,4.41-1.76,6.43s-2.69,3.57-4.55,4.64s-4.05,1.6-6.56,1.6c-2.68,0-5.08-0.58-7.18-1.75s-3.77-2.83-4.99-4.98
		s-1.84-4.48-1.84-6.98c0-3.42,1.13-6.4,3.39-8.93c2.68-3.01,6.18-4.52,10.48-4.52c2.25,0,4.35,0.42,6.31,1.25
		C406.44,438.93,408.05,440.14,409.64,441.85z"/>
</g>
<circle cx="150" cy="60" r="40"/>
<circle cx="150" cy="340" r="40"/>
<g>
	<path d="M239.8,31.42h16.37v57.46h-10.86V41.69h-11.84L239.8,31.42z"/>
	<path d="M282.66,77.75c1.69,0,3.14,0.59,4.34,1.78c1.2,1.19,1.8,2.62,1.8,4.32c0,1.69-0.6,3.14-1.8,4.34
		c-1.2,1.2-2.64,1.8-4.34,1.8c-1.69,0-3.14-0.6-4.34-1.8c-1.2-1.2-1.8-2.64-1.8-4.34c0-1.69,0.6-3.13,1.8-4.32
		C279.52,78.34,280.96,77.75,282.66,77.75z"/>
	<path d="M327.42,77.75c1.69,0,3.14,0.59,4.34,1.78c1.2,1.19,1.8,2.62,1.8,4.32c0,1.69-0.6,3.14-1.8,4.34
		c-1.2,1.2-2.64,1.8-4.34,1.8c-1.69,0-3.14-0.6-4.34-1.8c-1.2-1.2-1.8-2.64-1.8-4.34c0-1.69,0.6-3.13,1.8-4.32
		C324.28,78.34,325.73,77.75,327.42,77.75z"/>
	<path d="M349.8,77.75c1.69,0,3.14,0.59,4.34,1.78c1.2,1.19,1.8,2.62,1.8,4.32c0,1.69-0.6,3.14-1.8,4.34c-1.2,1.2-2.64,1.8-4.34,1.8
		c-1.69,0-3.14-0.6-4.34-1.8c-1.2-1.2-1.8-2.64-1.8-4.34c0-1.69,0.6-3.13,1.8-4.32C346.67,78.34,348.11,77.75,349.8,77.75z"/>
	<path d="M372.19,77.75c1.69,0,3.14,0.59,4.34,1.78c1.2,1.19,1.8,2.62,1.8,4.32c0,1.69-0.6,3.14-1.8,4.34
		c-1.2,1.2-2.64,1.8-4.34,1.8c-1.69,0-3.14-0.6-4.34-1.8c-1.2-1.2-1.8-2.64-1.8-4.34c0-1.69,0.6-3.13,1.8-4.32
		C369.05,78.34,370.49,77.75,372.19,77.75z"/>
</g>
<g>
	<path d="M240.59,189.93h-10.66c0.29-6.2,2.23-11.07,5.84-14.63c3.61-3.55,8.24-5.33,13.89-5.33c3.49,0,6.57,0.74,9.24,2.21
		c2.67,1.47,4.8,3.59,6.41,6.37s2.4,5.59,2.4,8.46c0,3.41-0.97,7.08-2.91,11.02c-1.94,3.93-5.49,8.58-10.65,13.95l-6.45,6.8h20.48
		v10.12h-39.8v-5.23l17.77-18.12c4.3-4.35,7.15-7.84,8.57-10.49c1.42-2.64,2.13-5.03,2.13-7.17c0-2.21-0.74-4.04-2.21-5.49
		c-1.47-1.45-3.37-2.17-5.68-2.17c-2.34,0-4.3,0.87-5.86,2.62C241.52,184.57,240.69,186.94,240.59,189.93z"/>
	<path d="M282.66,217.75c1.69,0,3.14,0.59,4.34,1.78c1.2,1.19,1.8,2.62,1.8,4.32c0,1.69-0.6,3.14-1.8,4.34
		c-1.2,1.2-2.64,1.8-4.34,1.8c-1.69,0-3.14-0.6-4.34-1.8c-1.2-1.2-1.8-2.64-1.8-4.34c0-1.69,0.6-3.13,1.8-4.32
		C279.52,218.34,280.96,217.75,282.66,217.75z"/>
	<path d="M327.42,217.75c1.69,0,3.14,0.59,4.34,1.78c1.2,1.19,1.8,2.62,1.8,4.32c0,1.69-0.6,3.14-1.8,4.34
		c-1.2,1.2-2.64,1.8-4.34,1.8c-1.69,0-3.14-0.6-4.34-1.8c-1.2-1.2-1.8-2.64-1.8-4.34c0-1.69,0.6-3.13,1.8-4.32
		C324.28,218.34,325.73,217.75,327.42,217.75z"/>
	<path d="M349.8,217.75c1.69,0,3.14,0.59,4.34,1.78c1.2,1.19,1.8,2.62,1.8,4.32c0,1.69-0.6,3.14-1.8,4.34
		c-1.2,1.2-2.64,1.8-4.34,1.8c-1.69,0-3.14-0.6-4.34-1.8c-1.2-1.2-1.8-2.64-1.8-4.34c0-1.69,0.6-3.13,1.8-4.32
		C346.67,218.34,348.11,217.75,349.8,217.75z"/>
	<path d="M372.19,217.75c1.69,0,3.14,0.59,4.34,1.78c1.2,1.19,1.8,2.62,1.8,4.32c0,1.69-0.6,3.14-1.8,4.34
		c-1.2,1.2-2.64,1.8-4.34,1.8c-1.69,0-3.14-0.6-4.34-1.8c-1.2-1.2-1.8-2.64-1.8-4.34c0-1.69,0.6-3.13,1.8-4.32
		C369.05,218.34,370.49,217.75,372.19,217.75z"/>
</g>
<g>
	<path d="M241.84,325.6h-10.51c0.55-4.24,2.07-7.66,4.57-10.23c3.49-3.59,7.88-5.39,13.16-5.39c4.71,0,8.67,1.5,11.86,4.49
		c3.19,3,4.79,6.55,4.79,10.66c0,2.55-0.7,4.88-2.09,6.99c-1.39,2.11-3.42,3.82-6.07,5.12c3.49,1.04,6.22,2.86,8.18,5.45
		c1.97,2.59,2.95,5.64,2.95,9.16c0,5.16-1.9,9.53-5.7,13.11c-3.8,3.58-8.65,5.37-14.53,5.37c-5.57,0-10.12-1.69-13.63-5.06
		c-3.52-3.37-5.44-7.96-5.78-13.77h10.82c0.47,2.97,1.5,5.18,3.11,6.62s3.63,2.17,6.07,2.17c2.55,0,4.67-0.82,6.35-2.46
		s2.52-3.64,2.52-6.02c0-2.6-1.13-4.8-3.4-6.6s-5.53-2.72-9.8-2.77v-9.38c2.63-0.21,4.59-0.62,5.88-1.23
		c1.29-0.61,2.29-1.45,3.01-2.52c0.72-1.07,1.07-2.2,1.07-3.4c0-1.56-0.55-2.86-1.64-3.89c-1.09-1.03-2.53-1.54-4.3-1.54
		c-1.56,0-2.98,0.48-4.26,1.43C243.18,322.86,242.3,324.09,241.84,325.6z"/>
	<path d="M282.66,357.75c1.69,0,3.14,0.59,4.34,1.78c1.2,1.19,1.8,2.62,1.8,4.32c0,1.69-0.6,3.14-1.8,4.34
		c-1.2,1.2-2.64,1.8-4.34,1.8c-1.69,0-3.14-0.6-4.34-1.8c-1.2-1.2-1.8-2.64-1.8-4.34c0-1.69,0.6-3.13,1.8-4.32
		C279.52,358.34,280.96,357.75,282.66,357.75z"/>
	<path d="M327.42,357.75c1.69,0,3.14,0.59,4.34,1.78c1.2,1.19,1.8,2.62,1.8,4.32c0,1.69-0.6,3.14-1.8,4.34
		c-1.2,1.2-2.64,1.8-4.34,1.8c-1.69,0-3.14-0.6-4.34-1.8c-1.2-1.2-1.8-2.64-1.8-4.34c0-1.69,0.6-3.13,1.8-4.32
		C324.28,358.34,325.73,357.75,327.42,357.75z"/>
	<path d="M349.8,357.75c1.69,0,3.14,0.59,4.34,1.78c1.2,1.19,1.8,2.62,1.8,4.32c0,1.69-0.6,3.14-1.8,4.34
		c-1.2,1.2-2.64,1.8-4.34,1.8c-1.69,0-3.14-0.6-4.34-1.8c-1.2-1.2-1.8-2.64-1.8-4.34c0-1.69,0.6-3.13,1.8-4.32
		C346.67,358.34,348.11,357.75,349.8,357.75z"/>
	<path d="M372.19,357.75c1.69,0,3.14,0.59,4.34,1.78c1.2,1.19,1.8,2.62,1.8,4.32c0,1.69-0.6,3.14-1.8,4.34
		c-1.2,1.2-2.64,1.8-4.34,1.8c-1.69,0-3.14-0.6-4.34-1.8c-1.2-1.2-1.8-2.64-1.8-4.34c0-1.69,0.6-3.13,1.8-4.32
		C369.05,358.34,370.49,357.75,372.19,357.75z"/>
</g>
<path d="M150,160c-22.09,0-40,17.91-40,40c0,22.09,17.91,40,40,40s40-17.91,40-40C190,177.91,172.09,160,150,160z M151.85,214.7
	l-6.43,7.66l-7.66-6.43l-15.32-12.86l6.43-7.66l15.32,12.86l25.71-30.64l7.66,6.43L151.85,214.7z"/>
</svg>
