<?xml version="1.0" encoding="utf-8"?>
<!-- Generator: Adobe Illustrator 24.3.0, SVG Export Plug-In . SVG Version: 6.00 Build 0)  -->
<svg version="1.1" id="Layer_1" xmlns="http://www.w3.org/2000/svg" xmlns:xlink="http://www.w3.org/1999/xlink" x="0px" y="0px"
	 viewBox="0 0 500 500" style="enable-background:new 0 0 500 500;" xml:space="preserve">
<g>
	<path d="M168.02,437.65h4.89v25.86h-4.89V437.65z"/>
	<path d="M178.46,437.65h4.72l11.06,17.02v-17.02h4.92v25.86h-4.73l-11.05-16.96v16.96h-4.92V437.65z"/>
	<path d="M202.52,437.65h14.29v4.85h-4.71v21.01h-4.99V442.5h-4.59V437.65z"/>
	<path d="M220.21,437.65h14.12v4.82h-9.23v4.68h9.23v4.73h-9.23v6.8h9.23v4.83h-14.12V437.65z"/>
	<path d="M262.78,441.87l-3.47,3.43c-2.19-2.32-4.75-3.48-7.67-3.48c-2.55,0-4.68,0.84-6.4,2.53c-1.72,1.69-2.58,3.74-2.58,6.15
		c0,2.5,0.89,4.61,2.67,6.35c1.78,1.73,3.98,2.6,6.6,2.6c1.7,0,3.14-0.36,4.3-1.07s2.11-1.83,2.82-3.36h-7.49v-4.62h13.01l0.04,1.09
		c0,2.26-0.59,4.41-1.76,6.43s-2.69,3.57-4.55,4.64s-4.05,1.6-6.56,1.6c-2.68,0-5.08-0.58-7.18-1.75s-3.77-2.83-4.99-4.98
		s-1.84-4.48-1.84-6.98c0-3.42,1.13-6.4,3.39-8.93c2.68-3.01,6.18-4.52,10.48-4.52c2.25,0,4.35,0.42,6.31,1.25
		C259.58,438.95,261.2,440.15,262.78,441.87z"/>
	<path d="M269.48,437.65h5.21c2.86,0,4.89,0.25,6.1,0.76c1.21,0.51,2.19,1.36,2.92,2.54s1.11,2.58,1.11,4.2
		c0,1.7-0.41,3.12-1.22,4.26s-2.04,2.01-3.68,2.59l6.12,11.5h-5.38l-5.81-10.95h-0.45v10.95h-4.92V437.65z M274.4,447.75h1.54
		c1.57,0,2.64-0.21,3.23-0.62s0.88-1.09,0.88-2.05c0-0.56-0.15-1.05-0.44-1.47c-0.29-0.42-0.68-0.72-1.17-0.9s-1.39-0.27-2.7-0.27
		h-1.35V447.75z"/>
	<path d="M289.67,437.65h4.89v25.86h-4.89V437.65z"/>
	<path d="M297.55,437.65h14.29v4.85h-4.71v21.01h-4.99V442.5h-4.59V437.65z"/>
	<path d="M313.38,437.65h5.28l4.82,9.3l4.8-9.3h5.22l-7.57,14.66v11.2h-4.96v-11.2L313.38,437.65z"/>
</g>
<g>
	<polygon points="252.25,190.18 252.25,164.18 234.54,190.18 	"/>
	<path d="M416.38,44.07C399.72,29.28,377.66,20,352.39,20h0c-30.46,0-59.14,14.34-77.42,38.71L250,92l-24.97-33.29
		C206.76,34.34,178.07,20,147.61,20h0c-25.28,0-47.33,9.28-64,24.07c-39.3,34.88-42.03,95.45-7.62,135.15L250,380l174.01-200.78
		C458.42,139.52,455.68,78.95,416.38,44.07z M211.75,219.76h-53.74v-7.07l23.99-24.47c5.8-5.87,9.66-10.59,11.58-14.16
		c1.92-3.57,2.87-6.79,2.87-9.68c0-2.99-0.99-5.46-2.98-7.41c-1.99-1.95-4.54-2.93-7.67-2.93c-3.16,0-5.8,1.18-7.91,3.53
		c-2.11,2.36-3.23,5.56-3.38,9.6h-14.4c0.39-8.37,3.01-14.95,7.88-19.75c4.87-4.8,11.12-7.2,18.75-7.2c4.71,0,8.87,0.99,12.47,2.98
		c3.6,1.99,6.49,4.85,8.65,8.6s3.24,7.55,3.24,11.42c0,4.61-1.31,9.56-3.93,14.87c-2.62,5.31-7.41,11.58-14.38,18.83l-8.71,9.18
		h27.65V219.76z M273.61,203.84h-6.91v15.93h-14.45v-15.93H218.4v-13.66l33.59-49.94h14.72v49.94h6.91V203.84z M324.47,219.76
		l-23.91-34.47v34.47h-14.92v-77.57h14.92v26.74l21.06-26.74h17.73l-27.09,34.62l29.72,42.95H324.47z"/>
</g>
</svg>
