<?xml version="1.0" encoding="utf-8"?>
<!-- Generator: Adobe Illustrator 24.3.0, SVG Export Plug-In . SVG Version: 6.00 Build 0)  -->
<svg version="1.1" id="Layer_1" xmlns="http://www.w3.org/2000/svg" xmlns:xlink="http://www.w3.org/1999/xlink" x="0px" y="0px"
	 viewBox="0 0 500 500" style="enable-background:new 0 0 500 500;" xml:space="preserve">
<g>
	<path d="M85.69,436.53h4.94v17.16c0,2.73-0.22,4.65-0.65,5.75s-1.15,1.98-2.14,2.63s-2.19,0.98-3.59,0.98
		c-2.85,0-5.27-1.25-7.28-3.74l3.55-3.32c0.79,0.89,1.45,1.49,2,1.79s1.08,0.46,1.6,0.46c0.53,0,0.92-0.22,1.18-0.67
		s0.39-1.42,0.39-2.94V436.53z"/>
	<path d="M108.74,435.88c3.66,0,6.8,1.32,9.44,3.97c2.63,2.65,3.95,5.88,3.95,9.69c0,3.77-1.3,6.97-3.9,9.58
		c-2.6,2.61-5.75,3.92-9.45,3.92c-3.88,0-7.11-1.34-9.67-4.03s-3.85-5.87-3.85-9.56c0-2.47,0.6-4.75,1.79-6.82
		c1.2-2.07,2.84-3.72,4.93-4.93C104.07,436.48,106.33,435.88,108.74,435.88z M108.69,440.69c-2.39,0-4.41,0.83-6.04,2.5
		s-2.45,3.78-2.45,6.35c0,2.86,1.03,5.12,3.08,6.79c1.6,1.3,3.43,1.95,5.49,1.95c2.33,0,4.32-0.84,5.96-2.53
		c1.64-1.69,2.46-3.77,2.46-6.24c0-2.46-0.83-4.54-2.48-6.25C113.07,441.54,111.06,440.69,108.69,440.69z"/>
	<path d="M126.77,462.38v-25.86h4.07c2.36,0,4.08,0.15,5.17,0.46c1.55,0.41,2.78,1.17,3.7,2.29c0.92,1.11,1.37,2.43,1.37,3.94
		c0,0.98-0.21,1.88-0.62,2.68s-1.09,1.56-2.03,2.26c1.57,0.74,2.72,1.66,3.45,2.77s1.09,2.42,1.09,3.93c0,1.45-0.38,2.78-1.13,3.97
		s-1.72,2.09-2.9,2.68s-2.82,0.89-4.91,0.89H126.77z M131.69,441.22v5.45h1.08c1.2,0,2.09-0.25,2.67-0.76
		c0.58-0.5,0.87-1.19,0.87-2.06c0-0.81-0.28-1.45-0.83-1.92c-0.55-0.47-1.39-0.71-2.52-0.71H131.69z M131.69,451.06v6.63h1.23
		c2.04,0,3.42-0.26,4.13-0.77s1.07-1.27,1.07-2.25c0-1.11-0.42-1.99-1.25-2.64s-2.22-0.97-4.16-0.97H131.69z"/>
	<path d="M147.79,450.62h8.93v4.46h-8.93V450.62z"/>
	<path d="M176.34,440.04l-3.65,3.22c-1.28-1.78-2.58-2.67-3.91-2.67c-0.65,0-1.17,0.17-1.58,0.52c-0.41,0.35-0.62,0.74-0.62,1.17
		s0.15,0.84,0.44,1.23c0.4,0.52,1.6,1.62,3.61,3.32c1.88,1.57,3.02,2.56,3.42,2.97c1,1.01,1.71,1.97,2.12,2.89
		c0.42,0.92,0.62,1.92,0.62,3.01c0,2.12-0.73,3.87-2.2,5.26s-3.38,2.07-5.74,2.07c-1.84,0-3.45-0.45-4.81-1.35s-2.54-2.32-3.51-4.25
		l4.14-2.5c1.24,2.29,2.68,3.43,4.3,3.43c0.85,0,1.56-0.25,2.13-0.74s0.86-1.06,0.86-1.71c0-0.59-0.22-1.17-0.65-1.76
		c-0.43-0.59-1.39-1.48-2.87-2.69c-2.82-2.3-4.64-4.07-5.46-5.32s-1.23-2.49-1.23-3.74c0-1.79,0.68-3.33,2.05-4.61
		s3.05-1.92,5.06-1.92c1.29,0,2.52,0.3,3.69,0.9C173.72,437.37,174.98,438.46,176.34,440.04z"/>
	<path d="M181.47,436.53h5.22c2.82,0,4.86,0.26,6.11,0.78s2.23,1.37,2.95,2.53s1.08,2.56,1.08,4.19c0,1.8-0.47,3.3-1.42,4.5
		s-2.22,2.03-3.84,2.5c-0.95,0.27-2.68,0.4-5.19,0.4v10.95h-4.92V436.53z M186.4,446.63h1.56c1.23,0,2.09-0.09,2.57-0.26
		c0.48-0.18,0.86-0.47,1.13-0.87c0.28-0.41,0.41-0.9,0.41-1.47c0-1-0.39-1.73-1.16-2.19c-0.56-0.34-1.61-0.51-3.13-0.51h-1.39
		V446.63z"/>
	<path d="M201.67,436.53h14.12v4.82h-9.23v4.68h9.23v4.73h-9.23v6.8h9.23v4.83h-14.12V436.53z"/>
	<path d="M244.14,441.07l-3.44,3.28c-2.34-2.48-4.98-3.71-7.9-3.71c-2.47,0-4.55,0.84-6.24,2.53c-1.69,1.69-2.54,3.77-2.54,6.25
		c0,1.72,0.37,3.25,1.12,4.59c0.75,1.34,1.81,2.39,3.18,3.15s2.89,1.14,4.57,1.14c1.43,0,2.73-0.27,3.92-0.8
		c1.18-0.53,2.48-1.5,3.9-2.91l3.34,3.48c-1.91,1.86-3.71,3.16-5.41,3.88c-1.7,0.72-3.64,1.08-5.82,1.08
		c-4.02,0-7.31-1.27-9.87-3.82s-3.84-5.82-3.84-9.8c0-2.58,0.58-4.87,1.75-6.87s2.84-3.62,5.01-4.83s4.51-1.83,7.02-1.83
		c2.13,0,4.19,0.45,6.16,1.35C241.01,438.13,242.71,439.41,244.14,441.07z"/>
	<path d="M248.09,436.53h4.89v25.86h-4.89V436.53z"/>
	<path d="M258.59,436.53h12.83v4.8h-7.95v4.69h7.95v4.73h-7.95v11.64h-4.89V436.53z"/>
	<path d="M275.45,436.53h4.89v25.86h-4.89V436.53z"/>
	<path d="M309.64,441.07l-3.44,3.28c-2.34-2.48-4.98-3.71-7.9-3.71c-2.47,0-4.55,0.84-6.24,2.53c-1.69,1.69-2.54,3.77-2.54,6.25
		c0,1.72,0.38,3.25,1.12,4.59c0.75,1.34,1.81,2.39,3.18,3.15s2.89,1.14,4.57,1.14c1.43,0,2.73-0.27,3.92-0.8
		c1.18-0.53,2.48-1.5,3.9-2.91l3.34,3.48c-1.91,1.86-3.71,3.16-5.41,3.88c-1.7,0.72-3.64,1.08-5.82,1.08
		c-4.02,0-7.31-1.27-9.87-3.82s-3.84-5.82-3.84-9.8c0-2.58,0.58-4.87,1.75-6.87s2.84-3.62,5.01-4.83s4.51-1.83,7.02-1.83
		c2.13,0,4.19,0.45,6.16,1.35C306.5,438.13,308.21,439.41,309.64,441.07z"/>
	<path d="M337.58,440.04l-3.65,3.22c-1.28-1.78-2.58-2.67-3.91-2.67c-0.65,0-1.17,0.17-1.58,0.52s-0.62,0.74-0.62,1.17
		s0.15,0.84,0.44,1.23c0.4,0.52,1.6,1.62,3.61,3.32c1.88,1.57,3.02,2.56,3.42,2.97c1,1.01,1.71,1.97,2.12,2.89s0.62,1.92,0.62,3.01
		c0,2.12-0.73,3.87-2.2,5.26c-1.47,1.38-3.38,2.07-5.74,2.07c-1.84,0-3.45-0.45-4.81-1.35c-1.37-0.9-2.54-2.32-3.51-4.25l4.14-2.5
		c1.25,2.29,2.68,3.43,4.3,3.43c0.84,0,1.56-0.25,2.13-0.74s0.86-1.06,0.86-1.71c0-0.59-0.22-1.17-0.65-1.76s-1.39-1.48-2.87-2.69
		c-2.82-2.3-4.64-4.07-5.46-5.32c-0.82-1.25-1.23-2.49-1.23-3.74c0-1.79,0.68-3.33,2.05-4.61c1.37-1.28,3.05-1.92,5.06-1.92
		c1.29,0,2.52,0.3,3.69,0.9C334.96,437.37,336.22,438.46,337.58,440.04z"/>
	<path d="M342.77,436.53h4.97v8.91l7.02-8.91h5.91l-9.03,11.54l9.91,14.32h-5.84l-7.97-11.49v11.49h-4.97V436.53z"/>
	<path d="M364.71,436.53h4.89v25.86h-4.89V436.53z"/>
	<path d="M375.13,436.53h4.92v21.16h7.17v4.69h-12.09V436.53z"/>
	<path d="M390.97,436.53h4.92v21.16h7.17v4.69h-12.09V436.53z"/>
	<path d="M420.38,440.04l-3.65,3.22c-1.28-1.78-2.58-2.67-3.91-2.67c-0.65,0-1.17,0.17-1.58,0.52s-0.62,0.74-0.62,1.17
		s0.15,0.84,0.44,1.23c0.4,0.52,1.6,1.62,3.61,3.32c1.88,1.57,3.02,2.56,3.42,2.97c1,1.01,1.71,1.97,2.12,2.89s0.62,1.92,0.62,3.01
		c0,2.12-0.73,3.87-2.2,5.26c-1.47,1.38-3.38,2.07-5.74,2.07c-1.84,0-3.45-0.45-4.81-1.35c-1.37-0.9-2.54-2.32-3.51-4.25l4.14-2.5
		c1.25,2.29,2.68,3.43,4.3,3.43c0.84,0,1.56-0.25,2.13-0.74s0.86-1.06,0.86-1.71c0-0.59-0.22-1.17-0.65-1.76s-1.39-1.48-2.87-2.69
		c-2.82-2.3-4.64-4.07-5.46-5.32c-0.82-1.25-1.23-2.49-1.23-3.74c0-1.79,0.68-3.33,2.05-4.61c1.37-1.28,3.05-1.92,5.06-1.92
		c1.29,0,2.52,0.3,3.69,0.9C417.75,437.37,419.02,438.46,420.38,440.04z"/>
</g>
<path d="M396.67,105.56h-68.89V70c0-11-9-20-20-20H192.22c-11,0-20,9-20,20v35.56h-68.89c-11,0-20,9-20,20V330c0,11,9,20,20,20
	h293.33c11,0,20-9,20-20V125.56C416.67,114.56,407.67,105.56,396.67,105.56z M194.44,92.22c0-11,9-20,20-20h71.11c11,0,20,9,20,20
	v13.33H194.44V92.22z M265.19,262.62L245.9,285.6l-22.98-19.28l-45.96-38.57l19.28-22.98l45.96,38.57l57.85-68.94l22.98,19.28
	L265.19,262.62z"/>
</svg>
