<?xml version="1.0" encoding="utf-8"?>
<!-- Generator: Adobe Illustrator 24.3.0, SVG Export Plug-In . SVG Version: 6.00 Build 0)  -->
<svg version="1.1" id="Layer_1" xmlns="http://www.w3.org/2000/svg" xmlns:xlink="http://www.w3.org/1999/xlink" x="0px" y="0px"
	 viewBox="0 0 500 500" style="enable-background:new 0 0 500 500;" xml:space="preserve">
<circle cx="250" cy="160" r="50"/>
<circle cx="145" cy="57.5" r="37.5"/>
<path d="M190,230h-90v-90c0-24.85,20.15-45,45-45h0c24.85,0,45,20.15,45,45V230z"/>
<circle cx="355" cy="57.5" r="37.5"/>
<path d="M400,230h-90v-90c0-24.85,20.15-45,45-45h0c24.85,0,45,20.15,45,45V230z"/>
<path d="M250,210L250,210c-33.14,0-60,26.86-60,60v120h120V270C310,236.86,283.14,210,250,210z M268.54,317.06L250,307.32
	l-18.54,9.75l3.54-20.65l-15-14.62l20.73-3.01L250,260l9.27,18.78L280,281.8l-15,14.62L268.54,317.06z"/>
<g>
	<path d="M153.23,437.74h4.92v21.16h7.17v4.69h-12.09V437.74z"/>
	<path d="M169.09,437.74h14.12v4.82h-9.23v4.68h9.23v4.73h-9.23v6.8h9.23v4.83h-14.12V437.74z"/>
	<path d="M195.68,437.74h4.99l9.95,25.86h-5.12l-2.02-5.33h-10.55l-2.1,5.33h-5.12L195.68,437.74z M198.21,444.59l-3.47,8.88h6.92
		L198.21,444.59z"/>
	<path d="M214.44,437.74h5.83c3.76,0,6.55,0.47,8.38,1.4c1.83,0.93,3.33,2.45,4.51,4.54s1.77,4.55,1.77,7.35
		c0,1.99-0.33,3.82-0.99,5.49c-0.66,1.67-1.58,3.06-2.74,4.16s-2.43,1.86-3.78,2.29c-1.36,0.42-3.71,0.63-7.06,0.63h-5.92V437.74z
		 M219.33,442.48v16.31h2.29c2.25,0,3.88-0.26,4.9-0.77c1.01-0.52,1.84-1.38,2.49-2.6c0.64-1.22,0.97-2.72,0.97-4.5
		c0-2.75-0.77-4.87-2.3-6.39c-1.38-1.36-3.6-2.04-6.66-2.04H219.33z"/>
	<path d="M239.65,437.74h14.12v4.82h-9.23v4.68h9.23v4.73h-9.23v6.8h9.23v4.83h-14.12V437.74z"/>
	<path d="M258.68,437.74h5.21c2.86,0,4.89,0.25,6.1,0.76c1.21,0.51,2.19,1.36,2.92,2.54s1.11,2.58,1.11,4.2
		c0,1.7-0.41,3.12-1.22,4.26s-2.04,2.01-3.68,2.59l6.12,11.5h-5.38l-5.81-10.95h-0.45v10.95h-4.92V437.74z M263.61,447.85h1.54
		c1.57,0,2.64-0.21,3.23-0.62s0.88-1.09,0.88-2.05c0-0.56-0.15-1.05-0.44-1.47c-0.29-0.42-0.68-0.72-1.17-0.9s-1.39-0.27-2.7-0.27
		h-1.35V447.85z"/>
	<path d="M292.8,441.25l-3.65,3.22c-1.28-1.78-2.58-2.67-3.91-2.67c-0.65,0-1.17,0.17-1.58,0.52s-0.62,0.74-0.62,1.17
		s0.15,0.84,0.44,1.23c0.4,0.52,1.6,1.62,3.61,3.32c1.88,1.57,3.02,2.56,3.42,2.97c1,1.01,1.71,1.97,2.12,2.89s0.62,1.92,0.62,3.01
		c0,2.12-0.73,3.87-2.2,5.26c-1.47,1.38-3.38,2.07-5.74,2.07c-1.84,0-3.45-0.45-4.81-1.35c-1.37-0.9-2.54-2.32-3.51-4.25l4.14-2.5
		c1.25,2.29,2.68,3.43,4.3,3.43c0.84,0,1.56-0.25,2.13-0.74s0.86-1.06,0.86-1.71c0-0.59-0.22-1.17-0.65-1.76s-1.39-1.48-2.87-2.69
		c-2.82-2.3-4.64-4.07-5.46-5.32c-0.82-1.25-1.23-2.49-1.23-3.74c0-1.79,0.68-3.33,2.05-4.61c1.37-1.28,3.05-1.92,5.06-1.92
		c1.29,0,2.52,0.3,3.69,0.9C290.18,438.58,291.44,439.67,292.8,441.25z"/>
	<path d="M297.94,437.74h4.99v9.76h8.63v-9.76h4.97v25.86h-4.97v-11.34h-8.63v11.34h-4.99V437.74z"/>
	<path d="M322.09,437.74h4.89v25.86h-4.89V437.74z"/>
	<path d="M332.49,437.74h5.22c2.82,0,4.86,0.26,6.11,0.78s2.23,1.37,2.95,2.53s1.08,2.56,1.08,4.19c0,1.8-0.47,3.3-1.42,4.5
		s-2.22,2.03-3.84,2.5c-0.95,0.27-2.68,0.4-5.19,0.4v10.95h-4.92V437.74z M337.42,447.85h1.56c1.23,0,2.09-0.09,2.57-0.26
		c0.48-0.18,0.86-0.47,1.13-0.87c0.28-0.41,0.41-0.9,0.41-1.47c0-1-0.39-1.73-1.16-2.19c-0.56-0.34-1.61-0.51-3.13-0.51h-1.39
		V447.85z"/>
</g>
</svg>
