<?xml version="1.0" encoding="utf-8"?>
<!-- Generator: Adobe Illustrator 24.3.0, SVG Export Plug-In . SVG Version: 6.00 Build 0)  -->
<svg version="1.1" id="Layer_1" xmlns="http://www.w3.org/2000/svg" xmlns:xlink="http://www.w3.org/1999/xlink" x="0px" y="0px"
	 viewBox="0 0 500 500" style="enable-background:new 0 0 500 500;" xml:space="preserve">
<polygon points="119.76,10 119.76,171.94 260,90.97 "/>
<circle cx="175" cy="315" r="75"/>
<rect x="231.01" y="128.99" transform="matrix(0.7071 -0.7071 0.7071 0.7071 -52.5483 271.127)" width="140" height="140"/>
<g>
	<path d="M22.57,416.33h4.8l5.99,18.04l6.05-18.04h4.79l4.34,25.86h-4.76L41,425.85l-5.49,16.33h-4.34l-5.44-16.33l-2.84,16.33h-4.8
		L22.57,416.33z"/>
	<path d="M52.28,416.33h4.94v16.72c0,1.44,0.13,2.46,0.38,3.06c0.25,0.6,0.67,1.07,1.25,1.43c0.58,0.36,1.28,0.54,2.1,0.54
		c0.87,0,1.61-0.2,2.24-0.6c0.63-0.4,1.06-0.91,1.3-1.52s0.36-1.79,0.36-3.52v-16.11h4.94v15.42c0,2.6-0.15,4.41-0.44,5.41
		s-0.85,1.98-1.68,2.92s-1.78,1.63-2.86,2.08s-2.33,0.68-3.76,0.68c-1.88,0-3.51-0.43-4.9-1.29s-2.38-1.94-2.98-3.23
		s-0.9-3.48-0.9-6.57V416.33z"/>
	<path d="M75.5,416.33h4.92v21.16h7.17v4.69H75.5V416.33z"/>
	<path d="M88.79,416.33h14.29v4.85h-4.71v21.01h-4.99v-21.01h-4.59V416.33z"/>
	<path d="M106.11,416.33h4.89v25.86h-4.89V416.33z"/>
	<path d="M140.29,420.87l-3.44,3.28c-2.34-2.48-4.98-3.71-7.9-3.71c-2.47,0-4.55,0.84-6.24,2.53c-1.69,1.69-2.54,3.77-2.54,6.25
		c0,1.72,0.37,3.25,1.12,4.59c0.75,1.34,1.81,2.39,3.18,3.15s2.89,1.14,4.57,1.14c1.43,0,2.73-0.27,3.92-0.8
		c1.18-0.53,2.48-1.5,3.9-2.91l3.34,3.48c-1.91,1.86-3.71,3.16-5.41,3.88c-1.7,0.72-3.64,1.08-5.82,1.08
		c-4.02,0-7.31-1.27-9.87-3.82s-3.84-5.82-3.84-9.8c0-2.58,0.58-4.87,1.75-6.87s2.84-3.62,5.01-4.83s4.51-1.83,7.02-1.83
		c2.13,0,4.19,0.45,6.16,1.35C137.16,417.93,138.87,419.21,140.29,420.87z"/>
	<path d="M144.43,416.33h4.94v16.72c0,1.44,0.13,2.46,0.38,3.06c0.25,0.6,0.67,1.07,1.25,1.43c0.58,0.36,1.28,0.54,2.1,0.54
		c0.87,0,1.61-0.2,2.24-0.6c0.63-0.4,1.06-0.91,1.3-1.52s0.36-1.79,0.36-3.52v-16.11h4.94v15.42c0,2.6-0.15,4.41-0.44,5.41
		s-0.85,1.98-1.68,2.92s-1.78,1.63-2.86,2.08s-2.33,0.68-3.76,0.68c-1.88,0-3.51-0.43-4.9-1.29s-2.38-1.94-2.98-3.23
		s-0.9-3.48-0.9-6.57V416.33z"/>
	<path d="M167.65,416.33h4.92v21.16h7.17v4.69h-12.09V416.33z"/>
	<path d="M180.94,416.33h14.29v4.85h-4.71v21.01h-4.99v-21.01h-4.59V416.33z"/>
	<path d="M198.43,416.33h4.94v16.72c0,1.44,0.13,2.46,0.38,3.06c0.25,0.6,0.67,1.07,1.25,1.43c0.58,0.36,1.28,0.54,2.1,0.54
		c0.87,0,1.61-0.2,2.24-0.6c0.63-0.4,1.06-0.91,1.3-1.52s0.36-1.79,0.36-3.52v-16.11h4.94v15.42c0,2.6-0.15,4.41-0.44,5.41
		s-0.85,1.98-1.68,2.92s-1.78,1.63-2.86,2.08s-2.33,0.68-3.76,0.68c-1.88,0-3.51-0.43-4.9-1.29s-2.38-1.94-2.98-3.23
		s-0.9-3.48-0.9-6.57V416.33z"/>
	<path d="M221.98,416.33h5.21c2.86,0,4.89,0.25,6.1,0.76s2.19,1.36,2.92,2.54c0.74,1.18,1.11,2.58,1.11,4.2
		c0,1.7-0.41,3.12-1.22,4.26s-2.04,2.01-3.68,2.59l6.13,11.5h-5.38l-5.81-10.95h-0.45v10.95h-4.92V416.33z M226.9,426.43h1.54
		c1.57,0,2.64-0.21,3.23-0.62c0.59-0.41,0.88-1.09,0.88-2.05c0-0.56-0.15-1.05-0.44-1.47c-0.29-0.42-0.68-0.72-1.17-0.9
		c-0.49-0.18-1.39-0.27-2.7-0.27h-1.35V426.43z"/>
	<path d="M250.42,416.33h4.99l9.95,25.86h-5.12l-2.02-5.33h-10.55l-2.1,5.33h-5.12L250.42,416.33z M252.94,423.18l-3.47,8.88h6.92
		L252.94,423.18z"/>
	<path d="M269.16,416.33h4.92v21.16h7.17v4.69h-12.09V416.33z"/>
	<path d="M308.64,419.84l-3.65,3.22c-1.28-1.78-2.58-2.67-3.91-2.67c-0.65,0-1.17,0.17-1.58,0.52s-0.62,0.74-0.62,1.17
		s0.15,0.84,0.44,1.23c0.4,0.52,1.6,1.62,3.61,3.32c1.88,1.57,3.02,2.56,3.42,2.97c1,1.01,1.71,1.97,2.12,2.89s0.62,1.92,0.62,3.01
		c0,2.12-0.73,3.87-2.2,5.26c-1.47,1.38-3.38,2.07-5.74,2.07c-1.84,0-3.45-0.45-4.81-1.35c-1.37-0.9-2.54-2.32-3.51-4.25l4.14-2.5
		c1.25,2.29,2.68,3.43,4.3,3.43c0.84,0,1.56-0.25,2.13-0.74s0.86-1.06,0.86-1.71c0-0.59-0.22-1.17-0.65-1.76s-1.39-1.48-2.87-2.69
		c-2.82-2.3-4.64-4.07-5.46-5.32c-0.82-1.25-1.23-2.49-1.23-3.74c0-1.79,0.68-3.33,2.05-4.61c1.37-1.28,3.05-1.92,5.06-1.92
		c1.29,0,2.52,0.3,3.69,0.9C306.02,417.17,307.28,418.26,308.64,419.84z"/>
	<path d="M313.81,416.33h14.12v4.82h-9.23v4.68h9.23v4.73h-9.23v6.8h9.23v4.83h-14.12V416.33z"/>
	<path d="M332.53,416.33h4.72l11.06,17.02v-17.02h4.92v25.86h-4.73l-11.05-16.96v16.96h-4.92V416.33z"/>
	<path d="M372.71,419.84l-3.65,3.22c-1.28-1.78-2.58-2.67-3.91-2.67c-0.65,0-1.17,0.17-1.58,0.52s-0.62,0.74-0.62,1.17
		s0.15,0.84,0.44,1.23c0.4,0.52,1.6,1.62,3.61,3.32c1.88,1.57,3.02,2.56,3.42,2.97c1,1.01,1.71,1.97,2.12,2.89s0.62,1.92,0.62,3.01
		c0,2.12-0.73,3.87-2.2,5.26c-1.47,1.38-3.38,2.07-5.74,2.07c-1.84,0-3.45-0.45-4.81-1.35c-1.37-0.9-2.54-2.32-3.51-4.25l4.14-2.5
		c1.25,2.29,2.68,3.43,4.3,3.43c0.84,0,1.56-0.25,2.13-0.74s0.86-1.06,0.86-1.71c0-0.59-0.22-1.17-0.65-1.76s-1.39-1.48-2.87-2.69
		c-2.82-2.3-4.64-4.07-5.46-5.32c-0.82-1.25-1.23-2.49-1.23-3.74c0-1.79,0.68-3.33,2.05-4.61c1.37-1.28,3.05-1.92,5.06-1.92
		c1.29,0,2.52,0.3,3.69,0.9C370.09,417.17,371.35,418.26,372.71,419.84z"/>
	<path d="M377.51,416.33h4.89v25.86h-4.89V416.33z"/>
	<path d="M385.39,416.33h14.29v4.85h-4.71v21.01h-4.99v-21.01h-4.59V416.33z"/>
	<path d="M402.7,416.33h4.89v25.86h-4.89V416.33z"/>
	<path d="M411.17,416.33h5.06l6.51,18.37l6.6-18.37h5.05l-9.32,25.86h-4.75L411.17,416.33z"/>
	<path d="M437.98,416.33h4.89v25.86h-4.89V416.33z"/>
	<path d="M445.86,416.33h14.29v4.85h-4.71v21.01h-4.99v-21.01h-4.59V416.33z"/>
	<path d="M461.68,416.33h5.28l4.82,9.3l4.8-9.3h5.22l-7.57,14.66v11.2h-4.96v-11.2L461.68,416.33z"/>
	<path d="M112.54,459.53h4.99l9.95,25.86h-5.12l-2.02-5.33h-10.55l-2.1,5.33h-5.12L112.54,459.53z M115.07,466.38l-3.47,8.88h6.92
		L115.07,466.38z"/>
	<path d="M131.3,459.53h4.72l11.06,17.02v-17.02h4.92v25.86h-4.73l-11.05-16.96v16.96h-4.92V459.53z"/>
	<path d="M157.93,459.53h5.83c3.76,0,6.55,0.47,8.38,1.4c1.83,0.93,3.33,2.45,4.51,4.54s1.77,4.55,1.77,7.35
		c0,1.99-0.33,3.82-0.99,5.49c-0.66,1.67-1.58,3.06-2.74,4.16s-2.43,1.86-3.78,2.29c-1.36,0.42-3.71,0.63-7.06,0.63h-5.92V459.53z
		 M162.82,464.27v16.31h2.29c2.25,0,3.88-0.26,4.9-0.77c1.01-0.52,1.84-1.38,2.49-2.6c0.64-1.22,0.97-2.72,0.97-4.5
		c0-2.75-0.77-4.87-2.3-6.39c-1.38-1.36-3.6-2.04-6.66-2.04H162.82z"/>
	<path d="M201.08,459.53h4.99l9.95,25.86h-5.12l-2.02-5.33h-10.55l-2.1,5.33h-5.12L201.08,459.53z M203.61,466.38l-3.47,8.88h6.92
		L203.61,466.38z"/>
	<path d="M217.87,459.53h4.84l3.74,16.51l4.62-16.51h4.09l4.69,16.51l3.7-16.51h4.84l-5.83,25.86h-4.72l-4.76-16.72l-4.68,16.72
		h-4.68L217.87,459.53z"/>
	<path d="M260.11,459.53h4.99l9.95,25.86h-5.12l-2.02-5.33h-10.55l-2.1,5.33h-5.12L260.11,459.53z M262.64,466.38l-3.47,8.88h6.92
		L262.64,466.38z"/>
	<path d="M279.19,459.53h5.21c2.86,0,4.89,0.25,6.1,0.76c1.21,0.51,2.19,1.36,2.92,2.54s1.11,2.58,1.11,4.2
		c0,1.7-0.41,3.12-1.22,4.26s-2.04,2.01-3.68,2.59l6.12,11.5h-5.38l-5.81-10.95h-0.45v10.95h-4.92V459.53z M284.11,469.63h1.54
		c1.57,0,2.64-0.21,3.23-0.62s0.88-1.09,0.88-2.05c0-0.56-0.15-1.05-0.44-1.47c-0.29-0.42-0.68-0.72-1.17-0.9s-1.39-0.27-2.7-0.27
		h-1.35V469.63z"/>
	<path d="M299.75,459.53h14.12v4.82h-9.23v4.68h9.23v4.73h-9.23v6.8h9.23v4.83h-14.12V459.53z"/>
	<path d="M318.48,459.53h4.72l11.06,17.02v-17.02h4.92v25.86h-4.73l-11.05-16.96v16.96h-4.92V459.53z"/>
	<path d="M345.11,459.53h14.12v4.82h-9.23v4.68h9.23v4.73h-9.23v6.8h9.23v4.83h-14.12V459.53z"/>
	<path d="M377.38,463.04l-3.65,3.22c-1.28-1.78-2.58-2.67-3.91-2.67c-0.65,0-1.17,0.17-1.58,0.52s-0.62,0.74-0.62,1.17
		s0.15,0.84,0.44,1.23c0.4,0.52,1.6,1.62,3.61,3.32c1.88,1.57,3.02,2.56,3.42,2.97c1,1.01,1.71,1.97,2.12,2.89s0.62,1.92,0.62,3.01
		c0,2.12-0.73,3.87-2.2,5.26c-1.47,1.38-3.38,2.07-5.74,2.07c-1.84,0-3.45-0.45-4.81-1.35c-1.37-0.9-2.54-2.32-3.51-4.25l4.14-2.5
		c1.25,2.29,2.68,3.43,4.3,3.43c0.84,0,1.56-0.25,2.13-0.74s0.86-1.06,0.86-1.71c0-0.59-0.22-1.17-0.65-1.76s-1.39-1.48-2.87-2.69
		c-2.82-2.3-4.64-4.07-5.46-5.32c-0.82-1.25-1.23-2.49-1.23-3.74c0-1.79,0.68-3.33,2.05-4.61c1.37-1.28,3.05-1.92,5.06-1.92
		c1.29,0,2.52,0.3,3.69,0.9C374.75,460.37,376.02,461.46,377.38,463.04z"/>
	<path d="M396.1,463.04l-3.65,3.22c-1.28-1.78-2.58-2.67-3.91-2.67c-0.65,0-1.17,0.17-1.58,0.52s-0.62,0.74-0.62,1.17
		s0.15,0.84,0.44,1.23c0.4,0.52,1.6,1.62,3.61,3.32c1.88,1.57,3.02,2.56,3.42,2.97c1,1.01,1.71,1.97,2.12,2.89s0.62,1.92,0.62,3.01
		c0,2.12-0.73,3.87-2.2,5.26c-1.47,1.38-3.38,2.07-5.74,2.07c-1.84,0-3.45-0.45-4.81-1.35c-1.37-0.9-2.54-2.32-3.51-4.25l4.14-2.5
		c1.25,2.29,2.68,3.43,4.3,3.43c0.84,0,1.56-0.25,2.13-0.74s0.86-1.06,0.86-1.71c0-0.59-0.22-1.17-0.65-1.76s-1.39-1.48-2.87-2.69
		c-2.82-2.3-4.64-4.07-5.46-5.32c-0.82-1.25-1.23-2.49-1.23-3.74c0-1.79,0.68-3.33,2.05-4.61c1.37-1.28,3.05-1.92,5.06-1.92
		c1.29,0,2.52,0.3,3.69,0.9C393.48,460.37,394.74,461.46,396.1,463.04z"/>
</g>
</svg>
