<?xml version="1.0" encoding="utf-8"?>
<!-- Generator: Adobe Illustrator 24.3.0, SVG Export Plug-In . SVG Version: 6.00 Build 0)  -->
<svg version="1.1" id="Layer_1" xmlns="http://www.w3.org/2000/svg" xmlns:xlink="http://www.w3.org/1999/xlink" x="0px" y="0px"
	 viewBox="0 0 500 500" style="enable-background:new 0 0 500 500;" xml:space="preserve">
<g>
	<path d="M31.6,401.39h5.22c2.82,0,4.86,0.26,6.11,0.78s2.23,1.37,2.95,2.53s1.08,2.56,1.08,4.19c0,1.8-0.47,3.3-1.42,4.5
		s-2.22,2.03-3.84,2.5c-0.95,0.27-2.68,0.4-5.19,0.4v10.95H31.6V401.39z M36.52,411.5h1.56c1.23,0,2.09-0.09,2.57-0.26
		c0.48-0.18,0.86-0.47,1.13-0.87c0.28-0.41,0.41-0.9,0.41-1.47c0-1-0.39-1.73-1.16-2.19c-0.56-0.34-1.61-0.51-3.13-0.51h-1.39V411.5
		z"/>
	<path d="M51.78,401.39h4.92v21.16h7.17v4.69H51.78V401.39z"/>
	<path d="M75.51,401.39h4.99l9.95,25.86h-5.12l-2.02-5.33H72.75l-2.1,5.33h-5.12L75.51,401.39z M78.03,408.25l-3.47,8.88h6.92
		L78.03,408.25z"/>
	<path d="M94.27,401.39h4.72l11.06,17.02v-17.02h4.92v25.86h-4.73l-11.05-16.96v16.96h-4.92V401.39z"/>
	<path d="M120.9,401.39h4.72l11.06,17.02v-17.02h4.92v25.86h-4.73l-11.05-16.96v16.96h-4.92V401.39z"/>
	<path d="M147.16,401.39h4.89v25.86h-4.89V401.39z"/>
	<path d="M157.6,401.39h4.72l11.06,17.02v-17.02h4.92v25.86h-4.73l-11.05-16.96v16.96h-4.92V401.39z"/>
	<path d="M208.08,405.61l-3.47,3.43c-2.19-2.32-4.75-3.48-7.67-3.48c-2.55,0-4.68,0.84-6.4,2.53c-1.72,1.69-2.58,3.74-2.58,6.15
		c0,2.5,0.89,4.61,2.67,6.35c1.78,1.73,3.98,2.6,6.6,2.6c1.7,0,3.14-0.36,4.3-1.07c1.17-0.71,2.11-1.83,2.82-3.36h-7.49v-4.62h13.01
		l0.04,1.09c0,2.26-0.59,4.41-1.76,6.43s-2.69,3.57-4.55,4.64s-4.05,1.6-6.56,1.6c-2.68,0-5.08-0.58-7.18-1.75s-3.77-2.83-4.99-4.98
		s-1.84-4.48-1.84-6.98c0-3.42,1.13-6.4,3.39-8.93c2.68-3.01,6.18-4.52,10.48-4.52c2.25,0,4.35,0.42,6.31,1.25
		C204.89,402.69,206.5,403.9,208.08,405.61z"/>
	<path d="M216.22,422.38l3.43,1.72l-4.34,7.42l-2.39-1.14L216.22,422.38z"/>
	<path d="M246.8,400.74c3.66,0,6.8,1.32,9.44,3.97s3.95,5.88,3.95,9.69c0,3.77-1.3,6.97-3.9,9.58s-5.75,3.92-9.45,3.92
		c-3.88,0-7.11-1.34-9.67-4.03s-3.85-5.87-3.85-9.56c0-2.47,0.6-4.75,1.79-6.82c1.2-2.07,2.84-3.72,4.93-4.93
		C242.13,401.35,244.38,400.74,246.8,400.74z M246.75,405.56c-2.39,0-4.41,0.83-6.04,2.5s-2.45,3.78-2.45,6.35
		c0,2.86,1.03,5.12,3.08,6.79c1.6,1.3,3.43,1.95,5.49,1.95c2.33,0,4.32-0.84,5.96-2.53s2.46-3.77,2.46-6.24
		c0-2.46-0.83-4.54-2.48-6.25S249.12,405.56,246.75,405.56z"/>
	<path d="M265.16,401.39h5.21c2.86,0,4.89,0.25,6.1,0.76c1.21,0.51,2.19,1.36,2.92,2.54s1.11,2.58,1.11,4.2
		c0,1.7-0.41,3.12-1.22,4.26s-2.04,2.01-3.68,2.59l6.12,11.5h-5.38l-5.81-10.95h-0.45v10.95h-4.92V401.39z M270.08,411.5h1.54
		c1.57,0,2.64-0.21,3.23-0.62s0.88-1.09,0.88-2.05c0-0.56-0.15-1.05-0.44-1.47c-0.29-0.42-0.68-0.72-1.17-0.9s-1.39-0.27-2.7-0.27
		h-1.35V411.5z"/>
	<path d="M309.58,405.61l-3.47,3.43c-2.19-2.32-4.75-3.48-7.67-3.48c-2.54,0-4.68,0.84-6.4,2.53c-1.72,1.69-2.58,3.74-2.58,6.15
		c0,2.5,0.89,4.61,2.67,6.35s3.98,2.6,6.6,2.6c1.7,0,3.14-0.36,4.3-1.07s2.11-1.83,2.82-3.36h-7.49v-4.62h13.01l0.04,1.09
		c0,2.26-0.59,4.41-1.76,6.43s-2.69,3.57-4.55,4.64s-4.05,1.6-6.56,1.6c-2.68,0-5.08-0.58-7.18-1.75s-3.77-2.83-4.99-4.98
		s-1.84-4.48-1.84-6.98c0-3.42,1.13-6.4,3.39-8.93c2.68-3.01,6.18-4.52,10.48-4.52c2.25,0,4.35,0.42,6.31,1.25
		C306.38,402.69,308,403.9,309.58,405.61z"/>
	<path d="M323.83,401.39h4.99l9.95,25.86h-5.12l-2.02-5.33h-10.55l-2.1,5.33h-5.12L323.83,401.39z M326.36,408.25l-3.47,8.88h6.92
		L326.36,408.25z"/>
	<path d="M342.59,401.39h4.72l11.06,17.02v-17.02h4.92v25.86h-4.73l-11.05-16.96v16.96h-4.92V401.39z"/>
	<path d="M368.85,401.39h4.89v25.86h-4.89V401.39z"/>
	<path d="M377.91,401.39h15.64l-9.21,21.13h8.61v4.73h-15.8l9.17-20.99h-8.41V401.39z"/>
	<path d="M396.93,401.39h4.89v25.86h-4.89V401.39z"/>
	<path d="M407.37,401.39h4.72l11.06,17.02v-17.02h4.92v25.86h-4.73l-11.05-16.96v16.96h-4.92V401.39z"/>
	<path d="M457.85,405.61l-3.47,3.43c-2.19-2.32-4.75-3.48-7.67-3.48c-2.54,0-4.68,0.84-6.4,2.53c-1.72,1.69-2.58,3.74-2.58,6.15
		c0,2.5,0.89,4.61,2.67,6.35s3.98,2.6,6.6,2.6c1.7,0,3.14-0.36,4.3-1.07s2.11-1.83,2.82-3.36h-7.49v-4.62h13.01l0.04,1.09
		c0,2.26-0.59,4.41-1.76,6.43s-2.69,3.57-4.55,4.64s-4.05,1.6-6.56,1.6c-2.68,0-5.08-0.58-7.18-1.75s-3.77-2.83-4.99-4.98
		s-1.84-4.48-1.84-6.98c0-3.42,1.13-6.4,3.39-8.93c2.68-3.01,6.18-4.52,10.48-4.52c2.25,0,4.35,0.42,6.31,1.25
		C454.65,402.69,456.27,403.9,457.85,405.61z"/>
	<path d="M465.99,422.38l3.43,1.72l-4.34,7.42l-2.39-1.14L465.99,422.38z"/>
	<path d="M111.84,444.59h4.99l9.95,25.86h-5.12l-2.02-5.33h-10.55l-2.1,5.33h-5.12L111.84,444.59z M114.37,451.45l-3.47,8.88h6.92
		L114.37,451.45z"/>
	<path d="M130.6,444.59h4.72l11.06,17.02v-17.02h4.92v25.86h-4.73l-11.05-16.96v16.96h-4.92V444.59z"/>
	<path d="M157.23,444.59h5.83c3.76,0,6.55,0.47,8.38,1.4c1.83,0.93,3.33,2.45,4.51,4.54s1.77,4.55,1.77,7.35
		c0,1.99-0.33,3.82-0.99,5.49c-0.66,1.67-1.58,3.06-2.74,4.16s-2.43,1.86-3.78,2.29c-1.36,0.42-3.71,0.63-7.06,0.63h-5.92V444.59z
		 M162.12,449.34v16.31h2.29c2.25,0,3.88-0.26,4.9-0.77c1.01-0.52,1.84-1.38,2.49-2.6c0.64-1.22,0.97-2.72,0.97-4.5
		c0-2.75-0.77-4.87-2.3-6.39c-1.38-1.36-3.6-2.04-6.66-2.04H162.12z"/>
	<path d="M195,444.59h4.8l5.99,18.04l6.05-18.04h4.79l4.34,25.86h-4.76l-2.77-16.33l-5.49,16.33h-4.34l-5.44-16.33l-2.84,16.33h-4.8
		L195,444.59z"/>
	<path d="M232.78,444.59h4.99l9.95,25.86h-5.12l-2.02-5.33h-10.55l-2.1,5.33h-5.12L232.78,444.59z M235.3,451.45l-3.47,8.88h6.92
		L235.3,451.45z"/>
	<path d="M251.54,444.59h4.72l11.06,17.02v-17.02h4.92v25.86h-4.73l-11.05-16.96v16.96h-4.92V444.59z"/>
	<path d="M286.04,444.59h4.99l9.95,25.86h-5.12l-2.02-5.33h-10.55l-2.1,5.33h-5.12L286.04,444.59z M288.57,451.45l-3.47,8.88h6.92
		L288.57,451.45z"/>
	<path d="M328.65,448.81l-3.47,3.43c-2.19-2.32-4.75-3.48-7.67-3.48c-2.54,0-4.68,0.84-6.4,2.53c-1.72,1.69-2.58,3.74-2.58,6.15
		c0,2.5,0.89,4.61,2.67,6.35s3.98,2.6,6.6,2.6c1.7,0,3.14-0.36,4.3-1.07s2.11-1.83,2.82-3.36h-7.49v-4.62h13.01l0.04,1.09
		c0,2.26-0.59,4.41-1.76,6.43s-2.69,3.57-4.55,4.64s-4.05,1.6-6.56,1.6c-2.68,0-5.08-0.58-7.18-1.75s-3.77-2.83-4.99-4.98
		s-1.84-4.48-1.84-6.98c0-3.42,1.13-6.4,3.39-8.93c2.68-3.01,6.18-4.52,10.48-4.52c2.25,0,4.35,0.42,6.31,1.25
		C325.45,445.89,327.07,447.1,328.65,448.81z"/>
	<path d="M334.67,444.59h4.89v25.86h-4.89V444.59z"/>
	<path d="M345.11,444.59h4.72l11.06,17.02v-17.02h4.92v25.86h-4.73l-11.05-16.96v16.96h-4.92V444.59z"/>
	<path d="M395.59,448.81l-3.47,3.43c-2.19-2.32-4.75-3.48-7.67-3.48c-2.54,0-4.68,0.84-6.4,2.53c-1.72,1.69-2.58,3.74-2.58,6.15
		c0,2.5,0.89,4.61,2.67,6.35s3.98,2.6,6.6,2.6c1.7,0,3.14-0.36,4.3-1.07s2.11-1.83,2.82-3.36h-7.49v-4.62h13.01l0.04,1.09
		c0,2.26-0.59,4.41-1.76,6.43s-2.69,3.57-4.55,4.64s-4.05,1.6-6.56,1.6c-2.68,0-5.08-0.58-7.18-1.75s-3.77-2.83-4.99-4.98
		s-1.84-4.48-1.84-6.98c0-3.42,1.13-6.4,3.39-8.93c2.68-3.01,6.18-4.52,10.48-4.52c2.25,0,4.35,0.42,6.31,1.25
		C392.39,445.89,394.01,447.1,395.59,448.81z"/>
</g>
<path d="M408.4,86H214V71.6c0-11.88-9.72-21.6-21.6-21.6H91.6C79.72,50,70,59.72,70,71.6v36v4.8v216c0,11.88,9.72,21.6,21.6,21.6
	h316.8c11.88,0,21.6-9.72,21.6-21.6V107.6C430,95.72,420.28,86,408.4,86z M245.9,273.6l-19.28,22.98l-22.98-19.28l-45.96-38.57
	l19.28-22.98l45.96,38.57l96.42-114.91l22.98,19.28L245.9,273.6z"/>
</svg>
