<?xml version="1.0" encoding="utf-8"?>
<!-- Generator: Adobe Illustrator 24.3.0, SVG Export Plug-In . SVG Version: 6.00 Build 0)  -->
<svg version="1.1" xmlns="http://www.w3.org/2000/svg" xmlns:xlink="http://www.w3.org/1999/xlink" x="0px" y="0px"
	 viewBox="0 0 500 500" style="enable-background:new 0 0 500 500;" xml:space="preserve">
<g id="Layer_1">
</g>
<g id="Layer_2">
	<g>
		<path d="M95.28,437.48h5.22c2.82,0,4.86,0.26,6.11,0.78s2.23,1.37,2.95,2.53s1.08,2.56,1.08,4.19c0,1.8-0.47,3.3-1.42,4.5
			s-2.22,2.03-3.84,2.5c-0.95,0.27-2.68,0.4-5.19,0.4v10.95h-4.92V437.48z M100.2,447.59h1.56c1.23,0,2.09-0.09,2.57-0.26
			c0.48-0.18,0.86-0.47,1.13-0.87c0.28-0.41,0.41-0.9,0.41-1.47c0-1-0.39-1.73-1.16-2.19c-0.56-0.34-1.61-0.51-3.13-0.51h-1.39
			V447.59z"/>
		<path d="M115.79,437.48h5.21c2.86,0,4.89,0.25,6.1,0.76s2.19,1.36,2.92,2.54c0.74,1.18,1.11,2.58,1.11,4.2
			c0,1.7-0.41,3.12-1.22,4.26s-2.04,2.01-3.68,2.59l6.13,11.5h-5.38l-5.81-10.95h-0.45v10.95h-4.92V437.48z M120.71,447.59h1.54
			c1.57,0,2.64-0.21,3.23-0.62c0.59-0.41,0.88-1.09,0.88-2.05c0-0.56-0.15-1.05-0.44-1.47c-0.29-0.42-0.68-0.72-1.17-0.9
			c-0.49-0.18-1.39-0.27-2.7-0.27h-1.35V447.59z"/>
		<path d="M148.55,436.83c3.66,0,6.8,1.32,9.44,3.97c2.63,2.65,3.95,5.88,3.95,9.69c0,3.77-1.3,6.97-3.9,9.58
			c-2.6,2.61-5.75,3.92-9.45,3.92c-3.88,0-7.11-1.34-9.67-4.03s-3.85-5.87-3.85-9.56c0-2.47,0.6-4.75,1.79-6.82
			c1.2-2.07,2.84-3.72,4.93-4.93C143.88,437.44,146.13,436.83,148.55,436.83z M148.5,441.65c-2.39,0-4.41,0.83-6.04,2.5
			s-2.45,3.78-2.45,6.35c0,2.86,1.03,5.12,3.08,6.79c1.6,1.3,3.43,1.95,5.49,1.95c2.33,0,4.32-0.84,5.96-2.53
			c1.64-1.69,2.46-3.77,2.46-6.24c0-2.46-0.83-4.54-2.48-6.25C152.88,442.5,150.86,441.65,148.5,441.65z"/>
		<path d="M166.64,437.48h12.83v4.8h-7.95v4.69h7.95v4.73h-7.95v11.64h-4.89V437.48z"/>
		<path d="M183.87,437.48h14.12v4.82h-9.23v4.68h9.23v4.73h-9.23v6.8h9.23v4.83h-14.12V437.48z"/>
		<path d="M216.14,441l-3.65,3.22c-1.28-1.78-2.58-2.67-3.91-2.67c-0.65,0-1.17,0.17-1.58,0.52c-0.41,0.35-0.62,0.74-0.62,1.17
			s0.15,0.84,0.44,1.23c0.4,0.52,1.6,1.62,3.61,3.32c1.88,1.57,3.02,2.56,3.42,2.97c1,1.01,1.71,1.97,2.12,2.89
			c0.42,0.92,0.62,1.92,0.62,3.01c0,2.12-0.73,3.87-2.2,5.26s-3.38,2.07-5.74,2.07c-1.84,0-3.45-0.45-4.81-1.35
			s-2.54-2.32-3.51-4.25l4.14-2.5c1.24,2.29,2.68,3.43,4.3,3.43c0.85,0,1.56-0.25,2.13-0.74s0.86-1.06,0.86-1.71
			c0-0.59-0.22-1.17-0.65-1.76c-0.43-0.59-1.39-1.48-2.87-2.69c-2.82-2.3-4.64-4.07-5.46-5.32s-1.23-2.49-1.23-3.74
			c0-1.79,0.68-3.33,2.05-4.61s3.05-1.92,5.06-1.92c1.29,0,2.52,0.3,3.69,0.9C213.52,438.33,214.78,439.42,216.14,441z"/>
		<path d="M234.87,441l-3.65,3.22c-1.28-1.78-2.58-2.67-3.91-2.67c-0.65,0-1.17,0.17-1.58,0.52c-0.41,0.35-0.62,0.74-0.62,1.17
			s0.15,0.84,0.44,1.23c0.4,0.52,1.6,1.62,3.61,3.32c1.88,1.57,3.02,2.56,3.42,2.97c1,1.01,1.71,1.97,2.12,2.89
			c0.42,0.92,0.62,1.92,0.62,3.01c0,2.12-0.73,3.87-2.2,5.26s-3.38,2.07-5.74,2.07c-1.84,0-3.45-0.45-4.81-1.35
			s-2.54-2.32-3.51-4.25l4.14-2.5c1.24,2.29,2.68,3.43,4.3,3.43c0.85,0,1.56-0.25,2.13-0.74s0.86-1.06,0.86-1.71
			c0-0.59-0.22-1.17-0.65-1.76c-0.43-0.59-1.39-1.48-2.87-2.69c-2.82-2.3-4.64-4.07-5.46-5.32s-1.23-2.49-1.23-3.74
			c0-1.79,0.68-3.33,2.05-4.61s3.05-1.92,5.06-1.92c1.29,0,2.52,0.3,3.69,0.9C232.24,438.33,233.5,439.42,234.87,441z"/>
		<path d="M239.66,437.48h4.89v25.86h-4.89V437.48z"/>
		<path d="M262.3,436.83c3.66,0,6.8,1.32,9.44,3.97s3.95,5.88,3.95,9.69c0,3.77-1.3,6.97-3.9,9.58s-5.75,3.92-9.45,3.92
			c-3.88,0-7.11-1.34-9.67-4.03c-2.57-2.68-3.85-5.87-3.85-9.56c0-2.47,0.6-4.75,1.79-6.82c1.2-2.07,2.84-3.72,4.93-4.93
			C257.63,437.44,259.88,436.83,262.3,436.83z M262.24,441.65c-2.39,0-4.41,0.83-6.04,2.5c-1.63,1.66-2.45,3.78-2.45,6.35
			c0,2.86,1.03,5.12,3.08,6.79c1.6,1.3,3.43,1.95,5.49,1.95c2.33,0,4.32-0.84,5.96-2.53s2.46-3.77,2.46-6.24
			c0-2.46-0.83-4.54-2.48-6.25C266.62,442.5,264.61,441.65,262.24,441.65z"/>
		<path d="M280.34,437.48h4.72l11.06,17.02v-17.02h4.92v25.86h-4.73l-11.05-16.96v16.96h-4.92V437.48z"/>
		<path d="M314.84,437.48h4.99l9.95,25.86h-5.12l-2.02-5.33h-10.55l-2.1,5.33h-5.12L314.84,437.48z M317.37,444.34l-3.47,8.88h6.92
			L317.37,444.34z"/>
		<path d="M333.58,437.48h4.92v21.16h7.17v4.69h-12.09V437.48z"/>
		<path d="M349.07,437.48h4.89v25.86h-4.89V437.48z"/>
		<path d="M373.06,441l-3.65,3.22c-1.28-1.78-2.58-2.67-3.91-2.67c-0.65,0-1.17,0.17-1.58,0.52s-0.62,0.74-0.62,1.17
			s0.15,0.84,0.44,1.23c0.4,0.52,1.6,1.62,3.61,3.32c1.88,1.57,3.02,2.56,3.42,2.97c1,1.01,1.71,1.97,2.12,2.89s0.62,1.92,0.62,3.01
			c0,2.12-0.73,3.87-2.2,5.26c-1.47,1.38-3.38,2.07-5.74,2.07c-1.84,0-3.45-0.45-4.81-1.35c-1.37-0.9-2.54-2.32-3.51-4.25l4.14-2.5
			c1.25,2.29,2.68,3.43,4.3,3.43c0.84,0,1.56-0.25,2.13-0.74s0.86-1.06,0.86-1.71c0-0.59-0.22-1.17-0.65-1.76s-1.39-1.48-2.87-2.69
			c-2.82-2.3-4.64-4.07-5.46-5.32c-0.82-1.25-1.23-2.49-1.23-3.74c0-1.79,0.68-3.33,2.05-4.61c1.37-1.28,3.05-1.92,5.06-1.92
			c1.29,0,2.52,0.3,3.69,0.9C370.44,438.33,371.7,439.42,373.06,441z"/>
		<path d="M380.72,437.48h4.8l5.99,18.04l6.05-18.04h4.79l4.34,25.86h-4.76l-2.77-16.33l-5.49,16.33h-4.34l-5.44-16.33l-2.84,16.33
			h-4.8L380.72,437.48z"/>
	</g>
</g>
<g id="Layer_3">
	<g>
		<circle cx="250" cy="50" r="50"/>
		<path d="M155,230h10c8.25,0,15-6.75,15-15v-80c0-8.25-6.75-15-15-15h-10c-8.25,0-15,6.75-15,15v80C140,223.25,146.75,230,155,230z
			"/>
		<path d="M345,120h-10c-8.25,0-15,6.75-15,15v80c0,8.25,6.75,15,15,15h10c8.25,0,15-6.75,15-15v-80C360,126.75,353.25,120,345,120z
			"/>
		<path d="M220,240h60c9.9,0,18-6.58,18-14.62l12-100.75c0-8.04-8.1-14.62-18-14.62h-20.11l28.11,8.52l-49.07,37.16L271.89,110
			h-42.85L250,155.68l-49.07-37.16l28.11-8.52H208c-9.9,0-18,6.58-18,14.62l12,100.75C202,233.42,210.1,240,220,240z"/>
		<path d="M165,240h-10c-8.25,0-15,6.75-15,15s6.75,15,15,15h10c8.25,0,15-6.75,15-15S173.25,240,165,240z"/>
		<path d="M345,240h-10c-8.25,0-15,6.75-15,15s6.75,15,15,15h10c8.25,0,15-6.75,15-15S353.25,240,345,240z"/>
		<path d="M225,370h-30c-8.25,0-15,6.75-15,15s6.75,15,15,15h30c8.25,0,15-6.75,15-15S233.25,370,225,370z"/>
		<path d="M305,370h-30c-8.25,0-15,6.75-15,15s6.75,15,15,15h30c8.25,0,15-6.75,15-15S313.25,370,305,370z"/>
		<path d="M260,280v65c0,8.25,6.75,15,15,15h10c8.25,0,15-6.75,15-15v-80c0-8.25-6.75-15-15-15h-10h-50h-10c-8.25,0-15,6.75-15,15
			v80c0,8.25,6.75,15,15,15h10c8.25,0,15-6.75,15-15v-65H260z"/>
	</g>
</g>
</svg>
