<?xml version="1.0" encoding="utf-8"?>
<!-- Generator: Adobe Illustrator 24.3.0, SVG Export Plug-In . SVG Version: 6.00 Build 0)  -->
<svg version="1.1" id="Layer_1" xmlns="http://www.w3.org/2000/svg" xmlns:xlink="http://www.w3.org/1999/xlink" x="0px" y="0px"
	 viewBox="0 0 500 500" style="enable-background:new 0 0 500 500;" xml:space="preserve">
<polygon points="250,0 100,50 250,100 400,50 "/>
<path d="M250,160c0,0-47.31-17.2-98.06-19.7c-1.27,6.37-1.94,12.95-1.94,19.7c0,55.23,44.77,100,100,100s100-44.77,100-100
	c0-6.69-0.66-13.23-1.92-19.55C328.94,141.59,289.47,145.65,250,160z"/>
<path d="M160,80l90,30l90-30l10,50c0,0-50,0-100,20c0,0-50-20-100-20L160,80z"/>
<path d="M400,400H100v0c0-77.32,62.68-140,140-140h20C337.32,260,400,322.68,400,400L400,400z"/>
<g>
	<path d="M125.87,415.95h5.22c2.82,0,4.86,0.26,6.11,0.78s2.23,1.37,2.95,2.53s1.08,2.56,1.08,4.19c0,1.8-0.47,3.3-1.42,4.5
		s-2.22,2.03-3.84,2.5c-0.95,0.27-2.68,0.4-5.19,0.4v10.95h-4.92V415.95z M130.79,426.06h1.56c1.23,0,2.09-0.09,2.57-0.26
		c0.48-0.18,0.86-0.47,1.13-0.87c0.28-0.41,0.41-0.9,0.41-1.47c0-1-0.39-1.73-1.16-2.19c-0.56-0.34-1.61-0.51-3.13-0.51h-1.39
		V426.06z"/>
	<path d="M146.39,415.95h5.21c2.86,0,4.89,0.25,6.1,0.76s2.19,1.36,2.92,2.54c0.74,1.18,1.11,2.58,1.11,4.2
		c0,1.7-0.41,3.12-1.22,4.26s-2.04,2.01-3.68,2.59l6.13,11.5h-5.38l-5.81-10.95h-0.45v10.95h-4.92V415.95z M151.31,426.06h1.54
		c1.57,0,2.64-0.21,3.23-0.62c0.59-0.41,0.88-1.09,0.88-2.05c0-0.56-0.15-1.05-0.44-1.47c-0.29-0.42-0.68-0.72-1.17-0.9
		c-0.49-0.18-1.39-0.27-2.7-0.27h-1.35V426.06z"/>
	<path d="M179.14,415.3c3.66,0,6.8,1.32,9.44,3.97c2.63,2.65,3.95,5.88,3.95,9.69c0,3.77-1.3,6.97-3.9,9.58
		c-2.6,2.61-5.75,3.92-9.45,3.92c-3.88,0-7.11-1.34-9.67-4.03s-3.85-5.87-3.85-9.56c0-2.47,0.6-4.75,1.79-6.82
		c1.2-2.07,2.84-3.72,4.93-4.93C174.47,415.91,176.73,415.3,179.14,415.3z M179.09,420.12c-2.39,0-4.41,0.83-6.04,2.5
		s-2.45,3.78-2.45,6.35c0,2.86,1.03,5.12,3.08,6.79c1.6,1.3,3.43,1.95,5.49,1.95c2.33,0,4.32-0.84,5.96-2.53
		c1.64-1.69,2.46-3.77,2.46-6.24c0-2.46-0.83-4.54-2.48-6.25C183.47,420.97,181.46,420.12,179.09,420.12z"/>
	<path d="M197.24,415.95h12.83v4.8h-7.95v4.69h7.95v4.73h-7.95v11.64h-4.89V415.95z"/>
	<path d="M214.47,415.95h14.12v4.82h-9.23v4.68h9.23v4.73h-9.23v6.8h9.23v4.83h-14.12V415.95z"/>
	<path d="M246.74,419.47l-3.65,3.22c-1.28-1.78-2.58-2.67-3.91-2.67c-0.65,0-1.17,0.17-1.58,0.52c-0.41,0.35-0.62,0.74-0.62,1.17
		s0.15,0.84,0.44,1.23c0.4,0.52,1.6,1.62,3.61,3.32c1.88,1.57,3.02,2.56,3.42,2.97c1,1.01,1.71,1.97,2.12,2.89
		c0.42,0.92,0.62,1.92,0.62,3.01c0,2.12-0.73,3.87-2.2,5.26s-3.38,2.07-5.74,2.07c-1.84,0-3.45-0.45-4.81-1.35s-2.54-2.32-3.51-4.25
		l4.14-2.5c1.24,2.29,2.68,3.43,4.3,3.43c0.85,0,1.56-0.25,2.13-0.74s0.86-1.06,0.86-1.71c0-0.59-0.22-1.17-0.65-1.76
		c-0.43-0.59-1.39-1.48-2.87-2.69c-2.82-2.3-4.64-4.07-5.46-5.32s-1.23-2.49-1.23-3.74c0-1.79,0.68-3.33,2.05-4.61
		s3.05-1.92,5.06-1.92c1.29,0,2.52,0.3,3.69,0.9C244.11,416.8,245.38,417.89,246.74,419.47z"/>
	<path d="M265.46,419.47l-3.65,3.22c-1.28-1.78-2.58-2.67-3.91-2.67c-0.65,0-1.17,0.17-1.58,0.52s-0.62,0.74-0.62,1.17
		s0.15,0.84,0.44,1.23c0.4,0.52,1.6,1.62,3.61,3.32c1.88,1.57,3.02,2.56,3.42,2.97c1,1.01,1.71,1.97,2.12,2.89s0.62,1.92,0.62,3.01
		c0,2.12-0.73,3.87-2.2,5.26c-1.47,1.38-3.38,2.07-5.74,2.07c-1.84,0-3.45-0.45-4.81-1.35c-1.37-0.9-2.54-2.32-3.51-4.25l4.14-2.5
		c1.25,2.29,2.68,3.43,4.3,3.43c0.84,0,1.56-0.25,2.13-0.74s0.86-1.06,0.86-1.71c0-0.59-0.22-1.17-0.65-1.76s-1.39-1.48-2.87-2.69
		c-2.82-2.3-4.64-4.07-5.46-5.32s-1.23-2.49-1.23-3.74c0-1.79,0.68-3.33,2.05-4.61c1.37-1.28,3.05-1.92,5.06-1.92
		c1.29,0,2.52,0.3,3.69,0.9C262.83,416.8,264.1,417.89,265.46,419.47z"/>
	<path d="M270.26,415.95h4.89v25.86h-4.89V415.95z"/>
	<path d="M292.89,415.3c3.66,0,6.8,1.32,9.44,3.97s3.95,5.88,3.95,9.69c0,3.77-1.3,6.97-3.9,9.58s-5.75,3.92-9.45,3.92
		c-3.88,0-7.11-1.34-9.67-4.03c-2.57-2.68-3.85-5.87-3.85-9.56c0-2.47,0.6-4.75,1.79-6.82s2.84-3.72,4.93-4.93
		C288.22,415.91,290.47,415.3,292.89,415.3z M292.84,420.12c-2.39,0-4.41,0.83-6.04,2.5c-1.63,1.66-2.45,3.78-2.45,6.35
		c0,2.86,1.03,5.12,3.08,6.79c1.6,1.3,3.43,1.95,5.49,1.95c2.33,0,4.32-0.84,5.96-2.53s2.46-3.77,2.46-6.24
		c0-2.46-0.83-4.54-2.48-6.25C297.22,420.97,295.21,420.12,292.84,420.12z"/>
	<path d="M310.93,415.95h4.72l11.06,17.02v-17.02h4.92v25.86h-4.73l-11.05-16.96v16.96h-4.92V415.95z"/>
	<path d="M345.44,415.95h4.99l9.95,25.86h-5.12l-2.02-5.33h-10.55l-2.1,5.33h-5.12L345.44,415.95z M347.96,422.81l-3.47,8.88h6.92
		L347.96,422.81z"/>
	<path d="M364.18,415.95h4.92v21.16h7.17v4.69h-12.09V415.95z"/>
	<path d="M129.49,459.15h5.83c3.76,0,6.55,0.47,8.38,1.4c1.83,0.93,3.33,2.45,4.51,4.54s1.77,4.55,1.77,7.35
		c0,1.99-0.33,3.82-0.99,5.49c-0.66,1.67-1.58,3.06-2.74,4.16s-2.43,1.86-3.78,2.29c-1.36,0.42-3.71,0.63-7.06,0.63h-5.92V459.15z
		 M134.38,463.9v16.31h2.29c2.25,0,3.88-0.26,4.9-0.77c1.01-0.52,1.84-1.38,2.49-2.6c0.64-1.22,0.97-2.72,0.97-4.5
		c0-2.75-0.77-4.87-2.3-6.39c-1.38-1.36-3.6-2.04-6.66-2.04H134.38z"/>
	<path d="M154.7,459.15h14.12v4.82h-9.23v4.68h9.23v4.73h-9.23v6.8h9.23v4.83H154.7V459.15z"/>
	<path d="M171.44,459.15h5.06l6.51,18.37l6.6-18.37h5.05l-9.32,25.86h-4.75L171.44,459.15z"/>
	<path d="M198.63,459.15h14.12v4.82h-9.23v4.68h9.23v4.73h-9.23v6.8h9.23v4.83h-14.12V459.15z"/>
	<path d="M217.33,459.15h4.92v21.16h7.17v4.69h-12.09V459.15z"/>
	<path d="M245.38,458.5c3.66,0,6.8,1.32,9.44,3.97s3.95,5.88,3.95,9.69c0,3.77-1.3,6.97-3.9,9.58s-5.75,3.92-9.45,3.92
		c-3.88,0-7.11-1.34-9.67-4.03s-3.85-5.87-3.85-9.56c0-2.47,0.6-4.75,1.79-6.82c1.2-2.07,2.84-3.72,4.93-4.93
		C240.71,459.11,242.96,458.5,245.38,458.5z M245.32,463.32c-2.39,0-4.41,0.83-6.04,2.5s-2.45,3.78-2.45,6.35
		c0,2.86,1.03,5.12,3.08,6.79c1.6,1.3,3.43,1.95,5.49,1.95c2.33,0,4.32-0.84,5.96-2.53c1.64-1.69,2.46-3.77,2.46-6.24
		c0-2.46-0.83-4.54-2.48-6.25C249.71,464.17,247.69,463.32,245.32,463.32z"/>
	<path d="M263.39,459.15h5.22c2.82,0,4.86,0.26,6.11,0.78s2.23,1.37,2.95,2.53s1.08,2.56,1.08,4.19c0,1.8-0.47,3.3-1.42,4.5
		s-2.22,2.03-3.84,2.5c-0.95,0.27-2.68,0.4-5.19,0.4v10.95h-4.92V459.15z M268.31,469.26h1.56c1.23,0,2.09-0.09,2.57-0.26
		c0.48-0.18,0.86-0.47,1.13-0.87c0.28-0.41,0.41-0.9,0.41-1.47c0-1-0.39-1.73-1.16-2.19c-0.56-0.34-1.61-0.51-3.13-0.51h-1.39
		V469.26z"/>
	<path d="M286.07,459.15h4.8l5.99,18.04l6.05-18.04h4.79l4.34,25.86h-4.76l-2.77-16.33l-5.49,16.33h-4.34l-5.44-16.33l-2.84,16.33
		h-4.8L286.07,459.15z"/>
	<path d="M315.98,459.15h14.12v4.82h-9.23v4.68h9.23v4.73h-9.23v6.8h9.23v4.83h-14.12V459.15z"/>
	<path d="M334.7,459.15h4.72l11.06,17.02v-17.02h4.92v25.86h-4.73l-11.05-16.96v16.96h-4.92V459.15z"/>
	<path d="M358.76,459.15h14.29V464h-4.71v21.01h-4.99V464h-4.59V459.15z"/>
</g>
</svg>
