<?xml version="1.0" encoding="utf-8"?>
<!-- Generator: Adobe Illustrator 24.3.0, SVG Export Plug-In . SVG Version: 6.00 Build 0)  -->
<svg version="1.1" id="Layer_1" xmlns="http://www.w3.org/2000/svg" xmlns:xlink="http://www.w3.org/1999/xlink" x="0px" y="0px"
	 viewBox="0 0 500 500" style="enable-background:new 0 0 500 500;" xml:space="preserve">
<path d="M416.38,44.07C399.72,29.28,377.66,20,352.39,20h0c-30.46,0-59.14,14.34-77.42,38.71L250,92l-24.97-33.29
	C206.76,34.34,178.07,20,147.61,20h0c-25.28,0-47.33,9.28-64,24.07c-39.3,34.88-42.03,95.45-7.62,135.15L250,380l174.01-200.78
	C458.42,139.52,455.68,78.95,416.38,44.07z M330,220h-60v60h-40v-60h-60v-40h60v-60h40v60h60V220z"/>
<g>
	<path d="M95.18,440.74l-3.65,3.22c-1.28-1.78-2.58-2.67-3.91-2.67c-0.65,0-1.17,0.17-1.58,0.52c-0.41,0.35-0.62,0.74-0.62,1.17
		s0.15,0.84,0.44,1.23c0.4,0.52,1.6,1.62,3.61,3.32c1.88,1.57,3.02,2.56,3.42,2.97c1,1.01,1.71,1.97,2.12,2.89
		c0.42,0.92,0.62,1.92,0.62,3.01c0,2.12-0.73,3.87-2.2,5.26s-3.38,2.07-5.74,2.07c-1.84,0-3.45-0.45-4.81-1.35s-2.54-2.32-3.51-4.25
		l4.14-2.5c1.24,2.29,2.68,3.43,4.3,3.43c0.85,0,1.56-0.25,2.13-0.74s0.86-1.06,0.86-1.71c0-0.59-0.22-1.17-0.65-1.76
		c-0.43-0.59-1.39-1.48-2.87-2.69c-2.82-2.3-4.64-4.07-5.46-5.32s-1.23-2.49-1.23-3.74c0-1.79,0.68-3.33,2.05-4.61
		s3.05-1.92,5.06-1.92c1.29,0,2.52,0.3,3.69,0.9C92.56,438.06,93.82,439.15,95.18,440.74z"/>
	<path d="M108.22,437.22h4.99l9.95,25.86h-5.12l-2.02-5.33h-10.55l-2.1,5.33h-5.12L108.22,437.22z M110.75,444.08l-3.47,8.88h6.92
		L110.75,444.08z"/>
	<path d="M127.03,437.22h12.83v4.8h-7.95v4.69h7.95v4.73h-7.95v11.64h-4.89V437.22z"/>
	<path d="M144.26,437.22h14.12v4.82h-9.23v4.68h9.23v4.73h-9.23v6.8h9.23v4.83h-14.12V437.22z"/>
	<path d="M160.41,437.22h14.29v4.85h-4.71v21.01H165v-21.01h-4.59V437.22z"/>
	<path d="M176.24,437.22h5.28l4.82,9.3l4.8-9.3h5.22l-7.57,14.66v11.2h-4.96v-11.2L176.24,437.22z"/>
	<path d="M218.36,437.22h4.99l9.95,25.86h-5.12l-2.02-5.33h-10.55l-2.1,5.33h-5.12L218.36,437.22z M220.89,444.08l-3.47,8.88h6.92
		L220.89,444.08z"/>
	<path d="M237.12,437.22h4.72l11.06,17.02v-17.02h4.92v25.86h-4.73l-11.05-16.96v16.96h-4.92V437.22z"/>
	<path d="M263.75,437.22h5.83c3.76,0,6.55,0.47,8.38,1.4c1.83,0.93,3.33,2.45,4.51,4.54s1.77,4.55,1.77,7.35
		c0,1.99-0.33,3.82-0.99,5.49c-0.66,1.67-1.58,3.06-2.74,4.16s-2.43,1.86-3.79,2.29c-1.36,0.42-3.71,0.63-7.06,0.63h-5.92V437.22z
		 M268.64,441.97v16.31h2.29c2.25,0,3.88-0.26,4.9-0.77c1.01-0.52,1.84-1.38,2.49-2.6c0.64-1.22,0.97-2.72,0.97-4.5
		c0-2.75-0.77-4.87-2.3-6.39c-1.38-1.36-3.6-2.04-6.66-2.04H268.64z"/>
	<path d="M299,437.22h4.99v9.76h8.63v-9.76h4.97v25.86h-4.97v-11.34h-8.63v11.34H299V437.22z"/>
	<path d="M323.52,437.22h14.12v4.82h-9.23v4.68h9.23v4.73h-9.23v6.8h9.23v4.83h-14.12V437.22z"/>
	<path d="M350.11,437.22h4.99l9.95,25.86h-5.12l-2.02-5.33h-10.55l-2.1,5.33h-5.12L350.11,437.22z M352.64,444.08l-3.47,8.88h6.92
		L352.64,444.08z"/>
	<path d="M368.85,437.22h4.92v21.16h7.17v4.69h-12.09V437.22z"/>
	<path d="M382.14,437.22h14.29v4.85h-4.71v21.01h-4.99v-21.01h-4.59V437.22z"/>
	<path d="M399.79,437.22h4.99v9.76h8.63v-9.76h4.97v25.86h-4.97v-11.34h-8.63v11.34h-4.99V437.22z"/>
</g>
</svg>
