<?xml version="1.0" encoding="utf-8"?>
<!-- Generator: Adobe Illustrator 24.3.0, SVG Export Plug-In . SVG Version: 6.00 Build 0)  -->
<svg version="1.1" xmlns="http://www.w3.org/2000/svg" xmlns:xlink="http://www.w3.org/1999/xlink" x="0px" y="0px"
	 viewBox="0 0 500 500" style="enable-background:new 0 0 500 500;" xml:space="preserve">
<g id="Layer_1">
	<circle cx="250" cy="70" r="50"/>
	<g>
		<path d="M115.35,441l-3.65,3.22c-1.28-1.78-2.58-2.67-3.91-2.67c-0.65,0-1.17,0.17-1.58,0.52c-0.41,0.35-0.62,0.74-0.62,1.17
			s0.15,0.84,0.44,1.23c0.4,0.52,1.6,1.62,3.61,3.32c1.88,1.57,3.02,2.56,3.42,2.97c1,1.01,1.71,1.97,2.12,2.89
			c0.42,0.92,0.62,1.92,0.62,3.01c0,2.12-0.73,3.87-2.2,5.26s-3.38,2.07-5.74,2.07c-1.84,0-3.45-0.45-4.81-1.35
			s-2.54-2.32-3.51-4.25l4.14-2.5c1.24,2.29,2.68,3.43,4.3,3.43c0.85,0,1.56-0.25,2.13-0.74s0.86-1.06,0.86-1.71
			c0-0.59-0.22-1.17-0.65-1.76c-0.43-0.59-1.39-1.48-2.87-2.69c-2.82-2.3-4.64-4.07-5.46-5.32s-1.23-2.49-1.23-3.74
			c0-1.79,0.68-3.33,2.05-4.61s3.05-1.92,5.06-1.92c1.29,0,2.52,0.3,3.69,0.9C112.73,438.33,113.99,439.42,115.35,441z"/>
		<path d="M120.52,437.48h14.12v4.82h-9.23v4.68h9.23v4.73h-9.23v6.8h9.23v4.83h-14.12V437.48z"/>
		<path d="M139.22,437.48h4.92v21.16h7.17v4.69h-12.09V437.48z"/>
		<path d="M155.13,437.48h12.83v4.8h-7.95v4.69h7.95v4.73h-7.95v11.64h-4.89V437.48z"/>
		<path d="M184.92,437.48h4.8l5.99,18.04l6.05-18.04h4.79l4.34,25.86h-4.76l-2.77-16.33l-5.49,16.33h-4.34l-5.44-16.33l-2.84,16.33
			h-4.8L184.92,437.48z"/>
		<path d="M227.02,436.83c3.66,0,6.8,1.32,9.44,3.97c2.63,2.65,3.95,5.88,3.95,9.69c0,3.77-1.3,6.97-3.9,9.58
			c-2.6,2.61-5.75,3.92-9.45,3.92c-3.88,0-7.11-1.34-9.67-4.03s-3.85-5.87-3.85-9.56c0-2.47,0.6-4.75,1.79-6.82
			c1.2-2.07,2.84-3.72,4.93-4.93C222.35,437.44,224.6,436.83,227.02,436.83z M226.96,441.65c-2.39,0-4.41,0.83-6.04,2.5
			s-2.45,3.78-2.45,6.35c0,2.86,1.03,5.12,3.08,6.79c1.6,1.3,3.43,1.95,5.49,1.95c2.33,0,4.32-0.84,5.96-2.53
			c1.64-1.69,2.46-3.77,2.46-6.24c0-2.46-0.83-4.54-2.48-6.25C231.35,442.5,229.33,441.65,226.96,441.65z"/>
		<path d="M242.49,437.48h14.29v4.85h-4.71v21.01h-4.99v-21.01h-4.59V437.48z"/>
		<path d="M259.81,437.48h4.89v25.86h-4.89V437.48z"/>
		<path d="M268.27,437.48h5.06l6.51,18.37l6.6-18.37h5.05l-9.32,25.86h-4.75L268.27,437.48z"/>
		<path d="M303.33,437.48h4.99l9.95,25.86h-5.12l-2.02-5.33h-10.55l-2.1,5.33h-5.12L303.33,437.48z M305.85,444.34l-3.47,8.88h6.92
			L305.85,444.34z"/>
		<path d="M319.52,437.48h14.29v4.85h-4.71v21.01h-4.99v-21.01h-4.59V437.48z"/>
		<path d="M336.84,437.48h4.89v25.86h-4.89V437.48z"/>
		<path d="M359.47,436.83c3.66,0,6.8,1.32,9.44,3.97s3.95,5.88,3.95,9.69c0,3.77-1.3,6.97-3.9,9.58s-5.75,3.92-9.45,3.92
			c-3.88,0-7.11-1.34-9.67-4.03c-2.57-2.68-3.85-5.87-3.85-9.56c0-2.47,0.6-4.75,1.79-6.82s2.84-3.72,4.93-4.93
			C354.8,437.44,357.05,436.83,359.47,436.83z M359.42,441.65c-2.39,0-4.41,0.83-6.04,2.5c-1.63,1.66-2.45,3.78-2.45,6.35
			c0,2.86,1.03,5.12,3.08,6.79c1.6,1.3,3.43,1.95,5.49,1.95c2.33,0,4.32-0.84,5.96-2.53s2.46-3.77,2.46-6.24
			c0-2.46-0.83-4.54-2.48-6.25C363.8,442.5,361.78,441.65,359.42,441.65z"/>
		<path d="M377.51,437.48h4.72l11.06,17.02v-17.02h4.92v25.86h-4.73l-11.05-16.96v16.96h-4.92V437.48z"/>
	</g>
</g>
<g id="Layer_2">
	<path d="M250,120L250,120c-49.71,0-90,40.29-90,90v170h180V210C340,160.29,299.71,120,250,120z M253.7,279.41l-12.86,15.32
		l-15.32-12.86l-30.64-25.71l12.86-15.32l30.64,25.71l51.42-61.28l15.32,12.86L253.7,279.41z"/>
</g>
</svg>
