<?xml version="1.0" encoding="utf-8"?>
<!-- Generator: Adobe Illustrator 24.3.0, SVG Export Plug-In . SVG Version: 6.00 Build 0)  -->
<svg version="1.1" id="Layer_1" xmlns="http://www.w3.org/2000/svg" xmlns:xlink="http://www.w3.org/1999/xlink" x="0px" y="0px"
	 viewBox="0 0 500 500" style="enable-background:new 0 0 500 500;" xml:space="preserve">
<style type="text/css">
	.st0{fill:#010101;}
</style>
<path class="st0" d="M396.33,97.33c-1.78-4.31-3.93-8.34-6.37-12.12l32.13-41.26c-4.15-4.83-8.62-9.3-13.39-13.38l-41.26,32.12
	c-7.7-4.96-16.24-8.5-25.2-10.44l-6.46-51.89c-6.26-0.48-12.59-0.48-18.93,0l-6.45,51.89c-4.4,0.96-8.77,2.28-13.08,4.06
	c-4.31,1.78-8.34,3.93-12.12,6.37l-41.24-32.12c-4.83,4.15-9.3,8.62-13.38,13.39l32.12,41.26c-4.96,7.7-8.5,16.24-10.43,25.2
	l-51.89,6.45c-0.48,6.26-0.48,12.59,0,18.93l51.89,6.45c0.96,4.4,2.28,8.77,4.06,13.08c1.78,4.31,3.93,8.34,6.37,12.12l-32.13,41.26
	c4.15,4.83,8.62,9.3,13.39,13.38l41.26-32.12c7.7,4.96,16.24,8.5,25.19,10.44l6.46,51.89c6.26,0.48,12.59,0.48,18.93,0l6.45-51.89
	c4.4-0.96,8.77-2.28,13.08-4.06c4.31-1.78,8.34-3.93,12.12-6.37l41.25,32.12c4.83-4.15,9.3-8.62,13.38-13.39l-32.12-41.26
	c4.96-7.7,8.5-16.24,10.44-25.19l51.89-6.46c0.48-6.26,0.48-12.59,0.01-18.93l-51.89-6.45C399.44,106.01,398.12,101.63,396.33,97.33
	z M345.65,173c-25.78,10.68-55.33-1.56-66.01-27.34s1.57-55.33,27.34-66.01c25.78-10.68,55.33,1.56,66.01,27.34
	C383.67,132.77,371.43,162.32,345.65,173z"/>
<path class="st0" d="M156.07,209.08c15.7-15.7,37.94-20.86,57.95-15.52l-29.67,29.67v42.43h42.43l29.67-29.67
	c5.34,20.01,0.18,42.25-15.52,57.95c-18.47,18.47-45.99,22.37-68.29,11.72L78.28,400L50,371.72l94.35-94.35
	C133.7,255.07,137.59,227.55,156.07,209.08z"/>
<g>
	<path d="M76.12,441.19l-3.65,3.22c-1.28-1.78-2.58-2.67-3.91-2.67c-0.65,0-1.17,0.17-1.58,0.52c-0.41,0.35-0.62,0.74-0.62,1.17
		s0.15,0.84,0.44,1.23c0.4,0.52,1.6,1.62,3.61,3.32c1.88,1.57,3.02,2.56,3.42,2.97c1,1.01,1.71,1.97,2.12,2.89
		c0.42,0.92,0.62,1.92,0.62,3.01c0,2.12-0.73,3.87-2.2,5.26s-3.38,2.07-5.74,2.07c-1.84,0-3.45-0.45-4.81-1.35s-2.54-2.32-3.51-4.25
		l4.14-2.5c1.24,2.29,2.68,3.43,4.3,3.43c0.85,0,1.56-0.25,2.13-0.74s0.86-1.06,0.86-1.71c0-0.59-0.22-1.17-0.65-1.76
		c-0.43-0.59-1.39-1.48-2.87-2.69c-2.82-2.3-4.64-4.07-5.46-5.32s-1.23-2.49-1.23-3.74c0-1.79,0.68-3.33,2.05-4.61
		s3.05-1.92,5.06-1.92c1.29,0,2.52,0.3,3.69,0.9C73.49,438.52,74.76,439.61,76.12,441.19z"/>
	<path d="M81.29,437.68H95.4v4.82h-9.23v4.68h9.23v4.73h-9.23v6.8h9.23v4.83H81.29V437.68z"/>
	<path d="M100.32,437.68h5.21c2.86,0,4.89,0.25,6.1,0.76s2.19,1.36,2.92,2.54c0.74,1.18,1.11,2.58,1.11,4.2
		c0,1.7-0.41,3.12-1.22,4.26s-2.04,2.01-3.68,2.59l6.13,11.5h-5.38l-5.81-10.95h-0.45v10.95h-4.92V437.68z M105.24,447.78h1.54
		c1.57,0,2.64-0.21,3.23-0.62c0.59-0.41,0.88-1.09,0.88-2.05c0-0.56-0.15-1.05-0.44-1.47c-0.29-0.42-0.68-0.72-1.17-0.9
		c-0.49-0.18-1.39-0.27-2.7-0.27h-1.35V447.78z"/>
	<path d="M118.91,437.68h5.06l6.51,18.37l6.6-18.37h5.05l-9.32,25.86h-4.75L118.91,437.68z"/>
	<path d="M145.73,437.68h4.89v25.86h-4.89V437.68z"/>
	<path d="M179.92,442.22l-3.44,3.28c-2.34-2.48-4.98-3.71-7.9-3.71c-2.47,0-4.55,0.84-6.24,2.53c-1.69,1.69-2.54,3.77-2.54,6.25
		c0,1.72,0.37,3.25,1.12,4.59c0.75,1.34,1.81,2.39,3.18,3.15s2.89,1.14,4.57,1.14c1.43,0,2.73-0.27,3.92-0.8
		c1.18-0.53,2.48-1.5,3.9-2.91l3.34,3.48c-1.91,1.86-3.71,3.16-5.41,3.88c-1.7,0.72-3.64,1.08-5.82,1.08
		c-4.02,0-7.31-1.27-9.87-3.82s-3.84-5.82-3.84-9.8c0-2.58,0.58-4.87,1.75-6.87s2.84-3.62,5.01-4.83s4.51-1.83,7.02-1.83
		c2.13,0,4.19,0.45,6.16,1.35C176.78,439.28,178.49,440.56,179.92,442.22z"/>
	<path d="M184.24,437.68h14.12v4.82h-9.23v4.68h9.23v4.73h-9.23v6.8h9.23v4.83h-14.12V437.68z"/>
	<path d="M225.22,437.03c3.66,0,6.8,1.32,9.44,3.97c2.63,2.65,3.95,5.88,3.95,9.69c0,3.77-1.3,6.97-3.9,9.58
		c-2.6,2.61-5.75,3.92-9.45,3.92c-3.88,0-7.11-1.34-9.67-4.03s-3.85-5.87-3.85-9.56c0-2.47,0.6-4.75,1.79-6.82
		c1.2-2.07,2.84-3.72,4.93-4.93C220.55,437.63,222.81,437.03,225.22,437.03z M225.17,441.84c-2.39,0-4.41,0.83-6.04,2.5
		s-2.45,3.78-2.45,6.35c0,2.86,1.03,5.12,3.08,6.79c1.6,1.3,3.43,1.95,5.49,1.95c2.33,0,4.32-0.84,5.96-2.53
		c1.64-1.69,2.46-3.77,2.46-6.24c0-2.46-0.83-4.54-2.48-6.25C229.55,442.7,227.54,441.84,225.17,441.84z"/>
	<path d="M243.58,437.68h5.21c2.86,0,4.89,0.25,6.1,0.76c1.21,0.51,2.19,1.36,2.92,2.54s1.11,2.58,1.11,4.2
		c0,1.7-0.41,3.12-1.22,4.26s-2.04,2.01-3.68,2.59l6.12,11.5h-5.38l-5.81-10.95h-0.45v10.95h-4.92V437.68z M248.51,447.78h1.54
		c1.57,0,2.64-0.21,3.23-0.62s0.88-1.09,0.88-2.05c0-0.56-0.15-1.05-0.44-1.47c-0.29-0.42-0.68-0.72-1.17-0.9s-1.39-0.27-2.7-0.27
		h-1.35V447.78z"/>
	<path d="M263.78,437.68h4.89v25.86h-4.89V437.68z"/>
	<path d="M274.22,437.68h14.12v4.82h-9.23v4.68h9.23v4.73h-9.23v6.8h9.23v4.83h-14.12V437.68z"/>
	<path d="M292.94,437.68h4.72l11.06,17.02v-17.02h4.92v25.86h-4.73l-11.05-16.96v16.96h-4.92V437.68z"/>
	<path d="M317.01,437.68h14.29v4.85h-4.71v21.01h-4.99v-21.01h-4.59V437.68z"/>
	<path d="M342.56,437.68h4.99l9.95,25.86h-5.12l-2.02-5.33h-10.55l-2.1,5.33h-5.12L342.56,437.68z M345.09,444.53l-3.47,8.88h6.92
		L345.09,444.53z"/>
	<path d="M358.76,437.68h14.29v4.85h-4.71v21.01h-4.99v-21.01h-4.59V437.68z"/>
	<path d="M376.07,437.68h4.89v25.86h-4.89V437.68z"/>
	<path d="M398.7,437.03c3.66,0,6.8,1.32,9.44,3.97s3.95,5.88,3.95,9.69c0,3.77-1.3,6.97-3.9,9.58s-5.75,3.92-9.45,3.92
		c-3.88,0-7.11-1.34-9.67-4.03c-2.57-2.68-3.85-5.87-3.85-9.56c0-2.47,0.6-4.75,1.79-6.82s2.84-3.72,4.93-4.93
		C394.03,437.63,396.29,437.03,398.7,437.03z M398.65,441.84c-2.39,0-4.41,0.83-6.04,2.5c-1.63,1.66-2.45,3.78-2.45,6.35
		c0,2.86,1.03,5.12,3.08,6.79c1.6,1.3,3.43,1.95,5.49,1.95c2.33,0,4.32-0.84,5.96-2.53s2.46-3.77,2.46-6.24
		c0-2.46-0.83-4.54-2.48-6.25C403.03,442.7,401.02,441.84,398.65,441.84z"/>
	<path d="M416.75,437.68h4.72l11.06,17.02v-17.02h4.92v25.86h-4.73l-11.05-16.96v16.96h-4.92V437.68z"/>
</g>
</svg>
