<?xml version="1.0" encoding="utf-8"?>
<!-- Generator: Adobe Illustrator 24.3.0, SVG Export Plug-In . SVG Version: 6.00 Build 0)  -->
<svg version="1.1" xmlns="http://www.w3.org/2000/svg" xmlns:xlink="http://www.w3.org/1999/xlink" x="0px" y="0px"
	 viewBox="0 0 500 500" style="enable-background:new 0 0 500 500;" xml:space="preserve">
<g id="Layer_1">
</g>
<g id="Layer_2">
	<g>
		<path d="M245.78,120c0-4.66-0.44-9.21-1.25-13.64L290,80.54c-1.99-6.05-4.41-11.89-7.25-17.49l-50.41,13.89
			c-5.21-7.53-11.75-14.07-19.29-19.29l13.89-50.41c-5.6-2.84-11.45-5.26-17.49-7.25l-25.82,45.47c-4.43-0.8-8.98-1.25-13.64-1.25
			s-9.21,0.44-13.64,1.25L130.54,0c-6.05,1.99-11.89,4.41-17.49,7.25l13.89,50.41c-7.53,5.21-14.07,11.75-19.28,19.29L57.25,63.05
			c-2.84,5.6-5.26,11.45-7.25,17.49l45.47,25.82c-0.8,4.43-1.25,8.98-1.25,13.64s0.44,9.21,1.25,13.64L50,159.46
			c1.99,6.05,4.41,11.89,7.25,17.49l50.41-13.89c5.21,7.53,11.75,14.07,19.28,19.29l-13.89,50.41c5.6,2.84,11.45,5.26,17.49,7.25
			l25.82-45.47c4.43,0.8,8.98,1.25,13.64,1.25s9.21-0.44,13.64-1.25L209.46,240c6.05-1.99,11.89-4.41,17.49-7.25l-13.89-50.41
			c7.53-5.21,14.07-11.75,19.29-19.28l50.41,13.89c2.84-5.6,5.26-11.45,7.25-17.49l-45.47-25.82
			C245.33,129.21,245.78,124.66,245.78,120z M170,170.52c-27.9,0-50.52-22.62-50.52-50.52S142.1,69.48,170,69.48
			c27.9,0,50.52,22.62,50.52,50.52S197.9,170.52,170,170.52z"/>
		<path d="M396.51,252.45c-1.69-4.09-3.74-7.92-6.05-11.51l30.52-39.19c-3.94-4.58-8.2-8.83-12.72-12.72l-39.19,30.52
			c-7.31-4.72-15.43-8.08-23.94-9.91l-6.13-49.29c-5.95-0.45-11.96-0.46-17.99,0l-6.13,49.29c-4.18,0.9-8.33,2.17-12.42,3.86
			c-4.09,1.69-7.92,3.74-11.51,6.05l-39.19-30.52c-4.58,3.94-8.83,8.2-12.72,12.72l30.52,39.19c-4.72,7.31-8.08,15.43-9.91,23.94
			l-49.29,6.13c-0.45,5.95-0.46,11.96,0,17.99l49.29,6.13c0.9,4.18,2.17,8.33,3.86,12.42c1.69,4.09,3.74,7.92,6.05,11.51
			l-30.52,39.19c3.94,4.58,8.2,8.83,12.72,12.72l39.19-30.52c7.31,4.72,15.43,8.08,23.94,9.91l6.13,49.29
			c5.95,0.45,11.96,0.46,17.99,0l6.13-49.29c4.18-0.9,8.33-2.17,12.42-3.86s7.92-3.74,11.51-6.05l39.19,30.52
			c4.58-3.94,8.83-8.2,12.72-12.72l-30.52-39.19c4.72-7.31,8.08-15.43,9.91-23.94l49.29-6.13c0.45-5.95,0.46-11.96,0-17.99
			l-49.29-6.13C399.47,260.7,398.2,256.54,396.51,252.45z M348.37,324.34c-24.49,10.14-52.56-1.49-62.7-25.97
			c-10.14-24.49,1.49-52.56,25.97-62.7c24.49-10.14,52.56,1.49,62.7,25.97C384.48,286.12,372.85,314.19,348.37,324.34z"/>
	</g>
	<g>
		<polygon points="166.78,454.25 162.09,437.74 158,437.74 153.38,454.25 149.65,437.74 144.8,437.74 150.66,463.6 155.33,463.6 
			160.01,446.88 164.77,463.6 169.49,463.6 175.32,437.74 170.48,437.74 		"/>
		<path d="M191.37,437.09c-2.42,0-4.67,0.61-6.76,1.82c-2.09,1.21-3.74,2.86-4.93,4.93c-1.2,2.07-1.79,4.35-1.79,6.82
			c0,3.69,1.28,6.88,3.85,9.56s5.79,4.03,9.67,4.03c3.71,0,6.86-1.31,9.45-3.92c2.6-2.61,3.9-5.81,3.9-9.58
			c0-3.81-1.32-7.04-3.95-9.69C198.17,438.42,195.03,437.09,191.37,437.09z M197.37,456.96c-1.64,1.69-3.63,2.53-5.96,2.53
			c-2.06,0-3.89-0.65-5.49-1.95c-2.05-1.66-3.08-3.93-3.08-6.79c0-2.57,0.82-4.68,2.45-6.35s3.64-2.5,6.04-2.5
			c2.37,0,4.38,0.85,6.04,2.56c1.65,1.71,2.48,3.79,2.48,6.25C199.83,453.19,199.01,455.27,197.37,456.96z"/>
		<path d="M223.85,449.51c0.81-1.14,1.22-2.56,1.22-4.26c0-1.62-0.37-3.02-1.11-4.2c-0.74-1.18-1.71-2.03-2.92-2.54
			s-3.25-0.76-6.1-0.76h-5.21v25.86h4.92v-10.95h0.45l5.81,10.95h5.38l-6.13-11.5C221.81,451.52,223.04,450.66,223.85,449.51z
			 M219.43,447.23c-0.59,0.41-1.67,0.62-3.23,0.62h-1.54v-5.31H216c1.31,0,2.21,0.09,2.7,0.27c0.49,0.18,0.88,0.48,1.17,0.9
			c0.29,0.42,0.44,0.91,0.44,1.47C220.31,446.14,220.02,446.82,219.43,447.23z"/>
		<polygon points="248.22,437.74 242.31,437.74 235.29,446.66 235.29,437.74 230.31,437.74 230.31,463.6 235.29,463.6 
			235.29,452.11 243.26,463.6 249.09,463.6 239.19,449.28 		"/>
		<polygon points="262.69,463.6 276.81,463.6 276.81,458.77 267.58,458.77 267.58,451.96 276.81,451.96 276.81,447.24 
			267.58,447.24 267.58,442.56 276.81,442.56 276.81,437.74 262.69,437.74 		"/>
		<polygon points="278.85,442.6 283.43,442.6 283.43,463.6 288.43,463.6 288.43,442.6 293.14,442.6 293.14,437.74 278.85,437.74 		
			"/>
		<polygon points="310.12,447.5 301.49,447.5 301.49,437.74 296.49,437.74 296.49,463.6 301.49,463.6 301.49,452.26 310.12,452.26 
			310.12,463.6 315.09,463.6 315.09,437.74 310.12,437.74 		"/>
		<rect x="320.65" y="437.74" width="4.89" height="25.86"/>
		<path d="M347.49,458.72c-1.18,0.53-2.49,0.8-3.92,0.8c-1.67,0-3.2-0.38-4.57-1.14s-2.43-1.81-3.18-3.15
			c-0.75-1.34-1.12-2.87-1.12-4.59c0-2.48,0.85-4.56,2.54-6.25c1.69-1.69,3.77-2.53,6.24-2.53c2.93,0,5.56,1.24,7.9,3.71l3.44-3.28
			c-1.43-1.66-3.13-2.94-5.11-3.84c-1.97-0.9-4.03-1.35-6.16-1.35c-2.51,0-4.85,0.61-7.02,1.83s-3.84,2.83-5.01,4.83
			s-1.75,4.29-1.75,6.87c0,3.98,1.28,7.25,3.84,9.8s5.85,3.82,9.87,3.82c2.18,0,4.12-0.36,5.82-1.08c1.7-0.72,3.5-2.01,5.41-3.88
			l-3.34-3.48C349.98,457.22,348.68,458.19,347.49,458.72z"/>
	</g>
</g>
</svg>
