<?xml version="1.0" encoding="utf-8"?>
<!-- Generator: Adobe Illustrator 24.3.0, SVG Export Plug-In . SVG Version: 6.00 Build 0)  -->
<svg version="1.1" id="Layer_1" xmlns="http://www.w3.org/2000/svg" xmlns:xlink="http://www.w3.org/1999/xlink" x="0px" y="0px"
	 viewBox="0 0 864 864" style="enable-background:new 0 0 864 864;" xml:space="preserve">
<style type="text/css">
	.st0{fill:#FED5AB;}
	.st1{fill:#D94335;}
	.st2{fill:#40303B;}
	.st3{fill:#989ACC;}
	.st4{fill:#43459C;}
	.st5{display:none;}
	.st6{display:inline;}
</style>
<g id="Layer_4">
	<path class="st0" d="M309.4,129l4.8,11.7l2.3,9.7l2.2,19.5l-0.3,27.9l-8.5-2.2l-10.3,5.8l-8.5,13.1l-1,21.4l7.5,22.3l9.2,11.7
		l41.8,39.6l58,47.2l10.3,2.2l9.8-7.9l16.6-23.2l13.4-23l13.2-20l13.4-27.9l13.3-24.3l7-20.9l2.2-19.9l-4.2-15l-10.7-3l-10.5,3.2
		l-14,7.2l-6.7,6.3l-1.1-0.3l-0.4-5.2l-0.6-11.1l-11.9,16.4l-1.8,0.3l-2.5-0.2l-3.6-0.7l-2-0.9l-3.6-2.3l-3-4.2l-1.5-5.1l0.7-6.4
		l2-3l-0.7-0.9l-3.8-0.6c0,0-9.7-6.5-9.7-6.6s-4.8-13-4.8-13l0.2-12.8l5.5-9l-1.5-1.7l-5.8-6.3l-3.1-8.9l-3.3,3.3l-12.1,7.1l-7.3,1
		l-3.8-1.1l-4.6,3.6l-16.3,6.2l-8.7-1.2l-3.7-5.2l-6.1,4.7l-10.1,5.7l-14.5,0.2L309.4,129z"/>
	<path class="st1" d="M324.9,38.3l-12.9,4.2L300,52.2l-6.7,16.6l-5.3,4.9l-8.3,7.9L273.4,99l3.3,7.9l4.1,1.2l1.7,10.8l8.4,7
		l11.3-4.3l5.5-3.2l3.6,10.7c0,0,10.5,3.1,10.8,3.1s12.6-3.5,12.6-3.5l11.7-8.4c0,0,4.8,5.6,5.1,5.6s14.3-1,14.3-1l14.4-8.1l6,1
		l15.6-7.3l6-6.6l1.7,8.3l4.6,8.6l4.5,2.8l-5,7.5l-1.8,8.6l0.6,8.9l3,8.8l6.6,7l8.8,2.4l-2.2,4.1c0,0-0.8,3.8-0.8,3.9
		s0.5,4.2,0.5,4.2l1.6,4.5l3.4,3.4l4.3,2.4l5,0.9l2.3,0l1.4-0.3l0.7-0.4c0,0,12.3-4.2,10.9-12.9l0.9,14.2l9.5-7.4l9.4-6.1l6.8-2.6
		l8-1.1l6.5,1.7l4.5,3.9l2.8,8.7l-0.9,9.1l-0.2,10.6l-3.3,11.9l-40.2,79.7l-1.3,1.8l6.9,3.6l26.6,15.4l11.6,8.3c0,0,5.1,1.5,6.5-2
		l1-0.2l0.5-0.4l0.9-1.5l0.9-3.1l0.4-3.7l0.1-6.3l-1.2-6.6l-2.4-5.2l-7.1-8.8l-5.3-4.3l6.9-1.5l17.7-6.6l10.3-10.4l2.1-11.8
		l-2.3-15.6l-10-15.6l-2.5-2.9l9.1-2.6l6.7-8.4l0.8-12.2l-5.9-15.8l-4.8-9.8v-12.2l-5-11.3l-15.1-15.4l-14.1-8.5l10.1-13.9L499.9,98
		l-12-11.3l-9.2-3.8l0.9-13.3l-5.7-17.5L462,41.4l-14.5-2.7l-14.1,3.8l-10.3-5.2l-13.5,1l-9.8,6.2l-9.3,7.5l-4.5-6.8l-7.9-7.6
		l-14.8-0.6l-10.2,4.5l-14,8.4l-2.5,3l-1.7-8.6L324.9,38.3z"/>
	<path class="st2" d="M357.8,260.1l10.8,4.2l12.4,12.9l3,8.1l10.1-7.9c0,0,6-7.5,6.2-7.7s4.7-14.7,4.7-14.7l-1.1-9.8l-5.1-0.7
		l-11.4,3l-15.3,8.3L357.8,260.1z"/>
	<polygon class="st3" points="286.5,497 304.4,500.1 328.7,500 326.1,522.1 307.4,521.6 279.8,522 277.7,515 	"/>
	<polygon class="st3" points="509.3,500.7 551.9,491.2 579.8,482.3 586.8,493.1 589.5,513.3 585.7,518 510.2,532.5 502.3,529.8 
		500.1,517.9 503.3,504.4 504.3,501.9 	"/>
	<path class="st4" d="M357.3,315.2l-9,14.4L331.5,349l-26.1,42.2l-7.1,22.3l-5,69.2l-0.7,15.5l27.1,1.6l9.7,0.1l-5,64.7l2.2,8.4
		l16.1,7.2l43.9,5.2h35.5l48.2-2.5l26.9-4.5l18.2-5.1l3.4-11.6l0.9-11c0,0,0.7-10,0.7-10.2c0-0.2-0.7-7.8-0.7-7.8l-11.9,0.6
		l-7.6-5.8v-7.2l1.2-11.1l2.7-7.4l8-1.6c0,0,18.8-5.6,19.2-5.5c0.4,0.1,27.1-6.1,27.1-6.1l12.7-4.2l-0.6-16.8l-3.5-23.8l-4.8-24.7
		l-6.6-27.2l-10.4-22l-19.6-22.2l-22-18.5L480,312.7l-20.1-10.5L445.6,326l-26.1,32.3l-7.8,1L357.3,315.2z"/>
	<path class="st3" d="M356.4,316.2l2.6,19l7.9,24.5l11.5,15l10.5,3.7l10.8-3l6-9.3l2-8.3l2.1,10.8c0,0,5.5,8.9,5.9,8.9
		c0.3,0.1,10.1,4.7,10.1,4.7l9.5,0.7l9.1-0.7l10.3-9.4l6.4-12.7l3.3-10.3l5.1-21.4l3.8-19.6l-13.2-8.5l-12.5,22.1l-14,21.4l-11.9,14
		l-11.6,1.6l-9.6-5.6l-16.1-14.6L356.4,316.2z"/>
	<path class="st3" d="M328.2,575.9l38.2,9.4c0,0,53.2,1.5,53.6,1.5s67.9-5.6,67.9-5.6l14.2-3.8l12.9-3.9l-1.3,13.7l2.4,15.5L521,615
		l6.8,9.3l5.8,3.8l4.5,1.5l-0.9,9.1l-3.1,56.2l0.2,37.2l0.3,41l-13.4,3.6l-25.8,0.7l-27.1-3.5l-5.5-1.5l-7.1-113.9l-19-1.2l-14.5-5
		l-3.9,26.6l-8.1,43.9l-7.8,45.2l-22.6,6.3l-36-7.7l4.2-64.2l1.1-45.2l-2.9-26.4l-7-31.3L328.2,575.9z"/>
	<polygon class="st0" points="294.9,523.7 292.8,540.8 288.5,566.5 289.4,579.8 301.2,591.3 319.6,596.5 336.2,594.1 334.9,589.2 
		326.8,573.9 323.2,565.6 325.4,522.9 325.4,521.7 302.8,523.1 	"/>
	<polygon class="st0" points="521.4,532.7 550.4,527.1 572.6,521.5 574.5,530.9 567.7,560.7 576.6,557.6 583.8,561.3 584.1,573.6 
		577.9,579.2 574.1,581.8 579.8,585.7 580.8,593.7 575.3,603.7 562.1,608.2 568.6,614 564.2,626.5 547.7,630 530.8,625.3 
		519.3,608.9 515,579.8 519.7,560.5 520.4,542.1 519.6,532.5 	"/>
	<path class="st0" d="M355.4,771.7l-1.6,6.2l-6.4,15.1l-11.8,14.3l12.8,3l24.5,1l19.8-6.1l0.7-32.3c0,0-24.4,0.7-24.8,0.6
		C368.3,773.5,355.4,771.7,355.4,771.7z"/>
	<polygon class="st0" points="485.5,777.9 481.3,791.5 473.4,804.8 490.7,807.4 515.1,809 530.7,806.1 524.9,777.1 	"/>
	<polygon class="st1" points="335.3,806 344.7,810.3 371.4,811.8 394.3,804.6 398.9,836.2 358,843.9 308.9,837.8 295.3,831.5 
		306.5,827.6 331.3,812.6 	"/>
	<path class="st1" d="M473.9,804.1l11.1,3.4l27.9,2.2l19-4.1l5.7,31.7l-3.7,3.1l-40,3.3l-30.7-0.7l-35.9-6.6l10.8-4.6
		c0,0,25.3-13.8,25.6-13.9C464,817.7,473.9,804.1,473.9,804.1z"/>
</g>
<g id="Live_Outlines" class="st5">
	<g class="st6">
		<path d="M521,329.2c0.5,0.1,1,0,1.4-0.3c0.4-0.3,0.7-0.7,1-1.1c0.5-0.9,0.8-1.8,1-2.8c0.4-2,0.6-3.9,0.6-5.9c0-2,0-4-0.2-6
			c-0.2-2-0.7-3.9-1.4-5.7c-1.4-3.7-3.6-7-6.2-10c-2.6-2.9-5.6-5.6-8.9-7.7c-0.4-0.3-0.5-0.8-0.3-1.2c0.1-0.2,0.3-0.3,0.6-0.4h0
			l5.6-1.3c1.8-0.5,3.7-0.9,5.5-1.5c3.7-1,7.2-2.4,10.6-4c3.4-1.6,6.5-3.7,8.8-6.4c2.4-2.7,3.8-6,4.5-9.6c0.7-3.5,0.9-7.4,0.6-10.9
			c-0.4-3.6-1.5-7.1-3-10.5c-1.5-3.4-3.3-6.6-5.4-9.7c-2.1-3.1-4.4-6.1-6.9-8.7c-0.8-0.8-0.8-2.1,0.1-2.9c0.5-0.4,1.1-0.6,1.7-0.5
			c2,0.3,4.3-0.1,6.3-1c2-0.9,3.9-2.3,5.3-4.1c1.5-1.7,2.5-3.8,3.1-6c0.6-2.2,0.7-4.5,0.5-6.9c-0.5-4.8-2-9.6-3.9-14.1
			c-2-4.6-4.3-9.1-7-13.2c-0.3-0.5-0.4-1.2-0.2-1.8l0,0c0-0.1,0.1-0.5,0.2-0.7c0.1-0.3,0.1-0.6,0.2-0.8c0.1-0.6,0.2-1.2,0.2-1.8
			c0.1-0.6,0-1.2,0.1-1.8c0-0.6,0-1.2-0.1-1.8c-0.2-2.4-0.8-4.8-1.6-7.1c-0.9-2.3-2-4.5-3.4-6.6c-0.7-1-1.4-2-2.2-3
			c-0.8-1-1.6-2-2.5-2.9c-3.4-3.7-7.3-7.1-11.4-10.1c-4.1-3-8.5-5.8-13-8.1c-1-0.5-1.4-1.7-0.9-2.7c0.2-0.3,0.4-0.6,0.8-0.8
			c0.8-0.5,1.8-1.2,2.6-1.9c0.9-0.7,1.7-1.5,2.4-2.3c1.5-1.7,2.7-3.5,3.4-5.5c1.5-4,0.9-8.4-1.4-12.3c-2.2-4-5.1-7.6-8.7-10.4
			c-1.8-1.4-3.7-2.7-5.7-3.8c-1-0.5-2-1.1-3.1-1.5c-1-0.4-2.2-0.9-3.1-1.2c-1.1-0.3-1.7-1.4-1.4-2.5v0c0.4-1.3,0.7-2.9,0.9-4.5
			c0.1-0.8,0.2-1.6,0.2-2.3c0-0.8,0.1-1.6,0.1-2.3c0-3.1-0.3-6.2-1.1-9.2c-0.3-1.5-0.9-2.9-1.4-4.4l-1-2.1c-0.2-0.3-0.3-0.7-0.5-1
			l-0.6-1c-0.4-0.7-0.8-1.3-1.2-2l-1.4-1.8c-0.2-0.3-0.5-0.6-0.7-0.9l-0.8-0.8l-1.6-1.7c-2.2-2.1-4.8-3.9-7.6-5.2
			c-1.4-0.6-2.8-1.2-4.3-1.5c-1.5-0.4-3-0.6-4.5-0.8c-3-0.2-6.2,0-9.2,0.7c-1.5,0.3-3,0.8-4.5,1.3c-1.4,0.5-3,1.2-4.2,1.8l0,0
			c-0.9,0.5-1.9,0.3-2.5-0.4c-0.2-0.2-0.6-0.6-0.9-0.9c-0.4-0.3-0.7-0.6-1.1-0.9c-0.7-0.6-1.5-1.1-2.3-1.5c-1.6-0.9-3.4-1.5-5.2-1.9
			c-1.8-0.4-3.7-0.4-5.5-0.2c-0.9,0-1.8,0.3-2.7,0.5l-1.4,0.4c-0.5,0.1-0.9,0.3-1.3,0.5c-3.6,1.5-7,3.6-10.2,6
			c-3.2,2.4-6.3,5.1-9.1,7.9c-0.8,0.8-2.1,0.8-2.9,0c-0.3-0.3-0.5-0.7-0.6-1.1l0,0c-0.1-0.4-0.2-1.1-0.4-1.6
			c-0.2-0.6-0.4-1.2-0.6-1.7c-0.5-1.1-1.1-2.2-1.8-3.2c-1.4-1.9-3.3-3.5-5.5-4.7c-4.3-2.3-9.7-2.8-14.7-2.2
			c-5.1,0.6-10,2.6-14.5,5.2c-2.3,1.3-4.5,2.8-6.5,4.4c-2.1,1.6-4.1,3.4-5.9,5.2l0,0c-0.8,0.8-2,0.8-2.8,0.1
			c-0.5-0.5-0.7-1.1-0.6-1.7c0.4-3.4-1-7.2-3.6-9.5c-1.3-1.2-2.9-2-4.6-2.4c-1.7-0.4-3.5-0.4-5.4-0.1l0.2-0.1l-2.5,0.9
			c-0.8,0.3-1.7,0.6-2.4,1c-1.5,0.8-3.1,1.5-4.6,2.5c-3,1.8-5.6,4.2-7.9,6.8c-2.3,2.6-4.2,5.6-5.7,8.7c-0.4,0.8-0.7,1.6-1,2.4
			c-0.3,0.8-0.6,1.6-0.9,2.5c-0.2,0.8-0.5,1.7-0.7,2.5c-0.2,0.8-0.4,1.7-0.5,2.4v0c-0.1,0.6-0.5,1.2-1,1.5c-1.6,1-3.2,2.2-4.8,3.4
			c-1.5,1.2-3,2.6-4.4,4c-2.8,2.8-5.2,5.9-6.9,9.4c-0.4,0.9-0.8,1.7-1.1,2.6l-0.4,1.3l-0.2,0.7c0,0.2-0.1,0.5-0.1,0.7
			c-0.1,0.9-0.3,1.8-0.4,2.8l-0.1,1.4l0,1.4c0.1,1.8,0.5,3.7,1.3,4.7c0.4,0.5,0.8,0.8,1.4,0.9c0.1,0,0.3,0.1,0.5,0.1
			c0.2,0,0.3,0,0.5,0c0.2,0,0.4-0.1,0.5-0.1c0.1,0,0.4-0.1,0.4-0.1c1-0.4,2.2,0.1,2.6,1.1c0.1,0.3,0.1,0.5,0.1,0.8v0.1
			c-0.1,3.3,0.2,6.8,1.2,9.9c0.5,1.5,1.2,2.9,2.1,4c1,1.1,2.1,1.7,3.5,1.9c1.4,0.2,3,0.2,4.5-0.2c1.6-0.4,3.1-0.9,4.6-1.7
			c3-1.5,6-3.4,8.5-5.6c0.9-0.7,2.1-0.6,2.8,0.2c0.5,0.5,0.6,1.3,0.4,1.9c-0.1,0.3-0.2,0.9-0.3,1.3c-0.1,0.5-0.1,1-0.2,1.5
			c0,1,0,1.9,0.2,2.8c0.4,1.8,1.3,3.3,2.8,4.3c1.5,1,3.4,1.6,5.5,1.9c1,0.1,2.1,0.2,3.1,0.2c1.1-0.1,2.1,0,3.2-0.1
			c4.2-0.4,8.3-1.7,12-3.9c1.8-1.1,3.5-2.4,5.1-3.8c0.8-0.7,1.5-1.5,2.2-2.3c0.7-0.8,1.4-1.7,1.9-2.4c0.6-0.9,1.9-1.2,2.8-0.6
			c0.7,0.4,1,1.2,0.9,1.9l0,0.1c0,0.2-0.1,0.6,0,1c0,0.3,0,0.7,0.1,1c0.1,0.7,0.3,1.3,0.5,1.8c0.5,1.1,1.5,1.8,2.7,2.2l1,0.2
			c0.4,0,0.7,0,1.1,0.1l0.5,0l0.6-0.1l1.2-0.1c0.8-0.1,1.6-0.3,2.4-0.4c0.8-0.2,1.6-0.4,2.5-0.6c3.3-0.9,6.4-2,9.4-3.5
			c1.5-0.7,3-1.5,4.4-2.4c0.7-0.4,1.4-0.9,2-1.4c0.6-0.5,1.3-1,1.8-1.5l3.2,0.5l0-0.1c0,0,0,0,0,0s0,0,0,0.1c0,0,0.1,0.1,0.1,0.1
			c0.1,0.1,0.3,0.2,0.5,0.3c0.4,0.2,0.8,0.3,1.3,0.3c1,0.1,2.2-0.1,3.4-0.3c0.6-0.1,1.2-0.3,1.8-0.5c0.6-0.2,1.2-0.4,1.8-0.7
			c1.1-0.5,2.3-1.1,3.4-1.7c2.2-1.3,4.2-2.9,6.1-4.7c1.9-1.7,3.8-3.7,5.3-5.6l0,0c0.7-0.9,2-1,2.9-0.3c0.5,0.4,0.8,1.1,0.7,1.8
			c-0.1,0.8-0.1,1.8,0,2.8c0,0.9,0.1,1.9,0.3,2.8c0.3,1.9,0.9,3.7,1.7,5.4c0.8,1.7,2,3.2,3.2,4.6c0.6,0.7,1.4,1.2,2.1,1.7
			c0.4,0.2,0.8,0.4,1.1,0.6c0.2,0.1,0.4,0.2,0.6,0.2c0.2,0.1,0.4,0.1,0.5,0.1l0.2,0c0.9,0.2,1.4,1.1,1.2,2c-0.1,0.5-0.4,0.8-0.8,1
			c-0.1,0.1-0.4,0.2-0.5,0.4c-0.2,0.1-0.4,0.3-0.6,0.4c-0.4,0.3-0.8,0.7-1.1,1.1c-0.8,0.7-1.4,1.6-2,2.5c-1.2,1.8-2,3.9-2.4,6
			c-1,4.3-0.8,8.9,0,13.4c0.3,1.1,0.4,2.2,0.8,3.3l0.5,1.6c0.2,0.5,0.5,1,0.7,1.5c0.9,2.1,2.2,3.9,3.8,5.5c3.1,3.2,7.5,5.1,11.9,5.3
			h0c0.4,0,0.7,0.4,0.7,0.8c0,0.2-0.1,0.4-0.3,0.5c-1,0.9-2,2.1-2.5,3.5c-0.6,1.4-0.9,2.8-0.9,4.3c-0.1,1.5,0.2,3,0.6,4.5
			c0.4,1.5,0.9,2.9,1.8,4.2c1.6,2.6,4.3,4.4,7.2,5.4c1.5,0.5,3,0.8,4.5,0.9c0.8,0.1,1.5,0.1,2.3,0c0.8-0.1,1.6-0.2,2.2-0.7
			c-0.6,0.5-1.4,0.7-2.2,0.8c-0.8,0.1-1.6,0.1-2.3,0.1c-1.6-0.1-3.1-0.3-4.6-0.8c-3-0.9-5.9-2.7-7.7-5.3c-1-1.3-1.6-2.8-2-4.3
			c-0.4-1.5-0.8-3.1-0.8-4.7c0-3.2,1.1-6.6,3.7-8.9l0.4,1.3c-1.3,0-2.5-0.1-3.6-0.4c-0.6-0.1-1.2-0.3-1.8-0.4
			c-0.6-0.2-1.1-0.4-1.7-0.6c-2.3-0.9-4.4-2.2-6.1-3.9c-1.8-1.7-3.3-3.7-4.4-5.9c-0.3-0.6-0.6-1.1-0.8-1.6l-0.6-1.7
			c-0.5-1.1-0.7-2.3-1-3.5c-1-4.7-1.5-9.6-0.5-14.4c0.5-2.4,1.3-4.8,2.6-7c0.7-1.1,1.4-2.1,2.3-3.1c0.4-0.5,0.9-0.9,1.4-1.4
			c0.2-0.2,0.5-0.4,0.8-0.6c0.3-0.2,0.5-0.4,0.9-0.6l0.5,3.1c-0.5-0.1-0.7-0.1-1-0.2c-0.3-0.1-0.6-0.2-0.9-0.3
			c-0.6-0.2-1.1-0.5-1.6-0.8c-1-0.6-1.9-1.3-2.8-2.1c-1.6-1.6-3-3.3-4.1-5.4c-1-2-1.8-4.2-2.2-6.3c-0.2-1.1-0.4-2.2-0.5-3.3
			c-0.1-1.1-0.1-2.2,0-3.4l3.6,1.4c-1.8,2.3-3.7,4.3-5.8,6.2c-2.1,1.9-4.4,3.6-6.8,5.1c-1.2,0.8-2.5,1.4-3.9,2
			c-0.7,0.3-1.4,0.5-2,0.8c-0.7,0.2-1.4,0.5-2.1,0.6c-1.5,0.4-3,0.6-4.7,0.4c-0.8-0.1-1.7-0.3-2.6-0.6c-0.4-0.2-0.9-0.4-1.3-0.8
			c-0.2-0.2-0.4-0.3-0.6-0.5c-0.1-0.1-0.2-0.2-0.3-0.3c0-0.1-0.1-0.1-0.1-0.2c0-0.1-0.1-0.1-0.2-0.3l3.2,0.5
			c-0.8,0.8-1.5,1.3-2.2,1.9c-0.8,0.6-1.5,1.1-2.3,1.6c-1.5,1-3.1,1.8-4.8,2.6c-3.3,1.6-6.7,2.8-10.1,3.7c-3.4,0.9-7.2,1.9-11.4,0.8
			c-0.5-0.1-1-0.4-1.5-0.6s-1-0.6-1.5-0.9c-0.5-0.3-0.8-0.8-1.2-1.2c-0.3-0.5-0.7-0.9-0.9-1.4c-0.5-1-0.8-2.1-1-3.1
			c0-0.5-0.1-1-0.1-1.6c0-0.5,0-1,0.1-1.6l3.7,1.4c-0.7,1.2-1.4,2-2.2,3c-0.8,0.9-1.6,1.8-2.5,2.6c-1.8,1.6-3.7,3.1-5.7,4.4
			c-4.1,2.5-8.9,4-13.6,4.5c-1.2,0.1-2.4,0.1-3.6,0.1c-1.2,0-2.4-0.1-3.6-0.3c-2.4-0.4-5-1.1-7.2-2.6c-1.1-0.8-2.1-1.8-2.9-3
			c-0.8-1.2-1.3-2.5-1.5-3.8c-0.3-1.3-0.3-2.6-0.3-3.9c0-0.6,0.1-1.3,0.2-1.9c0.1-0.7,0.2-1.2,0.5-1.9l3.2,2.2c-3,2.5-6,4.5-9.5,6.2
			c-1.7,0.9-3.5,1.5-5.5,2c-1.9,0.5-4,0.7-6.2,0.3c-2.1-0.3-4.3-1.5-5.8-3.2c-1.5-1.6-2.4-3.5-3-5.4c-0.6-1.9-1-3.8-1.2-5.7
			c-0.2-1.9-0.3-3.7-0.2-5.7l2.7,2c-0.5,0.2-0.7,0.2-1.1,0.3c-0.3,0.1-0.7,0.1-1,0.2c-0.3,0-0.7,0.1-1,0c-0.4,0-0.7-0.1-1.1-0.1
			c-1.5-0.3-2.8-1.1-3.7-2.3c-0.4-0.6-0.8-1.2-1-1.7c-0.1-0.3-0.3-0.6-0.4-0.9l-0.2-0.9c-0.1-0.3-0.2-0.6-0.2-0.9l-0.1-0.9
			c-0.1-0.6-0.2-1.2-0.2-1.7l0-1.7l0.1-1.6c0-1.1,0.2-2.2,0.4-3.3c0-0.3,0.1-0.6,0.1-0.8l0.2-0.8l0.5-1.6c0.4-1.1,0.8-2.1,1.3-3.1
			c2-4,4.7-7.4,7.7-10.4c1.5-1.5,3.1-2.9,4.8-4.3c1.7-1.3,3.3-2.6,5.2-3.8l-1,1.5c0.1-1.1,0.3-2,0.6-2.9c0.2-0.9,0.5-1.9,0.8-2.8
			c0.3-0.9,0.6-1.8,1-2.7c0.4-0.9,0.7-1.8,1.1-2.6c1.6-3.5,3.7-6.8,6.3-9.6c2.5-2.9,5.4-5.5,8.7-7.5c1.6-1.1,3.3-1.9,5-2.8
			c0.8-0.5,1.8-0.7,2.6-1.1l2.7-1c0.1,0,0.1,0,0.2,0l0,0c2.3-0.4,4.7-0.4,7,0.1c2.3,0.5,4.6,1.7,6.3,3.3c1.8,1.6,3.1,3.7,4,5.9
			s1.2,4.7,0.9,7.1l-3.5-1.6c2-2.1,4.1-3.9,6.3-5.7c2.2-1.7,4.6-3.3,7-4.7c4.9-2.8,10.3-5,16-5.7l2.2-0.2l2.2,0
			c1.5-0.1,2.9,0.2,4.3,0.3c2.9,0.5,5.8,1.2,8.4,2.6c2.6,1.4,5,3.4,6.8,5.8c0.9,1.2,1.7,2.5,2.2,3.9c0.3,0.7,0.6,1.4,0.8,2.1
			c0.2,0.8,0.4,1.4,0.5,2.3l-3.4-1.2c3-3,6.2-5.7,9.6-8.3c3.4-2.5,7-4.8,11-6.5c0.5-0.2,1-0.4,1.5-0.6c0.5-0.2,1-0.4,1.6-0.5
			c1.1-0.2,2.2-0.5,3.3-0.6c2.2-0.3,4.5-0.2,6.8,0.3c2.2,0.4,4.4,1.2,6.4,2.3c1,0.5,1.9,1.2,2.8,1.8c0.9,0.7,1.7,1.4,2.6,2.3
			l-2.5-0.4c1.7-0.9,3.2-1.5,4.8-2.1c1.6-0.6,3.3-1.1,5-1.4c3.4-0.7,6.9-1,10.4-0.7c1.8,0.2,3.5,0.5,5.2,0.9c1.7,0.4,3.4,1.1,5,1.8
			c3.2,1.5,6.1,3.5,8.6,5.9l1.8,1.9l0.9,0.9c0.3,0.3,0.5,0.7,0.8,1l1.6,2.1c0.5,0.7,0.9,1.5,1.4,2.2l0.7,1.1
			c0.2,0.4,0.4,0.8,0.6,1.2c0.4,0.8,0.8,1.6,1.1,2.4c0.6,1.6,1.2,3.3,1.6,5c0.8,3.4,1.2,6.8,1.2,10.3c0,0.9-0.1,1.7-0.1,2.6
			c-0.1,0.9-0.1,1.7-0.3,2.6c-0.1,0.8-0.2,1.7-0.4,2.6c-0.2,0.9-0.4,1.7-0.6,2.6l-1.4-2.5c1.4,0.4,2.5,0.8,3.7,1.3
			c1.2,0.5,2.3,1.1,3.4,1.7c2.2,1.2,4.3,2.6,6.3,4.2c4,3.2,7.3,7.2,9.7,11.7c1.3,2.2,2.2,4.8,2.6,7.5c0.4,2.7,0,5.5-1,8.1
			c-1,2.6-2.4,4.8-4.2,6.8c-0.9,1-1.8,1.9-2.8,2.7c-1,0.8-2,1.6-3.2,2.3l-0.1-3.5c2.5,1.2,4.7,2.6,7,4c2.3,1.4,4.5,2.9,6.6,4.5
			c4.3,3.1,8.4,6.7,12,10.6c0.9,1,1.8,2,2.7,3.1c0.8,1.1,1.7,2.2,2.4,3.3c1.5,2.3,2.8,4.8,3.8,7.4c1,2.6,1.6,5.4,1.9,8.2
			c0.1,0.7,0.1,1.4,0.1,2.1c0,0.7,0,1.4-0.1,2.1c0,0.7-0.2,1.4-0.3,2.1c-0.1,0.4-0.1,0.7-0.2,1.1c-0.1,0.4-0.2,0.7-0.3,1.2l-0.2-1.8
			c2.9,4.5,5.3,9,7.4,13.9c2,4.8,3.7,9.9,4.2,15.4c0.2,2.7,0.1,5.6-0.7,8.3c-0.7,2.7-2.1,5.3-3.9,7.5s-4.1,4-6.8,5.1
			c-2.6,1.2-5.6,1.8-8.6,1.3l1.8-3.4c2.8,2.9,5.2,6,7.5,9.3c2.2,3.3,4.2,6.7,5.8,10.4c1.5,3.7,2.7,7.6,3,11.7c0.1,0.5,0.1,1,0.1,1.5
			l0,1.5c0,1-0.1,2-0.2,3c0,0.5-0.1,1-0.1,1.5l-0.2,1.5c-0.1,0.5-0.1,1-0.2,1.5l-0.3,1.5c-0.9,3.9-2.8,7.8-5.6,10.8
			c-2.8,3-6.4,5.1-10,6.7c-0.9,0.5-1.8,0.7-2.7,1.1l-1.4,0.5l-1.4,0.5c-0.9,0.3-1.9,0.6-2.8,0.9l-2.8,0.8c-1.9,0.5-3.8,0.9-5.7,1.3
			l-5.7,1.1l0.3-1.6c1.7,1.2,3.3,2.5,4.8,3.9c1.5,1.4,2.9,2.9,4.2,4.4c2.6,3.1,4.8,6.7,6,10.6c0.6,1.9,1.1,3.9,1.2,6
			c0.2,2,0.1,4,0,6c-0.1,2-0.3,4-0.8,6c-0.2,1-0.6,1.9-1.1,2.8c-0.2,0.4-0.6,0.8-1,1.1C522,329.2,521.5,329.4,521,329.2z"/>
	</g>
	<g class="st6">
		<path d="M459.5,162c0.2,1.6,1,2.8,1.9,3.4c0.3,0.8,1.1,1.6,2,2.2c0.5,0.3,1,0.6,1.6,0.8c0.6,0.2,1.2,0.4,1.8,0.6
			c0.6,0.2,1.3,0.4,1.9,0.5c0.6,0.1,1.2,0.2,1.8,0.2c2.3,0.1,4.1-0.9,5.1-2.9c0.5-1,0.9-2.2,1.1-3.4c0.8-1.1,1.5-2.4,2.3-3.9
			c0.9,1.4,1.3,2.9,1.7,4.6c-0.3,1.5-0.7,3.1-1.5,4.6c-0.8,1.5-2,2.9-3.6,3.9c-1.6,0.9-3.5,1.2-5.1,1.2c-0.8,0-1.7-0.1-2.4-0.3
			c-0.8-0.2-1.5-0.4-2.2-0.6c-0.7-0.2-1.5-0.5-2.2-0.8c-0.7-0.4-1.5-0.7-2.2-1.1c-1.4-0.9-2.8-2.2-3.6-4
			C457.5,164.9,458.2,163,459.5,162z"/>
	</g>
	<g class="st6">
		<path d="M467,174.9l1.7,19.3l-1.1-0.4c3.7-3.7,7.7-7,12-10c4.3-2.9,9-5.6,14.1-7.2c2.6-0.8,5.3-1.3,8.1-1.3c1.4,0,2.8,0.2,4.2,0.4
			c0.7,0.2,1.4,0.3,2.1,0.6l1.1,0.4l0.5,0.2l0.5,0.3c2.7,1.6,4.5,4.3,5.4,7c1,2.7,1.3,5.5,1.5,8.2c0.2,5.4-0.3,10.7-1.1,15.9
			c-0.8,5.2-2.1,10.3-3.7,15.3c-1.6,5-3.5,9.9-5.8,14.6c-1.1,2.4-2.4,4.7-3.5,7l-3.6,6.9c-9.7,18.3-19.5,36.4-29.9,54.4
			c-5.2,9-10.4,17.9-16,26.6c-2.8,4.4-5.6,8.7-8.6,13c-3,4.3-6.1,8.5-9.8,12.4c-1,1-2,1.9-3.2,2.8c-0.6,0.4-1.3,0.9-2.1,1.2
			c-1,0.4-1.6,0.4-2.3,0.6c-1.4,0.2-2.8,0.4-4.3,0.3c-1.5-0.1-3-0.4-4.3-0.9c-2.7-1-5.1-2.5-7.2-4c-2.1-1.6-4.2-3.2-6.2-5
			c-2-1.7-3.9-3.5-5.8-5.3l-2.8-2.6c-0.9-0.9-1.9-1.7-2.9-2.5l-2.9-2.5l-3-2.5c-2-1.7-4-3.3-6-4.9c-16-13.1-32.1-26-47.5-40
			c-7.6-7-15.1-14.2-21.8-22.4c-6.7-8.1-11.8-17.9-14.1-28.3c-1.2-5.2-1.7-10.6-1.5-15.9c0.1-5.4,1.4-10.9,3.9-15.8
			c1.2-2.4,2.8-4.7,4.6-6.8c1.8-2,3.9-4,6.4-5.4c1.3-0.7,2.6-1.3,4.1-1.6c0.7-0.2,1.5-0.3,2.2-0.4c0.4,0,0.8,0,1.1,0
			c0.4,0,0.8,0,1.1,0c3,0.2,5.8,1.4,8.1,2.9l-2.7,1.4c0.5-5.1,0.8-10.4,0.9-15.6c0.1-5.2,0.2-10.4,0-15.6
			c-0.2-5.2-0.6-10.4-1.3-15.6s-1.8-10.3-3.6-15.2c2.1,4.8,3.5,9.9,4.6,15.1c1.1,5.2,1.7,10.4,2.2,15.6c0.5,5.2,0.8,10.5,0.9,15.8
			c0.1,5.3,0.1,10.5-0.1,15.8c0,0.9-0.8,1.7-1.8,1.6c-0.3,0-0.5-0.1-0.8-0.2l-0.1-0.1c-2.1-1.2-4.3-1.9-6.5-2
			c-0.5-0.1-1.1,0.1-1.6,0.1c-0.5,0.1-1.1,0.1-1.6,0.3c-1.1,0.3-2.1,0.7-3.1,1.3c-2,1.1-3.8,2.7-5.4,4.5c-1.6,1.8-3,3.8-4,6
			c-2.2,4.3-3.4,9.1-3.5,14.1c-0.1,5,0.3,10,1.4,14.9c1.1,4.9,2.8,9.6,5.1,14.1c2.3,4.5,5,8.7,8.2,12.6c6.4,7.9,13.8,15,21.3,22
			c15.2,13.9,31.3,26.7,47.3,39.8c2,1.6,4,3.3,6,5l3,2.5l3,2.6c1,0.8,2,1.7,2.9,2.6l2.9,2.6c1.9,1.8,3.7,3.5,5.6,5.2
			c1.9,1.7,3.9,3.3,5.9,4.7c2,1.4,4.1,2.8,6.2,3.5c1.1,0.4,2.1,0.6,3.2,0.7c1.1,0,2.2-0.1,3.4-0.3c0.6-0.1,1.3-0.3,1.5-0.4
			c0.4-0.2,0.8-0.4,1.2-0.8c0.9-0.6,1.8-1.5,2.6-2.3c3.4-3.6,6.5-7.7,9.4-11.9c2.9-4.2,5.7-8.5,8.5-12.8
			c5.5-8.7,10.7-17.6,15.9-26.5c10.3-17.9,20.1-36,29.8-54.2l3.6-6.9c1.2-2.3,2.4-4.5,3.5-6.8c2.2-4.6,4.1-9.3,5.6-14.1
			c1.5-4.8,2.7-9.8,3.5-14.8c0.8-5,1.3-10.1,1-15c-0.2-2.4-0.6-4.9-1.3-7c-0.7-2.2-1.9-4.1-3.6-5.2l-0.3-0.2l-0.4-0.2l-0.7-0.4
			c-0.5-0.2-1.1-0.4-1.6-0.6c-1.1-0.3-2.3-0.5-3.5-0.6c-2.4-0.1-4.8,0.2-7.2,0.7c-4.8,1.2-9.4,3.5-13.8,6.1
			c-4.3,2.7-8.5,5.8-12.2,9.2l0,0c-0.2,0.2-0.6,0.2-0.9,0c-0.1-0.1-0.1-0.2-0.2-0.4L467,174.9z"/>
	</g>
	<g class="st6">
		<path d="M372.5,172.4c-1.5,8.2-3.4,16.4-5.7,24.4c-0.6,2-1.2,4-1.8,6c-0.6,2-1.6,3.9-2.4,5.9l-1.3,2.9c-0.5,1-1,1.9-1.5,2.9
			c-0.5,1-1.1,1.9-1.7,2.8c-0.3,0.5-0.6,0.9-1,1.4l-1.1,1.4l-0.1-2.8c0.5,0.5,1.3,1.1,2,1.6c0.7,0.5,1.4,1,2.2,1.5
			c1.5,0.9,3.1,1.7,4.7,2.2c1.6,0.6,3.3,1,5,1.2c1.7,0.2,3.4,0.1,5-0.1l0.1,0c1.1-0.1,2.1,0.7,2.2,1.8c0,0.3,0,0.7-0.1,0.9
			c-2.8,7.1-5.8,14.1-9.1,20.9c-1.7,3.4-3.4,6.8-5.5,10.1c-1.1,1.6-2.1,3.3-3.8,4.9c-0.2,0.2-0.4,0.4-0.7,0.6l-0.4,0.3l-0.2,0.2
			c-0.1,0.1-0.2,0.2-0.3,0.3c-0.1,0,0,0.1,0.1-0.2c0-0.1,0.1-0.5,0-0.9c0-0.2-0.1-0.3-0.2-0.4c0,0-0.1-0.1-0.1-0.1c0,0,0,0-0.1-0.1
			c-0.2-0.2-0.2-0.1-0.1-0.1c0.2,0.1,0.6,0.1,1,0.1c1.6,0.1,3.4-0.1,5.2-0.4c1.8-0.3,3.6-0.6,5.4-1.1c3.6-0.9,7.1-2,10.5-3.4
			c1.7-0.7,3.4-1.5,5-2.3c0.8-0.4,1.6-0.9,2.4-1.3l2.4-1.4c3.3-2,6.8-3.7,10.5-5.1c3.7-1.3,7.6-2.4,12-2c1.1,0.2,2.2,0.4,3.4,1.1
			c0.3,0.2,0.6,0.3,0.9,0.7c0.2,0.2,0.3,0.3,0.5,0.5c0.2,0.2,0.4,0.6,0.4,0.7c0.3,0.8,0.4,1.2,0.5,1.8c0.4,2.1,0.4,4.1,0.3,6.1
			c-0.5,7.9-3.2,15.7-8.2,22c-1.2,1.6-2.6,3-4,4.4c-0.8,0.7-1.5,1.3-2.3,1.9c-0.8,0.6-1.6,1.2-2.4,1.8c-3.2,2.3-7.6,3.3-9.1,5.3
			c-0.1,0.2-0.1,0.3-0.1,0.4c0,0.1,0.1,0.4,0.3,0.6c0.4,0.5,1.2,1,1.9,1.4c1.5,0.9,3.3,1.6,5,2.2c3.5,1.3,7.1,2.4,10.7,3.6
			c-3.7-0.6-7.5-1.2-11.2-2.1c-1.9-0.4-3.7-0.9-5.6-1.7c-0.9-0.4-1.9-0.8-2.8-1.6c-0.4-0.4-0.9-1-1.1-1.8c-0.2-0.8-0.1-1.7,0.2-2.4
			c0.6-1.3,1.5-2,2.3-2.7c0.8-0.6,1.7-1.2,2.5-1.7l2.4-1.4c0.7-0.5,1.5-1,2.2-1.5c3-1.9,5.6-4.4,7.8-7.2c4.4-5.6,6.9-12.7,7.3-19.8
			c0.1-1.8,0.1-3.6-0.2-5.2c-0.1-0.4-0.2-0.8-0.2-0.9c0.2,0.2,0,0.1-0.2,0c-0.4-0.3-1.2-0.4-2-0.6c-1.6-0.2-3.3,0-5,0.3
			c-1.7,0.4-3.4,0.8-5.1,1.5c-3.4,1.2-6.7,2.9-9.8,4.8l-2.5,1.4c-0.9,0.5-1.7,1-2.6,1.4c-1.7,0.9-3.5,1.7-5.3,2.5
			c-3.6,1.5-7.3,2.7-11,3.6c-1.9,0.5-3.8,0.9-5.7,1.2c-2,0.3-3.9,0.5-6.1,0.4c-0.6,0-1.1-0.1-1.8-0.3c-0.4-0.1-0.8-0.2-1.4-0.7
			c-0.1-0.1-0.1-0.1-0.2-0.2c-0.1-0.1-0.2-0.2-0.2-0.3c-0.1-0.2-0.3-0.5-0.4-0.7c-0.2-0.6-0.1-1.2,0-1.5c0.3-0.8,0.6-1.1,0.9-1.4
			c0.3-0.3,0.5-0.5,0.8-0.7c0.1-0.1,0.3-0.2,0.3-0.2l0.2-0.1c0.1-0.1,0.3-0.2,0.4-0.4c1.1-1.1,2.2-2.6,3.1-4.1
			c1.9-3.1,3.6-6.4,5.3-9.8c3.2-6.7,6.2-13.7,8.9-20.6l2.2,2.7c-2,0.2-4.1,0.4-6.1,0.1c-2-0.2-4-0.7-5.9-1.4
			c-1.9-0.7-3.7-1.6-5.4-2.6c-0.9-0.5-1.7-1.1-2.5-1.7c-0.8-0.6-1.5-1.2-2.4-2c-0.7-0.7-0.8-1.8-0.2-2.6l0.1-0.2l0.9-1.1
			c0.3-0.4,0.6-0.7,0.8-1.1c0.5-0.9,1-1.6,1.5-2.5c0.5-0.9,0.9-1.8,1.4-2.7l1.3-2.8c0.8-1.9,1.5-3.8,2.3-5.7
			c0.9-1.9,1.6-3.8,2.5-5.7C366.9,188.1,369.8,180.3,372.5,172.4z"/>
	</g>
	<g class="st6">
		<path d="M371.7,264.5c1.5-0.2,2.9-0.2,4.4-0.2c1.2,0.6,2.3,1.2,3.5,2c2.3,1.4,4.5,2.9,6.5,4.7s3.8,3.9,5.4,6.2
			c0.7,1.2,1.4,2.4,1.9,3.7c0,1.5-0.3,3-0.8,4.4c-1.1-1.1-1.9-2.1-3-2.9c-0.4-1.1-1-2.1-1.5-3.1c-1.3-2-2.9-3.7-4.6-5.4
			s-3.8-3-5.9-4.3c-0.5-0.3-1-0.6-1.6-0.9c-0.5-0.3-1.1-0.6-1.6-0.9C373.4,266.8,372.5,265.7,371.7,264.5z"/>
	</g>
	<ellipse class="st6" cx="348.1" cy="179.9" rx="2.1" ry="13.8"/>
	
		<ellipse transform="matrix(0.9973 -7.389747e-02 7.389747e-02 0.9973 -11.969 29.536)" class="st6" cx="393.2" cy="176.5" rx="2.7" ry="15.4"/>
	<g class="st6">
		<path d="M364.8,323.4c-4.6,6.6-9.2,13.1-13.6,19.8c-5,6.2-9.7,12.6-14.3,19.1c-4.6,6.5-9,13.1-13.1,19.9c-2,3.4-3.9,6.9-5.7,10.4
			s-3.4,7.1-4.7,10.7c-0.4,0.9-0.6,1.8-0.9,2.8l-0.4,1.4l-0.3,1.4c-0.1,0.5-0.2,0.9-0.3,1.4l-0.3,1.5l-0.5,2.9
			c-0.6,3.9-1.2,7.8-1.7,11.8c-1,7.9-1.7,15.8-2.3,23.8c-0.6,7.9-1.1,15.9-1.5,23.9l-2.9,23.8c-0.6-8-0.9-16-1.1-24
			c0.4-8,0.9-16,1.5-24c0.6-8,1.3-16,2.3-23.9c0.5-4,1-8,1.7-12l0.5-3l0.3-1.5c0.1-0.5,0.2-1,0.4-1.5l0.4-1.5l0.5-1.5
			c0.3-1,0.6-2,1-2.9c1.4-3.9,3-7.6,4.9-11.2c1.8-3.6,3.8-7.1,5.9-10.6c4.1-6.9,8.6-13.6,13.2-20.1c4.6-6.5,9.5-12.9,14.4-19.3
			C353.5,334.7,359,328.9,364.8,323.4z"/>
	</g>
	<g class="st6">
		<path d="M471.6,304.8c8.6,3.6,16.8,8,24.9,12.7c7.7,5.2,15.3,10.6,22.6,16.5c14.5,11.7,28.1,24.9,38.4,40.7c0.7,1,1.2,2,1.8,3
			c0.6,1,1.2,2,1.8,3.1c1.1,2.1,2.3,4.2,3.2,6.4c2,4.3,3.5,8.9,4.7,13.4c2.2,9,4.3,18.1,6.2,27.2c1.8,9.1,3.5,18.3,4.8,27.5
			c0.7,9.3,1.2,18.6,0.8,27.9c-0.3-2.3-0.6-4.6-1-6.9c-0.4-2.3-0.7-4.6-1.2-6.9c-0.8-4.5-1.7-9.1-2.7-13.6
			c-1.3-9.1-2.9-18.2-4.8-27.2c-1.8-9-3.9-18-6.1-27c-1.2-4.4-2.5-8.6-4.5-12.7c-0.9-2.1-2-4.1-3-6.1c-0.5-1-1.2-2-1.7-2.9
			c-0.6-1-1.1-2-1.8-2.9c-10-15.3-23.3-28.2-37.6-39.8c-7.2-5.8-14.6-11.2-22.3-16.2C486.9,315.2,479.4,309.9,471.6,304.8z"/>
	</g>
	<g class="st6">
		<path d="M331.6,503c-4.4,0.9-8.9,1.4-13.4,1.9c-4.5-0.2-8.9-0.4-13.4-0.9c-1.1-0.2-2.3-0.3-3.4-0.5c-1.1-0.2-2.3-0.5-3.5-0.9
			l-1-0.4l-0.2-0.1l-0.1,0c0,0,0,0,0,0c0,0,0,0,0,0c0,0,0.1,0-0.1,0c-0.4,0.2-1,0.9-1.5,1.7c-1,1.6-1.9,3.6-2.6,5.6
			c-0.7,2-1.3,4.1-1.7,6.2c-0.5,2.1-0.8,4.2-0.9,6.2c0,0.5,0,1,0.1,1.3c0,0.1,0,0.2,0,0.2c0,0,0,0,0,0.1v0c0,0,0,0,0,0
			c0-0.1,0-0.1-0.3-0.3c-0.1-0.1-0.1-0.1-0.1-0.1c0.1,0.1,0.6,0.2,1.1,0.3c0.5,0.1,1,0.2,1.5,0.2c4.2,0.4,8.7,0.4,13,0.4
			c4.4,0,8.8-0.1,13.2-0.2c4.4,0.5,8.9,0.9,13.3,1.5c-4.4,1-8.8,1.8-13.2,2.5c-4.4,0.1-8.9,0.2-13.3,0.2c-4.5,0-8.9,0-13.5-0.5
			c-0.6-0.1-1.2-0.1-1.8-0.2c-0.6-0.1-1.2-0.2-2.1-0.6c-0.2-0.1-0.5-0.2-0.8-0.5c-0.5-0.4-0.5-0.7-0.7-1l-0.1-0.2l0-0.2l-0.1-0.3
			c-0.1-0.2-0.1-0.4-0.1-0.6c-0.1-0.8-0.1-1.4-0.1-2c0.1-2.5,0.5-4.7,1-7c0.5-2.2,1.1-4.4,1.9-6.6c0.8-2.2,1.6-4.3,3-6.5
			c0.7-1,1.5-2.2,3.1-3c0.8-0.4,2-0.6,3.1-0.3l1.6,0.7c0.9,0.3,1.8,0.5,2.9,0.7c1,0.2,2.1,0.3,3.1,0.5c4.3,0.5,8.7,0.8,13.1,0.9
			C322.8,501.5,327.2,502.2,331.6,503z"/>
	</g>
	<g class="st6">
		<path d="M489.7,403.3c1.8,1.1,3.4,2.5,4.9,4.1c0.8,0.8,1.5,1.6,2.1,2.4c0.7,0.8,1.4,1.7,2,2.5c0.3,0.4,0.5,0.9,0.7,1.4
			c0.2,0.5,0.5,1,0.7,1.4c0.5,1,0.9,1.9,1.3,2.9c0.9,1.9,1.6,3.9,2.4,5.9c0.8,2,1.4,4,2,6l1,3l0.8,3l0.8,3c0.3,1,0.5,2,0.8,3
			l1.4,6.1c0.5,2,0.8,4.1,1.2,6.1c0.3,2,0.8,4.1,1.1,6.1l0.9,6.2c0.3,2.1,0.6,4.1,0.8,6.2c0.4,4.1,0.9,8.3,1.2,12.4
			c-0.3,4.2-0.6,8.4-1.2,12.5c-1.1-4.1-2-8.1-2.8-12.2c-0.3-4.1-0.8-8.2-1.2-12.3c-0.2-2-0.5-4.1-0.8-6.1l-0.9-6.1
			c-0.3-2-0.7-4-1.1-6.1c-0.4-2-0.7-4-1.1-6l-1.3-6c-0.2-1-0.5-2-0.7-3l-0.8-3l-0.8-3l-0.9-2.9c-0.6-1.9-1.2-3.9-2-5.8
			c-0.7-1.9-1.4-3.8-2.3-5.6c-0.4-0.9-0.8-1.9-1.2-2.8c-0.2-0.5-0.5-0.9-0.7-1.3s-0.5-0.9-0.7-1.3c-0.3-1-0.7-1.9-1.1-2.8
			c-0.2-0.5-0.4-1-0.6-1.4c-0.2-0.5-0.4-0.9-0.6-1.4c-0.4-1-0.9-1.8-1.4-2.7C490.9,405,490.4,404.1,489.7,403.3z"/>
	</g>
	<g class="st6">
		<path d="M513.9,504.8l28.1-8.2c9.5-2.2,19-4.5,28.3-7c4.6-1.3,9.3-2.7,13.7-4.4c1-0.4,2.2-1,2.7-1.4c0,0,0.1-0.1,0.2-0.1
			c0,0,0.1-0.1,0.2-0.2c0.1-0.1,0.2-0.2,0.3-0.3c0.5-0.4,1.2-0.7,2-0.7c0.8,0,1.5,0.2,1.9,0.5c0.5,0.3,0.8,0.6,1.1,0.9
			c1.2,1.2,1.8,2.3,2.4,3.5c0.6,1.2,1.1,2.3,1.6,3.5c1.9,4.7,3.2,9.5,4.3,14.3c0.5,2.4,1,4.9,1.3,7.4c0.1,1.3,0.2,2.6,0.1,4
			c0,0.4-0.1,0.8-0.2,1.2c-0.2,0.5-0.3,1.1-1.1,1.8c-0.1,0.1-0.2,0.1-0.2,0.2l-0.2,0.1l-0.3,0.2c-0.3,0.1-0.4,0.2-0.5,0.2
			c-0.3,0.1-0.7,0.3-0.9,0.4c-2.4,0.9-4.7,1.6-7.1,2.3c-2.3,0.7-4.7,1.4-7.1,2c-4.7,1.3-9.4,2.6-14.2,3.8c-9.5,2.4-19,4.6-28.7,6.3
			c-4.8,0.9-9.7,1.6-14.7,2.1c-2.5,0.2-5,0.4-7.6,0.2c-0.7,0-1.3-0.1-2-0.2c-0.7-0.1-1.4-0.3-2.1-0.5c-1.4-0.5-2.8-1.3-3.8-2.4
			c-2-2.3-2.7-5.2-2.9-7.8c-0.2-2.6,0.1-5.2,0.6-7.6C510.1,513.9,511.8,509.2,513.9,504.8z M513.9,504.8c-0.7,2.3-1.2,4.7-1.7,7.1
			c-0.5,2.4-0.8,4.8-0.9,7.2c-0.1,2.4-0.1,4.8,0.4,7c0.4,2.2,1.3,4.2,2.7,5.4c0.7,0.6,1.4,1.1,2.3,1.5l0.7,0.2
			c0.2,0.1,0.5,0.1,0.7,0.2c0.5,0.1,1,0.1,1.6,0.2c2.2,0.1,4.6,0,7-0.2c4.8-0.5,9.5-1.2,14.3-2.1c9.5-1.7,19-3.9,28.4-6.3
			c4.7-1.2,9.4-2.4,14.1-3.7c2.3-0.7,4.7-1.3,7-2c2.3-0.7,4.6-1.4,6.8-2.2c0.3-0.1,0.5-0.2,0.8-0.3c0.1,0,0.3-0.1,0.3-0.1
			c0,0,0,0,0.1,0l0,0c0,0,0,0,0,0c-0.4,0.4-0.2,0.3-0.2,0.2c0-0.1,0.1-0.3,0.1-0.6c0.1-1,0-2.1-0.1-3.2c-0.2-2.3-0.7-4.6-1.2-7
			c-1-4.6-2.4-9.3-4.1-13.6c-0.5-1.1-0.9-2.1-1.5-3.1c-0.5-1-1.1-2-1.7-2.5c-0.3-0.3-0.5-0.3-0.2-0.2c0.2,0,0.3-0.1,0.3-0.1
			c0,0,0,0,0,0c0,0,0,0-0.1,0.1l-0.5,0.5c-1.4,1-2.5,1.5-3.7,2c-2.4,1-4.7,1.8-7.1,2.5c-2.3,0.7-4.7,1.4-7.1,2.1
			c-9.5,2.6-19,4.9-28.5,7.1C533.2,502.1,523.6,503.6,513.9,504.8z"/>
	</g>
	<g class="st6">
		<path d="M367.3,328.5c1.4,3.7,2.8,7.3,4.2,10.9c0.8,3.7,1.9,7.4,3,11c1.2,3.6,2.5,7.2,4,10.6s3.3,6.7,5.4,9.7
			c2.1,3,4.7,5.6,7.7,7.2c0.4,0.2,0.8,0.4,1.1,0.5c0.4,0.2,0.8,0.3,1.2,0.5c0.4,0.1,0.9,0.3,1.3,0.4l1.3,0.3
			c1.7,0.3,3.4,0.4,5.1,0.1c3.3-0.5,6.2-2.5,8.3-5.2c2.6-2.4,4.7-5.7,6.4-9.2c-0.1,3.9-1.1,7.9-3.2,11.7c-1.3,1.7-2.9,3.2-4.7,4.4
			s-4,2-6.1,2.4c-2.2,0.3-4.4,0.2-6.4-0.2l-1.5-0.4c-0.5-0.1-1-0.3-1.5-0.5c-0.5-0.1-1-0.4-1.5-0.6c-0.5-0.2-1-0.4-1.5-0.7
			c-3.8-2-6.7-5.2-9.1-8.4c-2.4-3.3-4.2-6.8-5.8-10.4c-1.6-3.6-3-7.3-4.2-11c-1.2-3.7-2.2-7.5-3.1-11.3
			C367.3,336.3,367.1,332.4,367.3,328.5z"/>
	</g>
	<g class="st6">
		<path d="M482.4,313.8c0.4,5.4,0.3,10.8,0,16.1c-0.9,5.3-1.9,10.5-3.2,15.8c-1.3,5.2-2.8,10.4-4.7,15.5c-1.9,5.1-4.1,10.1-7.2,14.7
			c-1.5,2.3-3.2,4.5-5.2,6.5c-1,1-2.1,1.9-3.3,2.8c-1.2,0.8-2.4,1.6-3.8,2.2c-1.3,0.6-2.8,1.1-4.2,1.4c-1.4,0.3-3,0.4-4.3,0.4
			c-2.7,0.1-5.5,0-8.3-0.5c-2.8-0.4-5.5-1.1-8.2-2.3c-1.3-0.6-2.6-1.3-3.8-2.1c-1.2-0.9-2.5-1.6-3.3-2.8c-3.7-4.6-5.2-10.5-4.4-15.8
			c0.8,5.3,3.4,10.1,7.2,13c3.4,3.3,8.2,5.2,13.1,5.9c2.5,0.4,5,0.5,7.6,0.4c1.3,0,2.4-0.1,3.6-0.3c1.1-0.2,2.3-0.6,3.4-1.1
			c4.4-2,7.8-5.8,10.6-10c2.8-4.3,4.9-9,6.8-13.9s3.3-9.9,4.5-15c1.2-5.1,2.3-10.3,3.1-15.5C479.8,324.1,481.1,319,482.4,313.8z"/>
	</g>
	<g class="st6">
		<path d="M442.8,482.8c2,0,3.8-0.1,5.6-0.2c1.6,0.5,3.3,0.9,5,1.2c3.4,0.6,6.8,0.9,10.3,0.9c3.4,0,6.9-0.4,10.2-1.1
			c1.7-0.3,3.3-0.8,5-1.3c0.9,0.1,1.8,0,2.8,0c0.9,0,1.9,0,2.9,0c-0.7,0.7-1.4,1.3-2.1,2c-0.7,0.6-1.5,1.3-2.3,1.8
			c-1.8,0.5-3.5,1.1-5.4,1.4c-3.6,0.8-7.3,1.2-11,1.2c-3.7,0.1-7.4-0.3-11-0.9c-0.9-0.1-1.8-0.4-2.7-0.6c-0.9-0.2-1.8-0.4-2.7-0.7
			C445.7,485.4,444.1,484.2,442.8,482.8z"/>
	</g>
	<g class="st6">
		<path d="M351.9,385.9c-3.4,8.2-6.8,16.3-10.2,24.4l-5.2,12.2c-1.8,4-3.4,8.2-5.3,12.1l-1.4,3c-0.5,1-1,2-1.4,2.9
			c-0.8,1.8-1.4,3.8-1.7,5.8c-0.7,4.1-0.6,8.3,0.4,12.3s3,7.7,5.7,10.8c2.7,3.1,6.1,5.6,9.8,7.6l0,0c0.7,0.4,1.1,1.2,1,2
			c-1.6,11.8-3.1,23.6-4.4,35.5c-1.3,11.8-2.4,23.7-3.1,35.6c-0.3,5.9-0.5,11.9-0.3,17.7l0.3,4.3c0,0.2,0,0.3,0.1,0.4s0,0.2,0.1,0.3
			c0,0.2,0.2,0.4,0.3,0.7c0.1,0.2,0.3,0.4,0.4,0.7c0.1,0.2,0.4,0.4,0.6,0.7c1.7,1.7,4.3,3,7,4c5.4,2,11.1,3.3,17,4.3
			c5.8,1,11.7,1.7,17.6,2.3c11.8,1.1,23.7,1.6,35.6,1.7c11.9,0.1,23.8-0.1,35.7-0.8c5.9-0.3,11.9-0.7,17.8-1.3
			c3-0.3,5.9-0.5,8.9-0.7c3-0.2,5.9-0.5,8.9-0.7c5.9-0.6,11.8-1.3,17.7-2.3c5.8-1.1,11.7-2.2,17.2-4.6c-2.6,1.4-5.4,2.5-8.3,3.5
			c-2.8,1-5.7,1.8-8.6,2.6c-5.8,1.5-11.7,2.7-17.6,3.7c-3,0.5-5.9,1-8.9,1.4s-5.9,0.9-8.9,1.1c-6,0.5-12,0.9-17.9,1.2
			c-12,0.6-24,0.9-35.9,0.8s-24-0.6-35.9-1.7c-6-0.6-12-1.3-17.9-2.3c-6-1-11.9-2.3-17.7-4.5c-1.5-0.6-2.9-1.2-4.3-2
			c-1.4-0.8-2.8-1.7-4.1-3c-0.3-0.3-0.6-0.6-0.9-1c-0.3-0.4-0.5-0.8-0.8-1.2c-0.2-0.5-0.4-0.9-0.6-1.4l-0.2-0.8
			c-0.1-0.3-0.1-0.5-0.1-0.7L332,568c-0.2-6.1,0-12.1,0.3-18.1c0.6-12,1.8-23.9,3.1-35.8c1.3-11.9,2.8-23.8,4.4-35.6l1,2
			c-4-2.2-7.8-5-10.9-8.5c-3.1-3.5-5.4-7.8-6.5-12.4s-1.3-9.3-0.5-13.9c0.4-2.3,1-4.6,2-6.8l2.8-6c1.8-4,4-7.9,5.9-11.8l6.1-11.7
			C343.7,401.5,347.8,393.7,351.9,385.9z"/>
	</g>
	<g class="st6">
		<path d="M414.7,379.7c-0.9,7.9-1.8,15.7-2.6,23.6c-1.4,7.7-2.5,15.5-3.4,23.3c-0.9,7.8-1.6,15.6-1.8,23.4c-0.1,3.9,0,7.8,0.2,11.6
			c0.2,3.9,0.8,7.7,1.7,11.3c0.3,0.9,0.5,1.7,0.8,2.7l1,2.9c0.7,1.9,1.1,3.9,1.6,5.9c0.8,4,1.5,8,1.6,12.1c0.1,4.1-0.1,8.1-0.7,12.2
			c-0.6,4-1.7,8-2.9,11.8l-0.9,2.8c-0.2,0.5-0.2,0.8-0.4,1.3l-0.3,1.5l-1.3,5.8c-0.9,3.8-1.7,7.7-2.4,11.5c-1,3.8-1.9,7.6-2.6,11.4
			c-0.4,1.9-0.6,3.9-0.8,5.8c-0.1,1-0.2,2-0.3,2.9c-0.1,1,0,2-0.1,3c-0.8-3.9-1-7.9-1-11.9s0.4-8,0.8-12c0.7-3.9,1.6-7.8,2.4-11.7
			l1.3-5.8l0.3-1.4c0.1-0.5,0.3-1.1,0.4-1.6l0.9-2.8c1.2-3.7,2.2-7.4,2.8-11.2c0.6-3.8,0.8-7.6,0.7-11.4c-0.1-3.8-0.7-7.6-1.5-11.3
			c-0.5-1.8-0.9-3.7-1.5-5.5l-0.9-2.7c-0.3-1-0.6-2-0.9-3c-1.1-4-1.6-8-1.9-12.1c-0.3-4-0.3-8-0.2-12c0.2-8,0.9-15.9,1.8-23.8
			c0.9-7.9,2.1-15.7,3.4-23.5C410.1,394.9,412.2,387.2,414.7,379.7z"/>
	</g>
	<g class="st6">
		<path d="M304.5,527.2c0.5,4.4,0.6,8.7,0.5,13.1c-0.7,4.3-1.5,8.6-2.6,12.9c-1.1,4.1-2.1,8.2-2.7,12.4c-0.5,4.1-0.6,8.2,0.4,12
			c0.5,1.9,1.3,3.7,2.3,5.3c0.3,0.4,0.5,0.8,0.8,1.2l1,1.2c0.3,0.4,0.7,0.8,1,1.1s0.7,0.7,1.1,1.1c2.9,2.8,6.4,5,10.1,6.6
			c3.8,1.5,7.8,2.4,11.9,2.6c4.1,0.8,8.3,1.2,12.7,1c-4,1.7-8.5,2.6-13,3c-4.5-0.3-9-1.2-13.2-2.9c-4.2-1.7-8.1-4.2-11.4-7.4
			c-0.4-0.4-0.8-0.8-1.2-1.2c-0.4-0.4-0.8-0.8-1.1-1.3l-1.1-1.3c-0.4-0.4-0.7-1-1-1.5c-1.3-2-2.3-4.2-2.9-6.5
			c-0.6-2.3-0.9-4.6-0.9-6.8c0-2.3,0.1-4.5,0.4-6.7c0.6-4.4,1.7-8.7,2.8-12.9c1.1-4.1,1.9-8.2,2.5-12.4
			C302.3,535.6,303.3,531.4,304.5,527.2z"/>
	</g>
	<g class="st6">
		<path d="M529.7,538.6c1.4,6.6,2.1,13.3,2.4,20.1c0,1.7-0.3,3.4-0.5,5.1c-0.2,1.7-0.5,3.4-0.9,5.1c-0.2,0.9-0.4,1.7-0.7,2.6
			c-0.2,0.9-0.6,1.7-1,2.6l-0.5,1.1c-0.2,0.3-0.3,0.7-0.4,1c-0.1,0.3-0.2,0.7-0.3,1.1c-0.1,0.4-0.2,0.7-0.3,1.1
			c-0.7,3-0.8,6.3-0.8,9.5c0,3.2,0.3,6.5,0.7,9.7c0.9,6.4,2.7,12.8,5.6,18.4c1.5,2.8,3.3,5.4,5.5,7.6c0.5,0.6,1.1,1,1.7,1.5
			c0.6,0.5,1.2,0.9,1.8,1.3c1.3,0.8,2.7,1.5,4.1,1.9l1.1,0.3l1.2,0.3l2.4,0.6c0.8,0.2,1.6,0.3,2.4,0.5c0.8,0.2,1.6,0.3,2.4,0.4
			c3.2,0.5,6.4,0.6,9.4,0.1c1.5-0.3,3-0.6,4.3-1.2c1.3-0.6,2.5-1.4,3.5-2.5l0.8-0.9l0.4-0.5c0.1-0.1,0.2-0.2,0.2-0.3
			c0.4-0.5,0.8-1.2,1.1-1.8c0.3-0.7,0.6-1.3,0.7-2c0.2-0.7,0.2-1.3,0.3-2c0.2-1.3-0.1-2.6-0.8-3.7c-0.7-1.2-1.8-2.2-3.2-3
			c-1.3-0.8-2.8-1.5-4.4-2.1c-1.5-0.6-3.2-1-4.8-1.4c3.3,0,6.8,0.3,10.1,1.6c1.7,0.6,3.3,1.6,4.7,3.1c0.7,0.8,1.2,1.6,1.6,2.6
			c0.4,1,0.6,2,0.7,3c0.1,1-0.1,2-0.4,3c-0.3,0.9-0.6,1.8-1,2.7c-0.4,0.9-0.9,1.7-1.5,2.5c-0.2,0.2-0.3,0.4-0.5,0.7l-0.4,0.4
			c-0.2,0.3-0.5,0.6-0.9,1c-1.3,1.4-2.9,2.5-4.7,3.3c-1.7,0.8-3.5,1.2-5.3,1.6c-3.6,0.5-7.1,0.4-10.6-0.1c-0.9-0.1-1.7-0.2-2.6-0.4
			c-0.8-0.2-1.7-0.3-2.5-0.5l-2.5-0.6l-1.2-0.3l-1.3-0.4c-1.8-0.5-3.4-1.4-5-2.3c-0.8-0.5-1.5-1-2.2-1.6c-0.7-0.6-1.4-1.1-2-1.8
			c-2.6-2.5-4.6-5.5-6.2-8.6c-3.2-6.2-5-13-6-19.7c-0.5-3.4-0.8-6.8-0.8-10.2c0-3.4,0.2-6.9,0.9-10.4c0.1-0.4,0.2-0.9,0.3-1.3
			c0.1-0.4,0.2-0.9,0.4-1.3c0.2-0.4,0.3-0.9,0.5-1.3l0.3-0.7l0.2-0.5c0.3-0.7,0.6-1.3,0.8-2.1c0.2-0.7,0.5-1.5,0.6-2.2
			c0.7-3.1,1-6.3,1.2-9.6C529,552,529.4,545.3,529.7,538.6z"/>
	</g>
	<g class="st6">
		<path d="M575.1,609.9c1.6-1,3.1-2.1,4.4-3.2c1.5-0.6,2.9-1.4,4.2-2.3c1.2-0.9,2.3-2.1,3.1-3.4l0.3-0.5l0.3-0.5
			c0.2-0.3,0.4-0.7,0.5-1l0.4-1.1c0.1-0.4,0.2-0.8,0.4-1.1c0.4-1.5,0.7-3.1,0.5-4.4c-0.2-1.4-0.8-2.4-1.8-3.1c-1-0.7-2.4-1-4-1.1
			c-1.5-0.7-3.3-1-5.2-1.5c1.6-1.1,3.3-2,5.4-2.5c2,0.1,4.2,0.5,6.1,1.8c0.5,0.4,1,0.7,1.3,1.2l0.6,0.7c0.2,0.2,0.3,0.5,0.5,0.8
			c0.1,0.3,0.3,0.5,0.4,0.8l0.3,0.8c0.2,0.5,0.3,1.1,0.4,1.6c0.3,2.2,0,4.2-0.6,6.1c-1,3.6-3.2,7.5-6.5,9.8
			c-1.6,1.2-3.3,2.1-5.1,2.9C579,610.6,577,610.5,575.1,609.9z"/>
	</g>
	<g class="st6">
		<path d="M585.5,583.2c2.5-2.4,4.5-5.2,5.6-7.9c0.8-1.2,1.3-2.6,1.5-4c0.1-0.3,0.1-0.7,0.1-1.1l0-1.1l-0.1-1.1l-0.1-0.5l-0.1-0.5
			c-0.3-1.3-1-2.4-1.9-3c-0.9-0.7-2.3-1-3.7-1c-1.4,0-3,0.3-4.4,0.7c-0.7,0.2-1.5,0.5-2.2,0.8c-0.4,0.2-0.7,0.3-1,0.5
			c-0.3,0.2-0.7,0.4-0.7,0.4l0,0c-0.9,0.7-2.1,0.5-2.8-0.3c-0.4-0.5-0.5-1.3-0.3-1.9c1-2.8,1.8-5.6,2.7-8.4c0.8-2.8,1.5-5.7,2.2-8.6
			c0.3-1.4,0.6-2.9,0.8-4.3c0.1-0.7,0.2-1.4,0.3-2.2c0.1-0.4,0.1-0.7,0.1-1.1c0-0.4,0.2-0.7,0.3-1.1c0.8-2.8,1.6-5.7,1.6-8.7
			c0.3,0.7,0.7,1.4,0.9,2.1c0.2,0.7,0.4,1.5,0.6,2.3c0.2,0.8,0.3,1.5,0.4,2.3c0.1,0.8,0.2,1.6,0.2,2.3c0,0.4,0.1,0.8,0,1.2
			c-0.1,0.4-0.2,0.8-0.2,1.1c-0.1,0.8-0.2,1.5-0.3,2.3c-0.2,1.5-0.6,3-0.9,4.5c-0.7,3-1.4,5.9-2.2,8.8c-0.8,2.9-1.7,5.8-2.7,8.7
			l-3.2-2.2c0.6-0.5,1-0.7,1.5-0.9c0.4-0.2,0.9-0.4,1.3-0.6c0.9-0.3,1.7-0.7,2.6-0.9c1.8-0.5,3.6-0.9,5.6-0.8c1.9,0,4.1,0.4,6,1.7
			c1.9,1.3,3,3.3,3.5,5.3c1,3.8,0.3,8-1.6,11.4c-0.2,0.4-0.6,0.8-0.9,1.1c-0.3,0.3-0.7,0.7-1,1c-0.7,0.6-1.5,1.2-2.2,1.6
			C588.9,582,587.3,582.8,585.5,583.2z"/>
	</g>
	<g class="st6">
		<path d="M338.3,580.1c4.7,6.6,8.2,14,11.3,21.5l1.1,2.8c0.4,1,0.7,1.9,1,2.9c0.6,1.9,1.4,3.8,1.9,5.8l1.7,5.9c0.5,2,1,4,1.4,6
			c3.1,16,4.1,32.3,3.8,48.6c-0.1,8.2-0.7,16.2-1.1,24.2l-1.3,24.2l-2.5,48.3l-1.3-2c4.6,1.6,9.5,2.9,14.3,4c4.9,1,9.8,1.8,14.7,2.2
			c4.9,0.3,9.9,0.3,14.6-0.5c4.8-0.8,9.3-2.4,13.1-5.1l-0.8,1.3l9.4-55c0.4-2.3,0.8-4.6,1.1-6.9c0.4-2.3,0.9-4.6,1.4-6.8l2.9-13.6
			c2-9.1,3.9-18.2,6-27.3c-1.1,9.2-2.3,18.5-3.5,27.7l-1.8,13.8c-0.3,2.3-0.6,4.6-1,6.9c-0.4,2.3-0.8,4.6-1.2,6.9l-9.4,55v0
			c-0.1,0.5-0.4,1-0.8,1.3c-4.5,3.2-9.6,5-14.8,5.8c-5.2,0.9-10.4,0.9-15.6,0.5c-5.1-0.4-10.2-1.2-15.2-2.3c-5-1.1-9.9-2.4-14.8-4.1
			c-0.8-0.3-1.4-1.1-1.3-2v0l2.5-48.3l1.3-24.2c0.4-8,1-16.1,1.1-24.1c0-2,0.2-4,0.1-6l-0.1-6c0-4-0.4-8-0.6-12l-0.2-3l-0.3-3
			l-0.7-6c-0.2-2-0.6-4-0.9-5.9c-0.3-2-0.6-3.9-1.1-5.9c-1.3-7.9-3-15.7-5.3-23.4l-0.9-2.9l-1-2.8c-0.6-1.9-1.4-3.8-2.1-5.6
			C341.9,587.3,340.3,583.6,338.3,580.1z"/>
	</g>
	<g class="st6">
		<path d="M407,642.3c4.5,2.8,9.1,5.1,13.8,7.4c4.7,2.2,9.6,4.1,14.5,5.8c4.9,1.6,9.9,2.9,15,3.6c1.3,0.1,2.5,0.3,3.8,0.4
			c1.3,0.2,2.5,0.2,3.8,0.3c2.5,0.1,5,0,7.5-0.2h0c1.1-0.1,2.1,0.7,2.2,1.8c0,0,0,0.1,0,0.1l7.6,115.2l-1.5-1.8
			c5.7,1.3,11.6,2.2,17.5,2.9c5.9,0.7,11.8,1.1,17.7,1.2c5.9,0.2,11.8-0.1,17.7-0.6c5.9-0.5,11.7-1.6,17.4-2.9l-1.5,2
			c-0.3-12.1-0.5-24.1-0.5-36.2c-0.1-12,0-24.1,0.2-36.2l0.4-18.1c0-3,0.2-6,0.5-9l0.7-9c1.1-12,2.3-24,4.1-35.9
			c-0.7,12-1,24.1-1.1,36.1l0,9c0,3,0.1,6-0.1,9c-0.2,3-0.2,6-0.3,9l-0.2,9c-0.2,12-0.2,24-0.2,36.1c0.1,12,0.2,24.1,0.5,36.1v0
			c0,0.9-0.6,1.8-1.5,2c-5.9,1.4-11.9,2.5-18,3s-12.1,0.8-18.1,0.6c-6-0.2-12.1-0.6-18.1-1.3c-6-0.7-11.9-1.6-17.9-3
			c-0.9-0.2-1.5-0.9-1.5-1.8v0l-7.6-115.2l2.2,1.8c-5.5,0.6-11,0.5-16.2-0.7c-5.3-1.1-10.3-2.8-15.2-4.8s-9.6-4.4-14.2-7
			C415.6,648.3,411.1,645.5,407,642.3z"/>
	</g>
	<g class="st6">
		<path d="M364.8,776.7c-0.8,4-2,8-3.5,11.8c-1.5,3.8-3.3,7.6-5.4,11.2c-2.1,3.6-4.3,7.2-7.2,10.2c-2.8,3.1-5.7,6.1-9,8.7
			c-6.4,5.3-13.7,9.7-21.4,12.8c-3.9,1.6-7.9,2.8-11.9,3.8c-0.1,0-0.4,0.1-0.4,0.1c0,0-0.1,0-0.1,0c0,0,0,0,0.1-0.2
			c0.1-0.1,0.1-0.1,0.1-0.2c0.1-0.1,0.1-0.2,0.1-0.4c0-0.1,0-0.2,0-0.4c0-0.1-0.1-0.2-0.1-0.3c0,0,0-0.1-0.1-0.2c0,0,0,0,0,0
			c0,0,0,0,0,0c0.1,0.1,0.5,0.4,0.8,0.6c0.4,0.2,0.8,0.4,1.2,0.6c1.7,0.8,3.6,1.5,5.4,2.1c7.6,2.4,15.6,3.9,23.5,5
			c8,1.1,16,1.6,24.1,1.7c8.1,0,16.1-0.4,24.1-1.5c8-1.1,15.8-3,23.3-5.7l-1.1,2.8c-0.4-0.8-0.6-1.3-0.9-2c-0.2-0.6-0.5-1.3-0.7-1.9
			c-0.4-1.3-0.8-2.5-1.2-3.8c-0.7-2.6-1.2-5.1-1.7-7.7c-0.5-2.6-0.8-5.2-1.2-7.8c-0.1-1.3-0.3-2.6-0.5-3.9c-0.1-1.3-0.2-2.6-0.2-3.9
			c-0.1-2.6,0-5.2,0-7.8c0.1-2.6,0.2-5.2,0.3-7.8c0.2-2.6,0.3-5.2,0.5-7.8l0.8-7.7l0.3,7.7l0.4,7.7l0.6,7.7c0.3,2.5,0.5,5.1,0.9,7.6
			s0.5,5.1,0.8,7.6c0.3,2.5,0.7,5,1.1,7.5c0.4,2.5,1,5,1.6,7.4c0.4,1.2,0.7,2.4,1.1,3.6c0.2,0.6,0.4,1.2,0.6,1.7
			c0.2,0.5,0.5,1.2,0.7,1.5l0,0.1c0.5,1,0.1,2.2-0.9,2.7c-0.1,0-0.2,0.1-0.2,0.1c-7.8,2.8-15.9,4.7-24.1,5.9
			c-8.2,1.2-16.4,1.7-24.7,1.6c-8.2-0.1-16.5-0.6-24.6-1.7c-8.2-1.1-16.3-2.6-24.2-5.1c-2-0.7-4-1.3-6-2.3c-0.5-0.2-1-0.5-1.5-0.8
			c-0.5-0.3-1-0.6-1.6-1.2c-0.1-0.1-0.3-0.3-0.5-0.5c-0.1-0.1-0.1-0.2-0.2-0.3c-0.1-0.2-0.1-0.3-0.2-0.5c-0.1-0.1-0.1-0.4-0.1-0.6
			c0-0.2,0-0.5,0-0.7c0.1-0.2,0.1-0.5,0.2-0.7s0.2-0.3,0.4-0.5c0.3-0.3,0.5-0.5,0.7-0.6c0.2-0.2,0.4-0.2,0.6-0.3
			c0.4-0.2,0.7-0.2,1-0.4c3.9-1,7.7-2.1,11.4-3.7c7.4-3,14.2-7.1,20.4-12.2c3-2.5,5.9-5.3,8.5-8.3c2.5-3.1,5.2-6,7.6-9.3
			c2.4-3.2,4.5-6.6,6.5-10.2C361.7,784.2,363.5,780.6,364.8,776.7z"/>
	</g>
	<g class="st6">
		<path d="M494.7,782.2c-0.7,5.4-2.3,10.6-4.3,15.7c-2,5.1-4.7,9.9-7.8,14.5c-3.4,4.4-7.2,8.4-11.5,11.9c-4.3,3.5-9,6.5-13.9,9
			c-5,2.5-10.2,4.3-15.5,5.7l-4,0.9c-0.2,0-0.2,0.1-0.3,0.1c-0.1,0-0.1,0,0,0c0.1,0,0.1-0.1,0.2-0.1c0.1-0.1,0.2-0.2,0.3-0.4
			s0.2-0.4,0.2-0.7c0-0.3,0-0.5-0.1-0.7c-0.1-0.2-0.1-0.2-0.2-0.4c0,0-0.1-0.1-0.1-0.1c0,0-0.1-0.1-0.1-0.1c0,0,0.3,0.2,0.5,0.2
			c0.2,0.1,0.5,0.2,0.8,0.3c2.4,0.8,5,1.3,7.6,1.8c10.5,1.9,21.1,3,31.8,3.9c10.7,0.8,21.4,1.2,32.1,1.1c5.3-0.1,10.7-0.3,16-0.8
			c5.3-0.5,10.5-1.2,15.6-2.5c0.6-0.2,1.3-0.3,1.9-0.5l0.9-0.3c0.2-0.1,0.1-0.1,0.1,0c0,0,0,0,0,0c0,0,0.2-0.3,0.3-0.8
			c0.1-0.5,0.1-1,0.1-1.6c0-2.4-0.5-5-1-7.6c-1.1-5.2-2.6-10.3-3.9-15.5c-2.2-10.5-4.5-21.2-5.2-32c2.3,10.5,5.7,20.7,9.1,30.9
			c0.4,1.3,0.7,2.6,1.1,3.9s0.7,2.6,1,3.9c0.7,2.6,1.3,5.3,1.9,7.9c0.5,2.7,1.1,5.4,1.1,8.4c0,0.8,0,1.5-0.2,2.4
			c-0.2,0.8-0.5,1.9-1.4,2.8c-0.2,0.2-0.5,0.4-0.8,0.6c-0.2,0.1-0.3,0.2-0.5,0.2c-0.2,0.1-0.2,0.1-0.3,0.1l-1,0.3
			c-0.7,0.2-1.3,0.4-2,0.5c-5.4,1.3-10.8,2.1-16.2,2.6c-5.4,0.5-10.8,0.8-16.3,0.8c-10.8,0.2-21.7-0.3-32.4-1.1
			c-10.8-0.8-21.5-2-32.2-3.9c-2.7-0.5-5.3-1-8.1-1.9c-0.4-0.1-0.7-0.2-1.1-0.4c-0.4-0.2-0.8-0.3-1.3-0.7c-0.1-0.1-0.3-0.2-0.5-0.4
			c-0.1-0.1-0.2-0.2-0.3-0.3c-0.1-0.2-0.2-0.3-0.3-0.6c-0.2-0.5-0.2-1.4,0.1-1.9c0.1-0.3,0.3-0.4,0.4-0.6c0.1-0.1,0.2-0.2,0.4-0.3
			c0.4-0.3,0.7-0.4,1-0.5c0.2-0.1,0.6-0.2,0.7-0.2l3.9-0.9c5.1-1.3,10-3.1,14.7-5.5c4.7-2.3,9.1-5.2,13.1-8.5
			c4-3.3,7.6-7.2,10.8-11.3c3.4-4,6.4-8.3,9-13c1.3-2.3,2.5-4.7,3.5-7.2C493,787.3,494,784.8,494.7,782.2z"/>
	</g>
	<g class="st6">
		<path d="M347.7,810.6c2.3-0.1,4.5-0.1,6.7-0.2c2.1,0.5,4.2,0.8,6.3,1.1c4.2,0.6,8.5,0.8,12.7,0.7l1.6,0c0.5,0,1.1-0.1,1.6-0.1
			c1.1-0.1,2.1-0.1,3.2-0.3c2.1-0.3,4.2-0.5,6.3-1c1-0.2,2.1-0.4,3.1-0.7c1-0.3,2-0.6,3.1-0.8c1.1,0,2.2,0,3.3-0.1s2.3-0.1,3.4-0.1
			c-0.9,0.7-1.8,1.4-2.7,2.1c-0.9,0.7-1.9,1.3-2.9,1.9c-1.1,0.3-2.2,0.6-3.2,0.9c-1.1,0.3-2.2,0.5-3.3,0.7c-2.2,0.5-4.4,0.7-6.6,1
			c-1.1,0.1-2.2,0.2-3.3,0.3c-0.6,0-1.1,0.1-1.7,0.1l-1.7,0c-4.5,0.1-8.9-0.1-13.4-0.7c-1.1-0.1-2.2-0.3-3.3-0.5
			c-1.1-0.2-2.2-0.4-3.3-0.6C351.5,813.2,349.5,812.1,347.7,810.6z"/>
	</g>
	<g class="st6">
		<path d="M487.2,808.3c2.3-0.3,4.4-0.5,6.6-0.7c2.1,0.4,4.1,0.7,6.2,1c4.2,0.6,8.4,1.1,12.5,1.3c4.2,0.2,8.4,0.3,12.5,0
			c1,0,2-0.2,3.1-0.3c1-0.1,2-0.3,3-0.5c1,0.1,2.1,0.2,3.2,0.2c1.1,0,2.2,0,3.3,0c-0.9,0.7-1.8,1.4-2.8,2c-1,0.6-2,1.1-3,1.7
			c-1.1,0.3-2.2,0.4-3.3,0.5c-1.1,0.2-2.2,0.3-3.3,0.3c-4.4,0.4-8.7,0.3-13,0.1c-4.3-0.2-8.6-0.7-12.9-1.3c-2.1-0.3-4.2-0.7-6.4-1
			C491.1,810.6,489.1,809.6,487.2,808.3z"/>
	</g>
</g>
<g id="Layer_3">
	<g>
		<path d="M278.4,109.5c0.1,0,0.2,0,0.3,0c0,1.1,0.1,2.2,0.2,3.2c0.2,1.9,0.6,3.8,1.2,5.7c0.6,1.9,1.5,3.8,3,5.4
			c1.4,1.7,3.6,2.9,5.8,3.2c2.1,0.4,4.2,0.2,6.2-0.3c1.9-0.5,3.8-1.2,5.5-2c2-0.9,3.8-2,5.5-3.2c0,0.9,0.1,1.8,0.3,2.7
			c0.3,1.3,0.8,2.6,1.5,3.8c0.8,1.2,1.8,2.2,2.9,3c2.2,1.6,4.8,2.2,7.2,2.6c1.2,0.2,2.4,0.2,3.6,0.3c1.2-0.1,2.4,0,3.6-0.1
			c4.8-0.4,9.5-2,13.6-4.5c2.1-1.2,4-2.7,5.7-4.4c0.5-0.5,1.1-1.1,1.6-1.6c0.1,0.3,0.2,0.7,0.4,1c0.2,0.5,0.6,1,0.9,1.4
			c0.4,0.4,0.8,0.9,1.2,1.2c0.5,0.3,0.9,0.7,1.5,0.9c0.5,0.2,1,0.5,1.5,0.6c4.2,1.1,8,0.1,11.4-0.8c3.5-0.9,6.9-2.2,10.1-3.7
			c1.6-0.8,3.2-1.7,4.8-2.6c0.8-0.5,1.5-1,2.3-1.6c0.3-0.2,0.5-0.4,0.8-0.6c0.3,0.2,0.5,0.3,0.8,0.4c0.9,0.4,1.8,0.6,2.6,0.6
			c1.7,0.2,3.2-0.1,4.7-0.4c0.7-0.2,1.4-0.4,2.1-0.6c0.7-0.3,1.4-0.5,2-0.8c1.3-0.6,2.6-1.2,3.9-2c2.5-1.5,4.7-3.2,6.8-5.1
			c0.8-0.8,1.6-1.5,2.4-2.3c0.1,0.5,0.1,1,0.2,1.5c0.4,2.2,1.2,4.3,2.2,6.3c1.1,2,2.4,3.8,4.1,5.4c0.8,0.8,1.8,1.5,2.8,2.1
			c0.1,0.1,0.3,0.2,0.5,0.3c-0.2,0.2-0.4,0.4-0.6,0.6c-0.9,0.9-1.6,2-2.3,3.1c-1.3,2.2-2.1,4.6-2.6,7c-1,4.9-0.5,9.8,0.5,14.4
			c0.3,1.2,0.5,2.4,1,3.5l0.6,1.7c0.2,0.6,0.5,1.1,0.8,1.6c1.1,2.2,2.6,4.2,4.4,5.9c1.8,1.7,3.9,3,6.1,3.9c0.6,0.2,1.1,0.4,1.7,0.6
			c0.6,0.1,1.2,0.3,1.8,0.4c0.7,0.1,1.4,0.2,2.1,0.3c-1.8,2.2-2.6,5-2.5,7.7c0,1.6,0.3,3.2,0.8,4.7c0.5,1.5,1.1,3,2,4.3
			c1.8,2.6,4.7,4.4,7.7,5.3c1.5,0.5,3.1,0.7,4.6,0.8c0.8,0,1.6,0,2.3-0.1c0.8-0.1,1.6-0.2,2.2-0.8c-0.6,0.5-1.4,0.6-2.2,0.7
			c-0.8,0.1-1.5,0.1-2.3,0c-1.5-0.1-3.1-0.4-4.5-0.9c-2.9-1-5.6-2.8-7.2-5.4c-0.9-1.3-1.4-2.7-1.8-4.2c-0.4-1.5-0.6-3-0.6-4.5
			c0-1.5,0.3-3,0.9-4.3c0.6-1.3,1.5-2.6,2.5-3.5c0.1-0.1,0.2-0.3,0.3-0.5c0-0.4-0.3-0.7-0.7-0.8h0c-4.4-0.2-8.9-2.1-11.9-5.3
			c-1.5-1.6-2.9-3.4-3.8-5.5c-0.2-0.5-0.5-1-0.7-1.5l-0.5-1.6c-0.4-1-0.5-2.2-0.8-3.3c-0.8-4.4-1.1-9.1,0-13.4
			c0.5-2.1,1.3-4.2,2.4-6c0.6-0.9,1.2-1.8,2-2.5c0.4-0.4,0.8-0.7,1.1-1.1c0.2-0.2,0.4-0.3,0.6-0.4c0.2-0.1,0.4-0.3,0.5-0.3
			c0.4-0.2,0.7-0.6,0.8-1c0.2-0.9-0.3-1.8-1.2-2l-0.2,0c0,0-0.3-0.1-0.5-0.1c-0.2-0.1-0.4-0.2-0.6-0.2c-0.4-0.2-0.8-0.4-1.1-0.6
			c-0.8-0.5-1.5-1.1-2.1-1.7c-1.3-1.3-2.4-2.9-3.2-4.6c-0.8-1.7-1.4-3.5-1.7-5.4c-0.2-0.9-0.2-1.9-0.3-2.8c0-0.9,0-2,0-2.8
			c0-0.6-0.2-1.3-0.7-1.8c-0.9-0.7-2.1-0.6-2.9,0.3l0,0c-1.6,1.9-3.4,3.9-5.3,5.6c-1.9,1.8-4,3.3-6.1,4.7c-1.1,0.7-2.2,1.2-3.4,1.7
			c-0.6,0.3-1.2,0.4-1.8,0.7c-0.6,0.2-1.2,0.4-1.8,0.5c-1.2,0.3-2.4,0.4-3.4,0.3c-0.5-0.1-1-0.2-1.3-0.3c-0.2-0.1-0.3-0.2-0.5-0.3
			c-0.1-0.1-0.1-0.1-0.1-0.1c0,0,0,0,0-0.1c0,0,0,0,0,0l0,0.1l-3.2-0.5c-0.5,0.4-1.1,1-1.8,1.5c-0.6,0.5-1.3,0.9-2,1.4
			c-1.4,0.9-2.9,1.7-4.4,2.4c-3,1.4-6.2,2.6-9.4,3.5c-0.8,0.2-1.6,0.4-2.5,0.6c-0.8,0.1-1.6,0.3-2.4,0.4l-1.2,0.1l-0.6,0.1l-0.5,0
			c-0.4,0-0.7,0-1.1-0.1l-1-0.2c-1.3-0.4-2.2-1.1-2.7-2.2c-0.3-0.5-0.5-1.2-0.5-1.8c0-0.3-0.1-0.7-0.1-1c0-0.3,0-0.8,0-1l0-0.1
			c0.1-0.7-0.2-1.5-0.9-1.9c-0.9-0.6-2.2-0.3-2.8,0.6c-0.5,0.8-1.2,1.7-1.9,2.4c-0.7,0.8-1.4,1.6-2.2,2.3c-1.6,1.4-3.2,2.8-5.1,3.8
			c-3.6,2.2-7.7,3.5-12,3.9c-1,0.1-2.1,0.1-3.2,0.1c-1.1,0-2.1-0.1-3.1-0.2c-2-0.3-4-0.9-5.5-1.9c-1.5-1-2.4-2.5-2.8-4.3
			c-0.2-0.9-0.2-1.9-0.2-2.8c0-0.5,0.1-1,0.2-1.5c0.1-0.5,0.2-1,0.3-1.3c0.2-0.6,0.1-1.4-0.4-1.9c-0.7-0.8-2-1-2.8-0.2
			c-2.6,2.1-5.5,4.1-8.5,5.6c-1.5,0.8-3.1,1.3-4.6,1.7c-1.6,0.4-3.1,0.5-4.5,0.2c-1.4-0.2-2.5-0.8-3.5-1.9c-0.9-1.1-1.6-2.4-2.1-4
			c-1-3.1-1.3-6.6-1.2-9.9v-0.1c0-0.3,0-0.5-0.1-0.8c-0.4-1-1.6-1.5-2.6-1.1c0,0-0.3,0.1-0.4,0.1c-0.2,0-0.4,0.1-0.5,0.1
			c-0.2,0-0.3,0-0.5,0c-0.2,0-0.3,0-0.5-0.1c-0.6-0.1-1-0.4-1.4-0.9c-0.8-1-1.2-2.8-1.3-4.7l0-1.4l0.1-1.4c0-1,0.2-1.9,0.4-2.8
			c0-0.2,0.1-0.5,0.1-0.7l0.2-0.7l0.4-1.3c0.3-0.9,0.7-1.8,1.1-2.6c1.7-3.4,4.2-6.6,6.9-9.4c1.4-1.4,2.9-2.7,4.4-4
			c1.5-1.2,3.2-2.4,4.8-3.4c0.5-0.3,0.9-0.8,1-1.5v0c0.1-0.7,0.3-1.6,0.5-2.5c0.2-0.8,0.5-1.7,0.7-2.5c0.3-0.8,0.6-1.7,0.9-2.5
			c0.4-0.8,0.7-1.6,1-2.4c1.5-3.2,3.4-6.1,5.7-8.7c2.3-2.6,4.9-5,7.9-6.8c1.4-1,3-1.7,4.6-2.5c0.8-0.4,1.6-0.7,2.4-1l2.3-0.9
			c1.8-0.3,3.6-0.3,5.2,0.1c1.7,0.4,3.3,1.2,4.6,2.4c2.6,2.3,4,6.1,3.6,9.5c-0.1,0.6,0.1,1.2,0.6,1.7c0.8,0.8,2.1,0.7,2.8-0.1l0,0
			c1.7-1.8,3.8-3.6,5.9-5.2c2.1-1.6,4.3-3.1,6.5-4.4c4.5-2.6,9.5-4.6,14.5-5.2c5-0.6,10.4,0,14.7,2.2c2.1,1.2,4,2.7,5.5,4.7
			c0.7,1,1.3,2,1.8,3.2c0.3,0.5,0.5,1.1,0.6,1.7c0.2,0.5,0.3,1.2,0.4,1.6l0,0c0.1,0.4,0.2,0.8,0.6,1.1c0.8,0.8,2.1,0.8,2.9,0
			c2.8-2.8,5.9-5.5,9.1-7.9c3.2-2.4,6.6-4.5,10.2-6c0.4-0.2,0.9-0.4,1.3-0.5l1.4-0.4c0.9-0.2,1.8-0.4,2.7-0.5
			c1.9-0.2,3.7-0.2,5.5,0.2c1.8,0.4,3.6,1,5.2,1.9c0.8,0.5,1.6,1,2.3,1.5c0.4,0.3,0.7,0.6,1.1,0.9c0.3,0.3,0.7,0.7,0.9,0.9
			c0.6,0.7,1.7,0.9,2.5,0.4l0,0c1.2-0.7,2.7-1.3,4.2-1.8c1.5-0.5,3-1,4.5-1.3c3-0.7,6.1-0.9,9.2-0.7c1.5,0.1,3,0.4,4.5,0.8
			c1.5,0.4,2.9,0.9,4.3,1.5c2.8,1.3,5.3,3,7.6,5.2l1.6,1.7l0.8,0.8c0.3,0.3,0.5,0.6,0.7,0.9l1.4,1.8c0.5,0.6,0.8,1.3,1.2,2l0.6,1
			c0.2,0.3,0.3,0.7,0.5,1l1,2.1c0.5,1.5,1.1,2.9,1.4,4.4c0.8,3,1.1,6.1,1.1,9.2c0,0.8,0,1.6-0.1,2.3c-0.1,0.8-0.1,1.6-0.2,2.3
			c-0.2,1.5-0.5,3.1-0.9,4.5v0c-0.3,1.1,0.3,2.2,1.4,2.5c1,0.3,2.1,0.7,3.1,1.2c1,0.4,2.1,1,3.1,1.5c2,1.1,3.9,2.4,5.7,3.8
			c3.6,2.8,6.6,6.4,8.7,10.4c2.3,3.9,2.9,8.3,1.4,12.3c-0.8,2-2,3.8-3.4,5.5c-0.7,0.8-1.5,1.6-2.4,2.3c-0.8,0.7-1.8,1.4-2.6,1.9
			c-0.3,0.2-0.6,0.5-0.8,0.8c-0.5,1-0.1,2.2,0.9,2.7c4.5,2.3,8.9,5.1,13,8.1c4.1,3,8,6.4,11.4,10.1c0.9,0.9,1.7,1.9,2.5,2.9
			c0.8,1,1.5,2,2.2,3c1.4,2.1,2.5,4.3,3.4,6.6c0.8,2.3,1.4,4.7,1.6,7.1c0.1,0.6,0,1.2,0.1,1.8c0,0.6,0,1.2-0.1,1.8
			c0,0.6-0.1,1.2-0.2,1.8c-0.1,0.3-0.1,0.6-0.2,0.8c-0.1,0.3-0.2,0.6-0.2,0.7l0,0c-0.2,0.6-0.1,1.2,0.2,1.8c2.7,4.1,5,8.6,7,13.2
			c1.9,4.6,3.5,9.4,3.9,14.1c0.2,2.4,0.1,4.7-0.5,6.9c-0.6,2.2-1.7,4.3-3.1,6s-3.3,3.2-5.3,4.1c-2,0.9-4.3,1.3-6.3,1
			c-0.6-0.1-1.2,0.1-1.7,0.5c-0.8,0.8-0.8,2-0.1,2.9c2.5,2.6,4.9,5.6,6.9,8.7c2.1,3.1,3.9,6.4,5.4,9.7c1.5,3.4,2.6,6.9,3,10.5
			c0.4,3.5,0.1,7.4-0.6,10.9c-0.7,3.6-2.2,6.9-4.5,9.6c-2.3,2.7-5.5,4.8-8.8,6.4c-3.4,1.6-6.9,2.9-10.6,4c-1.8,0.6-3.7,1-5.5,1.5
			l-5.6,1.3h0c-0.2,0-0.4,0.2-0.6,0.4c-0.3,0.4-0.1,1,0.3,1.2c3.2,2.1,6.3,4.7,8.9,7.7c2.6,3,4.8,6.3,6.2,10
			c0.7,1.8,1.2,3.8,1.4,5.7c0.2,2,0.3,4,0.2,6c0,2-0.2,4-0.6,5.9c-0.2,1-0.5,1.9-1,2.8c-0.2,0.4-0.6,0.8-1,1.1
			c-0.4,0.3-0.9,0.4-1.4,0.3c0.5,0.2,1,0,1.4-0.2c0.4-0.3,0.8-0.7,1-1.1c0.5-0.9,0.9-1.8,1.1-2.8c0.5-2,0.7-4,0.8-6c0.1-2,0.2-4,0-6
			c-0.1-2-0.6-4-1.2-6c-1.3-3.9-3.4-7.4-6-10.6c-1.3-1.6-2.7-3-4.2-4.4c-1-0.9-2-1.8-3.1-2.6l3.7-0.7c1.9-0.5,3.8-0.8,5.7-1.3
			l2.8-0.8c0.9-0.3,1.9-0.6,2.8-0.9l1.4-0.5l1.4-0.5c0.9-0.4,1.8-0.7,2.7-1.1c3.6-1.6,7.1-3.7,10-6.7c2.8-3,4.7-6.9,5.6-10.8
			l0.3-1.5c0.1-0.5,0.2-1,0.2-1.5l0.2-1.5c0.1-0.5,0.1-1,0.1-1.5c0.1-1,0.2-2,0.2-3l0-1.5c0-0.5,0-1-0.1-1.5c-0.3-4.1-1.4-8-3-11.7
			c-1.5-3.7-3.5-7.1-5.8-10.4c-1.4-2.1-2.9-4-4.5-6c1.4-0.2,2.7-0.7,4-1.2c2.6-1.2,5-3,6.8-5.1s3.2-4.8,3.9-7.5
			c0.8-2.7,0.9-5.6,0.7-8.3c-0.5-5.4-2.2-10.5-4.2-15.4c-2-4.6-4.2-8.9-6.9-13.1c0-0.1,0-0.1,0-0.2c0.1-0.4,0.2-0.7,0.2-1.1
			c0.1-0.7,0.2-1.4,0.3-2.1c0.1-0.7,0.1-1.4,0.1-2.1c0-0.7,0-1.4-0.1-2.1c-0.2-2.8-0.9-5.6-1.9-8.2c-1-2.6-2.3-5.1-3.8-7.4
			c-0.8-1.1-1.6-2.2-2.4-3.3c-0.9-1-1.7-2.1-2.7-3.1c-3.7-4-7.7-7.5-12-10.6c-2.1-1.6-4.4-3.1-6.6-4.5c-1.4-0.8-2.7-1.7-4.1-2.4
			c0.1-0.1,0.3-0.2,0.4-0.4c1-0.8,1.9-1.8,2.8-2.7c1.7-1.9,3.2-4.2,4.2-6.8c0.9-2.5,1.3-5.4,1-8.1c-0.3-2.7-1.3-5.3-2.6-7.5
			c-2.4-4.5-5.8-8.5-9.7-11.7c-2-1.6-4.1-3-6.3-4.2c-1.1-0.6-2.3-1.2-3.4-1.7c-0.6-0.3-1.2-0.5-1.8-0.7c0-0.2,0.1-0.4,0.1-0.7
			c0.2-0.8,0.3-1.7,0.4-2.6c0.1-0.8,0.2-1.7,0.3-2.6c0.1-0.9,0.1-1.7,0.1-2.6c0-3.4-0.3-6.9-1.2-10.3c-0.4-1.7-1-3.3-1.6-5
			c-0.4-0.8-0.7-1.6-1.1-2.4c-0.2-0.4-0.4-0.8-0.6-1.2l-0.7-1.1c-0.5-0.7-0.9-1.5-1.4-2.2l-1.6-2.1c-0.3-0.3-0.5-0.7-0.8-1l-0.9-0.9
			l-1.8-1.9c-2.5-2.4-5.5-4.4-8.6-5.9c-1.6-0.7-3.3-1.3-5-1.8c-1.7-0.4-3.4-0.7-5.2-0.9c-3.5-0.3-7,0-10.4,0.7
			c-1.7,0.4-3.4,0.9-5,1.4c-1.2,0.4-2.3,0.9-3.5,1.4c-0.5-0.4-1-0.8-1.5-1.2c-0.9-0.7-1.9-1.3-2.8-1.8c-2-1.1-4.1-1.9-6.4-2.3
			c-2.2-0.5-4.5-0.5-6.8-0.3c-1.1,0.1-2.2,0.4-3.3,0.6c-0.5,0.2-1.1,0.3-1.6,0.5c-0.5,0.2-1,0.4-1.5,0.6c-4,1.7-7.7,4-11,6.5
			c-2.5,1.9-4.8,3.8-7.1,5.9c-0.1-0.3-0.2-0.6-0.4-0.9c-0.6-1.4-1.4-2.7-2.2-3.9c-1.8-2.4-4.2-4.4-6.8-5.9c-2.6-1.5-5.6-2.1-8.4-2.6
			c-1.4-0.1-2.9-0.4-4.3-0.3l-2.2,0l-2.2,0.2c-5.8,0.7-11.1,2.9-16,5.7c-2.4,1.4-4.8,3-7,4.7c-1,0.8-2.1,1.7-3.1,2.5
			c-0.2-0.8-0.4-1.6-0.7-2.4c-0.9-2.2-2.2-4.3-4-5.9c-1.8-1.6-4-2.8-6.3-3.3c-2.3-0.6-4.7-0.5-7-0.1l0,0c-0.1,0-0.1,0-0.2,0l-2.7,1
			c-0.9,0.4-1.8,0.6-2.6,1.1c-1.7,0.9-3.5,1.7-5,2.8c-3.3,2-6.2,4.6-8.7,7.5c-2.5,2.9-4.7,6.2-6.3,9.6c-0.4,0.9-0.8,1.8-1.1,2.6
			c-0.3,0.9-0.7,1.8-1,2.7c-0.3,0.9-0.6,1.8-0.8,2.8c-0.2,0.7-0.3,1.3-0.4,2c-1.6,1-3,2.1-4.4,3.2c-1.7,1.3-3.2,2.8-4.8,4.3
			c-3,3-5.7,6.5-7.7,10.4c-0.4,1-0.9,2-1.3,3.1l-0.5,1.6l-0.2,0.8c-0.1,0.3-0.1,0.6-0.1,0.8c-0.2,1.1-0.4,2.2-0.4,3.3l-0.1,1.6
			l0,1.7c0,0.6,0.1,1.1,0.2,1.7l0.1,0.9c0,0.3,0.1,0.6,0.2,0.9l0.2,0.9c0.1,0.3,0.2,0.6,0.4,0.9c0.2,0.6,0.6,1.2,1,1.7
			c0.9,1.1,2.3,2,3.7,2.3C277.7,109.5,278.1,109.5,278.4,109.5z"/>
		<path d="M451.7,168.1c0.7,0.5,1.4,0.8,2.2,1.1c0.7,0.3,1.5,0.6,2.2,0.8c0.8,0.2,1.5,0.4,2.2,0.6c0.8,0.2,1.6,0.3,2.4,0.3
			c1.7,0.1,3.5-0.2,5.1-1.2c1.6-0.9,2.9-2.4,3.6-3.9c0.8-1.5,1.3-3.1,1.5-4.6c-0.3-1.6-0.8-3.2-1.7-4.6c-0.8,1.4-1.5,2.7-2.3,3.9
			c-0.2,1.2-0.6,2.4-1.1,3.4c-1.1,2-2.8,3-5.1,2.9c-0.6,0-1.2-0.1-1.8-0.2c-0.6-0.1-1.3-0.3-1.9-0.5c-0.6-0.2-1.2-0.4-1.8-0.6
			c-0.5-0.3-1.1-0.5-1.6-0.8c-1-0.6-1.7-1.4-2-2.2c-0.9-0.6-1.6-1.7-1.9-3.4c-1.3,1-2.1,2.9-1.8,4.9
			C448.9,165.9,450.2,167.2,451.7,168.1z"/>
		<path d="M413.7,360.7c1.5,0.1,3-0.1,4.3-0.3c0.7-0.2,1.2-0.2,2.3-0.6c0.8-0.4,1.5-0.8,2.1-1.2c1.2-0.9,2.2-1.8,3.2-2.8
			c3.7-3.9,6.8-8.1,9.8-12.4c3-4.3,5.8-8.6,8.6-13c5.5-8.8,10.8-17.7,16-26.6c10.3-17.9,20.2-36.1,29.9-54.4l3.6-6.9
			c1.2-2.3,2.4-4.6,3.5-7c2.2-4.7,4.2-9.6,5.8-14.6c1.6-5,2.8-10.1,3.7-15.3c0.8-5.2,1.3-10.5,1.1-15.9c-0.1-2.7-0.5-5.4-1.5-8.2
			c-1-2.7-2.7-5.4-5.4-7l-0.5-0.3l-0.5-0.2l-1.1-0.4c-0.7-0.2-1.4-0.4-2.1-0.6c-1.4-0.3-2.8-0.4-4.2-0.4c-2.8,0-5.5,0.5-8.1,1.3
			c-5.1,1.6-9.8,4.2-14.1,7.2c-4,2.7-7.6,5.8-11.1,9.1l-1.6-18l0.5,19.4c0,0.1,0.1,0.3,0.2,0.4c0.2,0.2,0.6,0.3,0.9,0l0,0
			c3.8-3.4,7.9-6.5,12.2-9.2c4.3-2.6,9-4.9,13.8-6.1c2.4-0.6,4.8-0.9,7.2-0.7c1.2,0.1,2.3,0.3,3.5,0.6c0.5,0.2,1.1,0.4,1.6,0.6
			l0.7,0.4l0.4,0.2l0.3,0.2c1.7,1.2,2.9,3.1,3.6,5.2c0.7,2.2,1.1,4.6,1.3,7c0.3,4.9-0.2,10-1,15c-0.8,5-2,9.9-3.5,14.8
			c-1.5,4.8-3.4,9.6-5.6,14.1c-1.1,2.3-2.3,4.5-3.5,6.8l-3.6,6.9c-9.7,18.2-19.5,36.4-29.8,54.2c-5.1,8.9-10.4,17.8-15.9,26.5
			c-2.8,4.3-5.6,8.6-8.5,12.8c-2.9,4.2-6,8.3-9.4,11.9c-0.9,0.9-1.7,1.7-2.6,2.3c-0.4,0.3-0.9,0.6-1.2,0.8c-0.2,0.1-0.9,0.2-1.5,0.4
			c-1.2,0.2-2.3,0.3-3.4,0.3c-1.1-0.1-2.1-0.3-3.2-0.7c-2.1-0.8-4.2-2.1-6.2-3.5c-2-1.5-4-3-5.9-4.7c-1.9-1.7-3.8-3.4-5.6-5.2
			l-2.9-2.6c-1-0.9-1.9-1.8-2.9-2.6l-3-2.6l-3-2.5c-2-1.7-4-3.3-6-5c-16-13.1-32.1-26-47.3-39.8c-7.6-7-15-14.1-21.3-22
			c-3.3-3.9-6-8.1-8.2-12.6c-2.2-4.5-4-9.2-5.1-14.1c-1.1-4.9-1.6-9.9-1.4-14.9c0.1-4.9,1.2-9.7,3.5-14.1c1.1-2.2,2.5-4.2,4-6
			c1.6-1.8,3.4-3.4,5.4-4.5c1-0.5,2-1,3.1-1.3c0.5-0.2,1.1-0.2,1.6-0.3c0.5,0,1.1-0.1,1.6-0.1c2.2,0.1,4.4,0.8,6.5,2l0.1,0.1
			c0.2,0.1,0.5,0.2,0.8,0.2c1,0,1.8-0.7,1.8-1.6c0.2-5.3,0.2-10.6,0.1-15.8c-0.1-5.3-0.4-10.5-0.9-15.8c-0.5-5.2-1.1-10.5-2.2-15.6
			c-1.1-5.1-2.5-10.3-4.6-15.1c1.8,4.9,2.9,10.1,3.6,15.2s1.1,10.4,1.3,15.6c0.2,5.2,0.2,10.4,0,15.6c-0.1,4.3-0.4,8.6-0.7,12.9
			c-1.7-0.8-3.6-1.4-5.6-1.5c-0.4-0.1-0.7-0.1-1.1,0c-0.4,0-0.8,0-1.1,0c-0.7,0.1-1.5,0.2-2.2,0.4c-1.5,0.3-2.8,0.9-4.1,1.6
			c-2.5,1.4-4.6,3.4-6.4,5.4c-1.8,2.1-3.4,4.4-4.6,6.8c-2.5,4.9-3.8,10.4-3.9,15.8c-0.1,5.3,0.3,10.7,1.5,15.9
			c2.3,10.4,7.3,20.2,14.1,28.3c6.6,8.2,14.1,15.4,21.8,22.4c15.3,14,31.5,26.9,47.5,40c2,1.6,4,3.3,6,4.9l3,2.5l2.9,2.5
			c1,0.8,1.9,1.7,2.9,2.5l2.8,2.6c1.9,1.8,3.8,3.6,5.8,5.3c2,1.7,4,3.4,6.2,5c2.2,1.5,4.5,3,7.2,4
			C410.7,360.3,412.2,360.6,413.7,360.7z"/>
		<path d="M350.2,211.7c0.5-1,1-1.9,1.5-2.9l1.3-2.9c0.8-1.9,1.8-3.9,2.4-5.9c0.7-2,1.2-4,1.8-6c2.3-8.1,4.2-16.2,5.7-24.4
			c-2.7,7.9-5.6,15.7-8.8,23.4c-0.8,1.9-1.6,3.8-2.5,5.7c-0.8,1.9-1.5,3.8-2.3,5.7l-1.3,2.8c-0.4,0.9-0.9,1.8-1.4,2.7
			c-0.5,0.9-1,1.7-1.5,2.5c-0.2,0.4-0.5,0.8-0.8,1.1l-0.9,1.1l-0.1,0.2c-0.6,0.8-0.5,1.9,0.2,2.6c0.8,0.8,1.5,1.4,2.4,2
			c0.8,0.6,1.6,1.1,2.5,1.7c1.7,1,3.5,1.9,5.4,2.6c1.9,0.7,3.9,1.2,5.9,1.4c0.9,0.1,1.8,0.2,2.8,0.1c-2.4,6-5,11.9-7.8,17.7
			c-1.6,3.4-3.4,6.7-5.3,9.8c-1,1.5-2,3-3.1,4.1c-0.1,0.1-0.3,0.2-0.4,0.4l-0.2,0.1c-0.1,0-0.2,0.2-0.3,0.2
			c-0.2,0.2-0.5,0.4-0.8,0.7c-0.3,0.3-0.6,0.6-0.9,1.4c-0.1,0.4-0.2,1,0,1.6c0.1,0.3,0.2,0.5,0.4,0.7c0.1,0.1,0.1,0.2,0.2,0.3
			c0.1,0.1,0.1,0.1,0.2,0.2c0.6,0.5,1,0.6,1.4,0.7c0.7,0.2,1.3,0.2,1.8,0.3c2.2,0.1,4.1-0.1,6.1-0.4c1.9-0.3,3.8-0.7,5.7-1.2
			c3.8-0.9,7.5-2.1,11-3.6c1.8-0.7,3.6-1.6,5.3-2.4c0.9-0.4,1.7-0.9,2.6-1.4l2.5-1.4c3.2-1.9,6.5-3.6,9.8-4.8
			c1.7-0.6,3.4-1.1,5.1-1.5c1.7-0.3,3.4-0.5,5-0.3c0.8,0.1,1.5,0.3,2,0.6c0.1,0,0.1,0.1,0.2,0.1c0.1,0.2,0.1,0.5,0.2,0.8
			c0.3,1.6,0.3,3.4,0.2,5.2c-0.4,7.1-2.9,14.2-7.3,19.8c-2.2,2.8-4.8,5.3-7.8,7.2c-0.7,0.5-1.5,1-2.2,1.5l-2.4,1.4
			c-0.9,0.5-1.7,1.1-2.5,1.7c-0.8,0.7-1.7,1.4-2.3,2.7c-0.3,0.7-0.5,1.6-0.2,2.4c0.2,0.8,0.7,1.3,1.1,1.8c0.9,0.8,1.9,1.2,2.8,1.6
			c1.9,0.8,3.7,1.2,5.6,1.7c3.7,0.9,7.5,1.4,11.2,2.1c-3.6-1.1-7.2-2.3-10.7-3.6c-1.7-0.7-3.5-1.4-5-2.2c-0.8-0.4-1.5-0.9-1.9-1.4
			c-0.2-0.2-0.3-0.5-0.3-0.6c0-0.1,0-0.2,0.1-0.4c1.4-2,5.9-3,9.1-5.3c0.8-0.6,1.6-1.1,2.4-1.8c0.8-0.6,1.5-1.3,2.3-1.9
			c1.4-1.4,2.8-2.8,4-4.4c4.9-6.3,7.7-14.1,8.2-22c0.1-2,0.1-4-0.3-6.1c-0.1-0.6-0.2-1.1-0.5-1.8c0-0.1-0.2-0.5-0.4-0.7
			s-0.3-0.3-0.5-0.5c-0.3-0.3-0.6-0.5-0.9-0.7c-1.2-0.7-2.3-0.9-3.4-1.1c-4.4-0.4-8.3,0.7-12,2c-3.7,1.4-7.2,3.1-10.5,5.1l-2.4,1.4
			c-0.8,0.5-1.6,0.9-2.4,1.3c-1.6,0.8-3.3,1.6-5,2.3c-3.4,1.4-6.9,2.6-10.5,3.4c-1.8,0.4-3.6,0.8-5.4,1.1c-1.3,0.2-2.6,0.3-3.8,0.4
			c1.4-1.5,2.4-3,3.4-4.5c2.1-3.3,3.8-6.7,5.5-10.1c3.3-6.9,6.3-13.8,9.1-20.9c0.1-0.3,0.2-0.6,0.1-0.9c-0.1-1.1-1.1-1.9-2.2-1.8
			l-0.1,0c-1.7,0.2-3.4,0.3-5,0.1c-1.7-0.2-3.4-0.6-5-1.2c-1.6-0.6-3.2-1.4-4.7-2.2c-0.7-0.5-1.5-0.9-2.2-1.5
			c-0.2-0.1-0.4-0.3-0.6-0.5c0.3-0.4,0.6-0.7,0.8-1.1C349.1,213.6,349.7,212.7,350.2,211.7z M347.5,260.9
			C347.5,260.9,347.5,260.9,347.5,260.9L347.5,260.9z"/>
		<path d="M382.8,282.5c0.5-1.4,0.8-2.9,0.8-4.4c-0.5-1.3-1.2-2.5-1.9-3.7c-1.5-2.3-3.4-4.4-5.4-6.2c-2-1.8-4.2-3.4-6.5-4.7
			c-1.1-0.7-2.3-1.3-3.5-2c-1.5-0.1-2.9-0.1-4.4,0.2c0.8,1.3,1.7,2.3,2.5,3.4c0.5,0.3,1.1,0.5,1.6,0.9c0.5,0.3,1.1,0.6,1.6,0.9
			c2.1,1.3,4.1,2.7,5.9,4.3s3.4,3.4,4.6,5.4c0.5,1,1.2,2,1.5,3.1C380.9,280.4,381.7,281.4,382.8,282.5z"/>
		<ellipse cx="338.4" cy="177" rx="2.1" ry="13.8"/>
		<path d="M384.6,189c1.5-0.1,2.2-7.1,1.6-15.6s-2.4-15.3-3.9-15.1s-2.2,7.1-1.6,15.6S383.1,189.2,384.6,189z"/>
		<path d="M324,357.1c-4.6,6.5-9.1,13.2-13.2,20.1c-2.1,3.5-4,7-5.9,10.6c-1.8,3.6-3.5,7.3-4.9,11.2c-0.4,1-0.7,2-1,2.9l-0.5,1.5
			l-0.4,1.5c-0.1,0.5-0.2,1-0.4,1.5l-0.3,1.5l-0.5,3c-0.7,4-1.2,8-1.7,12c-1,8-1.7,16-2.3,23.9c-0.6,8-1.1,16-1.5,24
			c0.2,8,0.5,16,1.1,24l2.9-23.8c0.4-8,0.9-15.9,1.5-23.9c0.6-7.9,1.3-15.9,2.3-23.8c0.5-3.9,1-7.9,1.7-11.8l0.5-2.9l0.3-1.5
			c0.1-0.5,0.2-0.9,0.3-1.4l0.3-1.4l0.4-1.4c0.3-0.9,0.5-1.8,0.9-2.8c1.3-3.6,2.9-7.2,4.7-10.7s3.7-7,5.7-10.4
			c4.1-6.8,8.5-13.4,13.1-19.9c4.6-6.5,9.4-12.9,14.3-19.1c4.5-6.6,9-13.2,13.6-19.8c-5.9,5.5-11.4,11.3-16.8,17.2
			C333.5,344.1,328.6,350.5,324,357.1z"/>
		<path d="M509.4,331.1c-7.3-5.9-14.8-11.3-22.6-16.5c-8.1-4.6-16.3-9-24.9-12.7c7.8,5.1,15.3,10.4,22.7,16
			c7.7,5.1,15.1,10.5,22.3,16.2c14.2,11.5,27.6,24.5,37.6,39.8c0.7,0.9,1.2,1.9,1.8,2.9c0.6,1,1.2,1.9,1.7,2.9c1,2,2.2,4,3,6.1
			c2,4.1,3.3,8.4,4.5,12.7c2.2,9,4.3,18,6.1,27c1.8,9,3.4,18.1,4.8,27.2c1,4.5,1.8,9,2.7,13.6c0.4,2.3,0.8,4.6,1.2,6.9
			c0.4,2.3,0.7,4.6,1,6.9c0.4-9.3-0.1-18.6-0.8-27.9c-1.3-9.2-3-18.4-4.8-27.5c-1.9-9.1-3.9-18.2-6.2-27.2
			c-1.2-4.6-2.7-9.1-4.7-13.4c-0.9-2.2-2.1-4.2-3.2-6.4c-0.5-1-1.2-2-1.8-3.1c-0.6-1-1.2-2-1.8-3C537.5,356,523.9,342.8,509.4,331.1
			z"/>
		<path d="M286.9,499C286.9,499,286.9,499,286.9,499L286.9,499z"/>
		<path d="M503.2,457.5c-0.3-2.1-0.7-4.1-1.1-6.1c-0.4-2-0.7-4.1-1.2-6.1l-1.4-6.1c-0.2-1-0.5-2-0.8-3l-0.8-3l-0.8-3l-1-3
			c-0.6-2-1.3-4-2-6c-0.7-2-1.5-3.9-2.4-5.9c-0.4-1-0.8-1.9-1.3-2.9c-0.2-0.5-0.5-0.9-0.7-1.4c-0.2-0.5-0.4-1-0.7-1.4
			c-0.6-0.9-1.3-1.7-2-2.5c-0.7-0.8-1.4-1.6-2.1-2.4c-1.5-1.5-3.1-3-4.9-4.1c0.6,0.8,1.2,1.7,1.7,2.6c0.5,0.9,1,1.8,1.4,2.7
			c0.2,0.5,0.4,0.9,0.6,1.4c0.2,0.5,0.4,0.9,0.6,1.4c0.4,1,0.8,1.9,1.1,2.8c0.2,0.5,0.4,0.9,0.7,1.3s0.5,0.9,0.7,1.3
			c0.4,0.9,0.8,1.8,1.2,2.8c0.9,1.8,1.6,3.7,2.3,5.6c0.8,1.9,1.4,3.8,2,5.8l0.9,2.9l0.8,3l0.8,3c0.3,1,0.5,2,0.7,3l1.3,6
			c0.5,2,0.8,4,1.1,6c0.4,2,0.8,4,1.1,6.1l0.9,6.1c0.3,2,0.6,4.1,0.8,6.1c0.4,4.1,0.9,8.2,1.2,12.3c0.9,4,1.8,8.1,2.8,12.2
			c0.5-4.2,0.8-8.3,1.1-12.5c-0.3-4.1-0.8-8.3-1.2-12.4c-0.2-2.1-0.5-4.1-0.8-6.2L503.2,457.5z"/>
		<path d="M592.5,509.6c-0.3-2.5-0.7-5-1.3-7.4c-1.1-4.9-2.4-9.6-4.3-14.3c-0.5-1.2-1-2.3-1.6-3.5c-0.6-1.2-1.3-2.3-2.4-3.5
			c-0.3-0.3-0.7-0.6-1.1-0.9c-0.5-0.3-1.1-0.5-1.9-0.5c-0.8,0-1.5,0.3-2,0.7c-0.1,0.1-0.2,0.2-0.3,0.3c-0.1,0.1-0.2,0.2-0.2,0.2
			c-0.1,0-0.1,0.1-0.2,0.1c-0.6,0.4-1.7,1-2.7,1.4c-4.3,1.8-9,3.1-13.7,4.4c-9.3,2.6-18.8,4.9-28.3,7l-28.1,8.2
			c9.7-1.2,19.4-2.7,29-4.3c9.5-2.2,19-4.5,28.5-7.1c2.4-0.7,4.7-1.3,7.1-2.1c2.4-0.7,4.7-1.5,7.1-2.5c1.2-0.5,2.3-1,3.7-2l0.4-0.3
			c0,0,0.1,0.1,0.1,0.1c0.6,0.6,1.2,1.5,1.7,2.5c0.5,1,1,2,1.5,3.1c1.8,4.4,3.1,9,4.1,13.6c0.5,2.3,0.9,4.7,1.2,7
			c0.1,1.1,0.2,2.3,0.1,3.3c0,0.2,0,0.3-0.1,0.4c0,0-0.1,0-0.2,0.1c-0.2,0.1-0.5,0.2-0.8,0.3c-2.2,0.8-4.5,1.5-6.8,2.2
			c-2.3,0.7-4.7,1.4-7,2c-4.7,1.3-9.4,2.6-14.1,3.7c-9.4,2.4-18.9,4.5-28.4,6.3c-4.8,0.9-9.5,1.6-14.3,2.1c-2.4,0.2-4.8,0.3-7,0.2
			c-0.5,0-1.1-0.1-1.6-0.2c-0.2,0-0.5-0.1-0.7-0.2L507,530c-0.9-0.4-1.6-0.9-2.3-1.5c-1.4-1.2-2.3-3.2-2.7-5.4
			c-0.4-2.2-0.5-4.6-0.4-7c0.1-2.4,0.5-4.8,0.9-7.2c0.4-2.4,1-4.8,1.7-7.1c-2.1,4.4-3.7,9.1-4.7,14c-0.5,2.5-0.8,5-0.6,7.6
			c0.2,2.6,0.9,5.5,2.9,7.8c1,1.2,2.4,1.9,3.8,2.4c0.7,0.2,1.4,0.4,2.1,0.5c0.7,0.2,1.4,0.2,2,0.2c2.6,0.2,5.1,0,7.6-0.2
			c5-0.5,9.8-1.2,14.7-2.1c9.7-1.8,19.2-4,28.7-6.3c4.7-1.2,9.5-2.5,14.2-3.8c2.4-0.7,4.7-1.3,7.1-2c2.4-0.7,4.7-1.4,7.1-2.3
			c0.3-0.1,0.6-0.2,0.9-0.4c0.2-0.1,0.3-0.1,0.5-0.2l0.3-0.2l0.2-0.1c0,0,0.1-0.1,0.2-0.2c0.8-0.8,0.9-1.4,1.1-1.8
			c0.1-0.5,0.2-0.9,0.2-1.2C592.7,512.2,592.6,510.9,592.5,509.6z M588.5,513.9C588.5,513.9,588.5,513.9,588.5,513.9L588.5,513.9z"
			/>
		<path d="M400.2,371.6c-2.1,2.8-5,4.8-8.3,5.2c-1.6,0.2-3.4,0.2-5.1-0.1l-1.3-0.3c-0.4-0.1-0.9-0.3-1.3-0.4
			c-0.4-0.1-0.8-0.3-1.2-0.5c-0.4-0.2-0.8-0.3-1.1-0.5c-3-1.6-5.5-4.2-7.7-7.2c-2.1-3-3.9-6.3-5.4-9.7c-1.5-3.4-2.8-7-4-10.6
			c-1.1-3.6-2.2-7.3-3-11c-1.5-3.6-2.8-7.2-4.2-10.9c-0.2,3.9,0,7.9,0.3,11.8c0.9,3.8,1.9,7.6,3.1,11.3c1.2,3.7,2.5,7.4,4.2,11
			c1.6,3.6,3.5,7.1,5.8,10.4c2.4,3.2,5.2,6.4,9.1,8.4c0.5,0.3,1,0.5,1.5,0.7s1,0.4,1.5,0.6c0.5,0.1,1,0.3,1.5,0.5l1.5,0.4
			c2.1,0.4,4.3,0.5,6.4,0.2c2.2-0.3,4.3-1.2,6.1-2.4s3.4-2.7,4.7-4.4c2.1-3.7,3.1-7.7,3.2-11.7C404.9,365.9,402.8,369.2,400.2,371.6
			z"/>
		<path d="M416.7,381.5c1.2,0.8,2.5,1.5,3.8,2.1c2.6,1.1,5.4,1.9,8.2,2.3c2.8,0.4,5.5,0.5,8.3,0.5c1.3,0,2.9-0.1,4.3-0.4
			c1.5-0.3,2.9-0.8,4.2-1.4c1.3-0.6,2.6-1.4,3.8-2.2c1.2-0.9,2.3-1.8,3.3-2.8c2-2,3.8-4.2,5.2-6.5c3-4.6,5.3-9.6,7.2-14.7
			s3.4-10.2,4.7-15.5c1.3-5.2,2.3-10.5,3.2-15.8c0.3-5.4,0.4-10.8,0-16.1c-1.3,5.2-2.6,10.4-4,15.5c-0.8,5.2-1.9,10.4-3.1,15.5
			c-1.2,5.1-2.7,10.1-4.5,15c-1.8,4.9-4,9.6-6.8,13.9c-2.8,4.2-6.3,8.1-10.6,10c-1.1,0.5-2.2,0.9-3.4,1.1c-1.2,0.2-2.3,0.3-3.6,0.3
			c-2.6,0.1-5.1,0-7.6-0.4c-5-0.7-9.7-2.6-13.1-5.9c-3.8-3-6.4-7.8-7.2-13c-0.8,5.3,0.7,11.2,4.4,15.8
			C414.2,379.9,415.5,380.7,416.7,381.5z"/>
		<path d="M437.6,483.7c0.9,0.2,1.8,0.5,2.7,0.7c0.9,0.2,1.8,0.4,2.7,0.6c3.6,0.7,7.3,1,11,0.9c3.7,0,7.4-0.4,11-1.2
			c1.8-0.3,3.6-0.9,5.4-1.4c0.8-0.5,1.6-1.2,2.3-1.8c0.7-0.6,1.5-1.3,2.1-2c-1,0-1.9,0-2.9,0c-0.9,0-1.8,0.1-2.8,0
			c-1.6,0.5-3.3,1-5,1.3c-3.4,0.8-6.8,1.1-10.2,1.1c-3.4,0.1-6.9-0.2-10.3-0.9c-1.7-0.3-3.4-0.7-5-1.2c-1.8,0.1-3.6,0.1-5.6,0.2
			C434.5,481.4,436,482.6,437.6,483.7z"/>
		<path d="M399.1,423.8c0.9-7.8,2.1-15.6,3.4-23.3c0.8-7.8,1.7-15.7,2.6-23.6c-2.5,7.5-4.6,15.2-6.5,22.9
			c-1.3,7.8-2.5,15.6-3.4,23.5c-0.9,7.9-1.6,15.8-1.8,23.8c-0.1,4,0,8,0.2,12c0.3,4,0.8,8,1.9,12.1c0.3,1,0.6,2,0.9,3l0.9,2.7
			c0.7,1.8,1,3.7,1.5,5.5c0.8,3.7,1.4,7.5,1.5,11.3c0.1,3.8-0.1,7.6-0.7,11.4c-0.6,3.8-1.5,7.5-2.8,11.2l-0.9,2.8
			c-0.2,0.5-0.3,1-0.4,1.6l-0.3,1.4l-1.3,5.8c-0.9,3.9-1.8,7.7-2.4,11.7c-0.4,4-0.7,8-0.8,12c0,4,0.2,8,1,11.9c0-1,0-2,0.1-3
			c0.1-1,0.1-2,0.3-2.9c0.2-2,0.5-3.9,0.8-5.8c0.7-3.8,1.6-7.7,2.6-11.4c0.7-3.8,1.5-7.7,2.4-11.5l1.3-5.8l0.3-1.5
			c0.1-0.4,0.2-0.8,0.4-1.3l0.9-2.8c1.2-3.8,2.3-7.8,2.9-11.8c0.6-4,0.9-8.1,0.7-12.2c-0.1-4.1-0.8-8.1-1.6-12.1
			c-0.5-2-0.9-4-1.6-5.9l-1-2.9c-0.3-0.9-0.6-1.8-0.8-2.7c-1-3.6-1.5-7.4-1.7-11.3s-0.3-7.7-0.2-11.6
			C397.5,439.4,398.2,431.5,399.1,423.8z"/>
		<path d="M305.3,594.9c4.2,1.7,8.7,2.6,13.2,2.9c4.5-0.3,8.9-1.2,13-3c-4.4,0.2-8.6-0.2-12.7-1c-4.1-0.3-8.2-1.1-11.9-2.6
			c-3.8-1.5-7.2-3.7-10.1-6.6c-0.4-0.3-0.7-0.7-1.1-1.1c-0.3-0.4-0.7-0.7-1-1.1l-1-1.2c-0.3-0.4-0.5-0.8-0.8-1.2
			c-1-1.6-1.9-3.4-2.3-5.3c-1-3.8-0.9-8-0.4-12c0.5-4.1,1.6-8.2,2.7-12.4c1.2-4.2,1.9-8.6,2.6-12.9c0-4.3,0-8.5-0.5-12.7
			c0.2,0,0.4,0,0.6,0c4.5,0,8.9-0.1,13.3-0.2c4.4-0.8,8.8-1.5,13.2-2.5c-4.5-0.6-8.9-1-13.3-1.5c-4.4,0.1-8.8,0.2-13.2,0.2
			c-4.4,0-8.8,0-13-0.4c-0.5-0.1-1-0.1-1.5-0.2c-0.3,0-0.6-0.1-0.8-0.2c0-0.3-0.1-0.8-0.1-1.3c0.1-2,0.4-4.1,0.9-6.2
			c0.5-2.1,1-4.2,1.7-6.2c0.7-2,1.5-4,2.6-5.6c0.5-0.8,1.1-1.5,1.5-1.7c0.1,0,0.1,0,0.1,0c0,0,0,0,0,0c0,0,0,0,0,0c0,0,0,0,0,0
			l0.1,0l0.2,0.1l1,0.4c1.2,0.4,2.4,0.7,3.5,0.9c1.2,0.2,2.3,0.4,3.4,0.5c4.5,0.5,9,0.7,13.4,0.9c4.5-0.5,8.9-1,13.4-1.9
			c-4.4-0.8-8.8-1.4-13.2-2.2c-4.4-0.1-8.8-0.4-13.1-0.9c-1-0.2-2.1-0.3-3.1-0.5c-1-0.2-2-0.4-2.9-0.7l-1.6-0.7
			c-1.1-0.3-2.3-0.1-3.1,0.3c-1.6,0.9-2.3,2-3.1,3c-1.4,2.1-2.2,4.3-3,6.5c-0.8,2.2-1.4,4.4-1.9,6.6c-0.5,2.3-0.9,4.5-1,7
			c0,0.6,0,1.2,0.1,2c0,0.2,0,0.4,0.1,0.6l0.1,0.3l0,0.2l0.1,0.2c0.2,0.3,0.3,0.6,0.7,1c0.3,0.3,0.6,0.4,0.8,0.5
			c0.9,0.4,1.5,0.5,2.1,0.6c0.6,0.1,1.2,0.2,1.8,0.2c4.4,0.4,8.6,0.5,12.8,0.5c-1.1,4.1-2.2,8.2-3.4,12.1c-0.6,4.2-1.4,8.4-2.5,12.4
			c-1.1,4.2-2.2,8.4-2.8,12.9c-0.3,2.2-0.5,4.5-0.4,6.7c0,2.3,0.3,4.6,0.9,6.8c0.5,2.3,1.5,4.5,2.9,6.5c0.3,0.5,0.7,1,1,1.5l1.1,1.3
			c0.4,0.4,0.8,0.8,1.1,1.3c0.4,0.4,0.8,0.8,1.2,1.2C297.2,590.7,301.1,593.2,305.3,594.9z"/>
		<path d="M570,613.6c-0.4-1-1-1.8-1.6-2.6c-1.3-1.5-3-2.5-4.7-3.1c-3.3-1.3-6.8-1.5-10.1-1.6c1.6,0.4,3.2,0.8,4.8,1.4
			c1.5,0.6,3,1.2,4.4,2.1c1.3,0.8,2.5,1.9,3.2,3c0.7,1.2,0.9,2.5,0.8,3.7c-0.1,0.6-0.1,1.3-0.3,2c-0.2,0.7-0.4,1.3-0.7,2
			c-0.3,0.6-0.7,1.3-1.1,1.8c-0.1,0.1-0.2,0.2-0.2,0.3l-0.4,0.5l-0.8,0.9c-1,1.1-2.1,1.8-3.5,2.5c-1.3,0.6-2.8,1-4.3,1.2
			c-3,0.5-6.2,0.3-9.4-0.1c-0.8-0.1-1.6-0.2-2.4-0.4c-0.8-0.2-1.6-0.3-2.4-0.5l-2.4-0.6l-1.2-0.3l-1.1-0.3c-1.4-0.4-2.8-1.2-4.1-1.9
			c-0.6-0.4-1.3-0.8-1.8-1.3c-0.6-0.5-1.2-1-1.7-1.5c-2.2-2.2-4-4.8-5.5-7.6c-3-5.6-4.7-12-5.6-18.4c-0.5-3.2-0.7-6.5-0.7-9.7
			c0-3.2,0.2-6.5,0.8-9.5c0.1-0.4,0.2-0.8,0.3-1.1c0.1-0.4,0.2-0.7,0.3-1.1c0.1-0.3,0.2-0.7,0.4-1l0.5-1.1c0.4-0.9,0.8-1.7,1-2.6
			c0.3-0.9,0.5-1.7,0.7-2.6c0.4-1.7,0.7-3.4,0.9-5.1c0.2-1.7,0.5-3.4,0.5-5.1c-0.2-6.8-1-13.5-2.4-20.1c-0.3,6.7-0.7,13.4-1.7,19.9
			c-0.2,3.3-0.5,6.5-1.2,9.6c-0.2,0.8-0.4,1.5-0.6,2.2c-0.2,0.8-0.5,1.4-0.8,2.1l-0.2,0.5l-0.3,0.7c-0.2,0.5-0.4,0.9-0.5,1.3
			c-0.2,0.5-0.3,0.9-0.4,1.3c-0.1,0.4-0.2,0.9-0.3,1.3c-0.7,3.5-0.9,6.9-0.9,10.4c0,3.4,0.3,6.9,0.8,10.2c1,6.8,2.8,13.5,6,19.7
			c1.6,3.1,3.7,6,6.2,8.6c0.6,0.7,1.3,1.2,2,1.8c0.7,0.6,1.5,1.1,2.2,1.6c1.6,0.9,3.2,1.8,5,2.3l1.3,0.4l1.2,0.3l2.5,0.6
			c0.8,0.2,1.7,0.3,2.5,0.5s1.7,0.3,2.6,0.4c3.4,0.5,7,0.6,10.6,0.1c1.8-0.3,3.6-0.8,5.3-1.6c1.7-0.8,3.4-1.9,4.7-3.3
			c0.3-0.3,0.6-0.7,0.9-1l0.4-0.4c0.2-0.2,0.4-0.5,0.5-0.7c0.6-0.8,1.1-1.6,1.5-2.5s0.7-1.8,1-2.7s0.5-1.9,0.4-3
			C570.6,615.5,570.3,614.5,570,613.6z"/>
		<path d="M583.1,587.2l-0.3-0.8c-0.1-0.3-0.3-0.5-0.4-0.8c-0.2-0.2-0.3-0.5-0.5-0.8l-0.6-0.7c-0.4-0.5-0.9-0.8-1.3-1.2
			c-1.9-1.3-4.1-1.7-6.1-1.8c-2,0.5-3.8,1.4-5.4,2.5c1.9,0.5,3.7,0.8,5.2,1.5c1.5,0.1,3,0.4,4,1.1c1,0.7,1.6,1.7,1.8,3.1
			c0.2,1.3,0,2.9-0.5,4.4c-0.1,0.4-0.2,0.8-0.4,1.1l-0.4,1.1c-0.1,0.4-0.3,0.7-0.5,1l-0.3,0.5l-0.3,0.5c-0.8,1.3-1.9,2.4-3.1,3.4
			c-1.2,0.9-2.7,1.7-4.2,2.3c-1.3,1.2-2.8,2.2-4.4,3.2c1.9,0.6,3.9,0.7,5.9,0.5c1.8-0.8,3.5-1.7,5.1-2.9c3.2-2.3,5.5-6.1,6.5-9.8
			c0.5-1.9,0.9-3.9,0.6-6.1C583.4,588.3,583.3,587.8,583.1,587.2z"/>
		<path d="M583.1,557.9c-1.9-1.3-4-1.7-6-1.7c-2,0-3.8,0.3-5.6,0.8c-0.3,0.1-0.5,0.2-0.8,0.2c0.5-1.4,0.9-2.9,1.3-4.3
			c0.8-2.9,1.6-5.8,2.2-8.8c0.3-1.5,0.6-3,0.9-4.5c0.2-0.8,0.2-1.5,0.3-2.3c0-0.4,0.2-0.8,0.2-1.1c0.1-0.4,0-0.8,0-1.2
			c-0.1-0.8-0.1-1.6-0.2-2.3c-0.1-0.8-0.2-1.6-0.4-2.3c-0.2-0.8-0.4-1.5-0.6-2.3c-0.3-0.7-0.6-1.5-0.9-2.1c0,3.1-0.7,5.9-1.6,8.7
			c-0.1,0.3-0.2,0.7-0.3,1.1c0,0.4,0,0.7-0.1,1.1c-0.1,0.7-0.2,1.4-0.3,2.2c-0.2,1.4-0.5,2.9-0.8,4.3c-0.6,2.9-1.4,5.7-2.2,8.6
			c-0.8,2.8-1.7,5.7-2.7,8.4c-0.2,0.6-0.1,1.3,0.3,1.9c0.7,0.9,1.9,1,2.8,0.3l0,0c0,0,0.4-0.3,0.7-0.4c0.3-0.2,0.7-0.3,1-0.5
			c0.7-0.3,1.5-0.5,2.2-0.8c1.5-0.4,3-0.7,4.4-0.7s2.8,0.3,3.7,1c0.9,0.7,1.6,1.7,1.9,3l0.1,0.5l0.1,0.5l0.1,1.1l0,1.1
			c0,0.4,0,0.7-0.1,1.1c-0.2,1.4-0.7,2.8-1.5,4c-1.1,2.8-3,5.5-5.6,7.9c1.7-0.4,3.3-1.2,4.9-2.1c0.8-0.5,1.5-1,2.2-1.6
			c0.4-0.3,0.7-0.6,1-1c0.3-0.3,0.7-0.7,0.9-1.1c2-3.3,2.7-7.6,1.6-11.4C586.1,561.3,585,559.2,583.1,557.9z"/>
		<path d="M412.6,698.6c-0.5,2.3-1,4.5-1.4,6.8c-0.4,2.3-0.7,4.6-1.1,6.9l-9.3,54.1c-3.7,2.4-8,3.9-12.5,4.7
			c-4.8,0.8-9.7,0.8-14.6,0.5c-4.9-0.4-9.8-1.1-14.7-2.2c-4.4-1-8.7-2.1-12.9-3.5l2.4-46.8l1.3-24.2c0.4-8.1,1-16.1,1.1-24.2
			c0.3-16.2-0.7-32.5-3.8-48.6c-0.4-2-0.9-4-1.4-6l-1.7-5.9c-0.5-2-1.3-3.9-1.9-5.8c-0.3-1-0.6-1.9-1-2.9l-1.1-2.8
			c-3-7.4-6.4-14.6-11-21.1c0.1,0.1,0.2,0.1,0.3,0.2c1.4,0.8,2.9,1.4,4.3,2c5.8,2.2,11.8,3.5,17.7,4.5c6,1,11.9,1.7,17.9,2.3
			c12,1.1,24,1.6,35.9,1.7c12,0.1,24-0.1,35.9-0.8c6-0.3,12-0.8,17.9-1.2c3-0.2,6-0.6,8.9-1.1c3-0.4,5.9-0.9,8.9-1.4
			c5.9-1,11.8-2.2,17.6-3.7c2.9-0.8,5.8-1.6,8.6-2.6c2.8-1,5.6-2.1,8.3-3.5c-5.5,2.3-11.4,3.5-17.2,4.6c-5.9,1-11.8,1.8-17.7,2.3
			c-3,0.3-5.9,0.5-8.9,0.7c-3,0.2-5.9,0.3-8.9,0.7c-5.9,0.6-11.9,1-17.8,1.3c-11.9,0.6-23.8,0.9-35.7,0.8s-23.8-0.6-35.6-1.7
			c-5.9-0.6-11.8-1.2-17.6-2.3c-5.8-1-11.6-2.3-17-4.3c-2.6-1-5.2-2.3-7-4c-0.2-0.2-0.4-0.4-0.6-0.7c-0.1-0.2-0.3-0.4-0.4-0.7
			c-0.1-0.2-0.2-0.4-0.3-0.7c0-0.1,0-0.2-0.1-0.3c0-0.1-0.1-0.2-0.1-0.4l-0.3-4.3c-0.2-5.9,0-11.8,0.3-17.7
			c0.6-11.9,1.8-23.7,3.1-35.6c1.3-11.9,2.8-23.7,4.4-35.5c0.1-0.8-0.3-1.6-1-2l0,0c-3.7-2-7.1-4.5-9.8-7.6
			c-2.7-3.1-4.7-6.8-5.7-10.8s-1.1-8.2-0.4-12.3c0.3-2,0.9-4,1.7-5.8c0.4-0.9,0.9-2,1.4-2.9l1.4-3c1.9-4,3.5-8.1,5.3-12.1l5.2-12.2
			c3.4-8.1,6.8-16.3,10.2-24.4c-4.1,7.8-8.2,15.6-12.3,23.4l-6.1,11.7c-2,3.9-4.1,7.8-5.9,11.8l-2.8,6c-1,2.3-1.6,4.5-2,6.8
			c-0.8,4.6-0.6,9.4,0.5,13.9c1.1,4.6,3.4,8.9,6.5,12.4c2.8,3.2,6.2,5.7,9.7,7.8c-1.6,11.4-3,22.8-4.2,34.3
			c-1.3,11.9-2.4,23.8-3.1,35.8c-0.3,6-0.5,12-0.3,18.1l0.3,4.6c0,0.2,0,0.4,0.1,0.7l0.2,0.8c0.1,0.5,0.4,0.9,0.6,1.4
			c0.2,0.4,0.5,0.8,0.8,1.2c0.3,0.4,0.6,0.7,0.9,1c1.1,1.1,2.4,2,3.6,2.7c2,3.4,3.5,6.9,5,10.5c0.7,1.9,1.5,3.7,2.1,5.6l1,2.8
			l0.9,2.9c2.3,7.7,4,15.5,5.3,23.4c0.4,1.9,0.8,3.9,1.1,5.9c0.3,2,0.7,3.9,0.9,5.9l0.7,6l0.3,3l0.2,3c0.2,4,0.6,8,0.6,12l0.1,6
			c0.1,2-0.1,4-0.1,6c-0.1,8-0.7,16.1-1.1,24.1l-1.3,24.2l-2.5,48.3v0c0,0.8,0.5,1.7,1.3,2c4.9,1.7,9.8,3,14.8,4.1
			c5,1.1,10.1,1.9,15.2,2.3c5.1,0.4,10.4,0.3,15.6-0.5c5.2-0.8,10.4-2.6,14.8-5.8c0.4-0.3,0.7-0.7,0.8-1.3v0l9.4-55
			c0.4-2.3,0.8-4.6,1.2-6.9c0.4-2.3,0.7-4.6,1-6.9l1.8-13.8c1.2-9.2,2.4-18.5,3.5-27.7c-2,9.1-4,18.2-6,27.3L412.6,698.6z"/>
		<path d="M499.1,776.1c-5.9-0.1-11.8-0.5-17.7-1.2c-5.4-0.6-10.8-1.5-16-2.6l-7.5-113.7c0,0,0-0.1,0-0.1c-0.1-1.1-1.1-1.9-2.2-1.8
			h0c-2.5,0.3-5,0.4-7.5,0.2c-1.3-0.1-2.5-0.2-3.8-0.3c-1.3-0.1-2.5-0.3-3.8-0.4c-5-0.7-10.1-2-15-3.6c-4.9-1.6-9.8-3.5-14.5-5.8
			c-4.7-2.2-9.4-4.6-13.8-7.4c4.2,3.2,8.6,6,13.2,8.6c4.6,2.6,9.3,5,14.2,7c4.9,2,10,3.7,15.2,4.8c4.6,1,9.4,1.2,14.1,0.9l7.5,113.2
			v0c0.1,0.8,0.7,1.6,1.5,1.8c6,1.3,11.9,2.3,17.9,3c6,0.7,12,1.1,18.1,1.3c6,0.2,12.1-0.1,18.1-0.6c6-0.5,12-1.6,18-3
			c0.9-0.2,1.5-1,1.5-2v0c-0.3-12-0.5-24-0.5-36.1c-0.1-12,0-24,0.2-36.1l0.2-9c0.1-3,0.1-6,0.3-9c0.2-3,0.1-6,0.1-9l0-9
			c0.1-12,0.5-24,1.1-36.1c-1.8,11.9-3,23.9-4.1,35.9l-0.7,9c-0.2,3-0.5,6-0.5,9l-0.4,18.1c-0.2,12-0.2,24.1-0.2,36.2
			c0.1,11.5,0.2,23,0.5,34.5c-5.2,1.2-10.5,2.1-15.8,2.5C511,776,505,776.3,499.1,776.1z"/>
		<path d="M401.6,834.8c-0.2-0.4-0.5-1-0.7-1.5c-0.2-0.6-0.4-1.1-0.6-1.7c-0.4-1.2-0.7-2.4-1.1-3.6c-0.6-2.4-1.2-4.9-1.6-7.4
			c-0.5-2.5-0.8-5-1.1-7.5c-0.3-2.5-0.4-5.1-0.8-7.6c-0.4-2.5-0.6-5.1-0.9-7.6l-0.6-7.7l-0.4-7.7l-0.3-7.7l-0.8,7.7
			c-0.2,2.6-0.4,5.2-0.5,7.8c-0.1,2.6-0.2,5.2-0.3,7.8c0,2.6-0.1,5.2,0,7.8c0,1.3,0.1,2.6,0.2,3.9c0.2,1.3,0.3,2.6,0.5,3.9
			c0.3,2.6,0.7,5.2,1.2,7.8c0.5,2.6,1,5.2,1.7,7.7c0.4,1.3,0.7,2.5,1.2,3.8c0.2,0.6,0.4,1.2,0.6,1.8c-6.9,2.3-14,4-21.3,5
			c-8,1.1-16,1.6-24.1,1.5c-8.1-0.1-16.1-0.6-24.1-1.7c-8-1.1-16-2.6-23.5-5c-1.9-0.6-3.8-1.3-5.4-2.1c-0.2-0.1-0.3-0.2-0.5-0.3
			c3.5-1,7.1-2,10.5-3.5c7.8-3.1,15-7.5,21.4-12.8c2.9-2.4,5.6-5.1,8.1-7.8c1.7,1.4,3.7,2.5,5.6,3.5c1.1,0.2,2.2,0.4,3.3,0.6
			c1.1,0.2,2.2,0.4,3.3,0.5c4.4,0.6,8.9,0.9,13.4,0.7l1.7,0c0.6,0,1.1-0.1,1.7-0.1c1.1-0.1,2.2-0.2,3.3-0.3c2.2-0.3,4.4-0.5,6.6-1
			c1.1-0.2,2.2-0.4,3.3-0.7c1.1-0.3,2.2-0.6,3.2-0.9c1-0.6,2-1.2,2.9-1.9c0.9-0.7,1.9-1.4,2.7-2.1c-1.2,0-2.3,0-3.4,0.1
			s-2.2,0.2-3.3,0.1c-1,0.3-2,0.6-3.1,0.8c-1,0.3-2.1,0.4-3.1,0.7c-2.1,0.5-4.2,0.7-6.3,1c-1,0.1-2.1,0.2-3.2,0.3
			c-0.5,0-1.1,0.1-1.6,0.1l-1.6,0c-4.2,0.1-8.5-0.1-12.7-0.7c-2.1-0.3-4.2-0.6-6.3-1.1c-2.1,0.1-4.2,0.2-6.4,0.2
			c0.2-0.2,0.5-0.5,0.7-0.7c2.9-3,5.1-6.6,7.2-10.2c2.1-3.6,3.9-7.3,5.4-11.2c1.5-3.8,2.7-7.8,3.5-11.8c-1.3,3.9-3.1,7.5-5.1,11.1
			c-2,3.5-4.1,6.9-6.5,10.2c-2.4,3.3-5.1,6.2-7.6,9.3c-2.6,3-5.5,5.8-8.5,8.3c-6.1,5.1-13,9.2-20.4,12.2c-3.7,1.5-7.5,2.7-11.4,3.7
			c-0.4,0.1-0.6,0.2-1,0.4c-0.2,0.1-0.4,0.2-0.6,0.3c-0.2,0.2-0.4,0.3-0.7,0.6c-0.1,0.2-0.2,0.3-0.4,0.5c-0.1,0.2-0.2,0.5-0.2,0.7
			c-0.1,0.2,0,0.5,0,0.7c0,0.2,0.1,0.5,0.1,0.6c0.1,0.2,0.1,0.3,0.2,0.5c0.1,0.2,0.1,0.2,0.2,0.3c0.1,0.2,0.3,0.4,0.5,0.5
			c0.6,0.6,1.1,0.9,1.6,1.2c0.5,0.3,1,0.6,1.5,0.8c2,1,4,1.6,6,2.3c8,2.5,16.1,4,24.2,5.1c8.2,1.1,16.4,1.7,24.6,1.7
			c8.2,0,16.5-0.4,24.7-1.6c8.2-1.2,16.3-3,24.1-5.9c0.1,0,0.2-0.1,0.2-0.1C401.8,837,402.2,835.8,401.6,834.8L401.6,834.8z
			 M296.7,831.1C296.7,831.1,296.7,831.1,296.7,831.1L296.7,831.1z M296.4,832.6C296.4,832.6,296.4,832.6,296.4,832.6
			C296.4,832.6,296.4,832.6,296.4,832.6z"/>
		<path d="M536.7,819.1c-0.3-1.3-0.7-2.6-1-3.9c-0.3-1.3-0.7-2.6-1.1-3.9c-3.4-10.2-6.8-20.4-9.1-30.9c0.8,10.8,3,21.4,5.2,32
			c1.3,5.2,2.8,10.4,3.9,15.5c0.5,2.6,1,5.2,1,7.6c0,0.6,0,1.1-0.1,1.6c-0.1,0.5-0.3,0.8-0.3,0.8c0,0,0,0,0,0c0,0,0,0-0.1,0
			l-0.9,0.3c-0.6,0.2-1.2,0.3-1.9,0.5c-5.1,1.3-10.3,2-15.6,2.5c-5.3,0.5-10.6,0.7-16,0.8c-10.7,0.2-21.4-0.2-32.1-1.1
			c-10.7-0.8-21.4-2-31.8-3.9c-1.5-0.3-3-0.6-4.5-0.9c5.2-1.4,10.3-3.2,15.1-5.6c5-2.5,9.6-5.5,13.9-9c4.2-3.5,8.1-7.5,11.5-11.9
			c3.1-4.6,5.7-9.4,7.8-14.5c2-5.1,3.6-10.3,4.3-15.7c-0.7,2.6-1.7,5.1-2.8,7.6c-1.1,2.5-2.2,4.8-3.5,7.2c-2.6,4.7-5.6,9-9,13
			c-3.2,4.1-6.8,8-10.8,11.3c-4,3.3-8.5,6.2-13.1,8.5c-4.7,2.3-9.6,4.1-14.7,5.5l-3.9,0.9c-0.1,0-0.4,0.1-0.7,0.2
			c-0.2,0.1-0.5,0.2-1,0.5c-0.1,0.1-0.2,0.2-0.4,0.3c-0.2,0.2-0.3,0.3-0.4,0.6c-0.3,0.5-0.3,1.4-0.1,1.9c0.1,0.2,0.2,0.4,0.3,0.6
			c0.1,0.1,0.2,0.2,0.3,0.3c0.2,0.2,0.3,0.3,0.5,0.4c0.5,0.4,0.9,0.5,1.3,0.7c0.4,0.2,0.7,0.3,1.1,0.4c2.8,0.9,5.4,1.4,8.1,1.9
			c10.7,1.9,21.5,3.1,32.2,3.9c10.8,0.8,21.6,1.2,32.4,1.1c5.4-0.1,10.9-0.3,16.3-0.8c5.4-0.5,10.8-1.3,16.2-2.6
			c0.7-0.2,1.3-0.3,2-0.5l1-0.3c0.1,0,0.1,0,0.3-0.1c0.2-0.1,0.3-0.2,0.5-0.2c0.3-0.2,0.6-0.4,0.8-0.6c0.9-0.9,1.2-2,1.4-2.8
			c0.2-0.9,0.2-1.7,0.2-2.4c0-3-0.5-5.7-1.1-8.4C538,824.4,537.4,821.7,536.7,819.1z M535.2,837.8
			C535.2,837.8,535.3,837.8,535.2,837.8L535.2,837.8z"/>
		<path d="M515.4,807.1c-4.1,0.4-8.3,0.3-12.5,0c-4.2-0.2-8.4-0.7-12.5-1.3c-2.1-0.3-4.2-0.6-6.2-1c-2.2,0.2-4.4,0.4-6.6,0.7
			c1.9,1.3,3.9,2.3,5.9,3.3c2.1,0.3,4.2,0.7,6.4,1c4.3,0.6,8.5,1.1,12.9,1.3s8.7,0.3,13-0.1c1.1,0,2.2-0.2,3.3-0.3
			c1.1-0.2,2.2-0.2,3.3-0.5c1-0.6,2-1,3-1.7c1-0.7,1.9-1.3,2.8-2c-1.2,0-2.3,0-3.3,0c-1.1,0-2.2-0.1-3.2-0.2c-1,0.2-2,0.3-3,0.5
			C517.5,806.9,516.5,807,515.4,807.1z"/>
	</g>
</g>
</svg>
