<?xml version="1.0" encoding="utf-8"?>
<!-- Generator: Adobe Illustrator 24.3.0, SVG Export Plug-In . SVG Version: 6.00 Build 0)  -->
<svg version="1.1" id="Layer_1" xmlns="http://www.w3.org/2000/svg" xmlns:xlink="http://www.w3.org/1999/xlink" x="0px" y="0px"
	 viewBox="0 0 864 864" style="enable-background:new 0 0 864 864;" xml:space="preserve">
<style type="text/css">
	.st0{fill:#7F451D;}
	.st1{fill:#40303B;}
	.st2{fill:none;}
	.st3{fill:#989ACC;}
	.st4{fill:#1FA64A;}
	.st5{fill:#43459C;}
	.st6{fill:#592D06;}
	.st7{display:none;}
	.st8{display:inline;}
</style>
<g id="Layer_4">
	<polyline class="st0" points="426.8,89.9 420.9,99.6 410,116.9 400.2,136.8 396.1,141.8 390.8,149.8 387.8,146.9 383.6,154.2 
		378.4,161.8 377.7,163.8 367.2,159.6 352.5,163.4 348.7,170.1 348.9,182.4 356,192.9 367.6,205.8 378,219.3 432.9,280.2 
		449.2,298.1 458.8,300.1 468.7,292.1 488.7,265.5 517.2,220.1 525.8,200.1 525.8,172.8 514.9,155.9 505.9,146.3 501.6,136 
		501.4,125.3 505.3,94 501.8,89.7 498,104 491.9,93.7 477.5,78 463.3,68.7 450.9,70.1 436.5,80.3 432.8,86.7 	"/>
	<path class="st1" d="M426.8,89.9l-4.1-2.4l-7.9-4.6L401,76.9l-20.1-5.8l-14.2-2.3c0.7-4.5,5.1-10.9,5.1-10.9l60.9,28.7L426.8,89.9
		L426.8,89.9"/>
	<polygon class="st1" points="363.8,69.7 380,71.7 393.4,75.5 411.4,81.8 426.8,89.9 425.4,91.8 390.3,148.5 387,146.1 380.4,157.7 
		378.5,150.4 375.6,111.5 369.8,116.9 	"/>
	<line class="st2" x1="426.8" y1="89.9" x2="432.8" y2="86.7"/>
	<polygon class="st1" points="461.4,7.7 468.5,8.4 465.6,10.4 462.1,12.8 459.5,15.6 457.2,18.5 456.5,21.1 468.2,23.4 489.5,33.6 
		507.8,55.7 514.8,75.4 521.7,100.9 520.7,113.6 501.3,88.5 498,104 481.3,82.4 466.2,70 455.1,68.8 444.7,72.4 436.5,80.3 
		431.8,86.3 417.1,78.7 389.2,64.7 366,53.8 387.9,33.3 406,17.7 421.5,9.7 442.7,6.7 	"/>
	<path class="st1" d="M463,225.2c-0.2-0.1-5.1-7.2-5.1-7.2l-4.9-2.9l-4.7,0.7l-3.4,3.9l0.2,15.9l6.3,10.1l7.8,2.2l2.4-0.1l-1.1-9.9
		l4-11.7L463,225.2z"/>
	<polygon class="st3" points="423.8,272 404.3,300.2 402.1,304.5 420.8,320.9 438.7,327.6 449.7,338.6 454.2,326.1 461.4,327.5 
		475.4,324.8 481.6,334 490.3,318.3 500.4,316 513.2,305.3 517.5,297.2 509.2,290.8 508.7,288 488.4,266.4 471.1,289.9 461,299.7 
		449.6,299.8 	"/>
	<polygon class="st4" points="517.7,297 511.1,307.2 496,318.8 489.1,320 481.9,335.1 474.8,326.6 473.9,325.4 467,327.2 
		453.8,327.3 449.7,338.6 436.3,326.6 427.1,324.8 414.2,318.2 404.1,308.3 399.5,301.2 386.8,309.9 356.8,332.5 336.3,355.9 
		326.5,411.6 319.6,481.8 314.4,540.2 325.2,545.7 344.2,547.2 359.1,542.7 362.9,540.6 377.8,451.7 377.9,456.7 379.9,463.4 
		387.5,481 393.8,488.3 394.3,497.9 390,526.3 384.6,545.1 377.2,568.5 404.6,569.1 437.7,567.8 501.8,563.4 528.2,559.4 
		527.8,548.3 530.3,523.5 531,524.1 539,525.6 551.1,526.8 577.1,526.4 582.1,468.9 585.4,412.1 583.6,362 580.6,352.7 529.7,306.5 
			"/>
	<path class="st5" d="M457.9,567.5l52.3-5.3l18.1-2.4l1.5,23.8l0.8,53.7l-2.5,31.5l1.1,91.7l-3,2.4l-15.5,2L488,766l-13.3-1
		l1.3-30.5l0.9-44.5l-3.5-18.7l-2.9-64.9l-12.5,5.2l-11.6,2.4l-8.4,70.3l-3.6,43.1l-0.8,38.6l-5.2,1.6l-40,2.3l-12.1-2.3l2.2-21.3
		c0,0,1.7-41.8,2-41.9c0.3-0.1,0.5-27.5,0.5-27.5l-1.7-21.1l2.5-54l2.3-33.3L457.9,567.5z"/>
	<path class="st3" d="M376.3,766.3l-3.6,0.5l-3.4,4.2l1.1,18.9c0,0,19.7-0.8,19.9-0.7c0.2,0,39-1.7,39-1.7l8.8-1.9
		c0,0,3.2-7.5,3.2-7.8s-1.1-10.5-1.1-10.5l-6.2-4.5l-5.3,5.2l-28.9,2.1l-16.3-0.8L376.3,766.3z"/>
	<polygon class="st3" points="471.2,763.8 468.5,767.1 469.4,784.9 508,783.3 535,780.2 536.8,767.5 535.2,760.2 532.5,759.1 
		525.3,763.2 505.6,766.6 482.8,765.8 	"/>
	<polygon class="st6" points="378.8,790.3 425.2,788.2 430.2,797.9 439.3,821 439.2,834.5 429.9,839.2 413.6,841.8 373.1,843 
		350.2,843.2 343.2,837 342.7,819.8 353.8,809 372.6,803.6 	"/>
	<polygon class="st6" points="475.4,785.8 468.2,802.6 467.1,821.1 471.6,832.9 503.5,835.1 558.6,835.4 584.7,832.9 591.4,825.3 
		590.4,816.1 584.6,810.5 534.2,790 522.6,783.2 	"/>
	<path class="st0" d="M278.6,540.9c0.4,0.2,7.5,2.7,7.5,2.7l11.2,1.6l8-0.7l9-3.3c0,0,7.7,4.1,7.9,4.1c0.3,0,16.1,1.9,16.1,1.9
		l14.6-2.2l3.4-1.2l-1.9,9.8l-5.2,14.2l-6.8,16.3l-11.4,16.1l-21.1,16.2l-1.5-5l8.4-18l5-21.6l-15.1,5.2l-23.5,1.7l-11.3-8.2
		l11.6-3.5l20.5-10.2l-7.9-2.8l-13.5-6.6L278.6,540.9z"/>
	<path class="st0" d="M541.4,526.2c0.2,0,21.3,1.3,21.3,1.3l12.2-0.9l0,4.3l-3.1,13.4L558,570l-23.3,11.8l0.1-3.6l9.6-21.6l-0.3-5
		l-6,7l-2.5,1.5l-7.1,0.2l-0.8-9.1l4-3.7l5.7-7.5L541.4,526.2z"/>
</g>
<g id="Live_Outline" class="st7">
	<g class="st8">
		<path d="M449.1,25.4c-5-0.4-9.9-0.6-14.9-0.7c-5,0-9.9,0.1-14.8,0.5c-4.9,0.4-9.8,1.2-14.4,2.4c-1.1,0.4-2.3,0.7-3.4,1.1
			c-1.1,0.5-2.2,0.9-3.3,1.4l-3.1,1.7l-3,2c-8.1,5.3-15.7,11.7-22.9,18.4c-7.2,6.7-14.3,13.7-21,20.9l-0.6-3.2l66.4,31.7l-2.7,1
			c0.9-1.9,1.9-3.4,3.1-5c0.5-0.8,1.2-1.5,1.8-2.3c0.7-0.7,1.3-1.5,2-2.1c2.7-2.7,5.9-5.1,9.5-6.8c3.6-1.7,7.4-2.7,11.3-3
			c2.1-0.1,4.2,0.3,6.1,0.9c1.9,0.6,3.7,1.5,5.4,2.4c3.4,2,6.3,4.4,9.1,7c2.8,2.6,5.3,5.3,7.7,8.2c4.8,5.7,9.1,11.8,13,18.2
			l-3.7,0.5c0.4-1.4,0.6-2.8,0.9-4.3c0.2-1.5,0.5-2.9,0.6-4.4c0.3-2.9,0.4-5.9,0-8.7v0c-0.1-1.1,0.7-2.1,1.8-2.2
			c0.6-0.1,1.3,0.2,1.7,0.6c4,4.4,7.9,8.8,11.6,13.4c1.9,2.3,3.7,4.7,5.4,7.1c0.8,1.2,1.7,2.5,2.5,3.8c0.8,1.3,1.5,2.8,2.1,4.4
			l-3.8-0.1l0.1-0.3c0-0.1,0.1-0.2,0.1-0.4c0-0.3,0.1-0.6,0.2-0.9c0.1-0.6,0.2-1.2,0.2-1.8c0.1-0.6,0.1-1.2,0.1-1.8
			c0-0.6,0-1.2,0-1.9c0-2.5-0.3-5-0.5-7.5c-0.7-5-1.8-10-3.2-14.9c-1.4-4.9-3.1-9.8-4.9-14.6c-0.9-2.4-1.9-4.8-2.9-7.2l-1.6-3.4
			l-1.7-3.4c-2.5-4.4-5.4-8.5-8.8-12.2c-3.4-3.7-7.1-7.1-11.2-10c-4.1-2.9-8.6-5.3-13.4-7.2C447,41,442,39.6,436.9,39l-0.1,0
			c-0.3,0-0.6-0.3-0.5-0.6c0-0.6,0.1-0.9,0.2-1.3c0.1-0.4,0.3-0.8,0.5-1.1c0.4-0.7,0.8-1.4,1.3-2c1-1.3,2-2.4,3.2-3.4
			c0.6-0.5,1.2-1,1.8-1.4c0.6-0.4,1.2-0.9,1.9-1.3c0.6-0.4,1.3-0.8,2-1.2C447.8,26.2,448.4,25.9,449.1,25.4z M449.1,25.4
			c-0.6,0.4-1.2,0.8-1.9,1.3c-0.6,0.4-1.2,0.9-1.9,1.4c-0.6,0.5-1.2,1-1.8,1.4c-0.6,0.5-1.1,1-1.7,1.5c-1.1,1-2,2.2-2.8,3.5
			c-0.4,0.6-0.7,1.3-1,1.9c-0.1,0.3-0.2,0.7-0.3,1c-0.1,0.3-0.1,0.7-0.1,0.9l-0.6-0.7c5.3,0.2,10.5,1.4,15.5,3
			c5,1.6,9.9,3.8,14.4,6.6c2.2,1.4,4.5,2.9,6.5,4.6c1.1,0.8,2,1.7,3,2.6c1,0.9,1.9,1.9,2.8,2.9c3.6,4,6.7,8.4,9.3,13l1.8,3.6
			l1.6,3.6c1,2.4,2,4.8,3,7.3c1.8,4.9,3.6,9.8,5,14.9c1.4,5.1,2.6,10.2,3.3,15.5c0.3,2.7,0.6,5.3,0.6,8c0,0.7,0,1.3,0,2
			c0,0.7,0,1.4-0.1,2.1c0,0.7-0.1,1.4-0.2,2.1c0,0.3-0.1,0.7-0.2,1.1c0,0.2-0.1,0.4-0.1,0.6c0,0.2-0.1,0.4-0.2,0.6
			c-0.4,1-1.5,1.6-2.5,1.2c-0.6-0.2-1-0.6-1.2-1.2l-0.1-0.2l-0.3-0.9c-0.1-0.3-0.2-0.6-0.4-0.9c-0.3-0.6-0.6-1.2-1-1.8
			c-0.7-1.2-1.5-2.4-2.3-3.6c-1.6-2.3-3.4-4.7-5.2-6.9c-3.7-4.5-7.5-8.9-11.4-13.2l3.5-1.6c0.4,3.2,0.3,6.4,0,9.6
			c-0.2,1.6-0.4,3.1-0.6,4.7c-0.3,1.6-0.6,3.1-1,4.6c-0.3,1.1-1.4,1.7-2.4,1.4c-0.5-0.1-1-0.5-1.2-0.9l0-0.1
			c-3.7-6.1-8-12.1-12.6-17.6c-2.3-2.8-4.8-5.4-7.4-7.9c-2.6-2.4-5.4-4.7-8.4-6.4c-1.5-0.9-3-1.6-4.6-2.1c-1.6-0.5-3.2-0.8-4.7-0.7
			c-3.3,0.3-6.8,1.1-9.8,2.6c-3.1,1.5-5.9,3.5-8.4,6c-0.6,0.6-1.2,1.3-1.8,1.9c-0.5,0.7-1.1,1.3-1.6,2.1c-1,1.4-2,2.9-2.7,4.3l0,0.1
			c-0.5,1-1.7,1.4-2.7,0.9l-66.4-31.7l0,0c-1-0.5-1.4-1.7-0.9-2.7c0.1-0.2,0.2-0.4,0.4-0.5c6.9-7.3,13.9-14.3,21.3-21.1
			c3.7-3.4,7.4-6.7,11.3-9.9l2.9-2.4l3-2.3l1.5-1.2l1.6-1.1c1-0.7,2.1-1.5,3.2-2.1c1.1-0.6,2.2-1.3,3.3-1.9l3.5-1.6
			c1.2-0.5,2.5-0.8,3.7-1.2c1.2-0.3,2.5-0.6,3.7-0.9c5-1,10-1.4,15-1.5C429.4,22.9,439.3,23.8,449.1,25.4z"/>
	</g>
	<g class="st8">
		<path d="M407.3,106.9c-2.9,5.5-5.8,11-8.7,16.4l-4.4,8.2c-1.5,2.7-2.9,5.5-4.5,8.1c-3.3,5.2-6.5,10.5-9.7,15.8l-4.8,7.9l-1.2,2
			l-0.6,1l-0.1,0.1l0,0.1l0,0c0,0,0-0.1,0-0.1s0-0.1-0.1-0.1c0,0,0,0-0.1-0.1l0,0c0,0.1,0-0.2,0,0.2c0,0.5-0.4,1.1-0.8,1.4
			c-0.4,0.3-0.8,0.4-1.4,0.4c-0.6-0.1-0.8-0.2-0.8-0.2c-0.1,0-0.1-0.1-0.2-0.1s-0.1-0.1-0.2-0.1l-0.1-0.1c-0.3-0.3-0.3-0.3-0.4-0.4
			l-0.2-0.3l-0.4-0.5l-0.7-1l-1.4-1.9l3.3-0.1l-9.6,15c-0.6,0.9-1.8,1.2-2.8,0.6c-0.6-0.4-0.9-1-0.9-1.7v0c0.1-8.3,0-16.6-0.3-24.9
			c-0.1-4.1-0.4-8.3-0.7-12.4c-0.3-4.1-0.7-8.2-1.6-12.1l3.7,0.5c-0.5,0.8-0.9,1.5-1.4,2.2c-0.5,0.7-1,1.4-1.5,2.1
			c-0.5,0.7-1.1,1.4-1.8,2.1c-0.4,0.3-0.8,0.7-1.3,1c-0.3,0.2-0.6,0.3-1,0.5c-0.4,0.1-1,0.2-1.6,0.1c-0.9-0.1-1.6-0.9-1.7-1.7v0
			c-0.8-8.2-1.8-16.3-2.9-24.4c-0.6-4.1-1.1-8.1-1.8-12.1c-0.4-2-0.7-4-1.2-6l-0.3-1.5l-0.4-1.4c-0.2-1-0.6-1.8-0.9-2.7l-0.1-0.2
			c-0.3-1,0.2-2.1,1.2-2.5c0.2-0.1,0.4-0.1,0.5-0.1c3.1-0.1,6,0.1,9,0.4l2.2,0.2l2.2,0.3c1.5,0.2,2.9,0.5,4.4,0.7
			c5.8,1.1,11.4,2.7,17,4.5c2.7,1.1,5.4,2.2,8,3.5c1.3,0.6,2.6,1.2,3.9,1.9l3.9,2.1l1.9,1.1l1.9,1.1l3.7,2.2
			c1.2,0.8,2.5,1.7,3.7,2.5C405,105.3,406.1,106.1,407.3,106.9z M407.3,106.9c-1.3-0.7-2.7-1.4-4-2c-1.3-0.6-2.5-1.2-3.8-1.8
			l-3.9-1.8l-2-0.9l-2-0.8l-4-1.6c-1.3-0.5-2.7-1-4-1.4c-2.7-1-5.5-1.7-8.1-2.6c-5.4-1.8-10.9-3.3-16.5-4.4
			c-1.4-0.3-2.8-0.5-4.2-0.7l-2.1-0.3l-2.1-0.2c-2.8-0.3-5.7-0.5-8.3-0.4l1.7-2.8c0.4,1.1,0.8,2.2,1,3.2l0.4,1.6l0.3,1.5
			c0.5,2.1,0.8,4.1,1.2,6.1c0.7,4.1,1.3,8.2,1.9,12.3c1.1,8.2,2,16.4,2.9,24.6l-1.7-1.8c-0.5-0.1-0.4,0.1-0.2-0.1
			c0.2-0.1,0.4-0.3,0.6-0.5c0.5-0.4,1-1,1.4-1.6s0.9-1.2,1.3-1.9c0.4-0.7,0.9-1.3,1.2-2l0,0c0.5-0.9,1.8-1.3,2.7-0.7
			c0.5,0.3,0.8,0.8,1,1.3c1,4.3,1.4,8.5,1.7,12.7c0.3,4.2,0.5,8.4,0.7,12.6c0.3,8.4,0.4,16.7,0.3,25.1l-3.7-1.1l9.6-15
			c0.6-0.9,1.8-1.2,2.8-0.6c0.2,0.1,0.4,0.3,0.5,0.5l0,0l1.3,1.9l1.1,1.5l0,0c0,0-0.1-0.1-0.1-0.1s-0.1-0.1-0.1-0.1
			c0,0-0.1-0.1-0.7-0.2c-0.5,0-1,0.1-1.4,0.4c-0.4,0.3-0.8,0.9-0.8,1.4c0,0.4,0,0.1,0,0.1l0,0l0.1-0.3c0.1-0.2,0.1-0.4,0.2-0.6
			c0.1-0.2,0.2-0.4,0.3-0.6l0.2-0.3l0.6-1l1.2-2l4.8-7.9c3.2-5.3,6.5-10.5,9.6-15.8c1.5-2.7,3.4-5.2,5.1-7.7l5.3-7.6
			C400.1,117,403.7,111.9,407.3,106.9z"/>
	</g>
	<g class="st8">
		<path d="M456.9,133.2c1.6,4.1,3.1,8.1,4.6,12.2c0.4,1,0.8,2,1.1,3c0.2,1,0.5,2.1,0.8,3.1l1.7,6.2c1.1,4.1,2.4,8.2,3.7,12.3l1,3
			c0.4,1,0.7,2,1.1,3c0.4,1,0.8,1.9,1.2,2.9c0.4,1,0.9,1.8,1.3,2.7l-0.2-0.2c2.1,2.8,4,5.7,5.3,9.1c0.2,0.4,0.3,0.8,0.5,1.3
			c0.1,0.4,0.3,0.9,0.4,1.3c0.1,0.4,0.2,0.9,0.3,1.4l0.1,0.4l0,0.5c0,0.4,0,0.6,0,0.9c-0.4,2.3-1.3,3.8-2.2,5.4
			c-1.9,3-4,5.6-6.3,8.2c-2.2,2.5-4.6,5-7,7.3l0,0c-0.5,0.5-1.1,0.6-1.7,0.5c-1.6-0.3-2.9-0.8-4.3-1.2c-1.4-0.5-2.7-1-4-1.6
			c-0.6-0.3-1.3-0.6-2-0.9l-1.9-1c-1.2-0.8-2.5-1.5-3.7-2.3c-2.3-1.8-4.2-4-6-6.3c-1.8-2.3-3.1-4.8-4.3-7.4c1.9,2.1,3.8,4.1,6,5.8
			c1,0.9,2.2,1.7,3.2,2.4c1.1,0.7,2.3,1.4,3.4,2.1c2.1,1.6,4.5,2.9,6.9,4c1.2,0.6,2.5,1.1,3.7,1.5c1.2,0.4,2.6,0.8,3.7,1.1l-1.8,0.5
			c2.3-2.2,4.6-4.6,6.8-7.1c2.1-2.4,4.2-5,5.9-7.6c0.8-1.3,1.5-2.7,1.6-3.8c0-0.1,0-0.2,0-0.3v-0.1l0-0.3c-0.1-0.3-0.1-0.7-0.2-1
			c-0.1-0.4-0.2-0.7-0.3-1.1c-0.1-0.4-0.2-0.7-0.4-1.1c-1.1-2.8-2.9-5.6-4.7-8.1l-0.1-0.1c0,0-0.1-0.1-0.1-0.1
			c-0.5-1-1.1-2.1-1.5-3.1c-0.4-1-0.9-2.1-1.3-3.1c-0.4-1-0.8-2.1-1.1-3.1l-1-3.1c-1.3-4.1-2.6-8.3-3.7-12.5l-1.7-6.3
			c-0.2-1.1-0.6-2.1-0.9-3.1c-0.2-1.1-0.3-2.1-0.5-3.2C457.7,141.9,457.2,137.6,456.9,133.2z"/>
	</g>
	<g class="st8">
		<path d="M367.9,191.1c-2.6-3.8-6-7.1-9.8-9.6c-3.8-2.5-8.2-4-12.5-3.7c-2.2,0.1-4.3,0.7-6.3,1.5c-2,0.8-4,1.9-5.5,3.3
			c-1.5,1.4-2.7,3.1-3.2,4.9c-0.5,1.9-0.5,3.9-0.1,5.9c0.8,4.1,2.6,8.2,5,11.9c1.2,1.9,2.5,3.7,3.9,5.4c0.7,0.9,1.4,1.7,2.2,2.5
			l2.3,2.6l18.5,20.6c12.3,13.8,24.5,27.6,36.7,41.5c6.1,7,12.1,13.9,18.1,20.9c3,3.5,6,7,9,10.6l1.1,1.3c0.4,0.4,0.7,0.7,1,1.1
			c0.7,0.6,1.5,1.3,2.4,1.7c0.8,0.5,1.8,0.8,2.7,1.1c1,0.2,1.9,0.4,2.9,0.3c2,0,3.9-0.6,5.6-1.6c0.9-0.5,1.6-1.1,2.3-1.8
			c0.8-0.8,1.5-1.6,2.3-2.5c3-3.4,5.7-7,8.3-10.8c1.3-1.9,2.6-3.8,3.9-5.7l4-5.7c2.7-3.7,5.4-7.5,8.1-11.2
			c5.3-7.5,10.6-15.1,15.6-22.8c2.5-3.9,5-7.7,7.3-11.7c2.4-3.9,4.6-7.9,6.4-12l0.7-1.5l0.6-1.5c0.4-1,0.7-2.1,1-3.2
			c0.6-2.2,1.1-4.4,1.5-6.6c0.8-4.4,1.3-8.9,1.3-13.4c0-4.5-0.5-8.9-1.8-13.1c-0.2-1.1-0.7-2.1-1-3.1c-0.3-1.1-0.9-2-1.3-3
			c-0.4-1-1.1-1.9-1.6-2.8c-0.5-0.9-1.2-1.8-1.9-2.7l-0.5-0.7c-0.2-0.2-0.4-0.4-0.5-0.6l-1.1-1.2c-0.7-0.8-1.6-1.7-2.4-2.5
			c-1.6-1.7-3.2-3.4-4.7-5.2c-0.7-1-1.5-1.9-2.1-2.9c-0.3-0.5-0.7-1-1-1.5l-0.9-1.6c-1.1-2.1-2-4.4-2.4-6.8c-1-4.7-0.8-9.4-0.3-14.1
			c0.5-4.6,1.3-9.2,2.2-13.7c-0.5,4.6-0.9,9.2-1.1,13.8c-0.1,4.6,0,9.2,1.2,13.5c1.1,4.3,3.6,8,6.7,11.3c1.5,1.6,3.2,3.2,4.9,4.7
			c0.9,0.8,1.7,1.4,2.6,2.4l1.3,1.3c0.2,0.2,0.4,0.4,0.6,0.6l0.6,0.7c1.6,1.9,2.9,4,4,6.2c0.5,1.1,1.1,2.2,1.5,3.4
			c0.4,1.1,0.9,2.3,1.1,3.4c1.3,4.6,1.9,9.5,1.9,14.2c0,4.8-0.5,9.5-1.4,14.1c-0.4,2.3-1,4.6-1.6,6.9c-0.3,1.1-0.6,2.3-1.1,3.4
			l-0.6,1.7l-0.7,1.6c-2,4.3-4.2,8.4-6.6,12.4c-2.4,4-4.8,7.9-7.4,11.8c-5,7.8-10.3,15.4-15.7,22.9c-2.7,3.8-5.4,7.5-8.1,11.2
			l-3.9,5.6c-1.3,1.9-2.6,3.8-3.9,5.7c-2.6,3.9-5.4,7.6-8.6,11.2c-0.8,0.9-1.6,1.8-2.4,2.6c-1,0.9-2,1.8-3.1,2.4
			c-2.3,1.4-4.9,2.1-7.6,2.1c-1.3,0-2.6-0.1-3.9-0.4c-1.3-0.4-2.5-0.8-3.7-1.5c-1.2-0.6-2.2-1.5-3.2-2.3c-0.4-0.5-0.9-1-1.3-1.4
			l-1.1-1.3c-3-3.5-6-7-9-10.5c-6-7-12-14-18.1-20.9c-12.1-13.9-24.4-27.7-36.7-41.4L341,218.6l-2.3-2.6c-0.8-0.9-1.6-1.8-2.3-2.7
			c-1.5-1.9-2.9-3.8-4.2-5.8s-2.5-4.1-3.5-6.3c-1-2.2-1.9-4.6-2.2-7.1c-0.4-2.5-0.2-5.2,0.7-7.7c0.9-2.5,2.6-4.7,4.6-6.2
			c2-1.6,4.2-2.6,6.5-3.4c2.3-0.8,4.8-1.2,7.2-1.2c4.9,0.1,9.5,2.1,13.2,5C362.5,183.5,365.6,187.1,367.9,191.1z"/>
	</g>
	<ellipse class="st8" cx="429.6" cy="144.8" rx="2.9" ry="13.5"/>
	<ellipse class="st8" cx="471.7" cy="136.7" rx="2.4" ry="11.3"/>
	<g class="st8">
		<path d="M461.2,219.8c0.6,1.4,1.4,2.7,2.2,4c0.7,1.3,1.5,2.6,2.3,4c1.5,2.6,3.1,5.2,4.8,7.7c0.4,0.6,0.7,1.3,1.1,1.9
			c0.3,0.7,0.7,1.2,1.1,1.8l0.6,0.8c0.1,0.1,0.2,0.2,0.3,0.3l0.2,0.3c0,0,0.2,0.1,0.3,0.3s0.3,0.2,0.4,0.4c0.2,0.3,0.5,0.6,0.6,1.1
			c0.3,0.8,0.2,1.7,0,2.4c-0.5,1.4-1.3,2.1-2.1,2.7c-0.8,0.6-1.6,1-2.4,1.4c-1.6,0.7-3.3,1-5,1.2c-3.3,0.3-6.6,0-9.7-0.8
			c-1.6-0.4-3.1-0.9-4.6-1.4s-2.9-1.3-4.4-1.9c-2.8-1.5-5.7-3.3-7.9-6c-1.1-1.3-1.9-2.9-2.6-4c-0.7-1.1-1.2-1.5-2.4-1.9
			c-0.6-0.1-1.2-0.3-1.9-0.3l-0.5-0.1l-0.2,0l-0.2,0c-0.2,0-0.5,0-0.7,0.1c-0.5,0.1-0.8,0.3-1.2,0.6c-0.2,0.2-0.4,0.3-0.6,0.6
			c-0.2,0.2-0.4,0.4-0.5,0.7c-1.3,2-1.9,4.9-2,7.7c-0.1,2.8,0.2,5.7,0.9,8.4c0.8,2.7,2,5.2,3.8,7.1c0.9,0.9,1.9,1.6,3,2.1l0.9,0.3
			c0.3,0.1,0.6,0.1,0.9,0.2c0.3,0.1,0.7,0.1,1.1,0.2c0.4,0,0.8,0.1,1.2,0.2c1.6,0.2,3.2,0.6,4.8,1.1c0.8,0.2,1.6,0.6,2.4,1
			c0.8,0.4,1.6,0.8,2.3,1.4c0.7,0.6,1.3,1.4,1.8,2.3c0.5,0.9,0.8,1.9,0.8,2.8c0.1,2-0.5,3.7-1.4,5.1c-1.7,2.8-4.1,4.9-6.6,6.7
			c1-1.2,1.9-2.4,2.7-3.7c0.8-1.3,1.5-2.6,1.9-3.9c0.4-1.3,0.6-2.7,0.3-3.7c-0.3-1.1-1-1.8-2.1-2.4c-0.5-0.3-1-0.6-1.6-1
			c-0.6-0.3-1.2-0.5-1.9-0.8c-1.3-0.4-2.7-0.7-4.1-1c-0.4-0.1-0.7-0.1-1.1-0.2c-0.4,0-0.7-0.1-1.2-0.2c-0.5-0.1-0.9-0.1-1.3-0.3
			l-1.3-0.4c-1.7-0.7-3.2-1.8-4.4-3c-2.5-2.5-3.9-5.7-4.8-8.8c-0.9-3.2-1.2-6.4-1.1-9.7c0.1-1.6,0.3-3.3,0.7-4.9
			c0.4-1.6,1-3.3,2-4.8c0.5-0.8,1.2-1.5,1.9-2.1c0.8-0.6,1.8-1.2,2.8-1.4c0.5-0.1,1-0.2,1.6-0.2l0.4,0l0.3,0l0.6,0.1
			c0.8,0,1.7,0.2,2.6,0.4c0.5,0.1,0.9,0.3,1.4,0.5c0.5,0.2,0.9,0.5,1.3,0.8c0.8,0.7,1.5,1.5,1.9,2.2c0.9,1.5,1.5,2.6,2.3,3.7
			c1.6,2.1,4,3.6,6.5,4.9c5.2,2.6,11,4.3,16.5,3.7c1.4-0.1,2.7-0.4,3.9-0.9c0.6-0.2,1.1-0.5,1.5-0.9c0.4-0.3,0.7-0.7,0.7-0.8
			c0,0,0,0.1,0,0.2c0,0,0,0.1,0,0.1c0,0,0,0,0,0c0,0,0,0,0,0c0,0,0,0-0.1-0.1l-0.6-0.6c-0.2-0.2-0.4-0.4-0.5-0.6
			c-0.3-0.4-0.5-0.7-0.8-1c-0.4-0.7-0.9-1.4-1.3-2.1c-0.4-0.7-0.8-1.3-1.1-2.1c-1.2-2.9-2.2-5.8-3.2-8.7
			C462.7,225.8,461.7,222.9,461.2,219.8z"/>
	</g>
	<g class="st8">
		<path d="M444.8,243.8c0.4,1.1,0.6,2,0.8,2.9c-0.3,0.7-0.6,1.4-0.9,2.1c-0.5,1.4-1,2.8-1.3,4.2s-0.5,2.8-0.5,4.2c0,0.4,0,0.7,0,1
			l0,0.5c0,0.1,0,0.2,0.1,0.2s0.1,0.1,0,0.2c-0.5,0.8-0.9,1.5-1.4,2.6c-1-0.5-1.9-1.1-2.6-1.9c-0.1-0.5-0.1-0.9-0.2-1.3
			c0-0.4-0.1-0.9-0.1-1.3c0-1.8,0.3-3.4,0.6-5.1c0.4-1.6,0.9-3.2,1.4-4.8c0.3-0.8,0.6-1.5,0.9-2.3
			C442.8,244.6,443.7,244.1,444.8,243.8z"/>
	</g>
	<g class="st8">
		<path d="M441.8,319.8c-0.5,3.1-1.1,6.2-1.7,9.2l-0.9,4.6l-0.5,2.3c-0.2,0.8-0.5,1.5-0.7,2.2l-5.7,17.7c-0.3,1-1.5,1.6-2.5,1.3
			c-0.3-0.1-0.6-0.3-0.8-0.5l0,0c-3.4-3.6-6.9-7.2-10.5-10.6c-3.6-3.5-7.2-6.9-11-10.1c-3.7-3.3-7.6-6.4-11.6-9.3
			c-2-1.4-4-2.8-6.1-4c-2.1-1.2-4.3-2.2-6.4-2.7l-0.5-3.7c-0.1,0.1,0.1,0,0.1-0.1c0.1-0.1,0.2-0.2,0.3-0.3c0.2-0.2,0.5-0.4,0.7-0.7
			c0.5-0.5,0.9-1,1.4-1.5c0.9-1,1.8-2.1,2.6-3.2c1.7-2.2,3.3-4.5,4.9-6.8c1.8-2.1,3.6-4.3,5.4-6.5l5.5-6.6c-1.1,2.6-2.3,5.2-3.6,7.8
			s-2.6,5.1-3.9,7.6c-1.7,2.3-3.3,4.7-5.1,6.9c-0.9,1.1-1.8,2.3-2.8,3.4c-0.5,0.5-1,1.1-1.5,1.6c-0.3,0.3-0.5,0.5-0.8,0.8
			c-0.2,0.1-0.3,0.3-0.5,0.4c-0.2,0.2-0.3,0.2-0.7,0.5l-0.5-3.7c2.8,0.7,5.2,1.9,7.5,3.1c2.3,1.3,4.4,2.7,6.5,4.2
			c4.1,3,8.1,6.2,11.9,9.5c3.8,3.3,7.5,6.8,11.1,10.3c3.6,3.5,7.2,7.1,10.6,10.8l-3.4,0.8l5.7-17.7c0.2-0.7,0.4-1.5,0.7-2.2l1-2.1
			l1.9-4.3C439.1,325.4,440.4,322.6,441.8,319.8z"/>
	</g>
	<g class="st8">
		<path d="M446.2,320.8l4.5,7.5l2.2,3.7l1.1,1.9c0.4,0.6,0.6,1.3,0.9,2c1.2,2.6,2.5,5.1,3.9,7.6c0.3,0.6,0.7,1.2,1.1,1.8
			c0.4,0.6,0.7,1.2,1.1,1.8l0.6,0.9l0.6,0.8c0.4,0.6,0.8,0.8,1.1,1.2l-3,0.8c1.9-4.1,3.9-8.1,6.1-12.1c2.1-4,4.4-7.9,6.7-11.7
			c2.4-3.8,4.9-7.6,7.7-11.2c2.9-3.6,5.9-7.1,10-9.8l-0.4,3.1l-5.7-5.8c-1.9-1.9-3.8-3.9-5.7-5.8c-0.5-0.5-0.9-1-1.3-1.6l-1.2-1.7
			c-0.8-1.1-1.6-2.2-2.4-3.3c-1.5-2.3-3.1-4.5-4.3-7c0.9,1,1.9,1.9,3,2.8c1,0.9,2,1.8,3.1,2.7l3.1,2.6l1.6,1.3
			c0.5,0.4,1.1,0.9,1.5,1.4c1.8,2,3.7,3.9,5.6,5.9l5.7,5.8c0.8,0.8,0.8,2.1,0,2.9c-0.1,0.1-0.2,0.2-0.3,0.3l0,0
			c-3.4,2.2-6.3,5.5-9,8.9c-2.7,3.4-5.1,7.1-7.5,10.8c-2.3,3.7-4.5,7.6-6.6,11.5c-2.1,3.9-4.1,7.9-5.9,11.8l-0.1,0.2
			c-0.4,0.9-1.5,1.3-2.5,0.9c-0.2-0.1-0.3-0.2-0.5-0.3c-0.7-0.6-1.4-1.3-1.9-1.9l-0.8-1l-0.6-1c-0.4-0.6-0.9-1.3-1.2-1.9
			c-0.4-0.6-0.8-1.3-1.1-1.9c-1.5-2.6-2.7-5.2-4-7.8c-0.3-0.7-0.7-1.3-1-2c-0.2-0.7-0.5-1.4-0.7-2.1l-1.3-4.2
			C447.6,326.5,446.8,323.7,446.2,320.8z"/>
	</g>
	<g class="st8">
		<path d="M380.6,318.2c-4.6,3.3-9,6.7-13.5,10.1c-4.5,3.4-8.9,6.9-13.2,10.4s-8.6,7.2-12.8,10.9c-2.1,1.9-4.1,3.8-6.1,5.7
			c-2,1.9-4.1,3.8-6,5.7s-3.8,4-5.5,6.1c-1.7,2.1-3.3,4.3-4.4,6.6c-0.2,0.6-0.5,1.1-0.7,1.8l-0.6,1.9c-0.4,1.3-0.7,2.6-1,4
			c-0.6,2.7-1.2,5.4-1.7,8.1c-2,11-3.5,22.1-5,33.2c-2.8,22.2-5.1,44.6-7.2,67c-2.1,22.3-4,44.7-5.8,67.1l-0.5-1.5
			c0.2,0.2,0.6,0.6,1,0.9c0.4,0.3,0.8,0.6,1.1,0.9c0.4,0.3,0.8,0.5,1.2,0.8s0.8,0.5,1.3,0.7l1.3,0.7l1.4,0.6c0.9,0.4,1.9,0.7,2.8,1
			c3.8,1.2,7.9,1.6,11.9,1.5c1-0.1,2-0.1,3-0.2l3-0.4c0.5-0.1,1-0.1,1.5-0.2l1.5-0.3l3-0.7c2-0.6,3.9-1.2,5.9-1.9l5.7-2.4l-1.1,1.5
			c3.9-24.4,7.9-48.7,12.2-73l1.6-9.1c0.5-3,1.1-6.1,1.8-9.1c1.3-6,2.6-12,4-18.1c2.7-12,5.5-24,8.7-36c-2.2,12.1-4.2,24.3-6.2,36.5
			c-1,6.1-1.9,12.2-2.8,18.3c-0.8,6.1-2.2,12.1-3.2,18.2c-4.3,24.2-8.3,48.6-12.2,72.9l0,0.1c-0.1,0.7-0.5,1.2-1.1,1.4l-6,2.5
			c-2.1,0.7-4.1,1.4-6.2,2l-3.2,0.7l-1.6,0.4c-0.5,0.1-1.1,0.2-1.6,0.2l-3.3,0.5c-1.1,0.1-2.2,0.1-3.3,0.2
			c-4.4,0.1-8.9-0.3-13.2-1.7c-1.1-0.4-2.1-0.7-3.2-1.2l-1.5-0.7l-1.5-0.8c-0.5-0.2-1-0.5-1.5-0.9s-1-0.6-1.4-1
			c-0.5-0.3-0.9-0.7-1.4-1.1c-0.5-0.4-0.9-0.7-1.4-1.3c-0.4-0.4-0.5-0.9-0.5-1.4v-0.1c1.8-22.4,3.7-44.8,5.8-67.2
			c2.1-22.4,4.4-44.8,7.2-67.1c1.4-11.2,2.9-22.3,5-33.4c0.5-2.8,1.1-5.6,1.7-8.3c0.4-1.4,0.7-2.8,1.1-4.2l0.7-2.1
			c0.2-0.7,0.6-1.4,0.9-2.1c1.3-2.8,3.1-5.2,4.9-7.4c1.8-2.3,3.8-4.4,5.8-6.4c2-2,4-4,6.2-5.9c2.1-1.9,4.4-3.6,6.6-5.4
			c4.4-3.5,9-6.9,13.6-10.1C361.5,330.2,370.9,324,380.6,318.2z"/>
	</g>
	<g class="st8">
		<path d="M300.3,539.1c1.9-0.4,3.7-0.7,5.5-1c1.7,0.3,3.4,0.5,5.2,0.7c3.5,0.3,6.9,0.4,10.4,0.3c3.5-0.1,6.9-0.5,10.3-1.1l2.5-0.5
			c0.8-0.2,1.6-0.5,2.5-0.7l1.4,0.1c0.5,0,0.9,0,1.4,0c0.9,0,1.9,0.1,2.9,0.2c-0.7,0.7-1.4,1.3-2.2,1.9c-0.4,0.3-0.8,0.6-1.1,0.9
			l-1.2,0.8c-0.9,0.3-1.8,0.5-2.7,0.7l-2.7,0.5c-3.6,0.7-7.2,1.1-10.9,1.2c-3.6,0.1-7.3,0-10.9-0.3l-2.7-0.3
			c-0.9-0.1-1.8-0.2-2.7-0.4C303.6,541.3,301.9,540.4,300.3,539.1z"/>
	</g>
	<g class="st8">
		<path d="M384.6,424.8c0.1,1.7-0.1,3.3-0.2,4.9l-2.2,3.9c-1.5,2.6-3.1,5.2-4.8,7.7s-3.5,5-5.5,7.3c-0.5,0.6-1,1.2-1.5,1.7l-0.8,0.8
			c-0.1,0.1-0.3,0.3-0.4,0.4c-0.1,0.2-0.2,0.3-0.4,0.4c-0.8,0.3-1.6,0.6-2.4,0.8c-0.8,0.2-1.7,0.4-2.5,0.5c0.4-0.8,0.8-1.5,1.1-2.1
			l1-2.1c0.5-0.5,1-1,1.5-1.5c0.5-0.5,1-1,1.4-1.6c1.9-2.1,3.6-4.5,5.2-6.9c1.6-2.4,3.1-4.9,4.6-7.4c0.7-1.3,1.5-2.5,2.1-3.8
			C382,426.8,383.2,425.8,384.6,424.8z"/>
	</g>
	<g class="st8">
		<path d="M507.8,576.5l-9.2,2.3c-3.1,0.7-6.2,1.3-9.2,1.9c-3.1,0.6-6.2,1.2-9.3,1.7l-4.7,0.8c-1.5,0.3-3.1,0.4-4.7,0.5
			c-12.5,1.2-25.1,2-37.6,2.7s-25.1,1.1-37.6,1.3c-12.6,0.2-25.1,0.4-37.7,0.3c-1.1,0-2-0.9-2-2c0-0.2,0-0.4,0.1-0.6l0,0
			c3.2-9.1,6.2-18.3,9-27.6c2.7-9.3,5.1-18.7,6.9-28.1c0.9-4.7,1.6-9.5,1.8-14.2c0.1-2.3,0.1-4.7-0.4-6.8c-0.3-1-0.6-2-0.9-2.6
			c-0.1-0.1-0.2-0.2-0.3-0.4l-0.7-0.8c-0.5-0.5-0.9-1-1.3-1.5c-1.6-2.1-2.7-4.3-3.8-6.6c-1.1-2.2-2-4.5-2.8-6.8
			c-1.7-4.6-3.1-9.3-4.2-14c1.8,4.5,3.8,9,5.9,13.3c1.1,2.1,2.2,4.3,3.5,6.3c1.2,2,2.6,4,4.1,5.6c0.4,0.4,0.8,0.8,1.2,1.1l0.6,0.5
			c0.3,0.3,0.6,0.6,0.9,1c1,1.4,1.5,2.8,1.8,4.1c0.5,2.7,0.5,5.2,0.4,7.8c-0.2,5-1,9.9-1.9,14.7c-1.8,9.7-4.3,19.1-7,28.5
			c-2.7,9.4-5.8,18.7-9,27.8l-1.9-2.7c12.5,0.1,25,0,37.5-0.3c12.5-0.3,25-0.7,37.5-1.3c3.1-0.1,6.2-0.3,9.4-0.5
			c3.1-0.2,6.2-0.4,9.4-0.6l9.4-0.7l9.3-0.9c1.5-0.2,3.1-0.3,4.7-0.5l4.7-0.3c3.1-0.2,6.2-0.3,9.4-0.6c3.1-0.3,6.2-0.4,9.4-0.8
			L507.8,576.5z"/>
	</g>
	<g class="st8">
		<path d="M513.4,378.9c3.5,7.4,6.4,15.2,8.9,23c1.9,8,3.5,16.2,4.3,24.4c0.2,2.1,0.4,4.1,0.5,6.2l0.2,3.1c0,1,0,2.1,0,3.1l0,3.1
			l-0.2,3.1c-0.1,1-0.1,2.1-0.2,3.1l-0.4,3.1c-1,8.2-2.4,16.3-3.8,24.3c-2.8,16.1-5.7,32.2-8.2,48.4c-1.3,8.1-2.3,16.1-3.2,24.2
			l-1,6l-0.8,6c-0.2,1-0.2,2-0.3,3l-0.3,3c-0.1,1-0.1,2-0.1,3l0,3.1l-0.5-3c-0.2-1-0.4-2-0.4-3.1l-0.2-3.1c-0.1-1-0.2-2.1-0.2-3.1
			c0-2.1-0.1-4.1-0.1-6.2l0.1-6.2c0.9-8.2,2-16.3,3.2-24.4c2.5-16.2,5.4-32.3,8.2-48.4c1.4-8,2.7-16.1,3.7-24.2l0.4-3
			c0.1-1,0.2-2,0.2-3l0.2-3l0-3c0-1,0-2,0-3l-0.2-3c-0.1-2-0.3-4-0.5-6c-0.9-8-2.3-16-4.3-23.9C517.1,394.8,515.4,386.8,513.4,378.9
			z"/>
	</g>
	<g class="st8">
		<path d="M492.9,310c9.1,6.2,18.1,12.7,26.9,19.4c2.2,1.7,4.5,3.3,6.5,5.1l6.3,5.4c4.2,3.6,8.3,7.3,12.4,11.1c2,1.9,4,3.8,6,5.8
			c1,1,2,2,2.9,3c1,1,2,2,2.9,3l2.8,3.2c0.9,1.1,1.8,2.3,2.6,3.4c0.4,0.5,0.9,1.3,1.3,2l0.5,1.1l0.4,1.1c0.5,1.4,0.9,2.8,1.2,4.2
			c1.2,5.6,1.6,11.2,1.9,16.7c0.3,5.5,0.4,11.1,0.4,16.6c0,22.1-1.3,44.2-2.8,66.2c-1.6,22-3.5,44-5.7,66c-0.1,1-0.8,1.7-1.8,1.8
			c-1.9,0.2-3.8,0.5-5.7,0.5c-1.9,0.1-3.8,0.1-5.7,0.1c-3.8,0-7.6-0.1-11.4-0.4c-3.8-0.3-7.5-0.7-11.3-1.3c-3.7-0.6-7.4-1.5-11-2.7
			c3.7,0.8,7.4,1.2,11.1,1.4c3.7,0.2,7.5,0.2,11.2,0.1c3.7-0.1,7.5-0.3,11.2-0.7c1.9-0.2,3.7-0.4,5.5-0.6c1.8-0.2,3.7-0.3,5.5-0.5
			l-1.8,1.8c2.3-21.9,4.2-43.9,5.7-65.8c1.5-22,2.8-44,2.8-65.9c0-5.5-0.1-11-0.4-16.4c-0.3-5.4-0.7-10.9-1.8-16.1
			c-0.3-1.3-0.6-2.6-1-3.7l-0.3-0.9l-0.4-0.8c-0.3-0.5-0.5-0.9-1-1.5c-0.8-1-1.6-2.1-2.4-3.1l-2.7-3c-0.9-1-1.9-2-2.8-3
			c-1-1-1.9-2-2.9-2.9c-2-1.9-3.9-3.8-5.9-5.7c-4-3.7-8.1-7.4-12.3-11l-3.1-2.7l-3.2-2.6c-2.1-1.8-4.1-3.7-6.1-5.5
			C509.5,324.6,501.2,317.3,492.9,310z"/>
	</g>
	<g class="st8">
		<path d="M514,521.4c1.9-0.5,3.7-0.8,5.5-1.2c1.7,0.2,3.4,0.4,5.2,0.5c3.5,0.2,6.9,0.3,10.4,0.2c3.5,0,6.9-0.4,10.3-0.8l2.5-0.4
			c0.8-0.1,1.7-0.4,2.5-0.5c1.8,0.3,3.6,0.3,5.5,0.6c-1.5,1.2-3,2.4-4.7,3.3c-0.2,0.1-0.4,0.1-0.7,0.2c-0.2,0-0.4,0.1-0.7,0.1
			c-0.4,0.1-0.9,0.2-1.3,0.3l-2.7,0.4c-3.6,0.5-7.2,0.8-10.8,0.9c-3.6,0.1-7.2,0-10.8-0.2c-1.8-0.1-3.6-0.3-5.4-0.5
			C517.3,523.3,515.6,522.5,514,521.4z"/>
	</g>
	<g class="st8">
		<path d="M382.1,320.6c1.5,1.2,2.9,2.2,4.4,3.2c0.2,0.1,0.3,0.3,0.4,0.5c0.1,0.2,0.2,0.3,0.4,0.5l0.8,0.9c0.5,0.6,1.1,1.2,1.7,1.8
			c2.3,2.3,5,4.4,7.8,6.2l2.1,1.3c0.7,0.4,1.5,0.8,2.2,1.2c1.5,0.8,3,1.4,4.6,2.1c1.5,0.7,3.1,1.2,4.7,1.8c1.4,1.1,2.9,2.1,4.3,3.4
			c-1.9,0.3-3.7,0.4-5.6,0.4c-1.7-0.6-3.4-1.2-5-1.9c-1.6-0.7-3.3-1.4-4.9-2.3c-0.8-0.4-1.6-0.8-2.4-1.3l-2.3-1.4
			c-3-2-5.9-4.1-8.5-6.7c-1.3-1.3-2.5-2.6-3.6-4.1C382.6,324.4,382.1,322.6,382.1,320.6z"/>
	</g>
	<g class="st8">
		<path d="M436.1,344.2l2.3-1.6c0.6,0.1,1.3,0.1,1.9,0.2c1.3,0,2.6,0,4-0.1c1.3-0.1,2.6-0.3,4-0.5c0.7-0.1,1.3-0.3,2-0.4
			c0.8,0.4,1.6,0.8,2.5,1.4c-0.5,1-1,1.7-1.6,2.5c-0.7,0.1-1.4,0.3-2.1,0.5c-1.4,0.3-2.9,0.5-4.4,0.6c-1.5,0.1-3,0.2-4.5,0.1
			c-0.8,0-1.5-0.1-2.3-0.2C437.2,345.9,436.6,345.2,436.1,344.2z"/>
	</g>
	<g class="st8">
		<path d="M471.1,336.9c1.1-1.1,2.2-2.1,3.2-3.1c1.2-0.4,2.4-0.9,3.6-1.5c2.4-1.1,4.6-2.4,6.7-3.9c2.1-1.5,4-3.2,5.6-5.2l1.2-1.5
			c0.4-0.5,0.7-1.1,1-1.6c0.3-0.2,0.6-0.4,0.9-0.6c0.3-0.2,0.5-0.4,0.9-0.6c0.6-0.4,1.2-0.9,1.9-1.3c0,0.8,0,1.5,0,2.3
			c0,0.4-0.1,0.8-0.1,1.2c-0.1,0.4-0.1,0.8-0.2,1.1c-0.4,0.6-0.8,1.2-1.2,1.8l-1.4,1.7c-1.9,2.2-4,4.2-6.3,5.8
			c-2.3,1.7-4.8,3.1-7.4,4.3c-1.3,0.6-2.6,1.1-3.9,1.6C474.1,337.6,472.6,337.4,471.1,336.9z"/>
	</g>
	<g class="st8">
		<path d="M375.9,324.5c3.8,5.5,8.2,10.3,13.1,14.5c2.2,2.3,4.6,4.5,7.1,6.5c2.5,2,5.1,3.8,7.9,5.4c2.8,1.6,5.6,3,8.6,4.2
			c1.5,0.6,3,1.1,4.5,1.7c0.8,0.2,1.5,0.5,2.3,0.7c0.8,0.2,1.5,0.5,2.3,0.6c6.2,1.5,12.6,2.2,19.1,2.1c6.4-0.1,12.9-0.9,19.1-2.4
			c6.2-1.5,12.2-3.9,17.6-7.3c5.4-3.3,10.1-7.7,13.8-12.9c2.1-2.4,3.9-5,5.5-7.9c0.8-1.4,1.5-2.9,2.2-4.4c0.7-1.5,1.3-3,1.7-4.6
			c-0.2,3.3-0.9,6.6-2,9.9c-1,3.2-2.5,6.3-4.2,9.3c-4,5.6-9.1,10.4-14.9,14c-5.8,3.6-12.2,6.2-18.8,7.8c-6.6,1.6-13.3,2.4-20,2.5
			c-6.7,0.1-13.5-0.6-20.1-2.2c-0.8-0.2-1.6-0.4-2.5-0.7s-1.6-0.5-2.4-0.7c-1.6-0.6-3.2-1.1-4.8-1.8c-3.1-1.2-6.2-2.8-9.1-4.5
			c-5.9-3.4-11.2-7.7-15.9-12.5C381.9,336.5,378.2,330.8,375.9,324.5z"/>
	</g>
	<g class="st8">
		<path d="M521.2,545.1c0.6,1.2,1,2.3,1.3,3.5l-0.8,3c-0.6,2-1.2,4-2,6c-0.8,2-1.7,4-3,5.8c-0.6,0.9-1.4,1.9-2.3,2.7
			c-1.3,0.4-2.8,0.5-4-0.1c0.8-1,1.2-2,1.4-2.9c0.6-0.5,1.2-1.2,1.7-2c1-1.5,1.9-3.3,2.6-5.1c0.7-1.8,1.4-3.7,1.9-5.6
			c0.3-1,0.5-1.9,0.8-2.9C519.4,546.8,520.2,545.9,521.2,545.1z"/>
	</g>
	<g class="st8">
		<path d="M555.8,545.7c0.1,3.1-0.2,6.2-0.5,9.3c-0.2,1.5-0.4,3.1-0.7,4.6c-0.3,1.5-0.5,3.1-1.1,4.5c-2.1,5.9-4.7,11.6-8.2,16.9
			c-1.8,2.6-3.7,5.1-5.9,7.4c-2.2,2.3-4.7,4.3-7.4,6.1c-2.7,1.8-5.6,3.1-8.7,4.2c-3,1.1-6.2,1.6-9.4,2c-1.1,0.1-2.1-0.7-2.2-1.7
			c-0.1-0.5,0.1-1,0.3-1.3l0-0.1c1.7-2.4,3.2-5.1,4.7-7.7c1.4-2.7,2.7-5.4,3.8-8.2c1.1-2.8,2-5.7,2.7-8.6c0.7-2.9,1-5.8,1.1-8.8
			l3.9,0.6c-0.3,1-0.6,1.8-1,2.7c-0.3,0.9-0.7,1.7-1.3,2.5c-1,1.6-2.2,3-3.6,4.4c-1.4,1.3-3,2.4-4.9,3c-0.9,0.3-1.9,0.4-2.8,0.3
			c-0.9-0.1-1.8-0.3-2.6-0.6c0.9,0.1,1.8,0,2.6-0.1c0.8-0.2,1.6-0.5,2.3-0.9c1.4-0.8,2.5-2.1,3.4-3.4c0.9-1.4,1.6-2.8,2.2-4.4
			c0.3-0.8,0.6-1.5,1-2.3c0.3-0.7,0.6-1.6,0.9-2.3l0-0.1c0.3-1,1.5-1.6,2.5-1.3c0.9,0.3,1.4,1.1,1.4,2c-0.1,3.3-0.5,6.5-1.2,9.6
			c-0.8,3.1-1.7,6.2-2.9,9.1c-1.2,3-2.5,5.8-4,8.6c-1.5,2.8-3.1,5.5-4.9,8.2l-1.8-3.2c2.9-0.3,5.8-0.8,8.5-1.8
			c2.7-1,5.3-2.2,7.8-3.8c2.4-1.6,4.6-3.5,6.7-5.5c2-2.1,3.8-4.4,5.5-6.9s3.1-5,4.3-7.7c1.3-2.7,2.4-5.4,3.3-8.3
			c0.4-1.5,1.1-2.8,1.6-4.2c0.6-1.4,1.1-2.8,1.7-4.2C554,551.6,554.9,548.7,555.8,545.7z"/>
	</g>
	<g class="st8">
		<path d="M336.5,563c-1.1,7.5-2.9,14.9-5.3,22.2c-1.2,3.6-2.5,7.2-4,10.8l-1.1,2.7c-0.4,0.9-0.8,1.7-1.3,2.6
			c-0.9,1.7-1.9,3.4-2.9,5c-2,3.3-4.1,6.5-6.5,9.6c-2.4,3-4.9,6-7.8,8.6c-2.9,2.6-6,5.1-9.3,7.1c-3.4,2-7,3.7-10.8,4.8
			c-1,0.3-2.2-0.2-2.5-1.3c-0.2-0.5-0.1-1,0.1-1.5l0,0c1.8-3.6,3.5-7.2,5.1-10.9c1.6-3.7,3.2-7.4,4.6-11.2s2.7-7.5,3.8-11.4
			c0.5-1.9,1-3.8,1.3-5.7c0.3-1.9,0.5-3.8,0.4-5.5l2.9,1.6c-4.2,2-8.4,3.5-12.8,4.8c-4.4,1.3-8.9,2.2-13.5,2.7
			c-4.6,0.4-9.3,0.3-14-1c-2.3-0.6-4.6-1.6-6.6-2.9c-2.1-1.3-3.9-3-5.4-4.9c-0.7-0.8-0.6-2.1,0.3-2.8c0.2-0.2,0.4-0.3,0.7-0.4l0.1,0
			c2.9-0.8,5.8-1.8,8.6-2.8c2.9-1,5.7-2.2,8.5-3.4c5.6-2.4,11-5.2,15.9-8.6l1,3.6c-3-0.2-5.9-0.7-8.8-1.4c-2.9-0.7-5.7-1.6-8.4-2.9
			c-2.7-1.3-5.3-2.9-7.6-4.9c-1.1-1-2.2-2.2-3.1-3.4c-0.9-1.3-1.7-2.7-2.2-4.1l0-0.1c-0.4-1,0.1-2.1,1.1-2.5
			c0.5-0.2,1.1-0.2,1.6,0.1c2.5,1.4,5.3,2.5,8.1,3.5c2.8,0.9,5.8,1.6,8.7,2.1c3,0.4,6,0.5,9,0.1c3-0.3,6-1.2,8.8-2.5
			c-2.6,1.5-5.5,2.8-8.6,3.5c-3.1,0.7-6.2,1-9.4,0.9c-3.1-0.1-6.3-0.5-9.4-1.2c-1.5-0.3-3.1-0.8-4.6-1.2c-1.5-0.5-3-1-4.5-1.7
			l2.7-2.5c0.6,1.1,1.2,2.2,1.9,3.3c0.7,1,1.6,2,2.5,2.9c1.9,1.7,4.2,3.2,6.6,4.3c2.4,1.1,5,2,7.6,2.7c2.6,0.6,5.4,1.1,8,1.3h0.1
			c1.1,0.1,1.9,1,1.9,2.1c0,0.6-0.4,1.2-0.9,1.5c-5.2,3.6-10.9,6.5-16.6,9c-2.9,1.2-5.8,2.4-8.7,3.5c-3,1.1-5.9,2-9,2.9l1.1-3.2
			c2.5,3.1,6,5.4,10,6.4c4,1.1,8.3,1.2,12.5,0.8c4.3-0.4,8.5-1.3,12.7-2.5c4.2-1.2,8.3-2.8,12.2-4.5l0.1,0c1-0.5,2.2,0,2.6,1
			c0.1,0.2,0.2,0.5,0.2,0.7c0.2,2.3,0,4.5-0.4,6.6c-0.3,2.1-0.8,4.1-1.4,6.1c-1.1,4-2.5,7.9-3.9,11.7c-1.5,3.8-3,7.6-4.7,11.4
			c-1.7,3.7-3.4,7.4-5.2,11.1l-2.4-2.8c3.4-1.1,6.8-2.6,9.9-4.4c3.1-1.9,6-4.2,8.7-6.6c2.7-2.5,5.1-5.3,7.4-8.2
			c2.3-2.9,4.3-6,6.2-9.2c1-1.6,1.8-3.2,2.7-4.9c0.9-1.7,1.8-3.3,2.7-4.9c1.8-3.3,3.4-6.7,4.9-10.1c1.5-3.4,2.9-6.9,4.2-10.5
			C334.2,570.2,335.5,566.6,336.5,563z"/>
	</g>
	<g class="st8">
		<path d="M364.4,588.4c0.2,8.2,0.2,16.5,0.2,24.7c-0.6,8.2-1,16.4-1.5,24.5c-0.4,8.2-0.8,16.4-0.9,24.5c-0.1,2-0.1,4.1-0.1,6.1
			s0,4.1,0,6.1c0,2,0,4.1,0.1,6.1c0.1,2,0.1,4.1,0.4,6l0.6,6.2c0.1,1.1,0.2,2.1,0.2,3.1l0.1,3.1c0.1,4.2,0.1,8.3,0,12.4
			c-0.2,8.2-0.5,16.5-1,24.7s-1,16.4-1.7,24.6c-1.2,8.2-2.5,16.3-4.1,24.4c0-8.2,0.1-16.5,0.1-24.7c0.6-8.2,1.2-16.3,1.7-24.5
			c0.5-8.2,0.8-16.4,1-24.5c0.1-4.1,0.1-8.2,0-12.2l-0.1-3c0-1-0.1-2-0.2-3l-0.6-6.1c-0.2-2.1-0.3-4.2-0.4-6.3
			c-0.1-2.1-0.1-4.1-0.1-6.2s0-4.1,0-6.2c0-2.1,0-4.1,0.1-6.2c0.2-8.2,0.5-16.5,0.9-24.7c0.4-8.2,0.9-16.4,1.4-24.6
			C361.8,604.6,362.9,596.5,364.4,588.4z"/>
	</g>
	<g class="st8">
		<path d="M461.6,616.5c-4.7,4.3-9.9,8-15.5,11.1c-1.4,0.7-2.9,1.5-4.4,2.1c-1.5,0.7-3.1,1-4.7,1.5c-3.2,0.8-6.5,1.4-9.8,1.5l2-1.8
			c-1.2,12.5-2.5,25-3.9,37.6c-0.7,6.3-1.5,12.5-2.4,18.8c-0.4,3.1-0.9,6.2-1.5,9.4c-0.1,0.8-0.3,1.6-0.5,2.4l-0.6,2.4l-0.5,2.1
			c-0.1,0.7-0.2,1.5-0.3,2.2c-0.8,6.1-1.2,12.4-1.5,18.6c-0.3,6.3-0.6,12.5-0.9,18.8l-0.3,9.4c-0.1,1.6,0,3.1-0.1,4.7l-0.5,4.7
			c-0.6,6.3-1.3,12.5-2.1,18.8c-0.5-6.3-0.9-12.6-1.2-18.9l-0.2-4.7c-0.1-1.6,0.1-3.1,0.1-4.7l0.3-9.4c0.2-6.3,0.5-12.6,0.9-18.9
			c0.4-6.3,0.8-12.6,1.6-19c0.1-0.8,0.2-1.6,0.4-2.4l0.5-2.5l0.5-2.2c0.2-0.7,0.3-1.5,0.4-2.3c0.6-3,1-6.1,1.5-9.2
			c0.9-6.2,1.6-12.4,2.4-18.7c1.4-12.5,2.7-25,3.9-37.5c0.1-1,0.9-1.8,1.9-1.8h0c3-0.1,5.9-0.6,8.8-1.3c1.5-0.4,2.9-0.9,4.3-1.4
			c1.5-0.4,2.9-0.9,4.4-1.4c2.9-1,5.8-2.3,8.6-3.6C456.1,619.6,458.9,618.2,461.6,616.5z"/>
	</g>
	<g class="st8">
		<path d="M451.2,627.1c1,6.4,1.8,12.9,2.7,19.3c0.2,6.5,0.5,12.9,0.8,19.4c0.3,6.5,0.7,12.9,1.2,19.3l0.4,4.8l0.5,4.8
			c0.2,1.6,0.4,3.2,0.6,4.7l0.4,2.3l0.4,2.5c0.2,0.9,0.2,1.7,0.3,2.5l0.2,2.5l0.2,4.9c0.1,3.3,0.2,6.5,0.1,9.8
			c0,6.5-0.1,13-0.3,19.5c-0.2,6.5-0.4,13-0.7,19.4c-0.9,6.4-1.8,12.9-2.9,19.3c-0.5-6.5-0.7-13-1.1-19.5c0.3-6.5,0.5-12.9,0.7-19.4
			c0.2-6.5,0.3-12.9,0.3-19.3c0-3.2-0.1-6.4-0.1-9.6l-0.2-4.8l-0.2-2.4c-0.1-0.8-0.1-1.6-0.2-2.3l-0.4-2.2l-0.5-2.5
			c-0.3-1.7-0.5-3.3-0.7-4.9l-0.5-4.9l-0.4-4.9c-0.5-6.5-0.9-13-1.2-19.4l-0.9-19.4C450.2,640.1,450.6,633.6,451.2,627.1z"/>
	</g>
	<g class="st8">
		<path d="M509.1,578.5c1.5,8.3,2.5,16.6,3.5,24.9c0.3,8.4,0.7,16.7,0.7,25.1c0.1,8.4,0,16.8-0.5,25.2l-0.2,3.2l-0.3,3.2l-0.6,6.2
			c-0.2,2-0.3,4.1-0.5,6.2s-0.2,4.1-0.3,6.2c-0.6,16.6-0.5,33.3-0.3,50c0.1,8.3,0.3,16.7,0.5,25c-0.4,8.3-0.7,16.7-1.2,25.1
			c-1.1-8.3-1.9-16.6-2.8-25c-0.2-8.3-0.4-16.7-0.5-25c-0.2-16.7-0.4-33.4,0.3-50.2c0.1-2.1,0.1-4.2,0.3-6.3
			c0.1-2.1,0.2-4.2,0.5-6.3l0.6-6.2l0.3-3.1l0.2-3.1c0.5-8.2,0.6-16.6,0.5-24.9c-0.1-8.3-0.4-16.6-0.8-25L509.1,578.5z"/>
	</g>
	<g class="st8">
		<path d="M356.1,786.9c2.5-0.6,4.9-1.1,7.4-1.6c2.4,0.1,4.8,0.2,7.2,0.2c4.8,0.1,9.6,0,14.5-0.2c4.8-0.2,9.6-0.6,14.4-1.1
			c2.4-0.3,4.8-0.6,7.1-1c2.5,0.3,4.9,0.3,7.5,0.7c-2.2,1.2-4.5,2.4-6.8,3.3c-2.4,0.4-4.9,0.7-7.3,1c-4.9,0.5-9.8,0.9-14.7,1.1
			c-4.9,0.2-9.8,0.3-14.7,0.2c-2.5,0-4.9-0.1-7.3-0.2C360.9,788.7,358.4,787.9,356.1,786.9z"/>
	</g>
	<g class="st8">
		<path d="M354,783.4c-0.9,0.9-1.6,1.9-2.2,2.9c-0.6,1-0.9,2.2-0.7,3l0.1,0.3l0.1,0.5c0.1,0.3,0.1,0.7,0.2,1
			c0.1,0.7,0.2,1.3,0.2,1.9l0.4,3.7c-0.1,2.4-0.2,4.9,0.1,7c0.1,0.5,0.2,1,0.3,1.2c0,0.1,0.1,0-0.2-0.2c-0.1-0.1-0.2-0.1-0.3-0.1
			c0,0-0.1,0-0.1,0c0,0,0,0,0,0l0.3,0c1.1,0,2.4,0,3.6,0c9.8-0.2,19.7-0.7,29.5-1.2c9.8-0.5,19.7-1.1,29.4-2.1
			c1.2-0.1,2.4-0.3,3.5-0.5l0.3-0.1l0.1,0c0,0,0,0-0.1,0c-0.1,0-0.3,0.2-0.4,0.3c-0.2,0.2-0.1,0.1-0.1,0.1c0,0,0,0,0,0s0,0,0,0
			l0-0.2l0.1-0.3l0.1-0.4c0.1-0.2,0.1-0.5,0.2-0.8c0.5-2.2,0.8-4.7,1-7c0.2-1.2,0.5-2.4,0.6-3.5c0.1-1.2,0.3-2.4,0.2-3.4
			c0-0.4-0.2-0.9-0.5-1.4c-0.3-0.5-0.6-1-1-1.4c-0.8-0.9-1.7-1.7-2.7-2.5c1.2,0.4,2.3,0.9,3.4,1.6c0.5,0.3,1.1,0.8,1.6,1.2
			c0.5,0.5,1,1,1.3,1.8c0.3,0.7,0.4,1.4,0.5,2c0.1,0.7,0.2,1.3,0.3,1.9c0.2,1.3,0.2,2.6,0.3,3.8c0,0.6-0.1,1.3-0.2,1.9l-0.2,1.9
			c-0.2,1.3-0.4,2.5-0.7,3.8c-0.1,0.3-0.2,0.7-0.3,1l-0.1,0.5l-0.2,0.6l-0.1,0.3c-0.1,0.1-0.1,0.3-0.2,0.4l-0.2,0.4
			c-0.1,0.1,0,0.1-0.2,0.3c-0.2,0.2-0.4,0.3-0.6,0.4c-0.2,0.1-0.4,0.2-0.5,0.2l-0.3,0.1l-0.6,0.1c-1.4,0.3-2.6,0.4-3.9,0.6
			c-9.9,1-19.8,1.6-29.6,2.1c-9.9,0.5-19.7,1-29.7,1.2c-1.3,0-2.5,0-3.8,0c-0.2,0-0.4,0-0.6,0l-0.2,0l-0.3-0.1
			c-0.2,0-0.5-0.2-0.7-0.3c-0.8-0.5-1.1-1.1-1.4-1.6c-0.4-0.9-0.5-1.6-0.6-2.3c-0.2-1.4-0.2-2.7-0.2-4v-1.9c0-0.6,0-1.2,0-1.9
			l0.5-3.7c0.1-0.6,0.2-1.2,0.2-1.8c0-0.3,0-0.6,0-0.8l0-1c0.2-1.7,1.1-2.8,2-3.8C351.9,784.7,352.9,783.9,354,783.4z"/>
	</g>
	<g class="st8">
		<path d="M457.3,783.4c2.2-0.6,4.3-1.1,6.4-1.5c2.1,0.2,4.1,0.2,6.2,0.2c4.2,0.1,8.3,0,12.5-0.2c4.1-0.2,8.3-0.7,12.3-1.3
			c2-0.4,4.1-0.7,6.1-1.2c2.1,0.2,4.3,0.1,6.5,0.3c-1.8,1.3-3.7,2.6-5.6,3.6c-2.1,0.5-4.2,0.9-6.3,1.2c-4.2,0.6-8.5,1.1-12.7,1.3
			c-4.3,0.2-8.5,0.3-12.8,0.2c-2.1,0-4.2-0.1-6.4-0.2C461.4,785.2,459.3,784.4,457.3,783.4z"/>
	</g>
	<g class="st8">
		<path d="M452.8,780c-0.6,0.7-1.2,1.4-1.8,2.2c-0.3,0.4-0.5,0.8-0.7,1.1c-0.2,0.4-0.4,0.8-0.4,1l0,0.1l0,0c0-0.1,0,0.2,0,0.3
			l0.1,0.7l0.2,1.4l0.3,2.8l0.3,2.8c0.1,0.9,0,1.8,0,2.7c0,0.9,0.1,1.8,0.1,2.7c0.1,0.8,0.2,1.8,0.4,2.3l0.1,0.2c0,0,0,0.1,0,0.1
			c0,0,0,0,0,0c0,0,0,0-0.1-0.1c0-0.1-0.1-0.1-0.2-0.1c-0.1-0.1-0.3-0.2-0.4-0.2c-0.1,0-0.1,0,0,0h0h0.1l0.2,0l0.2,0h0.3
			c0.9,0,1.8,0,2.7,0l5.6-0.1c3.7-0.1,7.5-0.3,11.2-0.4c7.5-0.3,14.9-0.8,22.3-1.4c1.9-0.2,3.7-0.3,5.5-0.5c1.9-0.2,3.7-0.4,5.5-0.6
			c1.8-0.2,3.6-0.5,5.5-0.8l2.6-0.5c0.5-0.1,0.8-0.2,1.2-0.3l1.1-0.4l-1.2,1.5c0.3-1.9,0.7-3.9,0.9-5.9c0.1-1,0.2-2,0.3-3
			c0.1-1,0.4-1.9,0.5-2.9c0.2-1,0.3-1.9,0.3-2.9c0-0.5,0-0.9,0-1.4c0-0.4-0.1-0.8-0.2-1.3c-0.2-0.8-0.7-1.6-1.4-2.1
			c-0.7-0.5-1.8-0.6-2.8-0.3c0.9-0.6,2-0.9,3.1-0.6c1.2,0.3,2.1,1.2,2.7,2.2c0.3,0.5,0.5,1,0.8,1.6c0.2,0.5,0.3,1.1,0.4,1.6
			c0.2,1.1,0.4,2.1,0.5,3.2c0.1,0.5,0.1,1.1,0.1,1.6c0,0.5,0.1,1,0,1.6l-0.4,3.1c-0.3,2.1-0.6,4.1-0.9,6.1l0,0.2
			c-0.1,0.6-0.6,1.1-1.1,1.3l-1.5,0.5c-0.5,0.2-1,0.3-1.5,0.4c-1,0.2-1.9,0.4-2.9,0.6c-1.9,0.3-3.8,0.6-5.6,0.8
			c-1.9,0.2-3.8,0.5-5.6,0.6c-1.9,0.2-3.7,0.4-5.6,0.5c-7.5,0.6-15,1.1-22.5,1.4c-3.7,0.2-7.5,0.3-11.2,0.4c-1.9,0-3.8,0.1-5.6,0.1
			c-0.9,0-1.9,0-2.9,0h-0.4l-0.5,0l-0.5,0l-0.2,0l-0.1,0c0,0-0.1,0-0.2,0c-0.3-0.1-0.5-0.2-0.7-0.3c-0.2-0.1-0.3-0.2-0.4-0.4
			c-0.1-0.2-0.2-0.3-0.3-0.4l-0.2-0.3c-0.1-0.2-0.2-0.4-0.2-0.5l-0.2-0.5c-0.3-1.2-0.4-2.2-0.5-3.2c-0.1-1-0.1-2-0.2-2.9
			c0-1-0.2-1.9,0-2.9l0.4-2.8l0.4-2.8l0.2-1.4l0.1-0.7c0,0,0-0.7,0.2-1c0.3-0.6,0.6-1,1-1.4c0.4-0.3,0.7-0.7,1.1-1
			C451.2,780.9,452,780.4,452.8,780z"/>
	</g>
	<g class="st8">
		<path d="M511.8,805.9c10,2.7,19.8,5.7,29.7,9c4.8,1.9,9.5,4,14.3,6.1c2.4,1.1,4.7,2.2,7,3.5c1.2,0.6,2.3,1.3,3.5,2
			c1.2,0.7,2.3,1.5,3.4,2.5c0.3,0.3,0.6,0.6,0.8,0.9l0.6,0.8c0.4,0.5,0.8,1.1,1.2,1.7c0.4,0.6,0.7,1.2,1,1.9c0.3,0.7,0.6,1.3,0.8,2
			c0.5,1.4,0.7,3,0.6,4.6c-0.1,1.6-0.7,3.2-1.5,4.5c-1.7,2.7-4.3,4.4-6.8,5.5l-1,0.4c-0.3,0.1-0.6,0.3-1,0.4
			c-0.4,0.1-0.8,0.2-1.1,0.3l-1,0.2c-0.7,0.2-1.3,0.2-2,0.3c-0.7,0.1-1.3,0.2-2,0.2c-5.2,0.5-10.4,0.8-15.6,1
			c-5.2,0.2-10.3,0.3-15.5,0.3c-10.3,0.1-20.6,0.1-31,0c-10.3-0.2-20.6-0.4-31-0.9c-2.6-0.1-5.2-0.3-7.8-0.5c-0.6,0-1.3-0.1-2-0.2
			c-0.6-0.1-1.4-0.2-2-0.3c-0.1,0-0.4-0.1-0.6-0.2l-0.7-0.2c-0.5-0.2-1-0.5-1.3-0.8c-0.8-0.6-1.3-1.2-1.7-1.8
			c-1.7-2.6-2.5-5.2-3.1-7.9c-0.3-1.3-0.5-2.7-0.6-4c-0.1-1.3-0.3-2.7-0.2-4c0.4-10.8,4.3-21,10.3-29.4c-4.7,9.2-7.1,19.4-6.3,29.3
			l0.2,3.7c0.1,1.2,0.3,2.4,0.5,3.6c0.5,2.3,1.3,4.7,2.4,6.4c0.1,0.2,0.3,0.4,0.4,0.6c0.1,0.1,0.3,0.3,0.4,0.4
			c0.1,0.1,0.2,0.2,0.4,0.2c0.1,0,0.2,0,0.2,0c0.1,0,0.1,0,0.3,0.1c0.6,0.1,1.1,0.2,1.8,0.2c0.6,0.1,1.2,0.1,1.9,0.2
			c2.5,0.2,5.1,0.4,7.6,0.5c10.2,0.5,20.5,0.7,30.8,0.9c10.3,0.1,20.6,0.2,30.9,0c5.1-0.1,10.3-0.2,15.4-0.3
			c5.1-0.2,10.3-0.4,15.3-0.9c1.2-0.1,2.5-0.3,3.7-0.5l0.9-0.2c0.3-0.1,0.5-0.1,0.7-0.2c0.2,0,0.5-0.2,0.8-0.3l0.8-0.3
			c2.1-1,4-2.3,5.1-4c0.5-0.8,0.8-1.8,0.9-2.7c0-1-0.1-2-0.4-3c-0.2-0.5-0.4-1-0.6-1.5c-0.3-0.5-0.5-1-0.8-1.5c-0.3-0.5-0.6-1-1-1.5
			l-0.5-0.7c-0.2-0.2-0.3-0.3-0.5-0.5c-0.8-0.7-1.7-1.4-2.8-2c-1-0.7-2.1-1.2-3.2-1.8c-2.2-1.2-4.5-2.3-6.8-3.3
			c-4.6-2.1-9.4-4.1-14.1-6C530.6,814.3,521.2,810.1,511.8,805.9z"/>
	</g>
	<g class="st8">
		<path d="M406.9,807.9c2.8,4.1,5.4,8.3,7.8,12.7c2.3,4.4,4.5,8.9,6.1,13.7c0.4,1.2,0.7,2.5,0.9,3.7c0.2,1.3,0.5,2.5,0.6,3.8
			c0.3,2.6,0.4,5.3-0.3,8.1c-0.2,0.7-0.4,1.4-0.7,2.1l-0.2,0.5c-0.1,0.2-0.2,0.3-0.3,0.5c-0.2,0.4-0.5,0.7-0.8,1
			c-1.1,1.2-2.4,1.9-3.6,2.5c-2.5,1.2-4.9,1.8-7.4,2.4c-5,1.1-9.9,1.8-14.8,2.3c-5,0.5-9.9,0.8-14.8,1.1c-9.9,0.5-19.8,0.6-29.6,0.6
			c-4.9,0-9.9-0.1-14.8-0.2l-1.9,0c-0.6,0-1.4,0-2.1-0.2c-1.5-0.3-2.9-0.8-4.2-1.7c-1.3-0.8-2.3-2-3.1-3.3c-0.4-0.7-0.6-1.3-0.9-1.9
			c-0.3-0.6-0.5-1.2-0.7-1.9c-0.9-2.5-1.4-5.1-1.4-7.8c-0.1-2.7,0.2-5.4,1-8c0.3-1.3,1-2.5,1.5-3.8c0.3-0.6,0.7-1.2,1.1-1.7
			c0.4-0.6,0.7-1.2,1.2-1.6l1.3-1.5c0.4-0.5,1-0.9,1.5-1.4c0.5-0.4,1-0.9,1.5-1.3l1.6-1.1c4.4-2.9,9.4-4.6,14.3-5.8
			c2.5-0.4,4.9-1,7.5-1.3c2.5-0.3,5-0.5,7.6-0.5c5.1,0.3,10.2,1.3,14.9,3.2c4.6,2,9,4.9,11.9,9c-1.7-1.8-3.8-3.2-5.9-4.3
			c-2.1-1.2-4.4-2-6.7-2.6c-4.6-1.2-9.4-1.5-14.2-1.2c-4.8,0.1-9.5,0.7-14.2,1.7c-4.6,1.1-9.1,2.6-12.9,5.2c-3.8,2.5-6.9,6-8.1,10.3
			c-0.7,2.1-0.9,4.4-0.9,6.6c0,2.3,0.5,4.5,1.2,6.7c0.2,0.5,0.4,1.1,0.6,1.6c0.2,0.5,0.5,1.1,0.7,1.5c0.5,0.8,1.1,1.5,1.9,2
			c0.8,0.5,1.7,0.9,2.6,1c0.8,0.1,2.2,0.1,3.4,0.2c4.9,0.1,9.8,0.2,14.7,0.2c9.8,0,19.6-0.1,29.4-0.6c4.9-0.2,9.8-0.6,14.6-1.1
			c4.8-0.5,9.7-1.2,14.3-2.2c2.3-0.5,4.6-1.2,6.6-2.2c1-0.5,1.9-1,2.4-1.6c0.1-0.2,0.2-0.3,0.3-0.4c0,0,0.1-0.2,0.1-0.3l0.1-0.3
			c0.2-0.4,0.3-0.9,0.5-1.4c0.5-2,0.5-4.3,0.2-6.6c-0.1-1.2-0.3-2.3-0.6-3.5c-0.3-1.2-0.6-2.3-0.9-3.5c-1-4.7-2.5-9.3-4.3-13.9
			c-0.9-2.3-1.8-4.6-2.7-6.8C409,812.3,408,810.1,406.9,807.9z"/>
	</g>
	<g class="st8">
		<path d="M360.8,808.2c0.4,0.9,0.6,1.6,0.8,2.3c-0.3,0.4-0.6,0.8-0.8,1.2l-1.6,2.4l-1.6,2.4l-0.8,1.2c-0.8,0-1.5,0.1-2.5,0.1
			c-0.4-0.8-0.6-1.6-0.8-2.3l0.8-1.2l1.6-2.4l1.6-2.4c0.3-0.4,0.6-0.8,0.8-1.2C359.1,808.2,359.9,808.1,360.8,808.2z"/>
	</g>
</g>
<g id="Layer_3">
	<g>
		<path d="M365.2,56.5L365.2,56.5l66.4,31.7c1,0.5,2.2,0.1,2.7-0.9l0-0.1c0.7-1.4,1.7-3,2.7-4.3c0.5-0.7,1.1-1.4,1.6-2.1
			c0.6-0.6,1.1-1.3,1.8-1.9c2.5-2.4,5.3-4.5,8.4-6c3.1-1.5,6.5-2.3,9.8-2.6c1.5-0.1,3.1,0.2,4.7,0.7c1.6,0.5,3.1,1.2,4.6,2.1
			c3,1.7,5.8,4,8.4,6.4c2.6,2.4,5,5.1,7.4,7.9c4.6,5.5,8.9,11.5,12.6,17.6l0,0.1c0.3,0.4,0.7,0.8,1.2,0.9c1.1,0.3,2.1-0.4,2.4-1.4
			c0.4-1.6,0.7-3.1,1-4.6c0.3-1.5,0.5-3.1,0.6-4.7c0.1-1.3,0.2-2.6,0.2-3.9c2.7,3,5.3,6.1,7.8,9.2c1.8,2.3,3.6,4.6,5.2,6.9
			c0.8,1.2,1.6,2.4,2.3,3.6c0.4,0.6,0.6,1.2,1,1.8c0.2,0.3,0.3,0.6,0.4,0.9l0.3,0.8l0.1,0.2c0.2,0.5,0.6,1,1.2,1.2
			c1,0.3,2.2-0.2,2.5-1.2c0.1-0.3,0.1-0.4,0.2-0.6c0-0.2,0.1-0.4,0.1-0.6c0.1-0.3,0.2-0.7,0.2-1.1c0.1-0.7,0.2-1.4,0.2-2.1
			c0.1-0.7,0.1-1.4,0.1-2.1c0-0.7,0-1.4,0-2c0-2.7-0.3-5.4-0.6-8c-0.7-5.3-1.9-10.4-3.3-15.5c-1.4-5.1-3.2-10-5-14.9
			c-1-2.4-2-4.8-3-7.3l-1.6-3.6l-1.8-3.5c-2.6-4.7-5.8-9-9.3-13c-0.9-1-1.9-1.9-2.8-2.9c-1-0.9-2-1.8-3-2.6
			c-2.1-1.7-4.3-3.2-6.5-4.6c-4.6-2.8-9.4-5-14.4-6.6c-4.8-1.5-9.7-2.6-14.8-2.9c0-0.1,0-0.2,0.1-0.3c0.1-0.3,0.2-0.7,0.3-1
			c0.3-0.7,0.6-1.3,1-1.9c0.8-1.2,1.8-2.4,2.8-3.5c0.5-0.5,1.1-1,1.7-1.5c0.6-0.5,1.2-1,1.8-1.4c0.6-0.5,1.2-0.9,1.9-1.4
			c0.7-0.4,1.3-0.9,1.9-1.3c-0.7,0.4-1.4,0.8-2,1.1c-0.6,0.4-1.3,0.8-2,1.2c-0.6,0.4-1.3,0.9-1.9,1.3c-0.6,0.5-1.2,0.9-1.8,1.4
			c-1.2,1-2.3,2.1-3.2,3.4c-0.5,0.6-0.9,1.3-1.3,2c-0.2,0.4-0.3,0.7-0.5,1.1c-0.1,0.4-0.2,0.8-0.2,1.3c0,0.3,0.2,0.6,0.5,0.6l0.1,0
			c5,0.6,10,2,14.8,3.8c4.8,1.9,9.2,4.3,13.4,7.2c4.1,2.9,7.8,6.4,11.2,10c3.4,3.7,6.4,7.8,8.8,12.2l1.7,3.4l1.6,3.4
			c1,2.4,2,4.8,2.9,7.2c1.8,4.8,3.5,9.7,4.9,14.6c1.4,4.9,2.6,9.9,3.2,14.9c0.3,2.5,0.6,5,0.5,7.5c0,0.3,0,0.6,0,0.9
			c-0.5-0.7-0.9-1.4-1.4-2.1c-1.7-2.5-3.5-4.8-5.4-7.1c-3.7-4.6-7.6-9.1-11.6-13.4c-0.4-0.4-1-0.7-1.7-0.6c-1.1,0.1-1.9,1.1-1.8,2.2
			v0c0.3,2.8,0.2,5.8,0,8.7c-0.1,1.3-0.3,2.6-0.5,3.9c-3.2-4.8-6.6-9.5-10.3-13.9c-2.4-2.9-4.9-5.6-7.7-8.2c-2.8-2.6-5.7-5-9.1-7
			c-1.7-1-3.5-1.8-5.4-2.4c-1.9-0.6-4-1-6.1-0.9c-4,0.3-7.8,1.3-11.3,3c-3.5,1.7-6.7,4-9.5,6.8c-0.7,0.7-1.3,1.4-2,2.1
			c-0.6,0.8-1.2,1.5-1.8,2.3c-0.8,1.1-1.5,2.1-2.1,3.2l-62.2-29.7c6.2-6.5,12.6-12.8,19.1-18.9c7.2-6.7,14.8-13.1,22.9-18.4l3-2
			l3.1-1.7c1.1-0.5,2.2-0.9,3.3-1.4c1.1-0.4,2.3-0.7,3.4-1.1c4.7-1.3,9.5-2,14.4-2.4c4.9-0.4,9.9-0.6,14.8-0.5c5,0,9.9,0.2,14.9,0.7
			c-9.8-1.6-19.8-2.5-29.8-2.3c-5,0.1-10,0.5-15,1.5c-1.2,0.3-2.5,0.6-3.7,0.9c-1.2,0.4-2.5,0.8-3.7,1.2l-3.5,1.6
			c-1.1,0.6-2.2,1.2-3.3,1.9c-1.1,0.6-2.1,1.4-3.2,2.1l-1.6,1.1l-1.5,1.1l-3,2.3l-2.9,2.4c-3.9,3.2-7.6,6.5-11.3,9.9
			c-7.4,6.8-14.4,13.8-21.3,21.1c-0.1,0.1-0.3,0.3-0.4,0.5C363.8,54.9,364.2,56.1,365.2,56.5z"/>
		<path d="M359.7,69.7c0.3,0.9,0.6,1.7,0.9,2.7l0.4,1.4l0.3,1.5c0.5,1.9,0.8,4,1.2,6c0.7,4,1.3,8.1,1.8,12.1
			c1.1,8.1,2,16.3,2.9,24.4v0c0.1,0.9,0.8,1.6,1.7,1.7c0.6,0.1,1.2,0,1.6-0.1c0.4-0.1,0.7-0.3,1-0.5c0.5-0.3,0.9-0.7,1.3-1
			c0.7-0.7,1.3-1.4,1.8-2.1c0,0,0,0,0,0c0.3,2.4,0.6,4.8,0.8,7.2c0.3,4.1,0.5,8.3,0.7,12.4c0.3,8.3,0.4,16.6,0.3,24.9v0
			c0,0.7,0.3,1.3,0.9,1.7c0.9,0.6,2.2,0.3,2.8-0.6l8-12.5l0.3,0.5l0.4,0.5l0.2,0.3c0.1,0.1,0.1,0.2,0.4,0.4l0.1,0.1
			c0.1,0,0.1,0.1,0.2,0.1c0.1,0,0.1,0.1,0.2,0.1c0,0,0.1,0.1,0.8,0.2c0.5,0,1-0.1,1.4-0.4c0.4-0.3,0.8-0.9,0.8-1.4
			c0-0.4,0-0.1,0-0.2l0,0c0,0,0,0,0.1,0.1c0,0,0,0.1,0.1,0.1c0,0,0,0.1,0,0.1l0,0l0-0.1l0.1-0.1l0.6-1l1.2-2l4.8-7.9
			c3.2-5.3,6.4-10.6,9.7-15.8c1.7-2.6,3-5.4,4.5-8.1l4.4-8.2c2.9-5.5,5.8-10.9,8.7-16.4c-3.6,5-7.2,10.1-10.7,15.2l-5.3,7.6
			c-1.7,2.6-3.6,5-5.1,7.7c-3.2,5.3-6.4,10.5-9.6,15.8l-4.8,7.9l-0.8,1.4l-1-1.4l0,0c-0.1-0.2-0.3-0.4-0.5-0.5
			c-0.9-0.6-2.2-0.3-2.8,0.6l-5.9,9.2c0-6.1-0.1-12.1-0.3-18.2c-0.1-4.2-0.4-8.4-0.7-12.6c-0.3-4.2-0.7-8.4-1.7-12.7
			c-0.1-0.5-0.5-1-1-1.3c-1-0.6-2.2-0.2-2.7,0.7l0,0c-0.4,0.6-0.8,1.3-1.2,2c-0.4,0.7-0.9,1.3-1.3,1.9c-0.2,0.2-0.3,0.4-0.5,0.6
			c-0.8-7.1-1.6-14.2-2.5-21.2c-0.6-4.1-1.1-8.2-1.9-12.3c-0.4-2.1-0.7-4.1-1.2-6.1l-0.3-1.5l-0.4-1.6c0-0.1-0.1-0.3-0.1-0.4
			c1.9,0,3.8,0.2,5.7,0.4l2.1,0.2l2.1,0.3c1.4,0.2,2.8,0.4,4.2,0.7c5.6,1.1,11.1,2.6,16.5,4.4c2.7,0.9,5.5,1.6,8.1,2.6
			c1.3,0.5,2.7,0.9,4,1.4l4,1.6l2,0.8l2,0.9l3.9,1.8c1.3,0.6,2.5,1.2,3.8,1.8c1.3,0.6,2.6,1.3,4,2c-1.1-0.8-2.3-1.6-3.5-2.4
			c-1.2-0.8-2.5-1.7-3.7-2.5l-3.7-2.2l-1.9-1.1l-1.9-1.1l-3.9-2.1c-1.3-0.7-2.6-1.3-3.9-1.9c-2.6-1.3-5.3-2.4-8-3.5
			c-5.6-1.8-11.2-3.4-17-4.5c-1.5-0.3-2.9-0.6-4.4-0.7l-2.2-0.3l-2.2-0.2c-3-0.3-5.8-0.5-9-0.4c-0.2,0-0.4,0-0.5,0.1
			c-1,0.3-1.6,1.4-1.2,2.5L359.7,69.7z M388.6,148.7l-0.1,0.3l0,0c0-0.1,0,0.2,0-0.1c0-0.3,0.2-0.7,0.4-1c0,0.1-0.1,0.1-0.1,0.2
			C388.8,148.3,388.7,148.5,388.6,148.7z"/>
		<path d="M499.1,179.4c0-0.3,0.1-0.6,0-0.9l0-0.5l-0.1-0.4c-0.1-0.5-0.2-1-0.3-1.4c-0.1-0.5-0.2-0.9-0.4-1.3
			c-0.1-0.4-0.3-0.9-0.5-1.3c-1.3-3.3-3.1-6.1-5.2-8.9c-0.4-0.9-0.9-1.7-1.3-2.7c-0.4-1-0.8-1.9-1.2-2.9c-0.4-1-0.8-2-1.1-3l-1-3
			c-1.3-4.1-2.5-8.2-3.7-12.3l-1.7-6.2c-0.3-1-0.5-2.1-0.8-3.1c-0.3-1-0.8-2-1.1-3c-1.5-4.1-3-8.1-4.6-12.2c0.3,4.4,0.8,8.7,1.3,13
			c0.1,1.1,0.2,2.2,0.5,3.2c0.3,1.1,0.6,2.1,0.9,3.1l1.7,6.3c1.1,4.2,2.4,8.3,3.7,12.5l1,3.1c0.4,1,0.8,2.1,1.1,3.1
			c0.4,1,0.9,2.1,1.3,3.1c0.4,1,1,2.1,1.5,3.1c0,0.1,0,0.1,0.1,0.1l0.1,0.1c1.9,2.5,3.6,5.3,4.7,8.1c0.1,0.4,0.3,0.7,0.4,1.1
			c0.1,0.4,0.2,0.7,0.3,1.1c0.1,0.4,0.2,0.7,0.2,1l0,0.3v0.1c0,0.1,0,0.2,0,0.3c-0.1,1-0.8,2.5-1.6,3.8c-1.6,2.6-3.7,5.2-5.9,7.6
			c-1.9,2.2-4,4.3-6,6.3c-0.9-0.2-1.8-0.5-2.7-0.8c-1.2-0.4-2.5-0.9-3.7-1.5c-2.4-1.1-4.8-2.4-6.9-4c-1.1-0.7-2.3-1.4-3.4-2.1
			c-1.1-0.8-2.2-1.6-3.2-2.4c-2.2-1.7-4-3.7-6-5.8c1.2,2.6,2.5,5.1,4.3,7.4c1.7,2.3,3.7,4.5,6,6.3c1.2,0.8,2.5,1.6,3.7,2.3l1.9,1
			c0.6,0.3,1.3,0.6,2,0.9c1.3,0.6,2.7,1.1,4,1.6c1.4,0.5,2.7,0.9,4.3,1.2c0.6,0.1,1.2,0,1.7-0.5l0,0c2.5-2.4,4.8-4.8,7-7.3
			c2.2-2.6,4.4-5.2,6.3-8.2C497.9,183.2,498.8,181.7,499.1,179.4z"/>
		<path d="M348.1,184.3c1,2.2,2.2,4.3,3.5,6.3c1.3,2,2.7,3.9,4.2,5.8c0.8,0.9,1.5,1.8,2.3,2.7l2.3,2.6l18.5,20.6
			c12.3,13.8,24.5,27.6,36.7,41.4c6.1,6.9,12.1,13.9,18.1,20.9c3,3.5,6,7,9,10.5l1.1,1.3c0.4,0.5,0.9,1,1.3,1.4c1,0.9,2,1.7,3.2,2.3
			c1.1,0.7,2.4,1.1,3.7,1.5c1.3,0.3,2.6,0.5,3.9,0.4c2.6,0,5.3-0.8,7.6-2.1c1.2-0.7,2.2-1.5,3.1-2.4c0.9-0.9,1.6-1.7,2.4-2.6
			c3.1-3.6,5.9-7.3,8.6-11.2c1.3-2,2.6-3.8,3.9-5.7l3.9-5.6c1.3-1.8,2.7-3.7,4-5.5c1.2,2.4,2.7,4.7,4.2,6.9c0.8,1.1,1.6,2.2,2.4,3.3
			l1.2,1.7c0.4,0.5,0.8,1.1,1.3,1.6c1.9,1.9,3.8,3.9,5.7,5.8l4.1,4.1c-3.1,2.5-5.6,5.4-8,8.3c-2.8,3.6-5.4,7.4-7.7,11.2
			c-2.4,3.8-4.6,7.8-6.7,11.7c-1.6,3.1-3.2,6.2-4.8,9.4l0-0.1l-0.6-0.9c-0.4-0.6-0.8-1.1-1.1-1.8c-0.4-0.6-0.7-1.2-1.1-1.8
			c-1.4-2.5-2.7-5-3.9-7.6c-0.3-0.6-0.5-1.3-0.9-2l-1.1-1.9l-2.2-3.7l-4.5-7.5c0.6,2.9,1.4,5.7,2.2,8.5l1.3,4.2
			c0.2,0.7,0.4,1.4,0.7,2.1c0.2,0.7,0.6,1.3,1,2c1.3,2.6,2.6,5.3,4,7.8c0.3,0.6,0.7,1.3,1.1,1.9c0.4,0.6,0.8,1.3,1.2,1.9l0.6,1
			l0.8,1c0.4,0.6,1.2,1.3,1.9,1.9c0.1,0.1,0.3,0.2,0.5,0.3c0.9,0.4,2,0,2.5-0.9l0.1-0.2c1.9-4,3.9-8,5.9-11.8
			c0.6-1.1,1.2-2.2,1.8-3.3c1.3,0.4,2.6,0.5,3.9,0.5c1.3-0.5,2.6-1,3.9-1.6c2.6-1.2,5-2.6,7.4-4.3c2.3-1.6,4.5-3.6,6.3-5.8l1.4-1.7
			c0.4-0.6,0.8-1.2,1.2-1.8c0.1-0.4,0.2-0.8,0.2-1.1c0-0.4,0.1-0.8,0.1-1.2c0-0.8,0.1-1.5,0-2.3c-0.7,0.4-1.3,0.9-1.9,1.3
			c-0.3,0.2-0.6,0.4-0.9,0.6c-0.3,0.2-0.6,0.4-0.9,0.6c-0.4,0.5-0.7,1.1-1,1.6l-1.2,1.5c-1.7,1.9-3.5,3.7-5.6,5.2
			c-2.1,1.5-4.3,2.8-6.7,3.9c-1.2,0.5-2.4,1.1-3.6,1.5c-0.5,0.5-1,1-1.6,1.5c1.2-2.2,2.5-4.3,3.8-6.4c2.3-3.7,4.8-7.4,7.5-10.8
			c2.7-3.4,5.6-6.7,9-8.9l0,0c0.1-0.1,0.2-0.2,0.3-0.3c0.8-0.8,0.8-2.1,0-2.9l-5.7-5.8c-1.9-2-3.8-3.8-5.6-5.9
			c-0.4-0.5-1-0.9-1.5-1.4l-1.6-1.3l-3.1-2.6c-1-0.9-2.1-1.8-3.1-2.7c-1-0.9-1.9-1.8-2.8-2.7c1.4-1.9,2.7-3.8,4.1-5.7
			c5.4-7.5,10.6-15.2,15.7-22.9c2.5-3.9,5-7.8,7.4-11.8c2.4-4,4.7-8.1,6.6-12.4l0.7-1.6l0.6-1.7c0.5-1.2,0.8-2.3,1.1-3.4
			c0.6-2.3,1.2-4.6,1.6-6.9c0.9-4.6,1.4-9.4,1.4-14.1c0-4.8-0.6-9.6-1.9-14.2c-0.3-1.2-0.7-2.3-1.2-3.4c-0.4-1.1-0.9-2.2-1.5-3.4
			c-1-2.2-2.4-4.3-4-6.2l-0.6-0.7c-0.2-0.2-0.4-0.4-0.7-0.6l-1.3-1.3c-0.9-0.9-1.7-1.6-2.6-2.4c-1.7-1.5-3.3-3.1-4.9-4.7
			c-3-3.3-5.6-6.9-6.7-11.3c-1.2-4.3-1.4-8.9-1.2-13.5c0.1-4.6,0.6-9.2,1.1-13.8c-0.9,4.5-1.7,9.1-2.2,13.7
			c-0.5,4.6-0.6,9.3,0.3,14.1c0.4,2.4,1.3,4.6,2.4,6.8l0.9,1.6c0.3,0.5,0.7,1,1,1.5c0.6,1,1.4,1.9,2.1,2.9c1.5,1.8,3.1,3.6,4.7,5.2
			c0.8,0.8,1.7,1.7,2.4,2.5l1.1,1.2c0.2,0.2,0.4,0.4,0.5,0.6l0.5,0.7c0.6,0.9,1.3,1.7,1.8,2.7c0.5,0.9,1.2,1.8,1.6,2.8
			c0.5,1,1,1.9,1.3,3c0.4,1,0.8,2,1,3.1c1.2,4.2,1.7,8.7,1.8,13.1s-0.5,8.9-1.3,13.4c-0.4,2.2-0.9,4.4-1.5,6.6
			c-0.3,1.1-0.6,2.2-1,3.2l-0.6,1.5l-0.7,1.5c-1.8,4.1-4.1,8.1-6.4,12c-2.3,3.9-4.8,7.8-7.3,11.7c-5,7.7-10.2,15.3-15.6,22.8
			c-2.7,3.8-5.4,7.5-8.1,11.2l-4,5.7c-1.3,1.9-2.6,3.8-3.9,5.7c-2.6,3.8-5.3,7.4-8.3,10.8c-0.7,0.8-1.5,1.7-2.3,2.5
			c-0.7,0.7-1.5,1.3-2.3,1.8c-1.7,1-3.6,1.6-5.6,1.6c-1,0-2-0.1-2.9-0.3c-0.9-0.3-1.9-0.6-2.7-1.1c-0.9-0.5-1.6-1.1-2.4-1.7
			c-0.3-0.4-0.7-0.7-1-1.1l-1.1-1.3c-3-3.5-6-7.1-9-10.6c-6-7-12.1-14-18.1-20.9c-12.2-13.9-24.4-27.7-36.7-41.5L363.2,199l-2.3-2.6
			c-0.7-0.8-1.5-1.7-2.2-2.5c-1.4-1.7-2.7-3.6-3.9-5.4c-2.4-3.7-4.3-7.8-5-11.9c-0.4-2-0.4-4.1,0.1-5.9c0.5-1.9,1.7-3.6,3.2-4.9
			c1.5-1.4,3.5-2.5,5.5-3.3c2-0.8,4.1-1.4,6.3-1.5c4.4-0.2,8.8,1.2,12.5,3.7c3.8,2.5,7.1,5.8,9.8,9.6c-2.3-4-5.4-7.6-9.1-10.5
			c-3.7-2.9-8.3-4.9-13.2-5c-2.5,0-4.9,0.4-7.2,1.2c-2.3,0.8-4.5,1.9-6.5,3.4c-2,1.5-3.8,3.7-4.6,6.2c-0.9,2.5-1.1,5.2-0.7,7.7
			C346.2,179.7,347.1,182.1,348.1,184.3z"/>
		<ellipse cx="449" cy="127.8" rx="2.9" ry="13.5"/>
		<path d="M491,131c1.3,0,2.4-5.1,2.4-11.3s-1.1-11.3-2.4-11.3s-2.4,5.1-2.4,11.3S489.7,131,491,131z"/>
		<path d="M470.5,231c1.5,0.6,3,1.1,4.6,1.4c3.1,0.8,6.4,1.1,9.7,0.8c1.7-0.2,3.3-0.5,5-1.2c0.8-0.4,1.6-0.8,2.4-1.4
			c0.8-0.6,1.6-1.4,2.1-2.7c0.2-0.7,0.3-1.6,0-2.4c-0.1-0.4-0.4-0.8-0.6-1.1c-0.1-0.2-0.2-0.3-0.4-0.4c-0.1-0.1-0.3-0.3-0.3-0.3
			l-0.2-0.3c-0.1-0.1-0.2-0.2-0.3-0.3l-0.6-0.8c-0.4-0.6-0.8-1.2-1.1-1.8c-0.4-0.6-0.7-1.3-1.1-1.9c-1.7-2.5-3.2-5.1-4.8-7.7
			c-0.8-1.3-1.5-2.6-2.3-4c-0.8-1.3-1.5-2.6-2.2-4c0.6,3,1.5,6,2.4,8.9c1,2.9,2,5.8,3.2,8.7c0.3,0.7,0.7,1.4,1.1,2.1
			c0.4,0.7,0.9,1.4,1.3,2.1c0.2,0.4,0.5,0.7,0.8,1c0.1,0.2,0.3,0.4,0.5,0.6l0.6,0.6l0,0c-0.1,0.2-0.3,0.4-0.6,0.7
			c-0.4,0.3-1,0.6-1.5,0.9c-1.2,0.5-2.5,0.8-3.9,0.9c-5.5,0.6-11.3-1.1-16.5-3.7c-2.5-1.3-4.9-2.9-6.5-4.9c-0.9-1-1.4-2.2-2.3-3.7
			c-0.4-0.7-1.1-1.6-1.9-2.2c-0.4-0.3-0.9-0.6-1.3-0.8c-0.5-0.2-0.9-0.4-1.4-0.5c-0.9-0.2-1.8-0.4-2.6-0.4l-0.6-0.1l-0.3,0l-0.4,0
			c-0.5,0-1,0-1.6,0.2c-1.1,0.2-2,0.8-2.8,1.4c-0.8,0.6-1.4,1.4-1.9,2.1c-1,1.6-1.6,3.2-2,4.8s-0.6,3.3-0.7,4.9
			c-0.2,3.3,0.2,6.5,1.1,9.7c0.9,3.1,2.3,6.3,4.8,8.8c1.2,1.2,2.7,2.3,4.4,3l1.3,0.4c0.4,0.1,0.9,0.2,1.3,0.3
			c0.5,0.1,0.8,0.1,1.2,0.2c0.4,0,0.7,0.1,1.1,0.2c1.4,0.2,2.8,0.5,4.1,1c0.7,0.2,1.3,0.5,1.9,0.8c0.6,0.3,1.1,0.7,1.6,1
			c1,0.6,1.8,1.4,2.1,2.4c0.3,1.1,0.2,2.4-0.3,3.7c-0.4,1.3-1.1,2.6-1.9,3.9c-0.8,1.3-1.7,2.5-2.7,3.7c2.5-1.8,4.9-3.9,6.6-6.7
			c0.8-1.4,1.5-3.1,1.4-5.1c-0.1-1-0.4-2-0.8-2.8c-0.5-0.9-1.1-1.6-1.8-2.3c-0.7-0.7-1.5-1.1-2.3-1.4c-0.8-0.4-1.6-0.7-2.4-0.9
			c-1.6-0.5-3.2-0.9-4.8-1.1c-0.4-0.1-0.8-0.1-1.2-0.2c-0.4-0.1-0.8-0.1-1.1-0.2c-0.3-0.1-0.6-0.1-0.9-0.2l-0.9-0.3
			c-1.1-0.4-2.2-1.2-3-2.1c-1.8-1.8-3-4.4-3.8-7.1c-0.8-2.7-1.1-5.6-0.9-8.4c0.1-2.8,0.7-5.6,2-7.7c0.1-0.3,0.4-0.4,0.5-0.7
			c0.2-0.2,0.4-0.4,0.6-0.6c0.4-0.3,0.8-0.5,1.2-0.6c0.2-0.1,0.5-0.1,0.7-0.1l0.2,0l0.2,0l0.5,0.1c0.7,0,1.3,0.2,1.9,0.3
			c1.2,0.4,1.7,0.8,2.4,1.9c0.7,1.1,1.5,2.7,2.6,4c1.4,1.7,3,3.1,4.8,4.2c-0.6,0.3-1.2,0.6-1.7,0.9c-0.3,0.8-0.6,1.5-0.9,2.3
			c-0.6,1.5-1.1,3.1-1.4,4.8s-0.6,3.3-0.6,5.1c0,0.4,0,0.9,0.1,1.3c0,0.4,0,0.9,0.2,1.3c0.7,0.8,1.6,1.5,2.6,1.9
			c0.5-1,0.9-1.8,1.4-2.6c0.1-0.1,0-0.2,0-0.2c0-0.1,0-0.2-0.1-0.2l0-0.5c0-0.3-0.1-0.7,0-1c0-1.4,0.2-2.8,0.5-4.2
			c0.3-1.4,0.8-2.8,1.3-4.2c0.3-0.7,0.5-1.4,0.9-2.1c-0.1-0.5-0.3-1-0.4-1.6c0.5,0.3,1,0.6,1.5,0.9C467.6,229.7,469,230.4,470.5,231
			z"/>
		<path d="M410.5,295.8c1.8-2.3,3.4-4.6,5.1-6.9c1.4-2.5,2.7-5,3.9-7.6c1.2-2.6,2.5-5.1,3.6-7.8l-5.5,6.6c-1.8,2.2-3.6,4.3-5.4,6.5
			c-1.5,2.3-3.2,4.6-4.9,6.8c-0.9,1.1-1.7,2.2-2.6,3.2c-0.5,0.5-0.9,1-1.4,1.5c-0.2,0.2-0.5,0.5-0.7,0.7c-0.1,0.1-0.2,0.2-0.3,0.3
			c-0.1,0.1-0.3,0.2-0.1,0.1l0.5,3.7c2.1,0.5,4.3,1.5,6.4,2.7c2.1,1.2,4.1,2.5,6.1,4c4,2.9,7.8,6,11.6,9.3c3.7,3.3,7.4,6.7,11,10.1
			c3.6,3.5,7.1,7,10.5,10.6l0,0c0.2,0.2,0.5,0.4,0.8,0.5c1,0.3,2.2-0.2,2.5-1.3l5.7-17.7c0.3-0.7,0.5-1.5,0.7-2.2l0.5-2.3l0.9-4.6
			c0.6-3.1,1.2-6.1,1.7-9.2c-1.4,2.8-2.7,5.6-4,8.5l-1.9,4.3l-1,2.1c-0.3,0.7-0.5,1.5-0.7,2.2l-4.7,14.5c-2.7-2.8-5.5-5.6-8.3-8.4
			c-3.6-3.5-7.3-7-11.1-10.3c-3.8-3.3-7.7-6.6-11.9-9.5c-2.1-1.5-4.2-2.9-6.5-4.2c-1.3-0.7-2.7-1.4-4.1-2c0.2-0.3,0.5-0.5,0.8-0.8
			C408.7,298,409.6,296.9,410.5,295.8z"/>
		<path d="M314.3,542.3c0.4,0.4,0.9,0.7,1.4,1.1c0.5,0.4,1,0.6,1.4,1c0.5,0.3,1,0.6,1.5,0.9l1.5,0.8l1.5,0.7c1,0.5,2.1,0.8,3.2,1.2
			c4.3,1.3,8.8,1.8,13.2,1.7c1.1-0.1,2.2-0.1,3.3-0.2l3.3-0.5c0.5-0.1,1.1-0.1,1.6-0.2l1.6-0.4l3.2-0.7c2.1-0.6,4.1-1.3,6.2-2l6-2.5
			c0.6-0.2,1-0.8,1.1-1.4l0-0.1c3.8-24.3,7.9-48.6,12.2-72.9c1-6.1,2.3-12.1,3.2-18.2c0.9-6.1,1.9-12.2,2.8-18.3
			c2-12.2,4-24.3,6.2-36.5c-3.2,11.9-6,23.9-8.7,36c-1.4,6-2.7,12-4,18.1c-0.7,3-1.3,6-1.8,9.1l-1.6,9.1c-4.2,23.9-8.2,47.9-12,71.9
			l-4.8,2c-2,0.6-3.9,1.3-5.9,1.9l-3,0.7l-1.5,0.3c-0.5,0.1-1,0.2-1.5,0.2l-3,0.4c-1,0.1-2,0.1-3,0.2c-4,0.1-8.1-0.3-11.9-1.5
			c-0.9-0.3-1.9-0.6-2.8-1l-1.4-0.6l-1.3-0.7c-0.4-0.2-0.9-0.5-1.3-0.7s-0.8-0.5-1.2-0.8c-0.4-0.3-0.8-0.6-1.1-0.9
			c-0.1-0.1-0.3-0.2-0.4-0.3c1.7-22.1,3.6-44.1,5.7-66.2c2.1-22.4,4.4-44.7,7.2-67c1.4-11.1,2.9-22.2,5-33.2
			c0.5-2.7,1.1-5.5,1.7-8.1c0.4-1.3,0.6-2.7,1-4l0.6-1.9c0.2-0.6,0.5-1.2,0.7-1.8c1.1-2.3,2.7-4.5,4.4-6.6s3.6-4.1,5.5-6.1
			c1.9-2,4-3.8,6-5.7c2-1.9,4-3.8,6.1-5.7c4.1-3.7,8.4-7.4,12.8-10.9c4.4-3.5,8.8-7,13.2-10.4c4.5-3.4,8.9-6.8,13.5-10.1
			c-9.6,5.8-19,12-28.2,18.6c-4.6,3.3-9.1,6.6-13.6,10.1c-2.2,1.8-4.4,3.5-6.6,5.4c-2.1,1.9-4.2,3.9-6.2,5.9c-2,2.1-4,4.1-5.8,6.4
			c-1.8,2.3-3.6,4.6-4.9,7.4c-0.3,0.7-0.6,1.4-0.9,2.1l-0.7,2.1c-0.4,1.4-0.7,2.8-1.1,4.2c-0.6,2.8-1.2,5.6-1.7,8.3
			c-2.1,11.1-3.6,22.3-5,33.4c-2.8,22.3-5.1,44.7-7.2,67.1c-2.1,22.4-4,44.8-5.8,67.2v0.1c0,0.5,0.1,1,0.5,1.4
			C313.5,541.5,313.9,541.9,314.3,542.3z"/>
		<path d="M357.5,520l-1.4-0.1c-0.8,0.2-1.6,0.5-2.5,0.7l-2.5,0.5c-3.4,0.6-6.8,1-10.3,1.1c-3.5,0.1-6.9,0-10.4-0.3
			c-1.7-0.2-3.5-0.4-5.2-0.7c-1.8,0.3-3.6,0.6-5.5,1c1.5,1.2,3.2,2.2,4.9,3c0.9,0.1,1.8,0.2,2.7,0.4l2.7,0.3
			c3.6,0.3,7.3,0.4,10.9,0.3c3.6-0.1,7.3-0.5,10.9-1.2l2.7-0.5c0.9-0.2,1.8-0.5,2.7-0.7l1.2-0.8c0.4-0.3,0.8-0.6,1.1-0.9
			c0.8-0.6,1.5-1.2,2.2-1.9c-1-0.1-1.9-0.1-2.9-0.2C358.4,520,358,520,357.5,520z"/>
		<path d="M388.2,429c-0.5,0.5-0.9,1.1-1.4,1.6c-0.5,0.5-1,1-1.5,1.5l-1,2.1c-0.4,0.7-0.8,1.4-1.1,2.1c0.8-0.1,1.6-0.3,2.5-0.5
			c0.8-0.2,1.6-0.5,2.4-0.8c0.2-0.1,0.3-0.2,0.4-0.4c0.1-0.1,0.3-0.3,0.4-0.4l0.8-0.8c0.6-0.5,1.1-1.1,1.5-1.7
			c2-2.3,3.8-4.8,5.5-7.3c1.7-2.5,3.3-5.1,4.8-7.7l2.2-3.9c0.2-1.6,0.4-3.2,0.2-4.9c-1.4,1-2.6,2-3.8,3c-0.6,1.3-1.4,2.6-2.1,3.8
			c-1.5,2.5-3,5-4.6,7.4C391.8,424.5,390.1,426.8,388.2,429z"/>
		<path d="M490.1,566.7c1.6-0.1,3.1-0.2,4.7-0.5l4.7-0.8c3.1-0.5,6.2-1,9.3-1.7c3.1-0.7,6.2-1.2,9.2-1.9l9.2-2.3l-9.4,1
			c-3.1,0.3-6.2,0.5-9.4,0.8c-3.1,0.3-6.2,0.5-9.4,0.6l-4.7,0.3c-1.6,0.1-3.1,0.3-4.7,0.5l-9.3,0.9l-9.4,0.7
			c-3.1,0.2-6.2,0.4-9.4,0.6s-6.2,0.4-9.4,0.5c-12.5,0.7-25,1-37.5,1.3c-11.6,0.2-23.2,0.3-34.8,0.3c2.9-8.3,5.6-16.7,8.1-25.2
			c2.7-9.4,5.2-18.8,7-28.5c0.9-4.8,1.6-9.7,1.9-14.7c0.1-2.5,0-5.1-0.4-7.8c-0.3-1.4-0.7-2.8-1.8-4.1c-0.3-0.3-0.6-0.6-0.9-1
			l-0.6-0.5c-0.4-0.3-0.8-0.7-1.2-1.1c-1.5-1.6-2.9-3.6-4.1-5.6c-1.3-2-2.4-4.1-3.5-6.3c-2.2-4.3-4.2-8.8-5.9-13.3
			c1.1,4.7,2.5,9.4,4.2,14c0.9,2.3,1.7,4.6,2.8,6.8c1.1,2.2,2.2,4.5,3.8,6.6c0.4,0.5,0.8,1,1.3,1.5l0.7,0.8c0.1,0.1,0.2,0.3,0.3,0.4
			c0.4,0.6,0.7,1.6,0.9,2.6c0.5,2.1,0.5,4.4,0.4,6.8c-0.2,4.7-0.9,9.4-1.8,14.2c-1.8,9.5-4.2,18.8-6.9,28.1
			c-2.7,9.3-5.7,18.5-9,27.6l0,0c-0.1,0.2-0.1,0.4-0.1,0.6c0,1.1,0.9,2,2,2c12.6,0.1,25.1,0,37.7-0.3c12.5-0.3,25.1-0.7,37.6-1.3
			C465,568.7,477.6,567.9,490.1,566.7z"/>
		<path d="M542.7,424.8l-0.2,3c-0.1,1-0.1,2-0.2,3l-0.4,3c-1,8-2.4,16.1-3.7,24.2c-2.7,16.1-5.7,32.2-8.2,48.4
			c-1.3,8.1-2.4,16.2-3.2,24.4l-0.1,6.2c0,2.1,0,4.1,0.1,6.2c0,1,0.1,2.1,0.2,3.1l0.2,3.1c0,1,0.3,2,0.4,3.1l0.5,3l0-3.1
			c0-1,0-2,0.1-3l0.3-3c0.1-1,0.2-2,0.3-3l0.8-6l1-6c0.9-8.1,2-16.2,3.2-24.2c0.1-0.7,0.2-1.3,0.3-2c1.3,0.8,2.7,1.5,4.1,2.2
			c1.8,0.2,3.6,0.4,5.4,0.5c3.6,0.2,7.2,0.3,10.8,0.2c3.6-0.1,7.2-0.4,10.8-0.9l2.7-0.4c0.5-0.1,0.9-0.2,1.3-0.3
			c0.2,0,0.4-0.1,0.7-0.1s0.5,0,0.7-0.1c1.7-0.9,3.2-2.1,4.7-3.3c-2-0.3-3.7-0.3-5.5-0.6c-0.8,0.1-1.7,0.4-2.5,0.5l-2.5,0.4
			c-3.4,0.5-6.8,0.8-10.3,0.9c-3.5,0.1-6.9,0-10.4-0.2c-1.7-0.1-3.5-0.3-5.2-0.5c-1.5,0.3-2.9,0.6-4.4,1c2.4-15.2,5.1-30.3,7.7-45.5
			c1.4-8.1,2.7-16.2,3.8-24.3l0.4-3.1c0.1-1,0.2-2.1,0.2-3.1l0.2-3.1l0-3.1c0-1,0-2.1,0-3.1l-0.2-3.1c-0.1-2.1-0.3-4.1-0.5-6.2
			c-0.9-8.2-2.4-16.4-4.3-24.4c-2.5-7.9-5.4-15.6-8.9-23c2,8,3.7,16,5,24c1.9,7.9,3.4,15.9,4.3,23.9c0.2,2,0.4,4,0.5,6l0.2,3
			c0,1,0,2,0,3L542.7,424.8z"/>
		<path d="M537,315c2,1.8,4,3.8,6.1,5.5l3.2,2.6l3.1,2.7c4.2,3.6,8.2,7.3,12.3,11c2,1.8,4,3.8,5.9,5.7c1,1,1.9,2,2.9,2.9
			c0.9,1,1.9,1.9,2.8,3l2.7,3c0.8,1,1.6,2.1,2.4,3.1c0.5,0.6,0.7,1,1,1.5l0.4,0.8l0.3,0.9c0.4,1.2,0.7,2.5,1,3.7
			c1.1,5.2,1.5,10.7,1.8,16.1c0.3,5.5,0.4,10.9,0.4,16.4c0,22-1.3,44-2.8,65.9c-1.5,21.4-3.4,42.8-5.6,64.2
			c-1.3,0.1-2.6,0.2-3.9,0.3c-1.8,0.2-3.7,0.4-5.5,0.6c-3.7,0.3-7.4,0.6-11.2,0.7c-3.7,0.1-7.5,0.1-11.2-0.1
			c-3.7-0.2-7.5-0.6-11.1-1.4c3.6,1.2,7.3,2,11,2.7c3.7,0.6,7.5,1,11.3,1.3c3.8,0.2,7.6,0.4,11.4,0.4c1.9,0,3.8,0,5.7-0.1
			c1.9-0.1,3.8-0.3,5.7-0.5c0.9-0.1,1.7-0.8,1.8-1.8c2.3-22,4.2-43.9,5.7-66c1.5-22,2.8-44.1,2.8-66.2c0-5.5-0.1-11.1-0.4-16.6
			c-0.3-5.6-0.7-11.1-1.9-16.7c-0.3-1.4-0.7-2.8-1.2-4.2l-0.4-1.1l-0.5-1.1c-0.4-0.7-0.8-1.5-1.3-2c-0.9-1.1-1.7-2.3-2.6-3.4
			l-2.8-3.2c-0.9-1.1-1.9-2-2.9-3c-1-1-1.9-2-2.9-3c-2-1.9-4-3.9-6-5.8c-4.1-3.8-8.2-7.5-12.4-11.1l-6.3-5.4
			c-2.1-1.8-4.3-3.4-6.5-5.1c-8.8-6.7-17.8-13.1-26.9-19.4C520.6,300.3,528.8,307.6,537,315z"/>
		<path d="M402.6,309.3c1.1,1.5,2.4,2.8,3.6,4.1c2.6,2.6,5.5,4.8,8.5,6.7l2.3,1.4c0.8,0.5,1.6,0.8,2.4,1.3c1.6,0.9,3.2,1.5,4.9,2.3
			c1.6,0.7,3.3,1.3,5,1.9c1.9,0,3.8-0.1,5.6-0.4c-1.5-1.3-2.9-2.3-4.3-3.4c-1.6-0.6-3.2-1.1-4.7-1.8c-1.5-0.7-3.1-1.3-4.6-2.1
			c-0.7-0.4-1.5-0.8-2.2-1.2l-2.1-1.3c-2.8-1.8-5.5-3.9-7.8-6.2c-0.6-0.6-1.2-1.2-1.7-1.8l-0.8-0.9c-0.1-0.2-0.3-0.3-0.4-0.5
			c-0.1-0.2-0.2-0.4-0.4-0.5c-1.5-0.9-2.9-2-4.4-3.2C401.5,305.6,402,307.5,402.6,309.3z"/>
		<path d="M455.5,327.3c0.5,1,1.1,1.7,1.8,2.4c0.8,0.1,1.5,0.1,2.3,0.2c1.5,0.1,3,0,4.5-0.1c1.5-0.1,2.9-0.3,4.4-0.6
			c0.7-0.1,1.4-0.3,2.1-0.5c0.6-0.8,1.1-1.5,1.6-2.5c-0.9-0.6-1.7-1-2.5-1.4c-0.7,0.1-1.3,0.3-2,0.4c-1.3,0.2-2.6,0.4-4,0.5
			c-1.3,0.1-2.6,0.1-4,0.1c-0.6,0-1.3,0-1.9-0.2L455.5,327.3z"/>
		<path d="M405.5,324.9c4.7,4.8,10,9.1,15.9,12.5c2.9,1.7,6,3.2,9.1,4.5c1.6,0.7,3.2,1.2,4.8,1.8c0.8,0.3,1.6,0.5,2.4,0.7
			c0.8,0.2,1.6,0.5,2.5,0.7c6.6,1.6,13.4,2.3,20.1,2.2c6.7-0.1,13.4-0.9,20-2.5c6.6-1.6,13-4.1,18.8-7.8c5.8-3.6,10.9-8.4,14.9-14
			c1.7-3,3.2-6.1,4.2-9.3c1-3.2,1.8-6.5,2-9.9c-0.4,1.6-1,3.1-1.7,4.6c-0.7,1.5-1.4,3-2.2,4.4c-1.6,2.8-3.4,5.5-5.5,7.9
			c-3.7,5.1-8.4,9.5-13.8,12.9c-5.4,3.4-11.4,5.8-17.6,7.3c-6.2,1.5-12.7,2.3-19.1,2.4c-6.4,0.1-12.9-0.6-19.1-2.1
			c-0.8-0.2-1.5-0.4-2.3-0.6c-0.8-0.2-1.5-0.4-2.3-0.7c-1.5-0.5-3-1-4.5-1.7c-3-1.2-5.8-2.6-8.6-4.2c-2.8-1.6-5.4-3.4-7.9-5.4
			c-2.5-2-4.9-4.1-7.1-6.5c-4.9-4.2-9.3-9-13.1-14.5C397.6,313.8,401.2,319.6,405.5,324.9z"/>
		<path d="M533.7,549.2c1-0.8,1.7-1.8,2.3-2.7c1.3-1.9,2.2-3.8,3-5.8c0.8-2,1.5-4,2-6l0.8-3c-0.3-1.2-0.7-2.3-1.3-3.5
			c-1,0.8-1.8,1.7-2.6,2.5c-0.2,1-0.5,1.9-0.8,2.9c-0.5,1.9-1.2,3.8-1.9,5.6c-0.7,1.8-1.6,3.6-2.6,5.1c-0.5,0.8-1.1,1.4-1.7,2
			c-0.2,1-0.5,1.9-1.4,2.9C530.9,549.7,532.4,549.5,533.7,549.2z"/>
		<path d="M533.3,583.8c3.2-0.4,6.4-0.9,9.4-2c3-1.1,6-2.4,8.7-4.2s5.1-3.8,7.4-6.1c2.2-2.3,4.2-4.8,5.9-7.4
			c3.5-5.2,6.1-11,8.2-16.9c0.6-1.4,0.8-3,1.1-4.5c0.3-1.5,0.5-3.1,0.7-4.6c0.3-3.1,0.6-6.2,0.5-9.3c-0.8,3-1.8,5.9-2.9,8.7
			c-0.5,1.4-1.1,2.8-1.7,4.2c-0.6,1.4-1.3,2.7-1.6,4.2c-0.9,2.8-2.1,5.6-3.3,8.3c-1.3,2.7-2.7,5.3-4.3,7.7c-1.6,2.5-3.4,4.8-5.5,6.9
			c-2,2.1-4.3,4-6.7,5.5c-2.4,1.6-5,2.8-7.8,3.8c-1.4,0.5-2.8,0.8-4.2,1.1c0.9-1.4,1.7-2.9,2.5-4.4c1.5-2.8,2.8-5.7,4-8.6
			c1.2-3,2.1-6,2.9-9.1c0.7-3.1,1.1-6.4,1.2-9.6c0-0.9-0.5-1.7-1.4-2c-1-0.3-2.2,0.2-2.5,1.3l0,0.1c-0.2,0.7-0.5,1.5-0.9,2.3
			c-0.4,0.7-0.7,1.5-1,2.3c-0.6,1.5-1.3,3-2.2,4.4c-0.9,1.3-2,2.6-3.4,3.4c-0.7,0.4-1.5,0.7-2.3,0.9c-0.8,0.2-1.7,0.2-2.6,0.1
			c0.8,0.3,1.7,0.5,2.6,0.6c0.9,0,1.9-0.1,2.8-0.3c1.8-0.5,3.5-1.7,4.9-3c0.2-0.2,0.4-0.4,0.6-0.6c-0.7,2.7-1.5,5.3-2.5,7.8
			c-1.1,2.8-2.4,5.5-3.8,8.2c-1.4,2.7-3,5.3-4.7,7.7l0,0.1c0,0-0.1,0.1-0.1,0.2c-0.8-6.5-1.7-13-2.9-19.4l-0.5,25.1
			c0.4,8.3,0.7,16.6,0.8,25c0.1,8.3,0,16.6-0.5,24.9l-0.2,3.1l-0.3,3.1l-0.6,6.2c-0.2,2.1-0.3,4.2-0.5,6.3c-0.2,2.1-0.2,4.2-0.3,6.3
			c-0.6,16.8-0.5,33.5-0.3,50.2c0.1,8.3,0.3,16.7,0.5,25c0.8,8.3,1.7,16.7,2.8,25c0.5-8.4,0.8-16.7,1.2-25.1
			c-0.2-8.3-0.4-16.7-0.5-25c-0.2-16.7-0.4-33.3,0.3-50c0.1-2.1,0.2-4.2,0.3-6.2c0.1-2.1,0.2-4.1,0.5-6.2l0.6-6.2l0.3-3.2l0.2-3.2
			c0.5-8.4,0.6-16.8,0.5-25.2c-0.1-8.4-0.4-16.7-0.7-25.1c-0.1-1.1-0.3-2.1-0.4-3.2C532,583.6,532.6,583.9,533.3,583.8z"/>
		<path d="M344.2,584.2c0.5-0.8,0.9-1.7,1.3-2.6l1.1-2.7c1.5-3.5,2.8-7.1,4-10.8c2.3-7.3,4.1-14.7,5.3-22.2c-1,3.7-2.2,7.2-3.5,10.8
			c-1.3,3.5-2.7,7-4.2,10.5c-1.5,3.4-3.1,6.8-4.9,10.1c-0.9,1.7-1.8,3.3-2.7,4.9c-0.9,1.6-1.7,3.3-2.7,4.9c-1.9,3.2-4,6.3-6.2,9.2
			c-2.3,2.9-4.7,5.7-7.4,8.2c-2.7,2.5-5.5,4.8-8.7,6.6c-1.7,1-3.5,1.9-5.3,2.7c1-2.2,2-4.4,3-6.6c1.6-3.7,3.2-7.5,4.7-11.4
			c1.5-3.8,2.8-7.7,3.9-11.7c0.5-2,1-4,1.4-6.1c0.3-2.1,0.6-4.3,0.4-6.6c0-0.2-0.1-0.5-0.2-0.7c-0.5-1-1.6-1.4-2.6-1l-0.1,0
			c-3.9,1.8-8,3.3-12.2,4.5c-4.2,1.2-8.4,2.1-12.7,2.5c-4.3,0.4-8.6,0.3-12.5-0.8c-3-0.8-5.7-2.2-7.9-4.2c2-0.6,3.9-1.2,5.8-1.9
			c2.9-1.1,5.9-2.2,8.7-3.5c5.8-2.5,11.4-5.4,16.6-9c0.5-0.3,0.8-0.9,0.9-1.5c0.1-1.1-0.8-2-1.9-2.1h-0.1c-2.6-0.2-5.4-0.7-8-1.3
			c-2.6-0.7-5.2-1.5-7.6-2.7c-2.4-1.1-4.7-2.5-6.6-4.3c-0.5-0.5-1.1-1-1.5-1.6c1.2,0.3,2.3,0.7,3.5,0.9c3.1,0.7,6.2,1.1,9.4,1.2
			c3.2,0.1,6.3-0.2,9.4-0.9c3.1-0.7,5.9-2,8.6-3.5c-2.8,1.2-5.8,2.1-8.8,2.5c-3,0.3-6,0.3-9-0.1c-3-0.4-5.9-1.1-8.7-2.1
			c-2.8-0.9-5.7-2.1-8.1-3.5c-0.5-0.3-1.1-0.3-1.6-0.1c-1,0.4-1.5,1.5-1.1,2.5l0,0.1c0.6,1.5,1.3,2.9,2.2,4.1c1,1.2,2,2.4,3.1,3.4
			c2.3,2.1,4.9,3.7,7.6,4.9c2.7,1.3,5.5,2.2,8.4,2.9c1,0.2,2.1,0.5,3.1,0.7c-3.6,2.1-7.4,4-11.3,5.7c-2.8,1.2-5.6,2.3-8.5,3.4
			c-2.9,1-5.8,2-8.6,2.8l0,0c-0.2,0.1-0.5,0.2-0.7,0.4c-0.9,0.7-1,1.9-0.3,2.8c1.5,1.9,3.4,3.6,5.5,4.9c2.1,1.3,4.3,2.3,6.6,2.9
			c4.6,1.3,9.4,1.4,14,1c4.6-0.5,9.1-1.4,13.5-2.7c3.4-1,6.7-2.2,9.9-3.5c-0.1,0.9-0.2,1.8-0.3,2.7c-0.3,1.9-0.8,3.8-1.3,5.7
			c-1,3.8-2.4,7.6-3.8,11.4c-1.4,3.8-3,7.5-4.6,11.2c-1.6,3.7-3.4,7.4-5.1,10.9l0,0c-0.2,0.4-0.3,1-0.1,1.5c0.3,1,1.5,1.6,2.5,1.3
			c3.8-1.2,7.4-2.8,10.8-4.8c3.4-2,6.5-4.5,9.3-7.1c2.9-2.6,5.4-5.6,7.8-8.6c2.4-3,4.5-6.3,6.5-9.6
			C342.3,587.5,343.3,585.9,344.2,584.2z"/>
		<path d="M378,718.8c-0.5,8.2-1,16.3-1.7,24.5c0,8.2-0.1,16.4-0.1,24.7c1.6-8.1,2.9-16.2,4.1-24.4c0.6-8.2,1.2-16.4,1.7-24.6
			c0.5-8.2,0.8-16.4,1-24.7c0.1-4.1,0.1-8.3,0-12.4l-0.1-3.1c0-1-0.1-2.1-0.2-3.1l-0.6-6.2c-0.2-2-0.3-4-0.4-6
			c-0.1-2-0.1-4.1-0.1-6.1c0-2,0-4.1,0-6.1c0-2,0-4.1,0.1-6.1c0.2-8.2,0.5-16.4,0.9-24.5c0.4-8.2,0.9-16.4,1.5-24.5
			c-0.1-8.2-0.1-16.4-0.2-24.7c-1.5,8.1-2.7,16.3-3.8,24.4c-0.5,8.2-1,16.4-1.4,24.6c-0.4,8.2-0.8,16.4-0.9,24.7
			c-0.1,2.1-0.1,4.1-0.1,6.2s0,4.1,0,6.2c0,2.1,0,4.1,0.1,6.2c0.1,2.1,0.1,4.1,0.4,6.3l0.6,6.1c0.1,1,0.2,2,0.2,3l0.1,3
			c0.1,4.1,0.1,8.1,0,12.2C378.8,702.5,378.5,710.6,378,718.8z"/>
		<path d="M481,599.5c-2.7,1.7-5.5,3.1-8.3,4.5c-2.8,1.3-5.7,2.6-8.6,3.6c-1.5,0.5-2.9,1-4.4,1.4c-1.5,0.5-2.9,1-4.3,1.4
			c-2.9,0.8-5.9,1.2-8.8,1.3h0c-1,0-1.8,0.8-1.9,1.8c-1.2,12.5-2.5,25-3.9,37.5c-0.7,6.2-1.5,12.5-2.4,18.7
			c-0.4,3.1-0.9,6.2-1.5,9.2c-0.1,0.8-0.3,1.5-0.4,2.3l-0.5,2.2l-0.5,2.5c-0.2,0.8-0.2,1.6-0.4,2.4c-0.8,6.4-1.2,12.7-1.6,19
			c-0.3,6.3-0.6,12.6-0.9,18.9l-0.3,9.4c0,1.6-0.2,3.1-0.1,4.7l0.2,4.7c0.3,6.3,0.7,12.6,1.2,18.9c0.7-6.3,1.4-12.5,2.1-18.8
			l0.5-4.7c0.2-1.6,0.1-3.1,0.1-4.7l0.3-9.4c0.2-6.3,0.5-12.5,0.9-18.8c0.4-6.2,0.8-12.5,1.5-18.6c0.1-0.8,0.2-1.5,0.3-2.2l0.5-2.1
			l0.6-2.4c0.2-0.8,0.3-1.6,0.5-2.4c0.6-3.2,1-6.3,1.5-9.4c0.9-6.3,1.6-12.5,2.4-18.8c1.4-12,2.6-23.9,3.8-35.9
			c2.7-0.2,5.4-0.7,8-1.4c1.5-0.5,3.2-0.8,4.7-1.5c1.5-0.6,2.9-1.4,4.4-2.1C471.1,607.5,476.3,603.8,481,599.5z"/>
		<path d="M473.6,745.6c0.3,6.5,0.6,13,1.1,19.5c1.1-6.4,2-12.8,2.9-19.3c0.3-6.5,0.5-12.9,0.7-19.4c0.2-6.5,0.3-13,0.3-19.5
			c0-3.2-0.1-6.5-0.1-9.8l-0.2-4.9l-0.2-2.5c-0.1-0.8-0.1-1.6-0.3-2.5l-0.4-2.5l-0.4-2.3c-0.3-1.5-0.4-3.1-0.6-4.7l-0.5-4.8
			l-0.4-4.8c-0.5-6.4-0.9-12.9-1.2-19.3c-0.3-6.5-0.6-12.9-0.8-19.4c-0.9-6.4-1.6-12.9-2.7-19.3c-0.6,6.5-1,13-1.4,19.5l0.9,19.4
			c0.3,6.5,0.7,12.9,1.2,19.4l0.4,4.9l0.5,4.9c0.2,1.6,0.4,3.2,0.7,4.9l0.5,2.5l0.4,2.2c0.1,0.7,0.2,1.5,0.2,2.3l0.2,2.4l0.2,4.8
			c0.1,3.2,0.1,6.4,0.1,9.6c0,6.4-0.1,12.9-0.3,19.3C474.1,732.7,473.9,739.2,473.6,745.6z"/>
		<path d="M382.7,772.4c2.5,0.1,4.9,0.2,7.3,0.2c4.9,0.1,9.8,0,14.7-0.2c4.9-0.2,9.8-0.6,14.7-1.1c2.4-0.3,4.9-0.6,7.3-1
			c2.3-0.9,4.6-2.1,6.8-3.3c-2.6-0.3-5-0.4-7.5-0.7c-2.4,0.4-4.7,0.7-7.1,1c-4.8,0.5-9.6,0.9-14.4,1.1c-4.8,0.2-9.6,0.3-14.5,0.2
			c-2.4,0-4.8-0.1-7.2-0.2c-2.4,0.5-4.9,1-7.4,1.6C377.8,770.9,380.2,771.7,382.7,772.4z"/>
		<path d="M442.4,770.2c-0.1-0.7-0.3-1.3-0.5-2c-0.3-0.8-0.8-1.3-1.3-1.8c-0.5-0.5-1-0.9-1.6-1.2c-1.1-0.7-2.2-1.2-3.4-1.6
			c1,0.8,1.9,1.6,2.7,2.5c0.4,0.4,0.8,0.9,1,1.4c0.3,0.5,0.5,1,0.5,1.4c0.1,0.9,0,2.2-0.2,3.4c-0.1,1.2-0.4,2.4-0.6,3.5
			c-0.2,2.4-0.5,4.8-1,7c-0.1,0.3-0.1,0.5-0.2,0.8l-0.1,0.4l0,0.1h0c-1,0.2-2.3,0.4-3.5,0.5c-9.7,1-19.6,1.6-29.4,2.1
			c-9.8,0.5-19.7,1-29.5,1.2c-1.2,0-2.4,0-3.4,0c-0.1-0.2-0.1-0.6-0.2-1c-0.3-2.1-0.2-4.6-0.1-7l-0.4-3.7c-0.1-0.6-0.1-1.3-0.2-1.9
			c0-0.3-0.1-0.7-0.2-1l-0.1-0.5l-0.1-0.3c-0.2-0.8,0.1-2,0.7-3c0.6-1,1.3-2,2.2-2.9c-1.1,0.6-2.2,1.3-3.1,2.2
			c-0.9,0.9-1.8,2.1-2,3.8l0,1c0,0.3,0,0.5,0,0.8c0,0.6-0.1,1.2-0.2,1.8l-0.5,3.7c-0.1,0.6,0,1.2,0,1.9v1.9c0,1.3,0,2.6,0.2,4
			c0.1,0.7,0.2,1.4,0.6,2.3c0.2,0.5,0.5,1.1,1.4,1.6c0.2,0.1,0.5,0.2,0.7,0.3l0.3,0.1l0.2,0c0.2,0,0.4,0,0.6,0c1.4,0.1,2.6,0,3.8,0
			c0.7,0,1.4,0,2.1,0c-0.2,0.2-0.3,0.5-0.5,0.7l-1.6,2.4l-1.6,2.4l-0.8,1.2c0.2,0.7,0.4,1.5,0.8,2.3c0.9,0.1,1.7,0,2.5-0.1l0.8-1.2
			l1.6-2.4l1.6-2.4c0.3-0.4,0.5-0.8,0.8-1.2c-0.2-0.6-0.4-1.2-0.6-1.9c8.2-0.2,16.4-0.6,24.6-1c9.9-0.6,19.7-1.1,29.6-2.1
			c1.3-0.2,2.5-0.3,3.9-0.6l0.6-0.1l0.3-0.1c0.1,0,0.3-0.1,0.5-0.2c0.1-0.1,0.4-0.2,0.6-0.4c0.2-0.2,0.2-0.2,0.2-0.3l0.2-0.4
			c0.1-0.1,0.2-0.3,0.2-0.4l0.1-0.3l0.2-0.6l0.1-0.5c0.1-0.3,0.2-0.7,0.3-1c0.3-1.3,0.5-2.6,0.7-3.8l0.2-1.9
			c0.1-0.6,0.2-1.3,0.2-1.9c-0.1-1.3-0.1-2.6-0.3-3.8C442.6,771.5,442.5,770.9,442.4,770.2z"/>
		<path d="M489.3,769.1c4.2,0.1,8.5,0,12.8-0.2c4.3-0.2,8.5-0.7,12.7-1.3c2.1-0.4,4.2-0.7,6.3-1.2c2-1,3.9-2.2,5.6-3.6
			c-2.3-0.2-4.4-0.1-6.5-0.3c-2,0.5-4,0.8-6.1,1.2c-4.1,0.6-8.2,1.1-12.3,1.3c-4.1,0.2-8.3,0.3-12.5,0.2c-2.1,0-4.2-0.1-6.2-0.2
			c-2.1,0.5-4.2,0.9-6.4,1.5c2,1,4.1,1.8,6.2,2.5C485,769,487.1,769.1,489.3,769.1z"/>
		<path d="M593.5,819.4c-0.2-0.7-0.5-1.4-0.8-2c-0.3-0.6-0.6-1.3-1-1.9c-0.4-0.6-0.8-1.2-1.2-1.7l-0.6-0.8c-0.2-0.3-0.5-0.6-0.8-0.9
			c-1.2-1.1-2.3-1.8-3.4-2.5c-1.2-0.7-2.3-1.4-3.5-2c-2.3-1.2-4.7-2.4-7-3.5c-4.7-2.2-9.5-4.2-14.3-6.1c-9.8-3.3-19.7-6.4-29.7-9
			c9.4,4.2,18.9,8.4,28.2,12.8c4.8,1.9,9.5,3.9,14.1,6c2.3,1.1,4.6,2.2,6.8,3.3c1.1,0.6,2.2,1.2,3.2,1.8c1,0.6,2,1.3,2.8,2
			c0.2,0.2,0.3,0.3,0.5,0.5l0.5,0.7c0.4,0.5,0.7,1,1,1.5c0.3,0.5,0.6,1,0.8,1.5c0.2,0.5,0.5,1,0.6,1.5c0.3,1,0.5,2,0.4,3
			c-0.1,1-0.4,1.9-0.9,2.7c-1.1,1.7-3,3-5.1,4l-0.8,0.3c-0.3,0.1-0.5,0.2-0.8,0.3c-0.2,0.1-0.5,0.1-0.7,0.2l-0.9,0.2
			c-1.2,0.2-2.4,0.4-3.7,0.5c-5,0.5-10.2,0.7-15.3,0.9c-5.1,0.2-10.3,0.3-15.4,0.3c-10.3,0.1-20.6,0.1-30.8,0
			c-10.3-0.2-20.6-0.4-30.8-0.9c-2.6-0.1-5.1-0.3-7.6-0.5c-0.6,0-1.3-0.1-1.9-0.2c-0.6-0.1-1.2-0.2-1.8-0.2c-0.2,0-0.2,0-0.3-0.1
			c-0.1,0-0.2,0-0.2,0c-0.1-0.1-0.2-0.1-0.4-0.2c-0.1-0.1-0.3-0.3-0.4-0.4c-0.1-0.2-0.3-0.3-0.4-0.6c-1.2-1.7-2-4.1-2.4-6.4
			c-0.3-1.2-0.4-2.4-0.5-3.6l-0.2-3.7c-0.8-9.9,1.6-20.1,6.3-29.3c1.5,0,3-0.1,4.5-0.1c3.8-0.1,7.5-0.3,11.2-0.4
			c7.5-0.3,15-0.8,22.5-1.4c1.9-0.2,3.7-0.3,5.6-0.5c1.9-0.2,3.8-0.4,5.6-0.6c1.9-0.2,3.8-0.5,5.7-0.8c1-0.2,1.9-0.4,2.9-0.6
			c0.5-0.1,1-0.3,1.5-0.4l1.5-0.5c0.6-0.2,1-0.7,1.1-1.3l0-0.2c0.4-2.1,0.7-4.1,0.9-6.1l0.4-3.1c0.1-0.5,0-1,0-1.6s-0.1-1-0.1-1.6
			c-0.1-1.1-0.2-2.1-0.5-3.2c-0.1-0.5-0.3-1.1-0.4-1.6c-0.2-0.5-0.4-1.1-0.8-1.6c-0.6-1-1.5-1.9-2.7-2.2c-1.2-0.3-2.3,0-3.1,0.6
			c1-0.3,2-0.2,2.8,0.3c0.7,0.5,1.2,1.2,1.4,2.1c0.1,0.4,0.2,0.8,0.2,1.3c0,0.5,0,0.9,0,1.4c0,0.9-0.2,1.9-0.3,2.9
			c-0.1,1-0.4,1.9-0.5,2.9c0,1-0.2,2-0.3,3c-0.2,1.6-0.4,3.2-0.7,4.7l-0.2,0.1c-0.4,0.1-0.7,0.3-1.2,0.3l-2.6,0.5
			c-1.8,0.3-3.6,0.6-5.5,0.8c-1.8,0.2-3.7,0.5-5.5,0.6c-1.8,0.2-3.7,0.3-5.5,0.5c-7.4,0.6-14.9,1.1-22.3,1.4
			c-3.7,0.2-7.5,0.3-11.2,0.4l-5.6,0.1c-0.9,0-1.8,0-2.7,0h-0.3c-0.1-0.6-0.3-1.4-0.3-2.2c-0.1-0.9-0.1-1.8-0.1-2.7
			c0-0.9,0.1-1.8,0-2.7l-0.3-2.8l-0.3-2.8l-0.2-1.4l-0.1-0.7c0-0.1,0-0.3,0-0.3l0,0l0-0.1c0-0.3,0.2-0.7,0.4-1
			c0.2-0.4,0.5-0.8,0.7-1.1c0.5-0.8,1.1-1.5,1.8-2.2c-0.8,0.5-1.6,1-2.4,1.6c-0.4,0.3-0.8,0.6-1.1,1c-0.4,0.4-0.7,0.7-1,1.4
			c-0.2,0.2-0.2,1-0.2,1l-0.1,0.7l-0.2,1.4l-0.4,2.8l-0.4,2.8c-0.1,1,0,1.9,0,2.9c0,1,0.1,1.9,0.2,2.9c0.1,1,0.2,2,0.5,3.2l0.2,0.5
			c0.1,0.2,0.1,0.3,0.2,0.5l0.2,0.3c0.1,0.1,0.1,0.2,0.3,0.4c0.1,0.1,0.3,0.3,0.4,0.4c0.2,0.1,0.5,0.3,0.7,0.3c0.2,0,0.2,0,0.2,0
			l0.1,0l0.2,0l0.5,0l0.5,0h0.4c1,0,1.9,0,2.9,0c0.4,0,0.8,0,1.2,0c-6.1,8.3-9.9,18.6-10.3,29.3c-0.1,1.3,0.1,2.7,0.2,4
			c0.2,1.3,0.3,2.7,0.6,4c0.6,2.7,1.4,5.3,3.1,7.9c0.5,0.6,1,1.3,1.7,1.8c0.4,0.3,0.8,0.5,1.3,0.8l0.7,0.2c0.2,0.1,0.5,0.1,0.6,0.2
			c0.7,0.1,1.4,0.2,2,0.3c0.7,0.1,1.3,0.1,2,0.2c2.6,0.2,5.2,0.4,7.8,0.5c10.3,0.5,20.6,0.7,31,0.9c10.3,0.1,20.6,0.2,31,0
			c5.2-0.1,10.3-0.2,15.5-0.3c5.2-0.2,10.3-0.4,15.6-1c0.7-0.1,1.3-0.1,2-0.2c0.7-0.1,1.3-0.2,2-0.3l1-0.2c0.4-0.1,0.8-0.2,1.1-0.3
			c0.4-0.1,0.7-0.2,1-0.4l1-0.4c2.5-1.2,5.1-2.8,6.8-5.5c0.8-1.3,1.4-2.9,1.5-4.5C594.2,822.4,594,820.8,593.5,819.4z"/>
		<path d="M441.1,821c-0.2-1.3-0.5-2.5-0.9-3.7c-1.7-4.8-3.8-9.3-6.1-13.7c-2.4-4.4-4.9-8.6-7.8-12.7c1.1,2.2,2.1,4.5,3,6.8
			c1,2.3,1.9,4.5,2.7,6.8c1.7,4.6,3.2,9.2,4.3,13.9c0.3,1.2,0.6,2.3,0.9,3.5c0.3,1.2,0.5,2.3,0.6,3.5c0.3,2.3,0.3,4.6-0.2,6.6
			c-0.2,0.5-0.3,1-0.5,1.4l-0.1,0.3c0,0.1-0.1,0.2-0.1,0.3c-0.1,0.1-0.2,0.3-0.3,0.4c-0.6,0.6-1.5,1.2-2.4,1.6
			c-2,0.9-4.3,1.6-6.6,2.2c-4.6,1.1-9.5,1.7-14.3,2.2c-4.9,0.5-9.7,0.8-14.6,1.1c-9.8,0.5-19.6,0.6-29.4,0.6
			c-4.9,0-9.8-0.1-14.7-0.2c-1.2,0-2.6,0-3.4-0.2c-0.9-0.2-1.8-0.5-2.6-1c-0.8-0.5-1.4-1.2-1.9-2c-0.2-0.4-0.4-1-0.7-1.5
			c-0.2-0.5-0.4-1-0.6-1.6c-0.7-2.1-1.2-4.4-1.2-6.7c-0.1-2.2,0.1-4.5,0.9-6.6c1.2-4.3,4.3-7.8,8.1-10.3c3.8-2.5,8.3-4.1,12.9-5.2
			c4.7-1,9.5-1.6,14.2-1.7c4.7-0.3,9.5,0,14.2,1.2c2.3,0.7,4.6,1.5,6.7,2.6c2.1,1.2,4.2,2.5,5.9,4.3c-2.9-4.1-7.2-7-11.9-9
			c-4.7-2-9.8-2.9-14.9-3.2c-2.5,0-5.1,0.2-7.6,0.5c-2.5,0.2-5,0.8-7.5,1.3c-4.9,1.2-9.9,2.8-14.3,5.8l-1.6,1.1
			c-0.5,0.4-1,0.9-1.5,1.3c-0.5,0.5-1,0.8-1.5,1.4l-1.3,1.5c-0.5,0.5-0.8,1.1-1.2,1.6c-0.4,0.6-0.7,1.1-1.1,1.7
			c-0.5,1.2-1.2,2.4-1.5,3.8c-0.9,2.6-1.1,5.3-1,8c0.1,2.7,0.6,5.3,1.4,7.8c0.2,0.6,0.4,1.3,0.7,1.9c0.3,0.6,0.5,1.2,0.9,1.9
			c0.8,1.3,1.8,2.5,3.1,3.3c1.3,0.9,2.7,1.4,4.2,1.7c0.7,0.1,1.6,0.2,2.1,0.2l1.9,0c4.9,0.1,9.9,0.2,14.8,0.2
			c9.9,0,19.8-0.1,29.6-0.6c4.9-0.2,9.9-0.6,14.8-1.1c5-0.5,9.9-1.2,14.8-2.3c2.5-0.6,5-1.3,7.4-2.4c1.2-0.6,2.5-1.3,3.6-2.5
			c0.3-0.3,0.6-0.6,0.8-1c0.1-0.2,0.2-0.4,0.3-0.5l0.2-0.5c0.3-0.7,0.5-1.4,0.7-2.1c0.7-2.8,0.6-5.5,0.3-8.1
			C441.5,823.5,441.3,822.2,441.1,821z"/>
	</g>
</g>
</svg>
