<?xml version="1.0" encoding="utf-8"?>
<!-- Generator: Adobe Illustrator 24.3.0, SVG Export Plug-In . SVG Version: 6.00 Build 0)  -->
<svg version="1.1" id="Layer_1" xmlns="http://www.w3.org/2000/svg" xmlns:xlink="http://www.w3.org/1999/xlink" x="0px" y="0px"
	 viewBox="0 0 864 864" style="enable-background:new 0 0 864 864;" xml:space="preserve">
<style type="text/css">
	.st0{fill:#FED5AB;}
	.st1{fill:#E5D62E;}
	.st2{fill:#D94335;}
	.st3{fill:#43459C;}
	.st4{fill:#40303B;}
	.st5{fill:#F27A54;}
	.st6{display:none;}
	.st7{display:inline;}
</style>
<g id="Color">
	<path class="st0" d="M440.1,216.3l-4.4-16.4L388.2,211l-52,19.7l-38.2,21.2l-34.4,23.6L238.3,297l-0.5,0.7l8.9,18.3l27.9,56
		l-11.8-7l-11.4,0.9l-9.7,6.7l-3.6,9.5l6.4,17.5l11.3,11.6l59.3,24.9l26.1,9.3l24.2,9.5l27.9,13.8c0,0,10.1-8.6,10.3-8.6
		c0.2-0.1,24.8-25.4,24.8-25.4l35.7-36.9l15.8-24l6.2-18l1.5-17.4l-7.6-10.9l-15.8-4.2l-6.5,0.4l-6.2-20.8L440.1,216.3z"/>
	<polygon class="st1" points="254.4,332.2 231.5,350.1 217,356.3 203.9,358.1 190.1,350.7 183.2,339.6 181.4,314.1 200.2,275.3 
		201.4,273.7 197,252 190.7,230.1 186.7,203.2 188.4,182.8 199.6,155.1 216.5,134.8 236.1,117.4 262.3,101.2 285.2,93.7 307.1,90.9 
		324.6,91.7 338.6,94.5 371.6,112.6 404.6,132.5 422.9,144.9 450.2,162 469.8,163.2 493.9,173.4 504.7,180.5 504.7,194.5 
		494.9,209.2 481.3,217.7 465.9,223.1 442.3,226.4 434.6,200.4 394.5,209.3 373.3,216 314.8,241.1 285.5,259.5 258,279.4 
		243.6,292.1 237.8,297.6 	"/>
	<path class="st2" d="M437.8,425.1L412.3,452L394,470.4l-31.4-15.7l10.5,29.5l17.2,49.8l5.4,24.1c0,0,62.5-19.9,62.2-19.7
		c-0.2,0.2-0.2-52.9-0.2-52.9l-9-36.8L437.8,425.1z"/>
	<polygon class="st2" points="238.2,528.5 230.7,499.9 232.3,475.7 242.5,463.9 261.5,458.1 281.8,461.3 308.6,471.1 319.8,481.2 
		333.1,502.3 335.5,523.8 331.4,551.1 321,576.2 308.8,591.1 292.9,596.2 279,590.9 267.8,581.2 257.5,559.5 279,545.8 276.2,532.3 
		266.7,513.2 	"/>
	<path class="st2" d="M491,435.9l8.6-20.5l8.4-7.9l8.4-4l10,4.1l11.3,12.7l5.6,9.3l7.6,16.2l-26.7-1.7l-2.1,13.4l0.6,10.3l3.8,12.7
		c0,0,0.7,1.4,1,1.4s16.5-0.6,16.5-0.6h8.5l-1.5,14.5l-10.3,19.1l-8.9,10.7l-9.5,3.8l-10.8-4.5l-7.6-45.2L493.7,443L491,435.9z"/>
	<polyline class="st2" points="333.1,544.6 346.9,566.2 352,585.1 351.4,599.7 339.9,613.2 328.2,618.3 312.1,614.4 305.1,606.7 
		294.7,594.6 	"/>
	<polygon class="st0" points="265.5,513.3 232.8,532.5 189.4,557.3 215.7,599.9 236.2,634.1 233.2,635.9 222.3,632.1 210.9,622.6 
		201.6,613 197.7,609.5 196.3,615.3 197.2,626.6 204.9,646.6 213.3,656 208.8,656.2 200.1,653.1 184.5,643.2 176.5,636.9 
		176.5,641.3 180.9,654.1 190.7,671.5 197.6,678.8 194.9,682.6 183.5,685.1 177.7,683.8 197.3,694.9 231.8,697.8 246.8,694 
		262.2,679.3 268.4,658.8 268.5,638.1 259.7,614 247.5,589.9 236.6,573.6 279.7,545.3 	"/>
	<path class="st0" d="M524.1,443l15.8,2.9c0,0,19.6-1.1,19.9-1.1s16.9-3.9,16.9-3.9l3.1-25.8l0.7-7.5l-7.5-9.9l-15.8-5.1l0.2-3.8
		l8.9-3.5l9.3,1.5l4-3.7l9.3-2.6l4.4,1.4l6.8-5l14.4,2.4l8.4,5.3l7.4-0.1l5.7-4.3l16-2.5l5.2,0.3l8.2-5l14.3-0.7l5.2,3.1l3.7,4.1
		l-9.4,0.3l-8.4,4.1l-2.2,3.1l-10.1,1.5l-8.2,3.5l1.2,3.3l-25.4,8.8l-13.7,7.1l-2.3,21l-4.5,26.7l-2.6,14.5l-20.9,5.9
		c0,0-26.9,2-27,2.1s-28.4,0.8-28.4,0.8l-4.2-18.3L524.1,443z"/>
	<polygon class="st3" points="303.3,467.9 308.6,459.7 322.1,448.9 331,442.4 363,455.3 371.2,477.7 389.5,529.4 395.8,558.7 
		440.5,546 457.8,539.4 459.9,522.6 457.8,494 455.9,474.5 449.1,448.9 438.5,425.2 442.3,420.6 477.7,410.8 489.3,434 493.2,445 
		503.8,481 507.3,499.6 510.8,530 512.3,575.1 510.1,605.8 502,661.6 534.9,734.3 507.3,743.1 474.3,748.5 444.3,749.9 426.1,748.1 
		430.9,726.3 434.7,691.2 406.9,703.2 381.1,707.2 377.8,707.7 400.3,758.9 372.9,762.3 331.6,761.7 314.2,758.8 300.9,755.6 
		315.6,713.7 299.9,706.1 286.6,697.5 280.2,692.2 274.5,686.5 265.3,671.5 274.3,612.8 279,591.7 286.2,595.3 303.8,594.5 
		318,582.3 328.8,560.8 332.4,550.6 335.4,531.4 335,508.5 325.9,487.1 	"/>
	<polygon class="st4" points="397.4,378.9 388.9,387 382.1,395.5 380.4,408.2 380.1,414.8 365.4,409.8 352.4,396.9 348,381.3 
		351.7,367.7 361.5,362.3 374.8,366.1 	"/>
	<polygon class="st1" points="309.8,758.8 302.2,773.6 289.3,773.5 278.1,776.7 264.2,787.2 254.8,802.9 251.8,816.8 257.7,819.9 
		291.2,820.8 325.4,818.5 361.6,815.6 388.8,811.8 397.6,802.3 397.8,792.9 394.7,784 381.2,761.5 342.2,762.8 	"/>
	<polygon class="st1" points="430.2,748.9 429.2,761.6 424.8,772.8 418.4,788.3 418.2,798.6 423.3,804.8 437.3,807.4 485.3,805.9 
		508.3,802.7 557,797.3 578.5,794.4 594.6,782.5 600.9,770.9 597.4,754.7 589.9,745.1 579.3,740.7 565.4,739.1 548.1,742.1 
		536.3,746 518.8,740.3 483.5,747.7 457,749.8 	"/>
	<polygon class="st5" points="253.9,819.3 252.7,843.1 272.1,843.4 273.5,833.2 286.4,833.9 287.2,844.6 304.8,842.4 306.2,834.3 
		323.5,834.2 324,843.2 339.1,841.8 339.8,832.2 355.6,832.1 355.3,841.3 373.9,841 373.7,832.2 386,831 387.3,841.3 401.3,840.7 
		394.5,806.8 386.7,812.9 336.3,818 279.8,821.4 	"/>
	<path class="st5" d="M425.5,805.6l-0.9,34l27.3-0.8l0.2-15.9l13.5,0.6l0.8,14.8l21.6-0.3l1-13.7l16.8-0.2l1.7,12.4l22.5-0.9l2.3-14
		l12.4,0.5l2.9,15l23.8-2.2l0.6-12.6l10.5,0.6l0.7,12c0,0,16.8-0.5,17-0.6s-7-49.5-7-49.5l-23.4,12l-33.8,3.9l-62.1,4.8
		c0,0-40.7,2-41,2C432.6,807.6,425.5,805.6,425.5,805.6z"/>
</g>
<g id="Live_Outlines" class="st6">
	<g class="st7">
		<path d="M490.7,196.1c6-0.6,12-1.8,17.8-3.4s11.4-3.8,16.6-6.8c5.2-2.9,9.9-6.7,13.5-11.2c1.8-2.3,3.3-4.8,4.4-7.4
			c1.1-2.6,1.9-5.4,2.4-8.2c0.2-0.8,0.2-1.3,0.2-1.9c0-0.6,0-1.2-0.2-1.8c-0.2-1.2-0.7-2.4-1.4-3.4c-0.4-0.5-0.8-1-1.2-1.4
			c-0.4-0.4-1-0.8-1.6-1.3c-1.2-0.9-2.4-1.7-3.6-2.5c-5-3.2-10.3-5.8-15.9-7.7c-11.2-3.9-23.1-5.4-35-5h-0.1h0
			c-4.2-0.1-8.7,0.1-13,0.4c-4.4,0.3-8.7,0.7-13,1.2c-8.7,1.1-17.3,2.6-25.8,4.6c-8.5,1.9-17,4.3-25.3,7c-4.1,1.4-8.3,2.8-12.4,4.4
			c-2,0.8-4.1,1.5-6.1,2.3l-6.1,2.5c-16.3,6.6-32.4,13.7-48.1,21.5c-15.7,7.9-31,16.5-45.6,26.2c-14.5,9.8-28.2,20.8-39.9,33.7
			c-5.8,6.5-11.1,13.4-15.4,20.9c-4.3,7.5-7.6,15.5-9.5,23.9c-0.9,4.2-1.5,8.5-1.7,12.7c-0.1,2.1-0.1,4.3,0,6.4c0.1,2,0.4,4.1,1,6.1
			c1.2,3.9,3.1,7.6,5.8,10.7c2.8,3,6.2,5.6,10.1,7c3.9,1.4,8.2,1.7,12.4,1.2c4.2-0.6,8.4-1.9,12.4-3.6c8-3.6,15.2-8.6,22.1-14.1
			c-6.5,5.9-13.5,11.5-21.4,15.6c-4,1.9-8.2,3.6-12.7,4.5c-4.5,0.8-9.2,0.7-13.7-0.6c-4.5-1.3-8.5-4-11.9-7.3
			c-1.7-1.7-3.1-3.6-4.3-5.6c-1.2-2-2.1-4.3-2.7-6.5c-0.6-2.3-1-4.6-1.1-7c-0.1-2.3-0.1-4.5,0-6.8c0.2-4.5,0.8-9,1.8-13.4
			c2-8.8,5.4-17.3,9.9-25c4.5-7.8,9.9-15,15.9-21.6c12-13.2,26-24.4,40.7-34.3c14.7-9.9,30.2-18.6,46-26.5c15.8-7.9,32-15,48.4-21.6
			l6.1-2.5c2.1-0.8,4.1-1.6,6.2-2.4c4.1-1.6,8.4-3,12.6-4.4c8.5-2.7,17-5.1,25.7-7.1c8.7-1.9,17.4-3.5,26.2-4.6
			c4.4-0.5,8.8-1,13.3-1.3c4.5-0.3,8.9-0.5,13.4-0.4h-0.2c12.3-0.4,24.8,1.1,36.5,5.3c5.8,2,11.5,4.8,16.7,8.1
			c1.3,0.8,2.6,1.7,3.8,2.7c0.6,0.5,1.2,0.9,1.9,1.5c0.7,0.6,1.3,1.3,1.8,2c1,1.4,1.8,3.1,2.2,4.9c0.2,0.9,0.3,1.8,0.2,2.7
			c0,0.9-0.1,1.9-0.3,2.6l-0.5,2.3c-0.2,0.8-0.5,1.5-0.7,2.3l-0.4,1.1c-0.1,0.4-0.3,0.7-0.5,1.1c-0.3,0.7-0.6,1.5-1,2.2
			c-1.5,2.8-3.3,5.5-5.3,7.9c-4.2,4.7-9.3,8.4-14.9,11.1c-5.5,2.8-11.4,4.7-17.3,6C502.8,195.1,496.8,196,490.7,196.1z"/>
	</g>
	<g class="st7">
		<path d="M500.6,167c-2.9,0.5-5.8,1-8.6,1.6c-2.9,0.6-5.7,1.2-8.6,1.8c-5.7,1.3-11.4,2.6-17,4.2c-11.4,2.4-22.7,5.3-33.9,8.6
			c-11.2,3.3-22.2,7.1-33,11.4c-10.8,4.3-21.5,8.9-32,14.1c-20.9,10.4-40.8,22.6-59.1,36.9l-3.5,2.7c-1.1,0.9-2.2,1.9-3.4,2.8
			l-6.7,5.6l-6.5,5.9c-1.1,1-2.2,1.9-3.2,3c-1,1-2,2.1-3.1,3.1c-2.2,2-4.4,3.9-6.5,5.8l-6.3,6.1c-1,1-2.1,2-3.1,3.1l-3,3.2l-6.1,6.4
			l5.2-7.1l2.6-3.5c0.9-1.2,1.9-2.3,2.8-3.4l5.6-6.8c2-2.2,4-4.4,5.9-6.6c1-1.1,2.1-2.1,3.1-3.1l3.3-3l6.5-5.9l6.8-5.7
			c1.1-0.9,2.2-1.9,3.4-2.8l3.5-2.7c18.6-14.5,38.8-26.9,59.8-37.3c10.5-5.3,21.3-9.9,32.3-14.2c11-4.3,22.1-8.1,33.4-11.5
			c11.3-3.4,22.7-6.3,34.2-8.7c5.8-1,11.6-1.8,17.5-2.4C488.9,167.6,494.8,167.1,500.6,167z"/>
	</g>
	<g class="st7">
		<path d="M481.3,126.1l-42.8-24.7c-13.9-8.7-27.9-17.4-42.1-25.7l-5.3-3.1c-1.8-1-3.6-2-5.4-2.9c-3.5-1.8-7.3-3.1-11.1-4
			c-7.8-1.8-15.9-2.4-24-2.3c-8.1,0.2-16.2,1.1-24.1,2.8c-7.9,1.7-15.7,4-22.9,7.6c-14.4,7.5-28,16.8-39.6,28.1
			c-5.8,5.6-11.2,11.8-15.9,18.4c-4.7,6.6-8.7,13.7-12,21.1c-1.7,3.7-3,7.4-3.9,11.3c-0.9,3.9-1.5,7.9-1.8,11.9
			c-0.3,4-0.2,8,0.1,12.1c0.2,4,0.9,8,1.4,12.1c1,8.1,2.7,16.1,4.7,24.1l3,12c0.5,2,0.9,4,1.3,6.1c0.2,1,0.3,2,0.4,3.1
			c0.1,1,0.1,2.1-0.3,3.1c0.3-1,0.2-2,0-3c-0.2-1-0.4-2-0.7-3c-0.6-2-1.2-3.9-1.8-5.9l-3.9-11.7c-2.6-7.8-4.9-15.8-6.6-24
			c-0.4-2-0.7-4.1-0.9-6.2c-0.2-2.1-0.4-4.2-0.6-6.2c-0.3-4.2-0.3-8.4-0.1-12.6c0.3-4.2,0.9-8.4,1.9-12.5c0.5-2.1,1.1-4.1,1.8-6.1
			c0.3-1,0.7-2,1.1-3l1.2-2.9c3.4-7.6,7.6-14.9,12.4-21.8c4.9-6.8,10.4-13.1,16.3-18.9c6-5.8,12.5-11.1,19.3-15.9
			c6.8-4.8,13.9-9.1,21.3-12.9c7.6-3.8,15.7-6.2,23.9-7.9c8.2-1.7,16.5-2.7,24.9-2.8c8.4-0.2,16.8,0.4,25,2.4c4.1,1,8.2,2.4,12,4.3
			c1.9,1,3.7,2,5.5,3l5.4,3.1c14.2,8.3,28.2,17,42.2,25.8C454.3,107.2,467.9,116.5,481.3,126.1z"/>
	</g>
	<g class="st7">
		<path d="M352.3,146.6c-1.7-3.6-3.4-7.2-5.1-10.6c-1.2-3.7-2.5-7.3-4-10.9c-3-7.1-6.5-14-10.7-20.4c-4.2-6.4-9.1-12.4-14.9-17.3
			c-2.9-2.4-6-4.6-9.3-6.5c-3-2.3-6.3-4.4-9.8-6.3c4,0.4,7.9,1.3,11.8,2.8c3.5,2,6.8,4.3,9.9,6.9c6.1,5.3,11.3,11.5,15.6,18.2
			c4.4,6.7,8,13.8,11,21.1c1.5,3.7,2.9,7.4,4.2,11.1C351.7,138.6,352.3,142.6,352.3,146.6z"/>
	</g>
	<g class="st7">
		<path d="M404.3,131.5c-2.6-3.2-5-6.4-7.5-9.6c-1.9-3.5-4-6.9-6.1-10.3c-4.2-6.8-8.7-13.4-13.5-19.7c-4.9-6.3-10-12.3-15.9-17.5
			c-2.9-2.6-6-5-9.4-6.9c-3-2.4-6.4-4.4-10.3-5.7c4.1-0.4,8.4,0.6,12.3,2.2c3.7,2.1,7,4.6,10,7.3c6.2,5.4,11.5,11.7,16.5,18.1
			c5,6.4,9.5,13.2,13.8,20c2.1,3.4,4.2,6.9,6.2,10.4C401.8,123.7,403.2,127.5,404.3,131.5z"/>
	</g>
	<g class="st7">
		<path d="M282.8,275.9l8.9,16.5l8.8,16.6l8.8,16.6c2.9,5.5,5.9,11,8.6,16.6v0c0.5,1,0,2.2-1,2.7c-0.8,0.4-1.7,0.2-2.3-0.4
			c-0.7-0.7-1.6-1.5-2.5-2.2c-0.9-0.7-1.9-1.3-2.8-1.9c-2-1.2-4-2.1-6.2-2.6c-2.1-0.5-4.3-0.7-6.5-0.4c-2.1,0.3-4.2,1.1-6,2.2
			c-1.9,1.1-3.6,2.6-5.1,4.3c-1.5,1.6-2.6,3.5-3.2,5.5c-0.6,2-0.8,4.2-0.5,6.3c0.3,2.2,1,4.3,2,6.4c1.9,4.1,4.7,8,7.8,11.5
			c3.1,3.5,6.8,6.5,10.7,9c2,1.3,4,2.4,6.1,3.4c2.1,1,4.3,1.9,6.6,2.7l13.6,5.1c18.2,6.8,36.5,13.5,54.6,20.6
			c9.1,3.5,18.1,7.1,27.1,10.9c4.5,1.9,9,3.8,13.4,5.9c2.2,1,4.4,2.1,6.6,3.3c1.1,0.6,2.2,1.2,3.3,1.9c0.5,0.4,1.1,0.7,1.6,1.1
			c0.6,0.5,1.1,0.9,1.7,1.8L434,439l35.3-36l17.6-18l8.8-9l4.4-4.5c1.4-1.5,2.8-3,4.2-4.6c5.3-6.2,9.7-13.3,13.4-20.7
			c3.7-7.4,6.6-15.2,8.4-23.2c0.2-1,0.5-2,0.6-3c0.2-1,0.3-2,0.4-3c0.2-2,0.1-3.9-0.2-5.8c-0.6-3.7-2.3-7.2-5.2-9.7
			c-2.8-2.5-6.6-4.1-10.5-5.1c-3.9-1-8.1-1.3-12.1-1.2h-0.1c-0.5,0-1-0.3-1.1-0.8l-5-18.2l-4.9-18.2l6,17.9l6,17.9l-1.2-0.8
			c2.2-0.2,4.3-0.2,6.5-0.2c2.2,0.1,4.3,0.3,6.5,0.7c4.3,0.8,8.6,2.3,12.2,5.2c1.8,1.4,3.4,3.2,4.5,5.3c1.2,2,1.9,4.3,2.2,6.6
			c0.7,4.5,0,9.1-1,13.2c-1.9,8.4-4.9,16.5-8.7,24.1c-3.8,7.6-8.4,14.9-14,21.5c-1.4,1.6-2.8,3.2-4.3,4.8l-4.4,4.5l-8.8,9l-17.6,18
			l-35.3,36l-0.2,0.2c-0.7,0.7-1.9,0.7-2.6,0c-0.1-0.1-0.3-0.3-0.4-0.5c0-0.1-0.5-0.5-0.8-0.8c-0.4-0.3-0.9-0.6-1.3-0.9
			c-1-0.6-2-1.2-3-1.8c-2.1-1.1-4.2-2.2-6.4-3.2c-4.4-2-8.8-4-13.3-5.9c-8.9-3.8-18-7.3-27-10.8c-18.1-7-36.3-13.8-54.5-20.5
			l-13.7-5.1c-2.2-0.8-4.6-1.8-6.9-2.9c-2.3-1.1-4.5-2.3-6.6-3.7c-4.2-2.7-8.1-6-11.5-9.7s-6.3-7.8-8.5-12.5
			c-1.1-2.3-1.9-4.8-2.3-7.5c-0.4-2.6-0.2-5.5,0.6-8.1c0.8-2.6,2.3-5,4.1-7c1.7-1.9,3.7-3.6,6-5c2.3-1.4,4.9-2.4,7.6-2.7
			c2.7-0.4,5.4-0.2,8,0.5c2.6,0.7,5,1.7,7.2,3.1c1.1,0.7,2.2,1.4,3.2,2.2c1,0.8,2,1.6,3,2.6l-3.3,2.3c-2.9-5.6-5.4-11.3-8-17
			l-7.9-17l-7.8-17L282.8,275.9z"/>
	</g>
	<g class="st7">
		<path d="M501.1,245.7c-2.5-3.1-4.9-6.3-7.4-9.3c-1.9-3.4-4-6.6-6.3-9.8c-2.2-3.1-4.6-6.2-7.2-8.9c-1.3-1.4-2.7-2.6-4.1-3.8
			c-1.4-1.1-3-2.1-4.5-2.6c-1.5-0.5-3-0.6-4.4,0c-0.7,0.2-1.3,0.7-1.9,1.2c-0.6,0.6-1.1,1.2-1.6,1.9c-2,2.9-3.2,6.5-4.1,10.2
			c-0.9,3.7-1.6,7.5-2.1,11.4c-1.1,3.8-2,7.6-3.1,11.5c-0.5-4-0.8-8-0.9-12c0.5-3.9,1.2-7.9,2.2-11.8c1-3.9,2.3-7.9,4.7-11.5
			c0.6-0.9,1.4-1.8,2.2-2.6c0.9-0.8,1.9-1.5,3-2c2.3-1,5-0.9,7.2-0.1c2.2,0.7,4,1.9,5.7,3.2c1.7,1.3,3.2,2.7,4.6,4.2
			c2.8,2.9,5.3,6.1,7.6,9.4s4.4,6.6,6.5,10C498.7,238.1,500.1,241.9,501.1,245.7z"/>
	</g>
	<g class="st7">
		<path d="M424.7,268.1c-2.8-3.6-5.6-7.1-8.5-10.5c-2.4-3.7-5-7.3-7.7-10.7c-2.8-3.4-5.8-6.5-9.2-9c-1.7-1.2-3.5-2.3-5.3-2.9
			c-0.9-0.3-1.9-0.5-2.8-0.6c-0.9,0-1.8,0-2.7,0.2c-1.7,0.4-3.3,1.5-4.7,2.9c-1.4,1.4-2.5,3.1-3.5,5c-2,3.7-3.4,7.9-4.5,12.1
			c-1.1,4.2-2,8.6-2.7,12.9c-1.3,4.3-2.4,8.6-3.7,13c-0.3-4.5-0.4-9.1-0.2-13.6c0.7-4.5,1.6-8.9,2.8-13.3c1.2-4.4,2.7-8.8,4.9-12.9
			c1.1-2.1,2.4-4.1,4.2-5.9c1.7-1.8,4-3.3,6.6-4c1.3-0.3,2.6-0.4,4-0.3c1.3,0.1,2.6,0.4,3.8,0.8c2.4,0.8,4.5,2.1,6.4,3.5
			c3.8,2.8,7,6.2,9.9,9.7c2.9,3.5,5.5,7.2,8,11C421.5,259.6,423.3,263.7,424.7,268.1z"/>
	</g>
	<g class="st7">
		<path d="M443.2,233.3c1,4.6,2.3,9.2,3.9,13.6c1.6,4.4,3.4,8.8,5.8,12.7c2.3,3.9,5.3,7.6,9,9.7c0.5,0.3,0.9,0.5,1.4,0.7l0.9,0.4
			l0.9,0.4c0.6,0.4,1.2,0.7,1.7,1.1c0.5,0.4,1.1,0.8,1.5,1.3c1.9,1.8,3.3,4,4.4,6.3c2.1,4.6,3.3,9.5,3.6,14.4c0.1,2.5,0,5-0.3,7.5
			c-0.4,2.5-1,4.9-1.8,7.3c-0.9,2.4-2.1,4.6-3.6,6.7c-0.7,1-1.6,2-2.5,2.9c-1,0.9-1.9,1.7-3,2.5c-1,0.8-2.2,1.4-3.3,2
			c-1.2,0.5-2.3,1.1-3.5,1.4c-2.4,0.9-4.9,1.2-7.4,1.5l0.6-3.8c3.1,1.4,6.5,2.5,9.8,3.5c3.3,1,6.7,1.8,10.1,2.2
			c3.4,0.5,6.8,0.6,10.1,0.2c3.3-0.4,6.4-1.4,8.9-3.3l0,0c0.9-0.7,2.1-0.5,2.8,0.4c0.3,0.5,0.5,1,0.4,1.5c-0.1,0.8-0.3,1.4-0.5,2.1
			c-0.2,0.7-0.4,1.3-0.6,2c-0.5,1.3-1,2.6-1.6,3.8c-1.2,2.5-2.7,4.8-4.5,6.8c-3.6,4.1-8.3,7.3-13.4,9.1c-5.1,1.9-10.5,2.5-15.8,2.6
			c-5.3,0-10.5-0.7-15.7-1.7c-2.6-0.5-5.1-1.2-7.6-1.8c-2.6-0.7-5.2-1.8-7.5-3.1c-1.2-0.7-2.3-1.4-3.4-2.2c-0.5-0.4-1.1-0.8-1.6-1.2
			l-1.5-1.2c-1.9-1.5-3.9-2.9-6.1-4c-4.2-2.2-9.1-3.2-13.2-1.7c-2,0.8-3.8,2.2-5.2,4c-1.4,1.8-2.4,3.9-3,6.2
			c-1.2,4.5-0.9,9.5,0.5,14.1c1.5,4.6,4.1,8.8,7.5,12.2c3.4,3.5,7.6,6.1,12.1,8.1c2.2,1,4.6,1.8,7,2.4c1.2,0.3,2.4,0.6,3.6,0.8
			l0.9,0.2c0.1,0,0.2,0,0.2,0l0.2,0l0.5,0c0.6,0,1.2,0.1,1.8,0.1c2.5,0.1,5,0,7.5-0.2c2.5-0.2,5-0.4,7.4-0.8
			c2.5-0.4,4.9-0.9,7.3-1.6c1.2-0.4,2.4-0.7,3.5-1.2l1.8-0.7c0.6-0.3,1.3-0.5,2-0.7c0.4-0.1,0.7-0.2,1.1-0.2c0.4,0,0.9-0.1,1.5,0.1
			c0.3,0.1,0.6,0.3,0.9,0.6c0.3,0.3,0.4,0.6,0.5,0.9c0.1,0.6,0,1,0,1.4c-0.4,1.5-1.1,2.6-1.8,3.8c-1.4,2.2-3,4.3-4.6,6.3
			c-3.2,4-6.7,7.8-10.2,11.5c3.2-4,6.3-8.1,9.2-12.3c1.4-2.1,2.8-4.2,4-6.5c0.6-1.1,1.1-2.3,1.3-3.2c0-0.2,0-0.4,0-0.5
			c0,0,0.1,0.2,0.1,0.2c0,0-0.2,0-0.4,0c-0.2,0-0.5,0.1-0.7,0.2c-0.5,0.2-1.1,0.4-1.6,0.7l-1.8,0.8c-1.2,0.6-2.4,1-3.6,1.5
			c-2.5,0.9-5,1.7-7.6,2.3c-2.6,0.6-5.2,1.1-7.8,1.2c-2.6,0.2-5.3,0.2-7.9,0.1c-0.7,0-1.3-0.1-2-0.1l-0.5,0l-0.3,0
			c-0.1,0-0.2,0-0.3,0l-1-0.2c-1.4-0.2-2.6-0.6-3.9-0.9c-2.6-0.7-5.1-1.6-7.5-2.6c-4.9-2.1-9.5-5.1-13.3-9
			c-3.8-3.8-6.8-8.6-8.4-13.8c-1.7-5.2-2-10.9-0.6-16.3c0.7-2.7,1.9-5.3,3.7-7.6c1.8-2.3,4.2-4.1,6.9-5.2c2.8-1,5.8-1.3,8.6-0.8
			c2.8,0.4,5.5,1.4,7.9,2.7c2.4,1.3,4.6,2.8,6.7,4.5l1.5,1.2c0.5,0.4,1,0.7,1.5,1.1c1,0.7,2,1.4,3.1,1.9c2.1,1.2,4.4,2.1,6.7,2.8
			c2.4,0.6,4.9,1.3,7.3,1.8c4.9,1,9.9,1.6,14.9,1.6c5,0,9.9-0.6,14.4-2.3c4.6-1.6,8.7-4.3,11.8-8c1.6-1.8,2.9-3.8,4-6
			c0.5-1.1,1-2.2,1.4-3.3c0.2-0.6,0.4-1.1,0.5-1.7c0.1-0.5,0.3-1.2,0.4-1.6l3.2,1.9c-3.2,2.4-7.1,3.7-10.8,4.1
			c-3.8,0.5-7.5,0.2-11.1-0.3c-3.6-0.5-7.2-1.3-10.7-2.4c-3.5-1-6.9-2.2-10.3-3.7c-1-0.4-1.5-1.6-1-2.6c0.3-0.7,0.9-1.1,1.6-1.2
			l0.1,0c2.2-0.3,4.4-0.6,6.5-1.3c1.1-0.3,2-0.8,3-1.2c0.9-0.5,1.9-1,2.8-1.7c0.9-0.6,1.7-1.3,2.5-2c0.7-0.8,1.5-1.6,2.1-2.5
			c1.3-1.7,2.4-3.6,3.1-5.7c0.8-2.1,1.3-4.2,1.6-6.4c0.3-2.2,0.4-4.5,0.2-6.7c-0.1-2.2-0.5-4.5-1-6.6c-0.5-2.2-1.2-4.3-2.2-6.2
			c-1-2-2.2-3.8-3.6-5.3c-0.3-0.4-0.7-0.7-1.1-1.1c-0.4-0.3-0.8-0.6-1.2-0.9l-0.6-0.4c-0.2-0.1-0.4-0.2-0.7-0.4
			c-0.6-0.3-1.2-0.6-1.7-1c-2.2-1.4-4-3.3-5.5-5.2c-1.5-2-2.8-4.1-3.8-6.3c-2.1-4.4-3.6-8.9-4.8-13.5
			C444.6,242.7,443.8,238,443.2,233.3z"/>
	</g>
	<g class="st7">
		<path d="M436.6,351.9l-2.1,4.1c-1.1,0.9-2,1.8-3,2.8c-1.9,2-3.5,4.1-4.9,6.5c-1.3,2.3-2.3,4.8-2.7,7.4c-0.2,1.3-0.3,2.6-0.3,3.9
			c-0.6,1.3-1,2.8-1.4,4.3c-1.1-1.2-1.9-2.6-2.5-4.2c0-1.6,0-3.1,0.3-4.7c0.5-3.1,1.7-6,3.2-8.7c1.5-2.7,3.4-5.1,5.5-7.3
			c1-1.1,2.1-2.1,3.3-3.1C433.4,352.4,434.9,352,436.6,351.9z"/>
	</g>
	<g class="st7">
		<path d="M480.5,182.7c1,0.8,1.7,1.6,2.5,2.4c0.1,0.9,0.3,1.8,0.5,2.8l1,5.5l1,5.5l0.5,2.8c-0.4,1-0.8,2.1-1.5,3.1
			c-1-0.8-1.7-1.6-2.5-2.4l-0.5-2.8l-1-5.5l-1-5.5c-0.2-0.9-0.3-1.8-0.5-2.8C479.5,184.8,479.9,183.7,480.5,182.7z"/>
	</g>
	<g class="st7">
		<path d="M367.1,417.1c-0.4,1.3-0.8,2.5-1.2,3.6c-0.9,0.7-1.7,1.4-2.5,2.1l-5,4.4l-5,4.4l-2.5,2.2c-1.2,0.3-2.5,0.6-3.8,0.7
			c0.3-1.3,0.7-2.5,1.2-3.7l2.5-2.2l5-4.4l5-4.4c0.8-0.7,1.7-1.4,2.5-2.2C364.4,417.4,365.7,417.1,367.1,417.1z"/>
	</g>
	<g class="st7">
		<path d="M293.8,463c3.1,2,5.8,4.5,8.4,7.1c2.1,3,4,6,5.9,9.1c3.7,6.2,6.8,12.7,9.7,19.3l2,5c0.7,1.7,1.2,3.4,1.9,5
			c1.3,3.4,2.3,6.8,3.4,10.2c0.6,1.7,1,3.4,1.5,5.2c0.5,1.7,1,3.5,1.4,5.2c0.3,3.6,0.5,7.2,0.5,10.9c-1.6-3.3-2.9-6.6-4.4-9.9
			c-0.5-1.7-0.9-3.4-1.4-5.1c-0.5-1.7-0.9-3.4-1.5-5.1c-1.1-3.3-2.1-6.7-3.4-10c-0.6-1.6-1.2-3.3-1.8-4.9l-2-4.9
			c-2.8-6.5-5.9-12.8-9.4-18.8c-1.8-3-3.6-6-5.7-8.8C297.4,469.3,295.7,466.1,293.8,463z"/>
	</g>
	<g class="st7">
		<path d="M277.6,491.8c-1.3-3.2-2.5-6.5-3.5-9.9c-1-3.4-1.8-6.8-2.4-10.2c-0.6-3.5-1-7-1.2-10.5c-0.1-1.8-0.1-3.5-0.1-5.3
			c0-1.8,0.1-3.7,0.5-5.5c0.3-1.8,1-3.6,1.8-5.3s1.7-3.3,2.8-4.9c1.1-1.5,2.4-2.9,3.8-4.1c0.7-0.6,1.4-1.2,2.1-1.8
			c0.8-0.5,1.5-1.1,2.3-1.6c1.6-1,3.2-1.8,4.9-2.5c1.7-0.7,3.5-1.3,5.2-1.7c3.5-0.9,7.2-1.2,10.8-1.3c7.2,0,14.2,1.2,21.1,3
			c3.4,0.9,6.8,2,10.1,3.1c1.6,0.6,3.3,1.2,4.9,1.9c0.8,0.3,1.6,0.7,2.5,1c0.8,0.4,1.7,0.7,2.4,1.1c12.9,6.3,23.3,17.5,28.7,30.8
			l1,2.5c0.3,0.9,0.5,1.7,0.8,2.6l0.4,1.3l0.3,1.3l0.6,2.6c0.7,3.5,1.1,7.1,1.3,10.6c0.4,7.1-0.2,14.2-1.4,21.2
			c-1.3,7-3.2,13.8-5.7,20.4c-2.5,6.6-5.4,13-9.2,19.1c-1.9,3-4.1,5.9-6.6,8.5c-2.5,2.6-5.4,5-8.7,6.7c-3.3,1.7-7.1,2.8-10.9,2.8
			c-3.8,0.1-7.5-0.6-10.9-2c-3.4-1.5-6.4-3.5-9.2-5.7c-2.8-2.2-5.4-4.8-7.4-7.8c-2.1-2.9-3.6-6.2-4.8-9.4l-3.6-9.8l4.7,9.3
			c1.5,3.1,3.3,6,5.5,8.6c2.2,2.6,4.7,4.7,7.5,6.6c2.8,1.9,5.8,3.4,8.9,4.5c1.5,0.5,3.1,1,4.6,1.3c1.6,0.4,3.2,0.4,4.7,0.4
			c3.2,0,6.3-0.9,9.1-2.4c5.7-3,10.1-8.2,13.7-13.9c3.6-5.7,6.4-12,8.8-18.4c2.4-6.4,4.2-13,5.5-19.7c1.2-6.7,1.7-13.5,1.3-20.3
			c-0.2-3.4-0.6-6.8-1.2-10l-0.6-2.4l-0.3-1.2l-0.4-1.2c-0.3-0.8-0.5-1.6-0.8-2.4l-0.9-2.3c-5-12.4-14.8-22.9-26.8-28.7
			c-0.7-0.4-1.5-0.7-2.3-1c-0.8-0.3-1.5-0.7-2.3-1c-1.6-0.6-3.2-1.2-4.8-1.8c-3.2-1.1-6.5-2.2-9.8-3c-6.6-1.7-13.3-2.9-20-2.8
			c-6.7,0.1-13.4,1.4-18.8,4.9c-0.7,0.4-1.3,0.9-2,1.4c-0.6,0.5-1.3,1-1.9,1.5c-1.2,1.1-2.3,2.2-3.2,3.5c-0.9,1.3-1.7,2.7-2.4,4.1
			c-0.6,1.5-1.1,3-1.5,4.5c-0.4,1.6-0.7,3.1-0.8,4.8c-0.2,1.7-0.3,3.4-0.3,5.1c-0.1,3.4,0,6.8,0.2,10.3c0.2,3.4,0.7,6.8,1.3,10.2
			C275.8,485.1,276.6,488.5,277.6,491.8z"/>
	</g>
	<g class="st7">
		<path d="M301.8,487l-17.6,10.9l-17.6,10.8l-35.2,21.6l0.7-2.7c4.2,6.3,8,12.9,12,19.3l12,19.3l24,38.6l0,0
			c0.6,0.9,0.3,2.1-0.6,2.7c-0.1,0-0.2,0.1-0.2,0.1c-0.4,0.2-0.5,0.2-0.7,0.2c-0.2,0-0.4,0.1-0.5,0.1c-0.3,0.1-0.7,0.1-1,0.2
			c-0.6,0.1-1.2,0.1-1.9,0c-1.2-0.1-2.3-0.3-3.4-0.5c-2.2-0.6-4.2-1.4-6.2-2.4c-3.8-2-7.3-4.5-10.6-7.2
			c-6.5-5.4-12.2-11.5-17.6-17.8l3.2-0.2c0,0-0.2,0.3-0.2,0.5c-0.1,0.2-0.2,0.4-0.3,0.7c-0.2,0.5-0.3,0.9-0.4,1.4
			c-0.3,1-0.4,2-0.6,3c-0.2,2.1-0.2,4.2,0.1,6.3c0.5,4.2,1.7,8.5,3.4,12.5c1.6,4.1,3.7,8,6,11.7c2.3,3.8,4.9,7.4,7.6,10.9l0,0
			c0.7,0.9,0.5,2.1-0.4,2.8c-0.5,0.4-1.1,0.5-1.6,0.4c-1.2-0.2-2-0.5-2.9-0.8c-0.9-0.3-1.8-0.6-2.7-1c-1.8-0.7-3.5-1.5-5.2-2.3
			c-3.4-1.7-6.7-3.5-9.8-5.4c-3.2-1.9-6.3-4-9.3-6.1l-4.5-3.3l-4.4-3.4l3.2-1.8c0.3,1.9,0.8,3.9,1.3,5.9c0.5,2,1.1,3.9,1.8,5.8
			c1.3,3.8,2.9,7.6,4.8,11.2c1.9,3.6,4,7.1,6.4,10.3c2.4,3.3,5.1,6.3,8.1,9l0.1,0c0.6,0.5,0.7,1.3,0.5,2c-0.2,0.5-0.3,0.7-0.4,1
			c-0.1,0.3-0.3,0.6-0.5,0.8c-0.3,0.5-0.7,1-1.1,1.5c-0.9,0.9-1.9,1.7-2.9,2.2c-2.2,1.1-4.5,1.6-6.8,1.6c-2.2,0.1-4.4-0.3-6.5-0.7
			c-2.1-0.5-4.1-1.1-6.1-1.8l2.1-3.3c0.6,0.6,1.5,1.3,2.3,2c0.8,0.6,1.7,1.2,2.6,1.8c1.8,1.2,3.6,2.2,5.5,3.2
			c3.8,1.9,7.8,3.5,11.8,4.7c8.2,2.4,16.8,3.4,25.4,3.3c4.3,0,8.5-0.4,12.6-1.3c4.1-0.9,8-2.5,11.4-4.8c3.4-2.3,6.2-5.3,8.5-8.8
			s4-7.3,5.4-11.4c1.3-4,2.3-8.2,3-12.4c0.6-4.1,0.7-8.4,0.4-12.6c-0.7-8.5-3.1-16.8-6.1-24.9c-1.5-4-3.3-8-5.2-11.9
			c-1.9-3.9-3.8-7.8-5.8-11.6c-4.1-7.6-8.7-15.1-13.8-22.1l0-0.1c-0.4-0.5-0.2-1.2,0.2-1.5l0.1,0l19.5-12.3l19.5-12.2l-18.9,13.2
			l-18.9,13.1l0.3-1.6c5.5,6.9,10.5,14.2,15.1,21.7c2.3,3.8,4.5,7.6,6.5,11.6c1.9,4,3.7,8.1,5.3,12.2c3.1,8.3,5.6,17,6.4,26
			c0.4,4.5,0.3,9.1-0.4,13.6c-0.8,4.5-1.8,8.8-3.2,13.1c-1.4,4.3-3.3,8.5-5.9,12.3c-2.5,3.8-5.8,7.3-9.6,9.9
			c-3.9,2.6-8.3,4.4-12.7,5.3c-4.5,1-9,1.3-13.5,1.4c-8.9,0.1-17.9-0.9-26.5-3.4c-4.3-1.3-8.5-2.9-12.5-5c-2-1-4-2.2-5.9-3.4
			c-0.9-0.6-1.9-1.3-2.8-2c-0.9-0.7-1.8-1.4-2.7-2.3c-0.8-0.8-0.8-2,0-2.8c0.6-0.6,1.4-0.7,2.1-0.5l0.1,0c1.8,0.7,3.7,1.3,5.5,1.7
			s3.7,0.7,5.5,0.6c1.8,0,3.5-0.4,5-1.1c0.7-0.4,1.4-0.9,1.9-1.4c0.3-0.3,0.5-0.6,0.7-0.9c0.1-0.2,0.2-0.3,0.3-0.5
			c0.1-0.1,0.2-0.4,0.2-0.4l0.6,2c-3.1-2.9-6-6.1-8.5-9.6c-2.6-3.4-4.8-7.1-6.7-10.9c-1.9-3.8-3.6-7.7-5-11.8c-0.7-2-1.3-4-1.8-6.1
			c-0.5-2.1-1-4.1-1.4-6.3c-0.2-1.1,0.6-2.1,1.7-2.3c0.6-0.1,1.1,0.1,1.5,0.4l0.1,0l4.4,3.3l4.4,3.2c3,2.1,6,4.1,9.1,6
			c3.1,1.9,6.3,3.7,9.5,5.2c1.6,0.8,3.3,1.5,4.9,2.2c0.8,0.3,1.7,0.6,2.5,0.9c0.8,0.3,1.7,0.5,2.4,0.7l-1.9,3.2
			c-2.8-3.6-5.4-7.4-7.9-11.3c-2.4-3.9-4.6-8-6.3-12.3c-1.8-4.3-3.1-8.8-3.6-13.6c-0.3-2.4-0.3-4.8-0.1-7.2c0.1-1.2,0.4-2.4,0.7-3.6
			c0.2-0.6,0.4-1.2,0.6-1.8c0.1-0.3,0.2-0.6,0.4-0.9c0.2-0.3,0.3-0.6,0.5-1c0.6-0.9,1.8-1.2,2.7-0.7c0.2,0.1,0.3,0.2,0.5,0.4l0,0
			c5.3,6.2,10.8,12.2,17,17.3c3.1,2.6,6.4,4.9,9.8,6.7c1.7,0.9,3.5,1.6,5.3,2.1c0.9,0.2,1.8,0.4,2.6,0.4c0.4,0,0.9,0,1.2,0
			c0.2,0,0.4,0,0.5-0.1c0.1,0,0.2,0,0.2-0.1c0,0,0.2-0.1,0.1,0l-0.8,2.9l-24-38.6l-12-19.3c-3.9-6.5-8.1-12.8-12-19.3l-0.1-0.1
			c-0.5-0.9-0.2-2.1,0.7-2.6c0,0,0,0,0,0l36.2-20l18.1-10L301.8,487z"/>
	</g>
	<g class="st7">
		<path d="M406.8,432.6c3.6,7.7,7,15.4,10.3,23.2l2.5,5.9c0.8,2,1.6,3.9,2.3,5.9l4.1,12c2.7,8,5.2,16.1,7.6,24.2l1.7,6.1
			c0.5,2,1,4.1,1.5,6.2c0.5,2,0.9,4.2,1.3,6.3c0.2,1,0.4,2.1,0.5,3.2l0.4,3.2l-2.5-1.8c10.6-2.8,21.2-5.7,31.7-8.9
			c5.2-1.6,10.5-3.2,15.6-5c2.6-0.9,5.1-1.8,7.6-2.8c1.2-0.5,2.5-1,3.7-1.6c1.1-0.5,2.4-1.2,3.1-1.8l-0.7,1.3
			c0.6-9.1,0.7-18.3,0.5-27.4c-0.3-9.2-0.9-18.3-2.1-27.4c-0.6-4.5-1.3-9-2.2-13.5c-0.4-2.2-1-4.4-1.5-6.7l-0.6-3.4l-0.8-3.3
			c-1.1-4.4-2.2-8.9-3.8-13.2c-1.5-4.3-3.3-8.6-5.4-12.7c5.3,7.6,9.3,16.1,12.3,25l1.1,3.3l1,3.4c0.4,1.1,0.6,2.3,0.8,3.4l0.7,3.4
			c0.9,4.6,1.6,9.2,2.3,13.8c1.2,9.2,1.9,18.5,2.1,27.8c0.2,9.3,0.1,18.5-0.5,27.9v0c0,0.5-0.3,1-0.7,1.3c-1.5,1.2-2.7,1.7-4,2.4
			c-1.3,0.6-2.6,1.2-3.9,1.7c-2.6,1-5.2,2-7.8,2.8c-5.2,1.8-10.5,3.4-15.8,5c-10.6,3.2-21.2,6.1-31.8,8.9c-1.1,0.3-2.1-0.3-2.4-1.4
			c0-0.1,0-0.2,0-0.2l0-0.1l-0.4-3c-0.1-1-0.3-2-0.5-3c-0.4-2-0.8-4.1-1.3-6.1c-0.5-2-1-4-1.5-6.1l-1.7-6c-2.4-8-4.9-16.1-7.6-24
			c-1.4-4-2.7-8-4.1-11.9c-0.8-2-1.3-4-1.9-6l-1.8-6L406.8,432.6z"/>
	</g>
	<g class="st7">
		<path d="M492,389.2l13.6-4.6l13.6-4.5c0.4-0.1,0.8,0,1,0.4l0,0c3,4.6,5.5,9.4,7.8,14.2c2.4,4.9,4.6,9.8,6.6,14.8
			c1.1,2.5,2,5,2.9,7.6c0.9,2.6,1.7,5.1,2.5,7.7c1.6,5.2,3.1,10.4,4.4,15.6c2.7,10.5,4.8,21,6.5,31.7c1.7,10.7,2.9,21.4,3.7,32.1
			c0.8,10.8,1.1,21.5,1.1,32.3c-0.1,10.8-0.5,21.5-1.4,32.3c-1.7,21.5-4.8,42.8-9.2,63.9l-0.1-1.2l32.5,72.4l0,0c0.4,1,0,2.2-1,2.6
			c0,0-0.1,0-0.1,0c-8.8,3.4-17.6,6-26.6,8.2c-2.2,0.5-4.5,1.1-6.8,1.5l-6.8,1.4c-4.5,0.8-9.1,1.6-13.7,2.2l-3.4,0.5
			c-1.2,0.1-2.3,0.2-3.5,0.4c-2.3,0.2-4.6,0.5-6.9,0.7c-4.6,0.2-9.2,0.7-13.9,0.7c-2.3,0-4.6,0.2-6.9,0.1c-2.3,0-4.6-0.1-6.9-0.3
			c-1.1-0.1-2.3-0.1-3.5-0.2l-3.5-0.4l-6.9-0.7h0c-0.9-0.1-1.5-0.8-1.4-1.7c0-0.1,0-0.2,0.1-0.3c0.6-1.9,1.2-3.9,1.8-6
			c0.5-2,1-4.1,1.5-6.1c0.9-4.1,1.7-8.2,2.4-12.4c0.7-4.2,1.3-8.3,1.9-12.5l0.8-6.3l0.7-6.3l-0.3,6.3l-0.4,6.3
			c-0.3,4.2-0.7,8.4-1.2,12.7c-0.5,4.2-1,8.4-1.7,12.6c-0.4,2.1-0.7,4.2-1.1,6.3c-0.4,2.1-0.9,4.2-1.5,6.3l-1.3-2l6.8,0.3l3.4,0.2
			c1.1,0.1,2.3,0,3.4,0c2.3,0,4.5,0,6.8,0.1c2.3,0,4.5,0,6.8,0c4.5,0,9.1-0.4,13.6-0.7c2.3-0.2,4.5-0.5,6.8-0.7
			c1.1-0.1,2.3-0.2,3.4-0.4l3.4-0.5c4.5-0.6,9-1.4,13.5-2.2l6.7-1.4c2.2-0.5,4.4-1,6.7-1.5c8.8-2.2,17.6-4.7,26-8l-1.1,2.7
			L541.5,633c-0.2-0.4-0.2-0.8-0.1-1.2c4.4-20.9,7.5-42.1,9.1-63.4c0.9-10.6,1.2-21.3,1.4-32c0-10.7-0.3-21.3-1.1-32
			c-0.8-10.6-2-21.2-3.7-31.8c-1.7-10.5-3.8-21-6.5-31.3c-1.3-5.2-2.8-10.3-4.3-15.4l-5.1-15.1c-1.7-5-3.6-10-5.7-14.9
			c-2.1-4.9-4.3-9.8-6.9-14.4l1.1,0.4l-13.9,3.7L492,389.2z"/>
	</g>
	<g class="st7">
		<path d="M534.6,401.3c0.2-3.6,1-7.2,2.1-10.8c1.7-3.3,3.6-6.5,6-9.4c2.4-2.9,5.3-5.5,8.9-7.2c1.8-0.8,3.7-1.4,5.8-1.5
			c2.2-0.1,4.2,0.4,6.1,1.1c3.7,1.6,6.6,4,9.2,6.6c2.6,2.6,4.9,5.4,7.1,8.4c2.2,2.9,4.1,6,6,9c1.3,3.4,2.6,6.8,3.4,10.4
			c-2.3-2.8-4.5-5.6-6.8-8.3c-1.8-3-3.7-5.9-5.8-8.7c-2-2.8-4.2-5.5-6.7-7.9c-2.4-2.4-5.1-4.5-8-5.8c-1.4-0.6-2.9-0.9-4.3-0.8
			c-0.3,0-0.7,0-1.1,0.1c-0.4,0.1-0.8,0.1-1.1,0.2c-0.8,0.2-1.5,0.5-2.2,0.8c-2.9,1.3-5.4,3.5-7.5,6.1c-2.1,2.6-3.9,5.5-5.4,8.6
			C538.3,395.2,536.4,398.2,534.6,401.3z"/>
	</g>
	<g class="st7">
		<path d="M593.5,458.8c0.2,2.7-0.1,5.3-0.4,8c-0.4,1.2-0.9,2.4-1.4,3.6c-0.5,1.2-1,2.4-1.5,3.6c-2.1,4.8-4.5,9.4-7.5,13.7
			c-1.5,2.2-3.1,4.2-4.9,6.2l-0.7,0.7l-0.7,0.7l-1.4,1.4c-0.9,0.9-2.1,1.9-3.3,2.6c-2.5,1.5-5.3,2.4-8.3,2.4c-1.5-0.3-3-0.9-4.2-1.8
			c-1.2-0.9-2-2-2.7-3.2c1.2,0.6,2.4,1.1,3.5,1.2c1.2,0.2,2.2,0,3.3-0.3c2.2,0,4.3-0.6,6.2-1.8c1-0.6,1.8-1.2,2.7-2.1l1.3-1.3
			l0.7-0.6l0.6-0.7c1.6-1.8,3.2-3.7,4.6-5.8c2.8-4.1,5.1-8.5,7.2-13c1-2.3,2-4.6,2.7-7L593.5,458.8z"/>
	</g>
	<g class="st7">
		<path d="M494.4,649.2c-5.1,4.6-10.6,8.7-16.4,12.5c-5.8,3.7-11.9,7.1-18.2,9.9c-3.2,1.4-6.5,2.4-9.8,3.5c-3.3,1-6.7,1.9-10.1,2.5
			c-6.8,1.4-13.9,2-20.9,1.7l1.9-2.8l22.5,52.3l0,0c0.4,1,0,2.2-1,2.6c-0.1,0.1-0.3,0.1-0.5,0.1c-8.4,1.3-16.7,2.2-25,2.8
			c-8.4,0.6-16.8,0.9-25.2,0.8c-8.4-0.2-16.8-0.7-25.2-1.7c-8.4-1.2-16.7-2.9-24.8-5.5c-1-0.3-1.6-1.5-1.3-2.5l0,0l0,0l14.6-41.8
			l1.1,2.5c-1.9-0.9-3.8-1.7-5.6-2.7c-1.8-1-3.6-2-5.4-3c-3.6-2.1-7.1-4.2-10.6-6.5c-3.5-2.3-6.8-4.7-10-7.4
			c-1.6-1.3-3.1-2.8-4.5-4.3c-1.4-1.5-2.7-3.2-3.7-5c1.1,1.7,2.6,3.2,4.1,4.5s3.2,2.5,4.9,3.7c3.4,2.3,6.9,4.4,10.5,6.3
			s7.2,3.8,11,5.5l5.6,2.6c1.8,0.9,3.7,1.8,5.5,2.7c1,0.4,1.4,1.5,1.1,2.5l-14.6,41.8L343,724c7.8,2.5,15.9,4.2,24,5.3
			c8.2,1,16.4,1.5,24.7,1.7c8.3,0.1,16.6-0.2,24.8-0.8c8.2-0.6,16.5-1.5,24.7-2.7l-1.5,2.8l-22.5-52.3c-0.4-1,0-2.2,1-2.6
			c0.3-0.1,0.6-0.2,0.9-0.2h0c6.6,0.3,13.4-0.3,19.9-1.6c6.6-1.3,13-3.3,19.3-5.8c6.4-2.2,12.6-5,18.6-8.1c3-1.6,6-3.2,8.9-5
			C488.8,653.1,491.7,651.2,494.4,649.2z"/>
	</g>
	<g class="st7">
		<path d="M317.3,571c0.6,1.1,1.1,2.1,1.5,3.1c-0.2,0.9-0.3,1.8-0.5,2.7c-0.3,1.8-0.6,3.6-0.9,5.5c-0.3,1.8-0.5,3.6-0.8,5.4
			c-0.1,0.9-0.2,1.8-0.3,2.7l-1,1.2l-0.5,0.7c-0.2,0.2-0.3,0.4-0.5,0.7c-0.2-0.2-0.4-0.4-0.7-0.7c-0.2-0.2-0.3-0.5-0.5-0.7
			c-0.4-0.5-0.6-1-0.9-1.5c0.1-1,0.2-1.9,0.3-2.9c0.2-1.9,0.5-3.7,0.8-5.6c0.3-1.8,0.6-3.7,0.9-5.5c0.1-0.9,0.3-1.8,0.5-2.8
			C315.6,572.5,316.3,571.7,317.3,571z"/>
	</g>
	<g class="st7">
		<path d="M340.9,570.4c3.3,3.5,6.8,6.7,10.6,9.2c3.4,3,7.3,5.4,11.5,6.4c4.2,1,8.6,0.5,12.5-1.4c1.9-1,3.9-2.2,5.7-3.5
			c1.8-1.4,3.4-2.9,4.8-4.6c2.8-3.4,4.7-7.5,5.4-11.8c0.7-4.4,0.3-8.9-0.7-13.3c-1-4.5-2.6-8.8-4.6-13c-1.4-4.5-3.1-8.9-4.9-13.3
			c3.1,3.6,6,7.5,8.5,11.7c2,4.4,3.7,9,4.8,13.8c1.1,4.8,1.5,9.8,0.8,14.9c-0.8,5-3,9.9-6.3,13.7c-1.6,2-3.5,3.7-5.5,5.2
			c-2,1.5-4,2.8-6.4,4c-2.3,1.1-4.8,1.9-7.4,2.2c-2.6,0.3-5.2,0.1-7.8-0.5c-5.1-1.2-9.4-4-13.2-7.2
			C345.5,578.9,342.8,574.8,340.9,570.4z"/>
	</g>
	<g class="st7">
		<path d="M567.8,405.1c0,2.5-0.1,5,0,7.4c-0.6,2.3-1,4.6-1.4,6.9c-0.7,4.6-1,9.3-0.8,13.9c0.1,2.3,0.4,4.6,0.8,6.8
			c0.5,2.2,1.1,4.4,1.9,6.5c0.8,2.1,1.9,4.1,3.1,6c0.7,2.2,1.8,4.3,3,6.6c-2.3-1.1-4.4-2.6-6.3-4.4c-1.4-2.1-2.6-4.4-3.5-6.7
			c-0.9-2.4-1.6-4.8-2.1-7.2c-0.5-2.5-0.8-4.9-0.9-7.4c-0.3-5,0.1-9.9,0.8-14.7c0.4-2.4,0.9-4.8,1.4-7.2
			C565,409.3,566.2,407.1,567.8,405.1z"/>
	</g>
	<g class="st7">
		<path d="M569.5,414.7c2-0.5,3.8-0.8,5.7-1.1c1.8,0.3,3.6,0.4,5.4,0.5c3.6,0.3,7.3,0.3,10.9,0.2c1.8,0,3.6-0.2,5.4-0.4l2.7-0.3
			l1.3-0.2l1.3-0.2l2.7-0.5c0.9-0.2,1.8-0.4,2.6-0.6l1.4,0.1c0.5,0,1,0,1.4,0.1c1,0.1,1.9,0.2,3,0.3c-0.8,0.6-1.6,1.2-2.4,1.8
			c-0.8,0.6-1.7,1.1-2.5,1.6c-0.9,0.2-1.9,0.4-2.8,0.6l-2.8,0.5l-1.4,0.2l-1.4,0.2l-2.8,0.3c-1.9,0.1-3.8,0.3-5.7,0.4
			c-3.8,0.1-7.5,0.1-11.3-0.2l-2.8-0.2l-2.8-0.3C572.9,416.7,571.1,415.9,569.5,414.7z"/>
	</g>
	<g class="st7">
		<path d="M573.3,452.2l9-1.3l4.5-0.6l2.2-0.3c0.7-0.1,1.5-0.1,2.2-0.1c6-0.3,11.9-0.8,17.9-1.4c5.9-0.6,11.8-1.5,17.7-2.5
			c5.8-1.1,11.6-2.5,17.2-4.3l-1.3,1.6l4.2-27l1.1-6.8c0.2-1.1,0.4-2.2,0.5-3.4c0.1-1.1,0.5-2.2,0.8-3.3c1.2-4.4,2.5-8.8,3.8-13.2
			c0,4.6-0.2,9.2-0.4,13.8c-0.1,1.1,0,2.3-0.2,3.4c-0.2,1.1-0.4,2.2-0.6,3.4l-1.1,6.8l-4.2,27v0c-0.1,0.8-0.7,1.4-1.3,1.6
			c-5.8,1.9-11.8,3.3-17.8,4.4c-6,1.1-12,1.9-18,2.6c-6,0.6-12.1,1.1-18.1,1.4c-0.8,0-1.5,0.2-2.3,0.1c-0.8,0-1.5-0.1-2.3-0.2
			l-4.5-0.4C579.3,453.1,576.3,452.7,573.3,452.2z"/>
	</g>
	<g class="st7">
		<path d="M636.6,363c1.8-1.9,3.9-3.5,6.2-5c1.1-0.7,2.3-1.4,3.5-2c1.2-0.6,2.4-1.3,3.7-1.5c5.2-1.4,10.5-2.1,15.9-1.8
			c2.7,0.1,5.3,0.5,8,1.1c1.3,0.2,2.6,0.6,3.9,1c1.3,0.4,2.6,0.8,3.8,1.3c5,1.9,9.7,4.5,14,7.5c0.9,0.6,1.1,1.9,0.5,2.8
			c-0.3,0.4-0.7,0.7-1.1,0.8l0,0c-3.9,1.1-7.9,2.3-11.8,3.6c-3.9,1.3-7.8,2.8-11.5,4.4c-1.9,0.8-3.8,1.6-5.6,2.5
			c-0.9,0.5-1.9,0.8-2.8,1.3c-0.4,0.2-0.9,0.5-1.4,0.7l-1.5,0.5c-3.8,1.5-7.7,3.1-11.4,5c2.9-3,6.2-5.7,9.7-8.2l1.3-0.9
			c0.4-0.3,0.9-0.5,1.4-0.7c1-0.5,1.9-0.9,2.9-1.4c1.9-0.9,3.8-1.7,5.8-2.6c3.9-1.6,7.8-3.1,11.8-4.5c4-1.4,8-2.6,12.1-3.7l-0.7,3.6
			c-4.1-2.9-8.5-5.3-13.1-7.1c-1.1-0.5-2.3-0.8-3.5-1.2c-1.2-0.3-2.4-0.7-3.6-0.9c-2.4-0.5-4.9-0.9-7.3-1c-4.9-0.3-9.9,0.3-14.6,1.7
			c-1.2,0.5-2.4,0.5-3.6,0.9c-1.2,0.3-2.4,0.6-3.7,1C641.3,360.9,638.9,361.8,636.6,363z"/>
	</g>
	<g class="st7">
		<path d="M675.1,351.8c1.4-1.1,2.9-2,4.5-2.9c0.8-0.4,1.6-0.8,2.4-1.2c0.4-0.1,0.9-0.1,1.3-0.2l1.3-0.2c3.5-0.6,7-0.8,10.6-0.6
			c3.6,0.2,7.2,0.9,10.6,2.3c1.7,0.7,3.3,1.6,4.8,2.7c1.5,1.1,2.9,2.3,4.1,3.7c0.7,0.8,0.7,2.1-0.1,2.8c-0.4,0.3-0.8,0.5-1.2,0.5
			h-0.1c-1.5,0.1-3.1,0.2-4.7,0.4c-1.6,0.2-3.1,0.4-4.6,0.7c-0.4,0.1-0.8,0.1-1.1,0.2c-0.4,0.1-0.7,0.2-1.1,0.2
			c-0.8,0-1.6,0-2.4,0.1c-1.6,0.1-3.2,0.3-4.7,1c0.8-1.5,2.3-2.6,3.8-3.6c0.7-0.5,1.5-0.9,2.3-1.3c0.4-0.2,0.8-0.3,1.2-0.4
			s0.8-0.2,1.2-0.2c1.7-0.3,3.3-0.6,5-0.8c1.7-0.2,3.3-0.3,5-0.4l-1.4,3.3c-1-1.1-2.2-2.2-3.4-3.1c-1.3-0.9-2.6-1.6-4.1-2.2
			c-2.9-1.2-6-1.8-9.3-2c-3.2-0.2-6.5,0.1-9.7,0.6l-1.2,0.2c-0.4,0.1-0.8,0.2-1.2,0.3l-2.5,0C678.6,351.7,676.9,351.7,675.1,351.8z"
			/>
	</g>
	<g class="st7">
		<path d="M702.4,345.9c0.9-1,2-1.9,3.1-2.8c0.6-0.4,1.2-0.8,1.8-1.2c0.3-0.2,0.6-0.3,1-0.3c0.3,0,0.7-0.1,1-0.2
			c2.7-0.6,5.4-0.9,8.2-0.7c2.8,0.2,5.7,0.9,8.2,2.4c2.6,1.4,4.7,3.5,6.3,5.9c0.6,0.9,0.4,2.1-0.5,2.8c-0.4,0.3-0.9,0.4-1.4,0.3l0,0
			c-1.3-0.2-2.7-0.2-4.1-0.3c-1.4,0-2.8,0.1-4.1,0.2c-0.7,0.1-1.3,0.2-1.9,0.4c-0.3,0.1-0.6,0.1-1,0.1c-0.3,0-0.7,0-1,0
			c-1.3,0.1-2.7,0.3-4.1,1.1c0.5-1.5,1.7-2.9,3-3.9c0.3-0.2,0.7-0.5,1-0.7c0.4-0.2,0.7-0.5,1.1-0.5c0.8-0.1,1.6-0.3,2.4-0.4
			c1.6-0.2,3.1-0.3,4.7-0.3c1.6,0,3,0.1,4.7,0.3l-2,3.1c-1.3-1.9-2.9-3.5-4.9-4.6c-1.9-1.1-4.2-1.7-6.5-1.9
			c-2.3-0.1-4.7,0.1-7.1,0.6c-0.3,0.1-0.6,0.1-0.9,0.2c-0.3,0.1-0.6,0.2-0.9,0.2c-0.6,0-1.3,0-1.9,0
			C705.1,345.7,703.8,345.8,702.4,345.9z"/>
	</g>
	<g class="st7">
		<path d="M658.9,351.6c-1.2,0.2-2.2,0.4-3.2,0.5c-0.7-0.4-1.5-0.6-2.3-0.9c-1.6-0.5-3.2-0.9-4.9-1c-1.7-0.1-3.3-0.2-5,0
			c-0.8,0-1.7,0.2-2.5,0.4c-1-0.4-1.9-0.8-3-1.3c0.7-1,1.4-1.8,2.2-2.6c1-0.2,1.9-0.4,2.9-0.4c1.9-0.2,3.9-0.2,5.8,0
			c2,0.2,3.9,0.6,5.7,1.2c0.9,0.3,1.8,0.7,2.8,1C658,349.4,658.6,350.4,658.9,351.6z"/>
	</g>
	<g class="st7">
		<path d="M642.2,356c-2.1-1.1-4.3-1.8-6.4-2.3c-2.2-0.4-4.4-0.6-6.4-0.2c-1,0.1-2,0.5-3,0.6c-1,0.3-1.9,0.5-2.8,1.1
			c-0.9,0.4-1.7,1.1-2.6,1.7c-0.4,0.3-0.8,0.7-1.2,1l-1.1,1.1l-0.1,0.1c-0.6,0.6-1.4,0.7-2.2,0.4c-1.5-0.6-3.4-1.1-5.1-1.4
			c-1.7-0.3-3.5-0.4-5.1-0.2c-1.6,0.2-3.1,0.8-4.3,1.7s-2,2.2-2.5,3.7l-1.6-2.6c2.9,0.5,5.5,1.2,8.2,2.1c2.7,0.9,5.3,2,7.8,3.4
			c2.5,1.4,5,3.1,7,5.5c2,2.3,3.4,5.4,3.5,8.6c0,0.1,0,0.3,0,0.4l-3.3,21.9c-0.3,1.8-0.6,3.6-0.8,5.5c-0.4,1.8-1,3.6-1.4,5.4
			c-1,3.6-2,7.1-3.1,10.7c0-3.7,0.1-7.4,0.2-11.1c0.1-1.9,0.1-3.7,0.2-5.5c0.3-1.8,0.6-3.6,0.9-5.5l3.3-21.9l0,0.4
			c-0.1-2.2-1-4.4-2.6-6.2c-1.5-1.8-3.6-3.3-5.8-4.5s-4.7-2.2-7.2-3.1c-2.5-0.8-5.1-1.5-7.6-2l0,0c-1.1-0.2-1.8-1.2-1.6-2.3
			c0-0.1,0-0.2,0.1-0.3c0.7-2.1,1.9-4.1,3.8-5.6c1.8-1.5,4.1-2.2,6.2-2.5c2.2-0.3,4.3-0.1,6.3,0.2c2,0.4,3.9,0.8,6,1.6l-2.2,0.5
			l1.4-1.3c0.5-0.4,0.9-0.9,1.4-1.3c1-0.8,2-1.5,3.2-2.1c1.1-0.7,2.4-1,3.6-1.5c1.3-0.3,2.6-0.4,3.9-0.3c2.6,0.2,5,0.9,7.2,2
			C638.6,353,640.6,354.4,642.2,356z"/>
	</g>
	<g class="st7">
		<path d="M313.1,353.6c-1.6,0.2-3.2,0.5-4.2,1.2c-0.5,0-0.9,0.1-1.1,0.3c-0.3,0.2-0.5,0.4-0.7,0.8c-0.4,0.8-0.5,2.1-0.3,3.4
			c0.1,1.3,0.4,2.7,0.7,4c0.7,2.7,1.7,5.4,3.1,7.2c0.8,0.9,1.5,1.4,2.3,1.4c0.4,0.3,1,0.5,1.7,0.6c0.7,0.1,1.5,0,2.3-0.2
			c-0.6,1.6-1.9,3-4.1,3.6c-0.3,0.1-0.5,0-0.8-0.1c-0.3-0.1-0.5-0.1-0.8-0.2c-0.5-0.2-1-0.4-1.4-0.6c-0.4-0.3-0.8-0.6-1.2-0.9l-1-1
			c-1.1-1.4-1.9-2.9-2.5-4.4c-0.6-1.5-1-3-1.5-4.5c-0.4-1.5-0.7-3.1-0.8-4.7c-0.1-1.6-0.1-3.4,0.7-5.3c0.4-1,1.1-1.9,2.1-2.5
			s2.1-0.9,3-1C310.6,351.2,312,352.2,313.1,353.6z"/>
	</g>
	<g class="st7">
		<path d="M379.6,757.4c-2.6-1.8-5.5-3.2-8.4-4.6c-2.9-1.4-5.8-2.5-8.8-3.5c-6-1.9-12.2-3.2-18.4-3.5c-1.5-0.2-3.1-0.2-4.6-0.3
			l-1.2-0.1l-1.2,0l-2.3,0c-3.1,0-6,0.5-8.9,1.3c-5.8,1.7-11,5-15.5,9.2c-4.4,4.2-8,9.3-10.8,14.8c-1.4,2.8-2.5,5.6-3.4,8.5
			c-0.4,1.5-0.8,2.9-1,4.4c-0.1,0.7-0.2,1.5-0.2,2.1c0,0.4,0,0.7,0,1l0,0.1v0.1c0,0,0,0,0,0c0,0,0-0.1,0-0.1c-0.1-0.1,0-0.1,0-0.1
			c0,0.1,0.7,0.5,1.2,0.7c0.6,0.2,1.3,0.4,2,0.6c1.4,0.3,3,0.5,4.5,0.7c3.1,0.3,6.2,0.5,9.4,0.6c6.3,0.2,12.7,0.1,19-0.1
			c12.7-0.4,25.4-1.2,38.1-2.1c12.7-1,25.4-2.2,38-3.6c6.3-0.7,12.6-1.5,18.8-2.5c3.2-0.4,4.8-1.4,6.8-3.9c0.9-1.1,1.8-2.3,2.4-3.6
			c0.7-1.3,1.2-2.6,1.6-4c0.9-2.7,0.8-5.6,0-8.4c-0.3-0.7-0.5-1.4-0.8-2.1l-0.9-2.2l-1.9-4.4c-1.3-2.9-2.6-5.8-4-8.6
			c-1.4-2.9-2.8-5.7-4.3-8.5c3.7,5.2,7.1,10.7,10.3,16.2c0.8,1.4,1.6,2.8,2.4,4.2l1.1,2.1c0.4,0.7,0.7,1.5,1.1,2.3
			c1.3,3.2,1.7,6.9,1,10.4c-0.4,1.7-1.1,3.4-1.9,4.9c-0.9,1.5-1.8,3-2.9,4.3c-0.6,0.7-1.1,1.3-1.7,1.9c-0.7,0.7-1.5,1.3-2.3,1.8
			c-0.8,0.5-1.7,0.9-2.7,1.1c-0.2,0.1-0.5,0.1-0.7,0.2l-0.6,0.1l-1.2,0.2c-6.4,1.1-12.7,1.8-19.1,2.6c-12.7,1.4-25.4,2.6-38.2,3.6
			c-12.7,1-25.5,1.8-38.3,2.1c-6.4,0.2-12.8,0.3-19.2,0.1c-3.2-0.1-6.5-0.3-9.7-0.6c-1.6-0.2-3.3-0.4-4.9-0.8
			c-0.8-0.2-1.7-0.4-2.6-0.7c-0.4-0.2-0.9-0.4-1.4-0.6c-0.2-0.2-0.5-0.3-0.7-0.5c-0.3-0.2-0.5-0.4-0.8-0.7c-0.2-0.3-0.5-0.6-0.7-1.1
			c-0.1-0.2-0.1-0.5-0.2-0.7l0-0.2l0-0.1l0-0.2c0-0.5-0.1-0.9,0-1.4c0-0.9,0.1-1.8,0.2-2.6c0.2-1.7,0.6-3.3,1.1-5
			c0.9-3.2,2.2-6.3,3.6-9.2c3-5.9,6.8-11.3,11.6-15.9c4.8-4.6,10.6-8.3,17.1-10.2c3.2-1,6.6-1.5,9.9-1.5c3.3-0.1,6.6-0.1,9.8,0.3
			c6.5,1,12.8,2.9,18.7,5.5C369.1,749.9,374.7,753.2,379.6,757.4z"/>
	</g>
	<g class="st7">
		<path d="M565.7,722.2c4.9-2.9,10-5.5,15.3-7.7c2.6-1.1,5.3-2.2,8-3.1c2.7-0.9,5.5-1.7,8.3-2.4c2.8-0.6,5.7-1.2,8.6-1.5
			c0.7-0.1,1.5-0.1,2.2-0.1c0.7,0,1.5,0,2.2,0l2.2,0.1l2.2,0.2c3,0.3,5.9,0.9,8.8,2c2.8,1,5.6,2.5,8,4.4l0.9,0.7l0.8,0.8
			c0.5,0.5,1.1,1,1.7,1.6c1,1.2,2,2.3,2.8,3.6c0.4,0.6,0.9,1.3,1.2,1.9l1.1,2c0.4,0.6,0.7,1.3,1,2s0.6,1.4,0.9,2.1
			c1.1,2.8,1.8,5.9,1.9,9c0.1,3.1-0.5,6.3-1.6,9.2c-1.2,2.9-3,5.5-5,7.7c-2,2.2-4.4,4.2-6.8,5.8c-2.5,1.7-5,3.1-7.7,4.3
			c-2.7,1.2-5.3,2.3-8.3,3.2c-0.1,0-0.2,0-0.2,0h0c-16.9,2.2-33.8,4.2-50.7,6.1c-16.9,1.8-33.9,3.5-50.9,4.7c-8.5,0.6-17,1-25.6,1.2
			c-4.3,0-8.6,0-12.9-0.3c-1.1-0.1-2.2-0.2-3.3-0.4l-1.7-0.3l-0.8-0.2l-0.8-0.2c-2.2-0.5-4.5-1.5-6.5-3.1c-0.5-0.4-0.9-0.9-1.4-1.3
			c-0.4-0.5-0.8-1-1.2-1.6c-0.3-0.6-0.6-1.2-0.9-1.8c-0.2-0.6-0.4-1.2-0.5-1.8c-0.5-2.5-0.1-4.9,0.4-7.1c1-4.4,2.8-8.4,4.7-12.2
			c1.9-3.9,3.9-7.6,5.6-11.4c0.9-1.9,1.8-3.8,2.5-5.8c0.7-2,1.2-4,1.3-6.2c0.2,2.1-0.2,4.3-0.7,6.4c-0.5,2.1-1.2,4.1-1.9,6.2
			c-1.4,4-3.1,8-4.5,11.9c-1.5,3.9-2.8,7.9-3.4,11.9c-0.3,2-0.3,3.9,0.1,5.6c0.3,1.7,1.1,3.2,2.4,4.2c1.3,1.1,3,1.8,4.9,2.3l0.7,0.2
			l0.7,0.1l1.5,0.2c1,0.1,2,0.2,3,0.3c4.1,0.3,8.4,0.3,12.6,0.3c8.4-0.1,16.9-0.6,25.4-1.2c16.9-1.2,33.8-2.9,50.7-4.7
			c16.9-1.8,33.8-3.9,50.6-6.1l-0.3,0c2.5-0.8,5.2-1.8,7.6-3c2.5-1.2,4.9-2.5,7.2-4c4.5-3,8.4-7,10.4-11.8c1-2.4,1.4-4.9,1.3-7.5
			c-0.1-2.6-0.7-5.2-1.6-7.7c-0.2-0.6-0.5-1.2-0.8-1.8c-0.3-0.6-0.5-1.2-0.9-1.8l-1-1.8c-0.3-0.6-0.7-1.1-1.1-1.7
			c-0.7-1.2-1.6-2.1-2.5-3.1c-0.5-0.5-1-0.9-1.4-1.4l-0.7-0.7l-0.8-0.6c-2-1.7-4.4-2.9-6.9-3.8c-2.5-1-5.2-1.5-7.8-1.8
			c-2.7-0.4-5.4-0.2-8.2-0.1c-2.8,0.1-5.5,0.3-8.3,0.7C587,714,576.1,717.6,565.7,722.2z"/>
	</g>
	<g class="st7">
		<path d="M294.9,794.6l0.3,9.5l0.3,9.5l-1.2-1.2l10.1-0.3l5.1-0.1c1.7,0,3.4,0.1,5.1,0.1l-2.1,1.9l0.4-10.3c0-1.1,0.9-1.9,2-1.9
			l13,0.1c1.1,0,1.9,0.9,2,1.9l0.4,10.5l-2.1-1.9l18-1.1l-1.9,1.8l0.7-8.4c0.1-1,0.9-1.8,1.9-1.8l18.1-0.5c1.1,0,2,0.8,2,1.9
			l0.2,8.4l-2-1.9l15.8-0.4l-2,2.2l-0.7-9.2c-0.1-1.1,0.7-2.1,1.8-2.2c0,0,0.1,0,0.1,0l16.9-0.6c1.1,0,2,0.8,2.1,1.9
			c0,0.1,0,0.2,0,0.3l-1,9.6l-2.1-2.2l19.6-0.9l-1.9,2.1l-0.6-9.3c-0.1-1.1,0.8-2.1,1.9-2.1c0,0,0,0,0,0l11.9-0.6
			c1.1-0.1,2,0.8,2.1,1.9v0l0.4,10.2l-2-1.9c2.5-0.1,5-0.1,7.6-0.2c1.3-0.1,2.5-0.1,3.8,0l3.8,0.1l-1.7,2.1l-2.1-15
			c-0.7-5-1.4-10-2-15c1.3,4.9,2.6,9.7,3.9,14.6l3.8,14.6c0.2,0.9-0.3,1.8-1.2,2.1c-0.1,0-0.2,0-0.3,0l-0.2,0l-3.8,0.3
			c-1.3,0.1-2.5,0.1-3.8,0.1c-2.5,0-5,0.1-7.6,0.2h0c-1.1,0-2-0.8-2-1.9l-0.4-10.2l2.1,1.9l-11.9,0.6l1.9-2.1l0.6,9.3
			c0.1,1.1-0.8,2.1-1.9,2.1c0,0,0,0,0,0l-19.6,0.9c-1.1,0-2-0.8-2.1-1.9c0-0.1,0-0.2,0-0.3l1-9.6l2.1,2.2l-16.9,0.6l1.9-2.2l0.7,9.2
			c0.1,1.1-0.7,2.1-1.8,2.2c0,0-0.1,0-0.1,0l-15.8,0.4c-1.1,0-2-0.8-2-1.9l-0.2-8.4l2,1.9l-18.1,0.5l1.9-1.8l-0.7,8.4
			c-0.1,1-0.9,1.8-1.9,1.8l-18,1.1c-1.1,0.1-2-0.8-2.1-1.9c0,0,0,0,0,0l-0.4-10.5l2,1.9l-13-0.1l2-1.9l-0.4,10.3c0,1.1-1,2-2,1.9h0
			c-1.7,0-3.4,0-5.1-0.1l-5-0.4l-10.1-0.8l-0.1,0c-0.6,0-1.1-0.6-1-1.2v0l0.9-9.5L294.9,794.6z"/>
	</g>
	<g class="st7">
		<path d="M467.1,784.9l0.1,12.5l0,12.5l-1.3-1.3l13.7-1c2.3-0.2,4.5-0.3,6.8-0.4c2.3-0.1,4.6-0.1,6.8-0.2l-1.9,2l-0.2-15.8
			c0-1.1,0.9-2,2-2c0,0,0.1,0,0.1,0l14.4,0.5c1.1,0,1.9,0.9,1.9,2l0.2,14.4l-2-2l21.9-0.3l-2,1.9l0.8-13.4c0.1-1,0.9-1.8,2-1.9
			l17.8-0.3c1.1,0,2,0.9,2,2l0.2,12.7l-2-2l23.2-0.6l-1.9,1.8l1.7-14.1c0.1-1,1.1-1.8,2.1-1.8l13.6,0.7c1,0,1.8,0.8,1.9,1.8
			l1.3,14.1l-2.1-1.8l25-1.5l-1.9,2l-0.2-12.1c0-1.1,0.9-2,2-2c0,0,0.1,0,0.1,0l10.5,0.3c1,0,1.9,0.9,1.9,1.9l0.6,11.2l-2-1.9
			l8.7-0.1l4.3-0.1c1.4,0,2.9,0,4.3,0l-2,2.2l-1.9-21.5c-0.6-7.2-1.2-14.3-1.8-21.5c1.3,7.1,2.6,14.1,3.9,21.2l3.8,21.2
			c0.2,1-0.5,2-1.5,2.2c-0.1,0-0.2,0-0.2,0l-0.2,0c-1.4,0.1-2.9,0.1-4.3,0.1l-4.3,0l-8.7,0.1c-1.1,0-2-0.8-2-1.9l-0.6-11.2l1.9,1.9
			l-10.5-0.3l2.1-2l0.2,12.1c0,1.1-0.8,2-1.9,2l-25,1.5c-1.1,0.1-2-0.7-2.1-1.8l-1.3-14.1l1.9,1.8l-13.6-0.7l2.1-1.8l-1.7,14.1
			c-0.1,1-1,1.7-1.9,1.8l-23.2,0.6c-1.1,0-2-0.8-2-2v0l-0.2-12.7l2,2l-17.8,0.3l2-1.9l-0.8,13.4c-0.1,1-0.9,1.9-2,1.9l-21.9,0.3
			c-1.1,0-2-0.9-2-2v0l-0.2-14.4l1.9,2l-14.4-0.5l2.1-2l0.2,15.8v0c0,1.1-0.9,2-1.9,2c-2.3,0-4.6,0.2-6.8,0.2c-2.3,0.1-4.6,0-6.8,0
			l-13.7-0.2h-0.1c-0.7,0-1.2-0.5-1.2-1.2v-0.1l1.1-12.5L467.1,784.9z"/>
	</g>
	<g class="st7">
		<path d="M500.8,544.7c-3.9,2.9-8.1,5.4-12.5,7.7c-4.4,2.2-8.9,4.4-13.8,5.4c-4.8,1.2-9.7,2.1-14.7,2.5c-2.5,0.2-5,0.2-7.5,0
			c-2.5-0.1-5-0.5-7.5-1l2.4-2.4c1.2,4.9,2.9,9.8,4.9,14.5c2,4.7,4.4,9.2,7.4,13.3c2.9,4.1,6.5,7.7,10.7,10.1
			c2.1,1.2,4.4,2.1,6.7,2.5c2.3,0.5,4.8,0.5,7.1,0.2c2.3-0.3,4.5-1.2,6.3-2.6c1.9-1.3,3.4-3.2,4.6-5.2c2.5-4.2,3.7-9.1,4.5-14.1
			c0.2-1.2,0.3-2.5,0.5-3.8c0.1-1.3,0.1-2.5,0.3-3.8c0.3-2.5,0.6-5.1,0.7-7.7C501,555.2,501.1,550,500.8,544.7z M500.8,544.7
			c1.3,5.1,2.2,10.3,2.7,15.6c0.3,2.6,0.5,5.3,0.5,8c0,1.3-0.2,2.7-0.3,4c-0.1,1.3-0.3,2.7-0.5,4c-0.8,5.3-2.1,10.7-5,15.6
			c-1.4,2.4-3.3,4.7-5.7,6.4c-2.4,1.7-5.2,2.9-8.1,3.3c-2.9,0.4-5.7,0.3-8.5-0.2c-2.8-0.6-5.5-1.6-7.9-3c-4.9-2.8-8.8-6.9-11.9-11.3
			c-3.2-4.4-5.7-9.2-7.8-14.1c-2.1-4.9-3.8-9.9-5.2-15.2c-0.3-1.1,0.4-2.1,1.4-2.4c0.3-0.1,0.6-0.1,0.8,0l0.1,0
			c2.3,0.4,4.6,0.8,6.9,0.9c2.3,0.1,4.7,0.1,7,0c4.7-0.3,9.4-1.1,14-2.3c4.5-1.5,9.2-2.4,13.8-4
			C491.9,548.5,496.4,546.8,500.8,544.7z"/>
	</g>
	<g class="st7">
		<path d="M399,624.5c-0.3,2-0.9,4-1.6,5.8c-1.2,1.5-2.4,3-3.7,4.5c-2.6,2.9-5.4,5.6-8.5,8c-3.1,2.4-6.6,4.4-10.4,5.7
			c-1.9,0.6-3.9,1.1-6,1.3c-2.1-0.4-4.1-1.1-5.8-2.2c2-0.5,3.8-1,5.5-1.8c1.7-0.2,3.4-0.5,5-1.1c3.3-1.1,6.4-2.9,9.3-5.1
			c2.9-2.2,5.5-4.7,8-7.4c1.2-1.4,2.4-2.8,3.5-4.2C395.8,626.8,397.3,625.6,399,624.5z"/>
	</g>
	<g class="st7">
		<path d="M528.8,595.7c1.1,0,2,0.2,2.9,0.2c0.5,0.5,1,1,1.5,1.5c1,1,2.1,1.8,3.2,2.6c1.1,0.8,2.2,1.5,3.4,1.9
			c0.3,0.1,0.6,0.2,0.9,0.3c0.3,0.1,0.6,0.2,0.9,0.2c0.2,0.3,0.5,0.7,0.8,1c0.3,0.3,0.6,0.7,1,1.1c-0.3,0.4-0.7,0.8-1.2,1.1
			c-0.4,0.3-0.9,0.5-1.4,0.8c-0.5,0-0.9-0.2-1.3-0.3c-0.4-0.1-0.8-0.2-1.2-0.4c-1.6-0.6-3-1.5-4.2-2.4c-1.3-0.9-2.5-1.9-3.6-3
			c-0.6-0.5-1.1-1.1-1.7-1.6C528.7,597.7,528.6,596.8,528.8,595.7z"/>
	</g>
</g>
<g id="Static_Outlines">
	<g>
		<path d="M180.2,338.4c0.6,2.3,1.5,4.5,2.7,6.5c1.2,2,2.6,3.9,4.3,5.6c3.3,3.3,7.3,6,11.9,7.3c4.5,1.4,9.2,1.4,13.7,0.6
			c4.5-0.9,8.7-2.5,12.7-4.5c8-4.1,14.9-9.7,21.4-15.6c-6.9,5.5-14.2,10.5-22.1,14.1c-4,1.7-8.1,3-12.4,3.6
			c-4.2,0.5-8.5,0.2-12.4-1.2c-3.9-1.4-7.3-3.9-10.1-7c-2.7-3.1-4.7-6.8-5.8-10.7c-0.6-2-0.9-4-1-6.1c-0.1-2.1-0.1-4.3,0-6.4
			c0.2-4.3,0.8-8.5,1.7-12.7c1.9-8.4,5.2-16.4,9.5-23.9c4.3-7.5,9.6-14.4,15.4-20.9c11.7-12.9,25.4-23.9,39.9-33.7
			c14.5-9.8,29.9-18.4,45.6-26.2c15.7-7.8,31.8-14.9,48.1-21.5l6.1-2.5c2-0.8,4.1-1.6,6.1-2.3c4.1-1.6,8.2-2.9,12.4-4.4
			c8.3-2.7,16.8-5.1,25.3-7c8.5-1.9,17.1-3.5,25.8-4.6c4.3-0.5,8.7-1,13-1.2c4.3-0.3,8.8-0.5,13-0.4h0h0.1c11.9-0.4,23.8,1.1,35,5
			c5.6,1.9,10.9,4.5,15.9,7.7c1.2,0.8,2.5,1.6,3.6,2.5c0.6,0.4,1.2,0.9,1.6,1.3c0.5,0.4,0.9,0.9,1.2,1.4c0.7,1,1.2,2.2,1.4,3.4
			c0.1,0.6,0.2,1.2,0.2,1.8c0,0.6-0.1,1.1-0.2,1.9c-0.5,2.8-1.3,5.6-2.4,8.2c-1.2,2.6-2.7,5.1-4.4,7.4c-3.6,4.6-8.3,8.3-13.5,11.2
			c-5.2,2.9-10.8,5.1-16.6,6.8c-5.8,1.7-11.7,2.9-17.8,3.4c6.1-0.2,12.1-1,18-2.3c5.9-1.4,11.8-3.3,17.3-6
			c5.5-2.7,10.7-6.4,14.9-11.1c2-2.4,3.9-5,5.3-7.9c0.4-0.7,0.7-1.4,1-2.2c0.2-0.4,0.3-0.7,0.5-1.1l0.4-1.1c0.2-0.8,0.5-1.5,0.7-2.3
			l0.5-2.3c0.2-0.7,0.3-1.7,0.3-2.6c0-0.9-0.1-1.8-0.2-2.7c-0.4-1.8-1.1-3.4-2.2-4.9c-0.5-0.7-1.1-1.4-1.8-2
			c-0.7-0.6-1.3-1.1-1.9-1.5c-1.2-0.9-2.5-1.8-3.9-2.7c-5.2-3.4-10.9-6.1-16.7-8.1c-11.7-4.1-24.2-5.6-36.4-5.3
			c-4.5-0.1-8.9,0.1-13.3,0.4c-4.4,0.3-8.9,0.7-13.3,1.3c-8.8,1.1-17.6,2.7-26.2,4.6c-8.7,1.9-17.2,4.4-25.7,7.1
			c-4.2,1.4-8.4,2.8-12.6,4.4c-2.1,0.8-4.2,1.6-6.2,2.4l-6.1,2.5c-16.4,6.6-32.6,13.7-48.4,21.6c-15.8,7.9-31.3,16.6-46,26.5
			c-14.7,9.9-28.7,21.1-40.7,34.3c-6,6.6-11.4,13.8-15.9,21.6c-4.5,7.8-7.9,16.2-9.9,25c-1,4.4-1.6,8.9-1.8,13.4
			c-0.1,2.3-0.1,4.5,0,6.8C179.2,333.8,179.6,336.2,180.2,338.4z"/>
		<path d="M459.2,196.5c-5.9,0.2-11.7,0.6-17.6,1.3c-5.9,0.6-11.7,1.4-17.5,2.4c-11.5,2.5-22.9,5.4-34.2,8.7
			c-11.3,3.4-22.4,7.2-33.4,11.5c-11,4.3-21.8,9-32.3,14.2c-21.1,10.5-41.2,22.8-59.8,37.3l-3.5,2.7c-1.1,0.9-2.3,1.9-3.4,2.8
			l-6.8,5.7l-6.5,6l-3.3,3c-1.1,1-2.1,2-3.1,3.1c-2,2.2-4,4.4-5.9,6.6l-5.6,6.8c-0.9,1.1-1.9,2.3-2.8,3.4l-2.6,3.5l-5.2,7.1l6.1-6.4
			l3-3.2c1-1,2.1-2,3.1-3.1l6.3-6.1c2.1-2,4.3-3.9,6.5-5.8c1.1-1,2.1-2,3.1-3.1c1-1,2.1-2,3.2-3l6.4-5.9l6.7-5.6
			c1.1-0.9,2.2-1.9,3.4-2.8l3.5-2.7c18.3-14.3,38.3-26.6,59.1-36.9c10.4-5.2,21.1-9.9,32-14.1c10.9-4.2,21.9-8,33-11.4
			c11.2-3.3,22.5-6.2,33.9-8.6c5.6-1.5,11.3-2.9,17-4.2c2.9-0.6,5.7-1.3,8.6-1.8C453.4,197.5,456.3,196.9,459.2,196.5z"/>
		<path d="M185.6,212.5c0.2,2.1,0.5,4.1,0.9,6.2c1.7,8.2,4,16.1,6.6,24l3.9,11.7c0.6,1.9,1.3,3.9,1.8,5.9c0.3,1,0.5,2,0.7,3
			c0.1,1,0.3,2.1,0,3c0.4-1,0.4-2,0.3-3.1c-0.1-1-0.2-2.1-0.4-3.1c-0.4-2-0.8-4.1-1.3-6.1l-3-12c-1.9-8-3.6-16-4.7-24.1
			c-0.5-4-1.2-8-1.4-12.1c-0.3-4-0.3-8.1-0.1-12.1c0.2-4,0.8-8,1.8-11.9c0.9-3.9,2.3-7.6,3.9-11.3c3.3-7.4,7.3-14.5,12-21.1
			c4.7-6.6,10-12.7,15.9-18.4c10.7-10.4,23.1-19.1,36.3-26.3c2.9,1.6,5.5,3.3,8,5.3c3.3,1.9,6.4,4.1,9.3,6.5
			c5.8,4.9,10.7,10.9,14.9,17.3c4.2,6.4,7.7,13.3,10.7,20.4c1.5,3.6,2.9,7.2,4,10.9c1.8,3.5,3.5,7,5.1,10.6c-0.1-4-0.6-8-1.3-11.9
			c-1.3-3.8-2.6-7.5-4.2-11.1c-3.1-7.3-6.7-14.4-11-21.1c-4.4-6.7-9.5-12.9-15.6-18.2c-3.1-2.6-6.4-4.9-9.9-6.9
			c-2.9-1.1-5.9-1.9-8.9-2.4c0.7-0.4,1.5-0.8,2.2-1.2c7.2-3.5,15-5.9,22.9-7.6c6.4-1.3,13-2.2,19.6-2.6c2.1,1.1,4,2.4,5.9,3.8
			c3.3,1.9,6.4,4.3,9.4,6.9c5.9,5.2,11.1,11.2,15.9,17.5c4.8,6.3,9.3,12.9,13.5,19.7c2.1,3.4,4.1,6.8,6.1,10.3
			c2.5,3.2,4.9,6.4,7.5,9.6c-1.1-4-2.5-7.8-4-11.6c-2-3.5-4.1-7-6.2-10.4c-4.3-6.9-8.8-13.6-13.8-20c-5-6.4-10.3-12.6-16.5-18.1
			c-3.1-2.7-6.4-5.3-10-7.3c-0.5-0.2-0.9-0.4-1.4-0.5c7.5,0,15,0.6,22.2,2.3c3.9,0.9,7.7,2.2,11.1,4c1.8,0.9,3.6,1.9,5.4,2.9
			l5.3,3.1c14.1,8.3,28.1,17,42.1,25.7l42.8,24.7c-13.4-9.6-27-18.9-40.6-28.1c-14-8.7-27.9-17.4-42.2-25.8l-5.4-3.1
			c-1.8-1-3.6-2-5.5-3c-3.9-1.9-7.9-3.3-12-4.3c-8.2-1.9-16.7-2.5-25-2.4c-8.4,0.2-16.7,1.1-24.9,2.8c-8.2,1.7-16.2,4.2-23.9,7.9
			c-7.4,3.9-14.5,8.2-21.3,12.9c-6.8,4.8-13.3,10.1-19.3,15.9c-6,5.8-11.5,12.1-16.3,18.9c-4.9,6.8-9,14.1-12.4,21.8l-1.2,2.9
			c-0.4,1-0.8,2-1.1,3c-0.7,2-1.3,4.1-1.8,6.1c-1,4.1-1.6,8.3-1.9,12.5c-0.3,4.2-0.2,8.4,0.1,12.6
			C185.1,208.4,185.4,210.4,185.6,212.5z"/>
		<path d="M380.7,464.3c2.2,1,4.3,2.1,6.4,3.2c1,0.6,2.1,1.1,3,1.8c0.5,0.3,0.9,0.6,1.3,0.9c0.4,0.3,0.8,0.7,0.8,0.8
			c0.1,0.2,0.2,0.4,0.4,0.5c0.7,0.7,1.9,0.7,2.6,0l0.2-0.2l35.3-36l17.6-18l8.8-9l4.4-4.5c1.5-1.5,2.9-3.1,4.3-4.8
			c5.6-6.6,10.1-13.9,14-21.5c3.8-7.6,6.8-15.7,8.7-24.1c1-4.1,1.6-8.7,1-13.2c-0.3-2.3-1.1-4.5-2.2-6.6c-1.2-2-2.8-3.8-4.5-5.3
			c-3.6-2.9-8-4.4-12.2-5.2c-2.1-0.4-4.3-0.6-6.5-0.7c-1.9-0.1-3.7,0-5.6,0.1l-5.7-17l-6-17.9l4.9,18.2l5,18.2
			c0.1,0.5,0.6,0.8,1.1,0.8h0.1c4-0.1,8.2,0.2,12.1,1.2c3.9,1,7.7,2.6,10.5,5.1c2.8,2.5,4.5,6,5.1,9.7c0.3,1.9,0.4,3.8,0.2,5.8
			c0,1-0.2,2-0.4,3c-0.1,1-0.4,2-0.6,3c-1.8,8-4.7,15.8-8.4,23.2c-3.7,7.4-8.1,14.5-13.4,20.7c-1.4,1.6-2.7,3.1-4.2,4.6l-4.4,4.5
			l-8.8,9l-17.6,18L394,467c0,0,0,0,0,0c-0.5-0.4-1.1-0.8-1.6-1.1c-1.1-0.7-2.2-1.3-3.3-1.9c-2.2-1.2-4.4-2.3-6.6-3.3
			c-4.4-2.1-8.9-4-13.4-5.9c-9-3.8-18-7.4-27.1-10.9c-18.1-7-36.4-13.8-54.6-20.6l-13.6-5.1c-2.3-0.9-4.5-1.7-6.6-2.7
			c-2.1-1-4.2-2.1-6.1-3.4c-3.9-2.5-7.6-5.6-10.7-9c-3.1-3.5-5.9-7.3-7.8-11.5c-0.9-2.1-1.7-4.2-2-6.4c-0.3-2.2-0.2-4.3,0.4-6.3
			c0.6-2,1.8-3.8,3.2-5.5c1.5-1.7,3.2-3.2,5.1-4.3c1.9-1.1,3.9-1.9,6.1-2.2c2.1-0.3,4.3-0.1,6.4,0.4c2.1,0.5,4.2,1.5,6.2,2.6
			c1,0.6,1.9,1.2,2.8,1.9c0.9,0.7,1.8,1.5,2.5,2.2c0.6,0.6,1.5,0.8,2.3,0.4c1-0.5,1.5-1.7,1-2.7v0c-2.7-5.6-5.7-11.1-8.6-16.6
			l-8.8-16.6l-8.8-16.6l-8.9-16.5l7.8,17.1l7.8,17l7.8,17c1.5,3.2,2.9,6.4,4.4,9.5c-2-1.1-4.2-2.1-6.5-2.7c-2.6-0.7-5.3-0.9-8-0.5
			c-2.7,0.4-5.3,1.4-7.6,2.7c-2.3,1.4-4.3,3.1-6,5c-1.8,2-3.3,4.3-4.1,7c-0.8,2.6-1,5.5-0.6,8.1c0.4,2.6,1.2,5.1,2.3,7.5
			c2.2,4.7,5.1,8.8,8.5,12.5c3.4,3.7,7.3,7,11.5,9.7c2.1,1.4,4.3,2.6,6.6,3.7c2.2,1.1,4.6,2,6.9,2.9l13.7,5.1
			c18.2,6.8,36.4,13.5,54.5,20.5c9,3.5,18.1,7.1,27,10.8C371.9,460.3,376.3,462.2,380.7,464.3z"/>
		<path d="M459.7,275.2c-1-3.9-2.4-7.6-3.9-11.4c-2.1-3.4-4.2-6.8-6.5-10s-4.8-6.4-7.6-9.4c-1.4-1.5-2.9-2.9-4.6-4.2
			c-1.7-1.3-3.5-2.5-5.7-3.2c-2.1-0.8-4.8-0.9-7.2,0.1c-1.2,0.5-2.1,1.2-3,2c-0.8,0.8-1.6,1.7-2.2,2.6c-2.5,3.6-3.7,7.6-4.7,11.5
			c-1,3.9-1.7,7.9-2.2,11.8c0.1,4,0.4,8,0.9,12c1.1-3.9,2-7.7,3.1-11.5c0.5-3.8,1.1-7.6,2.1-11.3c0.9-3.7,2.2-7.3,4.1-10.2
			c0.5-0.7,1-1.3,1.6-1.9c0.6-0.5,1.2-1,1.9-1.2c1.3-0.6,2.8-0.5,4.4,0c1.5,0.5,3.1,1.5,4.5,2.6c1.5,1.1,2.8,2.4,4.1,3.8
			c2.6,2.7,5,5.8,7.2,8.9c2.2,3.2,4.3,6.4,6.3,9.8C454.8,269,457.2,272.1,459.7,275.2z"/>
		<path d="M349.7,263.9c0.9,0.1,1.9,0.3,2.8,0.6c1.9,0.6,3.6,1.7,5.3,2.9c3.4,2.5,6.4,5.7,9.2,9c2.8,3.4,5.4,7,7.7,10.7
			c2.9,3.4,5.7,6.9,8.5,10.5c-1.4-4.4-3.1-8.5-5.1-12.6c-2.5-3.8-5.1-7.5-8-11c-2.9-3.5-6.1-6.9-9.9-9.7c-1.9-1.4-4-2.7-6.4-3.5
			c-1.2-0.4-2.5-0.7-3.8-0.8c-1.3-0.1-2.7,0-4,0.3c-2.6,0.6-4.9,2.2-6.6,4c-1.8,1.8-3.1,3.8-4.2,5.9c-2.2,4.2-3.7,8.6-4.9,13
			c-1.2,4.4-2.1,8.9-2.8,13.3c-0.1,4.6-0.1,9.1,0.2,13.6c1.3-4.4,2.4-8.7,3.7-13c0.7-4.4,1.6-8.7,2.7-12.9c1.1-4.2,2.6-8.4,4.5-12.1
			c1-1.9,2.1-3.6,3.5-5c1.4-1.4,3-2.4,4.7-2.9C347.9,263.9,348.8,263.9,349.7,263.9z"/>
		<path d="M415.6,382.3c5.3,0,10.7-0.7,15.8-2.6c5.1-1.8,9.8-4.9,13.4-9.1c1.8-2.1,3.3-4.4,4.5-6.8c0.6-1.2,1.1-2.5,1.6-3.8
			c0.2-0.6,0.4-1.3,0.6-2c0.2-0.7,0.3-1.3,0.5-2.1c0.1-0.5,0-1.1-0.4-1.5c-0.7-0.9-1.9-1-2.8-0.4l0,0c-2.5,1.9-5.6,2.9-8.9,3.3
			c-3.3,0.4-6.7,0.2-10.1-0.2c-3.4-0.5-6.8-1.3-10.1-2.2c-1.1-0.3-2.3-0.7-3.4-1.1c0.1,0,0.3-0.1,0.4-0.1c1.2-0.4,2.4-0.9,3.5-1.4
			c1.1-0.6,2.3-1.2,3.3-2c1.1-0.7,2-1.6,3-2.5c0.9-0.9,1.8-1.9,2.5-2.9c1.5-2.1,2.8-4.3,3.6-6.7c0.9-2.4,1.5-4.8,1.8-7.3
			c0.3-2.5,0.4-5,0.3-7.5c-0.3-5-1.4-9.9-3.6-14.4c-1.1-2.3-2.5-4.5-4.4-6.3c-0.5-0.5-1-0.9-1.5-1.3c-0.5-0.4-1.1-0.8-1.7-1.1
			l-0.9-0.4l-0.9-0.4c-0.5-0.2-1-0.4-1.4-0.7c-3.7-2-6.6-5.7-9-9.7c-2.4-4-4.2-8.3-5.8-12.7c-1.5-4.4-2.9-9-3.9-13.6
			c0.5,4.7,1.4,9.4,2.6,14c1.2,4.6,2.7,9.1,4.8,13.5c1.1,2.2,2.3,4.3,3.8,6.3c1.5,2,3.3,3.8,5.5,5.2c0.5,0.4,1.1,0.7,1.7,1
			c0.3,0.2,0.5,0.3,0.7,0.4l0.6,0.4c0.4,0.3,0.8,0.6,1.2,0.9c0.4,0.4,0.8,0.7,1.1,1.1c1.4,1.5,2.6,3.3,3.6,5.3c1,2,1.7,4.1,2.2,6.2
			c0.5,2.2,0.9,4.4,1,6.6c0.1,2.2,0,4.5-0.2,6.7c-0.3,2.2-0.8,4.4-1.6,6.4c-0.8,2.1-1.8,4-3.1,5.7c-0.6,0.9-1.4,1.7-2.1,2.5
			c-0.8,0.7-1.6,1.5-2.5,2c-0.8,0.7-1.8,1.1-2.8,1.7c-1,0.4-2,0.9-3,1.2c-2,0.7-4.3,1.1-6.5,1.3l-0.1,0c-0.7,0.1-1.3,0.5-1.6,1.2
			c-0.4,1,0,2.2,1,2.6c3.4,1.5,6.8,2.7,10.3,3.7c3.5,1,7,1.8,10.7,2.4c3.6,0.5,7.4,0.7,11.1,0.3c2.1-0.2,4.3-0.8,6.3-1.6
			c-0.3,0.8-0.6,1.5-1,2.3c-1.1,2.1-2.4,4.2-4,6c-3.1,3.6-7.2,6.3-11.8,8c-4.5,1.7-9.5,2.3-14.4,2.3c-5,0-9.9-0.6-14.9-1.6
			c-2.5-0.5-4.9-1.1-7.3-1.8c-2.3-0.6-4.5-1.6-6.7-2.8c-1.1-0.6-2.1-1.2-3.1-1.9c-0.5-0.4-1-0.7-1.5-1.1l-1.5-1.2
			c-2.1-1.7-4.3-3.2-6.7-4.5c-2.4-1.2-5-2.3-7.9-2.7c-2.8-0.5-5.8-0.2-8.6,0.8c-2.8,1.1-5.2,3-6.9,5.2c-1.8,2.3-3,4.9-3.7,7.6
			c-1.4,5.4-1.1,11.1,0.6,16.3c1.7,5.2,4.6,10,8.4,13.8c3.8,3.9,8.4,6.8,13.3,9c2.5,1.1,5,1.9,7.5,2.6c1.3,0.3,2.6,0.6,3.9,0.9
			l1,0.2c0.1,0,0.1,0,0.3,0l0.3,0l0.5,0c0.7,0,1.3,0.1,2,0.1c2.6,0.1,5.3,0,7.9-0.1c2.6-0.2,5.2-0.6,7.8-1.2
			c2.6-0.6,5.1-1.4,7.6-2.3c1.2-0.5,2.5-1,3.6-1.5l1.8-0.8c0.5-0.3,1.1-0.5,1.6-0.7c0.3-0.1,0.5-0.2,0.7-0.2c0.1,0,0.2,0,0.3,0
			c0,0.1,0,0.2,0,0.3c-0.2,1-0.7,2.2-1.3,3.2c-1.2,2.2-2.6,4.4-4,6.5c-2.9,4.2-6,8.3-9.2,12.3c3.5-3.7,7-7.5,10.2-11.5
			c1.6-2,3.2-4.1,4.6-6.3c0.7-1.1,1.4-2.2,1.8-3.8c0.1-0.4,0.2-0.8,0-1.4c-0.1-0.3-0.2-0.6-0.5-0.9c-0.2-0.3-0.6-0.5-0.9-0.6
			c-0.6-0.2-1.1-0.2-1.5-0.1c-0.4,0-0.8,0.1-1.1,0.2c-0.7,0.2-1.4,0.4-2,0.7l-1.8,0.7c-1.1,0.5-2.4,0.8-3.5,1.2
			c-2.4,0.7-4.8,1.2-7.3,1.6c-2.5,0.4-5,0.6-7.4,0.8c-2.5,0.2-5,0.3-7.5,0.2c-0.6,0-1.2-0.1-1.8-0.1l-0.5,0l-0.2,0c0,0-0.1,0-0.2,0
			l-0.9-0.2c-1.2-0.2-2.4-0.5-3.6-0.8c-2.4-0.6-4.7-1.5-7-2.4c-4.5-2-8.7-4.6-12.1-8.1c-3.4-3.4-6-7.6-7.5-12.2
			c-1.5-4.6-1.7-9.5-0.5-14.1c0.6-2.3,1.6-4.4,3-6.2c1.4-1.8,3.2-3.1,5.2-4c4.1-1.6,9-0.6,13.2,1.7c2.1,1.1,4.1,2.5,6.1,4l1.5,1.2
			c0.5,0.4,1.1,0.8,1.6,1.2c1.1,0.8,2.2,1.5,3.4,2.2c2.4,1.3,4.9,2.4,7.5,3.1c2.5,0.6,5,1.3,7.6,1.8
			C405.1,381.6,410.3,382.3,415.6,382.3z M416.2,410.3C416.2,410.3,416.2,410.3,416.2,410.3C416.2,410.3,416.2,410.3,416.2,410.3z"
			/>
		<path d="M385.2,394.8c1.3-2.3,3-4.5,4.9-6.5c1-1,1.9-2,3-2.8l2.1-4.1c-1.7,0.1-3.2,0.6-4.7,1.1c-1.1,1-2.2,2-3.3,3.1
			c-2.1,2.2-4,4.6-5.5,7.3c-1.5,2.7-2.6,5.6-3.2,8.7c-0.3,1.5-0.4,3.1-0.3,4.7c0.6,1.5,1.5,3,2.5,4.2c0.5-1.6,0.9-3,1.4-4.3
			c0-1.3,0-2.6,0.3-3.9C382.9,399.6,383.9,397.1,385.2,394.8z"/>
		<path d="M443.1,222.8l-1-5.5c-0.2-0.9-0.4-1.8-0.5-2.8c-0.8-0.8-1.5-1.6-2.5-2.4c-0.6,1.1-1.1,2.1-1.5,3.1
			c0.2,0.9,0.4,1.8,0.5,2.8l1,5.5l1,5.5l0.5,2.8c0.8,0.8,1.5,1.6,2.5,2.4c0.6-1.1,1-2.1,1.5-3.1l-0.5-2.8L443.1,222.8z"/>
		<path d="M316.8,456.7l5-4.4c0.8-0.7,1.7-1.5,2.5-2.1c0.5-1.2,0.9-2.3,1.2-3.6c-1.4,0-2.6,0.3-3.9,0.6c-0.8,0.8-1.7,1.5-2.5,2.2
			l-5,4.4l-5,4.4l-2.5,2.2c-0.4,1.2-0.9,2.4-1.2,3.7c1.4-0.1,2.6-0.4,3.8-0.7l2.5-2.2L316.8,456.7z"/>
		<path d="M281.3,554.4c0.5,1.7,0.9,3.4,1.4,5.1c1.4,3.3,2.8,6.6,4.4,9.9c0-3.6-0.2-7.2-0.5-10.9c-0.5-1.7-1-3.5-1.4-5.2
			c-0.5-1.7-0.9-3.5-1.5-5.2c-1.1-3.4-2.1-6.8-3.4-10.2c-0.6-1.7-1.2-3.4-1.9-5l-2-5c-2.8-6.6-6-13.1-9.7-19.3
			c-1.9-3.1-3.8-6.1-5.9-9.1c-2.6-2.6-5.3-5.1-8.4-7.1c1.9,3.1,3.5,6.2,5.1,9.4c2.1,2.8,3.9,5.8,5.7,8.8c3.6,6,6.6,12.3,9.4,18.8
			l2,4.9c0.7,1.6,1.2,3.3,1.8,4.9c1.3,3.3,2.3,6.7,3.4,10C280.4,551,280.8,552.7,281.3,554.4z"/>
		<path d="M295.1,597.5c3.8-0.1,7.5-1.1,10.9-2.8c3.3-1.8,6.2-4.1,8.7-6.7c2.5-2.6,4.6-5.5,6.6-8.5c3.8-6,6.7-12.5,9.2-19.1
			c2.5-6.6,4.4-13.4,5.7-20.4c1.2-7,1.8-14.1,1.4-21.2c-0.2-3.5-0.6-7.1-1.3-10.6l-0.6-2.6l-0.3-1.3l-0.4-1.3
			c-0.3-0.9-0.5-1.7-0.8-2.6l-1-2.5c-5.4-13.3-15.8-24.5-28.7-30.8c-0.8-0.4-1.6-0.8-2.4-1.1c-0.8-0.4-1.6-0.8-2.5-1
			c-1.6-0.6-3.3-1.3-4.9-1.9c-3.3-1.2-6.7-2.2-10.1-3.1c-6.8-1.8-13.9-3-21.1-3c-3.6,0.1-7.2,0.4-10.8,1.3c-1.8,0.4-3.5,1-5.2,1.7
			c-1.7,0.7-3.4,1.5-4.9,2.5c-0.8,0.5-1.5,1-2.3,1.6c-0.7,0.6-1.5,1.1-2.1,1.8c-1.4,1.2-2.7,2.6-3.8,4.1c-1.1,1.5-2,3.1-2.8,4.9
			c-0.8,1.7-1.4,3.5-1.8,5.3c-0.4,1.8-0.5,3.7-0.5,5.5c0,1.8,0,3.5,0.1,5.3c0.2,3.5,0.6,7,1.2,10.5c0.6,3.5,1.4,6.9,2.4,10.2
			c1,3.4,2.2,6.6,3.5,9.9c-1-3.3-1.8-6.7-2.4-10.1c-0.6-3.4-1.1-6.8-1.3-10.2c-0.2-3.4-0.3-6.9-0.2-10.3c0.1-1.7,0.2-3.4,0.3-5.1
			c0.1-1.7,0.4-3.2,0.8-4.8c0.4-1.5,0.9-3.1,1.5-4.5c0.6-1.5,1.4-2.9,2.4-4.1c0.9-1.3,2-2.4,3.2-3.5c0.6-0.6,1.2-1,1.9-1.5
			c0.7-0.5,1.3-1,2-1.4c5.5-3.5,12.2-4.8,18.8-4.9c6.7,0,13.4,1.1,20,2.8c3.3,0.9,6.5,1.9,9.8,3c1.6,0.6,3.2,1.2,4.8,1.8
			c0.8,0.3,1.5,0.7,2.3,1c0.8,0.4,1.5,0.6,2.3,1c12,5.9,21.8,16.3,26.8,28.7l0.9,2.3c0.3,0.8,0.5,1.6,0.8,2.4l0.4,1.2l0.3,1.2
			l0.6,2.4c0.6,3.3,1,6.6,1.2,10c0.4,6.8-0.1,13.6-1.3,20.3c-1.2,6.7-3,13.3-5.5,19.7c-2.4,6.4-5.2,12.7-8.8,18.4
			c-3.6,5.7-8.1,10.9-13.7,13.9c-2.8,1.4-5.9,2.3-9.1,2.4c-1.6,0-3.2-0.1-4.7-0.4c-1.6-0.3-3.1-0.8-4.6-1.3
			c-3.1-1.1-6.1-2.6-8.9-4.5c-2.8-1.8-5.4-4-7.5-6.6c-2.2-2.5-4-5.5-5.5-8.6l-4.7-9.3l3.6,9.8c1.2,3.3,2.8,6.5,4.8,9.4
			c2,2.9,4.6,5.6,7.4,7.8c2.8,2.2,5.9,4.2,9.2,5.7C287.5,596.8,291.3,597.5,295.1,597.5z"/>
		<path d="M261.1,683.5c2.5-3.8,4.4-8,5.9-12.3c1.4-4.3,2.4-8.6,3.2-13.1c0.7-4.5,0.8-9.1,0.4-13.6c-0.8-9-3.2-17.7-6.4-26
			c-1.6-4.1-3.3-8.2-5.3-12.2c-2-4-4.2-7.8-6.4-11.6c-4.4-7.2-9.1-14.1-14.4-20.8l17.9-12.5l18.9-13.2l-19.5,12.2l-19.5,12.3l-0.1,0
			c-0.5,0.4-0.6,1-0.2,1.5l0,0.1c5.1,7,9.7,14.5,13.8,22.1c2.1,3.8,4,7.7,5.8,11.6c1.9,3.9,3.7,7.8,5.2,11.9
			c3.1,8,5.4,16.4,6.1,24.9c0.4,4.2,0.3,8.5-0.4,12.6c-0.7,4.2-1.7,8.4-3,12.4c-1.4,4-3.1,7.9-5.4,11.4c-2.3,3.5-5.1,6.5-8.5,8.8
			s-7.3,3.8-11.4,4.8c-4.1,0.9-8.3,1.2-12.6,1.3c-8.6,0.1-17.2-0.9-25.4-3.3c-4.1-1.2-8.1-2.8-11.8-4.7c-0.8-0.4-1.5-0.8-2.2-1.2
			c0.8,0.1,1.6,0.1,2.4,0.1c2.2,0,4.6-0.5,6.8-1.6c1.1-0.6,2.1-1.3,2.9-2.2c0.4-0.5,0.8-1,1.1-1.5c0.2-0.3,0.3-0.5,0.5-0.8
			c0.1-0.3,0.3-0.5,0.4-1c0.2-0.7,0-1.5-0.5-2l-0.1,0c-2.9-2.8-5.6-5.8-8.1-9c-2.4-3.2-4.5-6.7-6.4-10.3c-1.8-3.6-3.4-7.4-4.8-11.2
			c-0.7-1.9-1.2-3.9-1.8-5.8c-0.1-0.2-0.1-0.5-0.2-0.8l0.1,0.1l4.5,3.3c3.1,2.1,6.1,4.2,9.3,6.1c3.2,2,6.4,3.8,9.8,5.4
			c1.7,0.8,3.4,1.6,5.2,2.3c0.9,0.3,1.8,0.7,2.7,1c0.9,0.3,1.8,0.6,2.9,0.8c0.5,0.1,1.1,0,1.6-0.4c0.9-0.7,1-1.9,0.4-2.8l0,0
			c-2.7-3.5-5.3-7.2-7.6-10.9c-2.3-3.8-4.4-7.7-6-11.7c-1.7-4-2.9-8.3-3.4-12.5c-0.2-2.1-0.3-4.2-0.1-6.3c0.1-1,0.3-1.9,0.5-2.9
			c4.7,5.4,9.8,10.6,15.4,15.3c3.2,2.7,6.7,5.2,10.6,7.2c1.9,1,4,1.8,6.2,2.4c1.1,0.3,2.2,0.5,3.4,0.5c0.6,0,1.2,0,1.9,0
			c0.3,0,0.6-0.1,1-0.2c0.2,0,0.3-0.1,0.5-0.1c0.2-0.1,0.3-0.1,0.7-0.2c0.1,0,0.2-0.1,0.2-0.1c0.9-0.6,1.2-1.8,0.6-2.7l0,0l-24-38.6
			l-12-19.3c-3.7-5.8-7.2-11.8-10.9-17.6l33.5-20.5l17.6-10.8l17.6-10.9l-18.1,9.9l-18.1,10l-36.2,20c0,0,0,0,0,0
			c-0.9,0.5-1.2,1.7-0.7,2.6l0.1,0.1c3.8,6.5,8,12.8,12,19.3l12,19.3l22.3,35.8c-0.7-0.1-1.4-0.2-2.2-0.4c-1.8-0.5-3.6-1.2-5.3-2.1
			c-3.5-1.8-6.7-4.1-9.8-6.7c-6.2-5.1-11.8-11.1-17-17.3l0,0c-0.1-0.2-0.3-0.3-0.5-0.4c-0.9-0.6-2.1-0.3-2.7,0.7
			c-0.3,0.4-0.4,0.7-0.5,1c-0.1,0.3-0.3,0.6-0.4,0.9c-0.2,0.6-0.4,1.2-0.6,1.8c-0.3,1.2-0.5,2.4-0.7,3.6c-0.3,2.4-0.2,4.8,0.1,7.2
			c0.6,4.7,1.9,9.3,3.6,13.6c1.8,4.3,3.9,8.4,6.3,12.3c1.3,2.1,2.6,4.1,4.1,6.1c-1.4-0.6-2.7-1.2-4.1-1.8c-3.2-1.6-6.4-3.3-9.5-5.2
			c-3.1-1.9-6.1-3.9-9.1-6l-4.4-3.2l-4.4-3.3l-0.1,0c-0.4-0.3-0.9-0.5-1.5-0.4c-1.1,0.2-1.8,1.2-1.7,2.3c0.3,2.2,0.8,4.2,1.4,6.3
			c0.5,2.1,1.2,4.1,1.8,6.1c1.4,4,3.1,8,5,11.8c2,3.8,4.2,7.4,6.7,10.9c2.2,3,4.8,5.9,7.5,8.5c-0.2,0.3-0.4,0.5-0.6,0.8
			c-0.5,0.6-1.2,1-1.9,1.4c-1.4,0.8-3.2,1.1-5,1.1c-1.8,0-3.7-0.2-5.5-0.6s-3.7-1-5.5-1.7l-0.1,0c-0.7-0.3-1.6-0.1-2.1,0.5
			c-0.8,0.8-0.8,2,0,2.8c0.9,0.9,1.8,1.6,2.7,2.3c0.9,0.7,1.8,1.4,2.8,2c1.9,1.3,3.9,2.4,5.9,3.4c4,2.1,8.2,3.7,12.5,5
			c8.6,2.5,17.6,3.6,26.5,3.4c4.4-0.1,9-0.4,13.4-1.4c4.5-1,8.9-2.7,12.7-5.3C255.4,690.8,258.6,687.3,261.1,683.5z"/>
		<path d="M374.6,492.4c0.6,2,1.2,4,1.9,6c1.5,3.9,2.8,8,4.1,11.9c2.7,8,5.2,16,7.6,24l1.7,6c0.5,2,1,4,1.5,6.1
			c0.5,2,0.9,4.1,1.3,6.1c0.2,1,0.4,2,0.5,3l0.4,3l0,0.1c0,0.1,0,0.2,0,0.2c0.3,1.1,1.4,1.7,2.4,1.4c10.7-2.8,21.3-5.8,31.8-8.9
			c5.3-1.6,10.5-3.2,15.8-5c2.6-0.9,5.2-1.8,7.8-2.8c1.3-0.5,2.6-1,3.9-1.7c1.3-0.6,2.6-1.2,4-2.4c0.4-0.3,0.6-0.8,0.7-1.3v0
			c0.7-9.3,0.8-18.6,0.5-27.9c-0.3-9.3-0.9-18.6-2.1-27.8c-0.6-4.6-1.3-9.2-2.3-13.8l-0.7-3.4c-0.2-1.1-0.5-2.3-0.8-3.4l-1-3.4
			l-1.1-3.3c-3-8.8-7-17.4-12.3-25c2.1,4.1,3.9,8.4,5.4,12.7c1.5,4.3,2.7,8.8,3.8,13.2l0.8,3.3l0.6,3.4c0.4,2.2,1,4.4,1.5,6.7
			c0.9,4.5,1.6,9,2.2,13.5c1.2,9.1,1.8,18.2,2.1,27.4c0.2,8.9,0.1,17.8-0.5,26.5c-0.7,0.4-1.6,0.9-2.5,1.3c-1.2,0.6-2.4,1.1-3.7,1.6
			c-2.5,1-5.1,1.9-7.6,2.8c-5.2,1.8-10.4,3.4-15.6,4.9c-9.8,2.9-19.6,5.7-29.5,8.3l-0.1-0.9c-0.1-1.1-0.3-2.2-0.5-3.2
			c-0.5-2.1-0.8-4.2-1.3-6.3c-0.5-2.1-1-4.1-1.5-6.2l-1.7-6.1c-2.4-8.1-4.9-16.2-7.6-24.2l-4.1-12c-0.6-2-1.5-4-2.3-5.9l-2.5-5.9
			c-3.3-7.8-6.7-15.5-10.3-23.2l7.4,24.2L374.6,492.4z"/>
		<path d="M430.3,736.3c0.7-4.2,1.2-8.4,1.7-12.6c0.5-4.2,0.9-8.4,1.2-12.7l0.4-6.3l0.3-6.3l-0.7,6.3l-0.8,6.3
			c-0.6,4.2-1.2,8.4-1.9,12.5c-0.7,4.2-1.5,8.3-2.4,12.4c-0.5,2-1,4.1-1.5,6.1c-0.5,2-1.1,4.1-1.8,6c0,0.1-0.1,0.2-0.1,0.3
			c-0.1,0.8,0.5,1.6,1.4,1.7h0l6.9,0.7l3.5,0.4c1.1,0.1,2.3,0.2,3.5,0.2c2.3,0.1,4.6,0.2,6.9,0.3c2.3,0,4.6-0.1,6.9-0.1
			c4.6,0,9.2-0.4,13.9-0.7c2.3-0.2,4.6-0.5,6.9-0.7c1.1-0.1,2.3-0.2,3.5-0.4l3.4-0.5c4.6-0.6,9.1-1.4,13.7-2.2l6.8-1.4
			c2.3-0.5,4.5-1,6.8-1.5c9-2.2,17.8-4.8,26.6-8.2c0,0,0.1,0,0.1,0c1-0.4,1.4-1.6,1-2.6l0,0L504,661.5c4.3-20.9,7.4-42,9.1-63.3
			c0.9-10.7,1.2-21.5,1.4-32.3c0-10.8-0.3-21.5-1.1-32.3c-0.8-10.8-2-21.5-3.7-32.1c-1.7-10.6-3.9-21.2-6.5-31.7
			c-1.3-5.2-2.8-10.4-4.4-15.6c-0.8-2.6-1.6-5.1-2.5-7.7c-0.9-2.5-1.8-5.1-2.9-7.6c-2-5-4.2-9.9-6.6-14.8c-2.4-4.9-4.9-9.6-7.8-14.2
			l0,0c-0.2-0.3-0.6-0.5-1-0.4l-13.6,4.5l-13.6,4.6l13.9-3.6l13.1-3.5c2.4,4.4,4.6,9.1,6.5,13.8c2.1,4.9,4,9.9,5.7,14.9l5.1,15.1
			c1.6,5.1,3,10.2,4.4,15.4c2.6,10.3,4.8,20.8,6.5,31.3c1.6,10.5,2.8,21.1,3.7,31.8c0.8,10.6,1.1,21.3,1.1,32
			c-0.1,10.7-0.5,21.3-1.4,32c-1.6,21.3-4.8,42.5-9.1,63.4c-0.1,0.4,0,0.8,0.1,1.2l31.6,70.4c-7.8,2.9-15.9,5.3-24.1,7.2
			c-2.2,0.5-4.4,1.1-6.6,1.5l-6.7,1.4c-4.5,0.8-9,1.6-13.5,2.2l-3.4,0.5c-1.1,0.1-2.3,0.2-3.4,0.4c-2.3,0.2-4.5,0.5-6.8,0.7
			c-4.5,0.2-9.1,0.7-13.6,0.7c-2.3,0-4.5,0.1-6.8,0c-2.3-0.1-4.5-0.1-6.8-0.1c-1.1,0-2.3,0-3.4,0l-3.4-0.2l-5-0.2
			c0.4-1.5,0.7-2.9,1-4.3C429.6,740.5,429.9,738.4,430.3,736.3z"/>
		<path d="M501.2,410.7c-2.4,2.9-4.3,6.1-6,9.4c-1.1,3.5-1.9,7.1-2.1,10.8c1.8-3.1,3.7-6.2,5.8-9c1.5-3.1,3.3-6,5.4-8.6
			c2.1-2.6,4.6-4.8,7.5-6.1c0.7-0.3,1.4-0.6,2.2-0.8c0.4-0.1,0.8-0.2,1.1-0.2c0.4-0.1,0.7-0.1,1.1-0.1c1.4-0.1,2.9,0.2,4.3,0.8
			c2.9,1.2,5.5,3.4,8,5.8c2.4,2.4,4.6,5.1,6.7,7.9c2.1,2.8,4,5.7,5.8,8.7c2.3,2.7,4.6,5.5,6.8,8.3c-0.9-3.5-2.1-7-3.4-10.4
			c-1.9-3.1-3.8-6.1-6-9c-2.1-2.9-4.5-5.8-7.1-8.4c-2.6-2.6-5.6-5-9.2-6.6c-1.8-0.8-3.9-1.2-6.1-1.1c-2.1,0.1-4,0.7-5.8,1.5
			C506.5,405.1,503.6,407.8,501.2,410.7z"/>
		<path d="M548.8,503.5c0.5-1.2,1-2.4,1.5-3.6c0.4-1.2,1-2.4,1.4-3.6c0.3-2.6,0.5-5.3,0.4-8l-4.2,6.6c-0.8,2.4-1.7,4.7-2.7,7
			c-2,4.6-4.4,9-7.2,13c-1.4,2-2.9,4-4.6,5.8l-0.6,0.7l-0.7,0.6l-1.3,1.3c-0.9,0.9-1.7,1.5-2.7,2.1c-1.9,1.2-4.1,1.8-6.2,1.8
			c-1.1,0.3-2.1,0.4-3.3,0.3c-1.2-0.2-2.3-0.6-3.5-1.2c0.7,1.2,1.5,2.3,2.7,3.2c1.2,0.9,2.7,1.5,4.2,1.8c3,0,5.8-0.9,8.3-2.4
			c1.2-0.7,2.4-1.6,3.3-2.6l1.4-1.4l0.7-0.7l0.7-0.7c1.8-2,3.4-4,4.9-6.2C544.3,512.8,546.7,508.2,548.8,503.5z"/>
		<path d="M436.6,691.2c5.8-3.8,11.3-7.8,16.4-12.5c-2.8,2-5.6,3.8-8.6,5.6c-2.9,1.8-5.9,3.4-8.9,5c-6,3.1-12.2,5.9-18.6,8.1
			c-6.3,2.5-12.7,4.5-19.3,5.8c-6.6,1.3-13.3,1.9-19.9,1.6h0c-0.3,0-0.6,0-0.9,0.2c-1,0.4-1.5,1.6-1,2.6l21.4,49.9
			c-7.3,1.1-14.7,1.8-22.1,2.4c-8.3,0.6-16.5,0.8-24.8,0.8c-8.3-0.2-16.5-0.7-24.7-1.7c-7.5-1.1-14.9-2.6-22.1-4.7l14-39.9
			c0.3-1-0.1-2.1-1.1-2.5c-1.8-0.8-3.7-1.8-5.5-2.7l-5.6-2.6c-3.7-1.7-7.4-3.6-11-5.5c-3.6-2-7.1-4-10.5-6.3
			c-1.7-1.2-3.3-2.4-4.9-3.7s-3-2.8-4.1-4.5c1,1.8,2.3,3.5,3.7,5c1.4,1.5,3,2.9,4.5,4.3c3.2,2.7,6.5,5.1,10,7.4
			c3.5,2.3,7,4.5,10.6,6.5c1.8,1,3.6,2.1,5.4,3c1.3,0.7,2.6,1.3,4,1.9l-14,40.1l0,0l0,0c-0.3,1,0.2,2.2,1.3,2.5
			c8.1,2.6,16.4,4.3,24.8,5.5c8.4,1,16.8,1.6,25.2,1.7c8.4,0.1,16.8-0.2,25.2-0.8c8.4-0.6,16.7-1.5,25-2.8c0.2,0,0.3-0.1,0.5-0.1
			c1-0.4,1.5-1.6,1-2.6l0,0l-21.2-49.4c6,0,11.9-0.6,17.7-1.7c3.4-0.7,6.8-1.5,10.1-2.5c3.3-1,6.7-2,9.8-3.5
			C424.7,698.3,430.8,694.9,436.6,691.2z"/>
		<path d="M273.4,602.9c-0.1,0.9-0.3,1.8-0.5,2.8c-0.3,1.8-0.6,3.7-0.9,5.5c-0.3,1.8-0.6,3.7-0.8,5.6c-0.1,0.9-0.2,1.9-0.3,2.9
			c0.3,0.5,0.5,1,0.9,1.5c0.2,0.2,0.3,0.5,0.5,0.7c0.2,0.3,0.5,0.5,0.7,0.7c0.1-0.3,0.3-0.5,0.5-0.7l0.5-0.7l1-1.2
			c0.1-0.9,0.1-1.8,0.3-2.7c0.2-1.8,0.5-3.6,0.8-5.4s0.6-3.6,0.9-5.5c0.2-0.9,0.3-1.8,0.5-2.7c-0.4-1-0.8-2-1.5-3.1
			C274.9,601.2,274.1,602,273.4,602.9z"/>
		<path d="M320.6,619.4c2.5,0.6,5.2,0.8,7.8,0.5c2.6-0.3,5.1-1,7.4-2.2c2.3-1.1,4.4-2.5,6.4-4c2-1.5,3.8-3.2,5.5-5.2
			c3.3-3.9,5.5-8.7,6.3-13.7c0.8-5,0.4-10.1-0.8-14.9c-1.1-4.8-2.8-9.4-4.8-13.8c-2.6-4.2-5.4-8-8.5-11.7c1.8,4.5,3.5,8.9,4.9,13.3
			c1.9,4.2,3.5,8.6,4.6,13c1,4.4,1.4,9,0.7,13.3c-0.7,4.4-2.5,8.4-5.4,11.8c-1.4,1.7-3,3.2-4.8,4.6c-1.8,1.3-3.7,2.6-5.7,3.5
			c-3.9,1.9-8.3,2.4-12.5,1.4c-4.2-1-8.1-3.4-11.5-6.4c-3.8-2.5-7.3-5.7-10.6-9.2c1.9,4.4,4.6,8.5,8,12.2
			C311.2,615.3,315.5,618.1,320.6,619.4z"/>
		<path d="M526.9,476.1c-0.8-2.1-1.5-4.3-1.9-6.5c-0.5-2.2-0.7-4.5-0.8-6.8c-0.3-4.6,0.1-9.3,0.8-13.9c0.4-2.3,0.8-4.6,1.4-6.9
			c0-2.4,0-4.8,0-7.4c-1.6,2-2.8,4.2-4,6.4c-0.5,2.4-1,4.8-1.4,7.2c-0.7,4.9-1.1,9.8-0.8,14.7c0.2,2.5,0.4,5,0.9,7.4
			c0.5,2.5,1.2,4.9,2.1,7.2c0.9,2.4,2.1,4.6,3.5,6.7c1.9,1.8,4,3.3,6.3,4.4c-1.2-2.3-2.2-4.4-3-6.6
			C528.8,480.3,527.8,478.3,526.9,476.1z"/>
		<path d="M539.2,443.6c-1.8-0.1-3.6-0.3-5.4-0.5c-1.9,0.4-3.8,0.7-5.7,1.1c1.7,1.2,3.4,2,5.2,2.9l2.8,0.3l2.8,0.2
			c3.8,0.3,7.5,0.3,11.3,0.2c1.9,0,3.8-0.2,5.7-0.4l2.8-0.3l1.4-0.2l1.4-0.2l2.8-0.5c0.9-0.2,1.9-0.4,2.8-0.6c0.9-0.5,1.7-1,2.5-1.6
			c0.8-0.6,1.6-1.1,2.4-1.8c-1-0.1-2-0.2-3-0.3c-0.5,0-1-0.1-1.4-0.1l-1.4-0.1c-0.9,0.2-1.8,0.4-2.6,0.6l-2.7,0.5l-1.3,0.2l-1.3,0.2
			l-2.7,0.3c-1.8,0.1-3.6,0.3-5.4,0.4C546.4,443.9,542.8,443.8,539.2,443.6z"/>
		<path d="M607,435.6c-0.1,1.1-0.3,2.3-0.5,3.4l-1.1,6.8l-4,25.8c-5.3,1.6-10.6,2.9-16.1,3.9c-5.9,1.1-11.8,1.9-17.7,2.5
			c-5.9,0.6-11.9,1.1-17.9,1.4c-0.8,0-1.5,0-2.2,0.1l-2.2,0.3l-4.5,0.6l-9,1.3c3,0.5,6,0.9,9,1.2l4.5,0.4c0.8,0.1,1.5,0.1,2.3,0.2
			c0.8,0,1.5-0.1,2.3-0.1c6-0.3,12.1-0.8,18.1-1.4c6-0.7,12-1.5,18-2.6c6-1.1,11.9-2.5,17.8-4.4c0.7-0.2,1.2-0.8,1.3-1.6v0l4.2-27
			l1.1-6.8c0.2-1.1,0.3-2.2,0.6-3.4c0.2-1.1,0.2-2.3,0.2-3.4c0.2-4.6,0.3-9.2,0.4-13.8c-1.4,4.4-2.6,8.8-3.8,13.2
			C607.5,433.4,607.1,434.5,607,435.6z"/>
		<path d="M654,393.1c-4.3-3-9-5.6-14-7.5c-1.2-0.5-2.5-0.9-3.8-1.3c-1.3-0.3-2.6-0.7-3.9-1c-2.6-0.6-5.3-0.9-8-1.1
			c-5.4-0.3-10.8,0.4-15.9,1.8c-1.3,0.2-2.5,1-3.7,1.5c-1.2,0.6-2.3,1.3-3.5,2c-2.2,1.5-4.3,3-6.2,5c2.3-1.1,4.8-2,7.2-2.8
			c1.2-0.4,2.4-0.7,3.7-1c1.2-0.3,2.5-0.4,3.6-0.9c4.7-1.4,9.7-2,14.6-1.7c2.5,0.1,4.9,0.4,7.3,1c1.2,0.2,2.4,0.6,3.6,0.9
			c1.2,0.4,2.4,0.7,3.5,1.2c3.3,1.3,6.5,2.9,9.5,4.7c-2.6,0.8-5.2,1.6-7.8,2.5c-4,1.4-7.9,2.8-11.8,4.5c-1.9,0.8-3.9,1.6-5.8,2.6
			c-1,0.5-1.9,0.9-2.9,1.4c-0.5,0.2-1,0.4-1.4,0.7l-1.3,0.9c-3.5,2.5-6.8,5.1-9.7,8.2c3.8-1.9,7.6-3.5,11.4-5l1.5-0.5
			c0.5-0.2,0.9-0.4,1.4-0.7c0.9-0.5,1.8-0.9,2.8-1.3c1.8-0.9,3.7-1.7,5.6-2.5c3.8-1.6,7.7-3,11.5-4.4c3.9-1.3,7.8-2.6,11.8-3.6l0,0
			c0.4-0.1,0.8-0.4,1.1-0.8C655.1,395,654.9,393.7,654,393.1z"/>
		<path d="M669.2,381c-1.5-1-3.2-2-4.8-2.7c-3.4-1.4-7-2.1-10.6-2.3c-3.6-0.2-7.1,0.1-10.6,0.6l-1.3,0.2c-0.4,0.1-0.9,0.1-1.3,0.2
			c-0.8,0.4-1.6,0.8-2.4,1.2c-1.6,0.8-3.1,1.8-4.5,2.9c1.8-0.1,3.5-0.1,5.2-0.1l2.5,0c0.4,0,0.8-0.2,1.2-0.3l1.2-0.2
			c3.2-0.5,6.5-0.8,9.7-0.6c3.2,0.2,6.4,0.8,9.3,2c1.4,0.6,2.8,1.4,4.1,2.2c0.1,0,0.1,0.1,0.2,0.1c-0.1,0-0.2,0-0.3,0
			c-1.7,0.2-3.3,0.4-5,0.8c-0.4,0.1-0.8,0.2-1.2,0.2s-0.8,0.1-1.2,0.4c-0.8,0.4-1.5,0.8-2.3,1.3c-1.5,0.9-2.9,2.1-3.8,3.6
			c1.5-0.7,3.1-0.9,4.7-1c0.8-0.1,1.6-0.1,2.4-0.1c0.4,0,0.8-0.1,1.1-0.2c0.4-0.1,0.8-0.2,1.1-0.2c1.5-0.3,3.1-0.5,4.6-0.7
			c1.5-0.2,3.2-0.3,4.7-0.4h0.1c0.5,0,0.9-0.2,1.2-0.5c0.8-0.7,0.9-2,0.1-2.8C672.1,383.4,670.7,382.1,669.2,381z"/>
		<path d="M690.5,378.4c-1.6-2.3-3.7-4.5-6.3-5.9c-2.5-1.5-5.4-2.2-8.2-2.4c-2.8-0.2-5.6,0.1-8.2,0.7c-0.3,0.1-0.7,0.2-1,0.2
			c-0.3,0-0.7,0.1-1,0.3c-0.6,0.4-1.2,0.8-1.8,1.2c-1.1,0.8-2.2,1.7-3.1,2.8c1.4-0.1,2.7-0.1,4-0.2c0.7,0,1.3,0,1.9,0
			c0.3,0,0.6,0,0.9-0.2c0.3-0.1,0.6-0.2,0.9-0.2c2.4-0.5,4.8-0.8,7.1-0.6c2.3,0.2,4.6,0.7,6.5,1.9c0.6,0.4,1.2,0.8,1.8,1.2
			c-1.4,0-2.8,0.1-4.3,0.3c-0.8,0.1-1.6,0.3-2.4,0.4c-0.4,0-0.8,0.3-1.1,0.5c-0.4,0.2-0.7,0.5-1,0.7c-1.3,1-2.5,2.4-3,3.9
			c1.4-0.8,2.8-1,4.1-1.1c0.3,0,0.7,0,1,0c0.3,0,0.7,0.1,1-0.1c0.6-0.2,1.3-0.3,1.9-0.4c1.3-0.2,2.7-0.3,4.1-0.2
			c1.4,0,2.8,0.1,4.1,0.3l0,0c0.5,0.1,1,0,1.4-0.3C690.9,380.5,691.1,379.3,690.5,378.4z"/>
		<path d="M602,379.8c1.7-0.2,3.3-0.2,5,0c1.7,0.1,3.3,0.5,4.9,1c0.8,0.2,1.6,0.5,2.3,0.9c1-0.2,2-0.3,3.2-0.5
			c-0.3-1.2-0.9-2.2-1.5-3.1c-0.9-0.4-1.8-0.8-2.8-1c-1.9-0.6-3.8-1-5.7-1.2c-1.9-0.1-3.9-0.2-5.8,0c-1,0.1-1.9,0.3-2.9,0.4
			c-0.8,0.8-1.6,1.6-2.2,2.6c1.1,0.5,2.1,0.9,3,1.3C600.3,380,601.1,379.8,602,379.8z"/>
		<path d="M555.8,394.2L555.8,394.2c2.5,0.5,5.1,1.2,7.6,2c2.5,0.8,4.9,1.8,7.2,3.1c2.2,1.2,4.3,2.7,5.8,4.5c1.5,1.8,2.4,3.8,2.6,6
			l-3.3,21.6c-0.3,1.8-0.5,3.6-0.9,5.5c-0.1,1.8-0.2,3.7-0.2,5.5c-0.1,3.7-0.2,7.4-0.2,11.1c1.1-3.6,2.1-7.1,3.1-10.7
			c0.5-1.8,1-3.6,1.4-5.4c0.2-1.8,0.5-3.6,0.8-5.5l3.3-21.9c0-0.1,0-0.2,0-0.4c-0.1-3.2-1.5-6.4-3.5-8.6c-2-2.3-4.4-4-7-5.5
			c-2.5-1.4-5.2-2.5-7.8-3.4c-1.9-0.6-3.7-1.1-5.6-1.6c0.4-0.6,0.9-1.2,1.5-1.7c1.2-0.9,2.6-1.5,4.3-1.7c1.6-0.2,3.4-0.1,5.1,0.2
			c1.7,0.3,3.5,0.8,5.1,1.4c0.7,0.3,1.6,0.1,2.2-0.4l0.1-0.1l1.1-1.1c0.4-0.4,0.7-0.8,1.2-1c0.8-0.6,1.6-1.3,2.6-1.7
			c0.9-0.5,1.8-0.8,2.8-1.1c1-0.1,1.9-0.5,3-0.6c2-0.3,4.2-0.2,6.4,0.2c2.2,0.5,4.4,1.2,6.4,2.3c-1.7-1.7-3.6-3-5.8-4.1
			c-2.2-1.1-4.6-1.8-7.2-2c-1.3-0.1-2.6-0.1-3.9,0.3c-1.2,0.5-2.5,0.8-3.6,1.5c-1.2,0.5-2.2,1.3-3.2,2.1c-0.5,0.4-1,0.8-1.4,1.3
			l-0.4,0.4c-1.6-0.5-3.1-0.9-4.7-1.2c-2-0.3-4.1-0.5-6.3-0.2c-2.1,0.3-4.4,1-6.2,2.5c-1.9,1.5-3.1,3.5-3.8,5.6c0,0.1,0,0.2-0.1,0.3
			C554,393,554.7,394,555.8,394.2z"/>
		<path d="M266.4,384.6c0.3-0.2,0.6-0.3,1.1-0.3c1-0.7,2.5-1,4.2-1.2c-1.1-1.3-2.5-2.4-4.5-2.9c-1,0.1-2.1,0.4-3,1
			c-1,0.6-1.7,1.6-2.1,2.5c-0.8,1.9-0.8,3.7-0.7,5.3c0.1,1.6,0.5,3.2,0.8,4.7c0.4,1.5,0.8,3,1.5,4.5c0.6,1.5,1.4,3,2.5,4.4l1,1
			c0.4,0.3,0.8,0.6,1.2,0.9c0.4,0.3,1,0.5,1.4,0.6c0.2,0.1,0.5,0.1,0.8,0.2s0.5,0.2,0.8,0.1c2.2-0.5,3.5-2,4.1-3.6
			c-0.8,0.2-1.6,0.2-2.3,0.2c-0.7-0.1-1.3-0.3-1.7-0.6c-0.8,0-1.6-0.5-2.3-1.4c-1.5-1.8-2.4-4.6-3.1-7.2c-0.3-1.4-0.6-2.7-0.7-4
			c-0.1-1.3,0-2.6,0.3-3.4C265.9,385,266.1,384.7,266.4,384.6z"/>
		<path d="M253.5,820.7c0.9,0.3,1.7,0.6,2.6,0.7c1.7,0.4,3.3,0.6,4.9,0.8c3.2,0.3,6.5,0.5,9.7,0.6c6.4,0.2,12.8,0.1,19.2-0.1
			c12.8-0.4,25.5-1.2,38.3-2.1c12.7-1,25.5-2.2,38.2-3.6c6.4-0.7,12.7-1.5,19.1-2.6l1.2-0.2l0.6-0.1c0.2,0,0.5-0.1,0.7-0.2
			c0.9-0.3,1.8-0.6,2.7-1.1c0.8-0.5,1.6-1.1,2.3-1.8c0.7-0.7,1.2-1.3,1.7-1.9c1.1-1.3,2.1-2.8,2.9-4.3s1.5-3.2,1.9-4.9
			c0.8-3.5,0.4-7.2-1-10.4c-0.4-0.8-0.7-1.6-1.1-2.3l-1.1-2.1c-0.8-1.4-1.6-2.8-2.4-4.2c-3.2-5.5-6.6-11-10.3-16.2
			c1.5,2.8,2.9,5.7,4.3,8.5c1.4,2.9,2.8,5.7,4,8.6l1.9,4.4l0.9,2.2c0.3,0.7,0.5,1.4,0.8,2.1c0.8,2.8,0.8,5.7,0,8.4
			c-0.4,1.3-0.9,2.7-1.6,4c-0.6,1.3-1.5,2.5-2.4,3.6c-2,2.5-3.6,3.5-6.8,3.9c-6.2,1-12.5,1.8-18.8,2.5c-12.6,1.4-25.3,2.6-38,3.6
			c-12.7,1-25.4,1.8-38.1,2.1c-6.4,0.2-12.7,0.3-19,0.1c-3.1-0.1-6.3-0.3-9.4-0.6c-1.5-0.2-3.1-0.4-4.5-0.7c-0.7-0.2-1.4-0.3-2-0.6
			c-0.5-0.2-1-0.5-1.2-0.6l0,0c0-0.3-0.1-0.7,0-1c0-0.7,0.1-1.4,0.2-2.1c0.2-1.5,0.5-2.9,0.9-4.4c0.8-2.9,2-5.8,3.4-8.5
			c2.8-5.5,6.4-10.6,10.8-14.8c4.4-4.2,9.7-7.5,15.5-9.2c2.9-0.8,5.8-1.3,8.9-1.3l2.3,0l1.2,0l1.2,0.1c1.5,0.1,3.1,0.2,4.6,0.3
			c6.2,0.4,12.4,1.6,18.4,3.5c3,1,6,2.1,8.8,3.5c2.9,1.3,5.7,2.8,8.4,4.6c-4.9-4.1-10.5-7.5-16.4-10.1c-5.9-2.6-12.2-4.5-18.7-5.5
			c-3.2-0.4-6.5-0.4-9.8-0.3c-3.3,0-6.7,0.5-9.9,1.5c-6.5,1.9-12.3,5.6-17.1,10.2c-4.8,4.6-8.7,10-11.6,15.9c-1.5,3-2.7,6-3.6,9.2
			c-0.4,1.6-0.9,3.2-1.1,5c-0.1,0.9-0.2,1.7-0.2,2.6c0,0.4,0,0.9,0,1.4l0,0.2l0,0.1l0,0.2c0.1,0.2,0.1,0.5,0.2,0.7
			c0.2,0.5,0.4,0.8,0.7,1.1c0.2,0.3,0.5,0.5,0.8,0.7c0.2,0.2,0.5,0.3,0.7,0.5C252.6,820.3,253.1,820.6,253.5,820.7z M253.8,816.5
			C253.8,816.5,253.8,816.6,253.8,816.5L253.8,816.5L253.8,816.5C253.8,816.5,253.8,816.5,253.8,816.5z M253.7,816.3
			C253.7,816.3,253.7,816.3,253.7,816.3C253.7,816.3,253.7,816.3,253.7,816.3z"/>
		<path d="M600.6,758.2c-0.2-0.7-0.6-1.4-0.9-2.1s-0.6-1.4-1-2l-1.1-2c-0.4-0.6-0.8-1.3-1.2-1.9c-0.8-1.3-1.9-2.4-2.8-3.6
			c-0.5-0.5-1.1-1.1-1.7-1.6l-0.8-0.8l-0.9-0.7c-2.4-1.9-5.2-3.3-8-4.4c-2.8-1.1-5.8-1.6-8.8-2l-2.2-0.2l-2.2-0.1
			c-0.7,0-1.5,0-2.2,0s-1.5,0-2.2,0.1c-2.9,0.3-5.8,0.8-8.6,1.5c-2.8,0.7-5.6,1.5-8.3,2.4c-2.7,0.9-5.4,2-8,3.1
			c-5.3,2.2-10.4,4.9-15.3,7.7c10.4-4.6,21.3-8.3,32.3-10c2.8-0.4,5.5-0.7,8.3-0.7c2.7,0,5.5-0.2,8.2,0.1c2.7,0.3,5.3,0.8,7.8,1.8
			c2.5,0.9,4.9,2.1,6.9,3.8l0.8,0.6l0.7,0.7c0.5,0.5,1,0.9,1.4,1.4c0.8,1,1.8,2,2.5,3.1c0.4,0.6,0.8,1.1,1.1,1.7l1,1.8
			c0.3,0.6,0.6,1.2,0.9,1.8c0.3,0.6,0.6,1.2,0.8,1.8c1,2.5,1.5,5.1,1.6,7.7c0.1,2.6-0.4,5.1-1.3,7.5c-2,4.8-5.9,8.7-10.4,11.8
			c-2.2,1.5-4.7,2.9-7.2,4c-2.4,1.1-5,2.2-7.5,2.9c-16.8,2.2-33.6,4.2-50.4,6.1c-16.9,1.8-33.8,3.5-50.7,4.7
			c-8.5,0.6-16.9,1-25.4,1.2c-4.2,0-8.4,0-12.6-0.3c-1-0.1-2-0.2-3-0.3l-1.5-0.2l-0.7-0.1l-0.7-0.2c-1.9-0.5-3.6-1.2-4.9-2.3
			c-1.3-1.1-2.1-2.5-2.4-4.2c-0.4-1.7-0.4-3.6-0.1-5.6c0.6-4,1.9-8,3.4-11.9c1.5-4,3.1-7.9,4.5-11.9c0.7-2,1.4-4.1,1.9-6.2
			c0.5-2.1,0.8-4.2,0.7-6.4c-0.1,2.1-0.6,4.2-1.3,6.2c-0.7,2-1.6,3.9-2.5,5.8c-1.8,3.8-3.8,7.6-5.6,11.4c-1.8,3.9-3.6,7.8-4.7,12.2
			c-0.5,2.2-0.8,4.6-0.4,7.1c0.1,0.6,0.3,1.2,0.5,1.8c0.3,0.6,0.5,1.2,0.9,1.8c0.4,0.5,0.7,1.1,1.2,1.6c0.5,0.5,0.9,1,1.4,1.3
			c2,1.6,4.3,2.5,6.5,3.1l0.8,0.2l0.8,0.2l1.7,0.3c1.1,0.2,2.2,0.2,3.3,0.4c4.4,0.3,8.6,0.3,12.9,0.3c8.6-0.1,17.1-0.6,25.6-1.2
			c17-1.2,33.9-2.9,50.9-4.7c16.9-1.8,33.8-3.9,50.7-6.1h0c0.1,0,0.2,0,0.2,0c2.9-0.9,5.6-1.9,8.3-3.2c2.7-1.2,5.2-2.7,7.7-4.3
			c2.5-1.7,4.8-3.6,6.8-5.8s3.8-4.8,5-7.7c1.2-2.9,1.8-6,1.6-9.2C602.4,764,601.7,761,600.6,758.2z"/>
		<path d="M399.4,825.8c-1.3-4.9-2.6-9.7-3.9-14.6c0.6,5,1.3,10,2,15l1.8,12.8l-1.8,0c-1.3,0-2.5,0-3.8,0c-1.9,0.1-3.7,0.1-5.6,0.2
			l-0.3-8.2v0c-0.1-1.1-1-2-2.1-1.9l-11.9,0.6c0,0,0,0,0,0c-1.1,0.1-1.9,1-1.9,2.1l0.5,7.3l-15.2,0.7l0.8-7.2c0-0.1,0-0.2,0-0.3
			c0-1.1-1-2-2.1-1.9l-16.9,0.6c0,0-0.1,0-0.1,0c-1.1,0.1-1.9,1-1.8,2.2l0.6,7.1l-11.7,0.3l-0.2-6.5c0-1.1-1-2-2-1.9l-18.1,0.5
			c-1,0-1.9,0.8-1.9,1.8l-0.6,6.7l-14.2,0.9l-0.3-8.5c0-1.1-0.9-1.9-2-1.9l-13-0.1c-1.1,0-2,0.8-2,1.9l-0.3,8.3c-1,0-2-0.1-3.1,0
			l-5.1,0.1l-9,0.3l-0.2-8.2l-0.3-9.5l-0.9,9.5l-0.9,9.5v0c-0.1,0.6,0.4,1.2,1.1,1.2l0.1,0l10.1,0.8l5,0.4c1.7,0.1,3.4,0.1,5.1,0.1
			h0c1.1,0,2-0.8,2-1.9l0.3-8.4l9.2,0.1l0.3,8.6c0,0,0,0,0,0c0.1,1.1,1,1.9,2.1,1.9l18-1.1c1-0.1,1.8-0.8,1.9-1.8l0.6-6.7l14.4-0.4
			l0.2,6.5c0,1.1,1,2,2,1.9l15.8-0.4c0,0,0.1,0,0.1,0c1.1-0.1,1.9-1,1.8-2.2l-0.6-7.1l12.5-0.5l-0.8,7.3c0,0.1,0,0.2,0,0.3
			c0,1.1,1,2,2.1,1.9l19.6-0.9c0,0,0,0,0,0c1.1-0.1,1.9-1,1.9-2.1l-0.5-7.3l7.9-0.4l0.3,8.2c0,1.1,1,1.9,2,1.9h0
			c2.5,0,5-0.2,7.6-0.2c1.3,0,2.5,0,3.8-0.1l3.8-0.3l0.2,0c0.1,0,0.2,0,0.3,0c0.9-0.2,1.5-1.2,1.2-2.1L399.4,825.8z"/>
		<path d="M598.2,812.7c-1.3-7.1-2.6-14.1-3.9-21.2c0.6,7.2,1.2,14.3,1.8,21.5l1.7,19.2c-0.7,0-1.4,0-2.2,0l-4.3,0.1l-6.7,0.1
			l-0.5-9.3c-0.1-1-0.9-1.9-1.9-1.9l-10.5-0.3c0,0-0.1,0-0.1,0c-1.1,0-2,0.9-2,2l0.1,10.2l-21.2,1.3l-1.1-12.1
			c-0.1-1-0.9-1.8-1.9-1.8l-13.6-0.7c-1,0-2,0.7-2.1,1.8l-1.5,12.4l-19.4,0.5l-0.2-10.7c0-1.1-0.9-2-2-2l-17.8,0.3
			c-1,0-1.9,0.8-2,1.9l-0.7,11.6l-18,0.3l-0.1-12.4c0-1.1-0.9-1.9-1.9-2l-14.4-0.5c0,0-0.1,0-0.1,0c-1.1,0-2,0.9-2,2l0.2,13.8
			c-1.6,0-3.2,0.1-4.9,0.1c-2.3,0.1-4.5,0.3-6.8,0.4l-12.4,0.9l0-11.1l-0.1-12.5l-1.2,12.5l-1.1,12.5v0.1c0,0.7,0.5,1.2,1.2,1.2h0.1
			l13.7,0.2c2.3,0,4.6,0.1,6.8,0c2.3-0.1,4.6-0.2,6.8-0.2c1.1,0,2-0.9,1.9-2v0l-0.2-13.7l10.4,0.4l0.1,12.5v0c0,1.1,0.9,2,2,2
			l21.9-0.3c1,0,1.9-0.8,2-1.9l0.7-11.6l14-0.3l0.2,10.7v0c0,1.1,1,2,2,2l23.2-0.6c1,0,1.8-0.8,1.9-1.8l1.5-12.2l10,0.5l1.2,12.3
			c0.1,1.1,1,1.9,2.1,1.8l25-1.5c1.1-0.1,1.9-1,1.9-2l-0.1-10l6.6,0.2l0.5,9.3c0.1,1.1,0.9,1.9,2,1.9l8.7-0.1l4.3,0
			c1.4,0,2.9,0,4.3-0.1l0.2,0c0.1,0,0.2,0,0.2,0c1-0.2,1.7-1.2,1.5-2.2L598.2,812.7z"/>
		<path d="M407,602.5c2.1,4.9,4.6,9.7,7.8,14.1c3.2,4.4,7,8.4,11.9,11.3c2.4,1.4,5.1,2.4,7.9,3c2.8,0.5,5.6,0.6,8.5,0.2
			c2.9-0.4,5.7-1.5,8.1-3.3c2.4-1.7,4.3-4,5.7-6.4c2.9-4.9,4.2-10.3,5-15.6c0.2-1.3,0.4-2.7,0.5-4c0.1-1.3,0.3-2.7,0.3-4
			c-0.1-2.7-0.2-5.3-0.5-8c-0.5-5.3-1.4-10.5-2.7-15.6c0.3,5.2,0.2,10.5-0.1,15.7c-0.1,2.6-0.4,5.2-0.7,7.7
			c-0.2,1.3-0.1,2.5-0.3,3.8c-0.1,1.3-0.3,2.5-0.5,3.8c-0.8,5-2,10-4.5,14.1c-1.2,2.1-2.8,3.9-4.6,5.2c-1.9,1.4-4,2.2-6.3,2.6
			c-2.3,0.4-4.8,0.3-7.1-0.2c-2.3-0.5-4.6-1.3-6.7-2.5c-4.2-2.4-7.7-6.1-10.7-10.1c-3-4.1-5.4-8.6-7.4-13.3c-1.6-3.7-3-7.7-4.1-11.5
			c1.5,0.2,2.9,0.4,4.4,0.4c2.5,0.1,5,0.1,7.5,0c5-0.3,9.9-1.2,14.7-2.5c4.9-1,9.4-3.2,13.8-5.4c4.4-2.3,8.6-4.8,12.5-7.7
			c-4.4,2.1-9,3.8-13.5,5.3c-4.6,1.6-9.3,2.5-13.8,4c-4.6,1.2-9.3,2-14,2.3c-2.4,0.2-4.7,0.2-7,0c-2.3-0.1-4.6-0.5-6.9-0.9l-0.1,0
			c-0.3,0-0.6,0-0.8,0c-1.1,0.3-1.7,1.3-1.4,2.4C403.1,592.6,404.9,597.6,407,602.5z"/>
		<path d="M333.3,677.9c3.8-1.3,7.3-3.3,10.4-5.7c3.1-2.4,6-5.1,8.5-8c1.3-1.4,2.5-3,3.7-4.5c0.7-1.9,1.3-3.8,1.6-5.8
			c-1.7,1.2-3.3,2.3-4.8,3.4c-1.1,1.5-2.3,2.9-3.5,4.2c-2.4,2.7-5.1,5.3-8,7.4c-2.9,2.2-6,4-9.3,5.1c-1.7,0.5-3.4,0.9-5,1.1
			c-1.7,0.7-3.5,1.3-5.5,1.8c1.7,1.1,3.7,1.8,5.8,2.2C329.4,679,331.3,678.5,333.3,677.9z"/>
		<path d="M492.6,632.8c1.3,0.9,2.7,1.8,4.2,2.4c0.4,0.2,0.8,0.3,1.2,0.4c0.4,0.1,0.8,0.3,1.3,0.3c0.5-0.2,1-0.4,1.4-0.8
			c0.4-0.3,0.8-0.7,1.2-1.1c-0.4-0.4-0.8-0.8-1-1.1c-0.3-0.3-0.6-0.7-0.8-1c-0.3,0-0.6-0.1-0.9-0.2c-0.3-0.1-0.6-0.2-0.9-0.3
			c-1.2-0.5-2.3-1.2-3.4-1.9c-1.1-0.8-2.2-1.7-3.2-2.6c-0.5-0.5-1-1-1.5-1.5c-0.9-0.1-1.8-0.2-2.9-0.2c-0.2,1.1-0.1,2.1,0,3
			c0.6,0.5,1.1,1.1,1.7,1.6C490.1,630.9,491.3,631.9,492.6,632.8z"/>
	</g>
</g>
</svg>
