<?xml version="1.0" encoding="utf-8"?>
<!-- Generator: Adobe Illustrator 24.3.0, SVG Export Plug-In . SVG Version: 6.00 Build 0)  -->
<svg version="1.1" id="Layer_1" xmlns="http://www.w3.org/2000/svg" xmlns:xlink="http://www.w3.org/1999/xlink" x="0px" y="0px"
	 viewBox="0 0 864 864" style="enable-background:new 0 0 864 864;" xml:space="preserve">
<style type="text/css">
	.st0{fill:#1FA64A;}
	.st1{fill:#592D06;}
	.st2{fill:#40303B;}
	.st3{fill:#FFD990;}
	.st4{display:none;}
	.st5{display:inline;}
</style>
<g id="Color">
	<path class="st0" d="M403.9,375.7l-12.4,4.2l-22.1,3.7l-19.1,10.7l-6.6,10.7l1.9,14.8l2,37l11.1,13.5l4.5,3.4l7.3,1.4l5-2.3
		l-3.8,13.5l-2.5,13l0.5,13.3l2.6,10.8l6.8,11.8l10.7,4.3l0.6,10.2L390,558l-3.1,56.3l5,3.1l26-2l17.9-7.8l21.2,6.6l19.6-0.6
		l16.5-2.5l13.8-3.8l2.6-1l18.3,4.8l21.3,0.1l15.4-2.2l6.8-2.6l-6.8-20.2l-2.7-14.3l-4.7-35.5l0.1-21.7l0.8-41.6l44-5.4l15.3-4.3
		l12.5-8.2l4.7-14.6l-3.3-11.7l-7.2-14.3l-11.8-13l-11-7.5l-30.2-6.8l-28.9-0.6l2.3-4.8c0,0-3.3-5.4-3.2-5.5s-7.9-4.6-7.9-4.6
		l-12.9-3l-13.1,11.2l-14.9,13.4l-13,10.5l-16.1,10.1l-7.9-3.4l-30.3-20.4L403.9,375.7z"/>
	<path class="st1" d="M379.1,178.4l14.6-3.6l7.3-8.8l7.9,6.1l7.9,0.9l8.6-5.1c0,0,3.7,5.5,4.1,5.5c0.4,0,7.2,3.7,7.2,3.7l11.4-0.7
		l7.7-5.7l5.6,4.3l11.4,2l12.4-6l7,4.7l7.2,3l13.9-5.1l-2.1,5.6l1.2,7.7l6.3,6.7l4.8,1.6l-3,4.6l-2.4,8.1l2.9,7.7l6.5,5.7l7.6,1.7
		l-2.7,6.9v7.8l2.6,3l5,2.9l4.9,1.1l3.8-0.6l2.5-1.4l1.1-1.1l5.6,4.7l11.3-9.5l13.3-1.8l12.7,7.1l2.8,8.4l0.2,17.2l-3.3,9.1
		l-10.4,14.5L580,296l-3,1.4l-5.9-4.5l-8.4,2.1l-4.6,7.7l-0.2,8.9l1.9,6l1.8,2.1l-5.7,7.2l-42.6,48l-16.6,14.9l-34.3,23.3l-9.2-3.5
		l-19-13.2l-20.9-14.9l-34.1-26.9L353.3,329l-8.2-14.1l-3.6-22.8l11.8-17.3l10.3-6.6l5.9-1.2C369.5,266.9,384.8,228.2,379.1,178.4z"
		/>
	<path class="st1" d="M352.3,404.1l-20.4,6.6l-12.9,7.1l-4.5,3.4l-17.1-16.6l-12.4-7.8l-4.1-7.6l6.3-8.9l1-10.3l-1.6-10.7l-5.5-7.3
		l-13.4-3.4l-8.7,2.4l-4.6-12.4l-13.3-13.7l-7.6-0.4l-4.3,4.6l-1.6,11.8l1.9,8.6l4.1,8.4h-5.1l-5.7,5.3l-1.4,6.2l1,7l2,5l-2.6,10.7
		l0.5,9.7l7.6,3.7l8.7-1.4l9.1,19.6l24.5,34.9l11.8,9.8l23.5,16.5l9.9,2.9l12.5-1.7l11.9-4.3l8.2-5.6l10.6-5.9l2.3-21.9
		c0,0-0.2-13.7-0.2-14s-1.7-9.4-1.7-9.8S352.3,404.1,352.3,404.1z"/>
	<polygon class="st1" points="558,474.5 557.7,530.6 561,559.4 568.4,598.6 575.1,612.3 587.8,629.4 601.9,636.4 614.3,636.4 
		619.3,629.9 617.6,616.5 624.5,619.2 630.5,618.2 637.7,612.8 637.9,601.6 630.2,591.4 634.7,588.2 640.9,583.7 642.9,572.5 
		639.9,563.6 628.5,558.9 619.6,559.9 617.8,550.7 617.6,533.1 617.3,512.7 614.8,488 611.4,465.9 	"/>
	<path class="st2" d="M389.7,616.7l-0.2,16.4l14.6,0.5l45,0.8l60.7-1.8L540,630c0,0,20.8-1.9,21-1.9s20.7-3,20.7-3l-9.4-18.4
		l-9.4,2.7l-14.2,2.5h-22.7l-15.1-4.9l-19.2,5.8l-21.4,2.1l-23.5-2.1l-10.5-5.3l-5.3,3.8l-26.4,5.7L389.7,616.7z"/>
	<path class="st2" d="M383.7,128.9l-8.1,1.7c0,0-5.7,4.2-5.8,4.5c-0.1,0.3-4.2,7.3-4.2,7.3s-2.2,5.7-2.1,5.9s0.5,8.6,0.5,8.6
		s2.6,10.3,2.7,10.5c0.1,0.2,5.1,6.9,5.1,6.9l5,3.4l7,0.8l7.6-2.9l7.3-6.8l3.9-1.6l4.9,4.6l10.4,1.2l7.1-5.5l7.2,6.9l10.3,3.6
		l13.8-9l8.6,6.4h12.8l8.4-6l6.6,5.3l7.5,3.3l14.6-6.1l-2.6,8.8l2.5,10.5l9.2,5.1l-4.5,6.7l0.4,7.9l2.3,5.7l4.9,4l7.1,2v3.4l-2,6.4
		l1.1,6l3,2.9l2.8,1.8c0,0,3.4,1.2,3.4,1.2c0.1,0,3.7,0.4,3.7,0.4l3.5-1l2-1.4l5.2,3.7l16.4-10.4l7.3-0.7l6.5,1.5l7.1,4.7l7.8-13.2
		l0.2-1.4l-0.1-2.1l-0.6-2.1l-0.9-1.4l-2.4-2l-2.4-1.2l5.3-2l5.6-3.4c0,0,3.9-3.4,3.9-3.6s3.8-5.4,3.8-5.4l2.2-6.2l-0.3-7.4l-1-7.2
		l-2.6-5.6l-9.4-5.8l0.2-4.9l2.7-5.6l0.6-8.4l-4.5-8.2l-11.3-3.6l-6.4-0.4l-1-10.8l-5.1-10.1l-15.1-9.3l-14.8-2l-10.9,7.4l-5.8-8.9
		l-13.7-8.7l-13.9,1.6l-10.5,4.6l-2.9,5.7l-6.2-9.7l-6.9-3.3l-13.4-4.9L452.3,94l-8.8,3.6l-6.4,7.6l-1.1,3.6l-9.4-3.7l-10.6-0.9
		c0,0-8.8,2.7-8.9,2.8c-0.1,0-7.5,2.6-7.5,2.6l-9.2,7.5l-4.8,8L383.7,128.9z"/>
	<path class="st2" d="M599.7,26.7l-7.2-7.9l-10.4-4.5l-12.2-0.4l-8.3,4.6l-5.1,9.2l-0.5,8.7l-0.9,3.7l-6-7.6l-7.3,0.4l-7.2,3.5
		l-4.5,7.8l0.7,10.9l7.2,19.2L552,90.1l5.3,4.3l10.4-2l17.1,3.6l9.2,0.2l8.4,6l8.4,2.3l7.1-1.1l3.2-4.5l-1.2-4.4l7.2-1.3
		c0,0,4.9-2.3,5-2.4s4.2-5.9,4.2-5.9l1.4-8.4l-1.8-7.4l-9.3-4.9l-2.8-0.6l0.3-2.1l5.5-2.9l1.5-6.1l-0.3-5.7l-2.2-7.7l-5.8-9.5
		l-5.2-2l-7.3-1.3l-8.9,1.5L599.7,26.7z"/>
	<path class="st2" d="M429.2,310.7l6,5.8l4.5,9.9l4.5,14.3l-0.8,12.4l11.7-1.9l10.5-6.3c0,0,6.9-6.1,7-6.1c0.2,0,4-7.5,4-7.5
		l1.9-11.9l-0.9-8.4l-3.6-4.3l-8.6-0.6l-17.3,4L429.2,310.7z"/>
	<path class="st2" d="M396.2,769.1l-8.5,13.8l-15.6,0.1l-11.3,2.6l-13.9,9.7l-6,10.1c0,0-3.7,7.5-3.7,7.9s0.4,11.7,0.4,11.7l7,9.7
		l13.6,8.6c0,0,23.6,0.2,24,0.2s21.9-1,21.9-1l53.8-5.3l13.2-7.5l3.4-11.1l-2.1-17.9l-4.5-9.6l-13.9-23.3c0,0-15,2-15.6,2
		s-28.5-0.3-28.5-0.3L396.2,769.1z"/>
	<path class="st2" d="M597,759.5l5.3,25.9l17.5,3c0,0,7.6,6.7,7.8,7.1c0.2,0.4,8.8,15.1,8.8,15.1l-1.6,9.2l-7.8,11.7l-15,6.5
		l-25.3,5.5l-22.3,0.9l-28.3-2.2l-17.6-4.5l-5-7.3l-2.7-20.1l2.5-13.7l5.3-24.8l31-2.9L597,759.5z"/>
	<polygon class="st0" points="535.5,74.8 530.5,81.2 520.7,89.3 505.5,97.8 520.4,98.6 527.1,101.7 533.3,107.2 537,113.2 
		541.9,110.8 548.6,107.9 559.1,108.2 571,113.3 581.2,121.3 585,132.8 585.1,138.2 591.9,140 594.4,140 596.7,126.5 595.6,108.2 
		593.7,97.6 572.6,95.4 562,93 550.9,91.6 	"/>
	<path class="st0" d="M572.1,293.4l-6.6,0.5l-4.8,5.5l-1.7,7.6c0,0,0.1,6.5,0.2,6.8c0.2,0.3,4,4.7,4,4.7l7.6,0.6l3.8-4.1l1.2-1.7
		l3-7.9l-2.9-9.5L572.1,293.4z"/>
	<path class="st3" d="M389.1,633.3l-0.5,13.9l-0.1,13.5l2.6,19.3l3.1,8.9l-0.4,26l-1.3,17l-1.6,14.6l-2.4,13.2l4.1,7.4l9.9,2.2
		c0,0,23.4,0,23.7,0.1c0.2,0,20.9-0.8,20.9-0.8l21.9-1.7l9.9-2.6l5.5-8.5l-0.2-17.5l-3.2-11.9l-5.6-14.2l-7-16.9l17.7,0.9l5.1-1
		l3.2,13.5l1.8,15.8l3.9,34.8l0.6,8l7.5,3.1l12.2,0.8l38.5-2.8l13.9-2.6l28.8-7.9l7.6-14.2l-0.7-12.8l-6.3-16.4l-1.9-12.6l-1.9-16.9
		l-3.7-30.3l-1.4-20.8l-8.4-6.5l-2-1.2l-1.4-1.5l-7.3,1.5l-15.7,2.6l-61.5,3.9l-19.2,1.3L389.1,633.3z"/>
</g>
<g id="Live_Outline" class="st4">
	<g class="st5">
		<path d="M518.5,245c-0.9,1.5-2.1,2.8-3.5,3.8s-3.2,1.5-4.9,1.6c-3.6,0.2-6.9-1.4-9.8-3.2c-0.8-0.5-1.4-1.1-2-1.8
			c-0.6-0.7-1.1-1.5-1.5-2.3c-0.8-1.7-1-3.6-0.9-5.4c0.1-1.8,0.5-3.6,1.1-5.2c0.6-1.7,1.3-3.3,2.2-4.9l0.9,1.5
			c-1.8,0.1-3.4-0.1-5.1-0.5c-1.6-0.4-3.2-1.1-4.7-1.9c-3-1.7-5.3-4.5-6.8-7.5c-1.5-3.1-2.2-6.7-1.4-10.2c0.4-1.7,1-3.4,1.9-4.9
			c0.5-0.8,1-1.5,1.5-2.2c0.6-0.7,1.1-1.3,1.9-2l0.3,3c-2.4-1.2-4.5-2.6-6.7-4.1c-2.1-1.6-4.2-3.3-5.9-5.8c-0.8-1.2-1.5-2.9-1.5-4.5
			c-0.1-1.6,0.2-3.1,0.6-4.5c0.4-1.4,1-2.7,1.6-3.9c0.7-1.2,1.4-2.3,2.3-3.5l2.7,2.9c-2.5,1.6-5,2.9-7.6,4c-1.3,0.6-2.7,1.1-4.1,1.4
			c-0.7,0.2-1.4,0.4-2.1,0.6c-0.8,0.1-1.4,0.3-2.3,0.3c-0.9,0.1-1.7,0-2.5-0.1c-0.8-0.2-1.6-0.4-2.3-0.7c-1.5-0.6-2.8-1.4-4-2.3
			c-1.2-0.9-2.3-1.9-3.3-3c-1-1.1-1.9-2.1-2.8-3.4l3.1,0.2c-1.2,1.2-2.3,2.1-3.6,3.1c-1.2,0.9-2.6,1.7-4,2.4c-2.8,1.4-5.8,2.3-9,2.5
			c-3.2,0.2-6.5-0.5-9.4-2c-1.4-0.7-2.8-1.6-4-2.5c-0.6-0.5-1.2-1-1.8-1.6c-0.6-0.6-1.1-1.1-1.7-1.8l2.9,0.2c-1.3,1.1-2.5,2-3.9,2.9
			c-1.3,0.9-2.7,1.7-4.2,2.4c-2.9,1.4-6.2,2.5-9.7,2.5c-1.8-0.1-3.6-0.4-5.2-1.1c-1.6-0.7-3.1-1.6-4.4-2.6c-1.3-1-2.5-2.2-3.6-3.4
			c-1.1-1.2-2-2.5-3-4l3.2,0.3c-1.7,1.9-3.7,3.7-6.1,5c-2.4,1.3-5.4,1.9-8.2,1.5c-2.8-0.4-5.3-1.7-7.4-3.3c-1.1-0.8-2-1.7-2.9-2.6
			c-0.9-1-1.7-1.9-2.5-3.1l3.4-0.1c-2.1,3.7-4.9,7-8.3,9.6c-3.4,2.6-7.6,4.5-12.2,4.7c-2.2,0.1-4.6-0.3-6.7-1.1
			c-2.1-0.8-4-2.1-5.7-3.6c-1.6-1.5-2.9-3.3-4-5.2c-0.6-0.9-1-1.9-1.5-2.9c-0.4-1-0.8-2-1.1-3c-0.7-2-1.2-4-1.6-6.1
			c-0.2-1-0.4-2.1-0.5-3.1c-0.1-1.1-0.2-2.1-0.3-3.1c-0.1-2.1,0-4.3,0.3-6.4c0.3-2.1,1-4.3,1.9-6.3c1.9-4,5.1-7.3,8.9-9.5
			c1.9-1.1,3.9-1.9,5.9-2.6c1-0.3,2.1-0.6,3.1-0.8c1.1-0.2,2.1-0.4,3.3-0.5l-1.9,1.7c0.1-0.5,0.2-0.8,0.3-1.2s0.2-0.7,0.3-1
			c0.2-0.7,0.5-1.3,0.8-2c0.5-1.3,1.2-2.5,2-3.7c1.5-2.3,3.3-4.4,5.3-6.3c1-1,2.1-1.8,3.1-2.6l1.7-1.2l0.8-0.6l0.9-0.5l1.7-1
			c0.6-0.3,1.2-0.6,1.8-0.9c0.6-0.3,1.2-0.6,1.8-0.9l1.9-0.8c2.5-1,5.2-1.7,7.9-2.1c2.7-0.3,5.4-0.6,8.1-0.3c2.7,0.2,5.4,0.6,8,1.3
			c1.3,0.4,2.6,0.8,3.9,1.3c0.6,0.2,1.3,0.5,1.9,0.8c0.6,0.3,1.2,0.6,1.9,1l-3,1.4c0-0.3,0.1-0.5,0.1-0.7c0-0.2,0.1-0.4,0.2-0.6
			c0.1-0.4,0.2-0.8,0.4-1.2c0.3-0.8,0.6-1.5,0.9-2.3c0.7-1.5,1.5-2.9,2.6-4.2c2-2.6,4.5-4.8,7.4-6.3l2.2-1.1
			c0.7-0.3,1.5-0.6,2.3-0.8l1.1-0.4l1.2-0.3l2.3-0.5c0.8-0.1,1.6-0.2,2.4-0.3c0.8-0.1,1.6-0.2,2.4-0.2c1.6,0,3.1-0.1,4.7,0
			c6.2,0.3,12.6,1.9,18,5.5c2.7,1.8,5,4.1,6.9,6.8c1,1.3,1.7,2.7,2.4,4.2c0.3,0.8,0.6,1.5,0.9,2.3c0.3,0.8,0.5,1.5,0.7,2.5l-3.9,0.7
			c-0.1-0.6-0.1-0.9-0.1-1.3c0-0.4,0-0.8,0.1-1.2l0.2-1.2c0.1-0.4,0.2-0.8,0.3-1.1c0.1-0.4,0.3-0.7,0.4-1.1l0.2-0.5l0.3-0.5
			c0.2-0.3,0.4-0.7,0.6-1l0.7-0.9c2-2.3,4.6-3.8,7.2-4.8c1.3-0.6,2.7-0.8,4-1.2c1.3-0.3,2.7-0.4,4-0.7l4-0.3c1.4,0,2.7,0,4.1,0.1
			c5.5,0.3,11,2.3,15.4,5.8c2.1,1.8,4,4,5.4,6.4c0.4,0.6,0.7,1.2,1,1.8c0.3,0.6,0.6,1.2,0.9,1.9c0.5,1.3,1,2.6,1.3,4.1l-3.9-0.3
			c0.2-0.5,0.4-0.9,0.6-1.2c0.2-0.4,0.4-0.7,0.6-1.1c0.2-0.4,0.5-0.7,0.7-1c0.2-0.3,0.5-0.7,0.8-1c1.1-1.3,2.4-2.3,3.8-3.2
			c2.9-1.7,6.2-2.6,9.3-2.7c0.8-0.1,1.6,0,2.4,0l1.2,0.1c0.4,0,0.8,0.1,1.2,0.2l2.3,0.4c0.8,0.1,1.5,0.4,2.2,0.6
			c0.7,0.2,1.5,0.4,2.2,0.6l2.1,0.8c0.7,0.3,1.4,0.5,2.1,0.8l2.1,1c0.7,0.3,1.4,0.7,2.1,1l2,1.2l1,0.6c0.3,0.2,0.7,0.4,1,0.7
			l1.8,1.5c0.3,0.2,0.6,0.5,0.9,0.8l0.8,0.8c0.5,0.6,1.1,1.1,1.6,1.7c0.9,1.3,2,2.5,2.7,3.9c1.6,2.8,2.6,5.8,3.1,9
			c0.1,0.8,0.2,1.6,0.2,2.4c0,0.8,0.1,1.6,0,2.4l-0.1,1.2l-0.1,1.2c-0.1,0.8-0.2,1.5-0.5,2.5l-2.1-2.5c2.2-0.2,4.3-0.2,6.4,0
			c2.1,0.2,4.3,0.5,6.4,1.1c2.1,0.6,4.2,1.4,6.2,2.6c1.9,1.2,3.7,3,4.8,5.1c2.1,4.2,2.4,9,1.4,13.2c-0.5,2.1-1.2,4.2-2.2,6.1
			c-1,1.9-2,3.7-3.4,5.5l-1.3-2.8c0.9,0.1,1.6,0.2,2.3,0.3c0.4,0.1,0.7,0.2,1.1,0.3c0.4,0.1,0.7,0.2,1.1,0.4c1.4,0.5,2.7,1.2,4,2
			c2.5,1.7,4.4,4.1,5.7,6.7c0.3,0.6,0.5,1.3,0.8,2c0.3,0.7,0.5,1.4,0.6,2.1c0.2,0.7,0.4,1.4,0.5,2.1l0.3,2.1
			c0.2,2.8,0.3,5.6-0.2,8.4c-0.4,2.8-1.3,5.5-2.7,8c-1.3,2.5-3.1,4.7-5.1,6.6c-4.1,3.8-9.1,6.4-14.4,7.8l0-0.7
			c1.2,0.4,2.2,0.9,3.2,1.6c1,0.7,1.8,1.6,2.4,2.6c0.3,0.5,0.5,1.1,0.8,1.6c0.1,0.6,0.3,1.1,0.3,1.7c0.1,0.6,0,1.2,0,1.7
			c-0.1,0.6-0.2,1.1-0.3,1.7c0.1-0.6,0.2-1.1,0.2-1.7c0-0.6,0.1-1.1-0.1-1.7c0-0.6-0.2-1.1-0.4-1.6c-0.2-0.5-0.5-1-0.8-1.5
			c-0.6-0.9-1.5-1.7-2.4-2.3c-0.9-0.6-2-1.1-3-1.4c-0.2-0.1-0.3-0.2-0.2-0.4c0-0.1,0.1-0.2,0.2-0.2h0c2.5-0.8,5-1.9,7.3-3.2
			c2.3-1.4,4.4-3,6.3-4.9c1.9-1.9,3.4-4.1,4.5-6.4c1.1-2.4,1.8-4.9,2.1-7.5c0.3-2.6,0.1-5.2-0.2-7.8l-0.3-1.9
			c-0.1-0.6-0.3-1.2-0.5-1.9c-0.2-0.6-0.3-1.2-0.6-1.8c-0.3-0.6-0.5-1.2-0.8-1.7c-1.2-2.2-2.9-4.1-4.9-5.4c-1-0.6-2.1-1.2-3.3-1.5
			c-0.3-0.1-0.6-0.2-0.9-0.2c-0.3-0.1-0.6-0.1-0.9-0.2c-0.6-0.1-1.2-0.2-1.7-0.2c-1,0-1.7-0.8-1.7-1.8c0-0.4,0.1-0.7,0.3-1l0-0.1
			c1-1.5,2-3.2,2.8-5c0.8-1.8,1.3-3.6,1.7-5.4c0.3-1.8,0.5-3.7,0.3-5.4c0-0.4-0.1-0.9-0.2-1.3c-0.1-0.4-0.1-0.9-0.3-1.3l-0.4-1.3
			c-0.1-0.4-0.3-0.8-0.5-1.2c-1.5-3-4.8-4.9-8.4-5.8c-3.6-1-7.6-1.2-11.4-0.9c-1.1,0.1-2.1-0.8-2.2-1.9c0-0.2,0-0.4,0-0.6l0,0
			c0.1-0.5,0.3-1.2,0.3-1.9l0.1-1l0-1c0-0.7,0-1.4,0-2c0-0.7-0.1-1.3-0.2-2c-0.4-2.7-1.3-5.2-2.6-7.6c-0.6-1.2-1.5-2.2-2.3-3.3
			c-0.4-0.5-0.9-1-1.4-1.5l-0.7-0.7c-0.2-0.2-0.5-0.4-0.8-0.7l-1.6-1.3c-0.3-0.2-0.5-0.4-0.8-0.6l-0.9-0.6l-1.8-1.1
			c-0.6-0.3-1.2-0.6-1.9-0.9l-1.9-0.9c-0.6-0.3-1.3-0.5-2-0.8l-2-0.7c-0.7-0.2-1.3-0.4-2-0.6c-0.7-0.2-1.3-0.4-2-0.5l-2-0.3
			c-0.3-0.1-0.7-0.1-1-0.2l-1,0c-0.7,0-1.4-0.1-2,0c-2.7,0.1-5.2,0.8-7.4,2.1c-1,0.7-2.1,1.5-2.9,2.5c-0.2,0.2-0.4,0.5-0.6,0.7
			c-0.2,0.2-0.4,0.5-0.5,0.8c-0.2,0.3-0.3,0.5-0.5,0.8c-0.1,0.2-0.3,0.6-0.4,0.7l0,0.1c-0.4,1-1.6,1.5-2.6,1.1
			c-0.6-0.3-1-0.8-1.2-1.4c-0.2-1-0.6-2.2-1.1-3.3c-0.2-0.6-0.5-1.1-0.7-1.6c-0.2-0.6-0.6-1.1-0.9-1.6c-1.2-2-2.8-3.8-4.6-5.4
			c-3.7-2.9-8.3-4.7-13.1-4.9l-3.7-0.1l-3.7,0.3c-1.2,0.2-2.4,0.3-3.6,0.6c-1.2,0.3-2.4,0.6-3.4,1c-2.2,0.8-4.2,2-5.6,3.6l-0.5,0.6
			l-0.4,0.7l-0.2,0.3l-0.1,0.4c-0.1,0.2-0.2,0.5-0.3,0.7l-0.2,0.7l-0.1,0.8c0,0.2-0.1,0.5,0,0.8c0,0.2,0,0.5,0,0.6v0
			c0.1,1.1-0.7,2.1-1.8,2.2c-1,0.1-2-0.6-2.2-1.6c-0.1-0.5-0.3-1.2-0.5-1.8c-0.2-0.7-0.5-1.3-0.8-1.9c-0.6-1.2-1.3-2.4-2.1-3.6
			c-1.6-2.2-3.6-4.2-5.9-5.8c-4.6-3.1-10.3-4.5-16-4.8c-1.4-0.1-2.9,0-4.3,0c-0.7,0-1.4,0.1-2.1,0.2c-0.7,0.1-1.4,0.1-2.1,0.2
			l-2,0.5l-1,0.2l-1,0.3c-0.6,0.2-1.3,0.4-2,0.7l-1.9,0.9c-2.4,1.3-4.5,3.1-6.1,5.3c-0.9,1.1-1.5,2.2-2.1,3.5
			c-0.3,0.6-0.6,1.2-0.8,1.9c-0.2,0.6-0.4,1.3-0.5,1.8l0,0c-0.2,1.1-1.3,1.8-2.4,1.6c-0.2,0-0.4-0.1-0.6-0.2
			c-0.9-0.5-2.1-1.1-3.2-1.5c-1.1-0.4-2.3-0.8-3.5-1.2c-2.4-0.7-4.8-1-7.2-1.2c-2.4-0.2-4.9,0-7.3,0.3c-2.4,0.4-4.8,1-7,1.9
			l-1.7,0.7c-0.6,0.2-1.1,0.5-1.7,0.8c-0.5,0.3-1.1,0.5-1.6,0.8l-1.6,0.9l-0.8,0.5l-0.8,0.5l-1.5,1c-0.9,0.8-1.9,1.5-2.8,2.3
			c-1.8,1.7-3.4,3.5-4.6,5.5c-0.6,1-1.2,2.1-1.7,3.1c-0.2,0.5-0.5,1.1-0.6,1.6c-0.1,0.3-0.2,0.6-0.2,0.8c-0.1,0.2-0.1,0.6-0.2,0.7
			l0,0c-0.2,0.9-1,1.6-1.9,1.7c-0.8,0.1-1.8,0.2-2.7,0.4c-0.9,0.2-1.8,0.4-2.7,0.7c-1.8,0.6-3.5,1.3-5.1,2.2
			c-3.2,1.8-5.8,4.5-7.3,7.8c-1.6,3.2-2,7-1.9,10.8c0,0.9,0.2,1.9,0.2,2.8c0.2,0.9,0.3,1.9,0.5,2.8c0.4,1.9,0.8,3.8,1.5,5.5
			c0.3,0.9,0.7,1.8,1,2.6c0.4,0.8,0.8,1.7,1.3,2.5c0.9,1.6,2,3.1,3.3,4.3c2.6,2.5,5.9,3.8,9.5,3.7c3.5-0.1,7-1.6,9.9-3.9
			c3-2.2,5.4-5.2,7.2-8.4c0.5-1,1.8-1.3,2.7-0.7c0.3,0.1,0.5,0.4,0.6,0.6l0,0c0.5,0.8,1.3,1.7,2.1,2.5c0.8,0.8,1.6,1.6,2.5,2.2
			c1.7,1.3,3.6,2.3,5.6,2.6c2,0.3,3.9-0.1,5.8-1.1c1.8-1,3.5-2.4,5-4.1c0.7-0.8,2-0.9,2.8-0.2c0.1,0.1,0.3,0.3,0.4,0.4l0,0.1
			c0.7,1.1,1.6,2.3,2.5,3.3c0.9,1.1,2,2,3,2.9c2.2,1.7,4.6,2.8,7.2,2.8c2.6,0,5.3-0.8,7.9-2.1c2.5-1.2,5-2.9,7.1-4.7
			c0.9-0.7,2.1-0.6,2.9,0.2l0,0l0,0c0.3,0.4,0.8,0.9,1.3,1.4c0.5,0.5,1,0.9,1.5,1.3c1,0.8,2.1,1.5,3.3,2.1c2.3,1.2,4.8,1.7,7.3,1.6
			c2.6-0.2,5.1-0.9,7.5-2.1c1.2-0.6,2.3-1.3,3.4-2.1c1.1-0.8,2.2-1.7,3-2.5c0.8-0.8,2.1-0.8,2.9,0c0.1,0.1,0.2,0.2,0.2,0.3
			c1.4,2,3.3,4,5.2,5.4c1,0.8,2,1.4,3.1,1.8c0.5,0.2,1.1,0.3,1.6,0.5c0.5,0,1,0.1,1.6,0.1c0.5,0,1.1-0.2,1.8-0.3
			c0.6-0.1,1.2-0.3,1.9-0.5c1.2-0.4,2.5-0.8,3.7-1.3c2.4-1,4.8-2.3,6.9-3.6c0.9-0.6,2.2-0.3,2.8,0.6c0.5,0.7,0.4,1.6-0.1,2.3l0,0
			c-1.3,1.7-2.5,3.9-3.1,6c-0.3,1-0.5,2.1-0.4,3c0.1,0.9,0.4,1.7,0.9,2.6c1.1,1.8,2.9,3.4,4.7,4.9c1.9,1.5,4,2.9,6,4.1l0,0
			c0.9,0.5,1.1,1.6,0.7,2.4c-0.1,0.2-0.3,0.4-0.4,0.5c-0.4,0.4-1,0.9-1.5,1.4c-0.5,0.5-0.9,1.1-1.3,1.7c-0.8,1.2-1.4,2.5-1.7,3.9
			c-0.3,1.4-0.5,2.8-0.3,4.2l0,0.5l0.1,0.5l0.2,1.1c0.2,0.7,0.5,1.4,0.7,2.1c0.6,1.3,1.3,2.6,2.3,3.8c0.4,0.6,1,1.1,1.5,1.6
			c0.6,0.4,1.1,0.9,1.8,1.3c2.5,1.6,5.5,2.5,8.4,2.5h0.1c0.5,0,1,0.4,1,1c0,0.2-0.1,0.4-0.1,0.5c-1.7,2.7-3.1,5.9-3.4,9.2
			c-0.2,1.6,0,3.2,0.6,4.7c0.3,0.7,0.7,1.4,1.2,2.1c0.5,0.6,1.1,1.2,1.8,1.7c2.7,2,5.8,3.6,9.2,3.6c1.7,0,3.4-0.4,4.8-1.3
			C516.3,247.7,517.6,246.5,518.5,245z"/>
	</g>
	<g class="st5">
		<path d="M517.7,257.6c2.1-4.3,5-8.2,8.4-11.7c3.8-3,8.2-5.7,13.2-6.8c2.5-0.6,5.1-0.7,7.7-0.4s5.1,1.3,7.3,2.5
			c2.2,1.2,4.3,2.9,6,4.8c1.7,1.9,3,4.2,4,6.6c1.8,4.8,2,10,1.5,14.8c-0.5,4.8-1.8,9.6-3.7,14.1c-1.9,4.5-4.5,8.7-7.7,12.4
			c-0.9,0.8-1.8,1.6-2.8,2.4c-0.9,0.7-1.8,1.5-2.8,2.2c-1.9,1.5-3.7,2.9-5.6,4.3c1.3-2,2.7-3.9,4.1-5.8c0.7-1,1.4-1.9,2.1-2.9
			c0.7-0.9,1.3-1.9,1.9-2.8c2.9-3.5,5.3-7.3,7-11.4c1.8-4.1,2.9-8.5,3.4-13c0.5-4.4,0.3-9-1.2-12.9c-1.5-4-4.4-7.2-8.1-9.3
			c-1.9-1-3.8-1.8-5.9-2c-2.1-0.3-4.2-0.2-6.2,0.3c-4.2,1-8.1,3.3-11.5,6.1C524.8,251.4,521.2,254.3,517.7,257.6z"/>
	</g>
	<g class="st5">
		<path d="M541.9,315.7c0.6-1.4,0.7-3,0.4-4.6c-0.3-1.5-0.8-3-1.4-4.3c-0.3-0.7-0.6-1.3-0.8-1.9c-0.1-0.6-0.4-1.2-0.7-1.8
			c-0.6-1.1-1.4-1.9-2.5-2.4c-1-0.5-2.3-0.8-3.6-0.7c-1.3,0-2.4,0.4-3.4,1c-2,1.2-3.5,3.8-4.3,6.5c-0.4,1.4-0.7,2.8-0.9,4.2
			c-0.2,1.5-0.2,2.9,0,4.3c0.2,2.8,1.3,5.4,3.2,6.2c0.5,0.2,1,0.4,1.6,0.4c0.3,0,0.6,0,0.9,0c0.3,0,0.6,0,0.9-0.1
			c1.2-0.2,2.5-0.6,3.5-1.4c0.5-0.3,1.2-0.5,1.9-0.8c0.7-0.3,1.3-0.6,2-1C540.2,318.3,541.3,317.1,541.9,315.7z M541.9,315.7
			c-0.7,1.4-1.2,2.9-1.8,4.5c-0.3,0.8-0.7,1.6-1.2,2.3c-0.2,0.4-0.5,0.7-0.8,1.1c-0.3,0.3-0.6,0.7-1,0.9c-1.6,0.9-3.3,1.6-5.2,1.8
			c-0.5,0.1-0.9,0.1-1.4,0.1c-0.5,0-0.9,0-1.4,0c-1-0.1-2-0.3-2.9-0.8c-1.9-0.9-3.3-2.6-4.1-4.3c-0.8-1.7-1.2-3.5-1.3-5.2
			c-0.2-1.7-0.1-3.4,0-5.1c0.2-1.7,0.5-3.3,1-5c0.5-1.6,1.2-3.2,2.1-4.7c0.9-1.5,2.2-2.9,3.9-3.9s3.6-1.5,5.4-1.6
			c1.8,0,3.7,0.3,5.5,1.1c1.8,0.9,3.2,2.4,4.1,4c0.5,0.8,0.8,1.7,1.2,2.5c0.3,0.9,0.3,1.8,0.3,2.6c0,1.7-0.5,3.4-0.9,5
			C543,312.7,542.5,314.2,541.9,315.7z"/>
	</g>
	<g class="st5">
		<path d="M522.2,330c-3.2,4.5-6.5,9-9.8,13.3c-3.4,4.4-6.8,8.7-10.3,13c-1.7,2.1-3.5,4.3-5.3,6.4c-0.9,1.1-1.8,2.1-2.7,3.1
			c-0.9,1-1.9,2-2.8,3c-3.8,4-7.6,8-11.6,11.9c-7.8,7.8-16,15.3-24.5,22.4c-4.3,3.5-8.7,6.9-13.3,10c-4.6,3.1-9.4,6.1-14.5,8.5h0
			c-0.6,0.3-1.4,0.2-1.9-0.1c-15.7-9.8-31-20.1-46-30.9c-15-10.8-29.7-22-43.6-34.3c-1.7-1.5-3.4-3.1-5.1-4.7
			c-1.6-1.6-3.4-3.2-5-4.9c-3.3-3.3-6.4-6.8-9.3-10.5l-2.1-2.9c-0.7-1-1.3-2-2-3c-0.7-1-1.2-2.1-1.8-3.1c-0.6-1.1-1-2.2-1.5-3.2
			c-1.9-4.4-3.3-9-3.9-13.8c-0.1-1.2-0.3-2.4-0.3-3.6c-0.1-1.2,0-2.4,0-3.6c0.1-2.4,0.5-4.9,1.3-7.2c0.7-2.3,1.6-4.6,2.8-6.7
			c1.2-2.1,2.6-4.1,4.2-5.9c3.2-3.6,7.1-6.5,11.3-8.5c4.3-2,9-3,13.6-2.5c-4.6,0-9.1,1.5-13,3.7c-3.9,2.2-7.3,5.3-10,8.8
			c-1.3,1.8-2.4,3.7-3.3,5.7c-0.9,2-1.5,4.1-2,6.2c-0.5,2.1-0.6,4.3-0.9,6.5c-0.1,2.2-0.1,4.4,0.2,6.5c0.5,4.4,1.8,8.6,3.6,12.7
			c0.5,1,0.9,2.1,1.4,3c0.5,1,1,1.9,1.6,2.9c0.6,0.9,1.2,1.9,1.8,2.8l2,2.7c2.8,3.5,5.8,6.9,9,10.2c1.6,1.6,3.2,3.2,4.9,4.8
			c1.7,1.5,3.3,3.1,5,4.6c13.6,12.2,28.3,23.4,43.2,34.1c15,10.7,30.2,21,45.8,30.7l-1.9-0.1c4.8-2.3,9.5-5.1,14-8.2
			c4.5-3.1,8.8-6.3,13.1-9.8c8.5-6.9,16.5-14.4,24.2-22.1c7.8-7.7,15.1-15.9,22.9-23.7C507.4,346.2,515,338.2,522.2,330z"/>
	</g>
	<g class="st5">
		<path d="M328.9,242.9c0.3-4,1.1-8,1.9-12c1.5-3.7,3-7.5,4.7-11.1c1.7-3.6,3.6-7.2,6-10.6c1.2-1.7,2.5-3.4,4-4.9
			c1.5-1.5,3.3-3,5.6-3.8c2.3-0.9,5.2-0.7,7.4,0.5c2.2,1.2,3.7,2.9,5,4.6c1.3,1.7,2.3,3.6,3.2,5.4c0.9,1.9,1.7,3.7,2.4,5.6
			c1.4,3.8,2.6,7.6,3.6,11.5c0.4,4,0.8,8.1,0.8,12.1c-1.6-3.7-3.1-7.4-4.7-11.1c-1-3.8-2.1-7.5-3.5-11.1c-1.4-3.6-3-7.1-5.1-10.1
			c-1.1-1.4-2.3-2.7-3.7-3.4c-0.7-0.4-1.3-0.6-2-0.6c-0.7-0.1-1.4,0.1-2.1,0.3c-1.4,0.5-2.8,1.6-4.1,2.9c-1.3,1.3-2.4,2.8-3.5,4.4
			c-2.1,3.1-4,6.6-5.6,10.1c-1.6,3.5-3.2,7.1-4.5,10.8C332.7,235.8,330.9,239.4,328.9,242.9z"/>
	</g>
	<g class="st5">
		<path d="M395.8,211.6c1.3,1.8,2.3,3.6,3.2,5.5c0.3,2,0.7,4,0.9,6.1c0.5,4.1,0.8,8.1,0.9,12.2c0.1,4.1-0.1,8.2-0.6,12.3
			c-0.3,2.1-0.6,4.1-1.1,6.1c-1,1.9-2.3,3.7-3.6,5.3c-0.2-2.2-0.1-4.2-0.3-6.2c0.5-1.9,0.8-3.8,1-5.7c0.5-3.9,0.7-7.8,0.6-11.8
			c-0.1-3.9-0.4-7.9-0.9-11.8c-0.3-2-0.5-3.9-0.9-5.9C395.3,215.9,395.5,213.8,395.8,211.6z"/>
	</g>
	<g class="st5">
		<path d="M417.1,247.1c0.6-4.4,1.7-8.7,2.9-13c1.8-4,3.7-8.1,5.9-11.9c2.2-3.9,4.6-7.7,7.7-11.1c1.6-1.7,3.3-3.3,5.6-4.6
			c1.1-0.6,2.4-1.1,3.7-1.3c1.4-0.2,2.8-0.2,4.1,0.3c1.3,0.4,2.5,1.1,3.5,1.9c1,0.8,1.9,1.7,2.6,2.6c1.5,1.9,2.7,3.9,3.7,5.9
			c2,4.1,3.5,8.4,4.7,12.6c1.2,4.3,2.2,8.6,3.1,12.9c0.3,4.4,0.5,8.9,0.4,13.3l-4.3-12.5c-0.9-4.2-1.9-8.5-3.1-12.6
			c-1.2-4.1-2.6-8.2-4.4-12c-0.9-1.9-2-3.7-3.2-5.2c-1.2-1.5-2.7-2.8-4.2-3.2c-1.5-0.5-3.2-0.1-4.8,0.7c-1.6,0.9-3.1,2.3-4.5,3.8
			c-2.8,3.1-5.1,6.7-7.2,10.4c-2.1,3.8-4,7.6-5.7,11.6C421.4,239.5,419.3,243.3,417.1,247.1z"/>
	</g>
	<g class="st5">
		<path d="M420.2,289.9c-0.9-2.9-2.3-5.7-3.9-8.3c-1.6-2.6-3.5-4.9-5.7-6.9c-2.2-2-4.7-3.6-7.4-4.7c-2.7-1-5.5-1.6-8.4-1.7
			c-0.7,0-1.4,0-2.2,0c-0.7,0.1-1.4,0.1-2.2,0.1c-1.5,0.1-2.9,0.2-4.3,0.5c-1.4,0.2-2.8,0.6-4.1,1.1c-1.3,0.5-2.6,1.1-3.7,1.8
			c-2.3,1.5-4,3.6-5,6c-0.5,1.2-0.8,2.6-0.9,3.9c-0.1,0.7-0.1,1.4-0.1,2c0,0.7,0.1,1.4,0.2,1.9l0,0.1c0.1,0.7-0.1,1.3-0.5,1.8
			c-3.1,3.1-6.3,6.1-9.5,9.1c-3.3,3-6.5,5.9-10.3,8.5c-1,0.6-1.9,1.3-3.4,1.8c-0.2,0.1-0.4,0.1-0.7,0.2l-0.3,0.1c-0.1,0,0,0,0,0
			c0,0,0.1,0,0.1-0.1c0.1-0.1,0.3-0.4,0.3-0.5c0-0.1,0,0,0,0c0,0.2,0.2,0.6,0.5,1c0.2,0.4,0.5,0.8,0.8,1.1c0.6,0.8,1.3,1.5,2,2.2
			c0.4,0.4,0.7,0.7,1.1,1c0.2,0.1,0.4,0.3,0.5,0.4c0.2,0.1,0.4,0.2,0.3,0.2c-0.1,0,0.1,0,0.2,0l0.3,0.1c0.2,0,0.4,0.1,0.7,0.1
			l1.6,0.2c2.1,0.2,4.3,0.5,6.4,0.6c8.6,0.6,17.3,0.9,26,0.8c8.6-0.1,17.3-0.5,25.8-1.8l3.2-0.5l3.1-0.6c2.1-0.4,4.1-1,6.1-1.6
			c2.1-0.7,4.5-1.3,7-1.3c2.5-0.1,5.4,0.7,7.4,2.6c2,1.9,3,4.4,3.5,6.8c0.5,2.4,0.6,4.7,0.6,7c-0.1,2.3-0.3,4.5-0.6,6.8
			c-0.3,2.3-1,4.6-1.9,6.8c-0.9,2.2-2.1,4.2-3.6,6.1c-1.5,1.8-3,3.5-4.7,5c-3.4,3-7.3,5.6-11.7,7.2c-4.3,1.7-8.9,2.5-13.5,2.6
			l-1.7,0l-1.7-0.1c-1.1-0.1-2.3-0.1-3.4-0.3l-1.7-0.2c-0.6-0.1-1.1-0.2-1.7-0.3c-1.1-0.3-2.2-0.6-3.3-0.9l-0.1,0c0,0-0.1,0-0.1,0
			c-1.2-0.5-2.5-0.8-3.6-0.6c-1,0.2-2,0.9-2.6,2c-1.4,2.3-1.7,5.4-0.9,8.2c0.8,2.8,2.7,5.3,5.1,7.3c2.4,2,5.2,3.4,8.3,4.3
			c-3.1-0.5-6.2-1.6-8.9-3.4c-1.4-0.9-2.6-2-3.7-3.2c-1.1-1.2-2-2.7-2.7-4.3c-1.3-3.2-1.3-7,0.3-10.2c0.4-0.8,1-1.7,1.7-2.4
			c0.7-0.7,1.7-1.3,2.7-1.5c2.1-0.6,4-0.2,5.7,0.4l-0.2,0c2.1,0.4,4.1,0.8,6.2,1.1c0.5,0.1,1,0.2,1.5,0.2l1.5,0.1l1.5,0.1l1.5,0
			c4.1,0,8.2-0.8,12.1-2.3c3.9-1.5,7.3-3.8,10.5-6.5c1.5-1.4,3-2.9,4.3-4.5c1.2-1.6,2.3-3.3,3-5.2c0.8-1.9,1.3-3.8,1.6-5.8
			c0.3-2.1,0.5-4.2,0.6-6.2c0-2.1,0-4.1-0.5-6c-0.4-1.9-1.2-3.6-2.4-4.7c-1.2-1.1-2.8-1.6-4.6-1.6c-1.9,0-3.8,0.5-5.8,1.1
			c-2.2,0.6-4.3,1.3-6.5,1.7l-3.3,0.7l-3.3,0.5c-8.8,1.3-17.6,1.7-26.3,1.8c-8.8,0.1-17.5-0.2-26.3-0.9c-2.2-0.2-4.4-0.4-6.6-0.6
			c-1.2-0.2-2.1-0.2-3.7-0.7c-0.5-0.2-0.8-0.4-1.1-0.6c-0.3-0.2-0.5-0.4-0.8-0.6c-0.5-0.4-0.9-0.8-1.3-1.2c-0.9-0.8-1.6-1.7-2.4-2.7
			c-0.4-0.5-0.7-1-1-1.5c-0.3-0.6-0.6-1.2-0.9-2c-0.1-0.4-0.2-0.9-0.1-1.6c0.1-0.6,0.4-1.4,1-1.9c0.5-0.5,1.1-0.7,1.6-0.8l0.3-0.1
			l0.1,0l0,0c0,0,0.1,0,0.1,0c0.6-0.2,1.5-0.8,2.4-1.3c3.4-2.4,6.6-5.3,9.8-8.2c3.2-2.9,6.3-5.9,9.4-9l-0.5,1.8
			c-0.2-1-0.2-1.8-0.3-2.6c0-0.9,0-1.7,0.1-2.5c0.2-1.7,0.5-3.4,1.2-5c1.2-3.2,3.6-6.1,6.5-7.9c1.4-0.9,3-1.7,4.5-2.2
			c1.6-0.5,3.1-1,4.8-1.3c1.6-0.3,3.2-0.5,4.8-0.6c0.8,0,1.6,0,2.4,0c0.8,0,1.6,0.1,2.4,0.2c3.2,0.4,6.4,1.3,9.3,2.8
			c2.9,1.5,5.5,3.5,7.6,5.9C416.4,278,419,283.9,420.2,289.9z"/>
	</g>
	<g class="st5">
		<path d="M396.4,319c1.7,0.5,3.3,1.5,4.8,2.4c0.5,0.7,1,1.4,1.5,2.1c0.5,0.7,0.9,1.4,1.3,2.1c1.7,2.9,3.1,6,4.2,9.2
			c1,3.2,1.8,6.5,2,9.9c0.2,1.7,0.2,3.4,0.2,5c-0.3,0.8-0.7,1.6-1.1,2.4c-0.4,0.8-0.8,1.6-1.3,2.3c-0.3-0.9-0.6-1.7-0.9-2.5
			c-0.3-0.8-0.5-1.6-0.8-2.4c0-1.5,0-3.1-0.2-4.6c-0.2-3.1-0.9-6.1-1.9-9c-0.9-2.9-2.2-5.7-3.8-8.4c-0.8-1.3-1.6-2.6-2.6-3.8
			C397.5,322.2,396.9,320.7,396.4,319z"/>
	</g>
	<g class="st5">
		<path d="M478.2,98.5c1.9-1.7,3.6-3.4,5.3-5.2c0.4-0.4,0.8-0.9,1.3-1.3c0.5-0.3,1-0.7,1.5-1c0.9-0.7,1.9-1.5,2.7-2.3
			c1.8-1.6,3.5-3.2,5.1-4.9c1.6-1.7,3.1-3.6,4.5-5.5l0,0c0.7-0.9,1.9-1.1,2.8-0.4c0.1,0.1,0.2,0.2,0.4,0.3c2.1,2.5,4.2,5,6.4,7.4
			s4.4,4.8,6.7,7.2c2.3,2.3,4.7,4.6,7.1,6.7c0.3,0.2,0.7,0.4,0.9,0.8l0.8,1c0.5,0.6,1.1,1.2,1.6,1.8c0.5,0.6,1.1,1.2,1.7,1.8
			c0.6,0.6,1.2,1.1,1.9,1.6c-0.4-0.1-0.8-0.1-1.3-0.2c-0.4-0.1-0.9-0.1-1.3-0.3c-0.8-0.3-1.7-0.5-2.5-0.9c-0.8-0.4-1.6-0.7-2.4-1.1
			l-1.2-0.6c-0.4-0.2-0.7-0.5-1-0.8c-2.6-2.2-5-4.5-7.4-6.9c-2.3-2.4-4.6-4.8-6.9-7.3s-4.4-5-6.5-7.6l3.2-0.1c-1.5,2-3,4-4.8,5.9
			c-1.7,1.9-3.5,3.6-5.4,5.3c-0.9,0.8-1.9,1.6-2.9,2.4c-0.5,0.4-1,0.8-1.5,1.2c-0.5,0.4-1.1,0.6-1.7,0.8
			C483.1,97.2,480.7,98.1,478.2,98.5z"/>
	</g>
	<g class="st5">
		<path d="M523.7,97.9c3-0.2,6-0.2,8.9-0.3c2.8,0.6,5.7,1,8.5,1.5c2.8,0.5,5.7,0.9,8.5,1.2c2.8,0.3,5.7,0.6,8.4,0.6h0
			c1,0,1.8,0.7,2,1.6c0.5,3,1,5.9,1.5,8.9c0.4,3,0.8,5.9,1.1,8.9c0.3,3,0.4,6,0.5,9.1l-0.5,2.3c-0.2,0.8-0.4,1.5-0.6,2.3
			c-0.2,0.8-0.6,1.5-0.8,2.2c-0.3,0.7-0.8,1.4-1.1,2c0-0.8,0.1-1.5,0-2.3c-0.1-0.8-0.1-1.5-0.2-2.2c-0.1-0.7-0.2-1.5-0.3-2.2
			l-0.4-2.2c0-2.9-0.2-5.8-0.5-8.7c-0.3-2.9-0.6-5.8-1-8.8c-0.4-2.9-0.9-5.8-1.4-8.7l2,1.6c-3.1,0.1-6.1-0.2-9-0.6
			c-2.9-0.4-5.8-0.8-8.7-1.3c-2.9-0.5-5.8-1-8.6-1.5C529.1,100.5,526.3,99.3,523.7,97.9z"/>
	</g>
	<g class="st5">
		<path d="M502.3,74.2c-1.8-1.8-3.5-3.9-5-6c-1.5-2.2-2.8-4.5-3.8-7c-0.5-1.2-0.9-2.5-1.3-3.9c-0.3-1.3-0.6-2.8-0.5-4.2
			c0-1.4,0.3-2.9,0.7-4.3c0.4-1.4,1-2.8,1.7-4c0.8-1.2,1.7-2.4,2.7-3.4l0.8-0.8l0.8-0.7c0.5-0.5,1.1-0.9,1.7-1.3
			c1.2-0.8,2.4-1.5,3.8-2c1.4-0.5,2.9-0.8,4.5-0.8s3.1,0.3,4.5,0.9c1.4,0.6,2.7,1.4,3.8,2.4c1.1,1,2.1,2,2.9,3.1
			c0.9,1.1,1.6,2.2,2.3,3.6l-3.8,1.1c-0.3-2.6-0.2-5-0.1-7.5c0.2-2.5,0.6-4.9,1.3-7.3c0.7-2.4,1.8-4.8,3.2-7c1.5-2.2,3.5-4,5.8-5.3
			c2.3-1.3,4.9-2.1,7.4-2.4c2.5-0.3,5.1-0.3,7.5,0.1c4.9,0.5,9.8,1.9,14.1,4.8c4.3,2.8,7.6,7.1,9.4,11.9c0.9,2.4,1.5,4.8,1.8,7.3
			c0.2,1.2,0.2,2.5,0.2,3.8c0,0.7,0,1.2,0,1.8c0,0.6-0.1,1.2-0.1,1.9c-0.1,1.2-0.3,2.5-0.7,3.8c-0.1,0.6-0.3,1.3-0.6,1.9
			c-0.3,0.6-0.6,1.2-1,1.8c-1.4,2.3-3.7,4.1-6.2,5.1c-0.6,0.2-1.2,0.4-1.9,0.6c-0.6,0.1-1.2,0.2-1.9,0.3c-1.3,0.1-2.5,0.1-3.8-0.1
			c-1.2-0.3-2.5-0.8-3.4-1.5s-1.7-1.8-2.2-2.9c0.6,1,1.6,1.8,2.6,2.3c1,0.5,2.1,0.7,3.2,0.8c1.1,0,2.2-0.2,3.2-0.5
			c0.5-0.2,1-0.4,1.5-0.6c0.5-0.2,1-0.5,1.4-0.7c1.8-1.1,3.2-2.6,3.9-4.5c0.4-0.9,0.7-1.9,1-2.9c0.3-1,0.5-2.1,0.6-3.2
			c0-0.5,0.1-1.1,0.1-1.7c0-0.6,0-1.2,0-1.7c0-1.1,0-2.2-0.2-3.3c-0.3-2.2-0.7-4.3-1.5-6.4c-1.5-4.1-4.3-7.5-7.8-10
			c-3.6-2.4-8-3.7-12.4-4.2c-2.2-0.4-4.4-0.4-6.5-0.1c-2.1,0.2-4.2,0.9-5.9,1.9c-3.6,2-6,5.8-7.2,9.9c-0.6,2.1-1,4.3-1.2,6.5
			c-0.2,2.2-0.2,4.5,0,6.7c0.1,1.1-0.7,2.1-1.8,2.2c-0.8,0.1-1.6-0.4-2-1.1l0,0c-2-4-5.8-7.9-9.9-7.8c-2,0-4.1,0.8-6,2.2
			c-1.9,1.4-3.6,3-4.8,4.9c-1.1,1.9-1.8,4.1-1.8,6.4c-0.1,2.3,0,4.7,0.5,7.1C497.4,65,499.5,69.8,502.3,74.2z"/>
	</g>
	<g class="st5">
		<path d="M558.1,63.7c1.9,0.6,3.7,1.6,5.3,3c1.1,1.7,2,3.6,2.5,5.7c0.4,2.1,0.3,4.5-0.7,6.5c-0.2,0.5-0.5,1-0.8,1.4
			c-0.1,0.2-0.3,0.5-0.4,0.7l-0.5,0.6c-0.3,0.4-0.6,0.8-0.9,1.2l-1,1.1c-1.5,1.4-3.3,2.7-5.4,3.3c-2.1,0.7-4.3,0.8-6.3,0.5
			c-2-0.3-3.9-0.9-5.7-1.6c-1.6-1.3-3-2.6-4.2-4.2c2,0.1,3.9,0.4,5.7,0.4c1.6,0.6,3.2,1.1,4.8,1.3c1.6,0.2,3.1,0.1,4.5-0.3
			c1.4-0.4,2.7-1.3,3.8-2.4l0.8-0.9c0.3-0.3,0.5-0.7,0.8-1l0.4-0.5c0.1-0.2,0.2-0.3,0.3-0.5c0.2-0.3,0.4-0.6,0.5-1
			c0.6-1.3,0.7-2.7,0.4-4.2c-0.3-1.4-1-2.9-1.9-4.2C559.6,67.2,558.9,65.5,558.1,63.7z"/>
	</g>
	<g class="st5">
		<path d="M568,33.2c2.3-1.2,4.8-2,7.4-2.4s5.3-0.4,8,0.3c1.3,0.3,2.7,0.8,3.9,1.5c1.2,0.7,2.3,1.7,3.3,2.7c2,2,3.5,4.3,4.6,6.8
			c0.5,1.2,1,2.5,1.4,3.8c0.4,1.3,0.7,2.5,1,3.8c0.3,1.3,0.5,2.6,0.7,3.9c0.1,0.7,0.1,1.3,0.2,2c0,0.7,0.1,1.3,0.1,2
			c0,0.7,0,1.4-0.1,2.1l-0.4,2.1c-0.2,0.7-0.5,1.4-0.7,2.1c-0.4,0.7-0.7,1.4-1.2,2c-0.9,1.3-2.2,2.3-3.6,3c-0.4,0.2-0.7,0.3-1.1,0.5
			c-0.4,0.1-0.7,0.2-1.1,0.3c-0.4,0.1-0.8,0.2-1.2,0.2c-0.4,0.1-0.7,0.1-1.3,0.1l0.3-4c1.3,0.2,2.4,0.4,3.5,0.8
			c1.1,0.3,2.2,0.7,3.3,1.2c2.2,1,4.2,2.3,5.9,4.1c1.7,1.8,3,4.1,3.6,6.5c0.6,2.4,0.7,4.9,0.3,7.2c-0.3,2.3-1,4.6-1.9,6.8
			c-1,2.2-2.4,4.3-4.3,5.9c-1.9,1.6-4.2,2.7-6.6,3.3c-0.6,0.2-1.2,0.2-1.8,0.3c-0.6,0.1-1.2,0.1-1.8,0.2c-0.6,0-1.2,0-1.8,0
			c-0.6,0-1.2-0.1-1.9-0.2l2.3-2.6c0.3,0.9,0.4,1.6,0.5,2.5c0.1,0.8,0.1,1.6,0.1,2.5c-0.1,1.7-0.7,3.5-1.8,4.9
			c-1.1,1.5-2.7,2.5-4.2,3.1l-1.2,0.4c-0.4,0.1-0.8,0.2-1.2,0.3c-0.2,0-0.4,0.1-0.6,0.1l-0.6,0l-1.2,0c-1.6-0.2-3.1-0.6-4.5-1.2
			c-0.7-0.2-1.4-0.6-2-0.9c-0.6-0.4-1.3-0.7-1.9-1.1c-2.4-1.6-4.6-3.5-6.5-5.6c2.3,1.6,4.8,2.8,7.3,3.8c2.5,1,5.2,1.5,7.5,1.3
			l0.9-0.2l0.4-0.1l0.4-0.1c0.3-0.1,0.5-0.1,0.8-0.2c0.3-0.1,0.5-0.2,0.8-0.3c1-0.4,1.9-1,2.5-1.8c0.6-0.8,0.9-1.8,1-2.8
			c0.1-0.5,0-1.1,0-1.7c-0.1-0.6-0.2-1.2-0.3-1.6c-0.3-1.1,0.2-2.2,1.3-2.6c0.3-0.1,0.7-0.1,1-0.1l0,0c0.3,0.1,0.9,0.1,1.3,0.1
			c0.5,0,1,0,1.4,0c0.5,0,1-0.1,1.4-0.1c0.5-0.1,0.9-0.1,1.4-0.3c1.8-0.4,3.5-1.3,4.9-2.4c1.4-1.2,2.4-2.8,3.3-4.5
			c0.7-1.8,1.3-3.7,1.6-5.7c0.6-3.9-0.3-7.7-2.9-10.4c-1.3-1.3-2.9-2.4-4.7-3.2c-0.9-0.4-1.8-0.8-2.8-1c-0.9-0.3-2-0.5-2.8-0.6
			c-1.1-0.1-1.9-1.2-1.7-2.2c0.1-1,1-1.7,2-1.7h0.1c0.1,0,0.4,0,0.6-0.1c0.2,0,0.5-0.1,0.7-0.1c0.2-0.1,0.5-0.1,0.7-0.2
			c0.2-0.1,0.4-0.2,0.7-0.3c0.8-0.4,1.6-1,2.1-1.8c1.2-1.5,1.6-3.7,1.6-6c0.1-0.6,0-1.1,0-1.7c0-0.6-0.1-1.2-0.2-1.8
			c-0.2-1.2-0.4-2.3-0.7-3.5c-0.3-1.2-0.6-2.4-0.9-3.5c-0.3-1.1-0.8-2.2-1.2-3.3c-1-2.1-2.2-4-3.8-5.6c-0.4-0.4-0.8-0.8-1.2-1.1
			c-0.5-0.3-0.9-0.6-1.4-0.9c-0.5-0.3-0.9-0.6-1.4-0.9c-0.5-0.3-1-0.6-1.5-0.8C578.2,32.4,573,32.2,568,33.2z"/>
	</g>
	<g class="st5">
		<path d="M361.6,384.3c-2.2,0.9-4.3,1.7-6.4,2.5c-2.1,0.2-4.3,0.5-6.4,0.9c-4.3,0.7-8.5,1.6-12.6,2.9c-4.1,1.2-8.1,2.8-11.8,4.9
			c-1.8,1-3.6,2.1-5.2,3.4c-2,0.8-4,1.8-6,3c0.8-2.2,2.1-4.2,3.5-6.1c1.8-1.5,3.8-2.7,5.8-3.8c4-2.2,8.2-3.9,12.5-5.2
			c4.3-1.3,8.7-2.3,13.1-3c2.2-0.4,4.4-0.6,6.6-0.9C357.1,383.1,359.4,383.5,361.6,384.3z"/>
	</g>
	<g class="st5">
		<path d="M488,374.9c2.2,0,4.4,0.2,6.6,0.5c2.2,0.3,4.4,0.8,6.6,1.6c2.1,0.8,4.5,1.6,6.2,3.4c0.9,0.8,1.8,1.8,2.5,3
			s1.2,2.5,1.4,3.8c0.1,0.5-0.1,1-0.4,1.4c-5.5,7.4-11.1,14.6-16.9,21.8c-5.8,7.1-11.7,14.2-18,21c-3.2,3.4-6.4,6.7-10.2,9.7
			c-1,0.7-1.9,1.5-3.1,2.1c-0.6,0.3-1.2,0.6-1.9,0.9c-0.7,0.2-1.6,0.5-2.7,0.3c-0.1,0-0.3-0.1-0.4-0.1l-0.2-0.1l-0.4-0.1l-0.8-0.3
			l-1.7-0.6c-1.1-0.4-2.2-0.8-3.3-1.3c-2.2-0.9-4.3-1.9-6.4-3l-1.6-0.8c-0.5-0.3-1.1-0.5-1.5-0.9c-1-0.7-1.9-1.4-2.8-2.1
			c-3.7-2.9-7.2-6.1-9.8-10c3.6,3,7.5,5.2,11.6,7.2c1,0.5,2,0.9,3.1,1.4c1,0.5,1.9,1.1,3,1.6c2,1,4,2,6.1,2.8c1,0.4,2.1,0.8,3.1,1.2
			l1.6,0.6l0.8,0.3l0.4,0.1l0.2,0.1c0,0,0,0,0,0c0,0,0.3,0,0.6-0.1c0.4-0.1,0.8-0.3,1.2-0.6c0.9-0.5,1.7-1.1,2.6-1.8
			c3.4-2.7,6.6-6,9.7-9.3c6.2-6.6,12.1-13.6,17.8-20.7c5.7-7.1,11.4-14.3,16.8-21.6l-0.4,1.4c-0.2-1.6-1.1-3-2.5-4.3
			c-1.5-1.1-3-2.4-4.8-3.5c-1.8-1.1-3.7-2-5.7-2.8C492.1,376.3,490.1,375.5,488,374.9z"/>
	</g>
	<g class="st5">
		<path d="M418.1,423.4c-2.3,2-4.7,4-7,5.9l-1.8,1.4c-0.6,0.5-1.2,1-1.9,1.3c-1.3,0.7-2.6,1.5-3.9,2.2l-15.6,9.1l0,0
			c-0.8,0.5-1.8,0.3-2.4-0.4c-3.6-3.8-7.1-7.8-10.5-11.8c-3.4-4-6.7-8.1-9.9-12.3c-3.2-4.2-6.2-8.6-8.9-13.2l-1-1.7
			c-0.4-0.6-0.7-1.2-0.9-1.8l-0.6-1.9l-0.6-2c-0.7-2.6-1.2-5.3-1.1-8c0.9,2.5,2.2,4.8,3.6,6.9l1.1,1.6l1.1,1.6
			c0.2,0.3,0.4,0.5,0.6,0.8c0.2,0.3,0.3,0.6,0.5,0.8c0.3,0.6,0.6,1.1,0.9,1.7c2.6,4.4,5.5,8.6,8.6,12.8c3.1,4.1,6.4,8.2,9.7,12.1
			c3.4,3.9,6.8,7.8,10.4,11.6l-2.5-0.3l15.6-9.1c1.3-0.8,2.6-1.5,3.9-2.3c0.6-0.5,1.3-0.7,2-1l2.1-0.9
			C412.3,425.5,415.2,424.4,418.1,423.4z"/>
	</g>
	<g class="st5">
		<path d="M422.9,425.7c0.4,2,0.6,3.9,0.9,5.8c-0.4,1.8-0.7,3.6-1,5.4c-0.7,3.6-1.3,7.2-1.8,10.8c-0.5,3.6-1,7.2-1.4,10.8
			c-0.2,1.8-0.3,3.6-0.3,5.3c-0.6,1.8-1.2,3.5-1.5,5.4c-0.7-0.7-1.1-1.7-1.5-2.6c-0.4-0.9-0.7-1.9-1-2.9c0-1.9,0.2-3.8,0.3-5.6
			c0.3-3.7,0.8-7.4,1.4-11s1.2-7.3,1.9-10.9l1-5.4C420.7,429,421.6,427.4,422.9,425.7z"/>
	</g>
	<g class="st5">
		<path d="M315.6,407.5c2.2,1.7,3.9,3.9,5.6,6c0.5,1.2,1.1,2.5,1.6,3.7l0.7,1.9l0.7,1.9c1.7,5.1,3,10.3,3.8,15.6
			c0.2,1.3,0.3,2.7,0.5,4l0.2,2l0.1,2c0.1,1.3,0.2,2.7,0.2,4l0,4v2l-0.1,2c-0.1,1.3-0.1,2.7-0.2,4c-0.8,2.6-1.8,5.2-2.9,7.6
			c-0.5-2.7-0.7-5.4-1.1-8c0-1.3,0.2-2.6,0.2-3.9l0.1-1.9v-1.9l0-3.9c-0.1-1.3-0.1-2.6-0.2-3.9l-0.1-1.9l-0.2-1.9
			c-0.2-1.3-0.3-2.5-0.5-3.8c-0.8-5.1-2-10.1-3.6-14.9l-0.6-1.8l-0.7-1.8c-0.4-1.2-1-2.4-1.5-3.5C317,412.6,316.4,410.1,315.6,407.5
			z"/>
	</g>
	<g class="st5">
		<path d="M322.8,475c1-0.2,1.9-0.2,2.8-0.3c0.5,0.4,1,0.7,1.5,1.1c1,0.7,2.1,1.2,3.1,1.7c1.1,0.4,2.2,0.7,3.1,0.7
			c0.3,0,0.5,0,0.7,0l0.4,0c0,0,0.1,0,0.2-0.1c0,0,0.1-0.1,0.2,0c0.6,0.5,1.3,0.8,2.3,1.2c-0.2,1-0.6,1.9-1.3,2.7
			c-0.4,0.2-0.8,0.2-1.3,0.2s-0.9,0.1-1.2,0.1c-1.7,0-3.2-0.5-4.6-1c-1.4-0.5-2.7-1.2-3.9-2c-0.6-0.4-1.2-0.8-1.8-1.2
			C322.9,477,322.7,476.1,322.8,475z"/>
	</g>
	<g class="st5">
		<path d="M350.9,452.1c-1.2,5.5-2.7,11-4.1,16.5l-6,15.7c-0.4,1.1-0.9,2.5-1.3,3.8c-0.4,1.3-0.8,2.6-1.1,4c-0.7,2.7-1.2,5.4-1.7,8
			c-0.9,5.4-1.4,10.9-1,16.3c0.3,5.4,1.5,10.7,3.9,15.3c2.5,4.5,6.5,8.2,11.3,10.2l1.8,0.7l1.9,0.5l0.9,0.3c0.2,0.1,0.5,0.1,0.9,0.1
			c0.6,0.1,1.3,0.2,2,0.2c2.7,0.2,5.4,0.2,8-0.2c5.3,0,10.7-1.3,15.2-4.9c-1.6,2.3-3.9,4.3-6.4,5.8c-2.5,1.5-5.4,2.5-8.3,3.1
			c-2.9,0.4-5.9,0.4-8.8,0.2c-0.7-0.1-1.5-0.1-2.2-0.2c-0.4-0.1-0.7-0.1-1.2-0.2l-1.1-0.3l-2.2-0.7l-2.1-0.8
			c-2.7-1.2-5.4-2.8-7.6-4.8c-2.2-2-4.1-4.5-5.6-7.1c-2.9-5.3-4.1-11.2-4.4-17c-0.4-5.8,0.2-11.5,1.1-17.2c0.5-2.8,1.1-5.6,1.8-8.4
			c0.4-1.4,0.7-2.8,1.1-4.1c0.4-1.4,0.8-2.7,1.4-4.2l6-15.7C345.5,462,348.1,457,350.9,452.1z"/>
	</g>
	<g class="st5">
		<path d="M439.4,544.8c2.2,0.1,4.4,0.2,6.5,0.2c1.9,0.6,3.9,1.1,5.9,1.5c4,0.8,8.1,1.2,12.1,1.2s8.1-0.6,11.9-1.8
			c1.9-0.6,3.7-1.3,5.5-2.2c2.1-0.3,4.1-1,6.2-1.6c-1.2,1.9-2.7,3.6-4.4,5.1c-2,1-4,1.9-6.1,2.5c-4.2,1.3-8.6,1.9-13,2
			c-4.4,0.1-8.7-0.4-13-1.3c-2.1-0.4-4.2-1-6.3-1.6C442.9,547.7,441,546.4,439.4,544.8z"/>
	</g>
	<g class="st5">
		<path d="M311.9,410.9c-1.1,1.2-2.2,2.2-3.4,3.2c-1.3,0.4-2.6,0.9-3.9,1.3c-2.6,0.9-5.2,1.9-7.7,3c-2.5,1-5,2.2-7.4,3.5
			c-1.2,0.6-2.4,1.3-3.5,2l-2.2,0.4l-2.2,0.5c0.3-0.7,0.6-1.5,1-2.2c0.4-0.7,0.8-1.3,1.3-2c1.2-0.8,2.5-1.5,3.8-2.2
			c2.6-1.4,5.1-2.5,7.8-3.6c2.6-1.1,5.3-2.1,7.9-3.1l4-1.4C308.8,410.4,310.3,410.5,311.9,410.9z"/>
	</g>
	<g class="st5">
		<path d="M244.1,399.1c2.6,0.4,5.1,1.2,7.6,2c2.1,1.4,4.3,2.7,6.4,4.2c4.2,2.9,8.2,6,12,9.4c3.8,3.4,7.4,7.1,10.6,11.2
			c1.6,2.1,3.1,4.2,4.4,6.5c0.8,2.6,1.4,5.2,1.5,7.8c-1.6-2.1-3.2-4-5-5.8c-1.2-2.1-2.6-4.1-4.1-6c-3-3.9-6.4-7.4-10.1-10.7
			c-3.7-3.3-7.6-6.3-11.7-9.1c-2-1.4-4.1-2.8-6.2-4C247.8,402.8,245.9,401,244.1,399.1z"/>
	</g>
	<g class="st5">
		<path d="M206.2,416c2.4,4,4.9,7.8,7.5,11.6l2,2.8c0.7,0.9,1.4,1.9,1.9,2.9c1.1,2,2.4,3.9,3.6,5.9c4.9,7.7,10.4,15,16.5,21.8
			c3.1,3.4,6.2,6.6,9.6,9.7c3.4,3.1,6.9,5.9,10.6,8.6c3.7,2.6,7.6,5,11.6,7c4,2,8.2,3.7,12.5,5.1l-0.7-0.1c3.3-0.2,6.8-0.8,10.1-1.5
			c3.4-0.8,6.6-1.7,9.8-3c0.8-0.4,1.5-0.7,2.4-1c0.8-0.2,1.6-0.6,2.4-0.9c1.6-0.6,3.1-1.4,4.6-2.2c1.5-0.9,3-1.7,4.3-2.9
			c1.5-1,2.6-2.3,3.9-3.5c-1.8,3.1-4.1,5.9-6.9,8.3c-1.4,1.1-2.9,2.3-4.4,3.2c-1.5,1-3.1,2-4.8,2.6c-3.4,1.3-6.9,2.4-10.4,3.1
			c-3.6,0.8-7.1,1.3-10.8,1.6c-0.2,0-0.4,0-0.6-0.1l0,0c-4.5-1.4-8.9-3.2-13.1-5.3c-4.2-2.2-8.2-4.6-12.1-7.3
			c-3.8-2.8-7.5-5.7-10.9-8.9c-3.4-3.2-6.7-6.5-9.9-10c-6.2-7-11.8-14.5-16.9-22.3c-1.3-2-2.4-4-3.7-5.9c-0.7-1-1.1-2.1-1.6-3.1
			l-1.4-3.2C209.2,424.8,207.5,420.4,206.2,416z"/>
	</g>
	<g class="st5">
		<path d="M227.9,376.7c-1,2.4-2.5,4.6-4.7,6.4c-1,0.9-2.3,1.6-3.6,2.2c-0.7,0.2-1.4,0.5-2.1,0.6c-0.4,0.1-0.7,0.1-1.1,0.2
			c-0.4,0-0.7,0-1.1,0c-0.8,0.1-1.5-0.2-2.2-0.3l-0.5-0.1l-0.6-0.2c-0.4-0.1-0.8-0.3-1.1-0.5c-1.5-0.7-2.8-2-3.6-3.5
			c-0.8-1.5-1.1-3-1.1-4.5c-0.1-1.5,0.1-2.9,0.3-4.2c0.2-1.4,0.6-2.7,1-4c0.4-1.3,0.8-2.5,1.4-3.8c0.7-1.4,1.5-2.5,2.5-3.6
			c0.5-0.5,1-1,1.5-1.5c0.5-0.5,1-0.9,1.6-1.3c2.2-1.7,4.6-3,7.2-3.9c2.5-0.9,5.2-1.6,7.8-2l2-0.3l2-0.1c0.7,0,1.3-0.1,2-0.1
			c0.7,0,1.4,0,2.1,0.1c2.8,0.2,5.7,1.2,8.1,2.8c2.4,1.6,4.3,3.8,5.7,6.2c1.4,2.4,2.4,5,2.9,7.7c1.1,5.3,0.9,10.9-0.7,16.1
			c-1.1,2.5-2.5,4.9-4.3,6.9c-1.8,2-3.9,3.7-6.2,4.8c3.8-3.5,5.8-8.2,6.6-12.9c1.4-4.5,1.6-9.5,0.6-14.1c-0.5-2.3-1.3-4.5-2.5-6.5
			c-1.2-2-2.7-3.7-4.5-4.9c-1.8-1.2-3.9-2-6.2-2.1c-0.6,0-1.1,0-1.7-0.1c-0.6,0-1.2,0.1-1.8,0.1l-1.8,0.1l-1.8,0.2
			c-2.4,0.3-4.7,0.9-7,1.7c-2.2,0.8-4.3,2-6.1,3.4c-0.5,0.3-0.9,0.7-1.3,1.1c-0.4,0.4-0.8,0.8-1.2,1.2c-0.8,0.8-1.4,1.8-1.9,2.7
			c-0.9,2.1-1.7,4.5-2.1,6.8c-0.4,2.3-0.4,4.6,0.4,6.2c0.4,0.8,1,1.4,1.8,1.7c0.8,0.4,1.9,0.5,2.9,0.7c0.3,0,0.5,0.1,0.8,0.2l0.8,0
			c0.5,0.1,1.1,0,1.6-0.1c1.1-0.2,2.2-0.5,3.3-1c1.1-0.5,2.1-1.1,3.1-1.9C226.1,378.5,227.1,377.7,227.9,376.7z"/>
	</g>
	<g class="st5">
		<path d="M207.7,398c0.8,2,1,4.1,0.9,6.4c-0.8,2-1.9,4.1-3.7,5.7c-1.8,1.6-4.3,2.4-6.6,2.5c-2.3,0.1-4.4-0.4-6.5-1.1
			c-1-0.3-2.1-0.8-3-1.4c-1-0.6-1.9-1.3-2.7-2.2c-0.8-0.9-1.5-1.9-1.9-3c-0.5-1.1-0.7-2.3-0.8-3.4c-0.2-2.3,0.2-4.5,0.8-6.5
			c1.2-1.9,2.6-3.5,4.2-4.8c-0.3,2.1-0.5,4.1-0.4,5.9c-0.5,1.7-0.8,3.4-0.6,5c0.1,1.6,0.7,3,1.7,4.1c0.5,0.6,1.1,1,1.8,1.5
			c0.7,0.4,1.5,0.8,2.3,1c1.6,0.6,3.4,0.9,5,0.9c1.6-0.1,3.1-0.5,4.2-1.5c1.1-1,2-2.4,2.5-4C205.9,401.7,206.8,400,207.7,398z"/>
	</g>
	<g class="st5">
		<path d="M208.9,387.6c-1.3,1.9-3.2,3.4-5.5,4.4c-2.4,0.4-4.9,0.4-7.2-0.2c-2.4-0.6-4.5-1.6-6.5-2.9c-2.1-1.4-3.7-3.4-4.8-5.6
			c-2.1-4.4-2.2-9.6-0.4-14.1c0.9-2.2,2.4-4.4,4.3-5.9c1.2-0.5,2.4-0.9,3.6-1c1.2-0.1,2.4,0,3.5,0.3c-1,0.5-1.9,1.1-2.7,1.7
			c-0.8,0.7-1.4,1.4-1.9,2.2c-1.4,1.1-2.4,2.6-3.1,4.3c-1.4,3.4-1.3,7.5,0.3,10.8c0.4,0.8,0.9,1.6,1.5,2.2c0.6,0.7,1.2,1.3,2,1.8
			c1.6,1,3.4,1.9,5.1,2.3c1.8,0.4,3.7,0.5,5.5,0.1C204.6,388.3,206.6,388.2,208.9,387.6z"/>
	</g>
	<g class="st5">
		<path d="M201.3,367.4c-2.6-2.1-4.9-4.7-6.9-7.4c-1.5-3-2.7-6.2-3.5-9.6c-0.8-3.4-1.1-6.9-0.6-10.5c0.3-1.8,0.8-3.5,1.5-5.2
			l0.6-1.2c0.2-0.4,0.5-0.9,0.8-1.3c0.6-0.8,1.3-1.6,2.1-2.2c1.6-1.2,3.6-2,5.6-2.1c1,0,2.1,0.1,3,0.3c0.9,0.2,1.8,0.5,2.6,0.9
			c3.4,1.5,6.1,3.9,8.4,6.5c2.3,2.6,4.1,5.5,5.7,8.4c1.1,3.2,1.8,6.5,2.3,9.8c-1.9-2.7-3.8-5.4-5.8-7.9c-1.5-2.8-3.2-5.4-5.2-7.7
			c-2-2.3-4.3-4.3-6.9-5.4c-0.6-0.3-1.3-0.5-2-0.7c-0.6-0.2-1.2-0.2-1.8-0.2c-1.2,0-2.4,0.5-3.4,1.3c-0.5,0.4-0.9,0.8-1.3,1.3
			c-0.2,0.2-0.3,0.5-0.5,0.8l-0.5,1c-0.6,1.3-1,2.7-1.2,4.2c-0.4,2.9-0.2,6,0.5,8.9c0.7,3,1.8,5.9,3.3,8.7
			C198.9,361.3,200,364.4,201.3,367.4z"/>
	</g>
	<g class="st5">
		<path d="M508.1,392.1c6.3-0.6,12.6-0.9,18.9-0.9c6.3,0,12.7,0.2,19,0.8c1.6,0.2,3.2,0.5,4.7,0.8c1.6,0.3,3.1,0.6,4.7,1
			c3.1,0.8,6.2,1.7,9.3,3c1.5,0.7,3,1.4,4.5,2.3c0.4,0.2,0.7,0.5,1.1,0.7l1,0.7l2,1.4c2.5,2,5,4,7.3,6.3c1.2,1.1,2.3,2.3,3.4,3.4
			c1.1,1.2,2.2,2.4,3.2,3.6c2.1,2.5,4,5.1,5.7,7.8c1.8,2.7,3.3,5.6,4.6,8.6c1.3,3,2.3,6.2,2.7,9.6c0.4,3.3,0.4,6.7-0.2,10
			c-0.6,3.3-1.8,6.6-3.7,9.5c-1.8,2.9-4.3,5.4-7.2,7.2c-2.8,1.9-6,3.2-9.1,4.2c-6.2,1.8-12.4,3.1-18.6,4.3
			c-6.2,1.2-12.5,2.2-18.7,3.1c-6.3,0.9-12.6,1.6-18.9,2c-3.2,0.2-6.4,0.3-9.7,0c-0.4,0-0.8-0.1-1.3-0.1c-0.4,0-0.9-0.1-1.3-0.2
			c-0.4-0.1-0.9-0.2-1.4-0.4c-0.5-0.2-0.9-0.4-1.3-0.6c-1.7-1-3-2.3-4-3.8c-2.1-2.9-3.3-6.2-3.9-9.5c-0.6-3.3-0.7-6.7-0.4-10
			s0.9-6.5,1.9-9.6c0.5-1.6,1-3.1,1.6-4.6c0.5-1.5,1.2-3,1.9-4.5c6.1-11.4,14.7-21,24.2-29.4c-4.2,4.7-8.1,9.6-11.6,14.8
			c-3.5,5.2-6.6,10.6-8.9,16.2c-1.2,2.8-2.4,5.6-3.3,8.5c-0.9,2.9-1.5,5.9-1.7,8.9c-0.3,3-0.2,6,0.4,8.8c0.2,1.5,0.7,2.8,1.2,4.2
			c0.5,1.3,1.2,2.6,2,3.7c0.8,1.1,1.8,2.1,2.8,2.7c0.3,0.1,0.5,0.3,0.8,0.4c0.2,0.1,0.5,0.2,0.9,0.3c0.3,0.1,0.6,0.1,1,0.2
			c0.3,0.1,0.7,0.1,1.1,0.1c2.9,0.3,6,0.1,9.1,0c6.2-0.4,12.4-1.1,18.6-1.9c6.2-0.9,12.4-1.9,18.5-3c6.1-1.2,12.3-2.5,18.2-4.2
			c2.9-0.9,5.6-2,8-3.7c2.4-1.6,4.5-3.7,6-6.1c3.1-4.8,4-10.9,3.2-16.8c-0.4-2.9-1.3-5.8-2.4-8.5c-1.2-2.8-2.6-5.5-4.3-8
			c-1.7-2.6-3.5-5-5.4-7.4c-1-1.2-2-2.3-3-3.5c-1.1-1.1-2.1-2.2-3.2-3.3c-2.2-2.1-4.6-4.1-7-6l-1.9-1.4L568,403
			c-0.3-0.2-0.6-0.4-0.9-0.6c-1.2-0.8-2.5-1.4-3.9-2c-5.5-2.3-11.7-3.5-17.8-4.5c-6.1-1.2-12.3-2-18.5-2.6c-3.1-0.3-6.2-0.6-9.4-0.8
			C514.4,392.4,511.2,392.2,508.1,392.1z"/>
	</g>
	<g class="st5">
		<path d="M522.5,482.6c-0.1,15.3,0.5,30.6,1.6,45.8c0.7,7.6,0.9,15.2,1.7,22.8c0.7,7.6,1.6,15.1,2.9,22.6
			c1.2,7.5,2.8,14.9,4.8,22.2c2,7.3,4.6,14.4,8,21.1c3.4,6.6,7.7,12.8,13.5,17.2c2.9,2.2,6.1,3.8,9.5,4.8c3.4,1,7,1.3,10.7,1
			c0.1,0,0.1,0,0.2,0h0.1c0.1,0,0.4,0,0.6,0c0.2,0,0.5,0,0.7-0.1c0.5-0.1,0.9-0.2,1.3-0.3c0.8-0.3,1.5-0.8,2.1-1.4
			c1.1-1.2,1.7-3,1.8-5c0.1-2-0.2-4.1-0.8-6.2s-1.2-4.2-2-6.3c-0.4-1,0.1-2.2,1.2-2.6c0.8-0.3,1.6-0.1,2.2,0.5l0,0
			c0.5,0.5,1.3,1.2,2.1,1.7c0.8,0.5,1.6,1,2.4,1.3c1.7,0.7,3.4,1,5.1,0.7l1.3-0.3c0.4-0.1,0.8-0.3,1.2-0.5c0.8-0.4,1.6-0.8,2.3-1.3
			c1.3-1,2.3-2.5,2.8-4.1c1.1-3.4,0.4-7.3-1.2-10.7c-1.7-3.4-4.4-6.3-7.7-8c-1-0.5-1.4-1.7-0.8-2.7c0.3-0.7,1-1,1.7-1.1h0.1
			c4.4-0.2,9.5-1.6,12-4.8c1.3-1.6,2-3.6,2-5.8c0.1-2.3-0.2-4.6-0.8-6.8c-0.6-2.2-1.7-4.2-3.1-5.9s-3.3-2.9-5.3-3.7
			s-4.3-1.1-6.6-0.9c-1.2,0-2.3,0.2-3.5,0.4c-1.2,0.2-2.3,0.6-3.4,0.9l-0.1,0c-1.1,0.3-2.2-0.4-2.4-1.5c0-0.2,0-0.3-0.1-0.5
			c0-7.5-0.1-15.1-0.3-22.6c-0.1-7.5-0.6-15.1-0.5-22.6c-0.1-7.5-0.3-15.1-0.6-22.6l-0.4-5.6c-0.1-1.9-0.3-3.8-0.5-5.6
			c-0.1-1.9-0.5-3.7-0.7-5.6c-0.1-0.9-0.3-1.9-0.5-2.8l-0.5-2.8c2.3,7.2,3.4,14.8,4.4,22.3c0.9,7.5,1.7,15.1,2.3,22.6
			c0.8,7.5,0.8,15.1,1,22.7c0.2,7.6,0.3,15.1,0.3,22.7l-2.6-1.9c1.3-0.3,2.6-0.7,3.9-1c1.3-0.2,2.7-0.5,4-0.5
			c2.7-0.2,5.5,0.2,8.2,1.2c2.7,1,5.1,2.6,7,4.8c1.9,2.2,3.1,4.7,3.9,7.4c0.8,2.7,1.1,5.4,1,8.1c-0.1,2.8-1,5.9-2.9,8.2
			c-1.9,2.3-4.5,3.8-7.1,4.8c-1.3,0.5-2.6,0.8-4,1.1c-1.4,0.2-2.6,0.4-4.1,0.4l0.9-3.8c4.1,2.2,7.4,5.7,9.5,9.8c1,2.1,1.7,4.3,2,6.6
			c0.3,2.3,0.2,4.8-0.6,7.1c-0.8,2.3-2.2,4.5-4.2,6.1c-1,0.8-2.1,1.3-3.2,1.8c-0.6,0.2-1.1,0.4-1.7,0.6c-0.6,0.1-1.2,0.3-1.8,0.4
			c-2.5,0.4-5-0.1-7.2-1c-1.1-0.5-2.2-1-3.1-1.7c-1-0.7-1.8-1.3-2.8-2.3l3.3-2.1c0.8,2.2,1.6,4.5,2.2,6.8c0.6,2.3,1,4.8,0.9,7.4
			c0,1.3-0.3,2.6-0.7,3.9s-1.2,2.6-2.2,3.7c-1,1.1-2.3,1.9-3.6,2.4c-0.7,0.2-1.3,0.4-2,0.5c-0.3,0-0.7,0.1-1,0.1c-0.4,0-0.7,0-1.1,0
			h0.3c-4,0.3-8.2,0-12.1-1.1c-3.9-1.1-7.6-3-10.8-5.5c-6.5-4.9-11.1-11.7-14.6-18.6c-3.6-7-6.2-14.3-8.3-21.8
			c-2.1-7.5-3.7-15-4.9-22.6s-2.2-15.3-2.9-22.9c-0.4-3.8-0.6-7.7-0.9-11.5c-0.3-3.8-0.4-7.7-0.4-11.5
			C520.4,513.2,521,497.9,522.5,482.6z"/>
	</g>
	<g class="st5">
		<path d="M354.8,552.9c0.6,10,0.9,19.9,1.1,29.9c0,1.2,0,2.5,0,3.7c0,1.2-0.1,2.5-0.2,3.7c-0.1,2.5-0.2,5-0.4,7.5
			c-0.3,5-0.6,10-1.2,15c-0.1,1.2-0.4,2.5-0.6,3.8c-0.1,0.6-0.3,1.3-0.5,2l-0.3,1c0,0.1,0,0,0,0c0-0.1-0.1-0.2,0-0.1
			c0,0,0.1,0.1,0.2,0.2c0.3,0.2,0.7,0.3,1.2,0.5c1,0.3,2.1,0.4,3.3,0.5c4.7,0.4,9.6,0,14.5-0.6c4.9-0.6,9.7-1.5,14.4-2.7
			c2.4-0.6,4.7-1.3,6.9-2.2c1.1-0.4,2.2-0.9,3.1-1.5c0.9-0.5,1.8-1.2,2.1-1.7c0.5-0.9,1.7-1.3,2.6-0.8l0,0l0.1,0.1
			c1.2,0.7,2.6,1.4,4,2c1.4,0.6,2.8,1.2,4.3,1.7c2.9,1,5.9,1.8,8.9,2.4c6,1.2,12.2,1.5,18.3,0.9c6.2-0.6,12.4-1.5,18.5-2.8
			c6.1-1.2,12.3-2.7,18.1-4.6c0.5-0.1,0.9-0.1,1.3,0l0,0c4.6,1.7,9.6,2.9,14.6,3.7c2.5,0.4,5,0.7,7.5,0.9l1.9,0.1l1.9,0
			c1.2,0,2.5,0.1,3.8,0.1c1.2,0.1,2.5,0,3.8,0c1.3,0,2.5-0.1,3.8-0.1c2.6-0.1,5.1-0.3,7.6-0.6c2.5-0.3,5.1-0.6,7.6-1.1
			c2.5-0.5,5-1,7.5-1.8c-4.6,2.3-9.7,3.7-14.7,4.9c-2.5,0.6-5.1,1.1-7.7,1.5c-1.3,0.2-2.6,0.4-3.9,0.6c-1.3,0.1-2.6,0.3-4,0.4
			c-2.6,0.2-5.3,0-7.9-0.2c-2.6-0.2-5.2-0.5-7.8-1c-5.2-0.9-10.2-2.1-15.3-3.9l1.3,0c-6.2,1.9-12.4,3.4-18.6,4.7
			c-6.3,1.3-12.6,2.2-19,2.8c-6.5,0.6-13.1,0.3-19.5-1c-3.2-0.6-6.3-1.5-9.4-2.5c-3.1-1.1-6-2.3-9-4l2.8-0.7
			c-0.5,0.9-1.1,1.5-1.7,1.9c-0.6,0.5-1.2,0.9-1.8,1.2c-1.2,0.7-2.4,1.2-3.6,1.7c-2.4,1-4.9,1.7-7.3,2.3c-4.9,1.3-9.9,2.2-14.9,2.8
			c-5,0.6-10.1,1-15.3,0.6c-1.3-0.1-2.6-0.3-4-0.7c-0.7-0.2-1.4-0.5-2.2-0.9c-0.4-0.3-0.8-0.5-1.2-1c-0.4-0.4-0.7-1.1-0.8-1.8
			c-0.1-0.7,0-1.3,0.2-1.9c0.1-0.2,0.1-0.2,0.1-0.3l0-0.2l0.1-0.4c0.1-0.5,0.3-1,0.4-1.6c0.2-1.2,0.4-2.3,0.5-3.6
			c1.2-9.7,1.4-19.7,2-29.6L354.8,552.9z"/>
	</g>
	<g class="st5">
		<path d="M354.1,624.2l0.5,7l0.5,7l-1.1-1.2c3.9,0,7.9-0.1,11.8-0.2c3.9,0.2,7.9,0.3,11.8,0.5c7.9,0.2,15.8,0.3,23.6,0.3
			c15.8,0.1,31.5-0.2,47.3-0.8l5.9-0.2l5.9-0.3c3.9-0.2,7.9-0.4,11.8-0.6c7.9-0.5,15.7-1,23.6-1.7c3.9-0.3,7.9-0.6,11.8-1l5.9-0.6
			l2.9-0.3c1-0.1,2-0.1,3-0.1c2-0.1,4-0.1,5.9-0.2l5.9-0.3c4-0.2,7.9-0.3,11.9-0.4c-3.9,0.8-7.8,1.6-11.7,2.4
			c-3.9,0.8-7.8,1.5-11.7,2.2c-7.9,1.1-15.7,1.7-23.6,2.3c-7.9,0.7-15.8,1.2-23.7,1.7c-4,0.2-7.9,0.4-11.9,0.6l-5.9,0.3l-5.9,0.2
			c-15.8,0.6-31.6,0.9-47.5,0.8c-7.9,0-15.8-0.2-23.7-0.3l-11.9-0.4c-4-0.4-7.9-0.9-11.8-1.4l-0.2,0c-0.6-0.1-1-0.6-1-1.2l0.7-7
			L354.1,624.2z"/>
	</g>
	<g class="st5">
		<path d="M353.3,641c0,10.4,0.6,20.7,2.3,30.8c0.4,2.5,1,5,1.4,7.5c0.2,1.3,0.5,2.5,0.8,3.7c0.2,1.2,0.6,2.4,1,3.6
			c0.3,1.1,0.8,2.6,1.1,3.9c0.3,1.3,0.5,2.7,0.7,4c0.3,2.7,0.5,5.3,0.6,7.9c0.3,10.5-0.5,20.9-1.6,31.3c-1.1,10.4-2.5,20.6-4.3,30.9
			l-0.1,0.2c0,0,0,0.2-0.1,0.3c0,0.1,0,0.3,0,0.4c0,0.3,0,0.6,0,0.9c0.1,0.6,0.3,1.2,0.6,1.7c0.6,1,1.6,1.9,2.9,2.5
			c1.3,0.6,2.8,1.1,4.2,1.3c1.5,0.2,3.2,0.4,4.9,0.5c6.6,0.4,13.4,0.4,20.1,0.4c6.7-0.1,13.5-0.3,20.2-0.6
			c6.7-0.3,13.4-0.8,20.1-1.6c3.3-0.4,6.6-0.9,9.8-1.6c0.8-0.2,1.5-0.4,2.3-0.6c0.7-0.2,1.4-0.5,1.9-0.8c1-0.6,1.9-1.7,2.5-3
			c1.3-2.6,1.9-5.8,2.2-9c0.2-3.2,0.1-6.5-0.3-9.8c-0.5-3.2-0.8-6.5-1.5-9.8c-0.6-3.3-1.5-6.5-2.4-9.7c-2-6.4-4.6-12.6-7.7-18.7
			c3.9,5.6,7.2,11.5,10,17.8c1.3,3.2,2.5,6.4,3.5,9.7c1,3.3,1.9,6.7,2.1,10.2c0.4,3.5,0.5,7,0.3,10.5c-0.1,1.8-0.4,3.5-0.8,5.3
			c-0.4,1.8-1,3.5-1.8,5.2c-0.9,1.7-2.1,3.4-4,4.6c-1,0.6-1.9,0.9-2.8,1.2c-0.9,0.3-1.8,0.5-2.6,0.7c-3.4,0.8-6.8,1.3-10.2,1.7
			c-6.8,0.8-13.6,1.3-20.4,1.6s-13.6,0.5-20.4,0.6c-6.8,0.1-13.6,0-20.4-0.4c-1.7-0.1-3.4-0.3-5.2-0.5c-1.9-0.3-3.6-0.9-5.4-1.7
			c-1.7-0.9-3.5-2.2-4.5-4.2c-0.5-1-0.9-2-1-3.1c-0.1-0.5-0.1-1.1-0.1-1.6c0-0.3,0-0.5,0.1-0.8c0-0.3,0.1-0.5,0.2-0.9l-0.1,0.2
			c1.7-10.1,3.2-20.4,4.2-30.6c1-10.2,1.8-20.5,1.5-30.7c-0.1-2.5-0.3-5.1-0.6-7.5c-0.2-1.2-0.4-2.5-0.6-3.7c-0.3-1.2-0.6-2.3-1-3.6
			c-0.4-1.3-0.8-2.6-1-3.9c-0.3-1.3-0.6-2.6-0.9-3.9c-0.6-2.6-0.7-5.2-0.9-7.9c-0.3-5.2-0.4-10.5-0.1-15.7
			C352.2,651.3,352.6,646.1,353.3,641z"/>
	</g>
	<g class="st5">
		<path d="M558,642.7c1.3,12.4,3,24.8,5,37.1c0.5,3.1,1.1,6.1,1.5,9.2c0.4,3.1,0.9,6.2,1.3,9.2c0.5,3.1,1,6.1,1.6,9.2
			c0.6,3,1.2,6.1,1.9,9.1c0.7,3,1.3,6,2.2,9l1.2,4.5l1.3,4.4l0.7,2.2l0.4,1.3c0.1,0.4,0.2,0.9,0.3,1.3c0.3,1.7,0.3,3.4,0.2,5.1
			c-0.2,3.3-0.9,6.5-1.8,9.6c-0.2,0.8-0.4,1.5-0.7,2.3c-0.3,0.8-0.7,1.6-1.1,2.4c-0.8,1.6-1.9,3-3.2,4.2c-1.3,1.2-2.7,2.3-4.3,3.1
			c-0.8,0.4-1.6,0.8-2.4,1c-0.8,0.3-1.7,0.5-2.5,0.7c-6.1,1.4-12.2,2.8-18.3,4c-12.3,2.5-24.6,4.6-37.1,6
			c-6.2,0.7-12.5,1.2-18.9,1.2c-3.2,0-6.4-0.1-9.6-0.5c-0.8-0.1-1.6-0.2-2.4-0.3c-0.8-0.2-1.6-0.3-2.4-0.5c-1.6-0.4-3.3-0.9-4.9-1.9
			c-0.8-0.5-1.6-1.1-2.3-2c-0.2-0.2-0.3-0.5-0.5-0.8c-0.1-0.3-0.3-0.5-0.4-0.8c-0.1-0.3-0.2-0.6-0.2-0.9c0-0.3,0-0.6,0-0.9v-0.7
			l0-0.5l0-1.1c0-0.7,0-1.5-0.1-2.2c-0.1-3-0.4-6.1-0.7-9.2c-0.6-6.2-1.3-12.4-2.1-18.5c-1.6-12.4-3.3-24.7-5.1-37l2.2,1.7
			c-2.2,0.2-4.4,0.5-6.6,0.5c-2.2,0.1-4.4-0.1-6.6-0.2c-4.4-0.3-8.8-0.8-13-1.6c-8.6-1.5-17.1-3.7-25.2-6.7
			c4.2,1.1,8.5,1.9,12.7,2.6c4.3,0.7,8.5,1.3,12.8,1.7c4.3,0.4,8.6,0.5,12.8,0.5l3.2-0.1c1.1,0,2.1-0.2,3.2-0.2
			c2.1,0,4.2-0.2,6.3-0.4l0.1,0c1-0.1,2,0.7,2.1,1.7c1.8,12.4,3.5,24.7,5.1,37.1c0.8,6.2,1.5,12.4,2.1,18.7c0.3,3.1,0.6,6.2,0.7,9.4
			c0,0.8,0.1,1.6,0.1,2.4l0,1.3l0,0.6l0,0.3l0,0.1c0,0.4,0.1,0.6,0.3,1c0.3,0.3,0.7,0.7,1.2,1c1.1,0.6,2.4,1.1,3.8,1.4
			c0.7,0.2,1.4,0.3,2.1,0.4c0.7,0.1,1.5,0.2,2.2,0.3c3,0.3,6,0.4,9.1,0.4c6.1,0,12.3-0.5,18.5-1.2c12.3-1.3,24.6-3.5,36.8-5.9
			c6.1-1.2,12.2-2.6,18.2-4c0.8-0.2,1.4-0.3,2.1-0.5c0.7-0.2,1.3-0.5,1.9-0.8c1.2-0.6,2.3-1.4,3.3-2.4s1.8-2,2.5-3.2
			c0.3-0.6,0.6-1.2,0.8-1.9c0.2-0.6,0.5-1.4,0.7-2.1c0.8-2.9,1.5-5.8,1.6-8.7c0.1-1.4,0-2.9-0.2-4.2c-0.1-0.3-0.1-0.7-0.2-1l-0.3-1
			l-0.7-2.3l-1.4-4.5l-1.2-4.6c-0.8-3-1.5-6.1-2.2-9.2c-0.7-3.1-1.3-6.2-1.9-9.2c-0.6-3.1-1.1-6.2-1.6-9.3l-1.5-9.3
			c-0.4-3.1-0.7-6.2-0.9-9.3C558.5,667.7,557.9,655.2,558,642.7z"/>
	</g>
	<g class="st5">
		<path d="M520.2,648.1c1.2,1.2,2.3,2.4,3.5,3.5c0.3,0.7,0.6,1.3,1,2c0.4,0.6,0.7,1.3,1.1,1.9c1.5,2.5,3.3,4.8,5.4,6.9
			c0.5,0.5,1,1.1,1.6,1.5c0.5,0.5,1.1,1,1.7,1.4c1.2,0.9,2.3,1.8,3.6,2.5c0.6,0.4,1.2,0.8,1.9,1.1c0.7,0.3,1.3,0.6,2,1
			c0.5,0.6,1.1,1.1,1.7,1.7c0.6,0.6,1.2,1.2,1.8,1.8c-0.8,0.1-1.7,0.2-2.5,0.2c-0.9,0-1.7,0-2.6-0.1c-0.7-0.3-1.5-0.7-2.2-1.1
			c-0.7-0.3-1.4-0.8-2.1-1.2c-1.4-0.8-2.7-1.8-4-2.8c-0.6-0.5-1.2-1.1-1.8-1.6c-0.6-0.5-1.2-1.1-1.7-1.7c-2.3-2.3-4.2-4.9-5.9-7.6
			c-0.4-0.7-0.8-1.4-1.2-2.1c-0.3-0.7-0.8-1.4-1.1-2.2C519.9,651.6,519.8,649.8,520.2,648.1z"/>
	</g>
	<g class="st5">
		<path d="M371,648.3c0.8,1.1,1.3,2.2,1.8,3.4c-0.2,1.1-0.3,2.2-0.5,3.3c-0.4,2.2-0.9,4.4-1.7,6.6c-0.8,2.1-1.8,4.3-3.2,6.2
			c-0.3,0.5-0.8,0.9-1.1,1.4s-0.8,0.9-1.3,1.3c-1.3,0.4-2.7,0.5-3.9,0.4c0.5-1.3,1-2.3,1.2-3.4c0-0.1,0.1-0.2,0.2-0.2
			c0.1-0.1,0.2-0.2,0.3-0.2c0.2-0.2,0.3-0.4,0.5-0.5c0.3-0.4,0.6-0.7,0.9-1.1c1.1-1.5,2-3.4,2.6-5.2c0.7-1.9,1.2-3.9,1.5-5.9
			c0.2-1,0.4-2,0.4-3C369.5,650.3,370.2,649.3,371,648.3z"/>
	</g>
	<g class="st5">
		<path d="M359,777c0.6,0.7,1,1.2,1.4,1.9c-0.2,0.3-0.4,0.7-0.5,1c-0.4,0.7-0.7,1.3-1.2,1.9s-0.9,1.3-1.5,1.9
			c-0.3,0.3-0.6,0.6-1,0.9c-0.4-0.1-0.8-0.2-1.1-0.3c-0.4-0.2-0.7-0.4-1-0.7c0-0.2,0-0.4,0-0.6c0-0.2,0-0.3-0.1-0.5
			c-0.1-0.4-0.1-0.7-0.3-0.9c0.2-0.1,0.3-0.3,0.5-0.5c0.4-0.4,0.7-0.9,1.1-1.4c0.4-0.5,0.7-1.1,1-1.7c0.1-0.3,0.3-0.6,0.4-0.9
			C357.4,777,358.1,776.9,359,777z"/>
	</g>
	<g class="st5">
		<path d="M388.4,802.2c-2.5-2.2-5.4-3.9-8.4-5.3c-3-1.4-6-2.6-9.2-3.5c-6.3-1.8-12.8-2.7-19.3-2.8c-0.8,0-1.6-0.1-2.4-0.1l-2.5-0.1
			c-1.6,0-3.3-0.1-4.9,0l-4.9,0.2l-2.4,0.3c-0.8,0.1-1.6,0.2-2.4,0.4l-2.3,0.5c-0.8,0.2-1.5,0.5-2.3,0.7l-1.1,0.3
			c-0.4,0.1-0.7,0.3-1.1,0.5c-0.7,0.3-1.5,0.6-2.2,0.9c-2.8,1.4-5.4,3.2-7.8,5.3c-4.7,4.2-8,9.8-10.4,15.8c-0.3,0.8-0.6,1.5-0.8,2.3
			c-0.2,0.8-0.5,1.5-0.7,2.2c-0.4,1.5-0.6,3-0.6,4.5c0,1.5,0.1,3,0.5,4.5c0.4,1.5,0.9,2.9,1.5,4.2c0.7,1.3,1.5,2.6,2.5,3.7
			c0.5,0.6,1,1.1,1.6,1.6c0.6,0.5,1.1,1,1.8,1.5c1.3,1,2.7,2.1,3.9,2.9c1.3,0.8,2.7,1.6,4.1,2.2c2.9,1.2,5.9,1.9,9,2.1
			c0.8,0,1.6,0,2.4,0l2.5,0l5,0c13.3,0,26.6-0.3,39.8-1.1c6.6-0.4,13.2-0.9,19.8-1.7c6.6-0.8,13.1-1.7,19.5-3.2
			c3.2-0.8,6.3-1.6,9.3-2.8c1.5-0.6,2.9-1.2,4.2-2l1-0.6c0.3-0.2,0.6-0.4,0.9-0.7c0.6-0.4,1.1-1,1.6-1.5c2-2.1,3.1-4.9,3.6-7.9
			c0.3-1.5,0.3-3,0.2-4.6c0-0.8-0.1-1.6-0.2-2.3c-0.1-0.8-0.2-1.6-0.3-2.3c-0.8-6.3-3-12.6-5.6-18.7c-1.3-3-2.8-6-4.3-9
			c-1.5-3-3.2-5.8-4.9-8.7c4.2,5.2,7.9,10.8,11.2,16.7c3.2,5.9,6.1,12.1,7.6,18.9c0.2,0.9,0.3,1.7,0.4,2.6c0.1,0.9,0.1,1.8,0.2,2.7
			c0,1.8,0,3.6-0.3,5.4c-0.6,3.6-2,7.2-4.6,10c-0.7,0.7-1.3,1.4-2,1.9c-0.4,0.3-0.7,0.6-1.1,0.8l-1.2,0.7c-1.6,0.9-3.2,1.7-4.8,2.3
			c-3.2,1.3-6.5,2.2-9.8,3c-6.6,1.5-13.3,2.5-19.9,3.3c-6.7,0.8-13.4,1.3-20,1.7c-13.4,0.8-26.7,1.1-40.1,1.1l-5,0l-2.5,0
			c-0.8,0-1.7,0-2.6,0c-3.6-0.2-7.1-1-10.4-2.4c-1.6-0.7-3.2-1.6-4.7-2.5c-1.5-1-2.8-2-4.1-3c-0.6-0.5-1.4-1.1-2.1-1.7
			c-0.7-0.6-1.3-1.3-1.9-2c-1.2-1.4-2.2-2.9-3-4.5c-0.8-1.6-1.4-3.4-1.9-5.1c-0.4-1.8-0.6-3.6-0.6-5.4c0-1.8,0.3-3.7,0.7-5.4
			c0.2-0.9,0.5-1.7,0.8-2.5c0.2-0.8,0.6-1.6,0.9-2.4c1.2-3.2,2.8-6.3,4.7-9.3c1.9-2.9,4.1-5.7,6.7-8c2.6-2.4,5.5-4.4,8.7-5.9
			c0.8-0.4,1.6-0.7,2.4-1c0.4-0.2,0.8-0.4,1.2-0.5l1.2-0.4c0.8-0.2,1.7-0.6,2.5-0.8l2.6-0.5c0.9-0.2,1.7-0.3,2.6-0.4
			c0.9-0.1,1.7-0.2,2.6-0.3l5.1-0.3c1.7-0.1,3.4,0,5.1-0.1l2.5,0c0.9,0,1.7,0.1,2.5,0.2c6.8,0.7,13.5,2.3,19.8,4.8
			c3.2,1.2,6.2,2.8,9.1,4.5C383.5,797.7,386.2,799.7,388.4,802.2z"/>
	</g>
	<g class="st5">
		<path d="M481.9,782.5c-0.8,3.1-1.5,6.3-2,9.5c-0.6,3.2-1.1,6.3-1.6,9.5c-0.9,6.3-1.4,12.8-1.2,19l0,2.3c0,0.8,0,1.6,0.1,2.3
			c0,0.8,0.1,1.5,0.2,2.3l0.1,1.2l0.2,1.1c0.6,3,1.5,5.9,3.1,8.2c0.4,0.5,0.8,1.1,1.4,1.5c0.2,0.2,0.5,0.5,0.8,0.7l0.8,0.6
			c0.2,0.2,0.6,0.4,0.9,0.5l1,0.5c0.7,0.3,1.4,0.6,2.1,0.9c2.9,1.1,5.9,1.9,9,2.5c6.2,1.2,12.6,1.8,18.9,2.1
			c6.4,0.3,12.8,0.2,19.2-0.1c6.4-0.3,12.8-0.8,19.1-1.7c6.3-0.8,12.6-1.9,18.8-3.4c3.1-0.8,6.1-1.6,9.1-2.7l2.2-0.8l2.1-0.9
			c0.7-0.3,1.3-0.7,2-1c0.7-0.4,1.3-0.8,1.9-1.2c2.5-1.7,4.5-3.8,5.9-6.3c0.2-0.3,0.3-0.6,0.5-1l0.4-1c0.2-0.7,0.5-1.3,0.6-2.1
			c0.4-1.4,0.4-2.9,0.5-4.3c-0.1-2.9-0.7-5.9-1.8-8.8c-1.1-2.8-2.5-5.6-4.3-8c-0.9-1.2-1.8-2.4-2.9-3.5c-1-1.1-2.1-2.1-3.3-3
			c-1.2-0.9-2.4-1.5-3.7-2c-1.4-0.5-2.9-0.8-4.4-1.2c-6.1-1.2-12.5-1.5-18.9-1.6c-6.4-0.1-12.7,0.3-19,1.2c-3.2,0.2-6.3,0.7-9.5,1.2
			c-3.1,0.6-6.2,1.3-9.2,2.3c-3,1-5.9,2.2-8.6,3.9c-2.6,1.7-5.1,3.9-6.5,6.8c1.1-3,3.3-5.7,5.9-7.7c2.6-2.1,5.5-3.7,8.5-5
			c3-1.4,6.2-2.4,9.3-3.3c3.2-0.9,6.4-1.6,9.6-2.2c3.2-0.5,6.5-0.7,9.8-0.9c3.3-0.2,6.5-0.3,9.8-0.3c6.5,0.1,13.1,0.4,19.6,1.7
			c1.7,0.3,3.3,0.7,5,1.3c1.7,0.6,3.4,1.5,4.8,2.6c1.4,1,2.7,2.2,3.9,3.5c1.2,1.2,2.2,2.6,3.2,4c2,2.8,3.6,5.8,4.8,9
			c1.2,3.2,2,6.6,2,10.1c0,3.5-0.7,7.1-2.4,10.3c-1.7,3.2-4.3,5.8-7.2,7.7c-2.9,2-6.1,3.3-9.2,4.3c-3.1,1.1-6.3,2-9.5,2.8
			c-6.4,1.5-12.8,2.7-19.3,3.5c-6.5,0.8-13,1.4-19.5,1.7c-6.5,0.3-13,0.3-19.5,0.1c-6.5-0.3-13-0.9-19.5-2.2
			c-3.2-0.6-6.5-1.5-9.6-2.7c-0.8-0.3-1.6-0.7-2.4-1l-1.2-0.6c-0.4-0.2-0.8-0.4-1.2-0.7l-1.2-0.8c-0.4-0.3-0.7-0.6-1-0.9
			c-0.7-0.6-1.2-1.4-1.8-2.1c-2.2-3-3.2-6.4-3.8-9.8l-0.2-1.3l-0.1-1.3c-0.1-0.8-0.2-1.7-0.2-2.5c-0.1-0.8-0.1-1.7-0.1-2.5l0-1.2
			l0-1.2c0.4-6.6,1.6-13.1,3.1-19.4C477.7,794.8,479.6,788.6,481.9,782.5z"/>
	</g>
	<g class="st5">
		<path d="M563.2,768.8c0.8,0.8,1.3,1.5,1.9,2.2c-0.1,0.7-0.1,1.3-0.1,2c0,1.3,0,2.6,0.2,3.9s0.3,2.5,0.7,3.6c0.2,0.5,0.4,1,0.7,1.5
			c-0.2,0.7-0.4,1.5-0.3,2.5c-1,0.3-2.1,0-3.1-0.4c-0.5-0.8-0.8-1.5-1-2.3c-0.5-1.5-0.7-3-0.9-4.5c-0.2-1.5-0.2-2.9-0.2-4.3
			c0-0.7,0-1.4,0-2.2C561.7,770.1,562.3,769.4,563.2,768.8z"/>
	</g>
</g>
<g id="Static_Outline">
	<g>
		<path d="M361.5,155.4c0.2,1,0.3,2.1,0.5,3.1c0.4,2,0.9,4.1,1.6,6.1c0.3,1,0.8,2,1.1,3c0.5,1,0.9,1.9,1.5,2.9
			c1.1,1.9,2.4,3.6,4,5.2c1.6,1.5,3.5,2.8,5.7,3.6c2.1,0.8,4.4,1.2,6.7,1.1c4.5-0.2,8.7-2.1,12.2-4.7c2.7-2,4.9-4.5,6.8-7.2
			c0.2,0.2,0.4,0.5,0.7,0.7c0.9,0.9,1.9,1.8,2.9,2.6c2.1,1.6,4.6,2.9,7.4,3.3c2.8,0.4,5.8-0.1,8.2-1.5c1.6-0.9,3.1-2,4.4-3.2
			c0.5,0.6,1,1.2,1.5,1.9c1.1,1.2,2.3,2.4,3.6,3.4c1.3,1,2.8,1.9,4.4,2.6c1.6,0.7,3.4,1,5.2,1.1c3.5,0,6.8-1.1,9.7-2.5
			c1.5-0.7,2.9-1.5,4.2-2.4c0.8-0.5,1.6-1.1,2.3-1.7c0.1,0.1,0.2,0.2,0.3,0.3c0.6,0.6,1.2,1.1,1.8,1.6c1.2,1,2.6,1.8,4,2.5
			c2.8,1.4,6.1,2.2,9.4,2c3.2-0.2,6.2-1.1,9-2.5c1.4-0.7,2.7-1.5,4-2.4c0.6-0.5,1.3-0.9,1.9-1.5c0.5,0.5,0.9,1.1,1.4,1.6
			c1,1.1,2.1,2.1,3.3,3c1.2,0.9,2.5,1.7,4,2.3c0.7,0.3,1.5,0.5,2.3,0.7c0.8,0.1,1.7,0.2,2.5,0.1c0.9,0,1.6-0.2,2.3-0.3
			c0.7-0.2,1.4-0.3,2.1-0.6c1.4-0.4,2.8-0.9,4.1-1.4c0.5-0.2,0.9-0.4,1.4-0.6c-0.1,0.3-0.2,0.7-0.4,1.1c-0.4,1.4-0.7,2.9-0.6,4.5
			c0.1,1.6,0.7,3.2,1.5,4.5c1.7,2.5,3.8,4.2,5.9,5.8c1.5,1.1,3.1,2.1,4.7,3c0,0.1-0.1,0.1-0.1,0.1c-0.6,0.7-1,1.4-1.5,2.2
			c-0.9,1.5-1.6,3.2-1.9,4.9c-0.7,3.5-0.1,7.2,1.4,10.2c1.5,3.1,3.8,5.9,6.8,7.5c1.5,0.9,3.1,1.5,4.7,1.9c1.1,0.3,2.2,0.4,3.4,0.5
			c-0.6,1.1-1,2.2-1.4,3.4c-0.6,1.7-1,3.4-1.1,5.2c-0.1,1.8,0.2,3.7,0.9,5.4c0.4,0.8,0.9,1.6,1.5,2.3c0.6,0.7,1.3,1.3,2,1.8
			c2.9,1.9,6.3,3.4,9.8,3.2c1.8-0.1,3.5-0.6,4.9-1.6s2.6-2.3,3.5-3.8c-1,1.4-2.2,2.7-3.6,3.5c-1.5,0.9-3.1,1.3-4.8,1.3
			c-3.4,0-6.5-1.6-9.2-3.6c-0.7-0.5-1.2-1.1-1.8-1.7c-0.5-0.6-0.9-1.3-1.2-2.1c-0.6-1.5-0.8-3.1-0.6-4.7c0.3-3.2,1.7-6.4,3.4-9.2
			c0.1-0.1,0.2-0.3,0.2-0.5c0-0.5-0.4-1-1-1h-0.1c-2.9,0-6-0.9-8.4-2.5c-0.6-0.4-1.2-0.9-1.8-1.3c-0.5-0.5-1.1-1-1.5-1.6
			c-1-1.1-1.7-2.4-2.3-3.8c-0.3-0.7-0.5-1.4-0.7-2.1l-0.2-1.1l-0.1-0.5l0-0.5c-0.2-1.4,0-2.8,0.3-4.2c0.3-1.4,0.9-2.7,1.7-3.9
			c0.4-0.6,0.8-1.2,1.3-1.7c0.5-0.5,1-1.1,1.5-1.4c0.2-0.1,0.3-0.3,0.4-0.5c0.5-0.9,0.2-1.9-0.7-2.4l0,0c-2.1-1.2-4.1-2.6-6-4.1
			c-1.8-1.5-3.7-3.1-4.7-4.9c-0.5-0.9-0.8-1.6-0.9-2.6c-0.1-0.9,0.1-2,0.4-3c0.6-2.1,1.8-4.2,3.1-6l0,0c0.5-0.6,0.6-1.6,0.1-2.3
			c-0.6-0.9-1.8-1.2-2.8-0.6c-2.1,1.4-4.5,2.6-6.9,3.6c-1.2,0.5-2.4,0.9-3.7,1.3c-0.6,0.2-1.2,0.3-1.9,0.5c-0.6,0.1-1.3,0.3-1.8,0.3
			c-0.5,0.1-1,0-1.6-0.1c-0.5-0.1-1.1-0.2-1.6-0.5c-1.1-0.4-2.1-1-3.1-1.8c-2-1.5-3.8-3.4-5.2-5.4c-0.1-0.1-0.1-0.2-0.2-0.3
			c-0.8-0.8-2.1-0.8-2.9,0c-0.8,0.8-1.9,1.8-3,2.5c-1.1,0.8-2.2,1.5-3.4,2.1c-2.4,1.2-4.9,1.9-7.5,2.1c-2.5,0.1-5-0.4-7.3-1.6
			c-1.1-0.6-2.2-1.3-3.3-2.1c-0.5-0.4-1-0.8-1.5-1.3c-0.5-0.4-1-1-1.3-1.4l0,0l0,0c-0.7-0.9-2-0.9-2.9-0.2c-2.1,1.8-4.6,3.5-7.1,4.7
			c-2.5,1.2-5.3,2.1-7.9,2.1c-2.5,0-5-1.1-7.2-2.8c-1.1-0.9-2.1-1.8-3-2.9c-0.9-1-1.8-2.2-2.5-3.3l0-0.1c-0.1-0.2-0.2-0.3-0.4-0.4
			c-0.8-0.7-2.1-0.6-2.8,0.2c-1.5,1.7-3.2,3.1-5,4.1c-1.8,1-3.8,1.4-5.8,1.1c-2-0.3-3.9-1.2-5.6-2.6c-0.9-0.7-1.7-1.4-2.5-2.2
			c-0.8-0.8-1.5-1.7-2.1-2.5l0,0c-0.2-0.2-0.4-0.4-0.6-0.6c-1-0.6-2.2-0.2-2.7,0.7c-1.9,3.2-4.3,6.2-7.2,8.4
			c-2.9,2.2-6.4,3.7-9.9,3.9c-3.5,0.2-6.9-1.2-9.5-3.7c-1.3-1.2-2.4-2.7-3.3-4.3c-0.5-0.8-0.9-1.6-1.3-2.5c-0.3-0.9-0.7-1.7-1-2.6
			c-0.6-1.8-1.1-3.7-1.5-5.5c-0.2-0.9-0.3-1.9-0.5-2.8c-0.1-0.9-0.2-1.9-0.2-2.8c-0.2-3.8,0.3-7.5,1.9-10.8c1.5-3.3,4.1-5.9,7.3-7.8
			c1.6-0.9,3.3-1.6,5.1-2.2c0.9-0.3,1.8-0.5,2.7-0.7c0.9-0.2,1.9-0.3,2.7-0.4c0.9-0.1,1.7-0.7,1.9-1.7l0,0c0-0.1,0.1-0.5,0.2-0.7
			c0.1-0.3,0.2-0.5,0.2-0.8c0.2-0.5,0.4-1.1,0.6-1.6c0.5-1.1,1.1-2.1,1.7-3.1c1.3-2,2.9-3.9,4.6-5.5c0.9-0.9,1.9-1.6,2.8-2.3l1.5-1
			l0.8-0.5l0.8-0.5l1.6-0.9c0.5-0.3,1.1-0.6,1.6-0.8c0.6-0.3,1.1-0.6,1.7-0.8l1.7-0.7c2.3-0.9,4.6-1.5,7-1.9
			c2.4-0.3,4.9-0.5,7.3-0.3c2.4,0.2,4.9,0.6,7.2,1.2c1.2,0.3,2.3,0.7,3.5,1.2c1.1,0.4,2.3,1,3.2,1.5c0.2,0.1,0.4,0.2,0.6,0.2
			c1.1,0.2,2.2-0.5,2.4-1.6l0,0c0.1-0.5,0.3-1.2,0.5-1.8c0.2-0.6,0.5-1.3,0.8-1.9c0.6-1.2,1.3-2.4,2.1-3.5c1.6-2.2,3.8-3.9,6.1-5.3
			l1.9-0.9c0.6-0.3,1.3-0.5,2-0.7l1-0.3l1-0.2l2-0.5c0.7-0.1,1.4-0.2,2.1-0.2c0.7-0.1,1.4-0.2,2.1-0.2c1.4,0,2.9-0.1,4.3,0
			c5.7,0.3,11.4,1.8,16,4.8c2.3,1.5,4.3,3.5,5.9,5.8c0.8,1.1,1.5,2.3,2.1,3.6c0.3,0.6,0.5,1.3,0.8,1.9c0.2,0.6,0.4,1.3,0.5,1.8
			c0.2,1,1.1,1.7,2.2,1.6c1.1-0.1,1.9-1.1,1.8-2.2v0c0-0.1,0-0.4,0-0.6c0-0.2,0-0.5,0-0.8l0.1-0.8l0.2-0.7c0.1-0.2,0.2-0.5,0.3-0.7
			l0.1-0.4l0.2-0.3l0.4-0.7l0.5-0.6c1.4-1.6,3.4-2.8,5.6-3.6c1.1-0.5,2.3-0.7,3.4-1c1.2-0.3,2.4-0.4,3.6-0.6l3.7-0.3l3.7,0.1
			c4.9,0.2,9.5,2,13.1,4.9c1.8,1.5,3.3,3.3,4.6,5.4c0.3,0.5,0.6,1,0.9,1.6c0.3,0.5,0.5,1.1,0.7,1.6c0.5,1.1,0.8,2.3,1.1,3.3
			c0.1,0.6,0.6,1.2,1.2,1.4c1,0.4,2.2,0,2.7-1.1l0-0.1c0.1-0.2,0.2-0.5,0.4-0.7c0.1-0.3,0.3-0.5,0.5-0.8c0.2-0.3,0.4-0.5,0.5-0.8
			c0.2-0.3,0.4-0.5,0.6-0.7c0.8-1,1.8-1.7,2.9-2.5c2.2-1.3,4.7-2,7.4-2.1c0.7-0.1,1.3,0,2,0l1,0c0.3,0,0.7,0.1,1,0.2l2,0.3
			c0.7,0.1,1.3,0.3,2,0.5c0.7,0.2,1.3,0.3,2,0.6l2,0.7c0.7,0.2,1.3,0.5,2,0.8l1.9,0.9c0.6,0.3,1.3,0.6,1.9,0.9l1.8,1.1l0.9,0.6
			c0.3,0.2,0.6,0.4,0.8,0.6l1.6,1.3c0.3,0.2,0.5,0.4,0.8,0.7l0.7,0.7c0.5,0.5,1,1,1.4,1.5c0.8,1.1,1.7,2.1,2.3,3.3
			c1.3,2.3,2.2,4.9,2.6,7.6c0.1,0.7,0.2,1.3,0.2,2c0,0.7,0.1,1.4,0,2l0,1l-0.1,1c-0.1,0.6-0.2,1.4-0.3,1.9l0,0c0,0.2-0.1,0.4,0,0.6
			c0.1,1.1,1.1,2,2.2,1.9c3.7-0.3,7.8,0,11.4,0.9c3.6,0.9,6.9,2.8,8.4,5.8c0.2,0.4,0.4,0.7,0.5,1.2l0.4,1.3c0.2,0.4,0.2,0.9,0.3,1.3
			c0.1,0.4,0.2,0.9,0.2,1.3c0.2,1.8,0,3.6-0.3,5.4c-0.3,1.8-0.9,3.6-1.7,5.4c-0.8,1.7-1.7,3.5-2.8,5l0,0.1c-0.2,0.3-0.3,0.6-0.3,1
			c0,1,0.7,1.8,1.7,1.8c0.5,0,1.1,0.1,1.7,0.2c0.3,0,0.6,0.1,0.9,0.2s0.6,0.1,0.9,0.2c1.2,0.3,2.3,0.9,3.3,1.5
			c2.1,1.3,3.8,3.2,4.9,5.4c0.3,0.5,0.5,1.1,0.8,1.7c0.3,0.6,0.5,1.2,0.6,1.8c0.2,0.6,0.4,1.2,0.5,1.9l0.3,1.9
			c0.3,2.6,0.5,5.2,0.2,7.8c-0.3,2.6-1,5.1-2.1,7.5c-1.1,2.3-2.7,4.5-4.5,6.4c-1.8,1.9-4,3.5-6.3,4.9c-2.3,1.4-4.8,2.5-7.3,3.2h0
			c-0.1,0-0.2,0.1-0.2,0.2c0,0.2,0.1,0.4,0.2,0.4c1,0.3,2.1,0.8,3,1.4c1,0.6,1.8,1.4,2.4,2.3c0.3,0.4,0.6,1,0.8,1.5
			c0.2,0.5,0.4,1.1,0.4,1.6c0.1,0.6,0.1,1.1,0.1,1.7c0,0.6-0.2,1.1-0.2,1.7c0.1-0.6,0.3-1.1,0.3-1.7c0-0.6,0.1-1.2,0-1.7
			c0-0.6-0.2-1.1-0.3-1.7c-0.2-0.5-0.4-1.1-0.8-1.6c-0.6-1-1.5-1.9-2.4-2.6c-0.7-0.5-1.4-0.9-2.2-1.2c5-1.4,9.6-3.9,13.5-7.5
			c2-1.9,3.8-4.1,5.1-6.6c1.3-2.5,2.2-5.2,2.7-8c0.5-2.8,0.4-5.6,0.2-8.4l-0.3-2.1c-0.1-0.7-0.3-1.4-0.5-2.1
			c-0.2-0.7-0.3-1.4-0.6-2.1c-0.3-0.7-0.5-1.4-0.8-2c-1.2-2.6-3.2-5-5.7-6.7c-1.2-0.8-2.6-1.6-4-2c-0.3-0.1-0.7-0.2-1.1-0.4
			c-0.2-0.1-0.3-0.1-0.5-0.1c0.7-1.1,1.2-2.1,1.8-3.2c0.9-1.9,1.7-4,2.2-6.1c1-4.3,0.7-9-1.4-13.2c-1.1-2.1-2.9-3.9-4.8-5.1
			c-1.9-1.3-4-2.1-6.2-2.6c-2.1-0.6-4.2-0.9-6.4-1.1c-1.3-0.1-2.5-0.1-3.8-0.1l0.1-1l0.1-1.2c0.1-0.8,0-1.6,0-2.4
			c0-0.8-0.2-1.6-0.2-2.4c-0.4-3.1-1.5-6.2-3.1-9c-0.7-1.4-1.7-2.7-2.7-3.9c-0.5-0.6-1.1-1.2-1.6-1.7l-0.8-0.8
			c-0.3-0.3-0.6-0.5-0.9-0.8l-1.8-1.5c-0.3-0.3-0.6-0.5-1-0.7l-1-0.6l-2-1.2c-0.7-0.4-1.4-0.7-2.1-1l-2.1-1
			c-0.7-0.3-1.4-0.6-2.1-0.8l-2.1-0.8c-0.7-0.2-1.5-0.4-2.2-0.6c-0.8-0.2-1.5-0.4-2.2-0.6l-2.3-0.4c-0.4-0.1-0.8-0.1-1.2-0.2
			l-1.2-0.1c-0.8,0-1.6-0.1-2.4,0c-3.2,0.1-6.5,1-9.3,2.7c-1.4,0.9-2.7,1.9-3.8,3.2c-0.1,0.1-0.2,0.2-0.3,0.3
			c-0.2-0.6-0.5-1.1-0.8-1.7c-0.3-0.6-0.7-1.2-1-1.8c-1.4-2.4-3.3-4.6-5.4-6.4c-4.4-3.6-10-5.6-15.4-5.8c-1.4,0-2.7-0.1-4.1-0.1
			l-4,0.3c-1.3,0.2-2.7,0.4-4,0.7c-1.3,0.3-2.7,0.6-4,1.2c-2.6,1-5.2,2.4-7.2,4.8l-0.7,0.9c-0.2,0.3-0.4,0.6-0.6,0.9
			c-0.5-0.9-1-1.8-1.6-2.7c-1.9-2.6-4.2-5-6.9-6.8c-5.4-3.6-11.8-5.2-18-5.5c-1.6-0.1-3.1,0-4.7,0c-0.8,0-1.6,0.1-2.4,0.2
			c-0.8,0.1-1.6,0.2-2.4,0.3l-2.3,0.5l-1.2,0.3l-1.1,0.4c-0.8,0.3-1.5,0.5-2.3,0.8l-2.2,1.1c-2.8,1.6-5.4,3.7-7.4,6.3
			c-1,1.3-1.8,2.7-2.6,4.2c-0.3,0.7-0.7,1.5-0.9,2.2c-0.5-0.2-1-0.4-1.5-0.6c-1.3-0.5-2.6-0.9-3.9-1.3c-2.6-0.7-5.3-1.2-8-1.3
			c-2.7-0.2-5.5,0-8.1,0.3c-2.7,0.5-5.3,1.1-7.9,2.1l-1.9,0.8c-0.6,0.3-1.2,0.6-1.8,0.9c-0.6,0.3-1.2,0.6-1.8,0.9l-1.7,1l-0.9,0.5
			l-0.8,0.6l-1.7,1.2c-1,0.9-2.1,1.7-3.1,2.6c-2,1.8-3.8,3.9-5.3,6.3c-0.7,1.2-1.4,2.4-2,3.7c-0.3,0.6-0.5,1.3-0.8,2
			c-0.1,0.2-0.1,0.4-0.2,0.7c-0.6,0.1-1.2,0.2-1.8,0.3c-1,0.2-2.1,0.5-3.1,0.8c-2,0.6-4,1.5-5.9,2.6c-3.8,2.2-7,5.5-8.9,9.5
			c-0.9,2-1.6,4.1-1.9,6.3c-0.3,2.1-0.5,4.3-0.3,6.4C361.3,153.3,361.4,154.4,361.5,155.4z"/>
		<path d="M593.8,274.5c-1.8,4.1-4.2,8-7,11.4c-0.6,1-1.2,1.9-1.9,2.8c-0.7,1-1.4,1.9-2.1,2.9c-1.2,1.7-2.5,3.5-3.7,5.2
			c-0.2-0.4-0.4-0.8-0.6-1.2c-0.9-1.6-2.4-3.1-4.1-4c-1.8-0.9-3.7-1.2-5.5-1.1c-1.8,0-3.8,0.5-5.4,1.6c-1.6,1-2.9,2.4-3.9,3.9
			c-1,1.5-1.6,3.1-2.1,4.7c-0.5,1.6-0.8,3.2-1,5c-0.2,1.6-0.2,3.4,0,5.1c0.2,1.7,0.5,3.5,1.3,5.2c0.8,1.7,2.2,3.4,4.1,4.3
			c0.9,0.4,1.9,0.7,2.9,0.8c0.5,0,1,0.1,1.4,0c0.5,0,0.9,0,1.4-0.1c1.8-0.2,3.6-1,5.2-1.8c0.4-0.2,0.7-0.6,1-0.9
			c0.3-0.3,0.6-0.7,0.8-1.1c0.5-0.7,0.9-1.5,1.2-2.3c0.6-1.6,1.1-3.1,1.8-4.5c-0.6,1.4-1.7,2.6-3.1,3.4c-0.7,0.4-1.4,0.8-2,1
			c-0.7,0.3-1.3,0.5-1.9,0.8c-1,0.8-2.3,1.2-3.5,1.4c-0.3,0-0.6,0.1-0.9,0.1c-0.3,0-0.6,0-0.9,0c-0.6-0.1-1.1-0.2-1.6-0.4
			c-1.9-0.8-2.9-3.4-3.2-6.2c-0.1-1.4-0.1-2.8,0-4.3c0.2-1.4,0.5-2.8,0.9-4.2c0.8-2.7,2.2-5.2,4.3-6.5c1-0.6,2.2-1,3.4-1
			c1.3,0,2.5,0.2,3.6,0.7c1,0.5,1.8,1.4,2.5,2.4c0.3,0.5,0.6,1.1,0.7,1.8c0.2,0.6,0.5,1.2,0.8,1.9c0.5,1.3,1.1,2.8,1.4,4.3
			c0.3,1.5,0.2,3.1-0.4,4.6c0.6-1.4,1-2.9,1.5-4.5c0.5-1.6,0.9-3.2,0.9-5c0-0.9,0-1.8-0.3-2.6c-0.2-0.4-0.3-0.7-0.5-1.1
			c1.7-1.3,3.5-2.6,5.2-4c0.9-0.7,1.8-1.5,2.8-2.2c0.9-0.8,1.9-1.6,2.8-2.4c3.1-3.7,5.7-7.9,7.7-12.4s3.2-9.3,3.7-14.1
			s0.4-10-1.5-14.8c-0.9-2.4-2.2-4.7-4-6.6s-3.8-3.6-6-4.8c-2.2-1.2-4.7-2.1-7.3-2.5c-2.6-0.4-5.2-0.2-7.7,0.4
			c-5,1.2-9.3,3.8-13.2,6.8c-3.4,3.5-6.3,7.4-8.4,11.7c3.4-3.3,7.1-6.2,10.9-8.6c3.5-2.8,7.4-5.1,11.5-6.1c2.1-0.5,4.2-0.6,6.2-0.3
			c2.1,0.3,4,1,5.9,2c3.7,2.1,6.7,5.4,8.1,9.3c1.5,4,1.7,8.5,1.2,12.9C596.8,266,595.6,270.4,593.8,274.5z"/>
		<path d="M340.8,304.6c0.6,4.8,2,9.4,3.9,13.8c0.5,1.1,0.9,2.2,1.5,3.2c0.6,1.1,1.1,2.2,1.8,3.1c0.7,1,1.3,2,2,3l2.1,2.9
			c2.9,3.7,6,7.2,9.3,10.5c1.6,1.7,3.3,3.3,5,4.9c1.7,1.6,3.4,3.2,5.1,4.7c13.8,12.4,28.6,23.6,43.6,34.3c15,10.7,30.4,21,46,30.9
			c0.5,0.3,1.3,0.4,1.9,0.1h0c5.1-2.4,9.9-5.4,14.5-8.5c4.6-3.1,9-6.5,13.3-10c8.6-7,16.7-14.6,24.5-22.4c3.9-3.9,7.7-7.9,11.6-11.9
			c1-1,1.9-2,2.8-3c0.9-1,1.8-2.1,2.7-3.1c1.8-2.1,3.5-4.2,5.3-6.4c3.5-4.3,6.9-8.6,10.3-13c3.4-4.4,6.6-8.8,9.8-13.3
			c-7.3,8.3-14.8,16.3-22.4,24.2c-7.8,7.8-15.1,16-22.9,23.7c-7.8,7.7-15.8,15.2-24.2,22.1c-4.2,3.5-8.6,6.7-13.1,9.8
			c-4.2,2.8-8.5,5.5-13,7.7c-15.2-9.6-30.2-19.6-44.9-30.1c-14.9-10.7-29.6-21.9-43.2-34.1c-1.7-1.5-3.4-3.1-5-4.6
			c-1.6-1.6-3.3-3.2-4.9-4.8c-3.2-3.2-6.2-6.6-9-10.2l-2-2.7c-0.7-0.9-1.2-1.9-1.8-2.8c-0.6-0.9-1.1-1.9-1.6-2.9c-0.5-0.9-1-2-1.4-3
			c-1.7-4.1-3.1-8.4-3.6-12.7c-0.3-2.2-0.4-4.4-0.2-6.5c0.2-2.2,0.4-4.3,0.9-6.5c0.5-2.1,1.1-4.2,2-6.2s2-3.9,3.3-5.7
			c2.6-3.6,6-6.6,10-8.8c3.9-2.2,8.4-3.7,13-3.7c-4.6-0.5-9.4,0.5-13.6,2.5c-4.3,2-8.2,4.9-11.3,8.5c-1.6,1.8-3,3.8-4.2,5.9
			c-1.2,2.1-2.1,4.4-2.8,6.7c-0.8,2.3-1.1,4.8-1.3,7.2c0,1.2-0.1,2.4,0,3.6C340.5,302.2,340.7,303.4,340.8,304.6z"/>
		<path d="M383.8,201.7c1.3-1.3,2.7-2.4,4.1-2.9c0.7-0.3,1.4-0.4,2.1-0.3c0.7,0.1,1.4,0.2,2,0.6c1.4,0.7,2.6,2,3.7,3.4
			c2.1,2.9,3.7,6.5,5.1,10.1c1.4,3.6,2.5,7.4,3.5,11.1c1.6,3.6,3,7.3,4.7,11.1c0-4-0.4-8.1-0.8-12.1c-1-3.9-2.2-7.7-3.6-11.5
			c-0.7-1.9-1.5-3.8-2.4-5.6c-0.9-1.9-1.9-3.7-3.2-5.4c-1.3-1.7-2.8-3.4-5-4.6c-2.1-1.2-5.1-1.4-7.4-0.5c-2.3,0.9-4,2.3-5.6,3.8
			c-1.5,1.5-2.8,3.2-4,4.9c-2.3,3.4-4.2,7-6,10.6c-1.7,3.6-3.2,7.4-4.7,11.1c-0.8,4-1.6,7.9-1.9,12c1.9-3.6,3.8-7.1,5.7-10.6
			c1.3-3.7,2.9-7.3,4.5-10.8c1.7-3.5,3.5-7,5.6-10.1C381.4,204.5,382.6,203,383.8,201.7z"/>
		<path d="M430.8,247.7c0.2,2.1,0.1,4.1,0.3,6.2c1.3-1.7,2.6-3.4,3.6-5.4c0.5-2,0.8-4.1,1.1-6.1c0.5-4.1,0.7-8.2,0.6-12.3
			c-0.1-4.1-0.4-8.2-0.9-12.2c-0.3-2-0.6-4.1-0.9-6.1c-1-1.9-2-3.8-3.2-5.5c-0.3,2.1-0.5,4.2-0.7,6.3c0.4,1.9,0.7,3.9,0.9,5.9
			c0.5,3.9,0.8,7.9,0.9,11.8c0.1,3.9-0.1,7.9-0.6,11.8C431.6,243.8,431.3,245.8,430.8,247.7z"/>
		<path d="M485.6,207c1.2,1.5,2.3,3.3,3.2,5.2c1.9,3.7,3.2,7.8,4.4,12c1.2,4.1,2.2,8.4,3.1,12.6l4.3,12.5c0.1-4.4-0.1-8.9-0.4-13.3
			c-0.9-4.3-1.9-8.6-3.1-12.9c-1.2-4.3-2.7-8.5-4.7-12.6c-1-2.1-2.2-4.1-3.7-5.9c-0.8-0.9-1.6-1.8-2.6-2.6c-1-0.8-2.2-1.5-3.5-1.9
			c-1.3-0.4-2.8-0.5-4.1-0.3c-1.4,0.2-2.6,0.7-3.7,1.3c-2.2,1.2-4,2.9-5.6,4.6c-3.1,3.4-5.5,7.3-7.7,11.1c-2.2,3.9-4.1,7.9-5.9,11.9
			c-1.2,4.3-2.3,8.6-2.9,13c2.2-3.9,4.4-7.7,6.6-11.4c1.7-4,3.6-7.9,5.7-11.6c2.1-3.7,4.4-7.4,7.2-10.4c1.4-1.5,2.9-2.9,4.5-3.8
			s3.3-1.2,4.8-0.7C483,204.3,484.4,205.5,485.6,207z"/>
		<path d="M427.9,351.5c1-0.2,2.3,0.1,3.6,0.6c0,0,0.1,0,0.1,0l0.1,0c1.1,0.3,2.2,0.6,3.3,0.9c0.5,0.2,1.1,0.3,1.7,0.3l1.7,0.2
			c1.1,0.2,2.3,0.2,3.4,0.3l1.7,0.1l1.7,0c4.6,0,9.2-0.9,13.5-2.6c4.3-1.6,8.2-4.2,11.7-7.2c1.7-1.5,3.2-3.2,4.7-5
			c1.5-1.9,2.7-3.9,3.6-6.1c0.9-2.1,1.5-4.5,1.9-6.8c0.4-2.2,0.6-4.5,0.6-6.8c0-2.3,0-4.6-0.6-7c-0.5-2.3-1.5-4.8-3.5-6.8
			c-2-1.9-4.9-2.7-7.4-2.6c-2.5,0-4.9,0.6-7,1.3c-2,0.5-4,1.2-6.1,1.6l-3.1,0.6l-3.2,0.5c-8.5,1.2-17.1,1.7-25.8,1.8
			c-8.6,0.1-17.3-0.2-26-0.8c-2.1-0.2-4.3-0.4-6.4-0.6l-1.6-0.2c-0.3,0-0.5-0.1-0.7-0.1l-0.3-0.1c0,0-0.1,0-0.2,0
			c0,0-0.2-0.1-0.3-0.2c-0.2-0.1-0.4-0.3-0.5-0.4c-0.4-0.3-0.7-0.6-1.1-1c-0.7-0.7-1.4-1.5-2-2.2c-0.3-0.4-0.6-0.8-0.8-1.1
			c-0.1-0.2-0.2-0.4-0.3-0.5c0.1,0,0.2-0.1,0.4-0.1c1.4-0.5,2.4-1.2,3.4-1.8c3.8-2.6,7-5.6,10.3-8.5c3.2-3,6.4-6,9.5-9.1
			c0.4-0.5,0.7-1.1,0.5-1.8l0-0.1c-0.1-0.5-0.2-1.3-0.2-1.9c0-0.7,0-1.4,0.1-2c0.1-1.4,0.4-2.7,0.9-3.9c1-2.5,2.7-4.6,5-6
			c1.1-0.7,2.4-1.3,3.7-1.8c1.3-0.5,2.7-0.9,4.1-1.1c1.4-0.3,2.9-0.4,4.3-0.5c0.7-0.1,1.4-0.1,2.2-0.1c0.7,0,1.4,0,2.2,0
			c2.9,0.1,5.7,0.6,8.4,1.7c2.7,1.1,5.2,2.7,7.4,4.7c2.2,2,4.1,4.4,5.7,6.9s2.9,5.3,3.9,8.3c-1.2-6-3.9-11.9-8.1-16.6
			c-2.1-2.4-4.7-4.4-7.6-5.9c-2.9-1.5-6.1-2.4-9.3-2.8c-0.8-0.1-1.6-0.1-2.4-0.2c-0.8,0-1.6,0-2.4,0c-1.6,0.1-3.2,0.3-4.8,0.6
			c-1.6,0.3-3.2,0.7-4.8,1.3c-1.6,0.6-3.1,1.3-4.5,2.2c-2.9,1.9-5.3,4.7-6.5,7.9c-0.6,1.6-1,3.3-1.2,5c-0.1,0.9-0.1,1.7-0.1,2.5
			c0,0.5,0,1,0.1,1.5c-2.8,2.8-5.7,5.6-8.7,8.3c-3.2,2.9-6.4,5.8-9.8,8.2c-0.8,0.6-1.7,1.1-2.4,1.3c-0.1,0-0.1,0-0.1,0l0,0l-0.1,0
			l-0.3,0.1c-0.5,0.1-1,0.3-1.6,0.8c-0.6,0.5-0.9,1.3-1,1.9c-0.1,0.7,0,1.1,0.1,1.6c0.2,0.8,0.5,1.4,0.9,2c0.3,0.6,0.7,1.1,1,1.5
			c0.7,1,1.5,1.8,2.4,2.7c0.4,0.4,0.9,0.8,1.3,1.2c0.2,0.2,0.5,0.4,0.8,0.6c0.3,0.2,0.6,0.4,1.1,0.6c1.6,0.5,2.6,0.5,3.7,0.7
			c2.2,0.3,4.4,0.5,6.6,0.6c8.8,0.6,17.5,0.9,26.3,0.9c8.8-0.1,17.6-0.5,26.3-1.8l3.3-0.5l3.3-0.7c2.2-0.4,4.4-1.1,6.5-1.7
			c2-0.6,3.9-1.1,5.8-1.1c1.9,0,3.5,0.5,4.6,1.6c1.2,1.1,1.9,2.8,2.4,4.7c0.4,1.9,0.5,4,0.5,6c0,2.1-0.3,4.2-0.6,6.2
			c-0.3,2-0.8,4-1.6,5.8c-0.8,1.9-1.8,3.6-3,5.2c-1.3,1.6-2.7,3.1-4.3,4.5c-3.1,2.7-6.6,5-10.5,6.5c-3.8,1.5-7.9,2.2-12.1,2.3
			l-1.5,0l-1.5-0.1l-1.5-0.1c-0.5,0-1-0.2-1.5-0.2c-2.1-0.3-4.1-0.8-6.2-1.1l0.2,0c-1.7-0.5-3.7-0.9-5.7-0.4c-1,0.3-2,0.8-2.7,1.5
			c-0.8,0.7-1.3,1.5-1.7,2.4c-1.6,3.3-1.5,7.1-0.3,10.2c0.6,1.6,1.5,3.1,2.7,4.3c1.1,1.2,2.4,2.3,3.7,3.2c2.7,1.8,5.8,2.9,8.9,3.4
			c-3.1-0.8-5.9-2.3-8.3-4.3c-2.3-2-4.3-4.5-5.1-7.3c-0.8-2.8-0.4-5.9,0.9-8.2C425.9,352.4,426.8,351.7,427.9,351.5z"/>
		<path d="M436.1,322.2c1.6,2.6,2.9,5.4,3.8,8.4c0.9,2.9,1.6,5.9,1.9,9c0.2,1.5,0.2,3.1,0.2,4.6c0.4,0.8,0.5,1.6,0.8,2.4
			c0.3,0.8,0.5,1.6,0.9,2.5c0.5-0.8,0.9-1.5,1.3-2.3c0.4-0.8,0.8-1.6,1.1-2.4c0-1.7,0-3.4-0.2-5c-0.2-3.4-1-6.7-2-9.9
			c-1-3.2-2.4-6.3-4.2-9.2c-0.4-0.7-0.9-1.4-1.3-2.1c-0.5-0.7-1-1.4-1.5-2.1c-1.5-1-3-1.9-4.8-2.4c0.6,1.7,1.1,3.3,1.5,4.9
			C434.4,319.6,435.3,320.9,436.1,322.2z"/>
		<path d="M522.8,89.9c0.5-0.4,1-0.8,1.5-1.2c1-0.8,2-1.6,2.9-2.4c1.9-1.7,3.7-3.4,5.4-5.3c1.1-1.2,2.2-2.5,3.2-3.8
			c1.6,1.9,3.2,3.8,4.9,5.7c2.2,2.5,4.5,4.9,6.8,7.3c2.3,2.4,4.8,4.7,7.4,6.9c0.3,0.3,0.6,0.6,1,0.8l1.2,0.6
			c0.8,0.4,1.6,0.7,2.4,1.1c0.8,0.3,1.7,0.6,2.5,0.9c0.4,0.2,0.9,0.2,1.3,0.3c0.4,0.1,0.8,0.2,1.3,0.2c-0.7-0.6-1.3-1.1-1.9-1.6
			c-0.6-0.6-1.2-1.1-1.7-1.8c-0.5-0.6-1.1-1.2-1.6-1.8l-0.8-1c-0.2-0.3-0.6-0.5-0.9-0.8c-2.5-2.1-4.8-4.3-7.1-6.7
			c-2.3-2.3-4.5-4.7-6.7-7.2c-2.2-2.4-4.3-4.9-6.4-7.4c-0.1-0.1-0.2-0.2-0.3-0.3c-0.9-0.7-2.2-0.5-2.8,0.4l0,0
			c-1.4,1.9-2.8,3.8-4.5,5.5c-1.6,1.8-3.3,3.4-5.1,4.9c-0.9,0.8-1.8,1.5-2.7,2.3c-0.5,0.4-0.9,0.7-1.5,1c-0.5,0.3-0.8,0.8-1.3,1.3
			c-1.7,1.8-3.4,3.5-5.3,5.2c2.5-0.5,4.9-1.3,7.3-2.3C521.6,90.5,522.3,90.3,522.8,89.9z"/>
		<path d="M596.7,130.9c0.3-0.7,0.6-1.5,0.8-2.2c0.2-0.7,0.4-1.5,0.6-2.3l0.5-2.3c-0.1-3.1-0.2-6.1-0.5-9.1c-0.3-3-0.7-6-1.1-8.9
			c-0.4-3-0.9-5.9-1.5-8.9c-0.2-0.9-1-1.6-2-1.6h0c-2.7,0.1-5.5-0.2-8.4-0.6c-2.8-0.3-5.7-0.8-8.5-1.2c-2.8-0.5-5.7-1-8.5-1.5
			c-3,0.1-5.9,0.1-8.9,0.3c2.7,1.4,5.4,2.6,8.2,3.7c2.9,0.5,5.7,1.1,8.6,1.5c2.9,0.5,5.8,0.9,8.7,1.3c2.4,0.3,4.8,0.5,7.2,0.6
			c0.4,2.3,0.8,4.7,1.1,7.1c0.4,2.9,0.8,5.8,1,8.8c0.3,2.9,0.5,5.8,0.5,8.7l0.4,2.2c0.1,0.7,0.2,1.4,0.3,2.2
			c0.1,0.7,0.1,1.4,0.2,2.2s0,1.5,0,2.3C595.9,132.3,596.4,131.6,596.7,130.9z"/>
		<path d="M529.1,55.7c1,2.5,2.3,4.8,3.8,7c1.5,2.2,3.2,4.2,5,6c-2.7-4.4-4.8-9.1-5.9-13.9c-0.6-2.4-0.7-4.8-0.5-7.1
			c0-2.3,0.6-4.5,1.8-6.4c1.1-1.9,2.8-3.5,4.8-4.9c1.9-1.3,4-2.2,6-2.2c4.1-0.1,7.8,3.8,9.9,7.8l0,0c0.4,0.7,1.1,1.2,2,1.1
			c1.1-0.1,1.9-1.1,1.8-2.2c-0.2-2.1-0.2-4.5,0-6.7c0.2-2.2,0.5-4.4,1.2-6.5c1.2-4.2,3.6-8,7.2-9.9c1.8-1,3.8-1.6,5.9-1.9
			c2.1-0.2,4.3-0.2,6.5,0.1c4.5,0.5,8.8,1.8,12.4,4.2c3.6,2.4,6.3,5.9,7.8,9.9c0.8,2,1.3,4.2,1.5,6.4c0.1,1.1,0.2,2.2,0.2,3.3
			c0,0.5,0,1.1,0,1.7c0,0.6-0.1,1.1-0.1,1.7c-0.1,1.1-0.3,2.2-0.6,3.2c-0.3,1-0.7,1.9-1,2.9c-0.7,1.9-2.1,3.4-3.9,4.5
			c-0.5,0.3-1,0.5-1.4,0.7c-0.5,0.2-1,0.4-1.5,0.6c-1,0.3-2.1,0.5-3.2,0.5c-1.1,0-2.2-0.2-3.2-0.8c-1-0.5-1.9-1.3-2.6-2.3
			c0.4,1.1,1.2,2.1,2.2,2.9c1,0.8,2.2,1.3,3.4,1.5c1.2,0.2,2.5,0.2,3.8,0.1c0.6-0.1,1.2-0.2,1.9-0.3c0.6-0.2,1.2-0.3,1.9-0.6
			c2.4-0.9,4.7-2.7,6.2-5.1c0.4-0.6,0.7-1.2,1-1.8c0.2-0.6,0.4-1.3,0.6-1.9c0.3-1.3,0.5-2.5,0.7-3.8c0.1-0.6,0.1-1.2,0.1-1.9
			s0-1.2,0-1.8c0-1.3-0.1-2.5-0.2-3.8c-0.3-2.5-0.8-5-1.8-7.3c-1.8-4.8-5.1-9-9.4-11.9c-4.3-2.9-9.2-4.3-14.1-4.8
			c-2.4-0.4-5-0.4-7.5-0.1c-2.5,0.3-5.1,1.1-7.4,2.4c-2.3,1.3-4.3,3.2-5.8,5.3c-1.5,2.1-2.5,4.5-3.2,7c-0.7,2.4-1.1,4.9-1.3,7.3
			c0,0.3,0,0.6,0,0.8c-0.4-0.4-0.8-0.8-1.3-1.2c-1.1-1-2.3-1.8-3.8-2.4c-1.4-0.6-3-0.9-4.5-0.9c-1.6,0-3.1,0.3-4.5,0.8
			c-1.4,0.5-2.7,1.3-3.8,2c-0.6,0.4-1.2,0.8-1.7,1.3l-0.8,0.7l-0.8,0.8c-1,1-1.9,2.2-2.7,3.4c-0.7,1.3-1.3,2.6-1.7,4
			c-0.4,1.4-0.6,2.8-0.7,4.3c-0.1,1.4,0.2,2.8,0.5,4.2C528.1,53.2,528.5,54.5,529.1,55.7z"/>
		<path d="M596.6,72.8c-0.1,0.2-0.2,0.3-0.3,0.5l-0.4,0.5c-0.2,0.3-0.5,0.7-0.8,1l-0.8,0.9c-1.1,1.1-2.4,1.9-3.8,2.4
			c-1.4,0.5-2.9,0.5-4.5,0.3s-3.2-0.7-4.8-1.3c-1.8-0.1-3.7-0.3-5.7-0.4c1.2,1.6,2.7,2.9,4.2,4.2c1.8,0.7,3.7,1.3,5.7,1.6
			c2,0.3,4.2,0.2,6.3-0.5c2.1-0.7,3.9-1.9,5.4-3.3l1-1.1c0.3-0.4,0.6-0.8,0.9-1.2l0.5-0.6c0.1-0.2,0.3-0.5,0.4-0.7
			c0.2-0.5,0.6-0.9,0.8-1.4c0.9-2,1.1-4.4,0.7-6.5c-0.4-2.1-1.4-4-2.5-5.7c-1.6-1.3-3.3-2.4-5.3-3c0.8,1.8,1.5,3.5,1.9,5.2
			c0.9,1.3,1.6,2.8,1.9,4.2c0.3,1.4,0.2,2.9-0.4,4.2C597,72.2,596.7,72.5,596.6,72.8z"/>
		<path d="M617.9,29c0.5,0.2,1,0.5,1.5,0.8c0.5,0.3,0.9,0.6,1.4,0.9c0.5,0.3,0.9,0.6,1.4,0.9c0.4,0.3,0.9,0.7,1.2,1.1
			c1.6,1.6,2.8,3.5,3.8,5.6c0.5,1.1,0.9,2.2,1.2,3.3c0.3,1.1,0.6,2.3,0.9,3.5c0.3,1.2,0.4,2.3,0.7,3.5c0.1,0.6,0.1,1.2,0.2,1.8
			c0,0.6,0.1,1.2,0,1.7c0,2.3-0.5,4.5-1.6,6c-0.5,0.8-1.3,1.3-2.1,1.8c-0.2,0.1-0.4,0.2-0.7,0.3c-0.2,0.1-0.5,0.2-0.7,0.2
			c-0.2,0-0.5,0.1-0.7,0.1c-0.2,0-0.5,0-0.6,0h-0.1c-1,0-1.8,0.7-2,1.7c-0.1,1.1,0.6,2.1,1.7,2.2c0.8,0.1,1.9,0.3,2.8,0.6
			c1,0.3,1.9,0.6,2.8,1c1.8,0.8,3.4,1.9,4.7,3.2c2.6,2.7,3.5,6.5,2.9,10.4c-0.3,1.9-0.8,3.9-1.6,5.7c-0.8,1.7-1.9,3.3-3.3,4.5
			c-1.4,1.2-3.1,2-4.9,2.4c-0.5,0.1-0.9,0.2-1.4,0.3c-0.5,0.1-1,0.1-1.4,0.1s-1,0-1.4,0c-0.5,0-1-0.1-1.3-0.1l0,0
			c-0.3-0.1-0.6,0-1,0.1c-1.1,0.3-1.7,1.5-1.3,2.6c0.1,0.4,0.3,1.1,0.3,1.6c0,0.6,0.1,1.2,0,1.7c-0.1,1.1-0.4,2.1-1,2.8
			c-0.6,0.8-1.4,1.3-2.5,1.8c-0.3,0.1-0.5,0.2-0.8,0.3c-0.3,0-0.5,0.1-0.8,0.2l-0.4,0.1l-0.4,0.1l-0.9,0.2c-2.4,0.2-5-0.4-7.5-1.3
			c-2.5-1-5-2.3-7.3-3.8c1.9,2.1,4,4,6.5,5.6c0.6,0.4,1.2,0.8,1.9,1.1c0.7,0.3,1.3,0.7,2,0.9c1.4,0.6,2.9,1,4.5,1.2l1.2,0l0.6,0
			c0.2,0,0.4-0.1,0.6-0.1c0.4-0.1,0.8-0.2,1.2-0.3l1.2-0.4c1.5-0.6,3.1-1.6,4.2-3.1c1.1-1.5,1.6-3.3,1.8-4.9c0.1-0.7,0-1.4,0-2.1
			c0.3,0,0.6,0,0.8,0c0.6,0,1.2-0.1,1.8-0.2c0.6-0.1,1.2-0.2,1.8-0.3c2.4-0.6,4.7-1.7,6.6-3.3c1.9-1.6,3.3-3.8,4.3-5.9
			c0.9-2.2,1.5-4.5,1.9-6.8c0.3-2.3,0.3-4.8-0.3-7.2c-0.6-2.4-1.9-4.7-3.6-6.5c-1.7-1.8-3.8-3.1-5.9-4.1c-0.2-0.1-0.4-0.2-0.7-0.3
			c0.7-0.5,1.3-1.1,1.8-1.8c0.5-0.6,0.8-1.3,1.2-2c0.3-0.7,0.5-1.4,0.7-2.1l0.4-2.1c0.1-0.7,0.1-1.4,0.1-2.1c0.1-0.7,0-1.4-0.1-2
			c-0.1-0.7-0.1-1.4-0.2-2c-0.2-1.3-0.4-2.6-0.7-3.9c-0.3-1.3-0.6-2.5-1-3.8c-0.4-1.3-0.9-2.5-1.4-3.8c-1.1-2.5-2.7-4.8-4.6-6.8
			c-1-1-2.1-1.9-3.3-2.7c-1.2-0.7-2.6-1.2-3.9-1.5c-2.7-0.7-5.5-0.7-8-0.3c-2.6,0.4-5.1,1.2-7.4,2.4C608.6,26.8,613.8,27,617.9,29z"
			/>
		<path d="M383.8,378.3c-4.4,0.7-8.8,1.7-13.1,3c-4.3,1.3-8.5,3-12.5,5.2c-2,1.1-4,2.3-5.8,3.8c-1.4,1.9-2.7,3.9-3.5,6.1
			c2-1.2,4-2.2,6-3c1.6-1.3,3.4-2.4,5.2-3.4c3.7-2,7.7-3.6,11.8-4.9c4.1-1.3,8.3-2.2,12.6-2.9c2.1-0.3,4.3-0.7,6.4-0.9
			c2.1-0.8,4.2-1.6,6.4-2.5c-2.2-0.8-4.5-1.2-6.8-1.5C388.2,377.6,386,377.9,383.8,378.3z"/>
		<path d="M443,422.1c-0.7,0.3-1.4,0.5-2,1c-1.3,0.8-2.6,1.5-3.9,2.3l-14.3,8.3c-3.2-3.4-6.3-6.9-9.3-10.4c-3.4-4-6.6-8-9.7-12.1
			c-3.1-4.1-6.1-8.4-8.6-12.8c-0.3-0.5-0.7-1.1-0.9-1.7c-0.1-0.3-0.3-0.6-0.5-0.8s-0.4-0.5-0.6-0.8l-1.1-1.6l-1.1-1.6
			c-1.4-2.2-2.7-4.4-3.6-6.9c-0.1,2.7,0.4,5.4,1.1,8l0.6,2l0.6,1.9c0.2,0.7,0.5,1.3,0.9,1.8l1,1.7c2.7,4.6,5.7,8.9,8.9,13.2
			c3.2,4.2,6.5,8.3,9.9,12.3c3.4,4,6.9,7.9,10.5,11.8c0.6,0.6,1.6,0.8,2.4,0.4l0,0l15.6-9.1c1.3-0.8,2.6-1.5,3.9-2.2
			c0.7-0.3,1.3-0.8,1.9-1.3l1.8-1.4c2.4-1.9,4.7-3.9,7-5.9c-2.9,1-5.8,2.1-8.6,3.2L443,422.1z"/>
		<path d="M450.8,458.2c0.3,1,0.6,1.9,1,2.9c0.4,0.9,0.9,1.9,1.5,2.6c0.2-2,0.9-3.6,1.5-5.4c0-1.8,0.1-3.5,0.3-5.3
			c0.3-3.6,0.8-7.2,1.4-10.8s1.2-7.2,1.8-10.8c0.3-1.8,0.6-3.6,1-5.4c-0.2-1.9-0.5-3.8-0.9-5.8c-1.2,1.6-2.1,3.3-3.1,5l-1,5.4
			c-0.7,3.6-1.3,7.2-1.9,10.9c-0.6,3.6-1,7.3-1.4,11C450.9,454.5,450.8,456.3,450.8,458.2z"/>
		<path d="M354.6,413.3l0.7,1.8l0.6,1.8c1.6,4.8,2.9,9.9,3.6,14.9c0.2,1.3,0.3,2.5,0.5,3.8l0.2,1.9l0.1,1.9c0.1,1.3,0.2,2.6,0.2,3.9
			l0,3.9v1.9l-0.1,1.9c-0.1,1.3-0.2,2.6-0.2,3.9c0.4,2.6,0.6,5.2,1.1,8c1.1-2.5,2.1-5,2.9-7.6c0.1-1.3,0.1-2.7,0.2-4l0.1-2v-2l0-4
			c-0.1-1.3-0.2-2.7-0.2-4l-0.1-2l-0.2-2c-0.2-1.3-0.3-2.7-0.5-4c-0.8-5.3-2.1-10.5-3.8-15.6l-0.7-1.9l-0.7-1.9
			c-0.5-1.3-1-2.5-1.6-3.7c-1.7-2.2-3.5-4.3-5.6-6c0.8,2.6,1.4,5.2,2,7.7C353.6,410.9,354.2,412.1,354.6,413.3z"/>
		<path d="M360.4,473.7c1.2,0.8,2.5,1.5,3.9,2c1.4,0.5,2.9,1,4.6,1c0.4,0,0.8,0,1.2-0.1c0.4,0,0.9-0.1,1.3-0.2
			c0.7-0.8,1.1-1.7,1.3-2.7c-1-0.4-1.7-0.6-2.3-1.2c-0.1-0.1-0.1,0-0.2,0c0,0-0.1,0-0.2,0.1l-0.4,0c-0.2,0-0.5,0.1-0.7,0
			c-1,0-2.1-0.3-3.1-0.7c-1.1-0.4-2.1-1-3.1-1.7c-0.5-0.3-1-0.7-1.5-1.1c-0.9,0.1-1.7,0.2-2.8,0.3c-0.1,1.1,0.1,2,0.3,2.9
			C359.3,472.9,359.8,473.3,360.4,473.7z"/>
		<path d="M371.6,528.1c1.5,2.6,3.4,5,5.6,7.1c2.2,2.1,4.9,3.6,7.6,4.8l2.1,0.8l2.2,0.7l1.1,0.3c0.5,0.1,0.8,0.2,1.2,0.2
			c0.7,0.1,1.5,0.2,2.2,0.2c2.9,0.2,5.9,0.2,8.8-0.2c2.9-0.7,5.7-1.7,8.3-3.1c2.5-1.5,4.8-3.4,6.4-5.8c-4.4,3.6-9.9,4.9-15.2,4.9
			c-2.6,0.3-5.3,0.4-8,0.2c-0.7-0.1-1.3-0.1-2-0.2c-0.3,0-0.7-0.1-0.9-0.1l-0.9-0.3l-1.9-0.5l-1.8-0.7c-4.8-2-8.8-5.6-11.3-10.2
			c-2.5-4.6-3.6-9.9-3.9-15.3c-0.3-5.4,0.2-10.9,1-16.3c0.5-2.7,1-5.4,1.7-8c0.3-1.3,0.7-2.6,1.1-4c0.4-1.3,0.8-2.7,1.3-3.8l6-15.7
			c1.5-5.5,2.9-10.9,4.1-16.5c-2.8,4.9-5.3,10-7.9,14.9l-6,15.7c-0.6,1.5-1,2.8-1.4,4.2c-0.4,1.4-0.8,2.8-1.1,4.1
			c-0.7,2.8-1.3,5.6-1.8,8.4c-0.9,5.6-1.5,11.4-1.1,17.2C367.5,516.9,368.7,522.8,371.6,528.1z"/>
		<path d="M499.6,546.3c4.4-0.1,8.8-0.7,13-2c2.1-0.6,4.2-1.5,6.2-2.5c1.7-1.5,3.2-3.3,4.4-5.1c-2.2,0.6-4.2,1.2-6.2,1.6
			c-1.8,0.9-3.6,1.7-5.5,2.2c-3.8,1.2-7.8,1.7-11.9,1.8c-4,0-8.1-0.4-12.1-1.2c-2-0.4-4-0.9-5.9-1.5c-2.1,0-4.3-0.1-6.5-0.2
			c1.6,1.6,3.5,2.9,5.4,4.1c2.1,0.6,4.2,1.1,6.3,1.6C490.9,545.9,495.2,546.4,499.6,546.3z"/>
		<path d="M321.5,418.5c1.1-0.7,2.3-1.4,3.5-2c2.4-1.3,4.9-2.4,7.4-3.5c2.5-1.1,5.1-2.1,7.7-3c1.3-0.5,2.6-0.9,3.9-1.3
			c1.1-1,2.3-2,3.4-3.2c-1.6-0.4-3.1-0.5-4.6-0.6l-4,1.4c-2.7,1-5.3,2-7.9,3.1c-2.6,1.1-5.2,2.3-7.8,3.6c-1.3,0.7-2.5,1.4-3.8,2.2
			c-0.5,0.7-0.9,1.4-1.3,2c-0.4,0.7-0.7,1.5-1,2.2l2.2-0.5L321.5,418.5z"/>
		<path d="M279.7,393.7c1.8,1.9,3.7,3.7,5.5,5.5c2.1,1.3,4.2,2.6,6.2,4c4.1,2.8,8,5.9,11.7,9.1s7.1,6.8,10.1,10.7
			c1.5,1.9,2.9,3.9,4.1,6c1.7,1.8,3.3,3.7,5,5.8c-0.1-2.6-0.7-5.2-1.5-7.8c-1.3-2.3-2.8-4.4-4.4-6.5c-3.2-4.1-6.8-7.8-10.6-11.2
			c-3.8-3.4-7.9-6.5-12-9.4c-2.1-1.5-4.2-2.8-6.4-4.2C284.8,394.9,282.3,394.1,279.7,393.7z"/>
		<path d="M343,482.5c1.6-1,3-2.1,4.4-3.2c2.8-2.4,5.1-5.2,6.9-8.3c-1.3,1.2-2.5,2.5-3.9,3.5c-1.3,1.1-2.9,2-4.3,2.9
			c-1.5,0.8-3,1.6-4.6,2.2c-0.8,0.3-1.6,0.7-2.4,0.9c-0.8,0.2-1.6,0.6-2.4,1c-3.2,1.3-6.5,2.2-9.8,3c-3.2,0.7-6.6,1.2-9.8,1.5
			c-4.2-1.3-8.2-3-12.2-5c-4-2.1-7.9-4.4-11.6-7c-3.7-2.6-7.2-5.5-10.6-8.6c-3.3-3.1-6.5-6.3-9.6-9.7c-6-6.8-11.5-14.1-16.5-21.8
			c-1.2-1.9-2.5-3.8-3.6-5.9c-0.5-1-1.2-1.9-1.9-2.9l-2-2.8c-2.6-3.8-5.1-7.7-7.5-11.6c1.3,4.5,3,8.8,4.9,13.1l1.4,3.2
			c0.5,1.1,0.9,2.1,1.6,3.1c1.3,2,2.4,4,3.7,5.9c5,7.9,10.7,15.3,16.9,22.3c3.1,3.5,6.4,6.8,9.9,10c3.5,3.2,7.1,6.1,10.9,8.9
			c3.8,2.7,7.9,5.2,12.1,7.3c4.2,2.1,8.6,3.9,13.1,5.3l0,0c0.2,0.1,0.4,0.1,0.6,0.1c3.7-0.2,7.2-0.8,10.8-1.6
			c3.5-0.8,7-1.9,10.4-3.1C339.9,484.5,341.5,483.5,343,482.5z"/>
		<path d="M249.9,353.1c-0.6,0.4-1.1,0.9-1.6,1.3c-0.5,0.5-1,1-1.5,1.5c-0.9,1.1-1.8,2.2-2.5,3.6c-0.6,1.3-1,2.5-1.4,3.8
			c-0.4,1.3-0.7,2.6-1,4c-0.2,1.4-0.4,2.8-0.3,4.2c0.1,1.5,0.4,3,1.1,4.5s2.1,2.8,3.6,3.5c0.4,0.2,0.8,0.3,1.1,0.5l0.6,0.2l0.5,0.1
			c0.7,0.2,1.4,0.4,2.2,0.3c0.4,0,0.8,0,1.1,0c0.4,0,0.7-0.1,1.1-0.2c0.7-0.1,1.4-0.4,2.1-0.6c1.3-0.6,2.6-1.2,3.6-2.2
			c2.1-1.8,3.7-4,4.7-6.4c-0.8,1-1.8,1.9-2.8,2.6c-1,0.8-2,1.4-3.1,1.9c-1.1,0.5-2.2,0.8-3.3,1c-0.6,0-1.1,0.1-1.6,0.1l-0.8,0
			c-0.3,0-0.5-0.1-0.8-0.2c-1-0.2-2.2-0.2-2.9-0.7c-0.8-0.4-1.4-1-1.8-1.7c-0.8-1.6-0.8-3.9-0.4-6.2c0.4-2.3,1.2-4.7,2.1-6.8
			c0.4-0.9,1.1-1.8,1.9-2.7c0.4-0.4,0.8-0.8,1.2-1.2c0.4-0.4,0.9-0.8,1.3-1.1c1.8-1.4,3.9-2.5,6.1-3.4c2.2-0.8,4.6-1.4,7-1.7
			l1.8-0.2l1.8-0.1c0.6,0,1.2-0.1,1.8-0.1c0.6,0,1.1,0,1.7,0.1c2.2,0.2,4.4,0.9,6.2,2.1c1.9,1.2,3.4,3,4.5,4.9c1.2,2,2,4.2,2.5,6.5
			c1,4.6,0.8,9.6-0.6,14.1c-0.8,4.7-2.9,9.3-6.6,12.9c2.3-1.1,4.4-2.8,6.2-4.8s3.2-4.4,4.3-6.9c1.6-5.2,1.8-10.8,0.7-16.1
			c-0.6-2.7-1.5-5.3-2.9-7.7c-1.4-2.4-3.3-4.6-5.7-6.2c-2.4-1.6-5.2-2.6-8.1-2.8c-0.7-0.1-1.4,0-2.1-0.1c-0.7,0-1.3,0.1-2,0.1
			l-2,0.1l-2,0.3c-2.6,0.4-5.3,1-7.8,2C254.6,350.1,252.1,351.5,249.9,353.1z"/>
		<path d="M243.2,392.6c-0.9,1.9-1.8,3.7-2.9,5.1c-0.5,1.6-1.4,3-2.5,4c-1.1,1-2.6,1.4-4.2,1.5c-1.6,0-3.4-0.3-5-0.9
			c-0.8-0.3-1.6-0.6-2.3-1c-0.7-0.4-1.3-0.9-1.8-1.5c-1-1.1-1.6-2.5-1.7-4.1c-0.1-1.6,0.1-3.3,0.6-5c-0.1-1.9,0.1-3.9,0.4-5.9
			c-1.7,1.3-3.1,2.9-4.2,4.8c-0.6,2-1,4.2-0.8,6.5c0.1,1.1,0.3,2.3,0.8,3.4c0.5,1.1,1.1,2.1,1.9,3c0.8,0.9,1.8,1.6,2.7,2.2
			c1,0.6,2,1,3,1.4c2.1,0.7,4.2,1.2,6.5,1.1c2.3-0.1,4.8-0.8,6.6-2.5c1.9-1.6,3-3.7,3.7-5.7C244.3,396.8,244,394.6,243.2,392.6z"/>
		<path d="M225.3,383.5c2,1.3,4.1,2.3,6.5,2.9c2.3,0.6,4.8,0.6,7.2,0.2c2.2-1,4.2-2.5,5.5-4.4c-2.2,0.5-4.3,0.7-6.2,0.5
			c-1.8,0.4-3.7,0.3-5.5-0.1c-1.8-0.4-3.6-1.3-5.1-2.3c-0.8-0.5-1.4-1.1-2-1.8c-0.6-0.7-1.1-1.4-1.5-2.2c-1.6-3.3-1.7-7.4-0.3-10.8
			c0.7-1.7,1.8-3.2,3.1-4.3c0.5-0.8,1.1-1.5,1.9-2.2c0.8-0.6,1.7-1.2,2.7-1.7c-1.1-0.3-2.3-0.4-3.5-0.3c-1.2,0.1-2.4,0.5-3.6,1
			c-2,1.6-3.4,3.7-4.3,5.9c-1.8,4.5-1.7,9.6,0.4,14.1C221.5,380.2,223.2,382.2,225.3,383.5z"/>
		<path d="M229.9,354.6c2,2.8,4.3,5.3,6.9,7.4c-1.3-3.1-2.4-6.1-3.3-9.2c-1.4-2.8-2.5-5.7-3.3-8.7c-0.7-3-1-6-0.5-8.9
			c0.2-1.5,0.6-2.9,1.2-4.2l0.5-1c0.1-0.3,0.3-0.5,0.5-0.8c0.4-0.5,0.8-1,1.3-1.3c1-0.8,2.2-1.2,3.4-1.3c0.6,0,1.2,0,1.8,0.2
			c0.7,0.2,1.3,0.4,2,0.7c2.6,1.1,4.9,3.1,6.9,5.4c2,2.3,3.7,4.9,5.2,7.7c2,2.5,3.9,5.2,5.8,7.9c-0.5-3.3-1.2-6.6-2.3-9.8
			c-1.6-3-3.4-5.8-5.7-8.4c-2.3-2.6-5-5-8.4-6.5c-0.8-0.4-1.7-0.7-2.6-0.9c-0.9-0.2-2-0.4-3-0.3c-2.1,0.1-4,0.9-5.6,2.1
			c-0.8,0.6-1.5,1.4-2.1,2.2c-0.3,0.4-0.6,0.9-0.8,1.3l-0.6,1.2c-0.7,1.7-1.2,3.4-1.5,5.2c-0.5,3.5-0.2,7.1,0.6,10.5
			C227.2,348.4,228.5,351.6,229.9,354.6z"/>
		<path d="M578.4,474.1c6.3-0.9,12.5-1.9,18.7-3.1c6.2-1.2,12.4-2.5,18.6-4.3c3.1-1,6.3-2.3,9.1-4.2c2.8-1.9,5.3-4.4,7.2-7.2
			c1.9-2.9,3.1-6.1,3.7-9.5s0.6-6.7,0.2-10c-0.4-3.3-1.5-6.5-2.7-9.6c-1.3-3-2.8-5.9-4.6-8.6c-1.8-2.7-3.7-5.4-5.7-7.8
			c-1-1.3-2.1-2.4-3.2-3.6c-1.1-1.1-2.2-2.3-3.4-3.4c-2.3-2.3-4.8-4.3-7.3-6.3l-2-1.4l-1-0.7c-0.3-0.2-0.7-0.5-1.1-0.7
			c-1.4-0.9-3-1.6-4.5-2.3c-3-1.3-6.2-2.2-9.3-3c-1.6-0.4-3.1-0.7-4.7-1c-1.6-0.3-3.1-0.6-4.7-0.8c-6.4-0.6-12.7-0.9-19-0.8
			c-6.3,0-12.6,0.3-18.8,0.9c0.9-1.1,1.8-2.3,2.6-3.4c0.3-0.4,0.5-0.9,0.4-1.4c-0.2-1.4-0.7-2.7-1.4-3.8c-0.7-1.1-1.6-2.1-2.5-3
			c-1.8-1.8-4.1-2.6-6.2-3.4c-2.2-0.7-4.4-1.2-6.6-1.6s-4.4-0.5-6.6-0.5c2.1,0.6,4.2,1.4,6.2,2.2c2,0.8,3.9,1.8,5.7,2.8
			c1.8,1,3.3,2.4,4.8,3.5c1.2,1,2,2.3,2.4,3.6c-5.3,7.1-10.8,14-16.3,20.9c-5.8,7.1-11.6,14.1-17.8,20.7c-3.1,3.3-6.3,6.5-9.7,9.3
			c-0.9,0.7-1.7,1.3-2.6,1.8c-0.4,0.2-0.9,0.4-1.2,0.6c-0.4,0.1-0.7,0.1-0.6,0.1c0,0,0,0,0,0l-0.2-0.1l-0.4-0.1l-0.8-0.3l-1.6-0.6
			c-1-0.4-2.1-0.8-3.1-1.2c-2.1-0.9-4.1-1.8-6.1-2.8c-1-0.5-1.9-1.1-3-1.6c-1-0.5-2.1-0.9-3.1-1.4c-4.1-2-8-4.2-11.6-7.2
			c2.6,3.8,6.1,7.1,9.8,10c0.9,0.7,1.9,1.4,2.8,2.1c0.5,0.3,1,0.6,1.5,0.9l1.6,0.8c2.1,1.1,4.2,2,6.4,3c1.1,0.5,2.2,0.9,3.3,1.3
			l1.7,0.6l0.8,0.3l0.4,0.1l0.2,0.1c0.1,0,0.3,0.1,0.4,0.1c1.2,0.2,2,0,2.7-0.3c0.7-0.3,1.3-0.6,1.9-0.9c1.1-0.6,2.1-1.4,3.1-2.1
			c3.8-3,7-6.3,10.2-9.7c6.3-6.8,12.2-13.8,18-21c4.9-6,9.6-12.1,14.3-18.3c3.1,0.1,6.2,0.3,9.3,0.5c3.1,0.2,6.3,0.5,9.4,0.8
			c6.2,0.6,12.5,1.4,18.5,2.6c6.1,0.9,12.2,2.1,17.8,4.5c1.3,0.6,2.7,1.2,3.9,2c0.3,0.2,0.6,0.4,0.9,0.6l0.9,0.7l1.9,1.4
			c2.4,1.9,4.8,3.9,7,6c1.1,1,2.2,2.2,3.2,3.3c1,1.1,2.1,2.3,3,3.5c2,2.3,3.8,4.8,5.4,7.4c1.7,2.6,3.1,5.2,4.3,8
			c1.2,2.8,2.1,5.6,2.4,8.5c0.8,5.9-0.1,12-3.2,16.8c-1.5,2.4-3.6,4.5-6,6.1c-2.4,1.6-5.1,2.8-8,3.7c-5.9,1.7-12,3-18.2,4.2
			c-6.2,1.2-12.3,2.2-18.5,3c-6.2,0.9-12.4,1.6-18.6,1.9c-3.1,0.2-6.2,0.3-9.1,0c-0.4,0-0.7-0.1-1.1-0.1c-0.3,0-0.7-0.1-1-0.2
			c-0.3-0.1-0.6-0.2-0.8-0.3c-0.3-0.1-0.5-0.3-0.8-0.4c-1-0.6-2-1.6-2.8-2.7c-0.8-1.1-1.5-2.4-2-3.7c-0.5-1.4-0.9-2.7-1.2-4.2
			c-0.6-2.9-0.6-5.9-0.4-8.8c0.3-3,0.8-6,1.7-8.9c0.8-2.9,2.1-5.7,3.3-8.5c2.3-5.7,5.4-11.1,8.9-16.2c3.5-5.2,7.4-10.1,11.6-14.8
			c-9.5,8.3-18,17.9-24.2,29.4c-0.7,1.5-1.4,2.9-1.9,4.5c-0.6,1.5-1.1,3.1-1.6,4.6c-0.9,3.1-1.6,6.4-1.9,9.6
			c-0.3,3.3-0.2,6.6,0.4,10c0.6,3.3,1.8,6.6,3.9,9.5c1,1.4,2.3,2.8,4,3.8c0.4,0.2,0.8,0.5,1.3,0.6c0.5,0.2,1,0.4,1.4,0.4
			c0.5,0.1,0.9,0.2,1.3,0.2c0.4,0.1,0.9,0.1,1.3,0.1c3.3,0.3,6.5,0.1,9.7,0C565.8,475.7,572.1,475,578.4,474.1z"/>
		<path d="M644.2,569.7c-0.8-2.6-2.1-5.2-3.9-7.4c-1.8-2.2-4.3-3.8-7-4.8c-2.7-1-5.5-1.4-8.2-1.2c-1.4,0-2.7,0.3-4,0.5
			c-0.4,0.1-0.9,0.2-1.3,0.3c0-6.7-0.1-13.4-0.3-20.1c-0.2-7.6-0.2-15.2-1-22.7c-0.6-7.6-1.4-15.1-2.3-22.6
			c-1-7.5-2.1-15.1-4.4-22.3l0.5,2.8c0.2,0.9,0.4,1.9,0.5,2.8c0.2,1.9,0.5,3.7,0.7,5.6c0.1,1.9,0.4,3.8,0.5,5.6l0.4,5.6
			c0.4,7.5,0.5,15.1,0.6,22.6c-0.1,7.5,0.4,15.1,0.5,22.6c0.2,7.5,0.3,15.1,0.3,22.6c0,0.2,0,0.3,0.1,0.5c0.3,1.1,1.3,1.7,2.4,1.5
			l0.1,0c1.2-0.3,2.3-0.7,3.4-0.9c1.2-0.2,2.3-0.4,3.5-0.4c2.3-0.2,4.6,0.2,6.6,0.9s3.9,2,5.3,3.7c1.4,1.7,2.5,3.7,3.1,5.9
			c0.6,2.2,0.9,4.5,0.8,6.8c-0.1,2.2-0.7,4.2-2,5.8c-2.6,3.2-7.6,4.6-12,4.8h-0.1c-0.7,0-1.3,0.4-1.7,1.1c-0.5,1-0.1,2.2,0.8,2.7
			c3.3,1.7,6,4.6,7.7,8c1.7,3.4,2.3,7.4,1.2,10.7c-0.5,1.7-1.5,3.1-2.8,4.1c-0.7,0.5-1.5,0.9-2.3,1.3c-0.4,0.2-0.8,0.3-1.2,0.5
			l-1.3,0.3c-1.7,0.2-3.5,0-5.1-0.7c-0.8-0.3-1.6-0.8-2.4-1.3c-0.8-0.5-1.5-1.2-2.1-1.7l0,0c-0.5-0.5-1.4-0.8-2.2-0.5
			c-1,0.4-1.5,1.5-1.2,2.6c0.8,2.1,1.5,4.2,2,6.3c0.5,2.1,0.8,4.2,0.8,6.2c-0.1,2-0.6,3.8-1.8,5c-0.6,0.6-1.3,1.1-2.1,1.4
			c-0.4,0.2-0.8,0.3-1.3,0.3c-0.2,0-0.5,0.1-0.7,0.1c-0.2,0-0.5,0-0.6,0h-0.1c-0.1,0-0.1,0-0.2,0c-3.6,0.3-7.2,0-10.7-1
			c-3.4-1-6.6-2.7-9.5-4.8c-5.8-4.4-10.1-10.6-13.5-17.2c-3.4-6.7-5.9-13.8-8-21.1c-2-7.3-3.6-14.7-4.8-22.2
			c-1.2-7.5-2.2-15-2.9-22.6c-0.8-7.6-1-15.2-1.7-22.8c-1.1-15.2-1.7-30.5-1.6-45.8c-1.5,15.2-2.1,30.6-2,46c0,3.8,0.1,7.7,0.4,11.5
			c0.3,3.8,0.6,7.7,0.9,11.5c0.7,7.7,1.7,15.3,2.9,22.9c1.3,7.6,2.8,15.2,4.9,22.6c2.1,7.5,4.7,14.8,8.3,21.8
			c3.6,6.9,8.2,13.7,14.6,18.6c3.2,2.5,6.9,4.4,10.8,5.5c3.9,1.1,8,1.4,12,1.1c0.4,0,0.6,0,1,0c0.3,0,0.7-0.1,1-0.1
			c0.7-0.1,1.4-0.3,2-0.5c1.3-0.5,2.6-1.3,3.6-2.4c1-1.1,1.7-2.4,2.2-3.7c0.4-1.3,0.6-2.6,0.7-3.9c0.1-2.6-0.3-5-0.9-7.4
			c-0.1-0.4-0.2-0.7-0.3-1.1c0.2,0.1,0.4,0.2,0.7,0.3c2.2,0.9,4.7,1.3,7.2,1c0.6-0.1,1.2-0.3,1.8-0.4c0.6-0.2,1.2-0.4,1.7-0.6
			c1.1-0.5,2.1-1.1,3.2-1.8c2-1.5,3.5-3.7,4.2-6.1c0.7-2.3,0.9-4.8,0.6-7.1c-0.3-2.3-1-4.6-2-6.6c-1.2-2.5-3-4.8-5.1-6.7
			c0.9-0.2,1.8-0.5,2.8-0.8c2.6-0.9,5.2-2.4,7.1-4.8c1.9-2.3,2.8-5.4,2.9-8.2C645.4,575.1,645,572.4,644.2,569.7z"/>
		<path d="M554.9,609.8c-2.5,0.3-5.1,0.4-7.6,0.6c-1.3,0.1-2.5,0.1-3.8,0.1c-1.3,0-2.5,0-3.8,0s-2.5-0.1-3.8-0.1l-1.9,0l-1.9-0.1
			c-2.5-0.2-5-0.5-7.5-0.9c-4.9-0.8-9.9-2.1-14.6-3.7l0,0c-0.4-0.2-0.9-0.2-1.3,0c-5.9,1.8-12,3.3-18.1,4.6
			c-6.1,1.2-12.3,2.2-18.5,2.8c-6.1,0.6-12.3,0.3-18.3-0.9c-3-0.6-6-1.4-8.9-2.4c-1.5-0.5-2.9-1.1-4.3-1.7c-1.4-0.6-2.8-1.3-4-2
			l-0.1-0.1l0,0c-0.9-0.5-2.1-0.1-2.6,0.8c-0.2,0.5-1.1,1.2-2.1,1.7c-1,0.5-2,1-3.1,1.5c-2.2,0.9-4.5,1.6-6.9,2.2
			c-4.7,1.2-9.5,2.1-14.4,2.7c-4.8,0.6-9.8,0.9-14.5,0.6c-1.1-0.1-2.3-0.3-3.3-0.5c-0.5-0.1-1-0.3-1.2-0.5c0,0-0.1-0.1-0.1-0.1
			l0.2-0.8c0.2-0.7,0.4-1.4,0.5-2c0.2-1.3,0.5-2.6,0.6-3.8c0.6-5,1-10,1.2-15c0.2-2.5,0.3-5,0.4-7.5c0.1-1.2,0.2-2.5,0.2-3.7
			c0-1.2,0-2.5,0-3.7c-0.2-10-0.5-19.9-1.1-29.9l-2.7,29.7c-0.6,9.9-0.9,19.9-2,29.6c-0.1,1.2-0.4,2.4-0.5,3.6
			c-0.1,0.6-0.3,1.1-0.4,1.6l-0.1,0.4l0,0.2c0,0.1,0,0.1-0.1,0.3c-0.2,0.5-0.3,1.2-0.2,1.9c0.1,0.7,0.5,1.4,0.8,1.8
			c0.4,0.5,0.8,0.8,1.2,1c0.8,0.5,1.5,0.7,2.2,0.9c1.4,0.4,2.7,0.6,4,0.7c5.2,0.4,10.3,0,15.3-0.6c5-0.6,10-1.5,14.9-2.8
			c2.5-0.6,4.9-1.4,7.3-2.3c1.2-0.5,2.4-1,3.6-1.7c0.6-0.3,1.2-0.7,1.8-1.2c0.2-0.1,0.3-0.3,0.5-0.4c2.5,1.3,5,2.3,7.5,3.2
			c3.1,1.1,6.2,1.9,9.4,2.5c6.4,1.3,13,1.6,19.5,1c6.4-0.6,12.7-1.6,19-2.8c6-1.2,12-2.7,18-4.5c4.9,1.7,9.7,2.8,14.6,3.7
			c2.6,0.4,5.2,0.8,7.8,1c2.6,0.2,5.3,0.4,7.9,0.2c1.3-0.1,2.6-0.3,4-0.4c1.3-0.2,2.6-0.4,3.9-0.6c2.6-0.4,5.1-0.9,7.7-1.5
			c5-1.2,10.1-2.6,14.7-4.9c-2.4,0.8-5,1.4-7.5,1.8C560,609.2,557.5,609.6,554.9,609.8z"/>
		<path d="M560.8,626.3c-2,0.1-4,0.1-5.9,0.2c-1,0-2,0-3,0.1L549,627l-5.9,0.6c-3.9,0.4-7.9,0.7-11.8,1c-7.8,0.7-15.7,1.2-23.6,1.7
			c-3.9,0.2-7.9,0.4-11.8,0.6l-5.9,0.3l-5.9,0.2c-15.8,0.6-31.5,0.9-47.3,0.8c-7.9,0-15.8-0.2-23.6-0.3c-3.9-0.1-7.9-0.2-11.8-0.5
			c-3.6,0.1-7.2,0.2-10.8,0.2l-0.4-5.8l-0.5-7l-0.8,7l-0.7,7c-0.1,0.6,0.4,1.1,1,1.2l0.2,0c4,0.5,7.9,1,11.8,1.4l11.9,0.4
			c7.9,0.2,15.8,0.3,23.7,0.3c15.8,0.1,31.6-0.2,47.5-0.8l5.9-0.2l5.9-0.3c4-0.2,7.9-0.4,11.9-0.6c7.9-0.5,15.8-1,23.7-1.7
			c7.9-0.7,15.8-1.3,23.6-2.3c3.9-0.7,7.8-1.4,11.7-2.2c3.9-0.8,7.8-1.6,11.7-2.4c-4,0.1-7.9,0.2-11.9,0.4L560.8,626.3z"/>
		<path d="M483.8,730c-1-3.3-2.2-6.5-3.5-9.7c-2.7-6.3-6.1-12.2-10-17.8c3.1,6,5.7,12.2,7.7,18.7c1,3.2,1.8,6.4,2.4,9.7
			c0.6,3.3,1,6.5,1.5,9.8c0.4,3.3,0.5,6.5,0.3,9.8c-0.2,3.2-0.9,6.4-2.2,9c-0.7,1.3-1.5,2.4-2.5,3c-0.5,0.3-1.2,0.5-1.9,0.8
			c-0.7,0.2-1.5,0.4-2.3,0.6c-3.1,0.7-6.5,1.2-9.8,1.6c-6.6,0.8-13.4,1.3-20.1,1.6c-6.7,0.3-13.5,0.5-20.2,0.6
			c-6.7,0.1-13.5,0-20.1-0.4c-1.6-0.1-3.3-0.3-4.9-0.5c-1.5-0.2-3-0.7-4.2-1.3c-1.3-0.6-2.3-1.5-2.9-2.5c-0.3-0.5-0.5-1.1-0.6-1.7
			c0-0.3,0-0.6,0-0.9c0-0.2,0-0.3,0-0.4c0-0.1,0.1-0.3,0.1-0.3l0.1-0.2c1.8-10.3,3.2-20.6,4.3-30.9c1.1-10.4,1.9-20.8,1.6-31.3
			c-0.1-2.6-0.3-5.3-0.6-7.9c-0.2-1.3-0.4-2.7-0.7-4c-0.3-1.3-0.7-2.7-1.1-3.9c-0.3-1.2-0.7-2.4-1-3.6c-0.3-1.2-0.6-2.5-0.8-3.7
			c-0.4-2.5-1-5-1.4-7.5c-1.6-10.1-2.3-20.5-2.3-30.8c-0.7,5.1-1.2,10.3-1.4,15.5c-0.2,5.2-0.2,10.4,0.1,15.7
			c0.2,2.6,0.3,5.3,0.9,7.9c0.2,1.3,0.6,2.6,0.9,3.9c0.3,1.3,0.7,2.6,1,3.9c0.4,1.3,0.7,2.4,1,3.6c0.3,1.2,0.5,2.4,0.6,3.7
			c0.3,2.5,0.5,5,0.6,7.5c0.3,10.2-0.5,20.5-1.5,30.7c-1.1,10.2-2.5,20.5-4.2,30.6c-0.1,0.3-0.1,0.5-0.1,0.7c0,0.3-0.1,0.5-0.1,0.8
			c0,0.5,0,1.1,0.1,1.6c0.1,1.1,0.5,2.2,1,3.1c1.1,1.9,2.8,3.3,4.5,4.2c1.8,0.9,3.5,1.4,5.4,1.7c1.8,0.3,3.5,0.4,5.2,0.5
			c6.9,0.4,13.6,0.5,20.4,0.4c6.8-0.1,13.6-0.3,20.4-0.6c6.8-0.3,13.6-0.8,20.4-1.6c3.4-0.4,6.8-0.9,10.2-1.7
			c0.9-0.2,1.7-0.4,2.6-0.7c0.9-0.3,1.8-0.6,2.8-1.2c1.9-1.2,3.1-2.9,4-4.6c0.9-1.7,1.4-3.5,1.8-5.2c0.4-1.8,0.6-3.5,0.8-5.3
			c0.3-3.5,0.1-7-0.3-10.5C485.7,736.7,484.8,733.3,483.8,730z"/>
		<path d="M511.3,772.9c3.2,0.4,6.4,0.5,9.6,0.5c6.3,0,12.6-0.5,18.9-1.2c12.5-1.4,24.9-3.5,37.1-6c6.1-1.2,12.2-2.6,18.3-4
			c0.7-0.2,1.6-0.4,2.5-0.7c0.8-0.3,1.6-0.6,2.4-1c1.6-0.8,3-1.8,4.3-3.1c1.3-1.2,2.3-2.6,3.2-4.2c0.4-0.8,0.8-1.6,1.1-2.4
			c0.3-0.8,0.5-1.5,0.7-2.3c0.9-3.1,1.6-6.3,1.8-9.6c0.1-1.7,0-3.4-0.2-5.1c-0.1-0.4-0.2-0.9-0.3-1.3l-0.4-1.3l-0.7-2.2l-1.3-4.4
			l-1.2-4.5c-0.8-3-1.5-6-2.2-9c-0.7-3-1.2-6.1-1.9-9.1c-0.6-3-1.1-6.1-1.6-9.2c-0.5-3.1-1-6.1-1.3-9.2c-0.4-3.1-1-6.1-1.5-9.2
			c-2-12.3-3.7-24.7-5-37.1c0,12.5,0.5,25,1.5,37.5c0.2,3.1,0.5,6.2,0.9,9.3l1.5,9.3c0.5,3.1,1,6.2,1.6,9.3c0.6,3.1,1.2,6.2,1.9,9.2
			c0.7,3.1,1.4,6.1,2.2,9.2l1.2,4.6l1.4,4.5l0.7,2.3l0.3,1c0.1,0.3,0.1,0.7,0.2,1c0.2,1.3,0.3,2.8,0.2,4.2c-0.2,2.9-0.8,5.8-1.6,8.7
			c-0.2,0.7-0.4,1.5-0.7,2.1c-0.2,0.6-0.5,1.3-0.8,1.9c-0.6,1.2-1.5,2.3-2.5,3.2c-1,0.9-2.1,1.8-3.3,2.4c-0.6,0.3-1.2,0.6-1.9,0.8
			c-0.7,0.2-1.3,0.4-2.1,0.5c-6.1,1.4-12.1,2.7-18.2,4c-12.2,2.5-24.5,4.6-36.8,5.9c-6.2,0.7-12.3,1.1-18.5,1.2
			c-3.1,0-6.1-0.1-9.1-0.4c-0.8-0.1-1.5-0.2-2.2-0.3c-0.7-0.2-1.5-0.2-2.1-0.4c-1.4-0.3-2.8-0.8-3.8-1.4c-0.5-0.3-0.9-0.7-1.2-1
			c-0.2-0.3-0.4-0.6-0.3-1l0-0.1l0-0.3l0-0.6l0-1.3c0-0.8,0-1.6-0.1-2.4c-0.1-3.2-0.4-6.3-0.7-9.4c-0.6-6.2-1.4-12.5-2.1-18.7
			c-1.6-12.4-3.3-24.8-5.1-37.1c-0.1-1-1.1-1.8-2.1-1.7l-0.1,0c-2.1,0.2-4.2,0.3-6.3,0.4c-1.1,0-2.1,0.2-3.2,0.2l-3.2,0.1
			c-4.3,0-8.5-0.1-12.8-0.5c-4.3-0.4-8.6-0.9-12.8-1.7c-4.2-0.7-8.5-1.5-12.7-2.6c8.1,3,16.6,5.2,25.2,6.7c4.3,0.8,8.7,1.3,13,1.6
			c2.2,0.1,4.4,0.3,6.6,0.2c1.6,0,3.1-0.2,4.7-0.3c1.7,11.7,3.3,23.5,4.8,35.2c0.8,6.2,1.5,12.4,2.1,18.5c0.3,3.1,0.6,6.2,0.7,9.2
			c0,0.8,0.1,1.5,0.1,2.2l0,1.1l0,0.5v0.7c0,0.3,0,0.6,0,0.9c0.1,0.3,0.1,0.6,0.2,0.9c0.1,0.3,0.2,0.6,0.4,0.8
			c0.1,0.2,0.3,0.5,0.5,0.8c0.7,0.9,1.5,1.5,2.3,2c1.6,1,3.3,1.5,4.9,1.9c0.8,0.2,1.6,0.3,2.4,0.5
			C509.7,772.7,510.5,772.8,511.3,772.9z"/>
		<path d="M575.3,663.5c-0.7-0.3-1.2-0.8-1.9-1.1c-1.3-0.7-2.4-1.6-3.6-2.5c-0.6-0.5-1.1-1-1.7-1.4c-0.6-0.5-1.1-1-1.6-1.5
			c-2-2.1-3.8-4.4-5.4-6.9c-0.4-0.6-0.7-1.3-1.1-1.9c-0.3-0.7-0.7-1.3-1-2c-1.2-1.1-2.3-2.2-3.5-3.5c-0.3,1.7-0.3,3.4-0.2,5.2
			c0.3,0.7,0.7,1.4,1.1,2.2c0.4,0.7,0.8,1.4,1.2,2.1c1.7,2.8,3.7,5.3,5.9,7.6c0.5,0.6,1.1,1.2,1.7,1.7c0.6,0.5,1.2,1.1,1.8,1.6
			c1.3,1,2.6,2,4,2.8c0.7,0.4,1.4,0.9,2.1,1.2c0.7,0.3,1.4,0.7,2.2,1.1c0.8,0.1,1.7,0.1,2.6,0.1c0.9,0,1.7-0.1,2.5-0.2
			c-0.6-0.7-1.2-1.2-1.8-1.8s-1.2-1.1-1.7-1.7C576.7,664.2,576,663.9,575.3,663.5z"/>
		<path d="M404,648.9c-0.4,2-0.8,4-1.5,5.9c-0.7,1.9-1.5,3.7-2.6,5.2c-0.3,0.4-0.6,0.7-0.9,1.1c-0.1,0.2-0.3,0.4-0.5,0.5
			c-0.1,0.1-0.2,0.2-0.3,0.2c-0.1,0.1-0.2,0.1-0.2,0.2c-0.2,1.1-0.7,2.1-1.2,3.4c1.3,0.1,2.7,0,3.9-0.4c0.5-0.4,0.9-0.8,1.3-1.3
			s0.8-0.9,1.1-1.4c1.4-1.9,2.4-4.1,3.2-6.2c0.8-2.2,1.3-4.3,1.7-6.6c0.2-1.1,0.3-2.2,0.5-3.3c-0.5-1.2-1-2.3-1.8-3.4
			c-0.9,1-1.5,2-2.2,3C404.3,646.9,404.1,647.9,404,648.9z"/>
		<path d="M390.6,778.8c0.4,0.2,0.7,0.3,1.1,0.3c0.4-0.3,0.7-0.6,1-0.9c0.6-0.6,1-1.3,1.5-1.9c0.4-0.6,0.8-1.3,1.2-1.9
			c0.2-0.3,0.3-0.7,0.5-1c-0.4-0.6-0.7-1.2-1.4-1.9c-0.9,0-1.6,0-2.3,0c-0.1,0.3-0.3,0.6-0.4,0.9c-0.3,0.6-0.6,1.1-1,1.7
			c-0.4,0.5-0.7,1-1.1,1.4c-0.2,0.2-0.4,0.4-0.5,0.5c0.1,0.3,0.2,0.6,0.3,0.9c0,0.2,0.1,0.3,0.1,0.5c0,0.2,0,0.4,0,0.6
			C389.9,778.4,390.2,778.7,390.6,778.8z"/>
		<path d="M476.7,810.3c-1.5-6.8-4.4-13-7.6-18.9c-3.3-5.9-7-11.5-11.2-16.7c1.8,2.8,3.4,5.7,4.9,8.7c1.5,2.9,3,5.9,4.3,9
			c2.6,6.1,4.8,12.3,5.6,18.7c0.1,0.8,0.2,1.6,0.3,2.3c0,0.8,0.2,1.6,0.2,2.3c0.1,1.5,0,3.1-0.2,4.6c-0.5,3-1.6,5.8-3.6,7.9
			c-0.5,0.5-1,1.1-1.6,1.5c-0.3,0.2-0.6,0.5-0.9,0.7l-1,0.6c-1.3,0.8-2.7,1.4-4.2,2c-3,1.2-6.1,2-9.3,2.8
			c-6.4,1.5-12.9,2.4-19.5,3.2c-6.6,0.8-13.2,1.3-19.8,1.7c-13.2,0.8-26.5,1.1-39.8,1.1l-5,0l-2.5,0c-0.8,0-1.7,0-2.4,0
			c-3.1-0.2-6.1-0.9-9-2.1c-1.4-0.6-2.8-1.3-4.1-2.2c-1.2-0.8-2.6-1.9-3.9-2.9c-0.7-0.5-1.2-1-1.8-1.5c-0.5-0.5-1.1-1-1.6-1.6
			c-1-1.2-1.8-2.4-2.5-3.7s-1.2-2.8-1.5-4.2c-0.3-1.5-0.5-3-0.5-4.5c0-1.5,0.2-3,0.6-4.5c0.2-0.7,0.4-1.5,0.7-2.2
			c0.2-0.8,0.5-1.5,0.8-2.3c2.3-6,5.7-11.6,10.4-15.8c2.3-2.1,4.9-3.9,7.8-5.3c0.7-0.3,1.5-0.6,2.2-0.9c0.4-0.2,0.7-0.3,1.1-0.5
			l1.1-0.3c0.8-0.2,1.5-0.5,2.3-0.7l2.3-0.5c0.8-0.2,1.6-0.3,2.4-0.4l2.4-0.3l4.9-0.2c1.6-0.1,3.3,0,4.9,0l2.5,0.1
			c0.8,0.1,1.6,0.1,2.4,0.1c6.5,0.1,13,1,19.3,2.8c3.2,0.9,6.2,2,9.2,3.5c3,1.4,5.9,3.1,8.4,5.3c-2.2-2.5-5-4.5-7.8-6.3
			c-2.9-1.8-5.9-3.3-9.1-4.5c-6.3-2.5-13-4-19.8-4.8c-0.9-0.1-1.7-0.2-2.5-0.2l-2.5,0c-1.7,0-3.4-0.1-5.1,0.1l-5.1,0.3
			c-0.9,0.1-1.7,0.2-2.6,0.3c-0.9,0.1-1.7,0.2-2.6,0.4l-2.6,0.5c-0.9,0.2-1.7,0.5-2.5,0.8l-1.2,0.4c-0.4,0.1-0.8,0.3-1.2,0.5
			c-0.8,0.3-1.6,0.7-2.4,1c-3.2,1.6-6.1,3.6-8.7,5.9c-2.6,2.3-4.9,5.1-6.7,8c-1.9,2.9-3.4,6.1-4.7,9.3c-0.3,0.8-0.6,1.6-0.9,2.4
			c-0.3,0.8-0.5,1.6-0.8,2.5c-0.4,1.8-0.7,3.6-0.7,5.4c0,1.8,0.2,3.7,0.6,5.4c0.4,1.8,1.1,3.5,1.9,5.1c0.8,1.6,1.9,3.2,3,4.5
			c0.6,0.7,1.2,1.3,1.9,2c0.7,0.6,1.4,1.2,2.1,1.7c1.3,1,2.6,2,4.1,3c1.5,1,3.1,1.8,4.7,2.5c3.3,1.4,6.8,2.2,10.4,2.4
			c0.9,0,1.8,0,2.6,0l2.5,0l5,0c13.4,0,26.7-0.3,40.1-1.1c6.7-0.4,13.4-0.9,20-1.7c6.7-0.8,13.3-1.8,19.9-3.3c3.3-0.8,6.6-1.7,9.8-3
			c1.6-0.7,3.2-1.4,4.8-2.3l1.2-0.7c0.4-0.3,0.8-0.6,1.1-0.8c0.8-0.5,1.4-1.3,2-1.9c2.6-2.7,4-6.4,4.6-10c0.3-1.8,0.3-3.6,0.3-5.4
			c0-0.9-0.1-1.8-0.2-2.7C477,812,476.8,811.1,476.7,810.3z"/>
		<path d="M630.8,796.3c-1-1.4-2-2.7-3.2-4c-1.2-1.2-2.4-2.4-3.9-3.5c-1.4-1-3-2-4.8-2.6c-1.7-0.6-3.3-1-5-1.3
			c-6.6-1.3-13.1-1.6-19.6-1.7c-3.3,0-6.5,0.1-9.8,0.3c-3.3,0.2-6.5,0.4-9.8,0.9c-3.2,0.6-6.4,1.3-9.6,2.2c-3.2,0.9-6.3,1.9-9.3,3.3
			c-3,1.3-5.9,3-8.5,5c-2.5,2.1-4.8,4.7-5.9,7.7c1.5-2.9,3.9-5.1,6.5-6.8c2.7-1.7,5.6-3,8.6-3.9c3-1,6.1-1.7,9.2-2.3s6.3-1,9.5-1.2
			c6.3-0.8,12.7-1.2,19-1.2c6.3,0.1,12.8,0.4,18.9,1.6c1.5,0.3,3,0.7,4.4,1.2c1.3,0.5,2.5,1.1,3.7,2c1.2,0.9,2.3,1.9,3.3,3
			c1,1.1,2,2.3,2.9,3.5c1.8,2.5,3.3,5.2,4.3,8c1.1,2.8,1.7,5.8,1.8,8.8c0,1.5-0.1,2.9-0.5,4.3c-0.1,0.7-0.4,1.4-0.6,2.1l-0.4,1
			c-0.1,0.3-0.3,0.7-0.5,1c-1.4,2.5-3.4,4.7-5.9,6.3c-0.6,0.4-1.3,0.8-1.9,1.2c-0.7,0.3-1.3,0.7-2,1l-2.1,0.9l-2.2,0.8
			c-3,1-6,1.9-9.1,2.7c-6.2,1.5-12.5,2.6-18.8,3.4c-6.3,0.8-12.7,1.4-19.1,1.7c-6.4,0.3-12.8,0.3-19.2,0.1
			c-6.4-0.3-12.7-0.9-18.9-2.1c-3.1-0.6-6.1-1.4-9-2.5c-0.7-0.3-1.4-0.6-2.1-0.9l-1-0.5c-0.3-0.2-0.7-0.3-0.9-0.5l-0.8-0.6
			c-0.3-0.2-0.5-0.5-0.8-0.7c-0.5-0.4-0.9-1-1.3-1.5c-1.7-2.3-2.6-5.2-3.1-8.2l-0.2-1.1l-0.1-1.2c-0.1-0.8-0.2-1.5-0.2-2.3
			c-0.1-0.8-0.1-1.5-0.1-2.3l0-2.3c-0.2-6.3,0.4-12.7,1.2-19c0.4-3.2,1-6.3,1.6-9.5c0.6-3.2,1.3-6.3,2-9.5c-2.3,6-4.2,12.2-5.8,18.6
			c-1.5,6.3-2.7,12.8-3.1,19.4l0,1.2l0,1.2c0,0.8,0.1,1.7,0.1,2.5c0.1,0.8,0.1,1.7,0.2,2.5l0.1,1.3l0.2,1.3c0.6,3.3,1.6,6.8,3.8,9.8
			c0.6,0.7,1.1,1.5,1.8,2.1c0.3,0.3,0.7,0.7,1,0.9l1.2,0.8c0.4,0.3,0.8,0.5,1.2,0.7l1.2,0.6c0.8,0.3,1.6,0.7,2.4,1
			c3.2,1.2,6.4,2,9.7,2.7c6.5,1.3,13,1.8,19.5,2.2c6.5,0.3,13,0.2,19.5-0.1c6.5-0.3,13-0.9,19.5-1.7c6.5-0.8,12.9-2,19.3-3.5
			c3.2-0.8,6.3-1.7,9.5-2.8c3.1-1,6.3-2.4,9.2-4.3c2.9-1.9,5.4-4.6,7.2-7.7c1.8-3.2,2.5-6.8,2.4-10.3c-0.1-3.5-0.8-6.9-2-10.1
			C634.4,802.1,632.7,799.1,630.8,796.3z"/>
		<path d="M601.5,775c-0.4-1.1-0.6-2.3-0.7-3.6c-0.1-1.3-0.2-2.6-0.2-3.9c0-0.7,0-1.3,0.1-2c-0.6-0.7-1.1-1.4-1.9-2.2
			c-0.9,0.6-1.5,1.3-2.2,2c0,0.7,0,1.4,0,2.2c0,1.4,0,2.9,0.2,4.3c0.2,1.5,0.4,2.9,0.9,4.5c0.2,0.8,0.6,1.5,1,2.3
			c1,0.4,2.1,0.8,3.1,0.4c-0.1-1,0-1.8,0.3-2.5C601.9,776.1,601.7,775.5,601.5,775z"/>
	</g>
</g>
</svg>
