<?xml version="1.0" encoding="utf-8"?>
<!-- Generator: Adobe Illustrator 24.3.0, SVG Export Plug-In . SVG Version: 6.00 Build 0)  -->
<svg version="1.1" id="Layer_1" xmlns="http://www.w3.org/2000/svg" xmlns:xlink="http://www.w3.org/1999/xlink" x="0px" y="0px"
	 viewBox="0 0 144 144" style="enable-background:new 0 0 144 144;" xml:space="preserve">
<style type="text/css">
	.st0{fill:#434459;}
	.st1{fill:#989ACC;}
	.st2{fill:#43459C;}
</style>
<path class="st0" d="M121.5,139.5h-99c-9.9,0-18-8.1-18-18v-99c0-9.9,8.1-18,18-18h99c9.9,0,18,8.1,18,18v99
	C139.5,131.4,131.4,139.5,121.5,139.5z"/>
<g>
	<path class="st1" d="M21.8,70.7c0.3-0.2,26.4-16.7,49.1-43.5l0.4-0.5l0.2,0.7c0,0.1,3.1,12.7,3.5,28.4c3.3,0.3,30.5,2.5,40.9,0.2
		c1.9-0.4,4.4,0,5.7,4.4c2.7,9.1-1.6,31.6-5.3,32.9c-4.1,1.5-37.1,0.3-41.2,0.1c-0.1,12.1-3.2,23.3-3.2,23.5l-0.1,0.4l-0.4-0.2
		c-37.3-15.8-49.5-45.7-49.6-46l-0.1-0.3L21.8,70.7z"/>
	<path class="st2" d="M77.6,91.1c-0.1,0,34.9,0.1,34.9,0.1s2.5,0.2,3.2-1.5s2.6-9.8,2.6-9.8S112.6,89.6,77.6,91.1z"/>
	<path class="st2" d="M69.7,112.2c0,0,2.4-10.4,2.3-16.5c0,0-5.9,14.3-33.6-5.3C38.5,90.5,52,105.6,69.7,112.2z"/>
</g>
</svg>
